<svg xmlns="http://www.w3.org/2000/svg" viewBox="0 0 64.31 58.59"><defs><style>.cls-1{fill:#c6875e;}</style></defs><g id="Capa_2" data-name="Capa 2"><g id="Capa_1-2" data-name="Capa 1"><path class="cls-1" d="M17.72,10.49a9.67,9.67,0,0,0-1.09,0,1.44,1.44,0,0,1-1.77-1.18c-.38-1.4-1.08-2.24-2.72-1.95C11.19,7.53,10.8,7,10.81,6c0-1.54,0-3.09,0-4.64,0-1,.42-1.36,1.36-1.36H36.9c.87,0,1.4.36,1.27,1.28S38.38,2.86,39.41,3a3,3,0,0,1,2.53,2.56c.21.75.53.73,1.26.54,2.11-.55,2.87-2.12,3.53-3.95C47.58-.17,47.21,0,49.84,0c4.22,0,3.62-.44,3.64,3.7,0,3.76,0,7.53,0,11.29,0,.85.19,1.22,1.1,1.15s1.76,0,2.64,0a1,1,0,0,1,1.14,1.15c0,1.21,0,2.42,0,3.64,0,.76-.3,1.24-1.1,1.17s-1,.42-1,1.14a8.61,8.61,0,0,1,0,.88c0,2,0,2.07-2.06,2.22-.65,0-.75.32-.75.86,0,6.06,0,12.13,0,18.2,0,.77.34.9,1,.88,1.21,0,2.42,0,3.64,0,.82,0,1.23.35,1.21,1.21,0,1.09,0,2.18,0,3.27,0,.6.22.81.81.8,1,0,2,0,3,0,.83,0,1.22.37,1.2,1.22q0,2.32,0,4.65c0,.79-.39,1.14-1.15,1.16H2c-2,0-2,0-2-2C0,55.29,0,54,0,52.78c0-.85.36-1.24,1.19-1.23s1.93,0,2.89,0c.69,0,1-.19.94-.92,0-1,0-2.09,0-3.14,0-.86.38-1.22,1.21-1.22,1.25,0,2.51,0,3.76,0,.66,0,.87-.22.86-.87q0-9.1,0-18.2c0-.66-.21-.85-.86-.87-2-.07-1.94-.1-2-2.08,0-.42,0-.84,0-1.26.06-.63-.17-.94-.84-.89-.93.07-1.26-.42-1.24-1.3,0-1.17,0-2.34,0-3.51,0-.79.35-1.16,1.13-1.16,1,0,1.93,0,2.89,0,.66,0,.89-.23.85-.87s0-1.43,0-2.14c0-1.54.14-1.67,1.63-1.67s2.76,0,4.15,0C17.22,11.47,17.66,11.33,17.72,10.49Zm5.63,25.78c0,3,0,6,0,9,0,.66.12,1,.88,1,5.31,0,10.62,0,15.93,0,.58,0,.82-.17.82-.79q0-9.16,0-18.32c0-.56-.15-.79-.77-.83-2-.13-2-.16-2-2.24a8.34,8.34,0,0,1,0-1c.06-.65-.11-1.05-.87-1-.95.07-1.24-.47-1.21-1.33q0-1.7,0-3.39c0-.91.4-1.28,1.29-1.26s1.68-.05,2.51,0c1,.08,1-.4.75-1.12A5.84,5.84,0,0,0,35.82,11a28.45,28.45,0,0,0-7.26,0,5.86,5.86,0,0,0-4.87,4c-.31.78-.26,1.26.8,1.18.87-.07,1.75,0,2.63,0,.62,0,1.07.24,1.08.94q0,2.07,0,4.14c0,.55-.34.92-.87.86-1.2-.12-1.27.57-1.18,1.46,0,.33,0,.67,0,1,0,1.76,0,1.83-1.72,1.79-.92,0-1.11.32-1.09,1.16C23.38,30.41,23.35,33.34,23.35,36.27ZM24.59,1.78H15.05c-2.47,0-2.42,0-2.48,2.52,0,1,.22,1.48,1.3,1.33.68-.09,1.44,0,1.63.79.44,2,1.69,2.67,3.61,2.31h.13c.92.12,1.24.57.86,1.47-1.24,2.91-1.39,3-4.5,3H14.34c-2,0-1.68-.38-1.77,1.82,0,.92.3,1.13,1.15,1.11,2.22,0,4.44-.06,6.65,0,.92,0,1.28-.26,1.5-1.17a7.63,7.63,0,0,1,6.77-5.83c1.7-.16,3.42-.11,5.14-.11,4.82,0,7.31,1.8,8.79,6.41.15.47.32.69.84.68,2.51,0,5,0,7.54,0,.6,0,.78-.24.78-.82,0-4.23,0-8.46,0-12.69,0-.27.08-.58-.24-.78-.82-.52-2.91,0-3.13,1a6.44,6.44,0,0,1-5,5.11,2.07,2.07,0,0,0-.46.2c-1,.6-1.79.38-2.09-.8A3.83,3.83,0,0,0,37.4,4.18a1.09,1.09,0,0,1-1-1.36c.15-1-.38-1.06-1.17-1.06C31.7,1.79,28.15,1.78,24.59,1.78Zm7.7,51.54H10.45c-2.51,0-5,0-7.53,0-1,0-1.3.29-1.15,1.21a4.42,4.42,0,0,1,0,.63c0,1.86-.3,1.69,1.65,1.69H60.51c2,0,1.94,0,2.06-2.06.08-1.29-.41-1.47-1.55-1.47C51.44,53.34,41.86,53.32,32.29,53.32Zm0-5.28H8.56c-2.1,0-1.77-.23-1.77,1.81,0,1.86-.29,1.69,1.64,1.69h47c2.16,0,2.08,0,2.19-2.19.06-1.21-.43-1.34-1.44-1.34C48.18,48.06,40.23,48,32.28,48ZM12.59,36.23v9c0,.52-.06,1,.72,1q3.76,0,7.53,0c.51,0,.76-.16.75-.72,0-3.77,0-7.53,0-11.3,0-.32.06-.7-.47-.68a.49.49,0,0,0-.53.66c.29,1.5-.72,2.07-1.81,2.61-.54.28-1.13.59-1.55-.05s.05-1.17.66-1.47a1.39,1.39,0,0,0,.94-1.42c0-1.8,0-1.85,1.83-2,.78-.08,1-.39,1-1.11a32.23,32.23,0,0,1,0-3.26c0-.86-.2-1.17-1.11-1.15-2.21.06-4.43.07-6.65,0-1,0-1.3.21-1.28,1.24C12.64,30.46,12.59,33.35,12.59,36.23Zm30.14,3c0,2.17,0,4.21,0,6.25,0,.71.32.83.92.83,2.38,0,4.76,0,7.15,0,.8,0,1-.31,1-1q0-8.91,0-17.82c0-.77-.16-1.11-1-1.1-2.34.06-4.68.05-7,0-.8,0-1,.28-1,1,0,2.3.14,4.61,0,6.9-.13,1.8.25,3.16,2,4a1.12,1.12,0,0,1,.55.5c.62,1.52,1.47,2.31,3.14,1.22.45-.3.9,0,1.1.52a.8.8,0,0,1-.44,1c-.56.28-1.14.5-1.72.73-1.64.66-1.68.63-2.57-.86C44.22,40.61,44,39.61,42.73,39.2ZM17.23,17.91c-2.84,0-5.68,0-8.52,0-1.05,0-1,.54-1,1.25s0,1.24,1,1.23c5.56-.05,11.11,0,16.66,0,1,0,1.08-.4,1.07-1.2s0-1.32-1.1-1.29C22.66,18,19.94,17.91,17.23,17.91Zm30,2.44c2.76,0,5.52,0,8.27,0,.91,0,1.15-.31,1.1-1.16s.06-1.34-1.06-1.33q-8.32.09-16.65,0c-1.15,0-1,.64-1,1.35-.07.88.24,1.15,1.12,1.14C41.72,20.31,44.48,20.35,47.23,20.35ZM17.12,24.58c2.08,0,4.17,0,6.26,0,1,0,1.06-.47,1-1.22s.18-1.31-.94-1.29q-6.39.07-12.78,0c-1.15,0-.83.74-.88,1.35s0,1.19.94,1.15C12.86,24.53,15,24.58,17.12,24.58Zm30,0c2.17,0,4.34,0,6.51,0,1,0,.93-.54.91-1.18s.23-1.33-.91-1.32q-6.37.07-12.77,0c-1.13,0-.89.68-.91,1.32s-.12,1.22.9,1.18C42.92,24.53,45,24.58,47.1,24.58Z"/></g></g></svg>