<svg xmlns="http://www.w3.org/2000/svg" viewBox="0 0 105.26 105.24"><defs><style>.cls-1{fill:#c6875e;}</style></defs><g id="Capa_2" data-name="Capa 2"><g id="Capa_1-2" data-name="Capa 1"><path class="cls-1" d="M85.53,77.62c-4.36,1.86-4.36,1.86-4.36,6.18,0,6,0,12.06,0,18.09,0,2.37-.87,3.43-3.3,3.35-3-.1-5.94-.09-8.91,0-2.28.07-3.2-.89-3.18-3.18.07-7.13,0-14.26,0-21.4V77.91a3.22,3.22,0,0,0-.64-.07c-3.56.47-4,2.72-3.88,5.88.26,6.1,0,12.23.1,18.34,0,2.29-.91,3.24-3.18,3.17-3-.08-5.95-.09-8.92,0-2.43.08-3.31-1-3.29-3.36.06-7.64,0-15.28,0-22.92,0-1.08.2-2.15-1.21-2.73-1-.39-.92-1.51-.92-2.47q0-12.74,0-25.47a5.86,5.86,0,0,1,2.83-5.37c1.35-.81,1.25-1.56.87-2.87-1.55-5.37,1.53-10.85,6.26-11.42,5.4-.65,9.45,4.44,8.47,10.56-.12.78-1.08,1.77-.19,2.33a8.1,8.1,0,0,0,3.93,1.38c1,0,2.22-.71,1.4-2.44a8,8,0,0,1-.3-5.49c1.06-4.15,4.22-6.66,8-6.37,3.57.27,6.62,3.57,7,7.61a7.68,7.68,0,0,1-.28,3.53c-.48,1.24-.38,1.81,1.16,2.29,4.21,1.31,4.37,1.28,3.72-3.05C86,33.81,89,29.08,93.43,28.62c5.39-.57,9.7,4.86,8.26,10.63-.44,1.8-.68,3,1.26,4.12A5.09,5.09,0,0,1,105.2,48c0,8.66,0,17.32.06,26,0,1.81-1.12,2.66-2.32,3.32-1.77,1-2.08,2.31-2,4.16.1,6.45,0,12.9,0,19.36,0,4.16-.26,4.4-4.52,4.4q-3.31,0-6.62,0c-4.06,0-4.26-.19-4.26-4.38V77.62ZM83.28,60.27c0-3.74,0-7.47,0-11.2,0-2.18-.94-3.08-3.06-3-2.89,0-5.77,0-8.65,0S68,46.62,68,49.58c0,6.11,0,12.21,0,18.32,0,4.62,0,4.56,4.56,4.53,1.51,0,2.11-.37,2-2-.12-2.88,0-5.77,0-8.65s0-5.94,0-8.9a2.09,2.09,0,0,1,2.11-2.37c1.48-.07,2.11.88,2.28,2.2a17.15,17.15,0,0,1,0,2Q79,63,79,71.3c0,1.54.13,3.12,2.07,3.16,2.11,0,2.23-1.62,2.22-3.25C83.27,67.56,83.29,63.91,83.28,60.27Zm-19.69,0c0-3.74,0-7.47,0-11.21,0-2.12-1-3.09-3.11-3-3.06.07-6.11,0-9.17,0-2,0-3.06.81-3.07,2.83,0,7.3,0,14.61,0,21.91,0,1.17.41,1.73,1.64,1.64a10.22,10.22,0,0,1,2.28,0c2.16.32,2.73-.58,2.67-2.67-.14-5.34,0-10.7,0-16,0-1.53.16-3.06,2.12-3.15s2.35,1.28,2.35,2.9c0,5.95,0,11.89,0,17.83,0,1.56.15,3.11,2.06,3.17,2.12.07,2.29-1.6,2.29-3.22Q63.61,65.76,63.59,60.28Zm37.31.17V49c0-2-.91-3-3-3-2.29,0-4.59.07-6.87,0s-3.38.87-3.35,3.3c.09,7,.07,13.92,0,20.88,0,1.54.25,2.28,2.05,2.26s2.34-.55,2.31-2.32c-.1-5.43,0-10.86,0-16.29,0-1.59.06-3.3,2.22-3.3s2.21,1.66,2.2,3.28c0,5.85,0,11.71,0,17.56,0,1.59.29,3.07,2.19,3.07s2.23-1.49,2.23-3.07ZM57.05,89c0-3.3-.06-6.61,0-9.91.05-1.7-.43-2.6-2.28-2.39a8.11,8.11,0,0,1-2,0c-1.78-.23-2.32.5-2.3,2.27.1,5.93,0,11.86.05,17.79,0,4.67-.84,4,4.2,4.16,2,.07,2.44-.71,2.37-2.52C57,95.27,57.05,92.13,57.05,89Zm19.65-.2c0-3.38,0-6.77,0-10.16,0-1.43-.5-2-1.92-1.93a9.18,9.18,0,0,1-2,0c-2.21-.33-2.68.7-2.64,2.73.12,5.67,0,11.35.05,17,0,5-.89,4.31,4.43,4.46,1.71,0,2.18-.57,2.13-2.2C76.63,95.41,76.7,92.11,76.7,88.8Zm13.19,0v7.88c0,4.28,0,4.18,4.37,4.24,1.81,0,2.28-.57,2.25-2.31-.1-5.84,0-11.69,0-17.54,0-2.76-1.52-4.23-4.25-4.38-1.67-.09-2.46.29-2.37,2.2C90,82.18,89.89,85.49,89.89,88.8ZM58.13,37.26c0-2.19-1.53-4.26-3.18-4.34s-3.34,1.95-3.34,4.37,1.51,4.39,3.37,4.29C56.68,41.48,58.14,39.48,58.13,37.26Zm39.39.05c0-2.42-1.54-4.47-3.32-4.39S91,35.05,91,37.24c0,2.37,1.56,4.39,3.38,4.33S97.51,39.67,97.52,37.31Zm-19.74-.15c0-2.28-1.52-4.23-3.2-4.24S71.32,35,71.36,37.39s1.42,4.17,3.2,4.18S77.83,39.63,77.78,37.16Z"/><path class="cls-1" d="M4.37,91.11c0-3.48,0-7,0-10.44,0-1.26-.12-2.27-1.44-2.92-2.28-1.12-3-3-2.95-5.58.19-7.63.12-15.28.05-22.91C0,46.4.79,44,3.35,42.58c1.05-.6.85-1.19.53-2.08a9.33,9.33,0,0,1-.22-5.75c1.11-4,4.21-6.42,7.94-6.15,3.52.25,6.53,3.4,6.94,7.32a9.94,9.94,0,0,1-.48,4.77c-.19.5-.65,1.11.08,1.57a1.48,1.48,0,0,0,1.66-.2c2.33-1.38,4.66-2.77,7-4.11,3.77-2.14,7.58-1.36,9.57,1.93s.88,7.17-3,9.47c-3,1.79-5.93,3.67-9,5.23-2,1-2.51,2.29-2.44,4.4.16,4.66.05,9.34.05,14,0,1.47.06,2.88-1.59,3.69-1.07.52-.63,1.66-.63,2.54,0,7.47,0,14.94,0,22.41,0,3.11-.47,3.57-3.51,3.59-2.88,0-5.77-.07-8.65,0-2.29.07-3.27-.93-3.24-3.18C4.4,98.41,4.37,94.76,4.37,91.11Zm0-31c0,3.9,0,7.8,0,11.7,0,1.52.58,2.78,2.33,2.7,1.56-.07,2.08-1.23,2.07-2.68,0-2.29,0-4.58,0-6.87,0-3.9,0-7.8,0-11.71,0-1.43.44-2.57,2.06-2.66,1.8-.09,2.27,1.17,2.35,2.67,0,.67,0,1.36,0,2,0,5.09.06,10.19,0,15.28,0,1.7.76,1.93,2.17,1.91s2.22-.07,2.2-1.85c-.09-7.21-.06-14.42,0-21.63,0-2.06-.94-2.94-2.94-2.91-2.29,0-4.59.08-6.87,0s-3.4,1-3.36,3.34C4.44,52.93,4.39,56.49,4.4,60.06Zm11,28.63c0-3.39,0-6.78,0-10.17,0-.62.23-1.34-.64-1.73C12.33,75.71,8.84,78,8.83,80.67q0,7.89,0,15.76c0,4.76,0,4.71,4.87,4.48,1.33-.07,1.76-.5,1.73-1.8C15.36,95.63,15.4,92.16,15.4,88.69Zm7-38c3.21-1.9,6.34-3.7,9.42-5.57a2.05,2.05,0,0,0,.7-3.07,2,2,0,0,0-2.9-.62A43.44,43.44,0,0,1,25.22,44C22.14,45.2,21,47.22,22.39,50.71ZM7.78,37.32c0,2.35,1.37,4.2,3.14,4.25s3.4-2,3.37-4.34c0-2.2-1.56-4.26-3.21-4.31S7.77,34.9,7.78,37.32Z"/><path class="cls-1" d="M29,24.06c2.12-1.4,4.31-2.66,6.3-4.2a11,11,0,0,1,7.76-2.39c3.73.2,7.47.07,11.21,0,4.17,0,7-2.62,7.07-6.39S58.71,4.6,54.57,4.39c-1.44-.08-2.88,0-4.32,0s-2.34-.62-2.39-2.06A2,2,0,0,1,50.08.08c2.54,0,5.11-.34,7.61.33A11,11,0,0,1,55.07,22c-4.15.15-8.32.1-12.48,0a7.14,7.14,0,0,0-4.49,1.33c-3.19,2.25-6.48,4.35-9.73,6.52-.93.62-1.84,1.26-3,.61s-1.2-1.72-1.22-2.86C24,22,24,22,18.36,22c-2.37,0-4.75.05-7.13,0C4.73,21.81,0,17.11.09,10.86S4.81.14,11.22.07C17.93,0,24.64.06,31.35,0c1.66,0,3.27.18,3.2,2.28-.06,1.93-1.63,2.06-3.18,2.05q-9.3,0-18.59,0a15.08,15.08,0,0,0-3.29.28,6.48,6.48,0,0,0,1.06,12.8c4.58.13,9.17.05,13.75.06,3.83,0,4.23.41,4.3,4.18A3.35,3.35,0,0,0,29,24.06Z"/><path class="cls-1" d="M33,13.21H17.27a13.73,13.73,0,0,1-2-.09,2,2,0,0,1-2-2.22,2,2,0,0,1,2.12-2.07c2.29-.06,4.58,0,6.86,0h27c1.62,0,3.31.06,3.34,2.14s-1.63,2.28-3.26,2.28Z"/><path class="cls-1" d="M43.41,2.27c-.27,1.33-1,2.14-2.41,2a1.93,1.93,0,0,1-1.94-2.17,2,2,0,0,1,2.34-2C42.72.21,43.25,1.09,43.41,2.27Z"/></g></g></svg>