<svg xmlns="http://www.w3.org/2000/svg" viewBox="0 0 97.72 97.81"><defs><style>.cls-1{fill:#c6875e;stroke:#c6875e;stroke-miterlimit:10;}</style></defs><g id="Capa_2" data-name="Capa 2"><g id="Capa_1-2" data-name="Capa 1"><path class="cls-1" d="M48.81,97.31H1.73C1,97.29.47,97,.5,96.21s.6-.93,1.2-.94c1.39,0,2.78-.09,4.16,0,1.18.07,1.48-.4,1.49-1.53,0-4.85-.19-9.7.18-14.55a61.26,61.26,0,0,1,6.8-23.41c1.55-3,1.49-6.46,2.06-9.73.1-.59-.37-1-.64-1.53-2.1-3.82-3.52-7.82-3.28-12.24,0-1-.49-1.33-1.11-1.76a24.78,24.78,0,0,1-6.55-6.2,10.78,10.78,0,0,1-2.15-8C3.44,11.39,9.59,8.53,13.12,12c.36.35.58.64,1.22.19,4.33-3,9.08-1.48,10.52,3.47.41,1.42,1,1.55,2.28,1.74,6,.93,11.94,1.9,17.85,3.15,2.91.61,4.54,2.86,5,5.8a6.54,6.54,0,0,1-3.57,6.92,2.93,2.93,0,0,0-1.74,2.57A29.65,29.65,0,0,1,40.27,48a11.11,11.11,0,0,1-8.14,5.25c-.64.07-1.67-.39-1.82.8s-.92,2.41.31,3.68a29.58,29.58,0,0,1,7.9,15.61c.7,3.88.42,7.79.42,11.7,0,2.77,0,5.55-.13,8.31-.08,1.53.42,1.9,1.9,1.89,17.89,0,35.79,0,53.69,0,.63,0,1.26,0,1.88.07a.93.93,0,0,1,.94,1,1,1,0,0,1-1,1c-.57,0-1.13,0-1.7,0ZM36.75,84.88h0c0-2.71.11-5.42,0-8.12a27.41,27.41,0,0,0-7.15-17.08,2.16,2.16,0,0,0-2.28-.87,15.41,15.41,0,0,1-10.1-1.38c-1-.47-1.37-.38-1.84.59a78.94,78.94,0,0,0-3.21,7.86c-2.74,8-2.84,16.18-2.72,24.46.07,5.26,0,5.26,5.25,4.9h.38c.65,0,.88-.33.86-.94-.12-3,.26-6.05-.24-9.06a81.59,81.59,0,0,1-1.38-14.46c.07-4.14,2.83-7.11,6.69-7.16A6.75,6.75,0,0,1,28,70.72a64.31,64.31,0,0,1-.53,8.1,86.73,86.73,0,0,0-1.19,14.66c.05,1.44.47,1.85,1.85,1.79,2.39-.1,4.79-.08,7.18,0,1.15,0,1.53-.32,1.5-1.49C36.7,90.81,36.75,87.85,36.75,84.88ZM24.7,57a12.86,12.86,0,0,0,2.12-.2c1.65-.38,1-1.93,1.35-3s-.45-1-1-1.17a13.37,13.37,0,0,1-4.44-2c-.81-.6-2.55-1.07-1.65-2.44s1.86.15,2.64.66c6.41,4.24,12.72,2.59,16.21-4.28a34.23,34.23,0,0,0,2.78-9.17c.16-.87,0-1.2-1-1.34-3.17-.49-6.32-1.09-9.47-1.67s-4.34.28-4.88,3.36c-.28,1.61-.53,3.23-.83,4.83-.14.77,0,1.77-1.16,1.89S24.27,41.64,24,41a14,14,0,0,0-.65-1.35,1.52,1.52,0,0,0-1.68-.59c-.6.13-1.22.57-1.12,1.11a7.71,7.71,0,0,1-2,6.87c-.18.2-.16.6-.21.91-.33,1.85-.53,3.74-1,5.56-.33,1.3.14,1.81,1.24,2.26A16.42,16.42,0,0,0,24.7,57ZM18,44.1c.86-1,.54-1.87.38-2.75a3.75,3.75,0,0,1,5-4.22c.53.19.91.72,1.6.62.17-1,.35-2,.53-2.94.61-3.36,3-5.09,6.39-4.54S38.64,31.46,42.05,32A4.89,4.89,0,1,0,44,22.43c-5.43-1.05-10.88-2-16.33-3-1.44-.25-2.56-.19-3.05,1.74-.64,2.49-2.44,4.36-4.33,6.06a27.46,27.46,0,0,1-4.72,3.45,1.84,1.84,0,0,0-1.06,1.8A22.37,22.37,0,0,0,18,44.1ZM18,90.17v.57c0,4.69,0,4.65,4.75,4.53,1.15,0,1.47-.38,1.49-1.53,0-3.2-.27-6.41.3-9.61a67.08,67.08,0,0,0,1.25-13.71,4.72,4.72,0,0,0-9.43-.17c-.07,1.51.09,3,.12,4.53C16.64,80,18.31,85,18,90.17ZM4.6,18.07a8.22,8.22,0,0,0,.2,1.35C6.07,23.9,9.46,26.6,13,29.13a1,1,0,0,0,1.22-.08c3-1.86,5.86-3.93,7.72-7.06a7.47,7.47,0,0,0,1.15-4.68,5.34,5.34,0,0,0-3.88-4.62c-2.13-.48-3.44.56-4.36,2.41-.6,1.22-1.33,1.1-2.09,0-1.58-2.24-3-2.87-4.82-2.31C5.93,13.44,4.63,15.33,4.6,18.07Z"/><path class="cls-1" d="M63.3,85.88c0,1.53,0,2.72,0,3.9,0,.73-.26,1.28-1.06,1.25s-1-.52-1-1.18a4.82,4.82,0,0,1,0-.76c.65-3.69-1-5.94-4.09-8C52.09,77.79,47.31,74,42.4,70.32c-2.34-1.74-3-3.9-1.84-6s3.18-2.82,6-1.75c.76.29,1,.2,1.44-.49a2.85,2.85,0,0,1,5.3,1.67c-.44,2.6.85,3.88,2.93,4.93a45.38,45.38,0,0,1,4.5,2.78c.8.53,1.12.43,1.37-.56a30.59,30.59,0,0,1,7.5-13.35,2.77,2.77,0,0,0-1.25-4.69,11.81,11.81,0,0,1-7.08-6.9c-1.78-4-2.08-8.28-2-12.58A2.38,2.38,0,0,0,58.18,31c-2.34-1.64-2.89-4.1-2.86-6.83,0-3.76,0-3.77,3.56-3a20.9,20.9,0,0,0,9.72-.49c1.83-.44,3.68-.85,5.46-1.45,8.37-2.82,18.65,2.91,17.73,15.27A22,22,0,0,1,86.37,47a5,5,0,0,0-1.2,3.21A15.89,15.89,0,0,0,87,58.12a57.11,57.11,0,0,1,5.78,27.24c0,1.45,0,2.9,0,4.35,0,.72-.25,1.29-1,1.31s-1-.59-1-1.28c0-1.95,0-3.9,0-5.86a57,57,0,0,0-5.71-25.37c-.61-1.26-1.08-1.6-2.46-.92a14.77,14.77,0,0,1-9.57,1.25,2.31,2.31,0,0,0-2.46.85,29.19,29.19,0,0,0-6.36,11.88c-.36,1.35,1.64,3.79,3,3.67.46,0,.53-.47.71-.78.62-1.1,1.18-2.22,1.83-3.3a6.59,6.59,0,1,1,10.79,7.48c-2,2.45-4.08,4.8-6.17,7.16-2.73,3.08-6,3.45-9.41,1.09C64.41,86.61,64,86.34,63.3,85.88Zm21-39.63c3.78-4.45,6.15-9.39,5.33-15.36-.67-4.92-3.36-8.33-8.23-9.8a12.35,12.35,0,0,0-7.07.26c-5.22,1.45-10.41,3.13-16,1.87-.73-.17-.79.26-.86.84-.46,3.86,1.67,6.26,5.63,6.28,3.34,0,6.68,0,10,0a5.09,5.09,0,0,1,5.24,5.26c0,1.12,0,2.24,0,3.4,5-1.13,6.7.7,5.47,5.6A1.4,1.4,0,0,0,84.26,46.25ZM67.82,32.39c-1.7,0-3.41,0-5.11,0-.89,0-1.39.16-1.39,1.23a29.25,29.25,0,0,0,1.74,11.13q3,7.38,10.92,6.4a13.48,13.48,0,0,0,4.64-1.52c.64-.34,1.34-.65,1.81.16s-.25,1.36-.92,1.72a15.32,15.32,0,0,1-6.12,1.77c-1.32.1-1,1-1,1.76s-.29,1.67,1,1.83a15.17,15.17,0,0,0,9-1.47,1.25,1.25,0,0,0,.83-1.32C83,51.7,83.86,49.18,82.1,47a3.18,3.18,0,0,1-.3-2.75c.27-1.21,1.42-2.6-.37-3.43s-2.19.89-2.91,1.91c-.34.48-.64,1-1.33.84s-.84-.84-.84-1.48c0-2,0-4,0-6.05,0-2.46-1.16-3.57-3.6-3.64C71.09,32.36,69.45,32.39,67.82,32.39ZM51.24,65.66a8.63,8.63,0,0,0,0-1c-.12-.67.39-1.76-.75-1.8s-.8,1-.84,1.73c-.08,1.51-.81,1.71-2,1-.54-.32-1.06-.68-1.59-1-1.3-.82-2.57-.82-3.5.48s-.43,2.51.79,3.42c7.65,5.65,15.28,11.32,23,16.94a4.2,4.2,0,0,0,6.08-.67c2.15-2.39,4.26-4.81,6.3-7.29a4.49,4.49,0,0,0-.85-6.78,4.59,4.59,0,0,0-6.51,1.66c-.8,1.36-1.59,2.72-2.25,4.15s-1.49,1.73-2.91.81c-4.24-2.73-8.5-5.41-12.83-8C51.74,68.35,50.78,67.3,51.24,65.66Z"/><path class="cls-1" d="M53.53,2.83c-.08-.81-.82-1.55.09-2.13s1.39.19,2,.63c3.34,2.6,3.33,2.6-.1,5.23-.54.41-1,1-1.82.56s-.42-1-.24-1.63c.24-.9-.64-.48-1-.49-3.33,0-6.66,0-10,0H41.13c-.76,0-1.47-.15-1.51-1s.68-1.1,1.44-1.11H53.53Z"/><path class="cls-1" d="M44.1,11.66H54.59c.57,0,1.14,0,1.7,0,.8,0,1.84-.11,1.78,1.1,0,1-1,1-1.73,1H44.16c0,.76,1,1.59-.1,2.17-.85.46-1.4-.23-2-.68-3.28-2.53-3.29-2.54.06-5.12.57-.43,1.1-1.18,2-.59S44.29,10.82,44.1,11.66Z"/><path class="cls-1" d="M86.59,87.19c0,1.07,0,2.14,0,3.2a1,1,0,1,1-2.09,0q0-3.11,0-6.22a1,1,0,0,1,1-1.1,1,1,0,0,1,1,1.12C86.63,85.18,86.59,86.18,86.59,87.19Z"/><path class="cls-1" d="M86.61,78.12c0,.86.14,2-1.12,2-1.1,0-1-1-1-1.86s-.14-2,1.11-2C86.67,76.26,86.6,77.3,86.61,78.12Z"/><path class="cls-1" d="M33,87.24c0,.94,0,1.88,0,2.82,0,.7-.25,1.25-1.06,1.25s-1-.5-1-1.11c0-2.06,0-4.13,0-6.19,0-.62.32-1.11,1-1.08a1,1,0,0,1,1,1.12c0,1.06,0,2.13,0,3.19Z"/><path class="cls-1" d="M33,78c0,.8.19,1.84-1,1.89-1.33,0-1.11-1.09-1.11-1.91s-.2-1.83,1-1.87C33.19,76.09,32.9,77.23,33,78Z"/></g></g></svg>