<svg xmlns="http://www.w3.org/2000/svg" viewBox="0 0 127.7 114.21"><defs><style>.cls-1{fill:#c6875e;}</style></defs><g id="Capa_2" data-name="Capa 2"><g id="Capa_1-2" data-name="Capa 1"><path class="cls-1" d="M63.24,86.26q-2,7.55-4,15.09c-.57,2.16-1.07,4.33-1.66,6.48-1.27,4.62-5,7-9.49,6.23-4.92-.87-7.59-4.1-7-9.09C42.45,94,44.08,83,45.39,72.05c.67-5.63.12-11.32.25-17,0-1.23-.88-1.81-1.58-2.51-7-7-14.09-13.84-21-20.84-4.15-4.16-2.54-10.53,2.93-12,2.77-.74,5,.23,7,2.18C37,25.94,41.14,30,45.18,34.05a4.3,4.3,0,0,0,3.37,1.4q14.94-.09,29.88,0A4.31,4.31,0,0,0,81.79,34q6-6,12.08-11.95c3.38-3.31,7.52-3.44,10.46-.37s2.6,7.07-.63,10.29C96.82,38.81,89.94,45.65,83,52.41a5.46,5.46,0,0,0-1.67,4.05c-.78,14.78,2.14,29.21,3.93,43.75.19,1.53.45,3.06.64,4.59a7.87,7.87,0,0,1-6.39,9.11c-4.85,1-8.75-1.07-10-5.67-2-7.27-3.84-14.58-5.75-21.87Zm-18.5,18.66c-.19,3.41,1,5,3.83,5.52s4.71-.68,5.51-3.66c1.75-6.54,3.43-13.11,5.14-19.66.76-2.9,1.5-5.81,2.28-8.71a2,2,0,0,1,2-1.72,2,2,0,0,1,2,1.71c.16.58.33,1.15.48,1.73,2.28,8.8,4.54,17.61,6.85,26.4.86,3.28,2.81,4.52,5.86,3.86s4-2.52,3.56-5.78c-.2-1.36-.38-2.72-.56-4.08-2-15.14-4.78-30.2-3.93-45.59a5.54,5.54,0,0,1,1.69-4.06c7.19-7,14.32-14.11,21.45-21.19,2.09-2.07,2.35-4,.79-5.56s-3.31-1.32-5.54.87c-4.23,4.15-8.47,8.29-12.64,12.5a4.91,4.91,0,0,1-3.86,1.57c-10.48,0-21-.08-31.44,0A6.46,6.46,0,0,1,42.94,37c-4.11-4.27-8.38-8.38-12.61-12.54-1.1-1.09-2.36-1.76-3.93-1a3.32,3.32,0,0,0-2.12,3.24c0,1.41,1.07,2.29,2,3.2l21.27,21c.85.85,1.78,1.64,1.74,3-.21,7.37.44,14.75-.65,22.12C47.19,85.75,46,95.55,44.74,104.92Z"/><path class="cls-1" d="M78.33,19.32A14.67,14.67,0,0,1,63.69,33.85,14.83,14.83,0,0,1,49,19,14.77,14.77,0,0,1,63.74,4.51,14.61,14.61,0,0,1,78.33,19.32Zm-3.63-.27a11,11,0,0,0-11-10.91,11.12,11.12,0,0,0-11,11A11.16,11.16,0,0,0,63.89,30.2,11,11,0,0,0,74.7,19.05Z"/><path class="cls-1" d="M13.86,3.23a2.07,2.07,0,0,1,1.63,1.12c1.36,2.37,2.72,4.74,4.1,7.11a1.73,1.73,0,0,1-.53,2.66,1.77,1.77,0,0,1-2.59-.84c-1.38-2.37-2.81-4.71-4.09-7.12C11.56,4.61,12.38,3.15,13.86,3.23Z"/><path class="cls-1" d="M115.74,5.17c-.19.41-.4,1-.69,1.49-1.22,2.16-2.48,4.29-3.71,6.45-.65,1.13-1.56,1.68-2.75,1s-1.07-1.63-.46-2.67c1.39-2.37,2.74-4.75,4.12-7.11a1.81,1.81,0,0,1,2.15-1C115.26,3.54,115.61,4.18,115.74,5.17Z"/><path class="cls-1" d="M48.37,13.87a2.15,2.15,0,0,1-1.32,1.76l-6.67,3.85c-1.09.63-2.14.83-2.9-.4s0-2.1,1-2.71c2.29-1.35,4.56-2.74,6.91-4C47,11.57,48.44,12.36,48.37,13.87Z"/><path class="cls-1" d="M90.51,17.86a1.81,1.81,0,0,1-2.67,1.85c-2.58-1.35-5.07-2.86-7.58-4.34a1.69,1.69,0,0,1-.81-2.21,1.53,1.53,0,0,1,2.07-1A56,56,0,0,1,90,17C90.28,17.17,90.4,17.67,90.51,17.86Z"/><path class="cls-1" d="M39.6,5.45c-.54,1-1.21,2.15-1.89,3.33-.89,1.55-1.78,3.12-2.71,4.65a1.73,1.73,0,0,1-2.44.73,1.66,1.66,0,0,1-.69-2.43Q34.06,7.81,36.37,4a1.6,1.6,0,0,1,2.05-.61C39.25,3.67,39.59,4.3,39.6,5.45Z"/><path class="cls-1" d="M96.14,12.26c-.18,1.15-.47,1.76-1.21,2a1.62,1.62,0,0,1-2.05-.59c-1.58-2.65-3.13-5.31-4.62-8a1.56,1.56,0,0,1,.55-2.06,1.43,1.43,0,0,1,1.9-.12C93.18,6.14,94.42,9.54,96.14,12.26Z"/><path class="cls-1" d="M5.47,39.56c-1.33,0-1.88-.45-2.18-1.24a1.58,1.58,0,0,1,.74-2c2.57-1.54,5.15-3,7.78-4.47a1.66,1.66,0,0,1,2.27.59,1.42,1.42,0,0,1,0,1.9C11.35,36.58,8.15,38,5.47,39.56Z"/><path class="cls-1" d="M13.46,48.34c-1.23-.33-1.92-1.22-1.2-2.6,1.35-2.57,2.84-5.08,4.33-7.58A1.66,1.66,0,0,1,19,37.45a1.63,1.63,0,0,1,.72,2.4c-1.42,2.54-2.88,5.06-4.35,7.57A1.82,1.82,0,0,1,13.46,48.34Z"/><path class="cls-1" d="M113.91,48.35a2,2,0,0,1-1.79-1.24c-1.32-2.3-2.64-4.6-4-6.9-.6-1-.65-2,.43-2.69s2.11-.15,2.75.95c1.33,2.3,2.72,4.56,4,6.9C116.13,47,115.41,48.36,113.91,48.35Z"/><path class="cls-1" d="M6.24,24.05c1.45,0,2.91,0,4.36,0a1.6,1.6,0,0,1,1.7,1.57,1.64,1.64,0,0,1-1.6,1.94c-3,.11-6,.1-9,0a1.77,1.77,0,1,1,.16-3.54c1.45,0,2.9,0,4.36,0Z"/><path class="cls-1" d="M121.58,24c1.37,0,2.74,0,4.11,0,1.2,0,2,.57,2,1.81a1.72,1.72,0,0,1-1.84,1.76c-2.91.06-5.82.07-8.72,0a1.69,1.69,0,0,1-1.75-1.84,1.65,1.65,0,0,1,1.83-1.71c1.45,0,2.91,0,4.36,0Z"/><path class="cls-1" d="M115.49,31.68c.42.21,1.12.52,1.78.89,2.08,1.19,4.17,2.36,6.21,3.61a1.68,1.68,0,0,1,.81,2.39,1.72,1.72,0,0,1-2.61.72c-2.47-1.38-4.9-2.81-7.33-4.24a1.76,1.76,0,0,1-.94-2.16C113.66,32,114.31,31.69,115.49,31.68Z"/><path class="cls-1" d="M24,6.05c0-1.37,0-2.73,0-4.1A1.74,1.74,0,0,1,25.66,0a1.65,1.65,0,0,1,1.9,1.66c.1,3,.09,6,0,9a1.64,1.64,0,0,1-1.88,1.67c-1.18-.07-1.62-.84-1.64-1.9C24,9,24,7.5,24,6.05Z"/><path class="cls-1" d="M103.68,6.17c0,1.37,0,2.73,0,4.1,0,1.15-.46,2-1.78,2a1.69,1.69,0,0,1-1.79-1.79c-.07-2.9-.07-5.81,0-8.71A1.7,1.7,0,0,1,101.91,0c1.24,0,1.76.88,1.77,2.06C103.69,3.44,103.68,4.81,103.68,6.17Z"/><path class="cls-1" d="M5.35,12.05c.42.21,1.13.51,1.79.88,2.08,1.19,4.16,2.37,6.21,3.62a1.71,1.71,0,0,1,.71,2.61,1.69,1.69,0,0,1-2.48.51c-2.45-1.4-4.9-2.81-7.33-4.24a1.75,1.75,0,0,1-1-2.14C3.54,12.46,4.16,12.05,5.35,12.05Z"/><path class="cls-1" d="M115.49,20a1.9,1.9,0,0,1-2-1.07,1.53,1.53,0,0,1,.52-2.06q3.94-2.38,8-4.63a1.6,1.6,0,0,1,2.09.46c.46.56.76,1.34.2,1.87C121.63,17,118.26,18.33,115.49,20Z"/></g></g></svg>