<svg xmlns="http://www.w3.org/2000/svg" viewBox="0 0 209.99 209.98"><defs><style>.cls-1{fill:#c5875e;}</style></defs><g id="Capa_2" data-name="Capa 2"><g id="Capa_1-2" data-name="Capa 1"><path class="cls-1" d="M106.75,0C112.51,6.94,118.3,13.85,124,20.83c3.38,4.14,2.49,6.57-2.77,7.09-2.13.22-2.28,1.15-2.24,2.76a62.6,62.6,0,0,0,.07,7c.54,3.88-1.17,4.73-4.64,4.41-1.89-.18-2.51-.73-2.47-2.59.09-4.81,0-9.62,0-14.43a5.1,5.1,0,0,0,0-.87c-.33-1.91,3.13-2.53,1.91-4.27-2.41-3.45-5.27-6.6-8-9.8-1.06-1.23-1.8-.12-2.43.63-2.34,2.79-4.67,5.59-7,8.42-.49.61-1.17,1.07-.43,2.2,4,6.12,1.35,13,1.66,19.44.11,2.15-2.85.87-4.39,1.16s-2.45-.3-2.4-2.11c.1-2.91,0-5.83,0-8.74,0-1.95-.11-3.08-2.69-3.22-4.61-.25-5.6-3-2.59-6.72C91.52,14.08,97.41,7.06,103.25,0Z"/><path class="cls-1" d="M77,70.28c3.48-2.28,5.51-.81,7.39,1.32,1.29,1.47,2.51,2.57,4.84,1.55s1.68-2.76,1.72-4.37c.15-5.13.75-5.78,5.88-5.8,5.54,0,11.08.11,16.62,0,3.82-.11,5.78,1.24,5.58,5.3-.08,1.87-.75,4,2,5.07s3.75-.83,5-2.23c2-2.13,4.09-2.59,6.91-1.06,0-7.53-.07-14.67,0-21.8,0-2.05-.55-2.64-2.68-2.8-4.62-.35-5.64-3-2.64-6.7,5.15-6.33,10.45-12.54,15.63-18.85,2.37-2.89,4.64-3.24,7.15-.2,5.38,6.51,10.88,12.94,16.17,19.53,2.58,3.2,1.38,6-2.75,6.2-2.73.11-3,1.24-2.94,3.43.09,8.31-.09,16.62.11,24.93.07,2.87-1,3.36-3.54,3.32s-3.69-.24-3.63-3.24c.19-10.2.07-20.4.08-30.61a11.32,11.32,0,0,0,.05-1.74c-.32-1.86,3.32-2.24,1.81-4.26-2.53-3.38-5.3-6.59-8.13-9.72-1.06-1.16-1.78.28-2.38,1-1.63,1.86-3.2,3.79-4.77,5.7s-4.33,3.72-.93,6.61c.7.6.36,2.5.36,3.8,0,8.75.31,17.51-.1,26.24-.23,4.94,1.13,8.5,4.86,11.76,4.57,4,4.41,4.73.25,9.11-1.34,1.41-2,2.55-1.16,4.56s2.43,1.67,3.95,1.71c5.72.13,6.19.6,6.21,6.34,0,5.4-.12,10.79,0,16.18.12,3.89-1.39,5.7-5.38,5.53-1.86-.08-4-.81-5.06,2s.93,3.73,2.3,5c2.76,2.59,2.52,4.87-.11,7.41q-6.3,6.06-12.35,12.38c-2.57,2.68-4.87,2.74-7.39,0-1.31-1.42-2.38-3.26-5.07-2.18s-2,3.27-1.92,5.1c.22,4.5-2.28,5.44-6.08,5.26-2.11-.1-4.72-1-4.58,3.07.1,2.94.68,3.95,3.84,3.94,23.32-.14,46.64-.08,70-.08,6.36,0,6.77.42,6.78,6.64,0,7.36,0,7.36,7.24,7.36,3.06,0,6.12,0,9.18,0s4.59,1.38,4.58,4.49c0,6.41,0,12.83,0,19.24,0,2.87-1.45,4.29-4.31,4.29q-20.11,0-40.24,0c-3.11,0-4.49-1.53-4.47-4.59q.06-9.41,0-18.81c0-3.36,1.64-4.69,4.87-4.64,4.52.08,9-.13,13.56.07,3.22.14,2.5-2,2.58-3.75s.18-3.33-2.57-3.32q-34.11.14-68.22,0c-3.1,0-2.59,1.79-2.69,3.66-.13,2.18.12,3.57,2.94,3.43,4.51-.23,9,0,13.55-.07,3.09,0,4.55,1.45,4.53,4.54,0,6.26,0,12.53,0,18.8,0,3-1.23,4.69-4.38,4.69q-20.11,0-40.23,0c-3.14,0-4.45-1.6-4.43-4.64q.08-9.4,0-18.8c0-3.4,1.71-4.66,4.92-4.6,4.37.08,8.76-.14,13.12.07,2.73.14,3.07-1.1,3-3.36s.06-3.76-3.1-3.74q-33.68.23-67.35,0c-3.15,0-3.06,1.5-3.11,3.73s.28,3.51,3,3.37c4.36-.21,8.74,0,13.11-.07,3.22-.06,5,1.21,4.93,4.59q-.07,9.41,0,18.81c0,3.35-1.62,4.67-4.86,4.66q-19.68-.07-39.36,0C1.55,210,0,208.61,0,205.27c.06-6.27,0-12.53,0-18.8,0-3.09,1.43-4.56,4.52-4.54,4.52,0,9.05-.1,13.56,0,2.31.08,3.25-.69,2.92-3a3.23,3.23,0,0,1,0-.44c-.25-12-.12-10.61,11.1-10.62,21.57,0,43.15,0,64.72,0,2.33,0,4.8.87,4.82-3.36,0-3.95-2-3.63-4.58-3.62-5.41,0-6-.6-6.08-6,0-1.7.32-3.33-1.89-4.3-2.41-1.06-3.44.43-4.78,1.73-3.65,3.54-4.58,3.54-8.24-.09-3.94-3.9-7.75-7.92-11.77-11.73-2.85-2.7-3-5.09,0-7.71,1.49-1.32,3.06-2.55,1.89-5.15S63.08,126,61.39,126c-3.94.13-5.54-1.57-5.43-5.5.16-5.83.14-11.66,0-17.49-.09-3.79,1.59-5.27,5.28-5.13,1.86.08,4,.8,5.11-1.94s-.78-3.75-2.19-5c-2.72-2.51-3-5.13,0-7.32,5.17-3.76,6.28-8.71,5.94-14.8C69.65,60.64,70,52.45,70,44.29c0-1.88-.29-3.84,1.56-5.17,1.59-1.14.27-1.95-.35-2.81-7.67-10.62-8.86-10.62-16.43.08-.5.71-1.93,1.44-.55,2.47C56.69,40.7,56,43.31,56,45.7q.08,13.11,0,26.24c0,2.3,1.25,5.15-3.38,5.22s-3.6-2.54-3.61-5c0-7.73-.09-15.46,0-23.18,0-2.46-.35-3.53-3.24-3.61-3.78-.1-5-3.07-2.56-6.06C48.74,32.5,54.4,25.83,60,19.14c1.89-2.24,4-2.26,5.93,0,5.73,6.79,11.49,13.57,17,20.52,2.18,2.73.83,5.63-2.75,5.73-2.84.07-3.33,1.06-3.28,3.57C77.12,55.78,77,62.63,77,70.28Zm-2.08,60.47c-.31.78-.38,1.72-.87,2.07-5.07,3.55-1.9,6,1,8.52a24.38,24.38,0,0,1,3.11,3.07c1.47,1.85,2.66,1.67,4.14,0,1.33-1.51,2.75-3.2,5.2-2.19,2.69,1.1,5.4,2.16,8.07,3.31,1.43.62,2.61,1.79,2.32,3.36-1,5.53,2.37,5.38,6.09,5.08a25.51,25.51,0,0,1,4.37,0c2.51.25,3.94-.39,3.52-3.29-.48-3.2,1.19-4.78,4.17-5.58a34.4,34.4,0,0,0,5.2-2.24c1.71-.77,3.62-1.15,4.83.45,2.83,3.76,5,2.51,7.33-.46a27.22,27.22,0,0,1,4-4c1.83-1.49,1.72-2.73-.05-4.11-2.6-2-3-4.39-1.19-7.24a11.37,11.37,0,0,0,1.5-3.61c.79-3.52,2.68-5.3,6.47-4.89,4.29.47,3.07-3.11,2.62-4.73-.86-3.06,3.33-7.86-2.69-9.12-2.15-.45-4.37-.06-5.35-2.73-.9-2.45-2-4.83-3-7.26-.63-1.58-.78-3.36.69-4.42,4-2.92,2.06-5.06-.63-7.33a28.9,28.9,0,0,1-3.71-3.71c-1.52-1.85-2.81-2.12-4.45-.1-1.43,1.74-3.1,3.07-5.67,1.87-2.36-1.11-4.83-2-7.25-3-1.64-.67-2.87-1.9-2.61-3.64.66-4.58-1.63-5.4-5.46-4.88a21.37,21.37,0,0,1-5.24,0c-2.74-.31-3.72.78-3.38,3.44.38,2.91-.9,4.63-3.8,5.42a37.6,37.6,0,0,0-5.62,2.36c-1.73.78-3.63,1.11-4.81-.51-2.87-3.92-5-2.31-7.31.52a28.22,28.22,0,0,1-4,4c-1.85,1.5-1.72,2.74.06,4.12,2.64,2,2.93,4.38,1.19,7.25a30.15,30.15,0,0,0-2.08,5.26c-.58,1.6-1.54,3.31-3.29,3-6.13-1.06-5.64,2.81-5.4,6.71.1,1.75.06,3.5,0,5.25,0,1.37.3,2.25,1.92,2.15,3-.18,5.81-.1,6.85,3.73A80.19,80.19,0,0,0,74.94,130.75ZM24.31,202.93h7.41c10.65,0,10.57,0,10.34-10.8-.05-2.42-.64-3.27-3.16-3.22-7.12.16-14.24.05-21.36.05-11,0-10.93,0-10.55,11,.07,2.22.6,3.07,2.94,3C14.72,202.82,19.52,202.93,24.31,202.93Zm80.88,0h7c11.51,0,11.44,0,10.38-11.64-.19-2-1-2.35-2.69-2.34-9.88,0-19.82-.63-29.62.26-6,.54-1.5,6.28-2.58,9.48-.56,1.68-1.12,4.49,2.72,4.3C95.3,202.75,100.25,202.93,105.19,202.93Zm80.27-14h-7c-11,0-10.91,0-10.54,11,.08,2.24.65,3,3,3,7.26-.13,14.53,0,21.79,0,11,0,10.92,0,10.32-11.26-.11-2-.63-2.79-2.73-2.74C195.34,189.05,190.4,189,185.46,189Z"/><path class="cls-1" d="M174.4,119h8.73a17.51,17.51,0,0,0,2.61,0c1.92-.28,2.58,3.09,4.29,1.9a124.35,124.35,0,0,0,9.79-8c1.22-1.06.09-1.78-.66-2.42-2.1-1.8-4.27-3.51-6.34-5.34-1.85-1.63-3.53-3.5-5.9-.59-.41.5-1.63.44-2.48.45-6.84,0-13.69-.17-20.52.09-3.34.13-2.85-1.78-3-3.83-.15-2.33.4-3.43,3-3.32,4.94.19,9.9,0,14.84.07,1.9,0,3.12,0,3.25-2.66.23-4.61,3-5.66,6.65-2.7,6.44,5.23,12.76,10.61,19.14,15.9,2.76,2.29,2.82,4.55,0,6.86-6.5,5.39-12.93,10.86-19.5,16.15-3.23,2.61-6.23,1.5-6.29-2.48-.06-3.09-1.48-3.14-3.73-3.1-4.8.09-9.61-.18-14.4.1-3.25.19-3-1.62-3-3.77s.24-3.55,3-3.38C167.4,119.13,170.9,119,174.4,119Z"/><path class="cls-1" d="M35.83,105H26.66c-.58,0-1.34.23-1.72,0-5.66-4.19-8.44,1-11.88,3.69C8.91,111.89,9,112,13,115.28c1.57,1.3,3.16,2.57,4.68,3.92s3.16,3.18,5.19.35c.37-.51,1.61-.56,2.44-.57,7,0,14,.11,21-.09,3-.08,2.82,1.55,2.8,3.56s.26,3.71-2.76,3.59c-5.08-.22-10.19,0-15.28-.1-2.15,0-2.93.45-3.08,2.83-.26,4.36-3,5.45-6.46,2.66-6.56-5.31-13-10.77-19.47-16.17-2.59-2.16-2.65-4.36,0-6.54,6.58-5.5,13.12-11.07,19.81-16.45,3.17-2.55,6-1.32,6.15,2.83C28,97.92,29.27,98,31.39,98c5-.09,9.91.13,14.85-.09,2.95-.13,2.85,1.52,2.81,3.54s.3,3.79-2.75,3.6C42.83,104.81,39.32,105,35.83,105Z"/><path class="cls-1" d="M94.43,49.09c3.53-.86,3.48,1.15,3.67,3.61.27,3.37-1.58,3.19-3.95,3.36-3,.21-3.18-1.25-3.23-3.62C90.85,49.61,91.52,48.12,94.43,49.09Z"/><path class="cls-1" d="M115.54,49c3.12-.74,3.44.93,3.57,3.56.16,3.2-1.33,3.36-3.86,3.47-2.85.12-3.32-1-3.35-3.53C111.87,49.76,112.52,48.34,115.54,49Z"/><path class="cls-1" d="M52.72,90.89c-2.8.59-3.85-.35-3.82-3.36,0-2.82.76-3.78,3.65-3.67,2.45.08,3.76.39,3.55,3.31C55.93,89.54,56.12,91.72,52.72,90.89Z"/><path class="cls-1" d="M160.86,87.15c.73,3.19-.6,3.87-3.42,3.93-3,.06-3.53-1.09-3.56-3.78s.73-3.6,3.44-3.42C159.73,84,162.09,83.76,160.86,87.15Z"/><path class="cls-1" d="M80.5,111.87a24.5,24.5,0,1,1,24.29,24.6A24.54,24.54,0,0,1,80.5,111.87Zm42,.28a17.47,17.47,0,1,0-17.66,17.29A17.52,17.52,0,0,0,122.47,112.15Z"/></g></g></svg>