<svg xmlns="http://www.w3.org/2000/svg" viewBox="0 0 198.01 198.05"><defs><style>.cls-1{fill:#c5875e;}</style></defs><g id="Capa_2" data-name="Capa 2"><g id="Capa_1-2" data-name="Capa 1"><path class="cls-1" d="M102.25,198H13.74C4.39,198,0,193.65,0,184.34Q0,98.92,0,13.49C0,4.46,4.47.06,13.59.05q49.48,0,99,0a9.16,9.16,0,0,1,7.18,2.86q16.68,16.94,33.62,33.62a9.17,9.17,0,0,1,2.93,7.16c-.12,15.72-.07,31.44-.05,47.16,0,2.14-.1,4.2-2.46,5.15-3,1.21-5.28-.87-5.29-4.92,0-13.92-.14-27.84.07-41.75,0-3.47-.79-4.61-4.39-4.45-6.81.31-13.65.14-20.48.08-7.53-.07-12.27-4.82-12.32-12.36,0-7.09-.11-14.17,0-21.26.06-2.53-.41-3.56-3.29-3.55-31.57.11-63.14.06-94.7.08C8.87,7.82,7.77,9,7.77,13.57q0,85.43,0,170.85c0,4.79,1.07,5.83,5.94,5.84,9.28,0,18.56-.1,27.83.08,2.8,0,3.42-.85,3.37-3.48-.16-8.63-.09-17.27,0-25.9,0-4.06,1.27-5.34,5.28-5.38q10.83-.08,21.65,0c4.3,0,5.53,1.25,5.55,5.5,0,8.63.19,17.27-.08,25.89-.11,3.36,1.46,3.4,3.9,3.34s4,.24,4-3.24c-.21-15.85-.1-31.7-.09-47.54,0-5.14.93-6.07,6.1-6.1,6.83,0,13.66,0,20.49,0,4.92,0,5.9,1,5.9,5.89,0,15.85.14,31.7-.09,47.54-.06,3.68,1.73,3.33,4.19,3.47,2.8.16,3.71-.55,3.69-3.55-.13-24.48-.07-49-.07-73.45,0-6.37.61-7,7.15-7s13.14,0,19.71,0c4.6,0,5.63,1.12,5.63,5.78,0,24.74,0,49.48.05,74.22,0,1.26-.86,3.26.88,3.69a13.56,13.56,0,0,0,6.11,0c1.25-.29.65-2,.65-3.13,0-17.14,0-34.27,0-51.41a11.65,11.65,0,0,1,.4-3.79,3.46,3.46,0,0,1,3.62-2.38,3.71,3.71,0,0,1,3.56,3,15.88,15.88,0,0,1,.16,3.46c0,17,.06,34,0,51,0,2.6.5,3.71,3.34,3.5a71.2,71.2,0,0,1,10.43,0c2.85.21,3.33-.93,3.32-3.51q-.12-47.35,0-94.7c0-2.81-.58-4-3.59-3.73a102.75,102.75,0,0,1-10.82,0c-2-.07-2.74.59-2.67,2.64.12,4,0,8,.05,12,0,2.68-.89,4.79-3.74,4.86-3.09.09-4.08-2.07-4-4.93q.09-8.7,0-17.39c0-3.22,1.56-4.84,4.66-4.87q11.59-.09,23.2,0c4,0,4.7,2.6,4.69,6q-.09,50.25,0,100.5c0,11.15.42,10.83-10.7,10.81C159,198,130.6,198,102.25,198ZM150,152.38c0-11.72,0-23.44.05-35.16,0-2.3-.59-3.23-3-3.12-3.72.17-7.47.14-11.2,0-2.16-.08-2.87.64-2.87,2.85q.11,35.36,0,70.71c0,2,.55,2.72,2.6,2.64a97.63,97.63,0,0,1,10.82,0c2.82.19,3.73-.58,3.68-3.56C149.9,175.31,150,163.84,150,152.38ZM92.82,165.93c0,7.21,0,14.42,0,21.63,0,1.86.29,2.84,2.49,2.75,4.11-.16,8.24-.11,12.35,0,1.72,0,2.2-.63,2.19-2.26q-.06-22.22,0-44.42c0-1.89-.71-2.46-2.49-2.43-3.86.08-7.73.14-11.58,0-2.44-.1-3,.86-3,3.14C92.9,151.51,92.82,158.72,92.82,165.93Zm-23.23,11c0-3.6-.11-7.2,0-10.8.1-2.23-.71-2.89-2.87-2.81-3.85.14-7.71.14-11.56,0-2.05-.07-2.65.68-2.63,2.67q.13,11,0,22c0,1.91.71,2.4,2.48,2.36,4.11-.1,8.23-.09,12.34,0,1.66,0,2.27-.52,2.23-2.21C69.53,184.36,69.59,180.63,69.59,176.9ZM141.3,37.15,119.12,15c0,5.71-.06,12,0,18.22a3.67,3.67,0,0,0,3.91,3.91C129.31,37.21,135.57,37.15,141.3,37.15Z"/><path class="cls-1" d="M56.43,102.94C38.38,103,22.9,89.34,21,71.7c-2-18.35,9.91-35.34,27.7-39,3.07-.63,4-1.63,3.89-4.66-.2-6.38,1.05-7.33,7.51-6.66,23.5,2.44,40.81,20.12,42.27,43.19.35,5.54-.65,6.75-6.15,6.59-3-.09-4.54.34-5.31,4A35.16,35.16,0,0,1,56.43,102.94Zm-4-48.13c0-3.86-.16-7.74.06-11.59.18-3.16-1.17-3.35-3.68-2.66-13,3.52-21.55,16.23-20.18,30.1C29.91,83.3,41,94.07,53.75,95.11A28.07,28.07,0,0,0,83.2,74.51c.68-2.56.2-3.38-2.57-3.32-7.73.16-15.46,0-23.19.07-3.37,0-5-1.41-5-4.85C52.53,62.54,52.48,58.68,52.47,54.81Zm24.74,8.67c4.76,0,9.52-.11,14.27.05,2.39.08,3.13-.51,2.7-3C91.54,45.34,78.47,32.14,63.45,29.59c-2.07-.36-3.32-.33-3.27,2.47q.24,14.27,0,28.54c0,2.53.92,3,3.15,2.92C68,63.38,72.58,63.48,77.21,63.48Z"/><path class="cls-1" d="M61.89,121.54c-11.83,0-23.66,0-35.49,0-2.84,0-5.46-.49-5.4-3.92s2.69-3.87,5.52-3.87q35.3,0,70.6,0c2.91,0,5.31.74,5.18,4.16-.11,3-2.3,3.63-4.91,3.62C85.56,121.51,73.72,121.53,61.89,121.54Z"/><path class="cls-1" d="M37,140.17c-3.85,0-7.7,0-11.55,0-2.52,0-4.42-1-4.51-3.64-.1-2.87,1.84-4.09,4.5-4.1q11.75-.08,23.48,0c2.49,0,4.32,1.24,4.32,3.89s-1.76,3.81-4.31,3.82Z"/><path class="cls-1" d="M169.35,114.12c2.35.26,3.86,1.5,3.8,3.9s-1.56,3.72-4,3.64a3.44,3.44,0,0,1-3.62-3.62C165.51,115.63,167,114.38,169.35,114.12Z"/><path class="cls-1" d="M72.72,136.52c-.39,2.29-1.65,3.69-4.1,3.56a3.46,3.46,0,0,1-3.56-3.69,3.55,3.55,0,0,1,3.85-3.84C71.24,132.58,72.55,134.1,72.72,136.52Z"/></g></g></svg>