<svg xmlns="http://www.w3.org/2000/svg" viewBox="0 0 70.97 64.32"><defs><style>.cls-1{fill:#6c2911;}</style></defs><g id="Capa_2" data-name="Capa 2"><g id="Capa_1-2" data-name="Capa 1"><path class="cls-1" d="M35.51,64.31H5.88A5.61,5.61,0,0,1,.09,59.76c-.3-1.52.11-2.14,1.64-2.08,1.21.06,1-.64,1-1.38q0-17.31,0-34.62a3.7,3.7,0,0,1,1.29-3.2c.41-.31,1-.88,1.39-.38s.78,1.36.2,1.9A2.46,2.46,0,0,0,5,22.14C5,33.5,5,44.86,5,56.21c0,1.12.22,1.47,1.41,1.47q29.09-.06,58.17,0c1.16,0,1.59-.29,1.42-1.44-.08-.55.07-1.13,0-1.66-.28-1.48.64-1.4,1.62-1.37.49,0,.64.23.62.68s0,1.2,0,1.8c-.11,1.26-.07,2.2,1.7,2,1-.1,1.14.86,1.05,1.72a5.58,5.58,0,0,1-5.78,4.88H35.51ZM68.5,60h-66A3.64,3.64,0,0,0,6.26,62.1q27.07,0,54.15,0h4.84A3.38,3.38,0,0,0,68.5,60Z"/><path class="cls-1" d="M39,49.51c-.39-3.52.93-6.6,2.39-9.67a76.58,76.58,0,0,0,4.05-9.09C48.14,22.27,52.54,14.55,56,6.41a4.55,4.55,0,0,1,6-2.77,4.29,4.29,0,0,1,2.79,4.85A1.28,1.28,0,0,0,65.32,10a3,3,0,0,1,.86,3.86c-1.31,2.84-2.69,5.66-4,8.49-.33.69-.78,1.24-1.6.85s-.74-1.14-.38-1.88c1.2-2.49,2.38-5,3.57-7.49.14-.29.26-.59.41-.87.23-.48.21-1-.27-1.2s-.59.42-.74.74c-2.76,6-5.08,12.23-8.39,17.89-3.11,5.33-5.16,11.11-8.08,16.48-1.49,2.73-3.93,4.76-5.93,7.11a1,1,0,0,1-1.25.28,1.09,1.09,0,0,1-.67-1.11C38.87,51.91,38.92,50.71,39,49.51ZM62.66,7.93A2.31,2.31,0,0,0,61.5,5.87C60.18,5.13,58.79,5.68,58,7.3q-3.1,6.7-6.17,13.43c-1.37,3-1.35,2.95,1.75,4.21.86.34,1.24.26,1.64-.64,2.27-5.09,4.63-10.14,7-15.2C62.4,8.68,62.54,8.25,62.66,7.93ZM41.31,50c1.28-1.52,2.61-2.54,3.31-4,2.18-4.63,4.24-9.31,6.37-14,.24-.52.07-.75-.39-.92a6.46,6.46,0,0,1-1.14-.5c-1-.6-1.39-.25-1.81.73-1.74,4-3.51,8-5.4,12C41.28,45.34,41.27,47.44,41.31,50Zm8.57-24.15c-.7.09-.64.84-.93,1.3s-.28.75.28,1c1,.41,2,.88,3.05,1.28.76.31.82-.39,1-.81s.82-.93.16-1.28A37.28,37.28,0,0,0,49.88,25.81Z"/><path class="cls-1" d="M45.51,23.24c-1.39-6.49-2.81-13-4.17-19.47-.27-1.27-.8-1.67-2.12-1.39C29.49,4.47,19.74,6.51,10,8.56c-1.69.36-1.82.56-1.45,2.26Q12.61,29.89,16.7,49c.45,2.1.6,2.21,2.66,1.78,5.42-1.13,10.83-2.27,16.25-3.38.4-.08,1.09-.63,1.2.16s.45,1.8-.92,2.06c-2.22.41-4.42.92-6.63,1.38L19.1,53.08a3.39,3.39,0,0,1-4.39-2.84Q10.47,30.5,6.24,10.75A3.29,3.29,0,0,1,8.92,6.51Q24.13,3.26,39.37.08a3.22,3.22,0,0,1,4,2.57c1.29,5.71,2.54,11.43,3.7,17.17C47.3,21.14,46.23,22.16,45.51,23.24Z"/><path class="cls-1" d="M36.57,6.37a2.2,2.2,0,0,1,2.24,1.78c.65,2.87,1.29,5.75,1.87,8.64.28,1.41-.45,2.36-2.08,2.71C33.06,20.69,27.52,21.85,22,23c-1.53.32-3.06.65-4.6,1a2.23,2.23,0,0,1-3-1.86c-.59-2.6-1.14-5.22-1.68-7.83-.43-2,.14-3,2.13-3.38C19.41,9.94,24,9,28.51,8l7.17-1.51C36,6.46,36.31,6.41,36.57,6.37ZM17.24,21.72l.22,0q10.14-2.13,20.29-4.24c.72-.15.69-.52.56-1.1-.52-2.29-1-4.59-1.46-6.89-.13-.61-.34-.82-1-.67Q25.76,10.94,15.67,13c-.77.15-.85.47-.71,1.13.51,2.29,1,4.6,1.47,6.89C16.51,21.41,16.54,21.93,17.24,21.72Z"/><path class="cls-1" d="M62.1,38.25c2.08,0,4.16,0,6.24,0,1.8,0,2.61.82,2.62,2.63q0,3.75,0,7.48c0,1.81-.82,2.62-2.62,2.64-2.36,0-4.72.07-7.07,0a5.76,5.76,0,0,0-3.88,1.1A18.3,18.3,0,0,1,55,53.52c-1,.5-1.77.13-1.78-.88,0-4.16-.08-8.32,0-12.47,0-1.26,1-1.91,2.31-1.91ZM55.45,50.41l.3.23c2-2,4.41-1.93,6.88-1.86,1.71,0,3.42,0,5.12,0,.65,0,1-.08,1-.88,0-2.21,0-4.43,0-6.64,0-.61-.2-.8-.8-.8-3.93,0-7.85,0-11.78,0-.52,0-.73.17-.73.72C55.45,44.26,55.45,47.34,55.45,50.41Z"/><path class="cls-1" d="M36.21,33.61c-1.46,0-2.27-.56-2.54-1.67-.53-2.2-1-4.41-1.44-6.62a2.14,2.14,0,0,1,1.64-2.53c1.84-.45,3.69-.85,5.55-1.16a2.17,2.17,0,0,1,2.71,1.92c.37,1.57.59,3.18,1.06,4.72a4.45,4.45,0,0,1-.6,3.53,1.07,1.07,0,0,1-.72.61C39.89,32.84,37.91,33.25,36.21,33.61Zm5-3.95c-.37-1.71-.76-3.45-1.12-5.21-.11-.52-.37-.65-.88-.54-1.3.3-2.6.57-3.91.82-.62.12-.81.39-.65,1,.39,1.61.73,3.23,1,4.85.13.68.46.78,1.06.64,1.25-.29,2.51-.53,3.77-.8C40.86,30.37,41.35,30.33,41.17,29.66Z"/><path class="cls-1" d="M41,34.92a3.12,3.12,0,0,1-2.94,2.88c-5.88,1.1-11.72,2.42-17.58,3.66-.22,0-.45.1-.67.13-.75.11-1.32-.15-1.44-.93s.38-1.11,1-1.26c2.11-.46,4.23-.89,6.35-1.34l14.47-3A7.68,7.68,0,0,1,41,34.92Z"/><path class="cls-1" d="M38.75,40c-.23,1.92-1.36,2.52-3.06,2.83-4.84.9-9.65,2-14.47,3-.79.17-1.55.28-1.81-.67s.49-1.33,1.33-1.5L38.31,40A2.38,2.38,0,0,1,38.75,40Z"/><path class="cls-1" d="M68.19,28.13c0,2.31,0,4.61,0,6.91,0,.94-.37,1-1.13,1s-1.15-.11-1.14-1c0-4.42,0-8.84,0-13.26,0-1-.49-1.93.23-2.9.39-.53.58-.59,1-.14a3.62,3.62,0,0,1,1,2.63C68.18,23.62,68.19,25.88,68.19,28.13Z"/><path class="cls-1" d="M24.68,27c-.83,0-1.3-.23-1.39-.9a1,1,0,0,1,.83-1.23c1.47-.34,2.95-.67,4.43-1a1,1,0,0,1,1.22.85A1,1,0,0,1,29,26C27.53,26.4,26,26.7,24.68,27Z"/><path class="cls-1" d="M25.61,31.33c-.86,0-1.28-.29-1.4-.9A1,1,0,0,1,25,29.19c1.47-.35,2.95-.64,4.44-.92a1,1,0,0,1,1.25.81A1,1,0,0,1,30,30.36C28.45,30.75,26.93,31,25.61,31.33Z"/><path class="cls-1" d="M26.38,35.7c-.65,0-1.11-.28-1.21-.94A1,1,0,0,1,26,33.52c1.44-.32,2.88-.63,4.33-.91a1,1,0,0,1,1.29.74,1,1,0,0,1-.8,1.37C29.33,35.07,27.84,35.38,26.38,35.7Z"/><path class="cls-1" d="M21.59,34.41a1.13,1.13,0,0,1,1.31.85,1,1,0,0,1-.74,1.28,34.84,34.84,0,0,1-3.49.72,1,1,0,0,1-1.18-.88,1,1,0,0,1,.82-1.23C19.42,34.87,20.54,34.64,21.59,34.41Z"/><path class="cls-1" d="M17.26,28.54c-1,.12-1.48-.17-1.63-.78a1,1,0,0,1,.77-1.28c1.12-.29,2.25-.51,3.38-.7a1.08,1.08,0,0,1,.47,2.1C19.14,28.18,18,28.38,17.26,28.54Z"/><path class="cls-1" d="M17.81,33c-.65,0-1.08-.27-1.21-.84a1,1,0,0,1,.71-1.31,34.65,34.65,0,0,1,3.51-.72.93.93,0,0,1,1.12.79,1,1,0,0,1-.72,1.29C20.06,32.49,18.89,32.73,17.81,33Z"/></g></g></svg>