<svg xmlns="http://www.w3.org/2000/svg" xmlns:xlink="http://www.w3.org/1999/xlink" viewBox="0 0 1052.14 2006.07"><defs><style>.cls-1{isolation:isolate;}.cls-2{fill:#c6875e;}.cls-10,.cls-3,.cls-7{mix-blend-mode:multiply;}.cls-3{opacity:0.2;}.cls-4{fill:#fff;}.cls-5{fill:url(#Degradado_sin_nombre_22);}.cls-6{fill:#6c2911;}.cls-7{opacity:0.1;}.cls-8{fill:#facb74;}.cls-9{fill:url(#Degradado_sin_nombre_22-2);}.cls-10{opacity:0.08;}.cls-11{fill:url(#Degradado_sin_nombre_22-3);}.cls-12{fill:url(#Degradado_sin_nombre_22-4);}.cls-13{fill:url(#Degradado_sin_nombre_22-5);}.cls-14{fill:url(#Degradado_sin_nombre_22-6);}</style><radialGradient id="Degradado_sin_nombre_22" cx="197.03" cy="173.76" r="173.76" gradientTransform="translate(168.29 -76.14) rotate(45) scale(1 0.9)" gradientUnits="userSpaceOnUse"><stop offset="0" stop-opacity="0.84"/><stop offset="1" stop-opacity="0"/></radialGradient><radialGradient id="Degradado_sin_nombre_22-2" cx="275.07" cy="505.46" r="173.76" gradientTransform="matrix(-1, 0, 0, 0.9, 1130.17, 50.55)" xlink:href="#Degradado_sin_nombre_22"/><radialGradient id="Degradado_sin_nombre_22-3" cx="197.03" cy="837.18" r="173.76" gradientTransform="translate(590.49 165.08) rotate(45) scale(1 0.9)" xlink:href="#Degradado_sin_nombre_22"/><radialGradient id="Degradado_sin_nombre_22-4" cx="275.07" cy="1168.88" r="173.76" gradientTransform="matrix(-1, 0, 0, 0.9, 1130.17, 116.89)" xlink:href="#Degradado_sin_nombre_22"/><radialGradient id="Degradado_sin_nombre_22-5" cx="197.03" cy="1500.61" r="173.76" gradientTransform="translate(1012.69 406.3) rotate(45) scale(1 0.9)" xlink:href="#Degradado_sin_nombre_22"/><radialGradient id="Degradado_sin_nombre_22-6" cx="275.07" cy="1832.3" r="173.76" gradientTransform="matrix(-1, 0, 0, 0.9, 1130.17, 183.23)" xlink:href="#Degradado_sin_nombre_22"/></defs><g class="cls-1"><g id="Capa_2" data-name="Capa 2"><g id="Capa_1-2" data-name="Capa 1"><rect class="cls-2" x="161.39" y="47.27" width="707.88" height="251.7"/><polygon class="cls-2" points="864.64 331.7 864.64 6.19 1052.14 168.94 864.64 331.7"/><polygon class="cls-3" points="1052.14 168.94 161.39 173.11 161.39 298.97 864.64 298.97 864.64 331.7 1052.14 168.94"/><path class="cls-4" d="M506.67,107.41v18.78h-3.55V107.41Zm8.86,0v2.8h-9.95v-2.8Zm-1.26,7.75v2.72h-8.69v-2.72Zm1.3,8.24v2.79h-10V123.4Z"/><path class="cls-4" d="M533.11,107.41v18.78h-3.56l-8-13v13H518V107.41h3.55l8,13v-13Z"/><path class="cls-4" d="M547.7,120h3.55a7.31,7.31,0,0,1-1,3.33,6.23,6.23,0,0,1-2.51,2.28,8.52,8.52,0,0,1-3.91.83,7.71,7.71,0,0,1-3.18-.63,6.67,6.67,0,0,1-2.41-1.79,8,8,0,0,1-1.53-2.81,12.15,12.15,0,0,1-.53-3.7v-1.43a11.84,11.84,0,0,1,.54-3.7,8,8,0,0,1,1.56-2.82,6.77,6.77,0,0,1,2.43-1.8,7.83,7.83,0,0,1,3.19-.63,8.23,8.23,0,0,1,3.89.84,6.12,6.12,0,0,1,2.46,2.32,7.86,7.86,0,0,1,1.06,3.38h-3.55a5.69,5.69,0,0,0-.51-2,2.71,2.71,0,0,0-1.21-1.25,4.51,4.51,0,0,0-2.14-.44,4,4,0,0,0-1.81.39,3.26,3.26,0,0,0-1.29,1.16,5.41,5.41,0,0,0-.78,1.9,12.23,12.23,0,0,0-.26,2.64v1.46a12.55,12.55,0,0,0,.24,2.57,5.73,5.73,0,0,0,.72,1.92,3.44,3.44,0,0,0,1.26,1.2,4,4,0,0,0,1.85.41,4.79,4.79,0,0,0,2.12-.41,2.87,2.87,0,0,0,1.25-1.21A5.31,5.31,0,0,0,547.7,120Z"/><path class="cls-4" d="M561.45,110.26l-5.35,15.93h-3.76l7-18.78h2.4Zm4.23,8.95V122H555.61v-2.8Zm.24,7-5.37-15.93-.33-2.85h2.42l7.05,18.78Z"/><path class="cls-4" d="M578.81,117.82H574l0-2.51h4.11a4.59,4.59,0,0,0,1.77-.29,2.28,2.28,0,0,0,1.07-.87,2.45,2.45,0,0,0,.37-1.38,2.81,2.81,0,0,0-.34-1.47,2,2,0,0,0-1.06-.83,5.4,5.4,0,0,0-1.84-.26h-2.91v16h-3.55V107.41h6.46a12.37,12.37,0,0,1,2.86.3,5.9,5.9,0,0,1,2.14.94,4.13,4.13,0,0,1,1.33,1.58,5.17,5.17,0,0,1,.46,2.27,4.33,4.33,0,0,1-.54,2.14,4,4,0,0,1-1.63,1.58,6.59,6.59,0,0,1-2.8.69Zm-.15,8.37H573l1.48-2.79h4.21a3.75,3.75,0,0,0,1.74-.35,2.29,2.29,0,0,0,1-1,2.83,2.83,0,0,0,.35-1.41,3.44,3.44,0,0,0-.31-1.52,2.19,2.19,0,0,0-1-1,3.66,3.66,0,0,0-1.71-.34h-3.69l0-2.51h4.69l.81,1a5.13,5.13,0,0,1,2.66.65,4,4,0,0,1,1.51,1.62,4.73,4.73,0,0,1,.49,2.14,5.5,5.5,0,0,1-.78,3,4.76,4.76,0,0,1-2.27,1.85A9.4,9.4,0,0,1,578.66,126.19Z"/><path class="cls-4" d="M591.93,107.41v18.78h-3.55V107.41Zm8.86,0v2.8h-9.95v-2.8Zm-1.27,7.75v2.72h-8.68v-2.72Zm1.31,8.24v2.79h-10V123.4Z"/><path class="cls-4" d="M616.4,109.48l-11.48,16.71h-2.44v-2.13L614,107.41h2.39Zm-1.27-2.07v2.8H602.52v-2.8Zm1.51,16v2.79H603.46V123.4Z"/><path class="cls-4" d="M626.9,110.26l-5.36,15.93h-3.75l7-18.78h2.4Zm4.23,8.95V122H621.05v-2.8Zm.24,7L626,110.26l-.32-2.85h2.41l7.06,18.78Z"/><path class="cls-4" d="M640.61,107.41v18.78h-3.55V107.41Zm2.06,18.78h-4l0-2.79h4a4.88,4.88,0,0,0,2.75-.73,4.44,4.44,0,0,0,1.68-2.1,8.79,8.79,0,0,0,.56-3.3v-1a9.45,9.45,0,0,0-.32-2.62,5.35,5.35,0,0,0-1-1.91,3.86,3.86,0,0,0-1.54-1.17,5.14,5.14,0,0,0-2.1-.4h-4.21v-2.8h4.21a9.12,9.12,0,0,1,3.44.63,7.74,7.74,0,0,1,2.69,1.81,8.17,8.17,0,0,1,1.76,2.82,10.56,10.56,0,0,1,.61,3.66v.94a10.56,10.56,0,0,1-.61,3.66,7.82,7.82,0,0,1-4.47,4.63A9.36,9.36,0,0,1,642.67,126.19Z"/><path class="cls-4" d="M669.47,116.32v1a12.23,12.23,0,0,1-.56,3.82,8.24,8.24,0,0,1-1.62,2.88,6.81,6.81,0,0,1-2.49,1.82,8.32,8.32,0,0,1-6.4,0,7,7,0,0,1-2.51-1.82,8.44,8.44,0,0,1-1.64-2.88,11.93,11.93,0,0,1-.58-3.82v-1a11.94,11.94,0,0,1,.58-3.83,8.42,8.42,0,0,1,1.63-2.88,7,7,0,0,1,2.49-1.83,8.47,8.47,0,0,1,6.41,0,7,7,0,0,1,2.49,1.83,8.11,8.11,0,0,1,1.63,2.88A12,12,0,0,1,669.47,116.32Zm-3.58,1v-1a11.46,11.46,0,0,0-.29-2.7,5.77,5.77,0,0,0-.83-2,3.59,3.59,0,0,0-1.37-1.21,4,4,0,0,0-1.83-.41,4,4,0,0,0-1.83.41,3.61,3.61,0,0,0-1.35,1.21,5.77,5.77,0,0,0-.84,2,11.46,11.46,0,0,0-.29,2.7v1a11.43,11.43,0,0,0,.29,2.69,5.81,5.81,0,0,0,.85,2,3.67,3.67,0,0,0,1.36,1.22,4.29,4.29,0,0,0,3.66,0,3.5,3.5,0,0,0,1.35-1.22,5.79,5.79,0,0,0,.83-2A11.43,11.43,0,0,0,665.89,117.29Z"/><circle class="cls-5" cx="197.03" cy="173.76" r="173.76" transform="translate(-65.16 190.22) rotate(-45)"/><circle class="cls-4" cx="157.93" cy="173.76" r="149.29" transform="translate(-76.61 162.57) rotate(-45)"/><path class="cls-2" d="M157.93,33.11c77.56,0,140.65,63.1,140.65,140.65S235.49,314.41,157.93,314.41,17.28,251.32,17.28,173.76,80.38,33.11,157.93,33.11m0-17.28A157.94,157.94,0,1,0,315.87,173.76,157.93,157.93,0,0,0,157.93,15.83Z"/><circle class="cls-6" cx="157.93" cy="173.76" r="117.75"/><path class="cls-7" d="M0,173.11c0,.22,0,.43,0,.65a157.94,157.94,0,1,0,315.87,0c0-.22,0-.43,0-.65Z"/><rect class="cls-8" x="182.86" y="378.97" width="707.88" height="251.7"/><polygon class="cls-8" points="187.5 663.39 187.5 337.89 0 500.64 187.5 663.39"/><circle class="cls-9" cx="855.1" cy="505.46" r="173.76"/><polygon class="cls-7" points="0 500.64 890.68 504.84 890.68 630.7 187.43 630.7 187.43 663.42 0 500.64"/><circle class="cls-4" cx="894.2" cy="505.46" r="149.29" transform="translate(-95.51 780.34) rotate(-45)"/><path class="cls-8" d="M894.2,364.81c77.56,0,140.65,63.09,140.65,140.65S971.76,646.11,894.2,646.11,753.55,583,753.55,505.46s63.1-140.65,140.65-140.65m0-17.28a157.93,157.93,0,1,0,157.94,157.93A157.93,157.93,0,0,0,894.2,347.53Z"/><circle class="cls-6" cx="894.2" cy="505.46" r="117.75"/><path class="cls-10" d="M1052.12,504.84c0,.22,0,.43,0,.65a157.94,157.94,0,0,1-315.87,0c0-.22,0-.43,0-.65Z"/><path class="cls-6" d="M287.53,439.1v18.78H284V439.1Zm2.06,18.78h-4l0-2.78h4a5,5,0,0,0,2.75-.73,4.53,4.53,0,0,0,1.68-2.1,8.83,8.83,0,0,0,.56-3.3v-1a9.45,9.45,0,0,0-.32-2.62,5.14,5.14,0,0,0-.95-1.9,4,4,0,0,0-1.54-1.18,5.31,5.31,0,0,0-2.1-.4h-4.21v-2.8h4.21a8.93,8.93,0,0,1,3.44.64,7.74,7.74,0,0,1,2.69,1.81,8.07,8.07,0,0,1,1.76,2.82,10.56,10.56,0,0,1,.61,3.66V449a10.64,10.64,0,0,1-.61,3.66,8.17,8.17,0,0,1-1.76,2.82,7.75,7.75,0,0,1-2.71,1.8A9.36,9.36,0,0,1,289.59,457.88Z"/><path class="cls-6" d="M304.73,439.1v18.78h-3.54V439.1Zm8.87,0v2.8h-10v-2.8Zm-1.27,7.76v2.72h-8.68v-2.72Zm1.3,8.24v2.78h-10V455.1Z"/><path class="cls-6" d="M325.91,453a2.76,2.76,0,0,0-.16-1,1.92,1.92,0,0,0-.58-.78,5.07,5.07,0,0,0-1.17-.7,17.42,17.42,0,0,0-1.94-.71,22.39,22.39,0,0,1-2.45-.93,10.19,10.19,0,0,1-2-1.2,5.22,5.22,0,0,1-1.33-1.58,4.36,4.36,0,0,1-.48-2.09,4.5,4.5,0,0,1,.5-2.11,4.82,4.82,0,0,1,1.41-1.65,6.81,6.81,0,0,1,2.16-1.06,9.53,9.53,0,0,1,2.75-.37,8,8,0,0,1,3.62.76,5.76,5.76,0,0,1,2.37,2.06,5.28,5.28,0,0,1,.84,2.93h-3.54a3.22,3.22,0,0,0-.36-1.55,2.65,2.65,0,0,0-1.11-1.06,4,4,0,0,0-1.87-.38,4.33,4.33,0,0,0-1.8.32,2.42,2.42,0,0,0-1.07.88,2.26,2.26,0,0,0-.35,1.23,1.79,1.79,0,0,0,.24.93,2.78,2.78,0,0,0,.74.76,6.25,6.25,0,0,0,1.22.65,14.77,14.77,0,0,0,1.69.6,17.84,17.84,0,0,1,2.72,1,7.77,7.77,0,0,1,2,1.29,4.79,4.79,0,0,1,1.17,1.62,5.13,5.13,0,0,1,.39,2.05,4.91,4.91,0,0,1-.47,2.17,4.54,4.54,0,0,1-1.37,1.62,6.25,6.25,0,0,1-2.14,1,10.6,10.6,0,0,1-5.48,0,8.07,8.07,0,0,1-2.42-1.1,5.66,5.66,0,0,1-1.72-1.89,5.33,5.33,0,0,1-.65-2.67h3.56a3.63,3.63,0,0,0,.29,1.51,2.52,2.52,0,0,0,.83,1,3.5,3.5,0,0,0,1.25.57,6.56,6.56,0,0,0,1.57.18,4.56,4.56,0,0,0,1.78-.3,2.32,2.32,0,0,0,1.06-.84A2.21,2.21,0,0,0,325.91,453Z"/><path class="cls-6" d="M343.2,451.71h3.55A7.34,7.34,0,0,1,345.7,455a6.19,6.19,0,0,1-2.52,2.28,8.45,8.45,0,0,1-3.9.82,7.88,7.88,0,0,1-3.18-.62,6.7,6.7,0,0,1-2.41-1.8,7.85,7.85,0,0,1-1.53-2.81,11.79,11.79,0,0,1-.53-3.69v-1.44a11.89,11.89,0,0,1,.54-3.7,8.18,8.18,0,0,1,1.55-2.82,7.14,7.14,0,0,1,2.44-1.8,7.83,7.83,0,0,1,3.19-.63,8.13,8.13,0,0,1,3.89.85A6.16,6.16,0,0,1,345.7,442a7.91,7.91,0,0,1,1.06,3.38h-3.55a5.69,5.69,0,0,0-.51-2,2.78,2.78,0,0,0-1.21-1.26,4.52,4.52,0,0,0-2.14-.43,4,4,0,0,0-1.81.39,3.31,3.31,0,0,0-1.29,1.15,5.46,5.46,0,0,0-.78,1.91,12.16,12.16,0,0,0-.26,2.64v1.46a12.38,12.38,0,0,0,.24,2.56,5.71,5.71,0,0,0,.72,1.93,3.34,3.34,0,0,0,1.26,1.19,3.83,3.83,0,0,0,1.85.42,4.68,4.68,0,0,0,2.12-.42,2.86,2.86,0,0,0,1.25-1.21A5.2,5.2,0,0,0,343.2,451.71Z"/><path class="cls-6" d="M349.48,439.1h6.82a9.46,9.46,0,0,1,3.68.65,5.05,5.05,0,0,1,2.36,1.91,5.56,5.56,0,0,1,.82,3.11,5.78,5.78,0,0,1-.51,2.52,5,5,0,0,1-1.45,1.8,7.26,7.26,0,0,1-2.2,1.13l-1.11.57h-6l0-2.8h4.5a3.8,3.8,0,0,0,1.82-.39,2.56,2.56,0,0,0,1.09-1.07,3.16,3.16,0,0,0,.37-1.56,3.47,3.47,0,0,0-.36-1.63,2.46,2.46,0,0,0-1.1-1.06,4.08,4.08,0,0,0-1.86-.38H353v16h-3.55Zm10.6,18.78-4.34-8.41h3.75l4.4,8.24v.18Z"/><path class="cls-6" d="M370,439.1v18.78h-3.55V439.1Z"/><path class="cls-6" d="M381.08,451h-4.84v-2.79h4.84a4.17,4.17,0,0,0,1.93-.39,2.55,2.55,0,0,0,1.09-1.09,3.47,3.47,0,0,0,.35-1.58,3.82,3.82,0,0,0-.35-1.61,2.82,2.82,0,0,0-1.09-1.21,3.6,3.6,0,0,0-1.93-.47H377.4v16h-3.54V439.1h7.22a8.31,8.31,0,0,1,3.75.78A5.59,5.59,0,0,1,387.2,442a5.94,5.94,0,0,1,.82,3.13,5.77,5.77,0,0,1-.82,3.13,5.33,5.33,0,0,1-2.37,2A9.06,9.06,0,0,1,381.08,451Z"/><path class="cls-6" d="M401.8,451.71h3.54a7.22,7.22,0,0,1-1,3.33,6.19,6.19,0,0,1-2.52,2.28,8.47,8.47,0,0,1-3.91.82,7.86,7.86,0,0,1-3.17-.62,6.74,6.74,0,0,1-2.42-1.8,8.17,8.17,0,0,1-1.53-2.81,12.1,12.1,0,0,1-.52-3.69v-1.44a11.89,11.89,0,0,1,.54-3.7,8.18,8.18,0,0,1,1.55-2.82,7.14,7.14,0,0,1,2.44-1.8,7.8,7.8,0,0,1,3.19-.63,8.06,8.06,0,0,1,3.88.85A6.19,6.19,0,0,1,404.3,442a8,8,0,0,1,1.06,3.38h-3.55a5.69,5.69,0,0,0-.51-2,2.84,2.84,0,0,0-1.21-1.26,4.52,4.52,0,0,0-2.14-.43,4,4,0,0,0-1.81.39,3.4,3.4,0,0,0-1.3,1.15,5.66,5.66,0,0,0-.77,1.91,12.16,12.16,0,0,0-.26,2.64v1.46a13.16,13.16,0,0,0,.23,2.56,5.93,5.93,0,0,0,.73,1.93A3.2,3.2,0,0,0,396,454.9a3.82,3.82,0,0,0,1.84.42,4.69,4.69,0,0,0,2.13-.42,2.86,2.86,0,0,0,1.25-1.21A5.2,5.2,0,0,0,401.8,451.71Z"/><path class="cls-6" d="M411.86,439.1v18.78h-3.55V439.1Z"/><path class="cls-6" d="M430.88,448v1a12,12,0,0,1-.57,3.83,8.07,8.07,0,0,1-1.61,2.88,6.92,6.92,0,0,1-2.49,1.82,8.44,8.44,0,0,1-6.4,0,7.08,7.08,0,0,1-2.51-1.82,8.28,8.28,0,0,1-1.64-2.88,11.72,11.72,0,0,1-.58-3.83v-1a11.63,11.63,0,0,1,.58-3.83,8.57,8.57,0,0,1,1.63-2.89,7,7,0,0,1,2.49-1.82,8.47,8.47,0,0,1,6.41,0,7.1,7.1,0,0,1,2.49,1.82,8.4,8.4,0,0,1,1.63,2.89A11.91,11.91,0,0,1,430.88,448Zm-3.58,1v-1a11.46,11.46,0,0,0-.29-2.7,5.83,5.83,0,0,0-.84-2,3.62,3.62,0,0,0-1.36-1.2,3.94,3.94,0,0,0-1.83-.41,3.86,3.86,0,0,0-1.83.41,3.67,3.67,0,0,0-1.35,1.2,5.83,5.83,0,0,0-.84,2,11,11,0,0,0-.29,2.7v1a11,11,0,0,0,.29,2.7,5.78,5.78,0,0,0,.85,2,3.76,3.76,0,0,0,1.36,1.22,4.29,4.29,0,0,0,3.66,0,3.65,3.65,0,0,0,1.35-1.22,6,6,0,0,0,.83-2A11.46,11.46,0,0,0,427.3,449Zm-6-11,2.53-3.92h3.77L424.1,438Z"/><path class="cls-6" d="M449,439.1v18.78h-3.56l-8-13v13h-3.54V439.1h3.54l8,13v-13Z"/><path class="cls-6" d="M462.69,439.1v18.78h-3.55V439.1Zm2.06,18.78H460.7l0-2.78h4a4.94,4.94,0,0,0,2.75-.73,4.53,4.53,0,0,0,1.68-2.1,8.63,8.63,0,0,0,.57-3.3v-1a9.43,9.43,0,0,0-.33-2.62,5.29,5.29,0,0,0-.94-1.9,4.09,4.09,0,0,0-1.55-1.18,5.31,5.31,0,0,0-2.1-.4h-4.2v-2.8h4.2a8.89,8.89,0,0,1,3.44.64,7.74,7.74,0,0,1,2.69,1.81,7.93,7.93,0,0,1,1.76,2.82,10.33,10.33,0,0,1,.61,3.66V449a10.41,10.41,0,0,1-.61,3.66,8,8,0,0,1-1.76,2.82,7.75,7.75,0,0,1-2.71,1.8A9.32,9.32,0,0,1,464.75,457.88Z"/><path class="cls-6" d="M479.9,439.1v18.78h-3.55V439.1Zm8.86,0v2.8h-9.95v-2.8Zm-1.27,7.76v2.72h-8.68v-2.72Zm1.31,8.24v2.78h-10V455.1Z"/><path class="cls-6" d="M501.36,439.1v18.78h-3.55V439.1Zm8.37,16v2.78h-9.44V455.1Z"/><path class="cls-6" d="M519.8,442l-5.35,15.93H510.7l7-18.78h2.4Zm4.24,9v2.8H514v-2.8Zm.24,7L518.9,442l-.32-2.85H521l7.06,18.78Z"/><path class="cls-6" d="M544,442l-5.35,15.93H534.9l7-18.78h2.4Zm4.23,9v2.8H538.16v-2.8Zm.25,7L543.1,442l-.32-2.85h2.41l7,18.78Z"/><path class="cls-6" d="M565,451.71h3.55a7.22,7.22,0,0,1-1,3.33,6.26,6.26,0,0,1-2.52,2.28,8.49,8.49,0,0,1-3.91.82,7.88,7.88,0,0,1-3.18-.62,6.79,6.79,0,0,1-2.41-1.8,8,8,0,0,1-1.53-2.81,12.09,12.09,0,0,1-.53-3.69v-1.44a11.6,11.6,0,0,1,.55-3.7,8,8,0,0,1,1.55-2.82,7,7,0,0,1,2.44-1.8,7.8,7.8,0,0,1,3.19-.63,8.06,8.06,0,0,1,3.88.85,6.19,6.19,0,0,1,2.47,2.31,8,8,0,0,1,1.05,3.38H565a5.69,5.69,0,0,0-.51-2,2.81,2.81,0,0,0-1.22-1.26,4.45,4.45,0,0,0-2.13-.43,4,4,0,0,0-1.81.39,3.4,3.4,0,0,0-1.3,1.15,5.66,5.66,0,0,0-.77,1.91,12.16,12.16,0,0,0-.26,2.64v1.46a13.16,13.16,0,0,0,.23,2.56,6.16,6.16,0,0,0,.72,1.93,3.29,3.29,0,0,0,1.27,1.19,3.79,3.79,0,0,0,1.84.42,4.62,4.62,0,0,0,2.12-.42,2.84,2.84,0,0,0,1.26-1.21A5.21,5.21,0,0,0,565,451.71Z"/><path class="cls-6" d="M584.81,439.1v2.8H569.68v-2.8Zm-5.83,0v18.78h-3.53V439.1Z"/><path class="cls-6" d="M590.94,439.1v18.78h-3.55V439.1Z"/><path class="cls-6" d="M597,439.1l4.66,15.11.67,3.67h-2.65l-6.6-18.78Zm4.32,15.11L606,439.1H610l-6.63,18.78h-2.62Z"/><path class="cls-6" d="M615.69,439.1v18.78h-3.55V439.1Z"/><path class="cls-6" d="M623.06,439.1v18.78h-3.55V439.1Zm2.06,18.78h-4l0-2.78h4a5,5,0,0,0,2.75-.73,4.53,4.53,0,0,0,1.68-2.1,8.83,8.83,0,0,0,.56-3.3v-1a9.45,9.45,0,0,0-.32-2.62,5.14,5.14,0,0,0-.95-1.9,4,4,0,0,0-1.54-1.18,5.31,5.31,0,0,0-2.1-.4H621v-2.8h4.21a8.93,8.93,0,0,1,3.44.64,7.74,7.74,0,0,1,2.69,1.81,8.07,8.07,0,0,1,1.76,2.82,10.56,10.56,0,0,1,.61,3.66V449a10.64,10.64,0,0,1-.61,3.66,8.17,8.17,0,0,1-1.76,2.82,7.75,7.75,0,0,1-2.71,1.8A9.36,9.36,0,0,1,625.12,457.88Z"/><path class="cls-6" d="M643.91,442l-5.35,15.93h-3.75l7-18.78h2.4Zm4.23,9v2.8H638.07v-2.8Zm.25,7L643,442l-.32-2.85h2.41l7.06,18.78Z"/><path class="cls-6" d="M657.62,439.1v18.78h-3.54V439.1Zm2.07,18.78h-4.05l0-2.78h4a5,5,0,0,0,2.75-.73,4.52,4.52,0,0,0,1.67-2.1,8.63,8.63,0,0,0,.57-3.3v-1a9.84,9.84,0,0,0-.32-2.62,5.3,5.3,0,0,0-1-1.9,4.05,4.05,0,0,0-1.54-1.18,5.31,5.31,0,0,0-2.1-.4h-4.21v-2.8h4.21a8.84,8.84,0,0,1,3.43.64,7.69,7.69,0,0,1,2.7,1.81,7.91,7.91,0,0,1,1.75,2.82,10.33,10.33,0,0,1,.62,3.66V449a10.41,10.41,0,0,1-.62,3.66,8,8,0,0,1-1.75,2.82,7.79,7.79,0,0,1-2.72,1.8A9.27,9.27,0,0,1,659.69,457.88Z"/><rect class="cls-2" x="161.39" y="710.7" width="707.88" height="251.7"/><polygon class="cls-2" points="864.64 995.12 864.64 669.62 1052.14 832.37 864.64 995.12"/><polygon class="cls-3" points="1052.14 832.37 161.39 836.53 161.39 962.39 864.64 962.39 864.64 995.12 1052.14 832.37"/><path class="cls-4" d="M509.56,770.83v18.78H506V770.83Zm2.07,18.78h-4.05l0-2.79h4a4.88,4.88,0,0,0,2.75-.73,4.48,4.48,0,0,0,1.67-2.1,8.54,8.54,0,0,0,.57-3.29v-1a9.84,9.84,0,0,0-.32-2.62,5.35,5.35,0,0,0-.95-1.91,4,4,0,0,0-1.54-1.17,5.16,5.16,0,0,0-2.11-.4h-4.2v-2.8h4.2a9,9,0,0,1,3.44.63,7.83,7.83,0,0,1,2.7,1.81,8.14,8.14,0,0,1,1.75,2.82,10.33,10.33,0,0,1,.62,3.66v1a10.31,10.31,0,0,1-.62,3.65,8,8,0,0,1-1.75,2.82,7.81,7.81,0,0,1-2.72,1.81A9.31,9.31,0,0,1,511.63,789.61Z"/><path class="cls-4" d="M526.77,770.83v18.78h-3.55V770.83Zm8.86,0v2.8h-9.94v-2.8Zm-1.26,7.75v2.72h-8.68v-2.72Zm1.3,8.24v2.79h-10v-2.79Z"/><path class="cls-4" d="M548,784.73a2.7,2.7,0,0,0-.16-1,2,2,0,0,0-.58-.79,5,5,0,0,0-1.18-.69,17.21,17.21,0,0,0-1.94-.72,20.12,20.12,0,0,1-2.45-.93,9.23,9.23,0,0,1-2-1.2,5,5,0,0,1-1.34-1.58,4.46,4.46,0,0,1-.47-2.08,4.56,4.56,0,0,1,.49-2.12,4.92,4.92,0,0,1,1.42-1.64,6.6,6.6,0,0,1,2.16-1.06,9.47,9.47,0,0,1,2.75-.38,8,8,0,0,1,3.62.76,5.86,5.86,0,0,1,2.37,2.07,5.32,5.32,0,0,1,.83,2.92H548a3.08,3.08,0,0,0-.37-1.54,2.53,2.53,0,0,0-1.11-1.06,3.94,3.94,0,0,0-1.86-.39,4.5,4.5,0,0,0-1.8.32,2.43,2.43,0,0,0-1.07.88,2.22,2.22,0,0,0-.36,1.24,1.79,1.79,0,0,0,.25.92,2.52,2.52,0,0,0,.74.76,5.66,5.66,0,0,0,1.21.66c.49.2,1.06.4,1.7.6a18.29,18.29,0,0,1,2.72,1,8.18,8.18,0,0,1,1.94,1.29,4.89,4.89,0,0,1,1.18,1.63,5.1,5.1,0,0,1,.39,2.05,4.78,4.78,0,0,1-.48,2.17,4.68,4.68,0,0,1-1.36,1.62,6.34,6.34,0,0,1-2.14,1,10.6,10.6,0,0,1-5.48,0,8.23,8.23,0,0,1-2.42-1.11,5.57,5.57,0,0,1-1.73-1.88,5.37,5.37,0,0,1-.64-2.68h3.56a3.53,3.53,0,0,0,.29,1.52,2.73,2.73,0,0,0,.82,1,3.63,3.63,0,0,0,1.26.57,6.42,6.42,0,0,0,1.56.18,4.61,4.61,0,0,0,1.79-.3,2.4,2.4,0,0,0,1.06-.85A2.25,2.25,0,0,0,548,784.73Z"/><path class="cls-4" d="M561.71,773.68l-5.35,15.93h-3.75l7-18.78H562Zm4.23,9v2.8H555.87v-2.8Zm.25,7-5.38-15.93-.32-2.85h2.41L570,789.61Z"/><path class="cls-4" d="M571.88,770.83h6.82a9.5,9.5,0,0,1,3.68.64,5.11,5.11,0,0,1,2.36,1.91,5.59,5.59,0,0,1,.82,3.11,5.83,5.83,0,0,1-.51,2.53,5.06,5.06,0,0,1-1.45,1.79,7.51,7.51,0,0,1-2.2,1.14l-1.11.56h-6l0-2.79h4.5a3.8,3.8,0,0,0,1.82-.39,2.68,2.68,0,0,0,1.09-1.07,3.33,3.33,0,0,0,.37-1.56,3.47,3.47,0,0,0-.37-1.63,2.45,2.45,0,0,0-1.09-1.07,4.08,4.08,0,0,0-1.86-.37h-3.28v16h-3.54Zm10.6,18.78-4.35-8.41h3.76l4.39,8.24v.18Z"/><path class="cls-4" d="M588.66,770.83h6.82a9.5,9.5,0,0,1,3.68.64,5.11,5.11,0,0,1,2.36,1.91,5.59,5.59,0,0,1,.82,3.11,5.83,5.83,0,0,1-.51,2.53,5.06,5.06,0,0,1-1.45,1.79,7.51,7.51,0,0,1-2.2,1.14l-1.11.56h-6l0-2.79h4.5a3.8,3.8,0,0,0,1.82-.39,2.68,2.68,0,0,0,1.09-1.07,3.62,3.62,0,0,0,0-3.19,2.45,2.45,0,0,0-1.09-1.07,4.08,4.08,0,0,0-1.86-.37H592.2v16h-3.54Zm10.6,18.78-4.35-8.41h3.76l4.4,8.24v.18Z"/><path class="cls-4" d="M620.65,779.74v1a11.93,11.93,0,0,1-.57,3.82,8.43,8.43,0,0,1-1.61,2.89,7.22,7.22,0,0,1-2.49,1.82,8.47,8.47,0,0,1-6.41,0,7.39,7.39,0,0,1-2.51-1.82,8.31,8.31,0,0,1-1.63-2.89,11.65,11.65,0,0,1-.58-3.82v-1a11.67,11.67,0,0,1,.58-3.83,8.24,8.24,0,0,1,1.62-2.88,7,7,0,0,1,2.5-1.83,8.44,8.44,0,0,1,6.4,0,7,7,0,0,1,2.5,1.83,8.24,8.24,0,0,1,1.62,2.88A11.94,11.94,0,0,1,620.65,779.74Zm-3.59,1v-1a11.52,11.52,0,0,0-.28-2.71,5.86,5.86,0,0,0-.84-2,3.59,3.59,0,0,0-1.37-1.21,4,4,0,0,0-1.83-.41,4,4,0,0,0-1.83.41,3.66,3.66,0,0,0-1.34,1.21,5.87,5.87,0,0,0-.85,2,11.48,11.48,0,0,0-.29,2.71v1a11.58,11.58,0,0,0,.29,2.7,5.84,5.84,0,0,0,.85,2,3.75,3.75,0,0,0,1.36,1.22,4.22,4.22,0,0,0,3.67,0,3.54,3.54,0,0,0,1.34-1.22,5.83,5.83,0,0,0,.84-2A11.61,11.61,0,0,0,617.06,780.71Z"/><path class="cls-4" d="M627.2,770.83v18.78h-3.55V770.83Zm8.37,16v2.79h-9.44v-2.79Z"/><path class="cls-4" d="M641.48,770.83v18.78h-3.55V770.83Zm8.37,16v2.79h-9.44v-2.79Z"/><path class="cls-4" d="M666.58,779.74v1a11.93,11.93,0,0,1-.57,3.82,8.43,8.43,0,0,1-1.61,2.89,7.22,7.22,0,0,1-2.49,1.82,8.47,8.47,0,0,1-6.41,0,7.26,7.26,0,0,1-2.5-1.82,8.17,8.17,0,0,1-1.64-2.89,11.65,11.65,0,0,1-.58-3.82v-1a11.67,11.67,0,0,1,.58-3.83A8.4,8.4,0,0,1,653,773a7,7,0,0,1,2.5-1.83,8.44,8.44,0,0,1,6.4,0,7,7,0,0,1,2.5,1.83,8.24,8.24,0,0,1,1.62,2.88A11.67,11.67,0,0,1,666.58,779.74Zm-3.59,1v-1a11.52,11.52,0,0,0-.28-2.71,5.86,5.86,0,0,0-.84-2,3.59,3.59,0,0,0-1.37-1.21,4,4,0,0,0-1.83-.41,3.91,3.91,0,0,0-1.82.41,3.61,3.61,0,0,0-1.35,1.21,6.08,6.08,0,0,0-.85,2,11.48,11.48,0,0,0-.29,2.71v1a11.58,11.58,0,0,0,.29,2.7,6,6,0,0,0,.85,2,3.7,3.7,0,0,0,1.37,1.22,4.2,4.2,0,0,0,3.66,0,3.64,3.64,0,0,0,1.35-1.22,6,6,0,0,0,.83-2A11.61,11.61,0,0,0,663,780.71Z"/><circle class="cls-11" cx="197.03" cy="837.18" r="173.76" transform="translate(-534.27 384.53) rotate(-45)"/><circle class="cls-4" cx="157.93" cy="837.18" r="149.29" transform="translate(-545.72 356.88) rotate(-45)"/><path class="cls-2" d="M157.93,696.54c77.56,0,140.65,63.09,140.65,140.64S235.49,977.83,157.93,977.83,17.28,914.74,17.28,837.18s63.1-140.64,140.65-140.64m0-17.29A157.94,157.94,0,1,0,315.87,837.18,157.93,157.93,0,0,0,157.93,679.25Z"/><circle class="cls-6" cx="157.93" cy="837.18" r="117.75"/><path class="cls-7" d="M0,836.53c0,.22,0,.44,0,.65a157.94,157.94,0,1,0,315.87,0c0-.21,0-.43,0-.65Z"/><rect class="cls-8" x="182.86" y="1042.39" width="707.88" height="251.7"/><polygon class="cls-8" points="187.5 1326.81 187.5 1001.31 0 1164.06 187.5 1326.81"/><circle class="cls-12" cx="855.1" cy="1168.88" r="173.76"/><polygon class="cls-7" points="0 1164.06 890.68 1168.26 890.68 1294.12 187.43 1294.12 187.43 1326.84 0 1164.06"/><circle class="cls-4" cx="894.2" cy="1168.88" r="149.29" transform="translate(-564.62 974.65) rotate(-45)"/><path class="cls-8" d="M894.2,1028.23c77.56,0,140.65,63.1,140.65,140.65s-63.09,140.65-140.65,140.65-140.65-63.09-140.65-140.65,63.1-140.65,140.65-140.65m0-17.28a157.93,157.93,0,1,0,157.94,157.93A157.93,157.93,0,0,0,894.2,1011Z"/><circle class="cls-6" cx="894.2" cy="1168.88" r="117.75"/><path class="cls-10" d="M1052.12,1168.26c0,.22,0,.43,0,.65a157.94,157.94,0,0,1-315.87,0c0-.22,0-.43,0-.65Z"/><path class="cls-6" d="M326.9,1102.53v18.78h-3.56l-8-13v13h-3.55v-18.78h3.55l8,13v-13Z"/><path class="cls-6" d="M345.71,1111.44v1a12,12,0,0,1-.57,3.82,8.39,8.39,0,0,1-1.61,2.88,7.1,7.1,0,0,1-2.49,1.82,8.47,8.47,0,0,1-6.41,0,7.26,7.26,0,0,1-2.51-1.82,8.26,8.26,0,0,1-1.63-2.88,11.7,11.7,0,0,1-.58-3.82v-1a11.63,11.63,0,0,1,.58-3.83,8.38,8.38,0,0,1,1.62-2.89,7,7,0,0,1,2.5-1.82,8.44,8.44,0,0,1,6.4,0,7.13,7.13,0,0,1,2.5,1.82,8.38,8.38,0,0,1,1.62,2.89A11.63,11.63,0,0,1,345.71,1111.44Zm-3.59,1v-1a11.49,11.49,0,0,0-.28-2.7,5.92,5.92,0,0,0-.84-2,3.65,3.65,0,0,0-1.37-1.2,4,4,0,0,0-1.83-.41,3.91,3.91,0,0,0-1.82.41,3.67,3.67,0,0,0-1.35,1.2,6.14,6.14,0,0,0-.85,2,11.46,11.46,0,0,0-.29,2.7v1a11.43,11.43,0,0,0,.29,2.69,6.2,6.2,0,0,0,.85,2,3.75,3.75,0,0,0,1.36,1.22,4.31,4.31,0,0,0,3.67,0,3.64,3.64,0,0,0,1.35-1.22,6.19,6.19,0,0,0,.83-2A11.46,11.46,0,0,0,342.12,1112.41Z"/><path class="cls-6" d="M350.71,1102.53l4.66,15.1.67,3.68h-2.65l-6.6-18.78Zm4.32,15.1,4.68-15.1h3.94L357,1121.31H354.4Z"/><path class="cls-6" d="M369.13,1102.53v18.78h-3.55v-18.78Zm8.86,0v2.79h-9.94v-2.79Zm-1.26,7.75V1113h-8.68v-2.72Zm1.3,8.24v2.79h-10v-2.79Z"/><path class="cls-6" d="M384,1102.53v18.78h-3.55v-18.78Zm2.06,18.78h-4l0-2.79h4a4.88,4.88,0,0,0,2.75-.73,4.53,4.53,0,0,0,1.68-2.1,8.83,8.83,0,0,0,.56-3.3v-1a9.4,9.4,0,0,0-.32-2.62,5.11,5.11,0,0,0-.95-1.91,4,4,0,0,0-1.54-1.18,5.31,5.31,0,0,0-2.1-.4H382v-2.79h4.21a9.12,9.12,0,0,1,3.44.63,7.74,7.74,0,0,1,2.69,1.81,8.17,8.17,0,0,1,1.76,2.82,10.33,10.33,0,0,1,.61,3.66v.94a10.41,10.41,0,0,1-.61,3.66,8,8,0,0,1-1.76,2.82,7.75,7.75,0,0,1-2.71,1.8A9.36,9.36,0,0,1,386.09,1121.31Z"/><path class="cls-6" d="M404.89,1105.38l-5.36,15.93h-3.75l7-18.78h2.39Zm4.23,8.95v2.8H399v-2.8Zm.24,7L404,1105.38l-.32-2.85h2.41l7.06,18.78Z"/><path class="cls-6" d="M418.6,1102.53v18.78h-3.55v-18.78Zm2.06,18.78h-4.05l0-2.79h4a4.88,4.88,0,0,0,2.75-.73,4.46,4.46,0,0,0,1.67-2.1,8.63,8.63,0,0,0,.57-3.3v-1a9.79,9.79,0,0,0-.32-2.62,5.27,5.27,0,0,0-.95-1.91,4.05,4.05,0,0,0-1.54-1.18,5.31,5.31,0,0,0-2.1-.4h-4.21v-2.79h4.21a9,9,0,0,1,3.43.63,7.69,7.69,0,0,1,2.7,1.81,8,8,0,0,1,1.75,2.82,10.33,10.33,0,0,1,.62,3.66v.94a10.41,10.41,0,0,1-.62,3.66,7.72,7.72,0,0,1-4.46,4.62A9.36,9.36,0,0,1,420.66,1121.31Z"/><path class="cls-6" d="M435.8,1102.53v18.78h-3.54v-18.78Zm8.86,0v2.79h-9.94v-2.79Zm-1.26,7.75V1113h-8.68v-2.72Zm1.3,8.24v2.79h-10v-2.79Z"/><path class="cls-6" d="M457,1116.43a2.67,2.67,0,0,0-.16-1,2,2,0,0,0-.58-.79,5.07,5.07,0,0,0-1.17-.7c-.51-.22-1.15-.46-1.94-.71a23.4,23.4,0,0,1-2.46-.93,9.64,9.64,0,0,1-2-1.2,5,5,0,0,1-1.33-1.58,4.34,4.34,0,0,1-.48-2.08,4.54,4.54,0,0,1,.5-2.12,4.79,4.79,0,0,1,1.41-1.64,6.82,6.82,0,0,1,2.16-1.07,9.53,9.53,0,0,1,2.75-.37,8,8,0,0,1,3.62.76,5.84,5.84,0,0,1,2.37,2.06,5.31,5.31,0,0,1,.84,2.93H457a3.14,3.14,0,0,0-.37-1.55,2.54,2.54,0,0,0-1.1-1,4,4,0,0,0-1.87-.39,4.5,4.5,0,0,0-1.8.32,2.49,2.49,0,0,0-1.07.88,2.3,2.3,0,0,0-.35,1.24,1.78,1.78,0,0,0,.24.92,2.78,2.78,0,0,0,.74.76,6,6,0,0,0,1.22.66c.48.2,1.05.4,1.69.6a18.29,18.29,0,0,1,2.72,1,8.25,8.25,0,0,1,2,1.29,4.79,4.79,0,0,1,1.17,1.62,5.17,5.17,0,0,1,.39,2.05,4.78,4.78,0,0,1-.48,2.17,4.52,4.52,0,0,1-1.36,1.63,6.75,6.75,0,0,1-2.14,1,10.89,10.89,0,0,1-5.48,0,8.35,8.35,0,0,1-2.42-1.11,5.69,5.69,0,0,1-1.73-1.89,5.33,5.33,0,0,1-.64-2.67h3.56a3.6,3.6,0,0,0,.29,1.51,2.52,2.52,0,0,0,.83,1,3.51,3.51,0,0,0,1.25.58,6.42,6.42,0,0,0,1.56.18,4.56,4.56,0,0,0,1.79-.31,2.32,2.32,0,0,0,1.06-.84A2.27,2.27,0,0,0,457,1116.43Z"/><path class="cls-6" d="M485.05,1111.44v1a12,12,0,0,1-.57,3.82,8.23,8.23,0,0,1-1.61,2.88,7.1,7.1,0,0,1-2.49,1.82,8.44,8.44,0,0,1-6.4,0,7.08,7.08,0,0,1-2.51-1.82,8.28,8.28,0,0,1-1.64-2.88,11.7,11.7,0,0,1-.58-3.82v-1a11.63,11.63,0,0,1,.58-3.83,8.72,8.72,0,0,1,1.62-2.89,7,7,0,0,1,2.5-1.82,8.44,8.44,0,0,1,6.4,0,7,7,0,0,1,2.5,1.82,8.57,8.57,0,0,1,1.63,2.89A11.91,11.91,0,0,1,485.05,1111.44Zm-3.59,1v-1a11.49,11.49,0,0,0-.28-2.7,5.92,5.92,0,0,0-.84-2,3.58,3.58,0,0,0-1.37-1.2,4,4,0,0,0-1.83-.41,3.94,3.94,0,0,0-1.82.41,3.67,3.67,0,0,0-1.35,1.2,6.14,6.14,0,0,0-.85,2,11.46,11.46,0,0,0-.29,2.7v1a11.43,11.43,0,0,0,.29,2.69,6,6,0,0,0,.86,2,3.6,3.6,0,0,0,1.36,1.22,4.29,4.29,0,0,0,3.66,0,3.64,3.64,0,0,0,1.35-1.22,6.19,6.19,0,0,0,.83-2A11.46,11.46,0,0,0,481.46,1112.41Z"/><path class="cls-6" d="M498.4,1102.53v18.78h-3.55v-18.78Z"/><path class="cls-6" d="M517.31,1102.53v18.78h-3.56l-8-13v13h-3.54v-18.78h3.54l8,13v-13Z"/><path class="cls-6" d="M531.9,1115.13h3.54a7.22,7.22,0,0,1-1,3.33,6.19,6.19,0,0,1-2.52,2.28,8.45,8.45,0,0,1-3.9.82,7.71,7.71,0,0,1-3.18-.62,6.83,6.83,0,0,1-2.42-1.79,8.13,8.13,0,0,1-1.52-2.82,11.79,11.79,0,0,1-.53-3.69v-1.43a12,12,0,0,1,.54-3.71,8,8,0,0,1,1.55-2.81,6.89,6.89,0,0,1,2.44-1.8,7.8,7.8,0,0,1,3.19-.64,8.25,8.25,0,0,1,3.89.85,6.18,6.18,0,0,1,2.46,2.32,8,8,0,0,1,1.06,3.37h-3.55a5.69,5.69,0,0,0-.51-2,2.78,2.78,0,0,0-1.21-1.26,4.64,4.64,0,0,0-2.14-.43,4,4,0,0,0-1.81.39,3.4,3.4,0,0,0-1.3,1.15,5.74,5.74,0,0,0-.77,1.91,12.16,12.16,0,0,0-.26,2.64v1.46a13.34,13.34,0,0,0,.23,2.57,6,6,0,0,0,.73,1.92,3.37,3.37,0,0,0,1.26,1.2,4,4,0,0,0,1.85.41,4.82,4.82,0,0,0,2.12-.41,2.89,2.89,0,0,0,1.25-1.22A5.2,5.2,0,0,0,531.9,1115.13Z"/><path class="cls-6" d="M542,1102.53v18.78h-3.55v-18.78Z"/><path class="cls-6" d="M549.32,1102.53v18.78h-3.54v-18.78Zm2.07,18.78h-4l0-2.79h4a4.85,4.85,0,0,0,2.74-.73,4.53,4.53,0,0,0,1.68-2.1,8.63,8.63,0,0,0,.57-3.3v-1a9.79,9.79,0,0,0-.32-2.62,5.43,5.43,0,0,0-.95-1.91,4.05,4.05,0,0,0-1.54-1.18,5.36,5.36,0,0,0-2.11-.4h-4.2v-2.79h4.2a9,9,0,0,1,3.44.63,7.69,7.69,0,0,1,2.7,1.81,8.14,8.14,0,0,1,1.75,2.82,10.33,10.33,0,0,1,.61,3.66v.94a10.41,10.41,0,0,1-.61,3.66,8,8,0,0,1-1.75,2.82,7.79,7.79,0,0,1-2.72,1.8A9.31,9.31,0,0,1,551.39,1121.31Z"/><path class="cls-6" d="M566.53,1102.53v18.78H563v-18.78Zm8.86,0v2.79h-9.94v-2.79Zm-1.26,7.75V1113h-8.68v-2.72Zm1.3,8.24v2.79h-10v-2.79Z"/><path class="cls-6" d="M593,1102.53v18.78h-3.56l-8-13v13h-3.55v-18.78h3.55l8,13v-13Z"/><path class="cls-6" d="M610.09,1102.53v2.79H595v-2.79Zm-5.83,0v18.78h-3.54v-18.78Z"/><path class="cls-6" d="M616,1102.53v18.78h-3.54v-18.78Zm8.86,0v2.79H614.9v-2.79Zm-1.26,7.75V1113H614.9v-2.72Zm1.3,8.24v2.79h-10v-2.79Z"/><path class="cls-6" d="M637.16,1116.43a2.67,2.67,0,0,0-.16-1,2,2,0,0,0-.58-.79,5.07,5.07,0,0,0-1.17-.7c-.51-.22-1.15-.46-1.94-.71a23.4,23.4,0,0,1-2.46-.93,9.64,9.64,0,0,1-2-1.2,5,5,0,0,1-1.33-1.58,4.34,4.34,0,0,1-.48-2.08,4.42,4.42,0,0,1,.5-2.12,4.79,4.79,0,0,1,1.41-1.64,6.82,6.82,0,0,1,2.16-1.07,9.53,9.53,0,0,1,2.75-.37,8,8,0,0,1,3.62.76,5.84,5.84,0,0,1,2.37,2.06,5.31,5.31,0,0,1,.84,2.93h-3.54a3.14,3.14,0,0,0-.37-1.55,2.51,2.51,0,0,0-1.11-1,3.94,3.94,0,0,0-1.86-.39,4.5,4.5,0,0,0-1.8.32,2.43,2.43,0,0,0-1.07.88,2.21,2.21,0,0,0-.35,1.24,1.78,1.78,0,0,0,.24.92,2.64,2.64,0,0,0,.74.76,6,6,0,0,0,1.22.66c.48.2,1.05.4,1.69.6a18.29,18.29,0,0,1,2.72,1,8.18,8.18,0,0,1,1.94,1.29,4.82,4.82,0,0,1,1.18,1.62,5.17,5.17,0,0,1,.39,2.05,4.78,4.78,0,0,1-.48,2.17,4.52,4.52,0,0,1-1.36,1.63,6.75,6.75,0,0,1-2.14,1,10.89,10.89,0,0,1-5.48,0,8.23,8.23,0,0,1-2.42-1.11,5.69,5.69,0,0,1-1.73-1.89,5.33,5.33,0,0,1-.64-2.67H630a3.6,3.6,0,0,0,.29,1.51,2.58,2.58,0,0,0,.82,1,3.65,3.65,0,0,0,1.26.58,6.42,6.42,0,0,0,1.56.18,4.6,4.6,0,0,0,1.79-.31,2.32,2.32,0,0,0,1.06-.84A2.27,2.27,0,0,0,637.16,1116.43Z"/><rect class="cls-2" x="161.39" y="1374.12" width="707.88" height="251.7"/><polygon class="cls-2" points="864.64 1658.54 864.64 1333.04 1052.14 1495.79 864.64 1658.54"/><polygon class="cls-3" points="1052.14 1495.79 161.39 1499.95 161.39 1625.81 864.64 1625.81 864.64 1658.54 1052.14 1495.79"/><path class="cls-4" d="M361.55,1446.85h3.55a7.22,7.22,0,0,1-1,3.34,6.31,6.31,0,0,1-2.52,2.27,8.49,8.49,0,0,1-3.91.83,7.71,7.71,0,0,1-3.18-.63,6.64,6.64,0,0,1-2.41-1.79,8.1,8.1,0,0,1-1.53-2.81,12.15,12.15,0,0,1-.53-3.7v-1.43a11.55,11.55,0,0,1,.55-3.7,8,8,0,0,1,1.55-2.82,6.81,6.81,0,0,1,2.44-1.8,7.8,7.8,0,0,1,3.19-.63,8.06,8.06,0,0,1,3.88.85,6.19,6.19,0,0,1,2.47,2.31,8,8,0,0,1,1.05,3.38h-3.54a5.69,5.69,0,0,0-.51-2,2.81,2.81,0,0,0-1.22-1.26,4.45,4.45,0,0,0-2.13-.43,4.12,4.12,0,0,0-1.81.38,3.43,3.43,0,0,0-1.3,1.16,5.66,5.66,0,0,0-.77,1.91,12.16,12.16,0,0,0-.26,2.64v1.45a13.26,13.26,0,0,0,.23,2.57,6,6,0,0,0,.72,1.92,3.24,3.24,0,0,0,1.27,1.2,3.79,3.79,0,0,0,1.84.41,4.63,4.63,0,0,0,2.12-.41,2.84,2.84,0,0,0,1.26-1.21A5.26,5.26,0,0,0,361.55,1446.85Z"/><path class="cls-4" d="M383,1443.16v1a12.29,12.29,0,0,1-.56,3.83,8.24,8.24,0,0,1-1.62,2.88,6.92,6.92,0,0,1-2.49,1.82,8.44,8.44,0,0,1-6.4,0,7.17,7.17,0,0,1-2.51-1.82,8.44,8.44,0,0,1-1.64-2.88,12,12,0,0,1-.58-3.83v-1a12,12,0,0,1,.58-3.83,8.61,8.61,0,0,1,1.63-2.88,7,7,0,0,1,2.49-1.82,8.35,8.35,0,0,1,6.41,0,7.1,7.1,0,0,1,2.49,1.82,8.45,8.45,0,0,1,1.63,2.88A12,12,0,0,1,383,1443.16Zm-3.58,1v-1a11.34,11.34,0,0,0-.29-2.7,5.83,5.83,0,0,0-.84-2,3.65,3.65,0,0,0-1.36-1.21,4.06,4.06,0,0,0-1.83-.4,4,4,0,0,0-1.83.4,3.7,3.7,0,0,0-1.35,1.21,5.83,5.83,0,0,0-.84,2,10.84,10.84,0,0,0-.29,2.7v1a11,11,0,0,0,.29,2.7,6,6,0,0,0,.85,2,3.85,3.85,0,0,0,1.36,1.22,4.29,4.29,0,0,0,3.66,0,3.66,3.66,0,0,0,1.35-1.22,6,6,0,0,0,.83-2A11.52,11.52,0,0,0,379.46,1444.13Z"/><path class="cls-4" d="M401.14,1434.25V1453h-3.56l-8-13v13h-3.55v-18.78h3.55l8,13v-13Z"/><path class="cls-4" d="M415.73,1446.85h3.54a7.22,7.22,0,0,1-1,3.34,6.24,6.24,0,0,1-2.52,2.27,8.45,8.45,0,0,1-3.9.83,7.71,7.71,0,0,1-3.18-.63,6.56,6.56,0,0,1-2.41-1.79,7.94,7.94,0,0,1-1.53-2.81,11.85,11.85,0,0,1-.53-3.7v-1.43a11.84,11.84,0,0,1,.54-3.7,8.18,8.18,0,0,1,1.55-2.82,6.89,6.89,0,0,1,2.44-1.8,7.83,7.83,0,0,1,3.19-.63,8.13,8.13,0,0,1,3.89.85,6.23,6.23,0,0,1,2.46,2.31,8,8,0,0,1,1.06,3.38h-3.55a5.69,5.69,0,0,0-.51-2,2.78,2.78,0,0,0-1.21-1.26,4.52,4.52,0,0,0-2.14-.43,4.15,4.15,0,0,0-1.81.38,3.33,3.33,0,0,0-1.29,1.16,5.46,5.46,0,0,0-.78,1.91,12.16,12.16,0,0,0-.26,2.64v1.45a12.48,12.48,0,0,0,.24,2.57,5.57,5.57,0,0,0,.72,1.92,3.22,3.22,0,0,0,1.26,1.2,3.83,3.83,0,0,0,1.85.41,4.68,4.68,0,0,0,2.12-.41,2.86,2.86,0,0,0,1.25-1.21A5.26,5.26,0,0,0,415.73,1446.85Z"/><path class="cls-4" d="M425.56,1434.25V1453H422v-18.78Zm8.37,16V1453h-9.44v-2.78Z"/><path class="cls-4" d="M446,1434.25h3.55v12.47a6.6,6.6,0,0,1-.93,3.62,5.84,5.84,0,0,1-2.53,2.21,8.64,8.64,0,0,1-3.64.74,8.75,8.75,0,0,1-3.67-.74,5.73,5.73,0,0,1-2.53-2.21,6.69,6.69,0,0,1-.92-3.62v-12.47h3.55v12.47a4.49,4.49,0,0,0,.44,2.15,2.69,2.69,0,0,0,1.24,1.23,4.69,4.69,0,0,0,3.79,0,2.65,2.65,0,0,0,1.22-1.23,4.62,4.62,0,0,0,.43-2.15Z"/><path class="cls-4" d="M462.77,1448.16a3,3,0,0,0-.16-1,1.86,1.86,0,0,0-.58-.78,5,5,0,0,0-1.18-.7,17.21,17.21,0,0,0-1.94-.72,19.51,19.51,0,0,1-2.45-.93,9,9,0,0,1-2-1.2,5,5,0,0,1-1.34-1.58,4.31,4.31,0,0,1-.47-2.08,4.49,4.49,0,0,1,.49-2.11,4.82,4.82,0,0,1,1.41-1.65,7,7,0,0,1,2.17-1.06,9.47,9.47,0,0,1,2.75-.38,8.15,8.15,0,0,1,3.62.76,5.76,5.76,0,0,1,2.36,2.07,5.28,5.28,0,0,1,.84,2.93h-3.53a3.12,3.12,0,0,0-.37-1.55,2.53,2.53,0,0,0-1.11-1.06,3.94,3.94,0,0,0-1.86-.39,4.32,4.32,0,0,0-1.8.33,2.3,2.3,0,0,0-1.07.87,2.25,2.25,0,0,0-.36,1.24,1.67,1.67,0,0,0,.25.92,2.6,2.6,0,0,0,.73.76,6,6,0,0,0,1.22.66c.49.2,1.05.4,1.7.6a18.84,18.84,0,0,1,2.71,1,8.05,8.05,0,0,1,1.95,1.29,4.8,4.8,0,0,1,1.57,3.68,4.78,4.78,0,0,1-.48,2.17,4.52,4.52,0,0,1-1.37,1.62,6.2,6.2,0,0,1-2.13,1,10.42,10.42,0,0,1-2.78.35,9.93,9.93,0,0,1-2.7-.37,7.75,7.75,0,0,1-2.42-1.11,5.57,5.57,0,0,1-1.73-1.88,5.34,5.34,0,0,1-.64-2.68h3.56a3.5,3.5,0,0,0,.29,1.52,2.56,2.56,0,0,0,.82,1,3.63,3.63,0,0,0,1.26.57,6.42,6.42,0,0,0,1.56.18,4.61,4.61,0,0,0,1.79-.3,2.31,2.31,0,0,0,1.05-.85A2.17,2.17,0,0,0,462.77,1448.16Z"/><path class="cls-4" d="M472.84,1434.25V1453h-3.55v-18.78Z"/><path class="cls-4" d="M491.87,1443.16v1a12,12,0,0,1-.57,3.83,8.39,8.39,0,0,1-1.61,2.88,7.1,7.1,0,0,1-2.49,1.82,8.47,8.47,0,0,1-6.41,0,7.13,7.13,0,0,1-2.5-1.82,8.12,8.12,0,0,1-1.64-2.88,11.72,11.72,0,0,1-.58-3.83v-1a11.72,11.72,0,0,1,.58-3.83,8.6,8.6,0,0,1,1.62-2.88,7,7,0,0,1,2.5-1.82,8.32,8.32,0,0,1,6.4,0,7,7,0,0,1,2.5,1.82,8.43,8.43,0,0,1,1.62,2.88A11.72,11.72,0,0,1,491.87,1443.16Zm-3.59,1v-1a11.37,11.37,0,0,0-.28-2.7,5.83,5.83,0,0,0-.84-2,3.68,3.68,0,0,0-1.37-1.21,4,4,0,0,0-1.83-.4,3.9,3.9,0,0,0-1.82.4,3.7,3.7,0,0,0-1.35,1.21,6,6,0,0,0-.85,2,11.34,11.34,0,0,0-.29,2.7v1a11.52,11.52,0,0,0,.29,2.7,6.2,6.2,0,0,0,.85,2,3.94,3.94,0,0,0,1.36,1.22,4.31,4.31,0,0,0,3.67,0,3.82,3.82,0,0,0,1.35-1.22,6.19,6.19,0,0,0,.83-2A11.55,11.55,0,0,0,488.28,1444.13Z"/><path class="cls-4" d="M510,1434.25V1453H506.4l-8-13v13h-3.55v-18.78h3.55l8,13v-13Z"/><path class="cls-4" d="M517.11,1434.25V1453h-3.55v-18.78Zm8.86,0v2.8H516v-2.8Zm-1.26,7.75v2.72H516V1442Zm1.3,8.25V1453H516v-2.78Z"/><path class="cls-4" d="M538.29,1448.16a2.72,2.72,0,0,0-.16-1,1.86,1.86,0,0,0-.58-.78,5,5,0,0,0-1.18-.7,17.21,17.21,0,0,0-1.94-.72,20.12,20.12,0,0,1-2.45-.93,9.23,9.23,0,0,1-2-1.2,5,5,0,0,1-1.34-1.58,4.43,4.43,0,0,1-.47-2.08,4.49,4.49,0,0,1,.49-2.11,4.85,4.85,0,0,1,1.42-1.65,6.81,6.81,0,0,1,2.16-1.06A9.47,9.47,0,0,1,535,1434a8.15,8.15,0,0,1,3.62.76,5.86,5.86,0,0,1,2.37,2.07,5.36,5.36,0,0,1,.83,2.93h-3.53a3.12,3.12,0,0,0-.37-1.55,2.53,2.53,0,0,0-1.11-1.06,3.94,3.94,0,0,0-1.86-.39,4.32,4.32,0,0,0-1.8.33,2.35,2.35,0,0,0-1.07.87,2.25,2.25,0,0,0-.36,1.24,1.76,1.76,0,0,0,.25.92,2.6,2.6,0,0,0,.73.76,6,6,0,0,0,1.22.66c.49.2,1.05.4,1.7.6a18.84,18.84,0,0,1,2.71,1,8.05,8.05,0,0,1,1.95,1.29,4.71,4.71,0,0,1,1.57,3.68,4.78,4.78,0,0,1-.48,2.17,4.52,4.52,0,0,1-1.37,1.62,6.2,6.2,0,0,1-2.13,1,10.42,10.42,0,0,1-2.78.35,9.93,9.93,0,0,1-2.7-.37,7.75,7.75,0,0,1-2.42-1.11,5.57,5.57,0,0,1-1.73-1.88,5.34,5.34,0,0,1-.64-2.68h3.56a3.5,3.5,0,0,0,.29,1.52,2.65,2.65,0,0,0,.82,1,3.63,3.63,0,0,0,1.26.57,6.42,6.42,0,0,0,1.56.18,4.61,4.61,0,0,0,1.79-.3,2.26,2.26,0,0,0,1-.85A2.17,2.17,0,0,0,538.29,1448.16Z"/><path class="cls-4" d="M553.34,1434.25l4.13,8.76,4.15-8.76h3.9l-6.24,11.91V1453h-3.6v-6.87l-6.26-11.91Z"/><path class="cls-4" d="M574,1434.25h6.83a9.44,9.44,0,0,1,3.67.65,5,5,0,0,1,2.36,1.9,5.59,5.59,0,0,1,.83,3.11,5.66,5.66,0,0,1-.52,2.53,4.77,4.77,0,0,1-1.45,1.79,7,7,0,0,1-2.2,1.14l-1.11.57h-6l0-2.8h4.51a3.76,3.76,0,0,0,1.81-.39,2.51,2.51,0,0,0,1.09-1.07,3.18,3.18,0,0,0,.37-1.56,3.47,3.47,0,0,0-.36-1.63,2.48,2.48,0,0,0-1.1-1.07,4,4,0,0,0-1.85-.37H577.5v16H574ZM584.56,1453l-4.35-8.41H584l4.4,8.24v.18Z"/><path class="cls-4" d="M594.28,1434.25V1453h-3.55v-18.78Zm8.86,0v2.8H593.2v-2.8Zm-1.26,7.75v2.72H593.2V1442Zm1.3,8.25V1453h-10v-2.78Z"/><path class="cls-4" d="M616.62,1446.85h3.55a7.23,7.23,0,0,1-1,3.34,6.28,6.28,0,0,1-2.51,2.27,8.52,8.52,0,0,1-3.91.83,7.71,7.71,0,0,1-3.18-.63,6.64,6.64,0,0,1-2.41-1.79,7.94,7.94,0,0,1-1.53-2.81,12.15,12.15,0,0,1-.53-3.7v-1.43a11.84,11.84,0,0,1,.54-3.7,8,8,0,0,1,1.56-2.82,6.81,6.81,0,0,1,2.44-1.8,7.8,7.8,0,0,1,3.19-.63,8.09,8.09,0,0,1,3.88.85,6.1,6.1,0,0,1,2.46,2.31,7.91,7.91,0,0,1,1.06,3.38h-3.54a5.69,5.69,0,0,0-.51-2,2.86,2.86,0,0,0-1.22-1.26,4.48,4.48,0,0,0-2.13-.43,4.12,4.12,0,0,0-1.81.38,3.36,3.36,0,0,0-1.3,1.16,5.66,5.66,0,0,0-.77,1.91,11.57,11.57,0,0,0-.26,2.64v1.45a13.26,13.26,0,0,0,.23,2.57,5.78,5.78,0,0,0,.72,1.92,3.24,3.24,0,0,0,1.27,1.2,3.79,3.79,0,0,0,1.84.41,4.63,4.63,0,0,0,2.12-.41,2.76,2.76,0,0,0,1.25-1.21A5.26,5.26,0,0,0,616.62,1446.85Z"/><path class="cls-4" d="M638.11,1443.16v1a12,12,0,0,1-.57,3.83,8.23,8.23,0,0,1-1.61,2.88,7.1,7.1,0,0,1-2.49,1.82,8.44,8.44,0,0,1-6.4,0,7.08,7.08,0,0,1-2.51-1.82,8.28,8.28,0,0,1-1.64-2.88,11.72,11.72,0,0,1-.58-3.83v-1a11.72,11.72,0,0,1,.58-3.83,8.61,8.61,0,0,1,1.63-2.88,6.92,6.92,0,0,1,2.49-1.82,8.34,8.34,0,0,1,6.41,0,7.1,7.1,0,0,1,2.49,1.82,8.61,8.61,0,0,1,1.63,2.88A12,12,0,0,1,638.11,1443.16Zm-3.58,1v-1a11.34,11.34,0,0,0-.29-2.7,5.83,5.83,0,0,0-.84-2,3.65,3.65,0,0,0-1.36-1.21,4.11,4.11,0,0,0-1.84-.4,4,4,0,0,0-1.82.4,3.7,3.7,0,0,0-1.35,1.21,5.83,5.83,0,0,0-.84,2,10.84,10.84,0,0,0-.29,2.7v1a11,11,0,0,0,.29,2.7,5.78,5.78,0,0,0,.85,2,3.85,3.85,0,0,0,1.36,1.22,4.29,4.29,0,0,0,3.66,0,3.82,3.82,0,0,0,1.35-1.22,6.19,6.19,0,0,0,.83-2A11.52,11.52,0,0,0,634.53,1444.13Z"/><path class="cls-4" d="M641.12,1434.25h3l.54,13V1453h-3.54Zm1.54,0h3.07l5.14,14.14,5.12-14.14h3.08l-7,18.78h-2.46Zm14.94,0h3V1453h-3.55v-5.79Z"/><path class="cls-4" d="M667.78,1434.25V1453h-3.55v-18.78Zm8.86,0v2.8h-9.95v-2.8Zm-1.27,7.75v2.72h-8.68V1442Zm1.31,8.25V1453h-10v-2.78Z"/><path class="cls-4" d="M694.22,1434.25V1453h-3.56l-8-13v13h-3.55v-18.78h3.55l8,13v-13Z"/><path class="cls-4" d="M701.37,1434.25V1453h-3.55v-18.78Zm2.06,18.78h-4l0-2.78h4a5,5,0,0,0,2.75-.73,4.49,4.49,0,0,0,1.67-2.11,8.54,8.54,0,0,0,.57-3.29v-1a9.84,9.84,0,0,0-.32-2.62,5.43,5.43,0,0,0-1-1.91,4.13,4.13,0,0,0-1.54-1.17,5.14,5.14,0,0,0-2.1-.4H699.3v-2.8h4.21a9,9,0,0,1,3.43.63,7.71,7.71,0,0,1,2.7,1.82,7.87,7.87,0,0,1,1.75,2.81,10.43,10.43,0,0,1,.62,3.67v.94a10.31,10.31,0,0,1-.62,3.65,7.82,7.82,0,0,1-1.75,2.82,7.68,7.68,0,0,1-2.72,1.81A9.27,9.27,0,0,1,703.43,1453Z"/><path class="cls-4" d="M722.22,1437.1,716.87,1453h-3.75l7-18.78h2.4Zm4.23,9v2.8H716.38v-2.8Zm.25,7-5.38-15.93-.32-2.85h2.41l7.05,18.78Z"/><path class="cls-4" d="M743.23,1446.85h3.55a7.22,7.22,0,0,1-1,3.34,6.31,6.31,0,0,1-2.52,2.27,8.49,8.49,0,0,1-3.91.83,7.75,7.75,0,0,1-3.18-.63,6.64,6.64,0,0,1-2.41-1.79,8.26,8.26,0,0,1-1.53-2.81,12.15,12.15,0,0,1-.53-3.7v-1.43a11.55,11.55,0,0,1,.55-3.7,8,8,0,0,1,1.55-2.82,6.81,6.81,0,0,1,2.44-1.8,7.8,7.8,0,0,1,3.19-.63,8.06,8.06,0,0,1,3.88.85,6.19,6.19,0,0,1,2.47,2.31,8,8,0,0,1,1,3.38h-3.54a5.69,5.69,0,0,0-.51-2,2.81,2.81,0,0,0-1.22-1.26,4.45,4.45,0,0,0-2.13-.43,4.12,4.12,0,0,0-1.81.38,3.43,3.43,0,0,0-1.3,1.16,5.66,5.66,0,0,0-.77,1.91,12.16,12.16,0,0,0-.26,2.64v1.45a13.26,13.26,0,0,0,.23,2.57,6,6,0,0,0,.72,1.92,3.24,3.24,0,0,0,1.27,1.2,3.79,3.79,0,0,0,1.84.41,4.63,4.63,0,0,0,2.12-.41,2.84,2.84,0,0,0,1.26-1.21A5.26,5.26,0,0,0,743.23,1446.85Z"/><path class="cls-4" d="M753.29,1434.25V1453h-3.54v-18.78Z"/><path class="cls-4" d="M772.32,1443.16v1a12,12,0,0,1-.57,3.83,8.23,8.23,0,0,1-1.61,2.88,7.1,7.1,0,0,1-2.49,1.82,8.44,8.44,0,0,1-6.4,0,7.08,7.08,0,0,1-2.51-1.82,8.28,8.28,0,0,1-1.64-2.88,11.72,11.72,0,0,1-.58-3.83v-1a11.72,11.72,0,0,1,.58-3.83,8.61,8.61,0,0,1,1.63-2.88,6.92,6.92,0,0,1,2.49-1.82,8.32,8.32,0,0,1,6.4,0,7,7,0,0,1,2.5,1.82,8.61,8.61,0,0,1,1.63,2.88A12,12,0,0,1,772.32,1443.16Zm-3.59,1v-1a11.37,11.37,0,0,0-.28-2.7,5.83,5.83,0,0,0-.84-2,3.65,3.65,0,0,0-1.36-1.21,4.11,4.11,0,0,0-1.84-.4,4,4,0,0,0-1.82.4,3.7,3.7,0,0,0-1.35,1.21,5.83,5.83,0,0,0-.84,2,10.81,10.81,0,0,0-.3,2.7v1a11,11,0,0,0,.3,2.7,5.78,5.78,0,0,0,.85,2,3.77,3.77,0,0,0,1.36,1.22,4.29,4.29,0,0,0,3.66,0,3.82,3.82,0,0,0,1.35-1.22,6.19,6.19,0,0,0,.83-2A11.55,11.55,0,0,0,768.73,1444.13Z"/><path class="cls-4" d="M790.42,1434.25V1453h-3.56l-8-13v13h-3.54v-18.78h3.54l8,13v-13Z"/><path class="cls-4" d="M797.56,1434.25V1453H794v-18.78Zm8.86,0v2.8h-9.94v-2.8Zm-1.26,7.75v2.72h-8.68V1442Zm1.3,8.25V1453h-10v-2.78Z"/><path class="cls-4" d="M818.74,1448.16a2.72,2.72,0,0,0-.16-1,1.86,1.86,0,0,0-.58-.78,5.07,5.07,0,0,0-1.17-.7,18,18,0,0,0-1.94-.72,19.67,19.67,0,0,1-2.46-.93,9.23,9.23,0,0,1-2-1.2,4.86,4.86,0,0,1-1.33-1.58,4.32,4.32,0,0,1-.48-2.08,4.5,4.5,0,0,1,.5-2.11,4.82,4.82,0,0,1,1.41-1.65,6.81,6.81,0,0,1,2.16-1.06,9.52,9.52,0,0,1,2.75-.38,8.12,8.12,0,0,1,3.62.76,5.86,5.86,0,0,1,2.37,2.07,5.28,5.28,0,0,1,.84,2.93h-3.54a3.12,3.12,0,0,0-.37-1.55,2.56,2.56,0,0,0-1.1-1.06,4,4,0,0,0-1.87-.39,4.32,4.32,0,0,0-1.8.33,2.35,2.35,0,0,0-1.07.87,2.24,2.24,0,0,0-.35,1.24,1.75,1.75,0,0,0,.24.92,2.52,2.52,0,0,0,.74.76,5.52,5.52,0,0,0,1.22.66c.48.2,1,.4,1.69.6a19.46,19.46,0,0,1,2.72,1,8,8,0,0,1,1.94,1.29,4.82,4.82,0,0,1,1.18,1.63,5.1,5.1,0,0,1,.39,2.05,4.78,4.78,0,0,1-.48,2.17,4.49,4.49,0,0,1-1.36,1.62,6.34,6.34,0,0,1-2.14,1,10.36,10.36,0,0,1-2.78.35,9.93,9.93,0,0,1-2.7-.37,7.75,7.75,0,0,1-2.42-1.11,5.57,5.57,0,0,1-1.73-1.88,5.34,5.34,0,0,1-.64-2.68h3.56a3.65,3.65,0,0,0,.29,1.52,2.59,2.59,0,0,0,.83,1,3.5,3.5,0,0,0,1.25.57,6.42,6.42,0,0,0,1.56.18,4.58,4.58,0,0,0,1.79-.3,2.34,2.34,0,0,0,1.06-.85A2.24,2.24,0,0,0,818.74,1448.16Z"/><circle class="cls-13" cx="197.03" cy="1500.61" r="173.76" transform="translate(-1003.38 578.84) rotate(-45)"/><circle class="cls-4" cx="157.93" cy="1500.61" r="149.29" transform="translate(-1014.83 551.19) rotate(-45)"/><path class="cls-2" d="M157.93,1360c77.56,0,140.65,63.09,140.65,140.65s-63.09,140.65-140.65,140.65-140.65-63.1-140.65-140.65S80.38,1360,157.93,1360m0-17.29a157.94,157.94,0,1,0,157.94,157.94,157.94,157.94,0,0,0-157.94-157.94Z"/><circle class="cls-6" cx="157.93" cy="1500.61" r="117.75"/><path class="cls-7" d="M0,1500c0,.22,0,.44,0,.66a157.94,157.94,0,0,0,315.87,0c0-.22,0-.44,0-.66Z"/><rect class="cls-8" x="182.86" y="1705.81" width="707.88" height="251.7"/><polygon class="cls-8" points="187.5 1990.24 187.5 1664.73 0 1827.48 187.5 1990.24"/><circle class="cls-14" cx="855.1" cy="1832.3" r="173.76"/><polygon class="cls-7" points="0 1827.48 890.68 1831.68 890.68 1957.54 187.43 1957.54 187.43 1990.27 0 1827.48"/><circle class="cls-4" cx="894.2" cy="1832.3" r="149.29" transform="translate(-1033.73 1168.97) rotate(-45)"/><path class="cls-8" d="M894.2,1691.65c77.56,0,140.65,63.1,140.65,140.65S971.76,1973,894.2,1973s-140.65-63.09-140.65-140.65,63.1-140.65,140.65-140.65m0-17.28a157.94,157.94,0,1,0,157.94,157.93A157.93,157.93,0,0,0,894.2,1674.37Z"/><circle class="cls-6" cx="894.2" cy="1832.3" r="117.75"/><path class="cls-10" d="M1052.12,1831.68c0,.22,0,.43,0,.65a157.94,157.94,0,1,1-315.87,0c0-.22,0-.43,0-.65Z"/><path class="cls-6" d="M459.12,1768.8l-5.35,15.93H450l7-18.78h2.4Zm4.23,9v2.8H453.28v-2.8Zm.25,7-5.38-15.93-.33-2.85h2.42l7.05,18.78Z"/><path class="cls-6" d="M484.37,1766v18.78h-3.56l-8-13v13h-3.55V1766h3.55l8,13v-13Z"/><path class="cls-6" d="M491.52,1766v18.78H488V1766Zm8.86,0v2.8h-9.94V1766Zm-1.26,7.75v2.72h-8.68v-2.72Zm1.3,8.24v2.79h-10v-2.79Z"/><path class="cls-6" d="M505.7,1766l3.75,6.69,3.77-6.69h4.07l-5.57,9.31,5.71,9.47h-4.11l-3.87-6.83-3.86,6.83h-4.12l5.71-9.47-5.57-9.31Z"/><path class="cls-6" d="M534.49,1774.86v1a11.93,11.93,0,0,1-.57,3.82,8.53,8.53,0,0,1-1.61,2.89,7.07,7.07,0,0,1-2.49,1.81,8.34,8.34,0,0,1-6.41,0,7.14,7.14,0,0,1-2.51-1.81,8.4,8.4,0,0,1-1.63-2.89,11.65,11.65,0,0,1-.59-3.82v-1a11.67,11.67,0,0,1,.59-3.83,8.24,8.24,0,0,1,1.62-2.88,7,7,0,0,1,2.5-1.83,8.44,8.44,0,0,1,6.4,0,7,7,0,0,1,2.5,1.83,8.24,8.24,0,0,1,1.62,2.88A11.94,11.94,0,0,1,534.49,1774.86Zm-3.59,1v-1a11.49,11.49,0,0,0-.28-2.7,5.77,5.77,0,0,0-.84-2,3.59,3.59,0,0,0-1.37-1.21,4,4,0,0,0-1.83-.41,4,4,0,0,0-1.83.41,3.59,3.59,0,0,0-1.34,1.21,5.78,5.78,0,0,0-.85,2,11.46,11.46,0,0,0-.29,2.7v1a11.43,11.43,0,0,0,.29,2.69,5.81,5.81,0,0,0,.85,2,3.75,3.75,0,0,0,1.36,1.22,4.31,4.31,0,0,0,3.67,0,3.54,3.54,0,0,0,1.34-1.22,5.8,5.8,0,0,0,.84-2A11.46,11.46,0,0,0,530.9,1775.83Z"/><path class="cls-6" d="M547.32,1779.85a2.7,2.7,0,0,0-.16-1,2,2,0,0,0-.58-.79,5,5,0,0,0-1.18-.7,19.7,19.7,0,0,0-1.94-.71,24.07,24.07,0,0,1-2.45-.93,9.23,9.23,0,0,1-2-1.2,5.14,5.14,0,0,1-1.34-1.58,4.46,4.46,0,0,1-.47-2.08,4.53,4.53,0,0,1,.49-2.12,4.92,4.92,0,0,1,1.42-1.64,6.82,6.82,0,0,1,2.16-1.07,9.48,9.48,0,0,1,2.75-.37,8,8,0,0,1,3.62.76,5.91,5.91,0,0,1,2.37,2.06,5.38,5.38,0,0,1,.83,2.93h-3.53a3.14,3.14,0,0,0-.37-1.55,2.51,2.51,0,0,0-1.11-1.05,3.94,3.94,0,0,0-1.86-.39,4.5,4.5,0,0,0-1.8.32,2.43,2.43,0,0,0-1.07.88,2.22,2.22,0,0,0-.36,1.24,1.79,1.79,0,0,0,.25.92,2.73,2.73,0,0,0,.73.76,6,6,0,0,0,1.22.66c.49.2,1,.4,1.7.6a17.73,17.73,0,0,1,2.71,1,8.05,8.05,0,0,1,1.95,1.29,4.89,4.89,0,0,1,1.18,1.63,5.1,5.1,0,0,1,.39,2,4.73,4.73,0,0,1-.48,2.16,4.63,4.63,0,0,1-1.36,1.63,6.34,6.34,0,0,1-2.14,1,10.6,10.6,0,0,1-5.48,0,8.23,8.23,0,0,1-2.42-1.11,5.66,5.66,0,0,1-1.73-1.88,5.39,5.39,0,0,1-.64-2.68h3.56a3.45,3.45,0,0,0,.29,1.51,2.58,2.58,0,0,0,.82,1,3.47,3.47,0,0,0,1.26.58,6.42,6.42,0,0,0,1.56.18,4.42,4.42,0,0,0,1.79-.31,2.32,2.32,0,0,0,1.06-.84A2.25,2.25,0,0,0,547.32,1779.85Z"/></g></g></g></svg>