<svg xmlns="http://www.w3.org/2000/svg" viewBox="0 0 196.67 196.67"><defs><style>.cls-1{fill:#6c2911;}.cls-2{fill:#fff;}.cls-3{fill:#c5875e;}</style></defs><g id="Capa_2" data-name="Capa 2"><g id="Capa_1-2" data-name="Capa 1"><circle class="cls-1" cx="98.33" cy="98.33" r="98.33"/><circle class="cls-2" cx="98.33" cy="98.33" r="84.05"/><path class="cls-3" d="M134,129c0,5.74,0,10.73,0,15.71,0,3.45-1.38,4.85-4.81,4.85H57c-3.28,0-4.71-1.42-4.71-4.7q0-47.69,0-95.35c0-3.42,1.39-4.74,4.88-4.76,3,0,6-.12,8.93,0,2.3.11,3.39-1.08,4-3,.23-.77.37-1.57.56-2.35.88-3.53,2.71-5.31,6.37-5.5a11.91,11.91,0,0,0,7.26-2.65c2.7-2.14,5.42-2.09,8.19.08a11.26,11.26,0,0,0,6.79,2.54c4,.17,5.79,1.89,6.79,5.92a18.48,18.48,0,0,0,.7,2.55c.62,1.5,1.57,2.63,3.43,2.4.16,0,.33,0,.48,0,6.93-1.22,11.73,1.73,16.61,6.63s7.48,9.73,6.87,16.81c-.63,7.27-.11,14.63-.17,22A3.3,3.3,0,0,0,135.26,93c8.42,7.09,10.71,17.81,6,27.91-.59,1.24-.52,2,.53,2.87,1.5,1.24,2.57,3.08,5,2.7.94-.14,1.75.68,2.45,1.37,3.52,3.42,7.07,6.81,10.57,10.25,2.39,2.34,2.38,4.2.05,6.65-1.11,1.16-2.21,2.34-3.38,3.45-1.95,1.84-3.83,1.93-5.75.11-3.81-3.59-7.53-7.26-11.28-10.9a2.73,2.73,0,0,1-1.14-2.06C138.64,132.22,136,131.29,134,129ZM64.82,48.62c-2.23,0-4.32.15-6.39,0s-2.34.65-2.33,2.45c.06,14.88,0,29.77,0,44.66q0,23.9,0,47.8c0,1.25-.17,2.25,1.77,2.24q35.25-.1,70.5,0c1.43,0,1.74-.52,1.71-1.82-.07-3.45-.09-6.92,0-10.38,0-1.48-.33-1.76-1.73-1.24a21.87,21.87,0,0,1-15.57-.06,9.34,9.34,0,0,0-3.31-.46H83.92c-1.46,0-3.2.2-3.14-2s1.79-1.91,3.25-1.91H105.4a24.26,24.26,0,0,1-4.52-5.71,2.49,2.49,0,0,0-2.65-1.52c-4.83.08-9.66,0-14.49,0-1.39,0-3,.08-3-1.9s1.52-2,3-2c4.18,0,8.37,0,12.55,0,.67,0,2.18.9,2-1-.13-1.38-.15-2.66-2.25-2.58-4.26.16-8.53.06-12.79,0-1.32,0-2.49-.38-2.48-2s1.21-1.88,2.52-1.88h9.9c4.21,0,4.21,0,5.25-4.14a5.52,5.52,0,0,1,.32-1.16c.73-1.5.26-1.94-1.35-1.91-4.59.08-9.17,0-13.76,0-1.46,0-2.92-.16-2.87-2.07s1.5-1.81,2.83-1.81c5.07,0,10.15-.19,15.21.08,3,.15,3.88-1.64,5.15-3.8H99.53c-5.47,0-10.94,0-16.42,0-1.27,0-2.29-.39-2.35-1.82s1-2,2.38-2.06h1.45c6.11,0,12.23,0,18.34,0,3.61,0,7.22.23,10.53-1.72a9.27,9.27,0,0,1,2.78-.75c4.68-1.06,9.22-.29,13.84,1.41,0-9.2,0-18.13,0-27.06,0-1.1-.48-1.35-1.46-1.34-2.57,0-5.15.06-7.73,0-2.33-.05-3.35-1.07-3.4-3.42s0-5,0-7.48c0-.54.21-1.45-.36-1.52a16.11,16.11,0,0,0-4.8-.05c-1.2.22-.2,1.47-.35,2.24a8.9,8.9,0,0,1-1,3.2,8.75,8.75,0,0,0-1.28,6.66c.56,2.9-.22,5.47-2.88,7.12-1.06.65-.54,1.33-.24,2,1.2,2.81,2.42,5.61,3.63,8.41.39.9.79,1.81,0,2.71a2.12,2.12,0,0,1-2.63.56c-3.88-1.58-6.68-.72-8.2,3.42a2.21,2.21,0,0,1-2.38,1.68c-1.12-.15-1.51-1-1.89-2-1.07-2.51-2.24-5-3.23-7.53-.68-1.74-2.22-1.71-3.58-1.93s-1.94.74-2.45,1.87c-1.43,3.23-3,6.41-4.47,9.62-.47,1-.84,2.2-2.19,2.3s-1.86-1-2.44-2c-2.59-4.33-2.6-4.33-7.52-3.43l-.23,0a2.49,2.49,0,0,1-2.69-.53c-.87-1-.4-1.94,0-2.91C67.94,77,69.49,73.73,71,70.44c.3-.64,1-1.39-.23-1.94-3.77-1.64-4.49-4.77-3.87-8.41a6.69,6.69,0,0,0-.8-4.86A8.51,8.51,0,0,1,64.82,48.62Zm5.76,12.94A3,3,0,0,0,73,65.22a11.09,11.09,0,0,1,6.65,5.56A3.1,3.1,0,0,0,84,72.36a10.46,10.46,0,0,1,8.42,0c2.11.9,3.58.24,4.6-1.69a10.34,10.34,0,0,1,6.27-5.28c2.1-.65,3.05-2.05,2.55-4.21a11.1,11.1,0,0,1,1.55-8.53c1-1.6.87-3.1-.66-4.28a11.73,11.73,0,0,1-4.58-7.91,2.92,2.92,0,0,0-3.35-2.73,11.73,11.73,0,0,1-8.57-3.18,2.78,2.78,0,0,0-4.1.09A11.33,11.33,0,0,1,77.8,37.7a3,3,0,0,0-3.47,2.9,11.31,11.31,0,0,1-4.48,7.69A2.87,2.87,0,0,0,69,52.34C70.65,55.22,71.64,58.2,70.58,61.56Zm69.18,49a19.08,19.08,0,1,0-18.87,19.19A19,19,0,0,0,139.76,110.56Zm6.12,19.56a28.75,28.75,0,0,1-2.51,2.94c-1.12,1-1.25,1.71,0,2.81,2.51,2.24,4.87,4.66,7.29,7,2.94,2.86,2.9,2.83,5.82-.17.91-1,1.06-1.49,0-2.46-3.11-2.9-6.11-5.91-9.16-8.87C147,131.05,146.6,130.75,145.88,130.12Zm-64-53.44c-3.55-.41-5.05-3-6.82-5.72L71,79.73c4.32-2.07,6.49-.44,7.89,3.39Zm20.61-6.41a4.7,4.7,0,0,0-1.9,2.1c-.9,1.34-1.68,2.83-3.25,3.45-1.33.53-1.51,1.22-.8,2.34.4.64.4,1.52,1.53,2.28.86-4.33,3.83-4.34,7.46-3.14Zm19-18.39c-.35,5.92.36,6.57,5.15,5.09Zm20,77.37c-.05-.15-.06-.34-.15-.43a14.65,14.65,0,0,0-3.19-2.85c-.12-.06-.7.37-.67.5.28,1.35,1.61,1.85,2.38,2.82a1.85,1.85,0,0,0,.77.56C141.16,130,141.33,129.6,141.52,129.25Z"/><path class="cls-3" d="M102.24,139.37H83.7c-1.45,0-2.94-.09-2.93-2s1.58-1.89,3-1.89h36.61c1.39,0,3-.12,3,1.82s-1.59,2.07-3.1,2.07Z"/><path class="cls-3" d="M76.46,133.5c0,1.52,0,3.05,0,4.57s-.71,2.4-2.31,2.4c-3,0-6.1,0-9.15,0-1.64,0-2.31-.87-2.32-2.39q0-4.46,0-8.91c0-1.69.83-2.45,2.55-2.42,2.8.06,5.61.08,8.42,0,2.08-.06,2.93.85,2.82,2.89C76.41,130.93,76.46,132.22,76.46,133.5Zm-4,.25c.58-2.36-.08-3.37-2.72-3.15-3.18.26-3,.07-3.25,3-.19,2.5.67,3.12,3.07,3C71.77,136.6,73.28,136.46,72.48,133.75Z"/><path class="cls-3" d="M67.06,120.64c-1.27,0-5.2-4-5.21-5.26a1.84,1.84,0,0,1,1.07-1.74,1.61,1.61,0,0,1,2.17.43c1.77,2.51,3.15,1.29,4.67-.27,1.35-1.37,2.82-2.63,4.29-3.88a1.85,1.85,0,0,1,2.79.07,1.78,1.78,0,0,1-.22,2.77c-2.65,2.46-5.35,4.86-8,7.3A2.07,2.07,0,0,1,67.06,120.64Z"/><path class="cls-3" d="M63.81,94.87a2.48,2.48,0,0,1,2,1.28c1,1.32,1.79,1.08,2.84,0,1.65-1.64,3.43-3.13,5.15-4.7.94-.86,2-1.22,3-.2s.6,2.18-.4,3.1l-7.65,7a2,2,0,0,1-3,.12c-1.16-1.11-2.28-2.25-3.38-3.42a1.89,1.89,0,0,1-.27-2.23A1.76,1.76,0,0,1,63.81,94.87Z"/><path class="cls-3" d="M88.34,38.46A14.76,14.76,0,1,1,73.53,53.09,14.76,14.76,0,0,1,88.34,38.46Zm0,3.88a10.88,10.88,0,1,0,10.78,11A10.86,10.86,0,0,0,88.37,42.34Z"/><path class="cls-3" d="M137.76,110.75a17.05,17.05,0,1,1-17-17.14A17.17,17.17,0,0,1,137.76,110.75Zm-3.88,0a13.17,13.17,0,1,0-13.3,13.1A13.29,13.29,0,0,0,133.88,110.76Z"/><path class="cls-3" d="M97.14,48.66a2.71,2.71,0,0,1-1.17,2c-2.91,2.65-5.84,5.28-8.73,8-1.31,1.22-2.48,1.25-3.72-.09-1-1.11-2.15-2.16-3.23-3.24-.89-.9-1.32-1.92-.31-3s2-.7,3,.13c2.77,2.3,2.78,2.28,5.42-.13,1.78-1.62,3.56-3.24,5.36-4.85a1.91,1.91,0,0,1,2.2-.5A2.06,2.06,0,0,1,97.14,48.66Z"/></g></g></svg>