<svg xmlns="http://www.w3.org/2000/svg" viewBox="0 0 58.52 62.75"><defs><style>.cls-1{fill:#6c2911;}</style></defs><g id="Capa_2" data-name="Capa 2"><g id="Capa_1-2" data-name="Capa 1"><path class="cls-1" d="M49.6,14.46c.39-.66.77-1.34,1.18-2,1.25-2,3.2-2.44,5.39-1.19s3,3.25,1.79,5.32q-4,7-8.07,14a3.87,3.87,0,0,0-.55,2.07q0,12.87,0,25.72c0,3-1.39,4.37-4.32,4.37H4.25c-2.8,0-4.24-1.4-4.24-4.19Q0,34,0,9.46C0,6.6,1.44,5.2,4.32,5.19q4,0,8,0c.55,0,.94,0,1-.74s.61-.9,1.23-.9c1.31,0,2.62,0,3.92,0a1.44,1.44,0,0,0,1.47-.78,5.54,5.54,0,0,1,9.61,0A1.43,1.43,0,0,0,31,3.56c1.26,0,2.53,0,3.79,0,.55,0,1.26,0,1.29.66,0,1.18.8,1,1.5,1,2.57,0,5.14,0,7.71,0A3.76,3.76,0,0,1,49.35,9.3c0,1.7,0,3.41,0,5.11ZM5.74,33.94c0,7.23,0,14.46,0,21.68C5.7,56.78,6,57,7.13,57c10.54,0,21.08,0,31.61,0,1.31,0,2.62,0,3.92,0,.64,0,1-.14,1-.88,0-4.9,0-9.8,0-14.7,0-.81-.29-.78-.85-.44-1.19.71-2.39,1.41-3.6,2.08s-1.86.34-1.88-1c0-1.67,0-3.35,0-5a4.06,4.06,0,0,1,.58-2.2c1.78-3,3.53-6.06,5.28-9.1a2.7,2.7,0,0,0,.49-1.36q0-6.25,0-12.5c0-.62-.19-.87-.84-.86-2,0-3.92,0-5.88,0-.36,0-.76-.05-.77.51,0,.95-.65,1.1-1.43,1.1H14.86c-.83,0-1.59,0-1.67-1.12,0-.63-.55-.49-.93-.49-1.76,0-3.52.06-5.27,0-1-.05-1.28.29-1.28,1.3C5.76,19.48,5.74,26.71,5.74,33.94Zm41.64,1.21a7.91,7.91,0,0,0-1.84,5c.13,5.72,0,11.44.06,17.15C45.6,58.46,45.21,59,44,59H5.32c-1.15,0-1.57-.47-1.57-1.62q0-23.4,0-46.79C3.75,9.38,4.24,9,5.37,9c2.16.05,4.33,0,6.49,0,.67,0,1.38.2,1.37-1s-.81-.88-1.42-.88c-2.41,0-4.82,0-7.23,0C2.47,7.16,2,7.64,2,9.74Q2,34,2,58.24c0,2.09.47,2.54,2.62,2.54H38.78c2.2,0,4.41,0,6.61,0a1.74,1.74,0,0,0,2-2C47.39,51,47.38,43.23,47.38,35.15ZM24.66,10.62c2.61,0,5.23,0,7.84,0,2,0,1.66.23,1.65-1.71,0-1.09.48-2.48-.23-3.18s-2-.15-3.08-.2a10.09,10.09,0,0,0-1.1,0,1.46,1.46,0,0,1-1.66-1.08A3.43,3.43,0,0,0,24.65,2a3.48,3.48,0,0,0-3.42,2.49,1.39,1.39,0,0,1-1.56,1c-1.14,0-2.29,0-3.43,0-.77,0-1.12.18-1.07,1a28.4,28.4,0,0,1,0,3.06c-.05.8.24,1.05,1,1C19,10.6,21.84,10.62,24.66,10.62ZM45.59,20.86l.31.06c.46-1.09,1.47-1.93,1.48-3.25q0-4.22,0-8.44c0-1.39-.64-2.05-2-2.06-2.77,0-5.54,0-8.32,0-.65,0-.95.13-.94.87s.15,1,.94,1c2.16,0,4.32,0,6.49,0,2,0,2.05.09,2.05,2.09Zm8.74-8.22c-1.2-.22-1.66.48-2.1,1.24L40.13,34.83c-.08.14-.15.29-.24.42-.3.41-.11.62.27.85s.58.11.77-.23c.37-.68.76-1.34,1.15-2Zm2.15,1.93c0-.17,0-.61-.31-.71s-.47.37-.62.61L42.77,36.59c-.22.39-.53.75.11,1.09s.77-.2,1-.54Q50,26.51,56.13,15.87A2.07,2.07,0,0,0,56.48,14.57ZM41.67,39.36A6.47,6.47,0,0,0,39.3,38V40.7Z"/><path class="cls-1" d="M9.87,35c0-.78,0-1.55,0-2.33a2.41,2.41,0,0,1,2.45-2.51c1.63-.06,3.26,0,4.89,0a2.14,2.14,0,0,1,2,1c.4.68.69.48,1.1.07a8,8,0,0,1,.92-.81.92.92,0,0,1,1.4.12.89.89,0,0,1-.1,1.32c-.68.65-1.36,1.3-2.09,1.89a1.81,1.81,0,0,0-.73,1.68c.29,4.14-1,4.72-4.52,4.54-.9,0-1.8,0-2.7,0a2.54,2.54,0,0,1-2.6-2.65C9.85,36.51,9.87,35.73,9.87,35Zm7.78,1.5c-1.57.95-1.57.95-2.94-.41l-1.3-1.3a1,1,0,0,1-.14-1.52c.49-.53,1-.37,1.49.08a7.6,7.6,0,0,0,.71.68c.33.23.52.94,1,.61s1.15-.68,1.24-1.42-.05-1.13-.88-1.12c-1.34,0-2.69,0-4,0-.74,0-1,.29-1,1,0,1.26,0,2.52,0,3.78,0,.89.36,1.15,1.17,1.12,1.14,0,2.29-.07,3.43,0S17.93,37.54,17.65,36.46Z"/><path class="cls-1" d="M9.87,21.71c0-.78,0-1.55,0-2.33a2.51,2.51,0,0,1,2.48-2.64c1.62-.07,3.26,0,4.88,0a2.33,2.33,0,0,1,2,1.17c.31.54.55.42.9.08a8.39,8.39,0,0,1,1.1-1,.92.92,0,0,1,1.32.13.91.91,0,0,1-.06,1.32,1.23,1.23,0,0,1-.26.25,5.29,5.29,0,0,0-2.63,5.51,2.18,2.18,0,0,1-2.21,2.31q-2.62.12-5.25,0a2.37,2.37,0,0,1-2.3-2.39c0-.81,0-1.63,0-2.44Zm7.78,1.39c-1.54,1-1.54,1-2.82-.28-.26-.26-.54-.51-.77-.79-.53-.6-1.64-1.18-.79-2.09s1.52.21,2.18.71c.33.24.54.94,1,.6s1.23-.69,1.25-1.54c0-.64-.19-1-.88-1-1.35,0-2.7,0-4,0-.74,0-1,.34-1,1.06,0,1.26,0,2.53,0,3.79,0,.79.28,1.11,1.07,1.09,1.18,0,2.37-.05,3.55,0S18,24.26,17.65,23.1Z"/><path class="cls-1" d="M9.87,48.28c0-.77,0-1.55,0-2.32a2.47,2.47,0,0,1,2.44-2.54c1.63-.06,3.26,0,4.89,0a2.07,2.07,0,0,1,1.88,1c.49.87.86.53,1.33.06a8.18,8.18,0,0,1,.83-.73.9.9,0,0,1,1.31.09.82.82,0,0,1,0,1.3,6.36,6.36,0,0,0-3,6.26c.09,1.06-1,1.84-2.21,1.87-1.71.05-3.43.06-5.14,0a2.41,2.41,0,0,1-2.33-2.37,1.93,1.93,0,0,1,0-.24Zm7.74,1.4c-.65.49-1.25,1.29-2.11.47S14.05,48.72,13.34,48a1,1,0,0,1-.08-1.42.94.94,0,0,1,1.42,0c.28.24.5.55.79.76s.52.95,1,.57,1.24-.69,1.24-1.54c0-.65-.19-1-.9-1-1.34,0-2.68,0-4,0-.75,0-1,.33-1,1,0,1.27.05,2.53,0,3.79,0,.9.37,1.13,1.17,1.1,1.14,0,2.29-.06,3.43,0S18,50.89,17.61,49.68Z"/><path class="cls-1" d="M30.86,30.52H36.1c.66,0,1.29.13,1.32.93s-.62,1-1.34,1H25.71c-.7,0-1.38-.09-1.38-1s.72-1,1.4-1Z"/><path class="cls-1" d="M31,18.57h5.13c.66,0,1.29.09,1.33.9s-.6,1.07-1.32,1.07H25.6c-.66,0-1.26-.18-1.26-1s.58-1,1.25-1Z"/><path class="cls-1" d="M31,47.18H25.71c-.69,0-1.38-.08-1.37-1s.71-1,1.39-1H36.1c.66,0,1.28.14,1.31.94s-.62,1-1.33,1Z"/><path class="cls-1" d="M28,24.78H25.44c-.67,0-1.12-.3-1.1-1s.46-.93,1.06-.94c1.79,0,3.59,0,5.38,0a.94.94,0,0,1,1,1c0,.68-.45,1-1.13,1Z"/><path class="cls-1" d="M28,36.77H25.4c-.6,0-1-.29-1.06-.94s.42-1,1.09-1h5.26c.68,0,1.14.31,1.13,1s-.49,1-1.16,1Z"/><path class="cls-1" d="M28.08,51.47H25.51c-.65,0-1.15-.23-1.17-1s.45-1,1.11-1h5.26c.68,0,1.14.32,1.11,1s-.52,1-1.17,1Z"/><path class="cls-1" d="M25.86,4.73A1.12,1.12,0,0,1,24.78,6a1.1,1.1,0,0,1-1.3-1.13,1.09,1.09,0,0,1,1.19-1.23A1.11,1.11,0,0,1,25.86,4.73Z"/></g></g></svg>