<svg xmlns="http://www.w3.org/2000/svg" viewBox="0 0 63.12 63.9"><defs><style>.cls-1{fill:#c6875e;stroke:#c6875e;stroke-miterlimit:10;}</style></defs><g id="Capa_2" data-name="Capa 2"><g id="Capa_1-2" data-name="Capa 1"><path class="cls-1" d="M34.75,14.92c-2.58-2.54-3.18-4.82-2-7.18A5.36,5.36,0,0,1,38.6,5c2.69.55,3.85,2.3,4.26,6.55,2.82-1.17,5.63-2.27,8.37-3.51,1-.44,1.28-.22,1.65.69C56,16.16,59.08,23.58,62.18,31c.88,2.12.48,3.43-1.5,4.49-.58.31-.55.64-.34,1.06a4.45,4.45,0,0,1,0,3.56c-.86,2.55-1.09,5.29-2.42,7.69a.54.54,0,0,0,0,.46c.78,1.25.31,2.64.43,4,.05.57,0,1.07.79,1,.57,0,.76.39.77.9.06,2.79.1,5.57.17,8.36,0,.6-.23.76-.79.78s-.69-.37-.7-.87c0-2.21-.1-4.42-.09-6.63,0-.84-.25-1.12-1.13-1.11q-8.66.11-17.32.11c-.92,0-1.08.35-1,1.15.09,2.05.11,4.1.14,6.14,0,.54.22,1.19-.75,1.19s-.69-.61-.7-1.1c-.06-2.5-.1-5-.16-7.49,0-.73.09-1.35,1-1.34.55,0,.56-.35.55-.74,0-.86,0-1.72-.07-2.58,0-.2-.08-.48,0-.6,1.17-1.41-.21-2.54-.39-3.8-.11-.82-.59-.79-1.1-.42-2.76,2-6,2.88-9,4.38-.58.29-1.2.66-1.82.08s-.19-1.13,0-1.7A3.84,3.84,0,0,0,20,44.48a3.7,3.7,0,0,0,.24,4.92c.45.48,1,.87,1.47,1.3.83.74.79,1.59-.2,2-3.08,1.42-6.2,2.76-9.28,4.18-.9.41-.94-.28-1.16-.76Q6.43,45.82,1.8,35.46c-.33-.75-.68-1.49-1-2.24a2.91,2.91,0,0,1,1.44-4c.66-.33.85-.66.53-1.29a2.17,2.17,0,0,1,0-1.78c.92-2.87,1.23-5.93,2.68-8.65.29-.56-.41-.92-.39-1.47,0-1,0-2.05,0-3.07,0-.47,0-.91-.66-.87s-.9-.42-.91-1c0-3.23-.09-6.47-.16-9.7,0-.57.16-.79.76-.81s.73.29.73.82c0,2.74.09,5.48.1,8.23,0,.76.19,1.06,1,1q8.72-.13,17.45-.17c.84,0,1-.3,1-1.07-.09-2.62-.11-5.24-.17-7.87,0-.6,0-1,.82-1s.64.56.65,1c.07,3,.11,6,.17,9,0,.76,0,1.43-1.05,1.41-.55,0-.52.42-.52.79,0,.86,0,1.72,0,2.58,0,.4.05.94-.17,1.18-.93,1,.11,1.63.36,2.39.14.39.58.13.86,0ZM28.38,48.08c2.28-1,4.45-2,6.66-3,1.12-.46,1.24-1.07.75-2.1-1-2-1.85-4.09-2.77-6.15-1.1-2.45-.92-2.72,1.75-2.69a4.25,4.25,0,0,0,3-.84,3.73,3.73,0,0,0-2-6.55A3.84,3.84,0,0,0,31.81,29c-.27.55-.42,1.23-1.19,1.23s-1-.73-1.26-1.31c-1.07-2.44-2.18-4.85-3.17-7.32-.44-1.08-.91-1.18-1.92-.69C22,22,19.66,23,17.34,24s-4.84,1.94-6.63,4c-.33.38-.53.61-.44,1.12.29,1.57.53,3.15.79,4.72a5.24,5.24,0,0,1-.69,3.55A2.77,2.77,0,0,1,7.53,38.7c-1.08-.08-1.59-.83-1.89-1.82-.57-1.87-1.19-3.74-1.81-5.6-.12-.35,0-1-.55-.94a1.4,1.4,0,0,0-1.19.95,1.89,1.89,0,0,0,.12,1.54q4.86,10.86,9.71,21.72c.25.58.52.69,1.1.42,1.89-.88,3.8-1.72,5.7-2.57,1.6-.72,1.6-.72.41-2a5.07,5.07,0,0,1-.89-5.8,5.32,5.32,0,0,1,9.89.78A12.09,12.09,0,0,1,28.38,48.08ZM34.25,36c1.06,2.42,2.08,4.73,3.07,7.06.23.53.5.51,1,.31,1-.46,2-.86,3-1.28,3.51-1.47,7-3,10.53-4.4.93-.38,1.48-.8,1.15-2s-.46-2.74-.7-4.11a5.13,5.13,0,0,1,.57-3.44,3.08,3.08,0,0,1,3-1.56c1.16.15,1.61,1,1.91,2,.49,1.61,1,3.2,1.55,4.79.11.34,0,.93.57.91A1.32,1.32,0,0,0,61,33.38a2,2,0,0,0-.12-1.66Q56.4,21,52,10.33c-.31-.73-.61-.77-1.28-.49-2.51,1.1-5,2.14-7.57,3.18-1.35.56-2,0-1.9-1.46a8.87,8.87,0,0,0,0-1.71,3.62,3.62,0,0,0-3.35-3.46A3.8,3.8,0,0,0,33.8,9.17a3.85,3.85,0,0,0,2.08,4.52c.55.27,1.21.42,1.19,1.21s-.67.94-1.24,1.18L27,19.74l3.59,8c2.45-2.7,4.72-3.36,7.18-2.13a5.38,5.38,0,0,1,2.84,5.75C40,34.32,38.27,35.62,34.25,36ZM50,40l-9.72,4a.57.57,0,0,0-.38.43c-.34,1.35,1.34,3.5,2.75,3.5,4,0,7.93,0,11.9,0a2.13,2.13,0,0,0,2.36-1.42,11,11,0,0,0,.44-1.13c.59-2.13,1.13-4.27,1.74-6.39a2.69,2.69,0,0,0,0-1.66c-.92-2.79-1.8-5.6-2.71-8.39-.13-.41-.16-.93-.76-1a1.42,1.42,0,0,0-1.44.74,4,4,0,0,0-.39,2.85c.3,1.69.59,3.38.84,5.08.07.43.36,1-.32,1.26A5.62,5.62,0,0,0,51.43,41c-.26.6-.56.61-1.14.38C49.43,41.06,50.24,40.53,50,40ZM14.56,17.42v.07H8.91c-1.9,0-2.39.36-2.9,2.2-.62,2.2-1.17,4.42-1.8,6.63a2.3,2.3,0,0,0,0,1.42c.92,2.84,1.82,5.68,2.73,8.52.14.42.19.94.76,1a1.45,1.45,0,0,0,1.44-.76,3.87,3.87,0,0,0,.41-2.73c-.22-1.29-.36-2.6-.66-3.86-.35-1.45-.49-2.71,1.27-3.34a1.42,1.42,0,0,0,.7-.67A3.84,3.84,0,0,1,13,24.33q4.65-2.05,9.29-4.17c.32-.14.86-.12.84-.72a2.43,2.43,0,0,0-2.2-2Zm.08-1.4V16c1.85,0,3.69,0,5.53,0,2.78,0,2.74,0,2.71-2.79,0-1-.29-1.25-1.26-1.23-4.1.09-8.19.1-12.29.13-2.89,0-2.85,0-2.83,2.9,0,.89.31,1.09,1.14,1.07C10,16,12.31,16,14.64,16ZM48.71,49.45H43.19c-2.8,0-2.75,0-2.69,2.76,0,.94.34,1.15,1.23,1.14,4.17-.08,8.34-.09,12.51-.14,2.7,0,2.67,0,2.63-2.74,0-.79-.23-1.06-1-1C53.46,49.49,51.09,49.45,48.71,49.45Z" transform="translate(0 0)"/><path class="cls-1" d="M59.65,3.56c-.48.89-.92,1.85-1.5,2.73-.27.4-.65-.09-1-.21s-.31-.39-.15-.69c.41-.75.79-1.52,1.18-2.28.14-.27.31-.5.65-.28S59.59,3,59.65,3.56Z" transform="translate(0 0)"/><path class="cls-1" d="M53.68,2.52c0,.41,0,.81,0,1.22s-.28.66-.76.65-.76-.17-.72-.72,0-1.29,0-1.94-.05-1,.79-1,.65.61.67,1.09c0,.24,0,.49,0,.73Z" transform="translate(0 0)"/><path class="cls-1" d="M7.85,58.52c-.48.9-.92,1.87-1.49,2.76-.27.4-.64-.1-1-.21s-.34-.38-.18-.67c.4-.76.8-1.52,1.17-2.29q.28-.57.78-.24C7.43,58,7.83,58,7.85,58.52Z" transform="translate(0 0)"/><path class="cls-1" d="M11,61.52c0-.45,0-.9,0-1.34s.48-.44.83-.46.62.1.61.55c0,.85,0,1.71,0,2.56,0,.53-.29.6-.71.57s-.76,0-.76-.53V61.52Z" transform="translate(0 0)"/><path class="cls-1" d="M17.5,61.31c-.38.1-.46-.11-.55-.28-.42-.79-.81-1.6-1.24-2.38-.29-.54.18-.61.46-.79s.64-.33.88.17c.35.73.72,1.45,1.12,2.17C18.67,61.11,17.74,61,17.5,61.31Z" transform="translate(0 0)"/><path class="cls-1" d="M47.38,2.72c.33,0,.4.24.51.45.34.65.66,1.31,1,2,.24.44.35.74-.24,1s-.86.13-1.11-.41-.64-1.23-.94-1.85A.8.8,0,0,1,47.38,2.72Z" transform="translate(0 0)"/></g></g></svg>