<svg xmlns="http://www.w3.org/2000/svg" viewBox="0 0 209.87 190.19"><defs><style>.cls-1{fill:#c5875e;}</style></defs><g id="Capa_2" data-name="Capa 2"><g id="Capa_1-2" data-name="Capa 1"><path class="cls-1" d="M105,190.18q-43.81,0-87.64,0c-8.87,0-15.51-5.31-17.11-13.46-.88-4.49.32-6.32,4.85-6.13,3.58.16,3.11-1.9,3.11-4.09q0-51.19,0-102.39c0-3.75.73-7.07,3.82-9.45,1.2-.92,3-2.6,4.1-1.13s2.33,4,.59,5.62c-2.08,1.93-1.89,4.06-1.89,6.35,0,33.58,0,67.16-.08,100.75,0,3.29.64,4.34,4.17,4.33q86-.18,172,0c3.42,0,4.69-.86,4.2-4.27-.23-1.61.21-3.32-.09-4.9-.83-4.37,1.9-4.14,4.78-4.05,1.47.05,1.89.68,1.86,2,0,1.77.12,3.56,0,5.32-.33,3.72-.22,6.51,5,6,3-.3,3.39,2.55,3.11,5.07-.93,8.37-8,14.41-17.08,14.42q-37.89.08-75.77,0Zm97.54-12.86H7.35c2.41,5.07,6.31,6.32,11.17,6.31q80.06-.07,160.11,0c4.78,0,9.56,0,14.34,0C197.29,183.56,200.43,181.65,202.56,177.32Z"/><path class="cls-1" d="M115.26,146.41c-1.13-10.4,2.75-19.53,7.07-28.61,4.22-8.86,9-17.59,12-26.88,8.07-25.06,21.07-47.9,31.34-72,3.32-7.79,10.53-10.9,17.64-8.2a12.67,12.67,0,0,1,8.25,14.34c-.42,2.12.1,3.08,1.63,4.36,3.73,3.11,4.6,7,2.56,11.4-3.89,8.41-8,16.74-11.93,25.11-1,2-2.3,3.67-4.74,2.53-2.63-1.23-2.18-3.37-1.13-5.57,3.55-7.37,7.05-14.76,10.57-22.14.41-.86.78-1.74,1.21-2.6.7-1.41.64-2.95-.8-3.54-1.69-.69-1.74,1.24-2.18,2.19-8.17,17.7-15,36.16-24.81,52.91-9.21,15.77-15.26,32.86-23.91,48.75-4.38,8.06-11.61,14.05-17.52,21a2.93,2.93,0,0,1-3.71.82,3.3,3.3,0,0,1-2-3.29C114.93,153.5,115.1,150,115.26,146.41Zm70-123c-.2-2.89-1.23-4.84-3.44-6.09-3.89-2.19-8-.56-10.23,4.22q-9.18,19.83-18.24,39.71c-4,8.81-4,8.73,5.18,12.45,2.54,1,3.65.79,4.85-1.89,6.72-15,13.67-30,20.53-44.95C184.51,25.68,184.94,24.39,185.3,23.45ZM122.15,147.74c3.78-4.48,7.74-7.52,9.78-11.84,6.47-13.67,12.57-27.52,18.87-41.28.71-1.54.2-2.2-1.17-2.72a18.44,18.44,0,0,1-3.37-1.46c-2.85-1.78-4.1-.74-5.35,2.14-5.16,11.88-10.39,23.73-16,35.42C122.06,134.06,122.05,140.29,122.15,147.74Zm25.36-71.4c-2.06.25-1.89,2.48-2.75,3.83-.75,1.19-.84,2.22.82,2.88,3,1.2,6,2.59,9,3.79,2.25.89,2.42-1.17,2.89-2.42s2.45-2.74.47-3.78A112.47,112.47,0,0,0,147.51,76.34Z"/><path class="cls-1" d="M134.59,68.73c-4.13-19.19-8.32-38.36-12.35-57.57-.78-3.76-2.37-5-6.25-4.13C87.2,13.22,58.37,19.24,29.56,25.33c-5,1.05-5.36,1.64-4.29,6.66q12,56.4,24.1,112.79c1.33,6.21,1.79,6.53,7.89,5.26,16-3.32,32-6.7,48.05-10,1.17-.24,3.22-1.88,3.55.47s1.31,5.32-2.71,6.08c-6.57,1.23-13.09,2.71-19.62,4.08q-15,3.13-30,6.27c-6.74,1.4-11.55-1.65-13-8.39Q30.93,90.19,18.45,31.8c-1.36-6.31,1.6-11.21,7.93-12.56q45-9.61,90-19a9.5,9.5,0,0,1,11.73,7.58c3.81,16.89,7.51,33.81,10.94,50.78C139.87,62.52,136.7,65.54,134.59,68.73Z"/><path class="cls-1" d="M108.14,18.82c3.55.29,5.87,1.95,6.63,5.28,1.92,8.5,3.81,17,5.53,25.55.84,4.16-1.34,7-6.16,8-16.37,3.53-32.76,7-49.15,10.41-4.53,1-9,1.93-13.59,2.85-4.72,1-7.73-.85-8.78-5.51-1.75-7.7-3.36-15.43-5-23.16-1.27-6,.41-8.75,6.3-10,13.46-2.86,26.92-5.65,40.38-8.47q10.59-2.22,21.18-4.47C106.43,19.11,107.37,19,108.14,18.82ZM51,64.24l.64-.14q30-6.28,60-12.52c2.14-.44,2-1.55,1.65-3.25-1.52-6.78-2.94-13.58-4.31-20.39-.37-1.81-1-2.43-3-2q-29.77,6.39-59.6,12.52c-2.27.46-2.52,1.4-2.09,3.34,1.49,6.78,2.86,13.6,4.34,20.38C48.83,63.3,48.91,64.84,51,64.24Z"/><path class="cls-1" d="M183.65,113.12c6.15,0,12.29,0,18.44,0,5.32.05,7.71,2.45,7.75,7.79q.07,11.07,0,22.13c0,5.34-2.43,7.74-7.76,7.78-7,0-13.94.21-20.89-.06A17.21,17.21,0,0,0,169.72,154a54.09,54.09,0,0,1-7,4.24c-2.8,1.47-5.22.38-5.26-2.63-.14-12.29-.22-24.58.1-36.86.1-3.73,3-5.64,6.84-5.66C170.81,113.1,177.23,113.13,183.65,113.12Zm-19.69,36,.9.68c5.76-6,13-5.72,20.35-5.52,5,.13,10.1,0,15.15,0,1.92,0,3-.24,2.95-2.6-.14-6.55-.09-13.11,0-19.66,0-1.78-.59-2.36-2.36-2.35q-17.4.07-34.81,0c-1.54,0-2.19.49-2.18,2.1C164,130.89,164,140,164,149.08Z"/><path class="cls-1" d="M107.07,99.4c-4.32,0-6.71-1.66-7.5-5-1.57-6.49-3-13-4.25-19.57a6.32,6.32,0,0,1,4.85-7.48c5.43-1.32,10.9-2.5,16.41-3.41,4.36-.73,7,1.26,8,5.66,1.08,4.64,1.76,9.4,3.14,14,1.19,4-.06,7.17-1.78,10.46a3.15,3.15,0,0,1-2.11,1.79C118,97.1,112.1,98.34,107.07,99.4Zm14.67-11.7c-1.09-5-2.23-10.2-3.31-15.39-.32-1.54-1.09-1.94-2.59-1.6q-5.76,1.31-11.56,2.42c-1.83.36-2.41,1.15-1.93,3.09,1.15,4.74,2.15,9.53,3.05,14.33.38,2,1.37,2.3,3.13,1.89,3.7-.85,7.43-1.56,11.15-2.38C120.83,89.81,122.27,89.71,121.74,87.7Z"/><path class="cls-1" d="M121.32,103.27c-.91,5.38-3.57,7.55-8.67,8.5C95.26,115,78,118.94,60.66,122.6c-.66.14-1.33.29-2,.38-2.21.32-3.91-.44-4.24-2.75-.3-2.09,1.11-3.29,3-3.71,6.26-1.36,12.52-2.65,18.79-4q21.39-4.51,42.78-9C119.66,103.41,120.32,103.39,121.32,103.27Z"/><path class="cls-1" d="M114.58,118.25c-.68,5.67-4,7.45-9,8.38-14.32,2.67-28.55,5.85-42.8,8.91-2.33.5-4.58.84-5.35-2-.86-3.13,1.46-3.94,3.92-4.45l52-11A5.92,5.92,0,0,1,114.58,118.25Z"/><path class="cls-1" d="M201.65,83.19c0,6.81-.14,13.62.07,20.42.08,2.78-1.11,3-3.37,3s-3.38-.33-3.34-3.06c.14-13.07.05-26.15.07-39.22,0-2.85-1.45-5.7.67-8.57,1.16-1.56,1.72-1.75,3-.43a10.67,10.67,0,0,1,2.94,7.8C201.62,69.85,201.65,76.52,201.65,83.19Z"/><path class="cls-1" d="M73,79.79c-2.47,0-3.85-.69-4.13-2.66a3,3,0,0,1,2.46-3.64c4.35-1,8.72-2,13.11-2.8a3,3,0,0,1,3.62,2.5A2.9,2.9,0,0,1,85.86,77C81.4,78.07,76.88,79,73,79.79Z"/><path class="cls-1" d="M75.74,92.63c-2.54.11-3.8-.84-4.16-2.64A3,3,0,0,1,74,86.31c4.34-1,8.72-1.9,13.11-2.71A3,3,0,0,1,90.8,86a2.92,2.92,0,0,1-2.21,3.79C84.14,90.92,79.62,91.79,75.74,92.63Z"/><path class="cls-1" d="M78,105.56c-1.92-.09-3.31-.82-3.6-2.76a3,3,0,0,1,2.44-3.66c4.25-1,8.52-1.88,12.8-2.71,1.8-.35,3.32.27,3.81,2.19s-.26,3.56-2.36,4C86.73,103.7,82.33,104.62,78,105.56Z"/><path class="cls-1" d="M63.83,101.75c2.08-.1,3.41.72,3.87,2.51a2.91,2.91,0,0,1-2.18,3.79,103,103,0,0,1-10.31,2.14,2.91,2.91,0,0,1-3.5-2.62,3,3,0,0,1,2.44-3.63C57.43,103.12,60.74,102.44,63.83,101.75Z"/><path class="cls-1" d="M51.05,84.41c-3,.33-4.38-.53-4.83-2.33a3,3,0,0,1,2.29-3.77c3.29-.86,6.63-1.5,10-2.08a3,3,0,0,1,3.68,2.44,3,3,0,0,1-2.28,3.78C56.61,83.33,53.26,83.93,51.05,84.41Z"/><path class="cls-1" d="M52.67,97.51c-1.93-.09-3.19-.78-3.59-2.48s.26-3.39,2.1-3.86c3.42-.88,6.89-1.6,10.38-2.14a2.76,2.76,0,0,1,3.31,2.34c.37,1.84-.22,3.34-2.12,3.84C59.33,96.09,55.87,96.79,52.67,97.51Z"/></g></g></svg>