<svg xmlns="http://www.w3.org/2000/svg" viewBox="0 0 101.32 113.76"><defs><style>.cls-1{fill:#c6875e;}</style></defs><g id="Capa_2" data-name="Capa 2"><g id="Capa_1-2" data-name="Capa 1"><path class="cls-1" d="M65.8,17c0,6.35-.72,12.46-5,17.71-2,2.46-.32,6.46,2.69,7.39s6.25,2,9.43,2.87c3.91,1,5.88,3.89,7.39,7.27a1.67,1.67,0,0,1-.65,2.38c-1,.58-1.77.11-2.31-.77s-.9-1.59-1.32-2.41a5.65,5.65,0,0,0-3.6-3A8.44,8.44,0,0,1,70.93,48C65,44.8,59.68,45.8,54.68,50.15c-1.07.94-1.89,1.63-1.73,3.14.12,1.06,0,2.15,0,3.21.08,1.24-.29,1.78-1.65,1.79s-2.06-.56-1.78-1.89c.87-4.16-1.37-6.14-4.64-8.24s-6.4-3-10.11-1.21a36.65,36.65,0,0,1-5,1.59A13.26,13.26,0,0,0,23,53.43Q14.74,64.72,6.44,76A13.29,13.29,0,0,0,4,80.91a7.35,7.35,0,0,0,2,7.56c4.33,4.11,8.61,8.27,12.92,12.41.49.48,1,1,1.47,1.45.8.82,1.06,1.7.14,2.6a1.58,1.58,0,0,1-2.44-.1c-5.23-5-10.66-9.92-15.59-15.25-3.41-3.68-3.2-8.51-.71-12.46A291.36,291.36,0,0,1,22.45,49c1.76-2.16,4.44-3.21,7.11-4,3.51-1.06,7-2.18,10.53-3.19A2.59,2.59,0,0,0,42.22,39a9.78,9.78,0,0,0-1.7-6.17c-4-5.79-3.84-12.51-3.72-19.22C37,3.38,47.2-2.22,56.36.83a13.43,13.43,0,0,1,9.43,12.31C65.85,14.43,65.8,15.74,65.8,17Zm-3.33-.22c0-.88-.08-2.25-.16-3.62a10.16,10.16,0,0,0-9.1-9.65c-5.56-.8-11,1.78-12.22,6.61a27.26,27.26,0,0,0,2.1,20.44A8.81,8.81,0,0,0,50,35.42c4.84.6,8.77-2,10.87-7.29C62.2,24.66,62.33,21,62.47,16.82ZM46,37.94c-.79,1.57-.12,3.7-1.48,5.11-.54.55-.08,1,.4,1.26l.19.13c5.59,4.25,5.67,4.25,11.59.47a3.22,3.22,0,0,1,.39-.25c1.2-.51,1.38-1.23.57-2.27-1-1.27-.11-3.64-1.26-4.14s-3,.74-4.63.68a14.21,14.21,0,0,1-4.3-.53Z"/><path class="cls-1" d="M75.45,94.26c0,3.8,0,7.6,0,11.4,0,5.16-3,8.08-8.17,8.09q-14.47,0-28.95,0a6.4,6.4,0,0,1-1.81-.15,1.64,1.64,0,0,1,0-3.19,9.31,9.31,0,0,1,2-.14H67c3.74,0,4.92-1.19,4.92-5q0-16.77,0-33.54c0-.61,0-1.23,0-1.84.07-1,.59-1.82,1.66-1.85s1.78.8,1.79,1.94a63.22,63.22,0,0,1,0,8.26C74.61,85,78.12,90.36,80.68,96c1.21,2.67,4.54,3.78,7.28,3.09a8,8,0,0,0,6-7.29c.09-8.73.3-17.47-.1-26.18-.15-3.34-3.44-.81-5.19-1.44-1-.35-2.29-.4-2.24,1.52.11,4.06,0,8.12,0,12.18,0,1.31-.13,2.68-1.76,2.67S83,79.18,83,77.87c0-10-.06-20.06,0-30.09a9.29,9.29,0,0,1,10.57-9.21c1.13.12,2,.57,2,1.76s-.89,1.69-2,1.73c-.54,0-1.08,0-1.61,0a5.46,5.46,0,0,0-5.45,5.39c-.08,3.83,0,7.66,0,11.49,0,1.3.4,1.77,1.7,1.7,1.68-.1,3.53.39,5-.16,1.71-.64.94-2.89,1.6-4.35a36,36,0,0,0,2.95-17.89,47.26,47.26,0,0,1,0-5,1.7,1.7,0,0,1,1.61-1.89c1.2-.07,1.8.76,1.83,1.89.06,1.84-.09,3.69,0,5.52A37,37,0,0,1,98.34,56.4a12.58,12.58,0,0,0-.85,5.15c0,9.8.06,19.61,0,29.41A11.25,11.25,0,0,1,91,101.55a10.11,10.11,0,0,1-13.62-4.22c-.55-1-1-2.06-1.47-3.1Z"/><path class="cls-1" d="M27.84,91.19c0-6.75,0-13.25,0-19.75a9.34,9.34,0,0,1,.11-2,1.67,1.67,0,0,1,3.27,0,7.34,7.34,0,0,1,.11,1.82v39.25c0,.23,0,.46,0,.69,0,1.25-.25,2.46-1.71,2.49s-1.79-1.15-1.79-2.42c0-3.06-.22-6.14.07-9.18a10.31,10.31,0,0,0-3.37-8.93c-3.7-3.65-7-7.7-10.48-11.57-.84-.93-1.86-2-.64-3.14s2.33-.13,3.24.89q4.5,5.06,9,10.08A4.78,4.78,0,0,0,27.84,91.19Z"/><path class="cls-1" d="M99.24,9.19a1.76,1.76,0,0,1,1.85,1.52,1.67,1.67,0,1,1-3.33.18C97.73,9.91,98.47,9.45,99.24,9.19Z"/><path class="cls-1" d="M99.49,20c-1-.14-1.74-.69-1.73-1.75a1.67,1.67,0,1,1,3.34.07C101.11,19.26,100.42,19.77,99.49,20Z"/><path class="cls-1" d="M99.51,27.35c-1.05-.2-1.73-.72-1.75-1.67A1.59,1.59,0,0,1,99.48,24a1.57,1.57,0,0,1,1.62,1.6C101.15,26.65,100.36,27.12,99.51,27.35Z"/><path class="cls-1" d="M24,106.61c1,.13,1.75.68,1.76,1.74a1.67,1.67,0,0,1-3.33.18C22.26,107.45,23,106.88,24,106.61Z"/></g></g></svg>