<svg xmlns="http://www.w3.org/2000/svg" viewBox="0 0 61.52 61.51"><defs><style>.cls-1{fill:#c6875e;}</style></defs><g id="Capa_2" data-name="Capa 2"><g id="Capa_1-2" data-name="Capa 1"><path class="cls-1" d="M51.31,36.36a6.38,6.38,0,0,1-2.12-3.24,4.89,4.89,0,0,1,1.17-4.79c.63-.67,1.33-1.28,2-1.92a4.37,4.37,0,0,0,1.45-3.18,1,1,0,0,1,1.88-.58A31.41,31.41,0,0,1,60,29.54a5.63,5.63,0,0,1-5.81,7.88,2.1,2.1,0,0,0-1.63.48,5.64,5.64,0,0,1-3.28,1.36c-1.19.05-1.37.61-1.23,1.57,0,.27,0,.55.07.89a71.67,71.67,0,0,1,11.45-1.35c1.82-.07,1.94.07,1.94,1.84q0,8.77,0,17.54c0,1.59-.15,1.75-1.69,1.75H1.68c-.59,0-1.25.12-1.57-.57S.37,59.74.8,59.3a32.77,32.77,0,0,1,8.92-6.23c.59-.29,1-.57.87-1.33a2.71,2.71,0,0,1,.92-2.14c3.07-3.21,3.76-7.22,3.86-11.43,0-.49-.13-.69-.66-.73a5.84,5.84,0,0,1-3.66-1.61,1.35,1.35,0,0,0-1.22-.29,1,1,0,0,1-1.13-.68.85.85,0,0,1,.48-1.11c.43-.18.44-.46.43-.85a11.88,11.88,0,0,1,1-5.61,1.13,1.13,0,0,0,0-.79,4.39,4.39,0,0,1,4.77-5.35,7.53,7.53,0,0,1,.83.08,6.83,6.83,0,0,0,3.62,0c2.36-.79,5.68,1.47,5.95,4,.25,2.26,1.67,3.12,3.44,3.82a17.27,17.27,0,0,0,1.72.51c.18-.6-.15-1-.21-1.47A.94.94,0,0,1,31.44,27a.91.91,0,0,1,1.16.6,3.57,3.57,0,0,1,.26.8c.16.86.43,1.45,1.52,1.58a2.55,2.55,0,0,1,2.09,2.23,2.36,2.36,0,0,1-1,2.5A.9.9,0,0,0,35,35.85c.85,2.83,1.66,5.68,2.47,8.52.17.58.36.74,1,.45a34.67,34.67,0,0,1,6.77-2.38c.64-.16.9-.41.89-1.12,0-2.92,0-5.85,0-8.77,0-.56-.09-.84-.76-.89a6.92,6.92,0,0,1-3.95-1.59,1.65,1.65,0,0,0-1.31-.34,5.65,5.65,0,0,1-5.86-8.09A32.28,32.28,0,0,1,38.48,15c.31-.41.69-.71,1.23-.5a1,1,0,0,1,.65,1,4.74,4.74,0,0,0,1.87,3.61c.36.32.72.64,1.06,1a5.32,5.32,0,0,1,.08,8.06c-.16.17-.32.35-.52.55.28.17.5.34.75.46,2.17,1.07,2.52.86,2.52-1.51,0-2,0-4,0-6a1.56,1.56,0,0,0-.64-1.42,5.61,5.61,0,0,1,1.42-9.79,32.78,32.78,0,0,1,7.82-1.8A1,1,0,0,1,56,9.19a1,1,0,0,1-.26,1.2,4.84,4.84,0,0,0-1.21,4c0,.52.05,1,.05,1.56a5.22,5.22,0,0,1-5.3,5.47c-1.07,0-1.21.35-1.2,1.29q.07,6.84,0,13.69c0,.94.24,1.22,1.15,1A5.22,5.22,0,0,0,51.31,36.36ZM49.06,59.57c3.2,0,6.4,0,9.6,0,.74,0,1-.2.94-.94,0-3.08,0-6.16,0-9.24,0-.57-.1-1-.75-1.17-1.65-.33-3.29-.45-4.65.77-.83.74-1.43.69-2-.23a3.57,3.57,0,0,0-3.62-1.65,3.63,3.63,0,0,0-3.18,2.71A1.35,1.35,0,0,1,44,51a2.72,2.72,0,0,0-2.66,2.95,2,2,0,0,1-.78,1.75,6.39,6.39,0,0,0-1.84,2.9c-.24.69-.19,1,.74,1C42.67,59.54,45.87,59.57,49.06,59.57ZM12.65,51.65c1.74-.65,3.56-1,4.89-2.56a13.35,13.35,0,0,0,3.58-8.31c.07-1.23.43-1.54,1.67-1.35a6.87,6.87,0,0,1,4.5,2.74,11.42,11.42,0,0,1,2.22,5c.19,1,.84.47,1.31.47.68,0,.48-.5.4-.86a14.36,14.36,0,0,0-2-4.84c-1.67-2.51-3.82-4.31-7-4.47-.75,0-1.05-.43-1.06-1.15a27.77,27.77,0,0,1,.34-4.91,5.14,5.14,0,0,1,.75-2.13,1,1,0,0,1,1-.44.84.84,0,0,1,.72.72c.13,1.57,1.29,2.24,2.49,2.82a13.63,13.63,0,0,0,6.3,1.22A3.62,3.62,0,0,0,34,33.27a.7.7,0,0,0,.51-.73.85.85,0,0,0-.67-.77,6.28,6.28,0,0,0-1.07-.07,12.77,12.77,0,0,1-6.36-1.9A4.9,4.9,0,0,1,24,26.37,3.36,3.36,0,0,0,21,23.1a1.27,1.27,0,0,0-1.56.76,14.63,14.63,0,0,0-1.14,3.4,54.86,54.86,0,0,0-1,11.22c-.08,4.63-1,9-4.39,12.48A.62.62,0,0,0,12.65,51.65Zm-9.1,7.71c.24.15.27.18.3.18,7.45,0,14.89,0,22.34.05.72,0,.74-.37.79-.87a15.13,15.13,0,0,1,3.42-8.06,2,2,0,0,0,.71-1.08C21,50.33,11.68,52.93,3.55,59.36ZM46,44.27a39.39,39.39,0,0,0-6.81,2.34c-.57.25-1,.51-.71,1.24A.84.84,0,0,1,38,49a.87.87,0,0,1-1.23-.4c-.23-.49-.48-.39-.82-.17-3.74,2.46-6.38,5.65-7,10.24-.1.73,0,1,.81,1q2.94-.08,5.88,0c.7,0,1-.19,1.11-.88a7.09,7.09,0,0,1,1.74-3.63,3.52,3.52,0,0,0,1-2.17,3.32,3.32,0,0,1,1.59-2.71,13.69,13.69,0,0,0,4.14-3.54A2.36,2.36,0,0,0,46,44.27ZM23.32,32.62c-.08.68-.12,1.16-.2,1.63-.16.91,0,1.45,1.12,1.6a7.34,7.34,0,0,1,3.33,1.58A15,15,0,0,1,33,46c.45,1.73.46,1.73,2,.74.51-.33,1.13-.48.83-1.42-.94-3-1.79-6-2.63-9a.9.9,0,0,0-1-.78A14,14,0,0,1,23.32,32.62Zm32-7.18c-.71,1.68-2,2.72-3.25,3.89A3.34,3.34,0,0,0,51.69,34c.26.35.54.85,1,.82s.62-.67.76-1.1a6.61,6.61,0,0,0,.36-1.63c.06-.71.22-1.35,1.06-1.28s.93.73.89,1.43a11.52,11.52,0,0,1-.9,3.29c3-.28,4.46-2.72,3.35-5.33A24.08,24.08,0,0,0,55.33,25.44Zm-9-7.06a9.69,9.69,0,0,1,1.69-3c.47-.53,1-.9,1.64-.36s.33,1.07-.12,1.56a5.88,5.88,0,0,0-1.24,2.17c-.18.53,0,.69.52.73a3.43,3.43,0,0,0,3.81-3.38c0-1.55-.25-3.11.23-4.65.2-.66-.34-.48-.65-.43a22,22,0,0,0-4.51,1.19C45,13.28,44.36,16,46.3,18.38Zm-7,9.38a9.3,9.3,0,0,1-.91-3.45c0-.64.19-1.17.87-1.22s1.05.44,1.07,1.14a5.41,5.41,0,0,0,.48,2.09c.46,1,.7,1.07,1.46.17a3.35,3.35,0,0,0-.22-4.84c-1.19-1.17-2.55-2.2-3.26-3.91a22.14,22.14,0,0,0-3,5.17A3.62,3.62,0,0,0,39.34,27.76ZM57.71,42.42a72.14,72.14,0,0,0-9,1.18c-.65.13-.7.47-.71,1s.38.58.79.57a5.54,5.54,0,0,1,4,1.53c.33.31.58.45,1,.18a6.48,6.48,0,0,1,3.94-.74c1.75.11,1.75.1,1.75-1.63C59.59,42.26,59.59,42.26,57.71,42.42ZM19.93,49.28c2.53-.51,4.86-1,7.24-1.27.35,0,.51-.22.43-.56-.55-2.35-1.47-4.48-3.75-5.7-.46-.25-.83-.35-.92.35A15.44,15.44,0,0,1,19.93,49.28Zm-2.83-25a4.52,4.52,0,0,0-2.67,4.31,8.81,8.81,0,0,1-1.36,4.87c-.72,1.07-.68,1.25.52,1.7a8.85,8.85,0,0,0,1.15.31c.44.1.64,0,.67-.54A42.39,42.39,0,0,1,17.1,24.32ZM15,23.16a2.28,2.28,0,0,0-2.53,2.37c0,.15,0,.33.19.38a.39.39,0,0,0,.46-.27A8.4,8.4,0,0,1,15,23.16ZM12.37,28.4a7.62,7.62,0,0,0-.8,3.8A5.8,5.8,0,0,0,12.37,28.4Z" transform="translate(0 0)"/><path class="cls-1" d="M14.42,9.6a4.81,4.81,0,1,1-4.8-4.81A4.82,4.82,0,0,1,14.42,9.6Zm-1.93,0a2.88,2.88,0,1,0-2.88,2.9A2.91,2.91,0,0,0,12.49,9.57Z" transform="translate(0 0)"/><path class="cls-1" d="M19.22,16.24a4.8,4.8,0,1,1,4.71,4.89A4.8,4.8,0,0,1,19.22,16.24Zm4.77,3a2.88,2.88,0,0,0,.11-5.75A2.88,2.88,0,1,0,24,19.2Z" transform="translate(0 0)"/><path class="cls-1" d="M10.59,1.62a5,5,0,0,1-.06.95.88.88,0,0,1-1,.75c-1-.2-.82-1-.83-1.73S8.6.17,9.51,0a.88.88,0,0,1,1,.78A5.61,5.61,0,0,1,10.59,1.62Z" transform="translate(0 0)"/><path class="cls-1" d="M1.67,10.56c-.5,0-1.06.11-1.43-.37A.87.87,0,0,1,.33,8.91,3.1,3.1,0,0,1,3,8.92a.87.87,0,0,1,.08,1.28C2.73,10.68,2.18,10.54,1.67,10.56Z" transform="translate(0 0)"/><path class="cls-1" d="M17.59,10.53a4.3,4.3,0,0,1-.95,0,.88.88,0,0,1-.75-1c.2-1,1-.83,1.72-.84s1.43-.05,1.58.86a.87.87,0,0,1-.77,1,3.82,3.82,0,0,1-.83.05Z" transform="translate(0 0)"/><path class="cls-1" d="M10.55,17.56a4.6,4.6,0,0,1,0,.83.87.87,0,0,1-1,.79C8.39,19,8.69,18,8.65,17.26s.09-1.32.93-1.39a.88.88,0,0,1,1,.85,5.87,5.87,0,0,1,0,.84Z" transform="translate(0 0)"/><path class="cls-1" d="M3.48,2.56c.65,0,2,1.37,2,1.93a1,1,0,0,1-1,1c-.63,0-2-1.47-1.89-2.06A.83.83,0,0,1,3.48,2.56Z" transform="translate(0 0)"/><path class="cls-1" d="M14.72,5.46a1,1,0,0,1-1-1c0-.55,1.31-1.91,1.9-1.93a.84.84,0,0,1,1,.92C16.66,4.05,15.34,5.42,14.72,5.46Z" transform="translate(0 0)"/><path class="cls-1" d="M5.48,14.66c0,.68-1.44,2-2.05,2a.84.84,0,0,1-.85-.94c0-.58,1.33-2,1.89-1.95A1,1,0,0,1,5.48,14.66Z" transform="translate(0 0)"/><path class="cls-1" d="M15.82,16.64c-.71,0-2.09-1.35-2.07-1.92a1,1,0,0,1,1-1c.62,0,2,1.45,1.9,2A.84.84,0,0,1,15.82,16.64Z" transform="translate(0 0)"/></g></g></svg>