<svg xmlns="http://www.w3.org/2000/svg" viewBox="0 0 84.3 92.99"><defs><style>.cls-1{fill:#c6875e;stroke:#c6875e;stroke-miterlimit:10;stroke-width:0.5px;}</style></defs><g id="Capa_2" data-name="Capa 2"><g id="Capa_1-2" data-name="Capa 1"><path class="cls-1" d="M13.51,52.6C8.84,46.23,8.76,41,13.24,37.09a9.85,9.85,0,0,1,13.53.49c4.1,4.14,3.84,9.42-.88,15a25,25,0,0,1,7.37,4.47c1,.91,2.48.33,3.73.38,1.56.07,3.42.5,4.61-.17,1.41-.8.43-2.86.67-4.35,1.24-8,5.5-13.71,12.9-17,.45-.2,1-.25,1.28-.71C50.56,29.47,50,22.51,55,17.54a11.48,11.48,0,0,1,16.45.22c3.81,3.95,5.14,11.71-1.64,17.31.24.74,1,.68,1.54.93C79.48,39.9,83.82,46.33,84,55.38c.13,6.76,0,13.52,0,20.28,0,2.65-.15,2.76-2.79,2.8-3.15.05-2.93-.61-3,3,0,1.28,0,2.56,0,3.84,0,3.81-1.51,5.31-5.32,5.31q-19.53,0-39.07,0c-1.57,0-2.93,0-4.24,1.31-1.47,1.44-8,1-9.49-.5a2.82,2.82,0,0,0-2.28-.81c-3.06,0-6.12,0-9.18,0C3.54,90.44.33,87.17.3,82.05c0-3.7-.1-7.4,0-11.1.25-7.87,4-13.61,10.91-17.3C12,53.26,12.74,53,13.51,52.6ZM64.15,68.46c2.21,0,4.41-.07,6.61,0,1.39.06,1.88-.38,1.82-1.81-.1-2.84,0-5.68,0-8.53,0-6.58-.61-5.69,5.63-5.74a9.11,9.11,0,0,1,1.28,0c1.28.16,1.5-.28,1.21-1.54-2-8.65-11-14.88-19.77-13.59C51.33,38.67,44.38,46.93,45,56.08c.07,1,.32,1.43,1.36,1.38,1.42-.06,2.84,0,4.27,0,3.78,0,5.17,1.38,5.19,5.11,0,1.42.08,2.85,0,4.26s.46,1.71,1.72,1.66C59.74,68.4,62,68.46,64.15,68.46ZM40.76,60.21c-3.42,0-6.83,0-10.24,0-1.62,0-2.34.59-2.32,2.26,0,5.54,0,11.09,0,16.64,0,.53-.24,1.24.43,1.52,2.49,1,2.69,3.11,2.48,5.32-.14,1.54.48,1.91,1.93,1.89,4.84-.08,9.67,0,14.51,0,5.79,0,5.76,0,5.48-5.81,0-1.07-.35-1.47-1.46-1.51-1.9-.08-3.36-1-3.53-3a40.88,40.88,0,0,1,0-6,2.79,2.79,0,0,1,2.67-2.87c2.3,0,2.5-1.17,2.33-2.94a17.56,17.56,0,0,1,0-3c.14-1.82-.6-2.57-2.47-2.52C47.3,60.28,44,60.21,40.76,60.21ZM29.07,57.29c-5.64-3.4-11.24-3.85-16.86-1S3.58,64,3.13,70.32C3,71.54,3.48,72,4.69,71.93c1.49-.07,3,.07,4.48,0,1.91-.13,2.8.57,2.65,2.56-.11,1.42,0,2.85,0,4.27s.49,1.88,1.87,1.86c3.34-.07,6.69-.09,10,0,1.4,0,1.82-.38,1.8-1.79-.07-5.26.07-10.53-.07-15.8C25.35,60.28,26.1,58.28,29.07,57.29Zm33.8,13.94c-2.85,0-5.69,0-8.54,0-4.09,0-3.57-.44-3.6,3.68,0,2.71,0,2.77,2.83,2.69,1.15,0,2.78.66,3.37-.48.8-1.55,1.92-1.44,3.18-1.44,5.62,0,11.24,0,16.86,0,3.21,0,4.19-1,4.22-4.24,0-4.06,0-8.11,0-12.17s0-4.06-4-4c-1.47,0-1.77.55-1.74,1.86.07,3.77,0,7.54,0,11.31,0,2.67-.17,2.84-2.75,2.84Zm8.85-45.54A8.62,8.62,0,1,0,63,34.31,8.59,8.59,0,0,0,71.72,25.69ZM65,87.79c2.71,0,5.41,0,8.12,0,1.59,0,2.39-.58,2.34-2.25-.06-1.85-.08-3.71,0-5.55.06-1.22-.37-1.6-1.57-1.57-2.85.08-5.7,0-8.54,0-2.59.06-5.09-.33-7.63,1.47-1.46,1-2,1.66-1.91,3.24a16.48,16.48,0,0,1,0,3c-.15,1.38.46,1.68,1.72,1.64C60,87.73,62.51,87.79,65,87.79Zm-39.85,2c3.26,0,3.26,0,3.26-3.19a10.76,10.76,0,0,1,0-1.27c.18-1.5-.51-2-2-2-4.19.06-8.38,0-12.56,0-3.73,0-5-1.26-5-5s0-3.77-3.88-3.71H4.82C3.56,74.48,3,75,3.08,76.31c.08,1.91,0,3.83,0,5.74.1,3.73,2.15,5.71,5.91,5.73,3.55,0,7.09,0,10.64,0,.63,0,1.55-.21,1.77.41C22.13,90.19,23.72,89.71,25.15,89.77ZM26.81,44.6a7.07,7.07,0,1,0-7.07,7A7,7,0,0,0,26.81,44.6Z"/><path class="cls-1" d="M47.55,22.44q0,6.82,0,13.66c0,.91.15,1.94-.91,2.42s-1.68-.46-2.3-1.09c-1.67-1.66-3.31-3.33-4.93-5a8.19,8.19,0,0,0-6.29-2.62c-6.47,0-12.95,0-19.43,0-5.43,0-8.78-3.3-8.86-8.75-.07-4.06-.08-8.11,0-12.17C4.93,3.56,8.31.28,13.63.27q12.48,0,25,0C44,.28,47.43,3.57,47.53,9,47.61,13.47,47.55,18,47.55,22.44Zm-3.28,11a1.38,1.38,0,0,0,.43-1.39q0-11.51,0-23c0-3.78-2.14-5.95-6-6Q26.14,3,13.55,3.07c-3.8,0-5.92,2.22-6,6s0,7.39,0,11.09C7.6,25.06,9.53,27,14.46,27c6.11,0,12.23.05,18.34,0a11.08,11.08,0,0,1,8.91,3.77C42.54,31.69,43.42,32.57,44.27,33.46Z"/><path class="cls-1" d="M39.08,75.42c-1.28,0-2.55,0-3.83,0-.86,0-1.56-.33-1.64-1.29s.68-1.53,1.61-1.54c2.62,0,5.24,0,7.86,0,.93,0,1.72.42,1.64,1.52s-.89,1.32-1.82,1.33Z"/><path class="cls-1" d="M39.25,80.17c1.27,0,2.55,0,3.82,0,1,0,1.69.41,1.66,1.5S44,83,43.12,83q-3.93,0-7.86,0c-.93,0-1.71-.41-1.65-1.5s.89-1.34,1.82-1.35Z"/><path class="cls-1" d="M39.2,67.79h-4c-.89,0-1.53-.37-1.56-1.34s.63-1.38,1.5-1.39q4,0,8,0c.86,0,1.57.35,1.57,1.34S44,67.8,43,67.8Z"/><path class="cls-1" d="M26.2,22.54a6,6,0,0,1-5.68-3.77c-.29-.84-.5-1.75.52-2.22s1.51.07,2,.95c1.74,3,4.49,3,6.18.07.48-.87,1-1.46,2-1.06,1.15.49.87,1.49.53,2.38A6,6,0,0,1,26.2,22.54Z"/><path class="cls-1" d="M21,7.5a3.74,3.74,0,0,1,3.42,2.23,1.35,1.35,0,0,1-.39,1.89,1.24,1.24,0,0,1-1.87-.31c-.84-1.24-1.55-1.29-2.4,0a1.26,1.26,0,0,1-1.87.33,1.37,1.37,0,0,1-.4-1.9A3.65,3.65,0,0,1,21,7.5Z"/><path class="cls-1" d="M34.94,10.17c0,.88-.2,1.39-.8,1.6a1.32,1.32,0,0,1-1.69-.52C31.7,10,31,10.07,30.21,11.2a1.3,1.3,0,0,1-2,.37c-.76-.57-.63-1.34-.19-2.09a3.64,3.64,0,0,1,4.14-1.89A3.46,3.46,0,0,1,34.94,10.17Z"/></g></g></svg>