<svg xmlns="http://www.w3.org/2000/svg" viewBox="0 0 47.24 64.12"><defs><style>.cls-1{fill:#c6875e;}</style></defs><g id="Capa_2" data-name="Capa 2"><g id="Capa_1-2" data-name="Capa 1"><path class="cls-1" d="M26.73,49.61c0,3.46,0,6.92,0,10.38,0,.71.08,1,.9.65a34.58,34.58,0,0,1,13.47-2.27c1,0,1.43-.3,1.29-1.32a10.43,10.43,0,0,1,0-1.25c0-.75.18-1.63-.16-2.2s-1.3-.16-2-.27a2.3,2.3,0,0,1-2-2.24c0-.79,0-1.58,0-2.37,0-2.19,1-3.3,3.22-3.47.72,0,.95-.32.92-1s0-1.58,0-2.38c0-.6.19-1.1.9-1.1a.87.87,0,0,1,.93,1.06,1.47,1.47,0,0,0,.92,1.57,3.86,3.86,0,0,1,2.1,3.82c0,.71,0,1.42,0,2.13a3.69,3.69,0,0,1-2.08,3.45,1.46,1.46,0,0,0-.93,1.64c.06.92,0,1.84,0,2.75,0,2.56-.53,3.11-3,3.07a35.47,35.47,0,0,0-10.5,1.3,22,22,0,0,0-4.49,1.85,4.71,4.71,0,0,1-4.68.14C16.74,61,11.61,60.22,6.29,60.27c-2.63,0-3.14-.47-3.14-3.1,0-.55,0-1.09,0-1.63.05-1.29.22-2.62-1.48-3.08-.18,0-.32-.26-.46-.41C-.8,49.87-.22,45,2.28,43.39a1.58,1.58,0,0,0,.88-1.58c-.05-1.67,0-3.34,0-5a2.8,2.8,0,0,1,0-.87c.53-1.56,1.24-3,1.71-4.63.23-.81,1.25-1.07,2.13-1a7.9,7.9,0,0,0,5.09-1.17,13.35,13.35,0,0,1,4.42-1.29,2.53,2.53,0,0,0,2-1.52,1.45,1.45,0,0,0-.42-2,7.9,7.9,0,0,1-2.93-4.8c-.07-.32-.09-.6-.45-.82-2.34-1.37-3.09-3.27-2.24-5.83a5.74,5.74,0,0,0,.46-2.28.9.9,0,0,1,.9-1.11c.69,0,.92.44,1,1.05a5.5,5.5,0,0,0,.05,1c.17.73.88.79,1.39.83.68.06.34-.6.37-.93.06-.62,0-1.25,0-1.88A2.71,2.71,0,0,1,18.44,7a2.87,2.87,0,0,1,3.14.54c.69.6,1.32,1.28,2.06,1.81a6.69,6.69,0,0,0,5.55,1.27,2.07,2.07,0,0,1,2.4.87,1,1,0,0,0,1.14.57c.63-.17.45-.72.45-1.15,0-1.46,0-2.92,0-4.38C33.21,5.67,33,5.11,32,5a2,2,0,0,1-1.84-1.89c-.1-.89-.64-1.19-1.46-1.18-2.84,0-5.68,0-8.51,0a5.28,5.28,0,0,0-5.14,3.83c-.23.66-.4,1.41-1.3,1.14s-.68-1.12-.48-1.79A7.34,7.34,0,0,1,19.89,0C22.93,0,26,0,29,0A2.75,2.75,0,0,1,31.9,2.31c.15.62.44.77,1,.92a2.71,2.71,0,0,1,2.19,2.83c.05,3.37,0,6.74,0,10.11A2.13,2.13,0,0,1,34,18.29a2.2,2.2,0,0,0-1.29,1.77,8.06,8.06,0,0,1-3.07,4.57c-1.21.92-1.16,1.95.11,2.81a4.85,4.85,0,0,0,1.9.59A12,12,0,0,1,36,29.51a5.18,5.18,0,0,0,3.43.8,7.84,7.84,0,0,1,1.37,0c.7.05,1.56.31,1.67.92.35,2,2,3.68,1.77,5.88-.06.64-.31,1.07-1,1.06s-.86-.51-.91-1.12c-.12-1.69-.14-1.7-1.8-1.66a33.64,33.64,0,0,0-12.7,2.32,1.62,1.62,0,0,0-1.16,1.76C26.76,42.85,26.73,46.23,26.73,49.61Zm-6.08,0c0-3.37,0-6.75,0-10.12a1.53,1.53,0,0,0-1.08-1.68C15.26,35.88,10.68,35.44,6,35.39c-.85,0-1,.45-1,1.19,0,2.5,0,5,0,7.5,0,.85.23,1.15,1.11,1.18a3,3,0,0,1,3,3.15c0,.45,0,.91,0,1.37,0,2.93-.41,3.4-3.31,3.55-.68,0-.86.29-.84.9A21,21,0,0,1,5,57c-.1,1.07.22,1.41,1.36,1.4a34.11,34.11,0,0,1,13.22,2.19c.92.37,1.11.2,1.1-.76C20.62,56.4,20.65,53,20.65,49.56ZM14.18,13.77c0,.67,0,1.21,0,1.75,0,.86.4,1.4,1.24,1.4,1.11,0,1.41.57,1.49,1.54A6.19,6.19,0,0,0,19.4,23a7,7,0,0,0,7.28,1.11,6.73,6.73,0,0,0,4.48-6.07c.05-.6.22-1.17.86-1.17,1.66,0,1-1.21,1.18-2,.19-1.1-.65-.74-1.17-.9a2.43,2.43,0,0,1-1.22-.57,2.17,2.17,0,0,0-2.51-.77,3.64,3.64,0,0,1-1,0,9.9,9.9,0,0,1-6.63-3.35c-.43-.44-.87-.8-1.53-.53s-.69.86-.69,1.46,0,1.5,0,2.25a1.79,1.79,0,0,1-2.56,1.87Zm10.7,36.79c0-3.42-.06-6.84,0-10.25,0-1.69-1.13-.68-1.72-.9-.84-.31-.69.4-.7.87,0,6.88,0,13.76,0,20.63,0,.94.3,1.28,1.2,1.27s1.25-.27,1.23-1.24C24.85,57.48,24.88,54,24.88,50.56Zm-1.17-13A2.43,2.43,0,0,0,25.1,37a20.34,20.34,0,0,1,4.56-2,37.56,37.56,0,0,1,10.59-1.52c.38,0,.88.15.89-.54s-.37-.78-.89-.77c-1.21,0-2.42,0-3.62.1-3.84.31-7.6,1-10.94,3.09a3.48,3.48,0,0,1-4.06,0c-4.48-2.7-9.47-3.17-14.56-3.16-.48,0-.8.16-.84.7s.39.61.82.61h.5c5.29.16,10.44.93,15.09,3.71A1.77,1.77,0,0,0,23.71,37.54ZM13.45,30.69A24.39,24.39,0,0,1,23,34a1.1,1.1,0,0,0,1.29.09,26.11,26.11,0,0,1,9.43-3.43c-1.68-.48-3.16-1.39-5.1-.24-3.24,1.93-6.61,1.66-9.82-.34-.35-.21-.63-.63-1.1-.51A19.63,19.63,0,0,0,13.45,30.69ZM3.07,45.18a1.76,1.76,0,0,0-1,1.63,23.62,23.62,0,0,0,0,2.38A2.13,2.13,0,0,0,4.3,51.47c3.59,0,2.81.44,2.91-2.7v-.25a1.25,1.25,0,0,0-1.47-1.43A2.36,2.36,0,0,1,3.07,45.18Zm41.26,0c-.64,1.4-1,1.77-2.08,1.87-2.09.22-2.09.22-2.09,2.34,0,.37,0,.75,0,1.12-.06.7.24.94.93,1,3.64.22,4.33-.42,4.27-4.09a4.71,4.71,0,0,0,0-.75A1.7,1.7,0,0,0,44.33,45.2ZM24.19,29.79c.38-.06,1-.13,1.61-.26s1.6-.3,2-.89-.57-1-.69-1.58-.52-.9-1.24-.71a7.49,7.49,0,0,1-4.3-.13c-.73-.23-1.07-.14-1.21.64a2.24,2.24,0,0,1-.45.88c-.36.47-.18.72.26,1A8.69,8.69,0,0,0,24.19,29.79Z" transform="translate(0 0)"/><path class="cls-1" d="M40.11,41.82a1.06,1.06,0,0,1-1.15,1,33.37,33.37,0,0,0-8.82,1.47.91.91,0,0,1-1.29-.61c-.19-.66.21-1,.78-1.2a36.74,36.74,0,0,1,9.31-1.57A1,1,0,0,1,40.11,41.82Z" transform="translate(0 0)"/></g></g></svg>