<svg xmlns="http://www.w3.org/2000/svg" viewBox="0 0 196.67 196.67"><defs><style>.cls-1{fill:#6c2911;}.cls-2{fill:#fff;}.cls-3{fill:#c5875e;}</style></defs><g id="Capa_2" data-name="Capa 2"><g id="Capa_1-2" data-name="Capa 1"><circle class="cls-1" cx="98.33" cy="98.33" r="98.33"/><circle class="cls-2" cx="98.33" cy="98.33" r="84.05"/><path class="cls-3" d="M104.28,64.3c5.73,0,11.47-.07,17.2,0,2.12,0,2.81-.78,2.77-2.82-.1-4.13-.09-8.27,0-12.41,0-1.43-.41-1.84-1.84-1.83-7.83.07-15.67,0-23.51,0a9.16,9.16,0,0,1-1.74,0,1.55,1.55,0,0,1-1.38-1.68,1.45,1.45,0,0,1,1.34-1.47,12.68,12.68,0,0,1,1.95-.1c7.62,0,15.24,0,22.86,0,1.35,0,2.25-.08,2.56-1.76a3.4,3.4,0,0,1,3.88-2.78c2.86.17,5.77-.25,8.54.11,3.08.4,6.1-.71,9.21.22,1.2.36,2.93-.41,4.46-.35,2.45.11,4,1.52,4,3.95.05,7.48.08,15,0,22.43a13.31,13.31,0,0,1-3.39,8.53,4.11,4.11,0,0,0-1.1,2.92c0,13.79,0,27.58,0,41.37,0,.7-.36,1.52.78,2,3.61,1.43,4,1.81,3.67,5.55-.16,2.09.28,4.18,0,6.16-.51,3.36.59,6.69-.26,10.07-.32,1.28.43,2.94.36,4.46-.12,2.58-1.52,4.08-4.09,4.09-7.33,0-14.66.06-22,0a13.44,13.44,0,0,1-8.76-3.37,4.72,4.72,0,0,0-3.35-1.15q-20.35,0-40.71,0c-1.4,0-2.24.17-2.53,1.81A3.31,3.31,0,0,1,69.69,151a80.5,80.5,0,0,1-9.2-.13c-3-.28-5.94.72-9-.2-1.17-.35-2.93.42-4.45.35a3.75,3.75,0,0,1-3.95-4c-.05-7.4-.08-14.81,0-22.21a13.71,13.71,0,0,1,3.57-8.91,3.62,3.62,0,0,0,.94-2.54q0-20.79,0-41.59c0-.7.33-1.51-.83-1.94-3.48-1.29-3.92-1.77-3.63-5.36.19-2.3-.35-4.62,0-6.81.54-3.22-.62-6.39.26-9.64.34-1.24-.42-2.94-.35-4.46.11-2.56,1.53-4,4.12-4.05,7.33,0,14.66-.06,22,0A13.68,13.68,0,0,1,78.12,43a3.8,3.8,0,0,0,2.74,1c2.69,0,5.37,0,8.06,0,1.15,0,2.37.17,2.39,1.59s-1.2,1.71-2.46,1.73c-3.6,0-3.6.07-3.6,3.68,0,3.77.09,7.55,0,11.32-.06,1.68.51,2,2.09,2C93,64.24,98.62,64.3,104.28,64.3ZM92.81,143.13c5.87,0,11.75-.07,17.63,0,1.69,0,2-.51,2-2.09-.11-4.28-.13-8.56,0-12.84.06-1.75-.5-2.17-2.18-2.14-6.46.09-12.92,0-19.38,0-1.21,0-2.29-.24-2.31-1.66s1-1.66,2.12-1.66c7.33,0,14.66,0,22,0a2.86,2.86,0,0,1,2.88,1.91c.75,1.86,1.33,2,2.79.52,2.16-2.15,4.24-4.38,6.49-6.44a4.91,4.91,0,0,0,1.61-4c-.06-10.81,0-21.62,0-32.44,0-1.66.1-3.21,2-3.93s1.88-1.31.57-2.64c-2.09-2.12-4.29-4.13-6.28-6.33a5.52,5.52,0,0,0-4.56-1.89c-10.74.08-21.48,0-32.22,0-1.67,0-3.19-.16-3.89-2-.63-1.7-1.31-1.81-2.67-.47a65.2,65.2,0,0,1-5,4.89c-2.57,2-3.32,4.47-3.26,7.71.2,10.15.07,20.32.08,30.48,0,1.69-.17,3.31-2.12,3.81-2.12.56-1.44,1.55-.49,2.57,1.19,1.27,2.55,2.39,3.67,3.71,2.57,3,5.34,5.51,9.75,4.55a.74.74,0,0,1,.21,0c1,.1,1.88.5,1.83,1.71s-.87,1.58-1.93,1.59c-2,0-4.07.08-6.1,0-1.84-.08-2.66.6-2.63,2.51q.1,6.42,0,12.84c0,1.37.43,1.71,1.74,1.7C81.05,143.09,86.93,143.13,92.81,143.13ZM70.61,69c2.41-2.34,4.68-4.48,6.87-6.69a3.48,3.48,0,0,1,2.83-1.35c1.2.1,1.64-.31,1.61-1.57-.08-3.48-.1-7,0-10.44,0-1.46-.57-1.75-1.79-1.6a4.33,4.33,0,0,1-3.72-1.38,11,11,0,0,0-7.88-3.14c-6.81,0-13.63,0-20.45-.05-1.33,0-1.75.48-1.76,1.78s.55,1.76,1.82,1.74c3.12-.06,6.24,0,9.36,0,1.18,0,2.32.21,2.29,1.67s-1.16,1.61-2.34,1.61c-3.12,0-6.24,0-9.36,0-1.34,0-1.76.46-1.76,1.76S46.72,53,48.08,53c2.9-.08,5.8,0,8.7,0,1.27,0,3-.31,3,1.58,0,2-1.77,1.71-3.1,1.73-2.82,0-5.65,0-8.48,0-1.23,0-1.86.25-1.86,1.67s.57,1.88,1.94,1.85c3.12-.07,6.24,0,9.36,0,1.11,0,2.14.22,2.17,1.55s-1,1.7-2.24,1.69c-3.12,0-6.24.06-9.36,0-1.46-.05-1.86.51-1.87,1.89s.66,1.64,1.87,1.63c5.52,0,11,0,16.54,0C67.14,66.43,69.2,66.89,70.61,69Zm80.7-14c0-3.4,0-6.81,0-10.22,0-1.23-.1-2.07-1.71-2s-1.83.65-1.81,2c.06,2.89,0,5.8,0,8.7,0,1.22.17,2.74-1.61,2.77s-1.66-1.43-1.66-2.69c0-3-.06-6.09,0-9.14,0-1.51-.78-1.57-1.91-1.6s-1.64.44-1.61,1.66c.06,3.12,0,6.24,0,9.36,0,1.25-.13,2.48-1.74,2.42-1.45-.05-1.58-1.24-1.58-2.39,0-3.05,0-6.09,0-9.14,0-1.15-.11-1.93-1.6-1.93s-1.95.42-1.92,1.87c.08,3.05,0,6.09,0,9.14,0,1.22-.07,2.51-1.7,2.46-1.46,0-1.56-1.22-1.55-2.39,0-3-.05-6.09,0-9.14,0-1.37-.34-1.92-1.81-1.94s-1.72.77-1.71,2c0,5.73,0,11.46,0,17.19,0,1.67-.29,3.25-1.64,4.3-1.06.83-.63,1.28.07,2,1.88,1.81,3.67,3.71,5.58,5.49a3.74,3.74,0,0,1,1.57,3.16c-.11,1.17.38,1.48,1.49,1.47,3.56-.06,7.11-.07,10.66,0,1.16,0,1.57-.37,1.46-1.5A4.35,4.35,0,0,1,147.94,73a11.63,11.63,0,0,0,3.36-8.67Q151.3,59.66,151.31,55ZM46.37,135.52c0,3.48,0,7,0,10.44,0,1.33.48,1.75,1.78,1.76s1.76-.55,1.74-1.82c-.06-3.12,0-6.24,0-9.36,0-1.18.21-2.32,1.67-2.29s1.61,1.16,1.6,2.35c0,3.11.05,6.23,0,9.35,0,1.34.46,1.77,1.76,1.77s1.81-.38,1.77-1.75c-.09-3,0-5.94,0-8.92,0-1.24-.16-2.76,1.59-2.78s1.72,1.59,1.73,2.89c0,2.9,0,5.8,0,8.7,0,1.22.24,1.86,1.66,1.86s1.89-.55,1.86-1.93c-.07-3.12,0-6.24,0-9.36,0-1.11.21-2.14,1.54-2.18s1.71,1,1.7,2.24c0,3,0,6.09,0,9.14,0,1.41.25,2.11,1.88,2.1s1.64-.91,1.63-2.09c0-5.73,0-11.46,0-17.19a5.06,5.06,0,0,1,1.69-4.29c.92-.72.69-1.13,0-1.8-2-1.9-3.9-3.89-5.9-5.78a3.36,3.36,0,0,1-1.35-2.83c.17-1.47-.58-1.63-1.78-1.61-3.34.06-6.68.08-10,0-1.37,0-2,.3-1.83,1.79a4,4,0,0,1-1.23,3.55,11.71,11.71,0,0,0-3.32,8.69C46.38,129.28,46.37,132.4,46.37,135.52Zm92.74,12.17c3.48,0,7,0,10.44,0,1.31,0,1.79-.43,1.79-1.76s-.5-1.79-1.8-1.76c-3.12.05-6.23,0-9.35,0-1.17,0-2.33-.18-2.32-1.64s1.12-1.64,2.32-1.63c3.12,0,6.24,0,9.35,0,1.32,0,1.8-.4,1.79-1.73s-.32-1.83-1.72-1.8c-3.11.09-6.23,0-9.35,0-1.17,0-2.34-.14-2.39-1.57-.05-1.6,1.21-1.76,2.45-1.76,3,0,6.09,0,9.13,0,1.2,0,1.89-.19,1.89-1.64s-.51-1.91-1.91-1.88c-3.12.08-6.24,0-9.36,0-1.09,0-2.15-.18-2.19-1.52s1-1.73,2.21-1.72c3,0,6.09,0,9.13,0,1.38,0,2.14-.19,2.13-1.86s-.87-1.66-2.07-1.65c-5.73,0-11.46,0-17.19,0a5.06,5.06,0,0,1-4.29-1.67c-.71-.88-1.11-.76-1.81,0-1.84,2-3.81,3.78-5.64,5.74a3.72,3.72,0,0,1-3.18,1.54c-1.22-.12-1.42.48-1.41,1.54,0,3.48.09,7,0,10.44,0,1.42.51,1.78,1.77,1.63a4.1,4.1,0,0,1,3.56,1.21,11.73,11.73,0,0,0,8.69,3.34ZM50.92,89.3c0,5.88,0,11.76,0,17.64,0,1.31.21,1.93,1.75,1.9,4.5-.1,9-.09,13.5,0,1.47,0,1.8-.48,1.79-1.86q-.06-17.31,0-34.63c0-1.92-.77-2.56-2.6-2.53-4.21.07-8.42.08-12.63,0-1.44,0-1.83.44-1.82,1.85C51,77.53,50.92,83.42,50.92,89.3Zm95.83,11.82c0-5.81-.05-11.62,0-17.42,0-1.56-.28-2.16-2-2.11q-6.53.19-13.06,0c-1.71,0-2,.56-2,2.11q.09,17.08,0,34.19c0,1.94.61,2.77,2.62,2.73,4.21-.09,8.43-.08,12.63,0,1.48,0,1.81-.5,1.8-1.87C146.71,112.88,146.75,107,146.75,101.12Z"/><path class="cls-3" d="M88.77,55.73c0-1.15,0-2.3,0-3.45a1.55,1.55,0,0,1,3.1,0c0,2.3,0,4.61,0,6.91a1.46,1.46,0,0,1-1.47,1.55,1.48,1.48,0,0,1-1.66-1.58c0-1.15,0-2.31,0-3.46Z"/><path class="cls-3" d="M120.72,94.7c0,12.1-9.06,21.81-20.47,22.37-11.76.57-22-7.84-23.18-19C75.79,86,83.81,75.22,95.52,73.54a21.39,21.39,0,0,1,16.61,4.25c1,.79,2.41,1.65,1.24,3.14s-2.16.23-3.15-.48C104,76,97.4,75.17,90.55,78.58c-6.68,3.33-10.12,9-10.36,16.41a18.65,18.65,0,0,0,31.49,13.73,18.71,18.71,0,0,0,4.56-20.21c-.16-.41-.32-.81-.51-1.2-.55-1.11-.67-2.17.66-2.74s1.86.39,2.31,1.35A19.93,19.93,0,0,1,120.72,94.7Z"/><path class="cls-3" d="M112.26,91.76a5.51,5.51,0,0,1-1.59,3.7c-2.93,2.92-5.79,5.89-8.77,8.75a5.83,5.83,0,0,1-8.55,0c-2.16-2-4.25-4.14-6.3-6.29s-2.16-5.15-.14-7.19,4.91-2,7.2.05l.31.3c3.3,3.17,3.3,3.17,6.48,0a44.48,44.48,0,0,1,3.28-3.17,4.7,4.7,0,0,1,5.31-.48A5,5,0,0,1,112.26,91.76ZM97.7,102.67a3,3,0,0,0,2.26-1.12q4-4,8-8c.92-.91,1.49-1.92.35-3s-2-.32-2.82.5c-2,2.06-4.13,4.07-6.13,6.17-1.23,1.29-2.28,1.24-3.47,0S93.32,94.65,92,93.36c-.88-.88-1.86-1.26-2.81-.24s-.48,1.85.34,2.66q3,3,6,6A2.66,2.66,0,0,0,97.7,102.67Z"/><path class="cls-3" d="M108.93,134.62c0,1.08,0,2.16,0,3.24a1.54,1.54,0,0,1-1.52,1.74,1.48,1.48,0,0,1-1.64-1.61q0-3.35,0-6.69a1.49,1.49,0,0,1,1.61-1.64,1.53,1.53,0,0,1,1.55,1.72C109,132.46,108.93,133.54,108.93,134.62Z"/><path class="cls-3" d="M59.4,102.12c1.08,0,2.16,0,3.24,0a1.55,1.55,0,0,1,1.75,1.52,1.48,1.48,0,0,1-1.6,1.64c-2.24,0-4.47,0-6.7,0a1.49,1.49,0,0,1-1.64-1.61,1.53,1.53,0,0,1,1.71-1.55C57.24,102.11,58.32,102.13,59.4,102.12Z"/><path class="cls-3" d="M138.17,88.3c-1.08,0-2.16,0-3.24,0a1.52,1.52,0,0,1-1.65-1.61,1.43,1.43,0,0,1,1.49-1.53q3.45-.06,6.91,0a1.46,1.46,0,0,1,1.54,1.49,1.5,1.5,0,0,1-1.6,1.65C140.47,88.33,139.32,88.3,138.17,88.3Z"/></g></g></svg>