<svg xmlns="http://www.w3.org/2000/svg" viewBox="0 0 200.65 200.97"><defs><style>.cls-1{fill:#c5875e;stroke:#c5875e;stroke-miterlimit:10;}</style></defs><g id="Capa_2" data-name="Capa 2"><g id="Capa_1-2" data-name="Capa 1"><path class="cls-1" d="M60.89,100.36V56.12c0-5.36.46-5.86,5.65-5.86,18.64,0,37.27,0,55.9,0,2.59,0,4.36,1,6.41,2.53,8.88,6.69,11.71,15.05,11.2,26.29-1,21.67-.28,43.42-.29,65.13,0,5.92-.34,6.29-6,6.29q-33.37,0-66.76,0c-5.72,0-6.07-.37-6.07-6.26Zm6.46,0c0,13.39.09,26.79-.06,40.18,0,2.87.86,3.56,3.61,3.55q29.34-.16,58.67,0c3,0,3.82-.74,3.8-3.78-.13-21.83-.07-43.66-.07-65.49,0-6.39,0-6.39-6.23-6.45-4.9,0-5.49-.64-5.55-5.61a22,22,0,0,1,0-2.81c.27-2.4-.63-3.25-3.13-3.23q-23.91.14-47.82,0c-2.74,0-3.3.95-3.28,3.46C67.41,73.52,67.35,86.92,67.35,100.31Z"/><path class="cls-1" d="M151.9,6.2c.58.21,1.44.57,2.33.82,3.05.83,6,0,6.94-2.87,1.71-4.86,5.45-3.29,8.69-3.57,2.86-.25,5,.21,6.34,3.46a5,5,0,0,0,7.23,2.82c3.77-1.83,5.44.82,7.43,2.87s4.79,3.58,3,7.4c-1.52,3.25-.1,6.08,3,7.47a4.82,4.82,0,0,1,3.24,5.29c-.18,4,1.1,8.24-4.54,10.21-1.92.66-3.26,3.9-1.82,6.6,2.21,4.15-1.39,5.74-3.39,8-1.79,2-3.49,4-6.83,2.43s-6.08-.11-7.48,3a4.81,4.81,0,0,1-5.29,3.24c-4-.18-8.24,1.09-10.2-4.54-.66-1.92-3.91-3.26-6.61-1.82-4.15,2.21-5.73-1.4-8-3.4-2-1.78-4-3.48-2.43-6.83s.1-6.08-3-7.47C138,38.2,137.18,36.61,137.3,34c.18-4-1.1-8.24,4.54-10.2,1.91-.67,3-3.79,1.88-6.64C142.38,13.78,147.88,6.24,151.9,6.2Zm-.47,13.58c-2.6,2.8-1.5,7.9-6,10-2.61,1.21-2.52,2.87-.06,4.39,3.3,2,6.19,8.9,5.36,12.66-.66,3,.47,3.87,3.4,3.06,3.3-.91,10.54,2.3,12.36,5.31,1.46,2.41,3.09,2.36,4.58-.15,1.74-2.94,9-5.91,12.45-5.12,2.78.64,3.83-.45,3.18-3.26-.79-3.38,2.26-10.67,5.2-12.42,2.43-1.45,2.44-3.14,0-4.58-3-1.79-6-9-5.25-12.4.7-3-.31-3.89-3.48-3.15-3,.7-10.54-2.56-12.12-5.23s-3.12-2.61-4.58-.22c-2,3.25-8.82,6.09-12.71,5.21-2.83-.64-3.83.38-3.08,3.17Z"/><path class="cls-1" d="M14.82,6.08c1.36.49,2.85,1.58,4.09,1.35,2.37-.44,5.05-.85,5.89-4C25.69.16,28.5.4,31,.61c2.86.23,6.27-1.31,8,2.67C40.73,7,43.38,8,47.39,6.59,51.64,5.12,52.86,9,55.2,10.86c1.83,1.45,3.17,3.1,2,5.87-1.43,3.54-.17,6.47,3.2,8,1.93.89,3,2.11,2.89,4.3-.08,1.87-.08,3.76,0,5.63a4.21,4.21,0,0,1-2.74,4.41c-3.56,1.69-4.81,4.49-3.45,7.94a4.14,4.14,0,0,1-1,5.08c-1.45,1.4-2.85,2.84-4.27,4.26a4,4,0,0,1-4.75.88c-3.58-1.34-6.48-.16-8,3.22-.89,1.92-2.11,3-4.3,2.89-2-.09-4-.06-6,0A3.91,3.91,0,0,1,25,61c-2.22-4.15-4.31-5.07-8.49-3.65a3.91,3.91,0,0,1-4.42-.85C10.55,55,9,53.47,7.51,52a4,4,0,0,1-.86-4.76c1.33-3.56.15-6.47-3.23-8-1.92-.89-3-2.1-2.89-4.3.09-1.87.09-3.76,0-5.63a4.19,4.19,0,0,1,2.74-4.4c3.55-1.68,4.83-4.51,3.44-7.94A4.18,4.18,0,0,1,8,11.54C10.18,9.69,11.58,6.81,14.82,6.08Zm35.65,10c-.61-1.5-1.13-2.78-3.36-2.29-4.43,1-10.73-1.68-13-5.23-1.55-2.43-3-2.35-4.45.14-1.78,3-9,6.17-12.34,5.4-3.09-.73-4,.21-3.27,3.36S11.64,28,9,29.6s-2.75,3.11,0,4.72,5.86,9.12,5.15,12.15.18,4.12,3.22,3.4c3.34-.78,10.6,2.3,12.35,5.35,1.44,2.51,2.89,2.6,4.45.21,2.29-3.52,8.64-6.13,13-5.33,2.43.45,3.48-.56,3-3.05-.87-4.31,1.76-10.56,5.4-12.94,2.13-1.39,2.17-3,0-4.23-1.3-.74-2.9-1.24-3.14-2.81C51.78,23.41,47.65,20.4,50.47,16.05Z"/><path class="cls-1" d="M32.28,200.05c-3.61.43-6.63.27-8.29-4.16a4.74,4.74,0,0,0-6.47-2.18c-2.84,1.43-4.75.49-6.68-1.62-2.66-2.88-6.27-5-3.57-10.16.81-1.55-.5-4.9-3.18-5.75-3.08-1-3.68-3-3.58-5.85.14-3.94-.88-8,4.62-9.77,1.71-.55,3.18-3.68,1.85-6.24-1.48-2.82-.51-4.75,1.6-6.68,2.89-2.65,5-6.29,10.17-3.57,1.54.82,4.9-.49,5.75-3.18,1-3.07,3-3.68,5.84-3.58,3.94.14,8-.88,9.77,4.62.55,1.71,3.69,3.19,6.25,1.85,2.82-1.47,4.75-.51,6.68,1.6,2.66,2.89,6.26,5,3.57,10.17-.82,1.55.49,4.9,3.17,5.75,3.08,1,3.69,3,3.59,5.84-.14,3.94.87,8-4.62,9.77-1.72.56-3.19,3.69-1.85,6.25,1.47,2.82.51,4.75-1.6,6.68-2.89,2.66-5.06,6.3-10.16,3.55-1.47-.79-4.82.47-5.56,2.84C38.34,200.18,35.61,200.46,32.28,200.05Zm17.83-15.41c-.27-5.67.41-10.79,5.93-14.19,1.47-.9,1.4-2.63-.45-3.83-3.73-2.41-6.47-8.82-5.57-12.85.62-2.83-.39-3.76-3.2-3.08-3.76.91-10.64-2-12.66-5.31-1.5-2.46-2.93-2.47-4.44,0-2,3.3-8.91,6.24-12.66,5.32-2.8-.68-3.82.25-3.2,3.07.86,3.91-1.92,10.81-5.19,12.71-2.5,1.45-2.6,2.89-.18,4.44,3.53,2.28,6.1,8.6,5.31,13-.43,2.43.57,3.48,3.07,3,4.27-.89,10.52,1.77,12.93,5.42,1.39,2.1,2.89,2.1,4.28,0,2.41-3.65,8.7-6.43,12.91-5.37C49.23,187.47,49.76,186.2,50.11,184.64Z"/><path class="cls-1" d="M185.57,194.55c-.74-.27-1.59-.64-2.48-.9a5.62,5.62,0,0,0-6.81,2.62,8.9,8.9,0,0,1-15.18-.11c-1.5-2.35-4.09-3.74-6.83-2.4-3.4,1.66-5.27-.11-7.24-2.29-2.15-2.37-5.38-4-3.33-8.41a5,5,0,0,0-2.9-6.86c-2.71-1.12-3.64-2.74-3.51-5.51.2-4-1-8.25,4.64-10.16,1.82-.62,3.2-3.92,1.7-6.65-1.26-2.3-.6-4.06,1.21-5.69,3-2.72,5.14-7.07,10.73-4.1,1.49.79,4.86-.52,5.73-3.23s2.69-3.68,5.46-3.54c4,.19,8.26-1,10.17,4.64.61,1.81,3.91,3.2,6.64,1.7,2.3-1.27,4.07-.61,5.69,1.2,2.73,3,7.06,5.15,4.11,10.73-.8,1.51.52,4.86,3.23,5.74s3.67,2.69,3.54,5.46c-.2,4,1.06,8.33-4.66,10.14-1.58.5-3.11,3.58-1.9,5.88,1.79,3.41.34,5.58-2.13,7.61C189.64,191.9,188.52,194.36,185.57,194.55Zm-34.37-39c.07,2.77-3.75,9.56-5.95,11-2.39,1.57-2.3,3,.21,4.45,3,1.74,6.22,9,5.31,12.34-.8,2.93.08,4.06,3.08,3.4,3.75-.83,10.61,2.05,12.65,5.36,1.52,2.46,2.95,2.43,4.45,0,2-3.31,8.87-6.21,12.66-5.3,2.81.68,3.82-.26,3.18-3.09-.88-3.89,1.93-10.78,5.21-12.7,2.49-1.46,2.58-2.89.15-4.44-3.34-2.14-6.37-9-5.41-12.62.74-2.8-.19-3.85-3-3.3-4.24.84-10.48-1.81-12.92-5.45-1.39-2.08-2.89-2.1-4.28,0-2.39,3.64-8.64,6.28-12.94,5.41-2.49-.51-3.48.53-3,3A15,15,0,0,0,151.2,155.57Z"/><path class="cls-1" d="M28.71,82.37c-1.62,2.21-2.4,3.48-3.39,4.55a2.9,2.9,0,0,1-4,.68c-1.67-1-2.13-2.68-1.2-4.15,3-4.75,6.14-9.44,9.5-14,1.33-1.79,3.5-1.59,4.82.24,3.13,4.34,6.12,8.8,9.05,13.28a3,3,0,0,1-.94,4.54c-1.67,1.09-3.09.47-4.24-.9-.85-1-1.58-2.15-2.46-3.35-1.25,1-.67,2.26-.68,3.29-.05,13.55,0,27.09,0,40.63,0,1.46.22,3-1,4.14a3,3,0,0,1-3.32.68c-1.78-.77-2.11-2.23-2.11-4q0-16.29,0-32.58Z"/><path class="cls-1" d="M172.75,117.26c.79-1.08,1.52-2.2,2.37-3.23,1.15-1.38,2.57-2,4.23-.88a3,3,0,0,1,.94,4.53c-2.84,4.38-5.71,8.76-8.79,13-1.92,2.63-4.14,2.13-5.88-.36-2.77-3.95-5.43-8-8.13-12-1.18-1.75-1.55-3.58.32-5,2.12-1.6,3.74-.46,5.05,1.39.62.87,1.25,1.73,1.92,2.66,1.28-1,.67-2.28.67-3.35.05-13.14,0-26.28,0-39.42,0-.94,0-1.88,0-2.82.09-2.06,1.22-3.36,3.24-3.34s3.15,1.36,3.17,3.42c0,5,0,9.92,0,14.88v30.41Z"/><path class="cls-1" d="M117,35.19c-15.43,0-29.61,0-43.8,0A16.47,16.47,0,0,1,69.64,35a2.86,2.86,0,0,1-2.37-2.86,2.92,2.92,0,0,1,2.41-3.23,16.54,16.54,0,0,1,3.6-.17h43.51c-1.88-1.49-3.11-2.36-4.21-3.37a3,3,0,0,1-.45-4.33,2.8,2.8,0,0,1,3.94-.85c4.71,3.05,9.46,6.1,13.88,9.55,2.18,1.7,1.18,3.89-.9,5.33-4,2.74-8,5.42-12,8.13-1.74,1.18-3.59,1.56-5-.35-1.51-2.09-.47-3.76,1.41-5.07C114.39,37.18,115.21,36.54,117,35.19Z"/><path class="cls-1" d="M82.26,172.79c1.07.79,2.18,1.53,3.21,2.37a3,3,0,0,1,.8,4.29,2.88,2.88,0,0,1-4.21,1c-4.62-3-9.17-6-13.59-9.29a2.83,2.83,0,0,1-.08-4.83c4.41-3.27,9-6.32,13.58-9.31a2.91,2.91,0,0,1,4.25.89,3.15,3.15,0,0,1-.65,4.33c-1,1-2.58,1.33-3.51,3.24H126c2.37,0,4.92,0,5,3.19s-2.46,3.29-4.87,3.29q-19.89,0-39.79,0H82.41Z"/><path class="cls-1" d="M81.42,90.76c9.29,0,9.28,0,9.3,9.42,0,10,.89,9.84-9.76,9.77-9.39-.06-9.39,0-9.39-9.43C71.57,90.76,71.57,90.76,81.42,90.76Zm2.74,9.79c.34-1.89.31-3.57-2.61-3.37-2,.13-3.74-.08-3.55,2.82.14,2-.06,3.75,2.84,3.52C82.8,103.37,84.8,103.71,84.16,100.55Z"/><path class="cls-1" d="M90.71,75.73c.05,10.07.79,9.6-9.56,9.56-9.52,0-9.68,1.11-9.59-9.62.07-9.36,0-9.36,9.45-9.36h.41C91.51,66.22,90.76,66,90.71,75.73Zm-6.52.17c.53-2.48-.55-3.2-3-3.19S78,73.42,78,75.89c0,2.28.79,3,3,3S84.81,78.71,84.19,75.9Z"/><path class="cls-1" d="M81.32,115.42c10-.07,9.42-.52,9.4,9.32,0,10.22.86,9.69-9.88,9.66-9.27,0-9.22,0-9.28-9.14C71.48,114.27,71.49,115.44,81.32,115.42Zm2.86,9.64c.54-2.52-.52-3.25-3-3.23S77.94,122.5,78,125c0,2.25.77,3,3,3S84.88,127.92,84.18,125.06Z"/><path class="cls-1" d="M112.65,134.38H99.42c-2.23,0-4.1-.57-4-3.28.06-2.42,1.79-3.14,3.84-3.15,8.82,0,17.65,0,26.47,0,2.09,0,3.72.94,3.65,3.33s-1.77,3.07-3.85,3.08Z"/><path class="cls-1" d="M112,85.27H99.19c-2.12,0-3.78-.66-3.82-3.09s1.59-3.31,3.68-3.33q13.23-.07,26.47,0c2,0,3.78.76,3.81,3.18,0,2.7-1.84,3.25-4.07,3.25Z"/><path class="cls-1" d="M112.2,97.22H99.37c-2.29,0-4.07-.7-4-3.35.08-2.38,1.77-3.1,3.87-3.1q13,0,26.08,0c2.28,0,4.06.8,4,3.4-.07,2.38-1.77,3.06-3.89,3C121,97.21,116.62,97.22,112.2,97.22Z"/><path class="cls-1" d="M112.09,109.94H99.66c-2.21,0-4.17-.5-4.26-3.13-.11-3,2-3.34,4.37-3.34q12.65,0,25.28,0c2.2,0,4.21.41,4.27,3.06.07,2.87-2,3.42-4.39,3.41Z"/><path class="cls-1" d="M112.32,121.89c-4.28,0-8.56,0-12.84,0-2.2,0-4.11-.66-4.1-3.31s2-3.14,4.17-3.14q12.84,0,25.67,0c2.22,0,4.15.52,4.11,3.22s-2,3.22-4.18,3.24C120.87,121.91,116.59,121.89,112.32,121.89Z"/><path class="cls-1" d="M106.11,66.35c2.27,0,4.54,0,6.81,0,2,0,3.37,1,3.41,3.13a2.92,2.92,0,0,1-3,3.14c-5.07.14-10.14.16-15.21,0a2.84,2.84,0,0,1-2.77-3.3,2.87,2.87,0,0,1,3.14-2.93c2.53-.07,5.07,0,7.61,0Z"/><path class="cls-1" d="M186.4,32a17.69,17.69,0,1,1-17.53-17.74A17.79,17.79,0,0,1,186.4,32Zm-6.47-.16a11.22,11.22,0,1,0-11.12,11.32A11.32,11.32,0,0,0,179.93,31.86Z"/><path class="cls-1" d="M49.62,31.89A17.68,17.68,0,1,1,32,14.28,17.78,17.78,0,0,1,49.62,31.89Zm-6.46.1A11.22,11.22,0,1,0,31.91,43.18,11.33,11.33,0,0,0,43.16,32Z"/><path class="cls-1" d="M32,151.06a17.68,17.68,0,1,1-17.72,17.53A17.76,17.76,0,0,1,32,151.06ZM31.9,180A11.22,11.22,0,1,0,20.72,168.7,11.33,11.33,0,0,0,31.9,180Z"/><path class="cls-1" d="M168.56,151.06A17.68,17.68,0,1,1,151,168.79,17.79,17.79,0,0,1,168.56,151.06Zm11.37,17.59A11.22,11.22,0,1,0,168.8,180,11.31,11.31,0,0,0,179.93,168.65Z"/></g></g></svg>