<svg xmlns="http://www.w3.org/2000/svg" viewBox="0 0 65.17 65.17"><defs><style>.cls-1{fill:#6c2911;}</style></defs><g id="Capa_2" data-name="Capa 2"><g id="Capa_1-2" data-name="Capa 1"><path class="cls-1" d="M51.53,23.2c2-2.09,3.85-4.05,5.78-5.87a4.6,4.6,0,0,1,7.75,2.36,4.68,4.68,0,0,1-1.51,4.49c-3.76,3.74-7.49,7.5-11.26,11.22a2.69,2.69,0,0,0-.89,2.1c0,7.55,0,15.09,0,22.64q0,5-5,5H5c-3.32,0-5-1.69-5-5V5.06C0,1.64,1.64,0,5.07,0H46.42c3.33,0,5,1.66,5,5q0,8.77,0,17.55A6.2,6.2,0,0,0,51.53,23.2Zm-7.75,18c-1.32.58-2.45,1.06-3.56,1.57a1.33,1.33,0,0,1-1.83-1.87c.71-1.58,1.38-3.19,2.12-4.76.84-1.78,1.32-3.79,3-5.08.31-.24.27-.6.27-.93,0-7.22,0-14.43,0-21.64,0-.64-.15-.9-.85-.88-1.82,0-3.64,0-5.47,0a.85.85,0,0,0-1,.79,3.86,3.86,0,0,1-4.18,3.29q-6.56,0-13.11,0A3.87,3.87,0,0,1,15,8.43c-.15-.63-.39-.81-1-.8-1.74,0-3.48.07-5.22,0-.9,0-1.12.26-1.11,1.14q0,23.79,0,47.59c0,.95.23,1.21,1.19,1.2,3.77-.06,7.55,0,11.33,0,.78,0,1.46.14,1.71,1s-.46,1.57-1.62,1.57H6.87c-1.39,0-1.78-.41-1.78-1.85V6.94c0-1.49.38-1.84,1.91-1.85,2.29,0,4.58-.06,6.87,0,1.12,0,1-.6,1-1.28s.2-1.34-.95-1.31c-3,.08-5.94,0-8.91,0-1.86,0-2.43.57-2.43,2.41q0,27.62,0,55.23c0,1.84.58,2.41,2.44,2.41H46.36c2,0,2.51-.55,2.51-2.47q0-10.05,0-20.11c0-.31.13-.66-.13-.94-2.4.81-2.4.81-2.4,3.16V58c0,1.74-.31,2-2.09,2H31.52a5.26,5.26,0,0,1-.89,0,1.22,1.22,0,0,1-1.08-1.23,1.2,1.2,0,0,1,1-1.26,4.84,4.84,0,0,1,1,0c3.73,0,7.47,0,11.2,0,.63,0,1,0,1-.86C43.76,51.59,43.78,46.5,43.78,41.22ZM25.7,2.55c-2.45,0-4.91,0-7.36,0-.73,0-1,.23-.94.94,0,1.31,0,2.63,0,3.94S18,9.15,19.24,9.16h13c1.28,0,1.77-.48,1.8-1.76s0-2.62,0-3.93c0-.73-.24-.94-1-.93C30.62,2.58,28.16,2.55,25.7,2.55ZM46.33,27.94c1-1,2.55-1.4,2.55-3.1,0-6.7,0-13.39,0-20.09,0-1.53-.63-2.18-2.14-2.19-3,0-6.1,0-9.15,0-1.22,0-1,.71-1,1.39s.1,1.23,1.07,1.19c2.2-.07,4.41,0,6.61,0,1.78,0,2.09.31,2.09,2.05v20.8Zm1.49,8.24c.42-.36.68-.56.91-.8l8.54-8.53c2.24-2.25,2.21-2.22,0-4.45-.64-.64-1-.49-1.5.05Q51.22,27,46.67,31.54c-1.63,1.63-1.62,1.62,0,3.25C47.06,35.21,47.41,35.69,47.82,36.18ZM62.61,20.53a2,2,0,0,0-1-1.69,2,2,0,0,0-2.16.05c-1.08.67-1.11,1-.21,1.87.54.54,1.09,1.07,1.61,1.62.34.36.6.35.94,0A2.51,2.51,0,0,0,62.61,20.53ZM42,39.17c.7-.29,1.09-.44,1.47-.61,2.64-1.17,2.64-1.17.32-3,0,0-.07,0-.17,0Z"/><path class="cls-1" d="M16.55,26H12.87c-1.09,0-1.67-.45-1.67-1.57V16.78a1.32,1.32,0,0,1,1.48-1.5h7.74a1.33,1.33,0,0,1,1.48,1.5c0,2.54,0,5.08,0,7.62,0,1.13-.59,1.59-1.67,1.57Zm2.79-5.39c0-2.75,0-2.75-2.74-2.75h-.13c-2.72,0-2.72,0-2.72,2.77s0,2.82,2.81,2.82S19.34,23.42,19.34,20.58Z"/><path class="cls-1" d="M21.9,34.49c0,1.27,0,2.54,0,3.81,0,1.09-.45,1.67-1.58,1.67H12.71a1.34,1.34,0,0,1-1.51-1.48V30.75a1.34,1.34,0,0,1,1.51-1.48c2.54,0,5.08,0,7.61,0,1.13,0,1.6.58,1.58,1.67S21.9,33.31,21.9,34.49Zm-5.35,2.93c2.79,0,2.79,0,2.79-2.7,0-2.9,0-2.9-2.85-2.9s-2.74,0-2.74,2.77S13.75,37.42,16.55,37.42Z"/><path class="cls-1" d="M16.43,54H12.75A1.37,1.37,0,0,1,11.2,52.4c0-2.5,0-5,0-7.49,0-1.1.48-1.65,1.6-1.64h7.49c1.11,0,1.62.53,1.61,1.63,0,2.46,0,4.91,0,7.36,0,1.16-.49,1.73-1.67,1.71S17.7,54,16.43,54Zm0-2.55c2.91,0,2.91,0,2.91-2.84s0-2.76-2.74-2.76-2.85,0-2.85,2.9C13.75,51.42,13.75,51.42,16.43,51.42Z"/><path class="cls-1" d="M30.19,48.62c-.19-.22-.34-.42-.5-.59-.47-.49-1-1-1.42-1.47a1.16,1.16,0,0,1,.09-1.71A1,1,0,0,1,30,44.77c1.49,2,2.81,2,4.29,0a1,1,0,0,1,1.59.1A1.05,1.05,0,0,1,36,46.46c-2,1.48-2.07,2.8,0,4.29a1.06,1.06,0,0,1-.07,1.6,1.18,1.18,0,0,1-1.72.08,8.28,8.28,0,0,1-1.27-1.24c-.58-.74-1-.64-1.59,0a8.09,8.09,0,0,1-1.18,1.16,1.26,1.26,0,0,1-1.77-1.78c.42-.48.89-.91,1.33-1.37C29.83,49.06,30,48.86,30.19,48.62Z"/><path class="cls-1" d="M27.84,19.38c.91.13,1.41.88,1.95,1.5s1,.78,1.66,0c1.18-1.32,2.49-2.53,3.74-3.79.65-.66,1.37-.95,2.09-.21s.36,1.38-.25,2c-1.77,1.75-3.53,3.52-5.29,5.29a1.37,1.37,0,0,1-2.2,0c-.87-.86-1.75-1.73-2.6-2.61a1.19,1.19,0,0,1-.25-1.5A1.35,1.35,0,0,1,27.84,19.38Z"/><path class="cls-1" d="M27.84,33.38c.91.14,1.41.88,1.95,1.5s1,.77,1.66,0c1.19-1.32,2.5-2.53,3.75-3.79.64-.66,1.37-.95,2.08-.21s.36,1.38-.25,2q-2.66,2.64-5.29,5.29a1.38,1.38,0,0,1-2.21,0c-.86-.87-1.74-1.73-2.59-2.61a1.19,1.19,0,0,1-.25-1.51A1.36,1.36,0,0,1,27.84,33.38Z"/><path class="cls-1" d="M27,58.82c-.13.76-.54,1.27-1.33,1.23a1.16,1.16,0,0,1-1.19-1.33,1.15,1.15,0,0,1,1.23-1.17C26.5,57.55,26.89,58.06,27,58.82Z"/></g></g></svg>