<svg xmlns="http://www.w3.org/2000/svg" viewBox="0 0 90.48 90.54"><defs><style>.cls-1{fill:#c6875e;stroke:#c6875e;stroke-miterlimit:10;stroke-width:0.5px;}</style></defs><g id="Capa_2" data-name="Capa 2"><g id="Capa_1-2" data-name="Capa 1"><path class="cls-1" d="M49.58,61.57c3.64-3.58,7.93-6.39,10.14-11.1,1-2.14,2.73-3.82,4.26-5.62a4.71,4.71,0,0,1,3.25-1.38c.87-.12,1.33-.46,1.2-1.39a2.16,2.16,0,0,1,0-.36c0-1.09.28-2.3-.11-3.23s-1.82-.39-2.76-.67a7.63,7.63,0,0,1-5.78-7.07c-.05-1.25-.48-1.6-1.58-1.42s-1.49-.32-1.39-1.41c.16-1.75.13-3.51.36-5.24a3.24,3.24,0,0,0-1.49-3.49C52,16.51,50.3,12.89,51.32,8.3A9.84,9.84,0,0,1,60,.43a61.29,61.29,0,0,1,9.77,0,11.8,11.8,0,0,1,7.74,4,12,12,0,0,0,5.89,3.82c4.09,1.07,6.71,5,6.8,9.28,0,2.36,0,4.71,0,7.07a10.36,10.36,0,0,1-6.35,10.27c-.82.4-2.14.49-2.28,1.53a25.66,25.66,0,0,0,0,4.88c0,.51.71.58,1.12.79A13,13,0,0,1,90.21,54.5q0,17,0,34.08c0,1.36-.34,1.71-1.7,1.7q-15.77-.09-31.54,0c-1.45,0-1.67-.49-1.64-1.76.07-3.9,0-7.8,0-11.86a3.24,3.24,0,0,0-.64.34,13.69,13.69,0,0,1-11.9,4.51c-1.6-.13-2.13.34-2,2,.15,1.8,0,3.63,0,5.44,0,1-.23,1.36-1.3,1.35q-16.12,0-32.27,0C6.27,90.28,6,89.91,6,88.92c0-3.2,0-6.41,0-9.61a2.71,2.71,0,0,0-.87-2.22A15.76,15.76,0,0,1,.25,65.24c0-3.93,0-7.86,0-11.79C.28,44.62,5.93,38,14.7,36.72c1.21-.18,1.7-.5,1.53-1.74a9.45,9.45,0,0,1,0-2,9.28,9.28,0,0,0-1.33-4.82c-1.44-2.84-3.38-5.36-4.75-8.18C6,11.32,12.59.59,22.23.33c3.93-.11,7.86,0,11.78,0,4.69,0,7.59,3.58,6.73,8.2a10.81,10.81,0,0,1-2.37,5.21,2.85,2.85,0,0,0-.64,2.43c.37,4,.67,8.07-.44,12.05a8.79,8.79,0,0,1-6.87,6.71c-.56.12-1.24.1-1.15,1s.76.6,1.23.63c11.18.87,19,9.3,19.08,20.49C49.59,58.56,49.58,60.07,49.58,61.57ZM3.17,58.68c0,2.82,0,5.06,0,7.29a13,13,0,0,0,12.5,12.64c4.1.1,8.22,0,12.32,0,1.1,0,1.31-.4,1.28-1.37-.06-2-.09-4,0-6,.06-1.18-.39-1.4-1.45-1.39-4.23,0-8.46,0-12.69,0-2.16,0-3.25-1.09-3.28-3.22,0-2.42.05-4.84,0-7.25,0-1.26.7-1.13,1.5-1.14s1.52,0,1.47,1.17c-.1,2.11,0,4.23,0,6.35,0,.78.1,1.23,1.06,1.21,2.24-.06,4.47,0,6.71,0,.41,0,.93,0,.91-.58-.07-1.37.32-2.78-.3-4.11-3.31-7.05-6.64-14.08-9.91-21.15-.44-.93-.89-1.07-1.8-.65a13.31,13.31,0,0,0-7.92,9.51C2.8,53.09,3.34,56.19,3.17,58.68ZM87.29,69.57c0-5.07,0-10.14,0-15.22,0-4.75-2.24-8-6.47-10-.88-.41-1.24-.31-1.49.64-.71,2.68-1.52,5.33-2.24,8A31,31,0,0,1,67.8,68.46,2.06,2.06,0,0,0,67,70.15c0,5.31,0,10.62,0,15.94,0,1.09.42,1.29,1.38,1.27,1.93-.06,3.87-.11,5.79,0,1.33.08,1.58-.42,1.57-1.64-.06-6.64,0-13.28,0-19.93,0-1.11.07-1.72,1.49-1.73s1.46.69,1.46,1.76c0,6.65,0,13.29,0,19.93,0,1.27.31,1.68,1.6,1.61a42.77,42.77,0,0,1,5.43,0c1.33.08,1.75-.28,1.72-1.68C87.23,80.32,87.29,75,87.29,69.57ZM57.7,16.88c1.19-3.7,1.43-3.9,5.64-4.73a11.27,11.27,0,0,1,11.9,4.94,1.39,1.39,0,0,0,1.15.66,5.84,5.84,0,0,1,3.09,10.18c-1,1-.49,4.39.78,5.12.25.14.42.06.66,0a8.23,8.23,0,0,0,6.36-8c0-2.42,0-4.83,0-7.25-.07-3.52-2.23-6.49-5.65-7A7.6,7.6,0,0,1,77,8q-1.05-1.12-2.19-2.16a9.44,9.44,0,0,0-6-2.61c-2.65-.12-5.32-.12-8,0a7.29,7.29,0,0,0-6.73,5.87A7.13,7.13,0,0,0,57.7,16.88ZM32.13,67c1.57,0,3.15,0,4.72,0,.86,0,1.15-.28,1.13-1.14,0-2.12.05-4.23,0-6.34,0-1.12.44-1.31,1.39-1.26s1.66-.11,1.58,1.26c-.12,2,0,4.1,0,6.16,0,.43-.22,1,.38,1.26,2,1,5.38-1,5.4-3.24,0-2.6.13-5.2,0-7.79a16.93,16.93,0,0,0-9.59-14.75c-1.14-.6-1.58-.42-2.06.79-2.56,6.39-5.17,12.75-7.88,19.07A12.6,12.6,0,0,0,26.36,66c0,.8.3,1,1.06,1C29,67,30.56,67,32.13,67ZM71.34,39.9a6.76,6.76,0,0,1,0,.9c-.23,1.44.27,1.92,1.73,1.53s3.07-.67,4.6-1c.41-.08.94-.07.88-.67-.19-2.15.7-4.42-1-6.4a9.17,9.17,0,0,1-1.78-4.88c-.19-1.32-.29-2.51,1.3-3.31a2.68,2.68,0,0,0,1.35-3.42,2.94,2.94,0,0,0-3.25-2c-.42,0-.85,0-1.27,0-.86.1-1.23-.22-1.13-1.11a2.92,2.92,0,0,0-1.48-2.72,9.49,9.49,0,0,0-9.43-1.27,1.4,1.4,0,0,0-1,1.31q-.48,4.23-1,8.44c-.11.89.23,1.28,1.09,1.13,1.68-.31,1.92.61,1.75,1.95a10,10,0,0,0,0,1.45c0,3.76,2.63,5.88,6.35,5.18,1.72-.33,3.45-.61,5.14-1.05,1-.26,1.29.08,1.59,1,.52,1.66-.46,1.77-1.6,2C71.34,37.44,71.34,37.46,71.34,39.9ZM27.05,13.37c-1.15,0-2.3,0-3.44,0a4.35,4.35,0,0,0-4.48,4.45,28,28,0,0,0,0,2.9c.06,1-.16,1.42-1.26,1.38-1.34-.06-1.76.84-1.62,2.05a3.53,3.53,0,0,0,1,2.47c2.2,1.66,1.94,3.95,1.88,6.22,0,.85.05,1.7,0,2.54-.09,1,.35,1.23,1.26,1.19,1.63,0,3.26,0,4.89,0,.42,0,1,.24,1.09-.55,0-.61.1-1.18-.71-1.42a16.28,16.28,0,0,1-3.61-2c-.69-.42-.62-.76-.29-1.44.73-1.52,1.47-1.36,2.72-.5,4.7,3.22,9.1,1.4,10.27-4.19A36,36,0,0,0,35,17a4.12,4.12,0,0,0-4.11-3.64C29.59,13.33,28.32,13.38,27.05,13.37ZM28.29,3.22h0c-2,0-4-.07-6,0-7.75.31-12.89,9-9.41,15.83,1,1.94,1.68,2,3.07.4.44-.52.21-1.15.23-1.72a7.26,7.26,0,0,1,7.26-7.28c2.41-.05,4.83,0,7.25,0a7.2,7.2,0,0,1,3.31.81c2,1,2.26,1,3.15-1.11a9.79,9.79,0,0,0,.74-2.6c.34-2.62-1.16-4.29-3.82-4.34C32.16,3.19,30.22,3.22,28.29,3.22ZM9,79.77c0,2.11.1,3.86,0,5.59-.11,1.53.25,2,1.93,2,7.66-.11,15.32,0,23,0,4.15,0,4.09,0,4.15-4.1,0-1.3-.26-1.75-1.67-1.73-5.55.09-11.1,0-16.65,0C16.12,81.58,12.56,81.65,9,79.77Zm50.81-22.7a25.14,25.14,0,0,0-1.49,8.16c0,5.93,0,11.85,0,17.77,0,4.46,0,4.41,4.43,4.37,1.16,0,1.39-.39,1.38-1.46q-.07-7.6,0-15.22c0-1.25-.54-2.69.84-3.67.32-.24,0-.56-.09-.8C63.23,63.28,61.6,60.36,59.78,57.07ZM42.57,78.45c5.78,1.08,9.22-2.32,12.52-6a1,1,0,0,0,.26-.64c.09-3.8-.17-7.61.21-11.52a81.55,81.55,0,0,0-6.21,6.11c-1.85,2-3.88,3.58-6.94,3.53A7.71,7.71,0,0,1,42.57,78.45Zm-10.39-4.2c0,4.93,0,4.93,4.9,4.36a4.21,4.21,0,0,0,3.55-5.56c-.87-2.69-3.48-3.92-7.61-3-1.83.4-.43,2.44-.83,3.67A1.62,1.62,0,0,0,32.18,74.25Zm35.26-9.68A14.63,14.63,0,0,0,70,61.65a2.44,2.44,0,0,0,.64-2.15C70,57,69.45,54.58,69,52.1c-.17-.82-.54-1.06-1.34-1s-.88.65-.94,1.24c-.28,2.39-.37,4.82-.87,7.17C65.35,61.6,66.32,63,67.44,64.57ZM24.77,58.93c1.25-2.48,2.28-4.62,1.48-7.26a35.22,35.22,0,0,1-.92-5.14c-.1-.69-.13-1.27-1.11-1.27s-1,.45-1.16,1.2c-.27,1.85-.62,3.68-.95,5.52a2.73,2.73,0,0,0,.2,1.75C23.11,55.34,23.85,57,24.77,58.93Zm48.12-2.62c1.5-4.09,2.43-7.82,3.52-11.76-1.15.43-2.32.05-2.79,1-.78,1.53-2.12,3-2,4.73A39.15,39.15,0,0,0,72.89,56.31ZM29,49c1.15-2.78,2.2-5.25,3.17-7.75.18-.46,1-1.22-.13-1.55-.82-.23-1.62-.49-2.3.61A8.72,8.72,0,0,0,29,49Zm-9.38-1.13c1.69-3,.29-5.41-1.09-7.85-.58-1-1.6-.68-2.25-.45-.92.32-.06,1,.13,1.45C17.37,43.3,18.45,45.51,19.58,47.89Zm1.86-8.37c.94,1.39.9,3.17,3.1,2.88,1.84-.24,1.51-1.78,2.27-2.88ZM63,56.51a20.78,20.78,0,0,0,.82-6.62C60.89,52.91,60.82,53.54,63,56.51Zm7-10.54c-1.16.25-2.36-.13-2.9,1.1-.15.34-.25,1,.51,1.1C69.11,48.47,69.49,47.42,69.93,46Z"/><path class="cls-1" d="M72.78,74.35c-.16.88-.66,1.44-1.58,1.35a1.31,1.31,0,0,1-1.28-1.46,1.33,1.33,0,0,1,1.55-1.36A1.4,1.4,0,0,1,72.78,74.35Z"/><path class="cls-1" d="M71.41,81.54c-.89-.08-1.48-.53-1.49-1.45a1.3,1.3,0,0,1,1.33-1.41,1.33,1.33,0,0,1,1.5,1.42C72.77,80.93,72.22,81.38,71.41,81.54Z"/></g></g></svg>