<svg xmlns="http://www.w3.org/2000/svg" viewBox="0 0 95.58 102.36"><defs><style>.cls-1{fill:#c6875e;stroke:#c6875e;stroke-miterlimit:10;stroke-width:0.75px;}</style></defs><g id="Capa_2" data-name="Capa 2"><g id="Capa_1-2" data-name="Capa 1"><path class="cls-1" d="M81.54,30.09c1.65-3.1,3.28-6.19,4.95-9.27,1.52-2.81,4-3.73,6.45-2.4s2.94,3.94,1.51,6.6Q88.26,36.51,82,47.94a7.17,7.17,0,0,0-.92,3.59q.06,21.71,0,43.41c0,5-2.06,7-7,7H7.48c-5.14,0-7.1-2-7.1-7.18q0-39.61,0-79.22c0-5.28,2-7.27,7.23-7.28H21.3c.85,0,1.68.13,1.67-1.21s1-1.38,2-1.38c2.45,0,4.91,0,7.37,0a2,2,0,0,0,2.13-1.2C37.52-1,44.58-1,47.67,4.5a2,2,0,0,0,2.11,1.23c2.46-.06,4.92,0,7.38,0,.8,0,1.85.07,1.87.94,0,2,1.4,1.64,2.59,1.65,4.28,0,8.57,0,12.85,0s6.6,2.25,6.61,6.63c0,5,0,10.06,0,15.09ZM73,65.11c-2.2,2.84-4.9,4.24-7.32,6-1.22.89-2.36.25-2.16-1.2.5-3.64.43-7.37,2.5-10.73,2.28-3.69,4.14-7.64,6.19-11.48A5.3,5.3,0,0,0,73,45.12c0-8.21,0-16.43,0-24.64,0-2.22-.89-3-3.09-3.06-2.67,0-5.34,0-8,0-1.23,0-2.65-.42-3,1.52-.12.63-1,.61-1.66.61H25c-.65,0-1.55,0-1.68-.59-.4-2.1-1.95-1.51-3.22-1.53-2.74,0-5.48,0-8.22,0-2.54,0-3.28.73-3.28,3.24q0,34.55,0,69.1c0,2.38.79,3.17,3.15,3.17q29.07,0,58.14,0c2.21,0,3.12-.85,3.13-3C73,81.8,73,73.74,73,65.11Zm5.56-10.34a13.77,13.77,0,0,0-3.07,9c.2,8.64.08,17.28,0,25.91,0,3.81-2,5.81-5.65,5.81q-29.18,0-58.35,0C8,95.46,6,93.53,6,90Q6,55.15,6,20.28C6,16.75,8,14.9,11.54,14.87c3.23,0,6.46-.1,9.69,0C22.94,15,23,14.11,23,12.85s-.07-2.08-1.75-2c-4.42.11-8.84,0-13.27,0-4.26,0-5,.75-5,5.05V94.48c0,.42,0,.84,0,1.26.1,2.54,1.1,3.58,3.6,3.67,1.41,0,2.81,0,4.22,0H74c3.67,0,4.58-.93,4.58-4.62v-40ZM41,17c4.71,0,9.41,0,14.11,0,1.12,0,1.68-.21,1.62-1.49-.1-2-.09-3.93,0-5.89,0-1.18-.46-1.42-1.49-1.39-2.18,0-4.36-.07-6.53,0-1.62.08-2.56-.29-3-2.06A4.32,4.32,0,0,0,41.38,3c-2.09-.13-4.07.65-4.59,2.62-.72,2.73-2.42,2.72-4.57,2.66s-5-.94-6.3.33-.22,4.27-.47,6.47c-.19,1.67.53,2,2,1.94C32,16.94,36.46,17,41,17Zm34.58,23.3c1.34-1.71,3-3.27,3-5.43.08-6.81,0-13.62,0-20.43,0-2.3-1.21-3.53-3.52-3.56-4.77-.06-9.54.06-14.31-.06-1.78,0-1.49,1-1.49,2S58.88,15,60.67,14.9c2.8-.14,5.62,0,8.42,0,4.73,0,6.44,1.73,6.44,6.49Q75.55,30.82,75.53,40.29ZM89.19,29.35c-.54-1.06-1.68-1.36-2.61-1.84s-1.06.61-1.33,1.11C79.53,39.3,73.88,50,68.11,60.67c-.83,1.52-.18,1.95,1,2.7,1.51,1,1.77-.17,2.25-1q8.58-15.8,17.13-31.58C88.67,30.32,88.9,29.88,89.19,29.35Zm3.41-6.46c.13-1.44-.59-2.37-1.7-2.45s-3.52,2.52-3.38,4a2.6,2.6,0,0,0,2.72,2C91.77,25.93,92,24,92.6,22.89Z"/><path class="cls-1" d="M23,64.31a9.42,9.42,0,0,1-8.87-6,9.3,9.3,0,0,1,2-10.32A9.54,9.54,0,0,1,26.5,45.73c.71.28,1.64.52,1.6,1.45-.1,1.85-1.28,1.37-2.42,1-5.41-1.83-10.42,2.22-9.55,7.71a7,7,0,0,0,7.1,5.88,7,7,0,0,0,6.85-6,6.11,6.11,0,0,0,.05-1.05c0-1,.33-1.77,1.38-1.7s1.16,1,1.17,1.9A9.57,9.57,0,0,1,23,64.31Z"/><path class="cls-1" d="M13.44,31.67a9.65,9.65,0,0,1,13.05-8.9c.93.37,2,.75,1.51,2s-1.45.66-2.34.37c-4.26-1.4-8.47.76-9.44,4.82a7.09,7.09,0,0,0,6,8.79c4,.61,7.57-2.43,7.94-6.81.08-1,.12-2,1.4-1.87s1.16,1.18,1.15,2.09a9.62,9.62,0,0,1-19.23-.53Z"/><path class="cls-1" d="M23.25,68.05a9.26,9.26,0,0,1,3.87.9c.8.35,1.26.94.88,1.83s-1.1.83-1.79.53a7.19,7.19,0,0,0-5.12-.41,7,7,0,0,0-5,8,7.05,7.05,0,0,0,14-.6c.06-.62-.1-1.27.34-1.82a1.16,1.16,0,0,1,1.31-.41c.87.25.92,1,.9,1.69a9.16,9.16,0,0,1-5.06,8.39,9.11,9.11,0,0,1-10.3-.78A9.48,9.48,0,0,1,14,74.65,9.59,9.59,0,0,1,23.25,68.05Z"/><path class="cls-1" d="M52.23,29.34H39.83c-.9,0-2,.16-2.09-1.14s1.09-1.4,2.1-1.4H65.07c1,0,2,.12,2,1.32s-1.08,1.23-2,1.23C60.78,29.33,56.5,29.34,52.23,29.34Z"/><path class="cls-1" d="M52.45,49.83H65.06c.92,0,2,0,2,1.23s-1,1.31-2,1.31H39.63c-1,0-2-.16-1.9-1.41s1-1.13,1.9-1.13Z"/><path class="cls-1" d="M52.24,75.26H39.83c-.89,0-2,.15-2.09-1.14s1.08-1.4,2.09-1.4H65.06c1,0,2,.11,2,1.3s-1.06,1.25-2,1.25Z"/><path class="cls-1" d="M48.88,34.28h9c.94,0,2,0,2,1.23s-1,1.32-2,1.32H39.63c-1,0-2-.14-1.9-1.39s1-1.15,1.89-1.15Z"/><path class="cls-1" d="M48.87,59.72H39.62c-.86,0-1.84,0-1.89-1.14s1-1.39,1.91-1.39h18.3c1,0,2,.11,2,1.32s-1.1,1.22-2,1.22Z"/><path class="cls-1" d="M48.66,80.2c3.08,0,6.17,0,9.25,0,.93,0,2,0,2,1.22s-1,1.32-2,1.32H39.64c-1,0-2-.13-1.91-1.39s1-1.15,1.88-1.15C42.63,80.19,45.64,80.2,48.66,80.2Z"/><path class="cls-1" d="M19.91,51.77a5.57,5.57,0,0,1,2.37,2c.8.9,1.34.86,2.17,0,2.17-2.28,4.44-4.47,6.67-6.7.66-.65,1.36-1.43,2.29-.51s.15,1.65-.49,2.3c-2.72,2.74-5.47,5.44-8.16,8.19-1,1-1.86,1-2.82,0s-2-2-3-3a1.31,1.31,0,0,1-.29-1.55A1.25,1.25,0,0,1,19.91,51.77Z"/><path class="cls-1" d="M33.85,24.33A2.35,2.35,0,0,1,33,25.81c-2.72,2.73-5.47,5.43-8.16,8.18-1,1-1.82,1.17-2.83.08s-1.87-1.88-2.81-2.82c-.61-.61-.94-1.3-.27-2s1.35-.38,2,.17c.83.72,1.51,2.27,2.44,2.05s1.89-1.53,2.78-2.4c1.75-1.72,3.48-3.46,5.21-5.19A1.52,1.52,0,0,1,33,23.3,1.35,1.35,0,0,1,33.85,24.33Z"/><path class="cls-1" d="M33.85,70.32a2.62,2.62,0,0,1-.92,1.46C30.21,74.5,27.47,77.2,24.78,80c-1,1-1.85,1.06-2.83,0S20,78,19,77a1.23,1.23,0,0,1-.06-1.87c.61-.6,1.25-.38,1.87.12.9.73,1.6,2.39,2.61,2.12s2-1.65,2.92-2.58c1.7-1.66,3.37-3.36,5.06-5a1.42,1.42,0,0,1,1.68-.49A1.33,1.33,0,0,1,33.85,70.32Z"/></g></g></svg>