<svg xmlns="http://www.w3.org/2000/svg" viewBox="0 0 101.99 101.86"><defs><style>.cls-1{fill:#c6875e;}</style></defs><g id="Capa_2" data-name="Capa 2"><g id="Capa_1-2" data-name="Capa 1"><path class="cls-1" d="M0,58c0-3.57,0-7.14,0-10.71.1-5.18,3.3-8.35,8.46-8.37,7,0,14.11-.06,21.16,0,1.7,0,2.35-.4,2.27-2.19-.13-3.15,0-6.31,0-9.46a5.15,5.15,0,0,1,2.46-4.87,2.92,2.92,0,0,0,1.55-3c0-5.56,0-11.12,0-16.68,0-1-.27-2.31,1.16-2.68,1.22-.31,1.79.41,2.06,1.56.17.74,1,.77,1.6,1Q47.26,5.32,53.82,8c.86.35,1.8.65,1.86,1.75.08,1.25-.91,1.6-1.86,2Q47.36,14.33,40.93,17c-.86.35-2.07.4-1.88,1.84.16,1.22-.52,2.57,1.19,3.43,2,1,2.8,2.92,2.79,5.18,0,5.31,0,10.62,0,15.93,0,4-2.5,6.54-6.47,6.69a45.48,45.48,0,0,1-5.72,0c-2.23-.21-3,.47-2.95,2.83.12,13.7.06,27.39.05,41.08a16.29,16.29,0,0,1-.18,3A5.81,5.81,0,0,1,19,101a2.3,2.3,0,0,0-2.8,0,5.88,5.88,0,0,1-9-5.23c-.09-6.39,0-12.78,0-19.17,0-1.29,0-2-1.77-1.88-3.09.25-5.26-2-5.35-5.24C0,65.65,0,61.83,0,58ZM24.65,72.29c0-7.46.05-14.93,0-22.39,0-2.27.79-3.15,3.07-3,2.73.14,5.47.07,8.21,0s3.91-1.11,3.94-4c.06-5.06,0-10.12,0-15.18,0-1.68-.54-3.13-2.44-3.09S35,26.1,35.05,27.81c0,3.74-.12,7.48.05,11.2.12,2.46-.86,3.16-3.19,3.13-7.63-.1-15.26-.06-22.89,0-4.08,0-5.81,1.73-5.82,5.72,0,6.8,0,13.61,0,20.41,0,1.55,0,3.27,2.09,3.22,2,0,1.89-1.7,1.88-3.16,0-5.55,0-11.11,0-16.67,0-1.18.19-2.27,1.66-2.24s1.49,1.09,1.5,2.13c0,2.16.15,4.33,0,6.47s.67,2.56,2.55,2.43c2.23-.14,4.48,0,6.72,0,1.17,0,2.56-.07,2.61,1.56,0,1.83-1.47,1.7-2.71,1.71-2.15,0-4.32.13-6.46,0-2-.14-2.74.4-2.72,2.56.12,9.37.05,18.75.07,28.12a8.8,8.8,0,0,0,.26,2.46,2.45,2.45,0,0,0,2.63,1.85,2.4,2.4,0,0,0,2.42-1.8,10.54,10.54,0,0,0,.28-2.7q0-12.19,0-24.39c0-.66,0-1.32,0-2,0-1,.51-1.64,1.48-1.65s1.64.67,1.66,1.76c0,.58,0,1.16,0,1.74q0,12.57,0,25.14c0,2.54,1.05,4,2.81,3.88,2.43-.19,2.73-1.93,2.72-3.94C24.62,87.23,24.65,79.76,24.65,72.29ZM39.05,5.47c0,2.66,0,5,0,7.28,0,.61-.15,1.55,1,1.1,3.14-1.24,6.25-2.54,9.82-4Z"/><path class="cls-1" d="M80.43,58.06c0,3.65,0,7.3,0,11s-2,5.84-5.62,5.69c-1.7-.06-1.47.77-1.47,1.75,0,6.14,0,12.28,0,18.41,0,6-4.28,8.57-9.51,5.78-.86-.46-1.28-.18-2,.19-4.64,2.57-9.25-.11-9.32-5.46q-.11-9.33,0-18.67c0-1.49-.17-2.1-2-2a4.86,4.86,0,0,1-5.1-5c-.08-7.79-.11-15.59,0-23.38A7.63,7.63,0,0,1,53.12,39q9.83-.16,19.65,0a7.71,7.71,0,0,1,7.63,7.64c.1,3.82,0,7.63,0,11.45ZM59.17,45.85c-2.37-4-3.21-4.4-6.78-3.56a4.66,4.66,0,0,0-3.8,4.86c-.06,7.22,0,14.44,0,21.66,0,1.37.37,2.62,2,2.68,1.81.06,2-1.3,2-2.76,0-2.57-.07-5.15,0-7.72.06-1.85,1.48-2.84,2.44-1.74,1.16,1.32,2.45,1.11,3.81,1.13h6.47c1.18,0,2.31.19,2.35,1.6s-1.11,1.67-2.27,1.68c-2.49,0-5,.09-7.47,0-1.64-.07-2.12.5-2.11,2.12.07,8.47,0,16.93,0,25.4,0,1.57,0,3.15,0,4.72a2.57,2.57,0,0,0,2.64,2.74c1.67.06,2.56-1,2.83-2.57a12,12,0,0,0,0-2V72.16c0-1.41,0-2.82,0-4.23,0-1.07.46-1.83,1.58-1.81s1.55.79,1.54,1.85c0,.58,0,1.16,0,1.74V93.86c0,3.27.83,4.72,2.72,4.8s2.84-1.33,2.84-4.84q0-15.93,0-31.86c0-1.3-.25-3,1.67-3s1.58,1.78,1.6,3.07c0,2.41,0,4.81,0,7.22,0,1.26.51,2.18,1.79,2.26s2.08-.83,2.16-2.19c0-.25,0-.5,0-.75,0-7,0-13.94,0-20.91,0-3.1-1.42-4.92-4.05-5.43-3.46-.68-4.94.17-6.34,3.64,4,.48,4,.48,4,4.67,0,1.49,0,3,0,4.48s-.73,2.29-2.26,2.29c-2.32,0-4.65,0-7,0-7.78-.05-6.66.83-6.72-6.77C54.93,46.35,55,46.35,59.17,45.85ZM63.1,54h3.23c2,0,1.32-1.51,1.38-2.52s.31-2.24-1.46-2.17c-2.15.08-4.31.08-6.46,0-1.35,0-1.61.55-1.69,1.77-.15,2.1.29,3.38,2.77,3A13.82,13.82,0,0,1,63.1,54ZM61,42.26c.64,1.11,1.08,2.42,2.09,2.32.75-.07,1.58-1.17,1.62-2.32Z"/><path class="cls-1" d="M91.64,72.18c0-7.47,0-14.94,0-22.41,0-1.2-.24-2.81,1.59-2.77s1.57,1.6,1.57,2.83q0,9.35,0,18.67c0,1.52.12,3,2.08,3,1.77,0,1.91-1.47,1.91-2.9,0-7.06,0-14.11,0-21.16,0-3.38-1.83-5.21-5.24-5.3-3.23-.08-6.47,0-9.71,0-1.17,0-2.53,0-2.45-1.68.08-1.48,1.29-1.49,2.41-1.49,3.4,0,6.8,0,10.21,0a7.74,7.74,0,0,1,7.92,7.87c.11,7.55.09,15.1,0,22.66,0,3.39-2.18,5.43-5.58,5.23-1.54-.09-1.54.51-1.54,1.62q0,9.45,0,18.92c0,5.55-4.52,8.18-9.37,5.45-1-.55-1.42-.23-2.16.2a6,6,0,0,1-7.16-.54c-.8-.76-1.3-1.64-.51-2.61s1.53-.56,2.42,0c2.85,1.76,4.8.68,4.81-2.69,0-8.54,0-17.09,0-25.64A10.24,10.24,0,0,1,83,67.19a1.41,1.41,0,0,1,1.49-1.09,1.34,1.34,0,0,1,1.43,1.13A16.49,16.49,0,0,1,86,69.46V93.35c0,.59,0,1.17,0,1.75.07,1.93.69,3.59,3,3.51,2.09-.08,2.65-1.68,2.65-3.53q0-10.58,0-21.16Z"/><path class="cls-1" d="M84.5,17.47a9.52,9.52,0,0,1-.11,19,9.52,9.52,0,1,1,.11-19Zm6.3,9.58a6.36,6.36,0,1,0-6.36,6.32A6.44,6.44,0,0,0,90.8,27.05Z"/><path class="cls-1" d="M17.55,17.47A9.52,9.52,0,1,1,8,26.84,9.41,9.41,0,0,1,17.55,17.47ZM11.17,27a6.45,6.45,0,0,0,6.26,6.41,6.39,6.39,0,1,0,.05-12.77A6.45,6.45,0,0,0,11.17,27Z"/><path class="cls-1" d="M72.45,26.88A9.52,9.52,0,1,1,63,17.47,9.44,9.44,0,0,1,72.45,26.88ZM63,20.6a6.53,6.53,0,0,0-6.4,6.31,6.39,6.39,0,1,0,12.77,0A6.52,6.52,0,0,0,63,20.6Z"/><path class="cls-1" d="M63.06,53.28c-1-.14-1.6-.56-1.64-1.57a1.39,1.39,0,0,1,1.33-1.53,1.41,1.41,0,0,1,1.71,1.37C64.55,52.58,63.9,53,63.06,53.28Z"/></g></g></svg>