<svg xmlns="http://www.w3.org/2000/svg" viewBox="0 0 196.67 196.67"><defs><style>.cls-1{fill:#6c2911;}.cls-2{fill:#fff;}.cls-3{fill:#c5875e;}</style></defs><g id="Capa_2" data-name="Capa 2"><g id="Capa_1-2" data-name="Capa 1"><circle class="cls-1" cx="98.33" cy="98.33" r="98.33"/><circle class="cls-2" cx="98.33" cy="98.33" r="84.05"/><path class="cls-3" d="M67.75,41.4c6.12,0,12.25.07,18.37,0a5.24,5.24,0,0,1,5.35,3.32c1.81,3.78,3.76,7.49,5.6,11.26,1.56,3.18.88,5.33-2.32,6.7-1.34.57-1.14,1.45-1.14,2.41,0,7.47,0,14.93,0,22.4,0,5.25-2.45,7.75-7.67,7.76q-18.12,0-36.25,0c-5.27,0-7.68-2.43-7.7-7.71q0-11.2,0-22.4c0-1.31-.22-2.06-1.64-2.61-2.52-1-3.36-3.34-2.19-5.81,2.05-4.31,4.23-8.56,6.39-12.82.94-1.86,2.54-2.5,4.57-2.49C55.33,41.42,61.54,41.4,67.75,41.4ZM89.23,76.59c0-3.61-.12-7.23,0-10.83.09-2.13-.39-3-2.73-2.85-3.43.22-6.88.06-10.32.06q-13.86,0-27.72,0c-1,0-2.27-.46-2.26,1.4,0,8,0,16,0,23.94,0,1.77,1,2.47,2.73,2.53,2.24.08,1.56-1.53,1.57-2.61,0-5.38,0-10.75,0-16.12,0-3.36,1.61-4.87,5-5,1.51,0,3,0,4.53,0,4,0,5.47,1.48,5.49,5.47,0,5.3.06,10.59,0,15.88,0,1.62.25,2.39,2.17,2.36,6.12-.13,12.26-.11,18.38,0,2.32,0,3.15-1,3.11-3.19C89.18,84,89.23,80.28,89.23,76.59ZM42.12,58.38H93.45c-2-4-3.92-7.73-5.73-11.49a2,2,0,0,0-2.24-1.15H50c-.87,0-1.63.06-2.09,1C46,50.56,44.12,54.36,42.12,58.38Zm19.21,23.1V75.71c0-4.22,0-4.13-4.27-4.19-1.76,0-2.3.5-2.25,2.26.12,4.18,0,8.36,0,12.55,0,4.84,0,4.8,4.92,4.53,1.18-.07,1.61-.4,1.58-1.6C61.28,86.67,61.33,84.07,61.33,81.48Z"/><path class="cls-3" d="M67.8,154.94c-4.12,0-8.23,0-12.35,0-3.23,0-4.81-1.55-4.86-4.77-.07-4.28-.09-8.57,0-12.85a3.32,3.32,0,0,0-1.76-3.25c-3-1.89-5.89-3.89-8.79-5.89-2.74-1.9-3.18-4.14-1.28-6.88q5.86-8.51,11.84-16.92a9.2,9.2,0,0,1,10.63-2.77,4.3,4.3,0,0,1,2.26,2.59c.69,2,1.93,3.35,4.18,3.37s3.44-1.27,4.28-3.25c1.74-4.09,9.2-4.76,12.19-.81,4.57,6,8.78,12.29,13,18.54,1.39,2,.73,4.38-1.44,5.91C92.86,130,90,132,87,133.85a3.82,3.82,0,0,0-2,3.88c.14,4,.07,8.06,0,12.1,0,3.5-1.61,5.08-5.09,5.1C75.86,155,71.83,154.94,67.8,154.94ZM85,130c2.8-1.9,5.2-3.54,7.62-5.14.77-.51.66-1,.21-1.67-3.9-5.56-7.74-11.18-11.73-16.67-1.39-1.91-4.56-1.4-5.69.69a8.6,8.6,0,0,1-15.3,0,3.49,3.49,0,0,0-5.89-.45c-3.88,5.38-7.64,10.84-11.43,16.28-.36.51-1,1.06-.06,1.67,2.47,1.65,4.92,3.32,7.87,5.31,0-2.1,0-3.58,0-5.07s.73-2.29,2.16-2.25,2.05,1,2.06,2.35c0,.59,0,1.18,0,1.77,0,7.21,0,14.43,0,21.65,0,1.42.24,2.14,1.9,2.13,7.39-.08,14.77-.06,22.16,0,1.29,0,1.81-.41,1.75-1.73-.07-1.85,0-3.7,0-5.54,0-5.54,0-11.08,0-16.62,0-1.75-.3-4,2.27-4,2.39,0,2.11,2.14,2.12,3.82C85,127.56,85,128.53,85,130Z"/><path class="cls-3" d="M127.49,105.46a36.67,36.67,0,0,1,4.31-6.35c1.09-1.15,2.29-1.93,3.67-.63s.58,2.41-.4,3.5a20.05,20.05,0,0,0-4.41,7.82c-.29,1-.16,1.41,1,1.23,13.87-2.27,22.69,7.28,21.69,20.93a35.28,35.28,0,0,1-7.05,19.35c-5,6.47-10,7.94-17.65,5.25a3,3,0,0,0-2.39.14c-6,2.54-11.31,1.37-15.56-3.37-7.63-8.47-10.31-18.49-8.12-29.66a15,15,0,0,1,7-10.07c1.23-.76,1.66-1.24.66-2.62-1.75-2.39-2.09-5.25-2.06-8.16,0-1.94.84-3,2.91-2.9a29.53,29.53,0,0,0,3.52,0C119.79,99.56,124.19,101.07,127.49,105.46Zm21.56,24.93c0-.79-.06-1.54-.11-2.29-.74-10.66-10.18-16.16-19.86-11.51a3.54,3.54,0,0,1-3.51-.29c-7.8-3.9-17.31.43-18.93,8.89-1.73,9.08.68,17.34,6.46,24.47,3.64,4.49,7.62,5.07,12.75,2.39a3.17,3.17,0,0,1,3.28-.1c5.71,2.91,9.75,2,13.64-3.08A31.71,31.71,0,0,0,149.05,130.39Zm-23.94-19.13c-1.33-5.33-7-8.61-11.78-7.06a1,1,0,0,0-.72.57c-.66,1.71,2.3,6.39,4.07,6.13A24.37,24.37,0,0,1,125.11,111.26Z"/><path class="cls-3" d="M104.19,43.89c3.44-6.2,10.11-9.88,16.72-8.93,7.34,1,11.94,5.36,13.83,12.48.45,1.68,1,2.06,2.72,1.54,9.29-2.78,18,1.62,20.76,10.35A17.33,17.33,0,0,1,147.36,81.1c-10.28,3.41-20.67,6.46-31,9.59-2.91.88-5-.29-5.79-3.22-2.79-10.29-5.56-20.59-8.19-30.92A16.94,16.94,0,0,1,104.19,43.89Zm48.39,27.88c3.93-7,1.91-14.65-4.11-17.95-3.5-1.92-7-1.7-10.71-.5-3.86,1.26-5.81.11-6.9-3.83-.21-.73-.38-1.46-.62-2.18a11.74,11.74,0,0,0-18.07-5.92,13.53,13.53,0,0,0-5.48,14.83c2.46,9.6,5.1,19.14,7.58,28.73.36,1.39.82,1.69,2.22,1.25,9.53-3,19.08-5.9,28.62-8.85A12.55,12.55,0,0,0,152.58,71.77Z"/><path class="cls-3" d="M85,75.93c0,8.13-.34,8.46-8.51,8.46-5.57,0-6.59-1-6.59-6.57,0-2,0-4,0-6,.08-2.85,1.7-4.48,4.57-4.61,1.84-.08,3.68-.05,5.53,0,3.31.08,4.9,1.68,5,5C85,73.41,85,74.67,85,75.93Zm-4.41-.22c0-.92,0-1.85,0-2.77,0-.72-.13-1.2-1-1.38-4.25-.87-5.33-.06-5.33,4.17a8.68,8.68,0,0,1,0,1.25c-.38,2.45.42,3.45,3.09,3.23,3.26-.27,3.28-.06,3.28-3.24C80.62,76.55,80.62,76.13,80.61,75.71Z"/><path class="cls-3" d="M67.89,50c3.94,0,7.88,0,11.82,0,1.59,0,3,.32,3,2.17s-1.46,2.21-3,2.21H55.83c-1.52,0-3-.26-3-2.19s1.44-2.19,3-2.18C59.84,50,63.86,50,67.89,50Z"/><path class="cls-3" d="M110.45,129.17c.17-4.76,3.15-8.81,7-9.74,1.53-.37,3-.31,3.49,1.41s-.75,2.46-2.33,2.82c-3,.69-3.62,3.19-3.94,5.73-.2,1.61-.63,2.91-2.47,2.69S110.3,130.49,110.45,129.17Z"/><path class="cls-3" d="M116.7,139.42c.17,1.61-.45,2.65-1.81,2.73-2.1.12-2.54-1.63-2.83-3.2a1.88,1.88,0,0,1,1.94-2.38C116,136.5,116.23,138.23,116.7,139.42Z"/><path class="cls-3" d="M111.43,48.6c2.51-4.41,6.72-6.11,10.37-4.65,1.28.52,2.23,1.32,1.8,2.85s-1.58,1.73-3,1.41c-3.59-.82-6.18,1.57-5.68,5.28.18,1.32.67,2.59.89,3.91a1.94,1.94,0,0,1-1.46,2.32,1.86,1.86,0,0,1-2.49-1.09C110.58,55.11,109.61,51.55,111.43,48.6Z"/><path class="cls-3" d="M117.87,67.82a1.9,1.9,0,0,1-2.69.73c-1.23-.61-2-3.21-1.31-4.44a1.91,1.91,0,0,1,2.76-.88C117.88,63.81,118.62,66.42,117.87,67.82Z"/></g></g></svg>