<svg id="Capa_1" data-name="Capa 1" xmlns="http://www.w3.org/2000/svg" viewBox="0 0 121.54 108.23"><defs><style>.cls-1{fill:#c6875e;}</style></defs><path class="cls-1" d="M79.08,49.51h31.31c5.44,0,7.78,2.38,7.8,7.9,0,2.86,0,5.73,0,8.6-.09,4.39-2.68,7-7.07,7q-32,0-64,0c-4.39,0-7-2.57-7.07-7q-.09-4.77,0-9.56c.08-4.4,2.65-6.93,7.06-6.94C57.73,49.49,68.41,49.51,79.08,49.51ZM62.93,53.35c-5.24,0-10.49,0-15.73,0-2.43,0-3.31.86-3.35,3.29-.06,3.1,0,6.2,0,9.3,0,2.11,1,3.21,3.24,3.21,10.57,0,21.14,0,31.71,0,1.51,0,1.87-.49,1.84-1.91-.08-3.89-.11-7.79,0-11.68.06-1.73-.36-2.33-2.21-2.29C73.27,53.44,68.1,53.35,62.93,53.35Zm35.74,0c-4.13,0-8.27,0-12.4,0-1.25,0-1.88.24-1.85,1.69.09,4.13.08,8.27,0,12.4,0,1.36.43,1.76,1.78,1.76,8.26-.06,16.53,0,24.8,0,2.39,0,3.28-.91,3.33-3.33,0-3,0-6.05,0-9.07,0-2.54-.91-3.37-3.5-3.38C106.78,53.33,102.72,53.35,98.67,53.35Z"/><path class="cls-1" d="M17,73c-3.75,0-7.49,0-11.23,0C3.84,73,3,72.26,3,70.32s.06-4,0-6c-.16-5.12,1.8-9.16,6.19-11.84,1.17-.72.81-1.11.25-2C6.66,46.26,7.31,41.18,11,38.05a9.25,9.25,0,0,1,12,.05c3.68,3.17,4.34,8.18,1.44,12.48-.81,1.19-.36,1.46.54,2A12.35,12.35,0,0,1,31,63.42c0,2.22-.06,4.46,0,6.68s-.91,3-3,2.91C24.3,72.92,20.64,73,17,73Zm-.12-3.84h4.06c6.93,0,7.14-.26,6.08-7.29a8.9,8.9,0,0,0-6.38-7c-1.13-.24-1.85-.15-1.74,1.3.09,1.27,0,2.55,0,3.82,0,1.06-.21,1.54-1.43,1.59-1.71.07-2.77-.2-2.45-2.27.14-.93-.07-1.91,0-2.86.23-2-.82-1.86-2.15-1.45a8.84,8.84,0,0,0-6,7.6c-.1,1.67,0,3.35-.07,5-.08,1.3.45,1.62,1.66,1.59C11.29,69.1,14.08,69.15,16.86,69.15Zm.19-18.58a5.38,5.38,0,0,0,5.39-5.46A5.48,5.48,0,0,0,17,39.7a5.4,5.4,0,0,0-5.35,5.51A5.28,5.28,0,0,0,17.05,50.57Z"/></svg>