<svg id="Capa_1" data-name="Capa 1" xmlns="http://www.w3.org/2000/svg" viewBox="0 0 167.39 147.96"><defs><style>.cls-1{fill:#6c2911;}</style></defs><path class="cls-1" d="M138,79.69c-5.82,0-10.94,0-16.07,0a2.43,2.43,0,0,0-2,1.15c-.71.89-1.43,1.76-2.16,2.62-4.29,5.1-8.49,4.89-12.13-.62-1.64-2.49-3.42-4.91-4.83-7.52-1-1.93-2.52-2.17-4.35-2-2,.2-1.53,1.89-1.73,3.08C92.8,87.23,91,98.08,89.17,108.92c-.67,3.91-2.84,6-6.19,6.09s-5.67-1.89-6.43-5.82c-2.69-13.92-5.29-27.86-7.93-41.82-1.22,0-1.11,1.08-1.38,1.7q-3,6.78-5.77,13.62c-1.12,2.71-3,4.5-6,4.59A6,6,0,0,1,49.33,83c-1-2.76-2.73-3.54-5.57-3.4-4.81.24-9.64.07-14.85.07A70.71,70.71,0,0,0,37.74,94c3.15,4.18,6.61,8.14,9.95,12.18,1.09,1.31,2.33,2.69.63,4.24s-3,.09-4.1-1.14a128.85,128.85,0,0,1-19.7-27.51A3.36,3.36,0,0,0,21,79.64c-3.39.13-6.79.1-10.18,0-4.07-.1-6.27-2.4-6.23-6.37,0-3.73,2.27-5.86,6.22-6.11,2.41-.15,5.85,1.15,6.94-.59.95-1.52-.69-4.62-1.14-7-2.81-14.9-.22-28.26,11.42-38.9C43.38,6.56,68.16,8.28,81.42,24.42c1.5,1.83,2.1,2,3.67,0a37.31,37.31,0,0,1,47.49-8.25c.44.26.86.56,1.3.83,1.27.79,2.1,1.87,1.28,3.32-.89,1.6-2.29,1.5-3.71.61a31.53,31.53,0,0,0-15.95-5.14c-12.11-.39-21.78,4.3-28.84,14.18-3,4.23-3.83,4.29-6.73,0a32.74,32.74,0,0,0-59.76,20.3,68.62,68.62,0,0,0,2.4,14.58c.43,1.6,1.09,2.31,2.93,2.3,9.16-.07,18.31,0,27.47.14,1.75,0,1.75-1.13,2.14-2,3.11-7.27,6.16-14.57,9.24-21.86,1.65-3.89,3.94-5.56,7.08-5.21s5,2.41,5.79,6.63c1.54,8.07,3,16.16,4.53,24.24.11.59,0,1.26.92,1.77.31-1.6.58-3.12.89-4.64.71-3.5,2.77-5.46,6.36-5.59,4.21-.15,8.43-.08,12.65,0a6.62,6.62,0,0,1,5.66,3.22,34.58,34.58,0,0,1,2.17,3.38c1,2.09,1.8,2.54,4.2,1,3.5-2.24,7.77-1.09,11.73-.75,1,.08,1.33,1.2,1.22,2.22a2,2,0,0,1-2,1.94,43.66,43.66,0,0,1-5.24.06,5.46,5.46,0,0,0-5.26,2.4c-2.39,3.16-4.15,3.26-5.67-.19-3.26-7.41-8.56-9.77-16.33-8.7-4.45.62-4.55.11-5.34,4.64C86.81,74.94,86,80,85.12,85.08c-.26,1.51-.42,3.25-2.56,3.23S80.28,86.51,80,85Q76.28,65.5,72.62,46c-.22-1.16-.05-2.71-1.7-2.9s-1.88,1.29-2.35,2.4Q63.17,58.22,57.78,71c-1.48,3.48-2.1,3.67-5,1.5a4.91,4.91,0,0,0-3.22-.74H12.47c-.51,0-1,0-1.54,0C10,71.91,9,72.22,9,73.38s.85,1.56,1.82,1.68a20.37,20.37,0,0,0,2.47.06c11.11,0,22.23.09,33.34-.07,2.88,0,4.58.8,5.69,3.51.61,1.5.91,3.93,2.95,3.93,2.31,0,2.27-2.6,3-4.18,2.84-6.49,5.53-13,8.28-19.58.6-1.43,1.13-3.06,3.17-2.71,1.82.31,1.92,1.89,2.19,3.32Q76.22,82.67,80.61,106c.13.71.34,1.4.45,2.11.15,1.08.44,2.18,1.69,2.22,1.51.06,1.72-1.28,1.9-2.38.9-5.27,1.75-10.55,2.62-15.82,1.08-6.59,2.26-13.17,3.2-19.78.42-3,1.88-3.69,4.74-3.92,4.77-.4,8.07.9,10.14,5.43,1.1,2.4,2.88,4.49,4.3,6.75,1.22,1.92,2.77,2.54,4,.34,3-5.37,7.56-6.2,13.21-5.94,8.83.41,17.7.11,26.55.11a20.16,20.16,0,0,0,2.46-.08c.86-.11,1.63-.53,1.68-1.51,0-1.17-.81-1.65-1.79-1.7-1.85-.1-3.7-.07-5.56-.07q-6.63,0-13.27,0c-1.7,0-3.28-.38-3.19-2.43.08-1.8,1.55-2.1,3.14-2.16,6.79-.26,6.81-.29,8.22-6.9,2.4-11.29,1.91-22.1-5.47-31.71-1-1.26-1.51-2.64,0-3.79,1.66-1.28,2.83-.2,3.84,1.15,6.58,8.69,8.46,18.55,7.21,29.17a52.84,52.84,0,0,1-2,10c-.55,1.68-.08,2.24,1.64,2.14s3.5,0,5.24,0c4,.1,6.62,2.55,6.66,6.16s-2.56,6.2-6.52,6.29c-3.5.08-7,.1-10.5,0a3,3,0,0,0-3.09,1.89C128.68,106.27,108.6,124.74,86,140.89c-2,1.41-3.54,1.4-5.54,0a235.67,235.67,0,0,1-27-22c-1.19-1.13-2.3-2.41-.89-3.94,1.55-1.69,2.95-.55,4.21.65a233.56,233.56,0,0,0,24.49,20.23c1.31.95,2.22,1.24,3.72.14,18.7-13.59,35.55-29,48.29-48.49C134.84,85.12,136.16,82.69,138,79.69Z"/></svg>