<svg id="Capa_1" data-name="Capa 1" xmlns="http://www.w3.org/2000/svg" viewBox="0 0 180.88 165.59"><defs><style>.cls-1{fill:#c6875e;stroke:#c6875e;stroke-miterlimit:10;}</style></defs><path class="cls-1" d="M122.33,119c-4.16-.66-3.7-3-3.27-5.46,1-5.62,1.79-11.27,2.6-16.92.34-2.31.91-4,3.75-2.59.91.47,1.28.09,1.7-.72,1.91-3.71,1.81-4.42-1.27-7.06A23.73,23.73,0,1,1,165,70.82c-1.09,10.9-10.12,20-20.83,21-.94.08-2.38,1-2.54-1.1-.15-1.86,1.2-1.59,2.26-1.74a20.82,20.82,0,1,0-9.7-1.12c3.6,1.34,3.6,1.34,2.23,5a22.64,22.64,0,0,1-.82,2.12c-.8,1.6-.91,2.82,1.29,3.28a1.73,1.73,0,0,1,1.35,2.18c-1.53,9-1.16,18.25-4.56,26.91a9.42,9.42,0,0,1-2.13,3.31Q119,143.34,106.45,156.09A5.76,5.76,0,0,1,102,158q-39.86-.11-79.69,0c-2.74,0-3.6-.77-3.55-3.54.16-9.42,0-18.85.08-28.27C19,113.3,25,104,36.5,98.16c3.06-1.53,6.16-3,9.3-4.35A3.07,3.07,0,0,0,48,90.41q-.23-6.14,0-12.28c.12-3.74-2.91-6-4-9.25-.29-.85-1.56-.41-2.38-.48-4-.33-6.73-3-6.79-7A6.48,6.48,0,0,0,33.23,57a8.23,8.23,0,0,1,.13-10.77,4.09,4.09,0,0,0,.86-4.33c-1.29-4.79-2.45-9.57-1.18-14.61A20.55,20.55,0,0,1,52.27,11.78c8-.14,16-.17,24,0C88.33,12,97.91,22.84,95.7,34.92c-1.55,8.47-1.16,16.85-1.36,25.27a25.91,25.91,0,0,1-8.44,19,23.49,23.49,0,0,1-9.82,5.6c-.82.23-2,1.49-2.66-.6-.55-1.9.84-1.79,1.79-2.12C83.78,79.19,89,73.31,91,64.53A11.49,11.49,0,0,0,91.36,62c0-5.61,0-11.23.1-16.85,0-1.48-.28-2-1.93-1.59A25.77,25.77,0,0,1,69,40.35c-4-2.43-8.65-2.66-13.29-1.68A2.86,2.86,0,0,0,53,41.44,39.79,39.79,0,0,1,51.88,47a8,8,0,0,1-6.57,6c-1.83.24-2.76-.33-2.62-2.26,0-.48,0-1,0-1.43,0-3.74-1.3-4.57-4.81-3.1A5.94,5.94,0,0,0,39.3,57.55c1.94.35,4.3-.8,5.75.8,1.29,1.43.41,3.67.73,5.54,1.79,10.22,9.64,17.73,20.37,19,2.36.28,3.34,1.11,2.92,3.34-.93,4.84.8,7.85,5.65,9.24,2.07.6,3.93,1.89,5.9,2.84a30.38,30.38,0,0,1,14,13.7c2.9,5.57,5.84,11.12,8.63,16.73.83,1.66,1.44,2,3.12.88C111.4,126.17,116.52,122.88,122.33,119ZM90.22,131.28c2.66-1.3,4.91-2.5,7.24-3.5,1.46-.63,1.47-1.34.79-2.6-2.35-4.35-4.52-8.8-6.91-13.13a26.16,26.16,0,0,0-10.92-10.56c-5.61-3-5.61-3-8.89,2.3l-1.2,1.94c-1.72,2.72-2.14,2.76-4.48.6-1.52-1.41-3.15-4-4.6-3.88-1.71.1-2.12,3.23-3.25,5a1.94,1.94,0,0,0-.15.24c-.87,2-2,2.18-3.71.76-3.41-2.89-7-5.63-10.37-8.51a2.73,2.73,0,0,0-3.32-.41c-13.67,6-19.74,16-18.81,31,.08,1.34.44,1.83,1.8,1.8,3.52-.07,7-.08,10.57,0,1.49,0,2-.43,2-1.94-.09-3.23,0-6.47,0-9.71,0-1.06.31-1.52,1.45-1.52s1.51.49,1.43,1.54c0,.57,0,1.14,0,1.71,0,10.09.06,20.18-.05,30.27,0,2,.51,2.55,2.53,2.54q21.69-.14,43.4,0c2.09,0,2.74-.45,2.71-2.64-.12-10.47-.05-20.94-.06-31.42,0-1.08-.13-2.06,1.54-2s1.34,1,1.34,1.92ZM45.57,49.92a4.91,4.91,0,0,0,3.56-3.8c.54-2.31,1.14-4.62,1.5-7a3,3,0,0,1,2.43-2.73c6.32-1.85,12.52-1.59,18.17,1.85,6.08,3.69,12.34,3.93,19,2.24a2.29,2.29,0,0,0,1.92-1.7c4.19-12.39-4.16-24.16-17.26-24.2q-10.56,0-21.12,0c-12.38,0-20.44,10.09-17.77,22.2.45,2,.55,4.47,1.78,5.85.79.88,3.38.17,5.16.1s2.82.73,2.7,2.71C45.5,46.86,45.57,48.25,45.57,49.92Zm44.65,94.72c0,2.85.08,5.71,0,8.56,0,1.51.46,2,2,1.93,3-.1,5.9-.12,8.85,0a4.87,4.87,0,0,0,4-1.67q12-12.24,24.07-24.35a10.23,10.23,0,0,0,2.23-3.58c2.45-6.11,2.2-12.69,3.28-19,.95-5.59.85-5.6-4.57-7.59-1.25-.46-2.47-1-3.74-1.38-.54-.15-1.43-1.13-1.75.3-.19.86-.28,1.67.88,2,1.63.51,3.22,1.16,4.83,1.74.94.33,1.4.81,1,1.9s-.83,1.32-1.89.85c-1.3-.58-2.68-1-4-1.47-.81-.32-1.46-.47-1.72.64-.21.86,0,1.48.87,1.79,1.26.43,2.51.88,3.76,1.33,1,.34,1.66.61,1.13,2s-1.33,1-2.22.7a24,24,0,0,0-2.41-.88c-.6-.14-1.43-1-1.85.22-.35,1-.18,1.85,1,2.2.92.26,1.79.63,2.69.93s1.33.74.91,1.86-1,1.23-1.94.86a11.86,11.86,0,0,0-1.61-.57c-.71-.15-1.58-1.12-2,.37-.37,1.21.11,1.81,1.26,2,2.67.5,4.26,2.28,5.45,4.56.45.88,1.44,1.58,0,2.55s-1.91,0-2.35-1c-.8-1.68-1.68-1.55-3-.58-2.94,2.1-6,4-9,6l-13.54,9c-.83.56-1.55,1.41-2.5,0s.15-1.79,1-2.37c.39-.28.79-.53,1.19-.79,1-.63,1.87-1.15,1.06-2.68s-1.68-1.08-2.75-.52A21.09,21.09,0,0,1,95,132.29c-3.83,1.13-5.54,3.42-4.78,7.51A27.89,27.89,0,0,1,90.22,144.64Zm-54.29.53c0-2.75,0-5.5,0-8.25,0-1.3-.33-1.87-1.74-1.84-3.6.08-7.21.08-10.81,0-1.39,0-1.77.5-1.76,1.82q.09,8.1,0,16.22c0,1.41.32,2,1.88,2q5.26-.15,10.53,0c1.54,0,1.95-.53,1.9-2C35.87,150.48,35.93,147.82,35.93,145.17ZM50.84,79.11c0,2.18.27,3.81-.05,5.31-1.42,6.66,1.54,10.35,7.69,12.34,1.55.5,2.6.75,3.78-.46a25.45,25.45,0,0,1,2.19-1.82c1.47-1.21,2.54-6.41,1.71-8.06A1.33,1.33,0,0,0,65,85.77,27.76,27.76,0,0,1,50.84,79.11Zm7.64,21.44c-.11-.9-.82-1.07-1.36-1.35-1.76-.92-3.63-1.66-5.28-2.73-1.89-1.24-3.48-.77-5.25.19-1.21.65-1,1.11-.12,1.79,2.66,2.13,5.29,4.29,8,6.41.4.33,1,1,1.41.32C56.81,103.69,57.62,102.09,58.48,100.55Zm13.56-3A4.25,4.25,0,0,0,71,97c-1.29-.35-2.25-1.84-3.89-1-4.22,2.15-4.45,3.44-1.08,6.6l1,1c.4.39.87.49,1.19,0C69.47,101.73,70.6,99.87,72,97.55Zm-32.51-37c-.73,0-1.92-.72-1.86,1.05a4.32,4.32,0,0,0,3.86,3.92c.68,0,1.47.3,1.53-1C43.22,61.23,42.84,60.7,39.53,60.51Zm91.91,35.77c1.65-1,1.63-3,2.19-4.55.45-1.23-1.08-1.61-1.54-1.46-2,.68-1.7,2.86-2.35,4.39C129.21,95.88,130.64,95.76,131.44,96.28Z"/><path class="cls-1" d="M122.77,68.09A18.57,18.57,0,1,1,141.3,86.94,18.54,18.54,0,0,1,122.77,68.09ZM141.34,52.7A15.67,15.67,0,1,0,157,68.48,15.64,15.64,0,0,0,141.34,52.7Z"/><path class="cls-1" d="M72.55,70c-3.5,0-6-1.47-7-4.28-.26-.73-1-1.73.12-2.21a1.67,1.67,0,0,1,2.5,1c.85,2.4,2.88,2.76,5.1,2.59a3.61,3.61,0,0,0,3.46-2.49,1.66,1.66,0,0,1,2.45-1.12c1.37.55.43,1.63.14,2.39C78.32,68.53,75.91,69.94,72.55,70Z"/><path class="cls-1" d="M62.8,46.68c1.2.75,3.54-1,3.63,1.54S64.12,49.74,63,49.61c-1.39-.15-4,1.53-4.08-1.26C58.8,45.31,61.6,47.66,62.8,46.68Z"/><path class="cls-1" d="M82.29,49.73c-1-.63-3.57,1.21-3.66-1.32-.12-3,2.58-1,3.93-1.54a4.4,4.4,0,0,1,1.7,0c.9,0,1.92-.24,2,1.3s-.91,1.6-2,1.58Z"/><path class="cls-1" d="M65,56.1c.49-1-.93-2.89,1.44-3S67.87,55,67.88,56s.91,2.89-1.46,2.83C64.24,58.8,65.41,57.09,65,56.1Z"/><path class="cls-1" d="M80,56c-.42,1,.87,2.91-1.52,2.86s-1.3-1.9-1.33-3-.9-2.66,1.26-2.74C80.79,53.05,79.63,54.91,80,56Z"/><path class="cls-1" d="M41.37,51.79c.06,1-.43,1.35-1.37,1.37-1.1,0-1.53-.45-1.5-1.53s.45-1.34,1.39-1.36C41,50.25,41.48,50.71,41.37,51.79Z"/></svg>