<svg id="Capa_1" data-name="Capa 1" xmlns="http://www.w3.org/2000/svg" viewBox="0 0 139.21 128.96"><defs><style>.cls-1{fill:#6c2911;}</style></defs><path class="cls-1" d="M4.53,117.61c-.14-1.59.16-3.19,1.83-3.53,2.41-.49,2-2,1.51-3.42-1-3-2.23-6-3.51-8.88A29.35,29.35,0,0,1,1.62,90c0-4.52.8-8.65,4.13-12,1.31-1.29,1.45-2.43.21-4A64.85,64.85,0,0,1,1.63,68c-2.76-4.31-2-9.4,2.13-12.36,9.64-6.93,19.41-13.68,29.11-20.54,1.76-1.25,3-.87,4,.86.93,1.47,2.08,2.8,3,4.28C41.57,43,43,45.05,47.23,44c3.6-.91,6.89,1.43,8.83,4.83s2,6.93-.23,10.12c-1.18,1.7-1,2.75.15,4.23,1.72,2.2,3.23,4.57,4.87,6.84,1,1.46.91,2.63-.6,3.67q-5,3.47-10,7a2.41,2.41,0,0,1-3.55-.33c-2.8-2.7-5.67-3-8.34-1.22S35,84,36.57,87.35c.8,1.67.53,2.71-.94,3.65-.73.46-1.39,1-2.15,1.46-1.75,1-2.31,2.1-1.73,4.22.74,2.74,0,5.55-.77,8.26a6.74,6.74,0,0,0-.42,3.68c.25,1,.38,1.75,1.75,1.66,1.89-.14,2.78,1.11,3.06,2.81.44,2.76.82,5.54,1.2,8.31.31,2.29-.54,3.71-3,4.06q-11.76,1.67-23.5,3.41c-2.78.41-4.15-.71-4.42-3.53C5.44,122.75,4.93,120.19,4.53,117.61ZM16.73,83.1c0-1,0-1.4,0-1.76-.42-4,1.07-6.44,4.31-7s5.63,1.33,6.47,5.11c.65,2.92,1.13,5.88,1.8,8.8.13.6,0,1.87,1.12,1.6a2.38,2.38,0,0,0,2.07-1.77,7,7,0,0,0-.36-2,9.64,9.64,0,0,1,3.54-9.56c2.92-2.4,6.57-3.42,9.71-1.48,3.41,2.1,5.55,1,8-1.11a15.1,15.1,0,0,1,2.37-1.67c1.21-.7,1.27-1.4.43-2.52-1.79-2.4-3.4-4.93-5.19-7.32-1.15-1.54-1-2.6.42-3.94a6.22,6.22,0,0,0,1.15-8.36c-1.82-2.63-4.92-3.39-8.24-1.75-1.74.86-2.84.62-3.89-1C38.77,45,37,42.57,35.29,40.09c-.63-.91-1.15-1.37-2.29-.56C23.94,46,14.81,52.28,5.79,58.76a4.86,4.86,0,0,0-1.27,6.76C8.36,71.28,12.41,76.91,16.73,83.1ZM9.65,79.49c-2.68,2.41-4.14,5-4.3,8.28A25.18,25.18,0,0,0,6.92,98.25c1.71,4.48,4.3,8.65,4.9,13.53.14,1.19.92,1.2,1.91,1,3.14-.5,6.29-1,9.44-1.33,2.45-.27,4.68-.45,3.55-3.95-.42-1.33.42-2.64.77-3.93.69-2.56,1.15-5.16.27-7.69a105,105,0,0,1-3.89-15.68c-.23-1.28-.75-2.32-2.2-2.12-1.6.22-1.45,1.56-1.3,2.73.38,2.86.81,5.72,1.21,8.59.17,1.25.49,2.62-1.13,3.16-1.44.48-2.06-.7-2.72-1.63C15.06,87.2,12.41,83.41,9.65,79.49ZM30.23,114.2c-5.43.8-10.85,1.62-16.28,2.39-6,.85-5.9.81-4.84,6.65.31,1.71.94,1.9,2.45,1.66,5.22-.84,10.47-1.54,15.7-2.31,5.92-.88,5.91-.89,4.72-6.75a2.54,2.54,0,0,1,0-.29C31.93,114.38,31.29,114.06,30.23,114.2Z"/><path class="cls-1" d="M82.94,20.29c5.4,0,10.82-.14,16.22,0,7,.23,11.59,5,11.12,12-.24,3.53.78,5,4.12,6,6.88,2.25,9.64,8.25,11.46,14.59,1.12,3.88,1.48,8,2.4,11.92.44,1.87.55,4.47,3.94,3.21,1.26-.46,2.33.71,2.9,1.93,1.27,2.7,2.51,5.43,3.74,8.15a2.83,2.83,0,0,1-1.51,4.1q-11.27,5.29-22.6,10.43c-1.88.84-3.39.11-4.27-1.79-1.17-2.54-2.37-5.07-3.51-7.62-.75-1.67-.75-3.31,1-4.27,1.32-.71.81-1.46.43-2.36a6.72,6.72,0,0,0-2-2.44c-1.55-1.32-3.31-2.59-4.14-4.42-1.37-3-3.9-2.19-6.18-2.35-1.13-.08-1.07,1-1.36,1.59-1.93,4.1-5.14,6.23-9.66,6a9.34,9.34,0,0,1-8.92-6.66,2.22,2.22,0,0,0-2.46-1.76c-3-.07-6-.37-9-.36-2.32,0-3.38-.81-3.22-3.25.26-3.85.39-7.72.5-11.58a2.37,2.37,0,0,1,2.4-2.63c3.92-.55,6.07-2.67,6.26-6,.18-3.14-1.88-5.53-5.79-6.4-1.79-.4-2.35-1.35-2.25-3.07.21-3.85.4-7.72.45-11.58,0-2.16,1-2.83,3-2.79,5.6.09,11.2,0,16.8,0Zm22.82,27c.25-.46.39-.61.4-.76.19-4.63.44-9.25.55-13.88.13-5.58-2.82-8.55-8.43-8.73-8-.26-16-.56-24-.84-2.32-.08-5.21-1-6.79,0-1.9,1.26-.52,4.45-.92,6.76-.33,1.86,0,3.07,2.14,3.93,3.62,1.41,5.41,4.52,5.62,8.4.21,4-1.35,7.74-5,9-4,1.32-3.86,3.79-3.76,6.79a17.3,17.3,0,0,1-.09,2.6c-.21,1.63.4,2.24,2.07,2.22,2.7,0,5.4.21,8.1.21,2.34,0,3.76.58,3.93,3.35a5.78,5.78,0,0,0,5.17,5.09c2.78.38,6-1,6.44-3.72.67-4,3-4.33,6.13-3.87a18.3,18.3,0,0,0,2.35,0c-.11-.61-.17-1-.24-1.35-.86-4.39-3.08-8.29-4.5-12.49a5.38,5.38,0,0,1,2.84-7c2.77-1.29,5.41-.37,7.09,2.5C105.1,46,105.35,46.48,105.76,47.28ZM126.14,70c-2.86-6.14-2.25-12.95-4.79-18.91-1.83-4.29-4.15-8.32-9.21-9.7-1.45-.4-2-.3-2.07,1.42,0,3.95-.29,7.91-.43,11.86,0,1.36.1,2.92-1.64,3.26s-2-1.11-2.55-2.25c-1.13-2.45-2.24-4.91-3.41-7.34-.52-1.07-.91-2.63-2.63-1.95s-1.14,2.16-.66,3.42c1.43,3.78,3.36,7.39,4.13,11.4A16.69,16.69,0,0,0,109.54,72a6.5,6.5,0,0,1,2.29,3.26c.48,1.36,1.14,1.47,2.37.87,3.56-1.73,7.17-3.33,10.75-5C125.51,70.84,126.34,70.73,126.14,70Zm5.24,2.32-1.79.82-14.14,6.5c-5.25,2.43-5.19,2.4-2.64,7.66.72,1.47,1.34,1.73,2.82,1,4.76-2.3,9.58-4.45,14.38-6.67,5.76-2.66,5.77-2.66,2.54-8.23C132.28,72.92,132.23,72.21,131.38,72.28Z"/><path class="cls-1" d="M64,6c-.77-1.42-1.32-2.32-1.75-3.27A1.72,1.72,0,0,1,63,.24,1.65,1.65,0,0,1,65.3.8c1.54,2.56,3,5.14,4.45,7.77.56,1,0,1.89-.94,2.44-2.23,1.33-4.48,2.65-6.76,3.91-1.09.6-2.26.81-3-.58-.62-1.23.16-1.95,1.09-2.62s2-.72,2.54-2.08c-10.37-1.2-19.38,1.41-27.19,8.1a32.77,32.77,0,0,0-8,10.22c-.63,1.23-1.27,2.68-3,1.79s-.91-2.25-.31-3.49C30.41,13.37,45.53,4.59,59.78,5.65Z"/></svg>