<svg id="Capa_1" data-name="Capa 1" xmlns="http://www.w3.org/2000/svg" viewBox="0 0 139.21 128.96"><defs><style>.cls-1{fill:#6c2910;}</style></defs><path class="cls-1" d="M63.38,98.28c1.56,3.22,3.85,4.16,6.8,4.23,1.79,0,4.21-1,5.15,1.33s-1.59,3.22-2.77,4.56c-1.67,1.91-3.59,3.58-5.34,5.43a3.21,3.21,0,0,1-3.75.87C56.23,112.39,49,110.2,41.7,108a7.49,7.49,0,0,0-2.55-.42,2.23,2.23,0,0,0-1.94,1.89c-.24,1,.86,1,1.41,1.18,9.68,4,19.38,8,29.05,12a3.1,3.1,0,0,0,3.2-.23c7.11-4.87,15-6,23.44-5.28a52.13,52.13,0,0,0,7.07,0c2-.09,1.43,1.26,1.5,2.29s.08,2-1.55,2c-5-.09-10,.07-15-.08-2.71-.08-5.3.17-7.46,1.81C72.56,128,66.39,127.5,59.4,124c-8.08-4.09-16.72-7-25.11-10.52-3.26-1.35-3.52-2.14-1.62-5,1.39-2.1,2.59-4.38,5.38-5,1.4-.34.59-1.38.4-2.15-1.62-6.47-.44-12.38,4-17.4,4.82-5.49,11-7.65,18.18-6.11s11.94,6,14.1,13a14.88,14.88,0,0,0,2.84,4.62c3.4,4.51,7.7,5.65,13,5.08,3.2-.34,6.46,0,9.7-.07,1.56,0,2.77-.17,2.73,2.19,0,2.2-1.12,2.06-2.61,2-5.59,0-11.19-.08-16.79,0-1.81,0-3.3-.34-4.34-1.82-2.73-3.89-6.42-5.27-11.06-4.55A32.78,32.78,0,0,1,63.38,98.28Zm4.63,8.5c-.78-.25-1.54-.44-2.26-.72a10.45,10.45,0,0,1-6.89-8.54c-.4-2.46.44-3.4,2.92-3.45s4.73-.16,7.07,0,2.36-.77,1.78-2.54A14.7,14.7,0,1,0,43.17,102a5,5,0,0,0,3.5,3.13c4.63,1.28,9.19,2.77,13.78,4.18S64.92,110.69,68,106.78Z"/><path class="cls-1" d="M107,52.07a25.2,25.2,0,1,1,25.25-25.15A25.22,25.22,0,0,1,107,52.07Zm-2.23-46a20.05,20.05,0,0,0-9.35,3.32c-1.1.71-1.85,1.36-.41,2.47,1.06.82.5,1.56-.27,2.08s-1.24,2.31-2.41,1c-1.61-1.74-2.22-.64-3,.64a22.74,22.74,0,0,0-2.93,7.51c-.29,1.4.16,1.78,1.4,1.6,1.86-.28,2.53.29,2.54,2.35,0,2.44-1.48,1.79-2.75,1.88-.43,0-.85.1-1.36.17a20.41,20.41,0,0,0,3.51,9.55c.59.88,1.14,1.65,2.12.38,1.15-1.49,1.88-.33,2.67.44S96.28,41,94.92,42c-1.16.88-.74,1.49.26,2.15a22.83,22.83,0,0,0,8.17,3.37c1.37.27,1.8-.11,1.61-1.38-.27-1.84.25-2.55,2.34-2.56,2.42,0,1.82,1.44,1.89,2.74,0,.42.1.85.16,1.33a19.86,19.86,0,0,0,9.34-3.31c1.08-.69,1.91-1.34.44-2.46-1-.81-.54-1.55.25-2.08s1.24-2.32,2.41-1.07c1.83,2,2.37.37,3.12-.85a21.82,21.82,0,0,0,2.81-7.28c.28-1.38-.13-1.8-1.38-1.61-1.86.28-2.55-.27-2.56-2.34,0-2.44,1.46-1.81,2.75-1.89.42,0,.85-.1,1.33-.16a20,20,0,0,0-3.32-9.35c-.71-1.11-1.36-1.86-2.47-.42-.82,1.07-1.55.5-2.08-.27s-2.31-1.23-1-2.41c1.73-1.61.62-2.21-.64-3a22.82,22.82,0,0,0-7.52-2.94c-1.4-.28-1.78.17-1.6,1.4.29,1.87-.28,2.53-2.35,2.55-2.44,0-1.79-1.48-1.88-2.75C104.93,7,104.86,6.57,104.8,6.09Z"/><path class="cls-1" d="M15.55,16.22c-.31-1.5-1-2.75-.94-4.2A6.34,6.34,0,0,1,19.3,6.08c3.32-.92,4.95-.27,6.72,2.68l3.09,5.17C31,17,33.64,17.38,36.3,15a2.93,2.93,0,0,1,2.18-.68c3.67,0,7.34,0,11,0,2.09,0,3,.85,3,3q-.06,9.71,0,19.4c0,2-.85,2.89-2.84,2.87q-5.5-.06-11,0c-1.91,0-3.09-.68-2.95-2.72.09-1.41-.66-1.44-1.75-1.52a6.68,6.68,0,0,0-6,2.21c-2.56,2.79-14.75,3-17.67.58a6.73,6.73,0,0,1-2.39-4.79c-.22-2.26-.42-4.52-.7-6.77C6.22,18.83,7.84,16.78,15.55,16.22Zm3.79,19A7.79,7.79,0,0,0,27.68,32a2.69,2.69,0,0,1,2.08-.9c1.94-.21,4.6,1,5.65-.59.93-1.41.25-3.89.26-5.89,0-4,0-4.16-4-3.93a5,5,0,0,1-5.39-3.07c-1-2.1-2.44-4-3.58-6.09-.64-1.15-1.38-1.81-2.69-1.15a2.1,2.1,0,0,0-1,2.9c.5,1.39,1.13,2.74,1.63,4.13.69,2-.1,3.07-2.12,3.2-1.65.09-3.32,0-5,0-1.87,0-2.72,1-2.54,2.8s.31,3.66.59,5.47C12.64,35.46,11.07,35.35,19.34,35.26Zm20.55-8.62V29c0,6.84,0,6.81,6.9,6.3,1.11-.08,1.51-.38,1.5-1.51,0-4.62,0-9.24,0-13.86,0-.92-.22-1.34-1.28-1.46-6.83-.83-7.11-.62-7.11,6.09Z"/><path class="cls-1" d="M84.9,46.13c-.43.8-.83,1.67-1.34,2.47-1,1.63-.64,2.5,1.24,3,3.07.81,4.66,4.94,3.12,7.8a3.27,3.27,0,0,1-2.66,1.45c-2.23.4-3,1.4-1.51,3.34,1.74,2.21.79,3.68-.91,5.36s-3.29,3.13-5.76,1.13c-1.53-1.25-2.86-1-3.09,1.2-.35,3.27-2.51,3.3-5.07,3.37s-4-.73-4.33-3.32c-.27-2.09-1.45-2.57-3.06-1.28-2.43,2-4,.72-5.77-1.05s-2.63-3.33-.85-5.58c1.27-1.61.8-2.8-1.29-3.07-2.6-.34-3.39-1.76-3.32-4.32s.09-4.72,3.38-5.06c2.16-.23,2.42-1.54,1.2-3.1-1.66-2.12-1.06-3.64.74-5.38s3.39-3.27,6-1.17c1.66,1.34,2.8.66,3-1.36.34-3.12,2.39-3.24,4.89-3.26s4.1.44,4.45,3.16c.31,2.55,1.64,2.5,3.43,1.27,1.09-.75,2.35-1.61,3.56-.45C82.4,42.69,84.3,43.81,84.9,46.13Zm-5.06.51c-.35-1.37-1-.75-1.73-.42a5.52,5.52,0,0,1-8-3.32c-.16-.46-.14-1.14-.79-1.23s-.73.61-.9,1.06c-1.47,3.78-4.53,5.09-8.08,3.44-.46-.21-.93-.68-1.4-.19s0,1,.21,1.41c1.62,3.47.27,6.78-3.22,8-.52.18-1.38.11-1.28,1,.07.62.77.6,1.24.77a5.5,5.5,0,0,1,3.28,8c-.21.46-.7.91-.26,1.41s.93.08,1.39-.14C64,64.73,67,66,68.45,69.78c.17.44.15,1.12.88,1.1.56,0,.58-.57.73-.95,1.69-4,4.37-5.16,8.24-3.49.4.17.8.51,1.19.21.56-.43.15-.91,0-1.38-1.65-3.74-.41-6.78,3.28-8.14.45-.17,1.14-.15,1.16-.84s-.68-.81-1.12-.84c-2.25-.16-2.83-1.84-3.7-3.52C78,49.85,78.63,48.26,79.84,46.64Z"/><path class="cls-1" d="M14.64,65.54a55.69,55.69,0,0,1,3.59-20.18c.46-1.18.43-2.85,2.72-1.87,1.85.8,1.89,1.5,1.27,3.26-6.58,18.89-3.5,36.09,9.47,51.36,1.41,1.66.55,2.17-.4,3.27-1.34,1.55-2,.49-2.82-.44A54.17,54.17,0,0,1,14.64,65.54Z"/><path class="cls-1" d="M123.89,64.79a54.4,54.4,0,0,1-13,35.16c-.81,1-1.45,2.23-3,.64-1.17-1.18-1.57-1.79-.3-3.31C117.47,85.49,121.25,71.9,119,56.72c-.3-2,.36-2.25,2-2.66,2.16-.54,2.09.91,2.24,2.11A48.66,48.66,0,0,1,123.89,64.79Z"/><path class="cls-1" d="M25.15,64.82a44.63,44.63,0,0,1,5.61-21.65c.61-1.11,1.12-2,2.49-.88.92.76,2.35.93,1.3,2.88-7,13-7,26.09,0,39.08,1.1,2-.56,2.09-1.42,2.84-1.22,1.06-1.74.27-2.32-.76A44.62,44.62,0,0,1,25.15,64.82Z"/><path class="cls-1" d="M113.3,64.7a43.07,43.07,0,0,1-11.39,29.6c-.75.83-1.36,2.45-3,.72-1.2-1.28-1.63-1.94-.21-3.52a38.69,38.69,0,0,0,10-32.17c-.2-1.53-.53-2.89,1.8-3.14,1.57-.17,2.28.05,2.33,1.72,0,1.22.32,2.43.41,3.65C113.36,62.6,113.3,63.65,113.3,64.7Z"/><path class="cls-1" d="M80,12c.07,2.46-.7,3.17-3.16,2.82a47.35,47.35,0,0,0-17.68.52c-2.1.5-2.18-.63-2.64-2.06-.57-1.75.47-1.89,1.62-2.12a55,55,0,0,1,19.77-.43C78.7,10.88,80,10.6,80,12Z"/><path class="cls-1" d="M76,25.39a38.21,38.21,0,0,0-17.25.84c-2.2.61-1.78-1.29-2.28-2.3-.69-1.39.3-1.57,1.3-1.84a44.2,44.2,0,0,1,18.38-1c1.16.17,2.07.33,1.63,1.89C77.45,24.2,77.69,25.83,76,25.39Z"/><path class="cls-1" d="M46.17,96.26a10.53,10.53,0,0,1,13.77-10c.68.24,2.15.23,1.51,1.5-.54,1-.54,2.9-2.65,2.58-6.55-1-9.9,3-7.47,9.07.84,2.07-1.07,2.32-1.91,3.11-1.11,1-1.41-.47-1.78-1.06A9.15,9.15,0,0,1,46.17,96.26Z"/><path class="cls-1" d="M109.18,21a4.16,4.16,0,0,0,0,.79c1.38,5.73-2.59,8.74-6.07,12-1.2,1.14-1.71,0-2.28-.62s-1.91-1.06-.76-2.27a1.62,1.62,0,0,1,.18-.19c5.53-3.27,5-8.65,4.66-13.85-.15-2.29.67-2.87,2.78-2.66,1.11.12,1.55.4,1.5,1.54C109.13,17.5,109.18,19.25,109.18,21Z"/><path class="cls-1" d="M75.57,56.17A6.29,6.29,0,1,1,69.11,50,6.35,6.35,0,0,1,75.57,56.17Zm-4.21,0c-.2-1.18-.84-2-2-2a1.91,1.91,0,0,0-2.07,2.12,1.87,1.87,0,0,0,2,1.94C70.56,58.32,71.22,57.48,71.36,56.21Z"/></svg>