<svg id="Capa_1" data-name="Capa 1" xmlns="http://www.w3.org/2000/svg" viewBox="0 0 167.39 147.96"><defs><style>.cls-1{fill:#6c2911;}</style></defs><path class="cls-1" d="M47.44,83.8c-.67,2.14-.84,3.89-1.78,5.35-.61.94,0,1.27.66,1.61,9.16,4.56,11.8,17.57,4.51,25.5-1.07,1.16-.22,1.72.32,2.47a20,20,0,0,1,3.93,11.35c.14,4.95-2.88,8.6-7.47,9-4.33.38-8-2.76-8.74-7.49-.6-3.84-1-4.25-4.2-4.25s-3.8.69-4.16,4c-.62,5.7-5.71,9.12-10.86,7.28a8.09,8.09,0,0,1-5.4-7.42,19,19,0,0,1,3.69-12c1-1.36,1.14-2.17,0-3.62-6.37-8-4.35-19,4.35-24.44,1-.63,1.88-.88,1.13-2.56C20.47,82,22.92,75,29,72s12.83-.86,16.62,5.25c.22.35.46.69,1.08,1.64V63.37c0-4.88,0-9.77,0-14.65,0-8.4,4.66-13.78,12.91-15.07.52-.08,1.1,0,1.57-.61a15.65,15.65,0,0,1-1.7-11.7A12.94,12.94,0,0,1,73.27,11.09a13.16,13.16,0,0,1,12,12.29,14.77,14.77,0,0,1-1.44,8.43c-.65,1.19-.61,1.69.91,1.86,6.82.74,10.85,4.77,12.85,11.33,2.33-1.81,4.55-3.7,7.32-4.6,1.27-.42.77-1.17.54-1.92a17.05,17.05,0,0,1-.27-8.85,12.83,12.83,0,0,1,13.89-10A13,13,0,0,1,130.85,31.8a15,15,0,0,1-.6,6.43c-.48,1.3-.28,1.83,1,2.42,8.21,3.71,12.14,10.22,12.05,19.15,0,2.65-.26,4.56,3.58,4.77s6.26,4,6.26,8.55q0,24.15,0,48.31c0,4.7,0,9.4,0,14.11,0,2-.57,3.56-2.77,3.54s-2.7-1.67-2.7-3.62c0-17.54,0-35.09.05-52.64,0-2-.27-2.61-2.56-2.42-4.19.34-8.52.63-12.31-2a5.46,5.46,0,0,0-.38,3.11q0,23.61,0,47.22c0,8.82-5.91,12.56-13.84,8.68-1-.49-1.47,0-2.16.35-6.44,3.57-13.27-.33-13.31-7.69-.07-12.12,0-24.25,0-36.37,0-1.68.12-2.89-2.32-2.43A6.47,6.47,0,0,1,95,89.13c-1.12-1.19-2.1-1.79-3.67-1-1.36.67-3.37-.83-4.2.66-.61,1.11-.19,2.82-.18,4.27,0,2-.49,3.78-2.88,3.72s-2.6-1.79-2.58-3.69c0-4,0-8,0-11.94,0-1.56-.31-2.26-2.07-2.22-4.79.11-9.59.12-14.38,0-1.81,0-2.05.71-2,2.24q.06,24.28,0,48.58c0,2.21.79,3.74,3.13,3.95,2,.17,3.36-1.44,3.36-4q0-18.6,0-37.18A15.24,15.24,0,0,1,69.61,90a2.52,2.52,0,0,1,2.64-2.25,2.48,2.48,0,0,1,2.56,2A11.46,11.46,0,0,1,75,92.49q0,18.18,0,36.37a8.08,8.08,0,0,0,.32,2.92,2.87,2.87,0,0,0,3.27,1.87,3.2,3.2,0,0,0,2.86-3.42c.06-3.52.06-7,0-10.58,0-2,.41-3.81,2.81-3.74,2.18.07,2.67,1.77,2.65,3.69,0,3.44,0,6.87,0,10.31-.12,7.52-6.89,11.45-13.46,7.77a2,2,0,0,0-2.39-.05c-6.8,3.76-13.43-.16-13.45-7.93q-.06-19.27,0-38.54c0-2.1-.07-3.31-2.81-3C51.67,88.57,49.37,86.68,47.44,83.8Zm4.75-20.34c0,5.42,0,10.85,0,16.27,0,1.8.74,3,2.67,3s2.65-1.28,2.72-3c0-.82,0-1.63,0-2.44V52.09c0-1.79.72-3,2.65-3.07s2.68,1.22,2.78,3c0,.64,0,1.27,0,1.9,0,5.79.07,11.57,0,17.36,0,1.74.44,2.34,2.25,2.29,4.6-.12,9.22-.13,13.82,0,1.88,0,2.48-.47,2.44-2.4-.12-6.24,0-12.47,0-18.71,0-1.83.47-3.35,2.58-3.4s2.88,1.49,2.87,3.43c0,.64,0,1.27,0,1.9q0,12.35,0,24.68c0,2,.3,3.79,2.8,3.71,2.29-.07,2.62-1.8,2.62-3.67,0-10.21,0-20.43,0-30.64,0-5.73-3.55-9.34-9.3-9.42-7.14-.1-14.28-.08-21.42,0-6,.06-9.37,3.58-9.4,9.52C52.17,53.52,52.19,58.49,52.19,63.46ZM97.79,70c0,4.25-.05,8.5,0,12.75,0,2.41,1.81,3.74,3.66,2.89,1.6-.73,1.73-2.14,1.73-3.65,0-7.06,0-14.11,0-21.16,0-2,.3-3.82,2.77-3.76s2.7,1.92,2.69,3.88c0,4,0,8,0,11.93,0,1.56.28,2.27,2.06,2.22q7.18-.16,14.38,0c1.78,0,2.08-.7,2-2.24-.08-4.16,0-8.32,0-12.48,0-1.88.59-3.3,2.67-3.33s2.77,1.39,2.78,3.26c0,2.53,0,5.06,0,7.59A6.92,6.92,0,0,0,137,74.42c2.75,1.16,5.71.75,8.57.47a2.35,2.35,0,0,0,2.07-2.75,2.49,2.49,0,0,0-2.46-2.43c-1.17-.1-2.35,0-3.53,0-2.89-.07-3.72-.86-3.76-3.7,0-2.53.06-5.07,0-7.6a14.32,14.32,0,0,0-9.7-13.1,4.1,4.1,0,0,0-3.8.36c-3.91,2.36-8.23,2.79-12.13.46-2.9-1.72-5.13-1-7.49.42a13.57,13.57,0,0,0-7,11.83C97.72,62.21,97.79,66.1,97.79,70Zm10.85,36.23c0,4,0,8,0,11.94s0,8.13,0,12.2a3,3,0,0,0,3.19,3.29c1.91,0,3-1.19,3.23-3a15.55,15.55,0,0,0,0-2.16V97.82a15.55,15.55,0,0,1,.06-2.16,2.43,2.43,0,0,1,2.32-2.26,2.47,2.47,0,0,1,2.88,1.91,10.45,10.45,0,0,1,.18,2.69c0,10.49,0,21,0,31.46,0,2.27.62,4,3.15,4.21,2,.17,3.34-1.44,3.35-4,0-15.73,0-31.46,0-47.19,0-1.57-.52-2-2-2-4.7.08-9.41.13-14.1,0-2-.06-2.41.58-2.39,2.44C108.69,90.68,108.64,98.45,108.64,106.22ZM20.94,110c1-2.1,2.65-3.52,3.11-5.79.41-2,3.78-2.28,4.44-.37.8,2.3,2.28,2.09,4,2.08,1.9,0,3.8,0,5.69,0,1.33,0,2.41,0,2.8-1.71.29-1.28,1.52-1.71,2.83-1.54a2.22,2.22,0,0,1,2.13,2.11c.05,2.09,1.45,3.28,2.53,4.87A10.66,10.66,0,0,0,44.1,95.76a6,6,0,0,0-5.65-.67,10.71,10.71,0,0,1-8-.07,5,5,0,0,0-3.41-.16A10.84,10.84,0,0,0,20.94,110ZM64.67,24.78c0,5.29,2.85,8.65,7.46,8.71s7.67-3.33,7.72-8.24c.05-5.13-3-8.68-7.52-8.74S64.71,19.88,64.67,24.78Zm45.6,8.57c0,5.21,3,8.64,7.53,8.65s7.6-3.42,7.64-8.33c0-5.15-3-8.61-7.59-8.62S110.29,28.33,110.27,33.35ZM34.53,76.14a7,7,0,0,0-7,7.09,7.09,7.09,0,0,0,7,7.06A7.22,7.22,0,0,0,41.76,83,7.11,7.11,0,0,0,34.53,76.14Zm.2,35.25c-2.08,0-4.16.06-6.23,0-1.44-.06-2.12.31-2.11,1.93s.2,2.86,2.05,3.52a9.42,9.42,0,0,1,4.36,3.91c1.16,1.69,2.61,1.68,3.77,0a9.89,9.89,0,0,1,4.86-4.15c2.37-.8,1.46-2.62,1.46-4.06,0-1.8-1.58-1-2.48-1.07C38.52,111.3,36.62,111.39,34.73,111.39Zm-15,17.9c-.17,2.73.54,4.17,2.52,4.28,1.81.1,2.75-1.12,2.82-2.93a8.44,8.44,0,0,1,1.81-5.28c1.19-1.4,1.39-2.45-.3-3.4s-3.09-1.55-4.38.56A16.34,16.34,0,0,0,19.74,129.29Zm29.88.86a14.19,14.19,0,0,0-2.77-8c-1.36-1.88-2.86-.86-4.25,0s-1.38,1.78-.29,3a8.36,8.36,0,0,1,1.92,5.23c.09,1.81.83,3.33,2.85,3.23C49.26,133.48,49.81,131.85,49.62,130.15Z"/><path class="cls-1" d="M84.12,109c-1.53-.2-2.56-1-2.59-2.58a2.66,2.66,0,0,1,5.32-.19C86.89,108,85.84,108.87,84.12,109Z"/></svg>