<svg id="Capa_1" data-name="Capa 1" xmlns="http://www.w3.org/2000/svg" viewBox="0 0 167.39 147.96"><defs><style>.cls-1{fill:#6c2910;}</style></defs><path class="cls-1" d="M52.34,87.22c-1.2.61-1.38,1.55-1.86,2.24-2.59,3.78-6.09,6.13-10.72,6.26-5.47.17-10.95.17-16.42,0a8,8,0,0,1-.09-15.91c3.76-.19,7.54-.14,11.31-.06a4,4,0,0,0,4-2.43C41,72.74,43.55,68.21,46,63.63c3.22-6,8.17-9.08,15-9.16,1,0,2.46.64,2.75-.83s.5-3-1.23-4.29A13.05,13.05,0,0,1,57,38c0-2.78,0-5.57,0-8.35a13.32,13.32,0,0,1,3.88-10,2.9,2.9,0,0,0,.87-2.85,8.58,8.58,0,0,1,3.95-9,8.6,8.6,0,0,1,9.66-.3,8.4,8.4,0,0,1,4.43,8.81,4.6,4.6,0,0,0,1.39,4c5,5.67,5,21.41,0,27.12a14,14,0,0,1-2.6,2.32c-1.55,1.09-1,2.64-.84,3.94s1.6.83,2.47.82c7.07,0,12.14,3.17,15.44,9.35,2.32,4.35,4.84,8.6,7,13a4.72,4.72,0,0,0,5.09,3c3.22-.17,6.46-.1,9.69,0,5,.12,8.6,3.58,8.5,8.15s-3.56,7.78-8.5,7.87c-3.95.07-7.9-.16-11.84.06-7,.37-12.5-1.9-15.73-8.45-1.08.4-.66,1.25-.67,1.86,0,4.4.06,8.8,0,13.19a6.05,6.05,0,0,0,3.17,5.75c4.39,2.79,8.66,5.77,13,8.64,3.19,2.11,5,5,4.4,8.86-.59,4.06-3.19,6.46-7.12,7.51s-8.11,2.24-12.19,3.29a3.48,3.48,0,0,0-2.83,2.37c-1.53,4.1-5.52,6-9.84,4.85-13.06-3.5-26.11-7.08-39.16-10.63-3.73-1-6.14-3.39-6.74-7.22s1-6.79,4.23-8.93c4.41-2.91,8.76-5.94,13.22-8.78a6,6,0,0,0,3.07-5.8C52.25,97.4,52.34,92.42,52.34,87.22Zm32.22-1.06c0-4.21,0-8.43,0-12.65,0-1.67.61-2.89,2.42-2.86s2.15,1.33,2.22,2.81-.22,3.19.71,4.71c1.69,2.75,3.21,5.6,4.84,8.38a9,9,0,0,0,8,4.68c4.84.1,9.68,0,14.53,0,2.25,0,3.86-.91,4-3.39.11-2.19-1.4-3.47-4.12-3.51-3.23,0-6.47-.17-9.69,0-4.23.27-6.91-1.56-8.77-5.27-2.33-4.64-4.88-9.17-7.42-13.7A12.45,12.45,0,0,0,78.32,59a2.15,2.15,0,0,0-1.61,1.16c-3.43,4.72-8.36,4.7-11.91-.09A2.2,2.2,0,0,0,63.12,59a12.38,12.38,0,0,0-13,6.7C47.58,70.37,45,75,42.57,79.68a7.88,7.88,0,0,1-8,4.69c-3.31-.14-6.63-.05-9.95,0-2.76,0-4.24,1.22-4.28,3.38s1.44,3.49,4.14,3.52q7.13.06,14.26,0c2.94,0,5.74-1,7.2-3.53,2.66-4.63,6.85-8.64,6.47-14.66a2.15,2.15,0,0,1,2.32-2.42c1.5,0,2.22,1,2.32,2.46,0,.63,0,1.26,0,1.88,0,7.63.08,15.25-.06,22.87,0,2.19.66,2.67,2.72,2.64,7.53-.12,15.07-.09,22.6,0,1.7,0,2.35-.38,2.29-2.21C84.47,94.24,84.56,90.2,84.56,86.16Zm-5,40.91c2.79,1.09,5.51,1.59,7,4,.77,1.28,1.64,1.32,2.91,1,3.87-1.11,7.77-2.14,11.66-3.19,1.9-.51,3.56-1.3,3.94-3.51s-.83-3.68-2.61-4.85c-4.35-2.85-8.65-5.77-13-8.62-2-1.32-3.71-2.89-4.37-5.25-.37-1.33-1.13-1.6-2.36-1.59q-12,.06-23.94,0c-1.19,0-2,.17-2.35,1.56a9.2,9.2,0,0,1-4.13,5.12c-4.49,3-8.95,6-13.44,8.92-1.7,1.13-2.79,2.51-2.4,4.68s1.83,2.94,3.68,3.43c4.59,1.23,9.16,2.48,13.74,3.73L78,139.06c2.15.59,4.17.6,5.27-1.79,1-2.15-.22-4.19-3-5-8.17-2.37-16.35-4.68-24.53-7-1.71-.49-3.93-.84-3.16-3.34s2.81-1.54,4.52-1c3.62,1,7.26,2,10.84,3.13a9,9,0,0,0,5.73,0c3.76-1.19,7.57-2.19,11.35-3.28,1.64-.47,3.36-.86,3.94,1.35.53,2-1,2.63-2.55,3.08Zm.32-88.89c-.19-.83.39-1.84-1.13-2.5-3.73-1.62-7.25-3.4-11.28-.66a7.2,7.2,0,0,1-3.89.79c-2,0-2.15,1-2.07,2.54a9.36,9.36,0,0,0,9.25,9.25C75.87,47.58,79.77,43.59,79.93,38.18ZM70.8,20.08a9.06,9.06,0,0,0-8.87,6.79c-1.07,4.22-.41,4.9,3.86,3.9a6.36,6.36,0,0,0,2.28-.72c3.44-2.55,6.61-2.94,9.86.42,1.1,1.14,2,.61,2-1.17A9.13,9.13,0,0,0,70.8,20.08Zm3.14-4.27c1,.26,1.53,0,1.37-1.21a4.61,4.61,0,0,0-4.63-3.7,4.55,4.55,0,0,0-4.38,3.64c-.15,1,.12,1.6,1.28,1.29A11.84,11.84,0,0,1,73.94,15.81Zm-.82,39.41c-.1-1.57.66-3.35-2.19-3.19-2,.1-2.74.44-2.49,2.49.22,1.86-.54,4.39,2.44,4.4C73.27,58.94,73.07,56.8,73.12,55.22Z"/><path class="cls-1" d="M123.68,6.22a29.89,29.89,0,1,1-29.94,29.7A30,30,0,0,1,123.68,6.22ZM120,11c-1.3.34-2.59.69-3.89,1-1.86.46-3.53.88-1.94,3.42a2,2,0,0,1-1,2.75,1.9,1.9,0,0,1-2.82-.63c-1.28-2.63-2.48-1.3-3.74-.11-.65.61-1.28,1.26-1.89,1.91-1.09,1.16-2.17,2.23.15,3.38a2,2,0,0,1,.73,3,2,2,0,0,1-2.77.89c-2.44-1.59-2.81.07-3.27,1.8-.27,1-.52,2.08-.83,3.11-.44,1.52-.18,2.34,1.69,2.27a2.15,2.15,0,0,1,2.42,2.3,2.06,2.06,0,0,1-2.19,2.25c-2.54-.1-2.25,1.22-1.75,2.86.31,1,.55,2.07.83,3.11.44,1.58,1,2.57,2.9,1.32a2.05,2.05,0,0,1,3,.84,2,2,0,0,1-.77,3c-2,1-1.52,2-.29,3.17.91.87,1.8,1.75,2.69,2.64s1.89,1.58,2.79-.25a2.08,2.08,0,0,1,3.16-1,2.05,2.05,0,0,1,.84,3c-1.26,1.9-.23,2.45,1.34,2.88,1,.29,2.09.51,3.11.83,1.7.55,2.92.64,2.84-1.81a2.26,2.26,0,0,1,4.51,0c-.12,2.55,1.21,2.26,2.84,1.77,1-.32,2.08-.55,3.12-.83,1.57-.43,2.59-1,1.32-2.89a2.06,2.06,0,0,1,.8-3,2,2,0,0,1,3,.73c1.11,2.3,2.18,1.33,3.36.2.71-.69,1.4-1.39,2.1-2.09,1.27-1.25,2.2-2.38-.22-3.52a1.9,1.9,0,0,1-.71-2.8c.6-1.12,1.72-1.67,2.7-1.06,2.76,1.73,3-.32,3.54-2.1.2-.69.34-1.39.54-2.08.5-1.72.82-3.15-1.9-3a2,2,0,0,1-2-2.37,2,2,0,0,1,2-2.09c2.74.18,2.37-1.31,1.89-3-.29-1-.55-2.08-.85-3.11-.42-1.44-.9-2.46-2.72-1.24a2.13,2.13,0,0,1-3.22-.88,1.89,1.89,0,0,1,.7-2.8c2.46-1.16,1.43-2.3.21-3.55-.69-.71-1.4-1.39-2.1-2.09-1.21-1.2-2.29-2-3.37.25a1.92,1.92,0,0,1-2.78.81,2,2,0,0,1-1.07-2.91c1.6-2.48-.11-2.8-1.81-3.26-1.22-.32-2.43-.64-3.65-.92-1-.23-1.73-.07-1.68,1.28.06,1.6-.54,3-2.38,2.91s-2.3-1.43-2.3-3C121.28,11.47,121.05,10.92,120,11Z"/><path class="cls-1" d="M123.57,22.35A2.37,2.37,0,0,1,126,25c0,2.5.12,5,0,7.51a3.42,3.42,0,0,0,1.94,3.69,39.35,39.35,0,0,1,3.58,2.35c1.31.89,1.79,2.1.89,3.44s-2.1,1.24-3.31.45c-2.17-1.41-4.32-2.86-6.47-4.3a2.67,2.67,0,0,1-1.27-2.25c0-3.66,0-7.33,0-11A2.33,2.33,0,0,1,123.57,22.35Z"/></svg>