<svg id="Capa_1" data-name="Capa 1" xmlns="http://www.w3.org/2000/svg" viewBox="0 0 167.39 147.96"><defs><style>.cls-1{fill:#6c2911;}</style></defs><path class="cls-1" d="M119,69.77c3.42-2.35,5.41-4.77,4.83-8.83-.38-2.63,0-5.36-.08-8,0-2.27,1-3.23,3.28-3.21,5.77,0,11.54,0,17.31,0,2.45,0,3.46,1.13,3.32,3.48,0,.3,0,.6,0,.89-1,7.54.37,14,7.16,18.65,1.86,1.27,2.41,3.56,2.41,5.87,0,13.13,0,26.27,0,39.4,0,4.94-3.33,8.12-8.35,8.17q-9,.09-17.91,0c-1.66,0-2.58.19-2.45,2.21.12,1.83-1.15,2.6-2.91,2.6H98.12c-2.13,0-3-1.09-3-3.17,0-3.28-.18-6.58.07-9.84.22-2.89-.48-3.82-3.63-3.8-22.1.17-44.19.09-66.28.09-8.09,0-11.36-3.29-11.36-11.42q0-29.55,0-59.11Q13.92,33,24.48,33c6.77,0,13.54-.09,20.3.05,2.15,0,2.73-.63,2.6-2.68-.17-2.78,0-5.58-.05-8.36,0-2.2.83-3.35,3.14-3.35q18.36,0,36.72,0c2.3,0,3.22,1.12,3.17,3.33,0,2.68.13,5.38,0,8.05-.14,2.24.4,3.12,2.88,3,5.26-.21,10.54-.09,15.82-.05,6.27,0,10,3.76,10,10.07C119,51.8,119,60.56,119,69.77ZM61.64,90.29q20.31,0,40.61,0c1.61,0,2.45-.12,2.49-2.18.1-4.79,2.88-7.31,7.86-7.31,1.39,0,1.64-.37,1.64-1.61,0-10,0-20.11,0-30.16,0-.75.15-1.49-1-1.76-4.46-1-6,.08-6.1,4.49a1.41,1.41,0,0,0,0,.29c.34,2-.59,2.48-2.49,2.47s-2.6-.45-2.33-2.34c.11-.78-.06-1.6,0-2.38.23-1.86-.34-2.56-2.39-2.56q-39.42.1-78.82,0c-2.06,0-2.43.71-2.42,2.56.07,12.64.09,25.28,0,37.92,0,2.16.67,2.6,2.7,2.59C34.77,90.25,48.21,90.29,61.64,90.29Zm74.08-4.75H124.09c-5.51,0-5.8.36-5.1,5.78.13,1,.41,1.43,1.42,1.36,2.92-.19,3.64,1.56,3.37,4-.5,4.46.13,8.41,4.13,11.25.73.51.92,1.54,2.22,1.52q10.29-.14,20.59,0c2.23,0,1.63-1.42,1.72-2.6s0-2.31-1.79-2.23c-3.08.13-6.17,0-9.25,0-2.23,0-3.34-.92-3.3-3.2,0-2.59.06-5.17,0-7.76-.07-2.39,1-3.48,3.38-3.42,3,.07,6-.1,8.95,0,1.88.1,2.08-.78,2.05-2.31s0-2.61-2.13-2.53C145.48,85.65,140.6,85.54,135.72,85.54Zm-69.3-43q22.52,0,45,0c.88,0,2.23.67,2.59-.56s-.51-2.27-1.44-3.08a4.81,4.81,0,0,0-3.32-1.09q-42.79,0-85.6,0A4.87,4.87,0,0,0,20.14,39c-.82.78-1.59,1.78-1.31,2.86.35,1.32,1.69.63,2.55.63Q43.9,42.55,66.42,42.52Zm45.46,83.6c3.29,0,6.57-.06,9.85,0,1.5,0,2.12-.34,2.08-2-.11-4.07,0-8.15,0-12.23a5.45,5.45,0,0,0-5-4.89q-7-.08-14,0c-2.21,0-4.82,2.52-4.86,4.68-.07,4.17.06,8.35-.06,12.53,0,1.74.78,1.91,2.17,1.88C105.32,126.08,108.6,126.12,111.88,126.12ZM59,99.85c12.72,0,25.44,0,38.17,0,1.84,0,2.83-.11,2.85-2.46s-1.24-2.35-2.94-2.35q-37.87,0-75.75,0c-1.7,0-2.69.07-2.69,2.3s.84,2.53,2.78,2.52C33.91,99.81,46.44,99.85,59,99.85Zm39.43,4.79H22c-.5,0-1,0-1.49,0-2.15-.2-2.08.85-1.33,2.3,1.14,2.18,3.1,2.48,5.32,2.48,21.67,0,43.34-.15,65,.1C93.6,109.57,96.19,108.31,98.4,104.64Zm37.44-23.9c4.48,0,9,.06,13.43,0,1,0,2.61.79,3.07-.77a4,4,0,0,0-1.06-4.13c-1.85-1.81-3.71-3.61-5.45-5.51a4.41,4.41,0,0,0-3.66-1.51c-4.37.09-8.75,0-13.13,0-.68,0-1.61-.12-2,.26-2.66,2.52-5.64,4.81-7.62,7.92-1.48,2.31-.41,3.72,2.4,3.73C126.5,80.75,131.17,80.74,135.84,80.74ZM68.88,33h9.53c7.33,0,7.26,0,7.2-7.26,0-1.86-.55-2.34-2.36-2.32-8,.1-16.08,0-24.12,0-7.27,0-7.21,0-7,7.42,0,1.7.54,2.19,2.2,2.15C59.16,32.9,64,33,68.88,33ZM140.5,114.2h-7.17c-4.89,0-4.79,0-4.81,4.9,0,1.92.63,2.33,2.39,2.28,4.08-.11,8.16,0,12.24,0,2,0,4,.1,6,0,2.61-.17,3.35-1.66,3.36-5.22,0-3-2-1.78-3.33-1.85C146.27,114.1,143.38,114.2,140.5,114.2ZM135.61,64c7.77,0,7.72,0,7.31-7.7-.08-1.4-.46-1.89-1.88-1.86-3.46.08-6.93.12-10.39,0-1.78-.07-2.09.64-2.12,2.23C128.39,64,128.34,64,135.61,64Zm-23.8,38.22c1.69,0,3.39-.06,5.07,0,1.4.07,2.35-.14,2.13-1.88-.17-1.33.64-3.13-2-2.93-2,.15-2.83-1.1-2.81-3,0-2.09,0-4.18,0-6.26a2.36,2.36,0,1,0-4.71-.06c0,2-.07,4,0,6,.06,2.16-.74,3.5-3.07,3.39-1.26-.06-1.65.36-1.77,1.66-.22,2.37.38,3.54,3,3.15A29,29,0,0,1,111.81,102.24Zm35.9-2.39c.39,0,.79,0,1.18,0,1.69-.1,3.7.81,3.66-2.48s-2.07-2.11-3.59-2.25c-1.07-.1-2.17,0-3.25,0-1.73-.12-2.92-.09-2.9,2.35s1,2.63,2.82,2.43A20.62,20.62,0,0,1,147.71,99.85Z"/><path class="cls-1" d="M83.19,68.68c0,7.32.85,7.55-7.21,7.26-2.12-.08-2.42.78-2.38,2.58.2,7.64.2,7-7.17,7s-7.37.63-7.1-7.07c.08-2.24-.79-2.58-2.74-2.52-7.42.21-6.89.16-6.86-7,0-7.34-.85-7.55,7.21-7.25,2.12.07,2.42-.79,2.37-2.59-.19-7.63-.21-7,7.17-7s7.34-.63,7.12,7.07C73.55,61,74,62,76,61.63c.1,0,.2,0,.3,0C83.74,61.5,83.22,61.5,83.19,68.68Zm-4.8.33c0-2.52,0-2.6-2.24-2.57-8,.12-7.44.2-7.27-7.2.05-2.06-.7-2.41-2.54-2.43S64,57.4,64,59.19c.19,7.67.46,7.39-7.23,7.2-1.83,0-2.36.48-2.35,2.32s.44,2.58,2.46,2.52c7.66-.23,7.27-.31,7.13,7,0,1.82.3,2.61,2.39,2.59s2.48-.65,2.43-2.55c-.17-7.46-.44-7.23,7.08-7C77.85,71.26,78.81,70.81,78.39,69Z"/></svg>