<svg xmlns="http://www.w3.org/2000/svg" xmlns:xlink="http://www.w3.org/1999/xlink" viewBox="0 0 1288.21 553.31"><defs><style>.cls-1{isolation:isolate;}.cls-2{fill:#6c2910;}.cls-10,.cls-12,.cls-13,.cls-14,.cls-3,.cls-4,.cls-5,.cls-8,.cls-9{mix-blend-mode:multiply;}.cls-3{fill:url(#radial-gradient);}.cls-4{fill:url(#radial-gradient-2);}.cls-5{fill:url(#radial-gradient-3);}.cls-6{fill:url(#radial-gradient-4);}.cls-7{fill:#facb74;}.cls-8{fill:url(#radial-gradient-5);}.cls-9{fill:url(#radial-gradient-6);}.cls-10{fill:url(#radial-gradient-7);}.cls-11{fill:url(#radial-gradient-8);}.cls-12{fill:url(#radial-gradient-9);}.cls-13{fill:url(#radial-gradient-10);}.cls-14{fill:url(#radial-gradient-11);}.cls-15{fill:url(#radial-gradient-12);}.cls-16{fill:#6c2911;}.cls-17{fill:#9c966f;}</style><radialGradient id="radial-gradient" cx="355.92" cy="325.57" r="232.9" gradientTransform="translate(334.46 -156.31) rotate(45)" gradientUnits="userSpaceOnUse"><stop offset="0" stop-color="#666"/><stop offset="0" stop-color="#666"/><stop offset="0.11" stop-color="#8f8f8f"/><stop offset="0.22" stop-color="#b1b1b1"/><stop offset="0.34" stop-color="#cecece"/><stop offset="0.47" stop-color="#e3e3e3"/><stop offset="0.61" stop-color="#f3f3f3"/><stop offset="0.77" stop-color="#fcfcfc"/><stop offset="1" stop-color="#fff"/></radialGradient><radialGradient id="radial-gradient-2" cx="406.88" cy="283.83" r="232.9" gradientTransform="translate(319.87 -204.57) rotate(45)" xlink:href="#radial-gradient"/><radialGradient id="radial-gradient-3" cx="353.05" cy="300.17" r="232.9" gradientTransform="matrix(1, 0, 0, 1, 0, 0)" xlink:href="#radial-gradient"/><radialGradient id="radial-gradient-4" cx="304.47" cy="136.81" r="343.06" gradientUnits="userSpaceOnUse"><stop offset="0" stop-color="#fff"/><stop offset="1" stop-color="#b1b1b1"/></radialGradient><radialGradient id="radial-gradient-5" cx="652.54" cy="325.57" r="232.9" gradientTransform="translate(421.34 -366.06) rotate(45)" xlink:href="#radial-gradient"/><radialGradient id="radial-gradient-6" cx="703.5" cy="283.83" r="232.9" gradientTransform="translate(406.75 -414.32) rotate(45)" xlink:href="#radial-gradient"/><radialGradient id="radial-gradient-7" cx="649.67" cy="300.17" r="232.9" gradientTransform="matrix(1, 0, 0, 1, 0, 0)" xlink:href="#radial-gradient"/><radialGradient id="radial-gradient-8" cx="601.09" cy="136.81" r="343.06" xlink:href="#radial-gradient-4"/><radialGradient id="radial-gradient-9" cx="952.23" cy="325.57" r="232.9" gradientTransform="translate(509.12 -577.97) rotate(45)" xlink:href="#radial-gradient"/><radialGradient id="radial-gradient-10" cx="1003.19" cy="283.83" r="232.9" gradientTransform="translate(494.53 -626.23) rotate(45)" xlink:href="#radial-gradient"/><radialGradient id="radial-gradient-11" cx="949.36" cy="300.17" r="232.9" gradientTransform="matrix(1, 0, 0, 1, 0, 0)" xlink:href="#radial-gradient"/><radialGradient id="radial-gradient-12" cx="900.78" cy="136.81" r="343.06" xlink:href="#radial-gradient-4"/></defs><g class="cls-1"><g id="Capa_2" data-name="Capa 2"><g id="Capa_1-2" data-name="Capa 1"><path class="cls-2" d="M1240.7,106.73A27.84,27.84,0,0,1,1217.87,134c-55.79,10.7-98.08,59.84-98.08,118.7,0,97.23-79.08,176.31-176.31,176.31-.55,0-1.15,0-1.71-.09s-1.15.09-1.75.09c-97.18,0-176.27-79.08-176.27-176.31a120.91,120.91,0,0,0-241.82,0C521.93,349.9,442.84,429,345.66,429S169.35,349.9,169.35,252.67A121,121,0,0,0,48.49,131.81,27.71,27.71,0,0,1,21,100.55c1.77-14.26,14.6-24.26,29-24.14,96.5.81,174.77,79.58,174.77,176.26a120.89,120.89,0,1,0,241.78,0c0-97.18,79.13-176.26,176.31-176.26s176.31,79.08,176.31,176.26c0,66.67,54.25,120.91,120.87,120.91.6,0,1.2.05,1.75.1s1.16-.1,1.71-.1a121.05,121.05,0,0,0,120.91-120.91c0-86,61.94-157.83,143.58-173.22a27.71,27.71,0,0,1,32.73,27.28Z" transform="translate(-2.87 -5.17)"/><circle class="cls-3" cx="355.92" cy="325.57" r="232.9" transform="translate(-128.84 341.86) rotate(-45)"/><circle class="cls-4" cx="406.87" cy="283.83" r="232.9" transform="translate(-84.4 365.67) rotate(-45)"/><circle class="cls-5" cx="353.05" cy="300.17" r="232.9"/><circle class="cls-6" cx="347.24" cy="247.97" r="133.09"/><circle class="cls-7" cx="347.24" cy="247.97" r="127.52"/><circle class="cls-8" cx="652.54" cy="325.57" r="232.9" transform="translate(-41.96 551.61) rotate(-45)"/><circle class="cls-9" cx="703.5" cy="283.83" r="232.9" transform="translate(2.48 575.41) rotate(-45)"/><circle class="cls-10" cx="649.67" cy="300.17" r="232.9"/><circle class="cls-11" cx="643.87" cy="247.97" r="133.09"/><circle class="cls-7" cx="643.87" cy="247.97" r="127.52"/><circle class="cls-12" cx="952.23" cy="325.57" r="232.9" transform="translate(45.82 763.52) rotate(-45)"/><circle class="cls-13" cx="1003.19" cy="283.83" r="232.9" transform="translate(90.26 787.33) rotate(-45)"/><circle class="cls-14" cx="949.36" cy="300.17" r="232.9"/><circle class="cls-15" cx="943.56" cy="247.97" r="133.09"/><circle class="cls-7" cx="943.56" cy="247.97" r="127.52"/><path class="cls-16" d="M355.63,218.84v79.58H341.18V235.68L322.05,242V230.34L354,218.84Z" transform="translate(-2.87 -5.17)"/><path class="cls-16" d="M670.58,287.08v11.34H616.84v-9.71l25.78-27.85a90.54,90.54,0,0,0,6.38-8,28.17,28.17,0,0,0,3.35-6.13,15.33,15.33,0,0,0,1-5.26,14.78,14.78,0,0,0-1.31-6.4,9.87,9.87,0,0,0-3.79-4.28,11.36,11.36,0,0,0-6.08-1.53,12.14,12.14,0,0,0-6.78,1.83,11.5,11.5,0,0,0-4.26,5,17.83,17.83,0,0,0-1.44,7.36H615.26a25.71,25.71,0,0,1,3.27-12.84,24.39,24.39,0,0,1,9.37-9.29,28.69,28.69,0,0,1,14.5-3.49,32,32,0,0,1,13.84,2.7,19.44,19.44,0,0,1,8.62,7.66,22.76,22.76,0,0,1,2.94,11.82,23.5,23.5,0,0,1-1.25,7.53A35.33,35.33,0,0,1,663,255a66.13,66.13,0,0,1-5.37,7.33q-3.1,3.71-6.92,7.57l-15.48,17.23Z" transform="translate(-2.87 -5.17)"/><path class="cls-16" d="M936,263.48v-7.69h10.42a38.75,38.75,0,0,1,11.63,1.56,22.38,22.38,0,0,1,8.15,4.36,17.71,17.71,0,0,1,4.77,6.51,20.28,20.28,0,0,1,1.55,8,22.69,22.69,0,0,1-2.07,9.89,20.74,20.74,0,0,1-5.8,7.33,26.1,26.1,0,0,1-8.75,4.55,36.34,36.34,0,0,1-10.85,1.56,35.24,35.24,0,0,1-9.84-1.39,27.23,27.23,0,0,1-8.58-4.2,20.36,20.36,0,0,1-6-7.09,21.15,21.15,0,0,1-2.24-9.94H932.8a10.67,10.67,0,0,0,1.61,5.83,11,11,0,0,0,4.47,4,14.13,14.13,0,0,0,6.45,1.44,15.09,15.09,0,0,0,6.85-1.44,10.22,10.22,0,0,0,4.38-4.15,12.89,12.89,0,0,0,1.53-6.46,13.8,13.8,0,0,0-1.69-7.25,10,10,0,0,0-4.82-4.08,19.11,19.11,0,0,0-7.44-1.31Zm0-11.12h8.13a15,15,0,0,0,7.11-1.5,9.87,9.87,0,0,0,4.2-4.14,13.07,13.07,0,0,0,1.39-6.13,13.27,13.27,0,0,0-1.26-6,8.88,8.88,0,0,0-3.79-3.93,14.84,14.84,0,0,0-12.26-.13,10.17,10.17,0,0,0-4.2,3.57,9.73,9.73,0,0,0-1.55,5.53H919.34a19.25,19.25,0,0,1,3.4-11.31,23.12,23.12,0,0,1,9.24-7.66,30,30,0,0,1,13-2.78,34,34,0,0,1,13.76,2.59,20.66,20.66,0,0,1,9.21,7.6,22.16,22.16,0,0,1,3.3,12.43,16.35,16.35,0,0,1-1.66,7.06,19.65,19.65,0,0,1-4.85,6.32,25,25,0,0,1-7.8,4.53,30.14,30.14,0,0,1-10.54,1.71H936Z" transform="translate(-2.87 -5.17)"/><path class="cls-17" d="M10.67,7.08V41.9H2.87V7.08Zm15.9,0v6.05H8V7.08Zm-2.42,14v5.84H8V21.09Zm2.39,14.78v6H8v-6Z" transform="translate(-2.87 -5.17)"/><path class="cls-17" d="M37.83,5.17V41.9H30.35V5.17Z" transform="translate(-2.87 -5.17)"/><path class="cls-17" d="M62.87,22.05V41.9H55.41V16h7Zm7.73-6.22-.12,7c-.32-.05-.74-.09-1.25-.13s-.94-.06-1.31-.06a7.93,7.93,0,0,0-2.48.35,4.51,4.51,0,0,0-1.72,1,4.17,4.17,0,0,0-1,1.66,7,7,0,0,0-.34,2.29L61,27.22a20.7,20.7,0,0,1,.5-4.69,12.77,12.77,0,0,1,1.46-3.7,7.25,7.25,0,0,1,2.34-2.42,5.84,5.84,0,0,1,3.16-.87,9.46,9.46,0,0,1,1.17.08A5.38,5.38,0,0,1,70.6,15.83Z" transform="translate(-2.87 -5.17)"/><path class="cls-17" d="M72.08,29.22v-.5a16.42,16.42,0,0,1,.81-5.25,11.94,11.94,0,0,1,2.39-4.17,11,11,0,0,1,3.88-2.76,13.16,13.16,0,0,1,5.26-1,13.39,13.39,0,0,1,5.32,1,10.93,10.93,0,0,1,3.89,2.76A11.94,11.94,0,0,1,96,23.47a16.42,16.42,0,0,1,.81,5.25v.5A16.25,16.25,0,0,1,96,34.45a12,12,0,0,1-2.39,4.18,10.88,10.88,0,0,1-3.88,2.77,13.4,13.4,0,0,1-5.28,1,13.56,13.56,0,0,1-5.29-1,10.87,10.87,0,0,1-3.9-2.77,12,12,0,0,1-2.39-4.18A16.25,16.25,0,0,1,72.08,29.22Zm7.48-.5v.5a15.23,15.23,0,0,0,.26,2.87,7.32,7.32,0,0,0,.82,2.35A4.14,4.14,0,0,0,82.16,36a4.4,4.4,0,0,0,2.31.57A4.3,4.3,0,0,0,86.76,36a4.19,4.19,0,0,0,1.51-1.56,7.58,7.58,0,0,0,.83-2.35,16.14,16.14,0,0,0,.25-2.87v-.5a15.85,15.85,0,0,0-.25-2.83,7.93,7.93,0,0,0-.83-2.36,4.26,4.26,0,0,0-1.52-1.6,4.45,4.45,0,0,0-2.33-.57,4,4,0,0,0-3.78,2.17,7.65,7.65,0,0,0-.82,2.36A15,15,0,0,0,79.56,28.72Z" transform="translate(-2.87 -5.17)"/><path class="cls-17" d="M108.62,5.17V41.9h-7.48V5.17Z" transform="translate(-2.87 -5.17)"/><path class="cls-17" d="M125.12,29.27v-.5a20.46,20.46,0,0,1,.66-5.37,12.7,12.7,0,0,1,1.94-4.18,8.72,8.72,0,0,1,3.17-2.72,9.41,9.41,0,0,1,4.32-1,7.6,7.6,0,0,1,3.93,1A8.87,8.87,0,0,1,142,19.31a16.2,16.2,0,0,1,1.92,4.19A32.38,32.38,0,0,1,145,28.7v.86a28.83,28.83,0,0,1-1.11,5A16.49,16.49,0,0,1,142,38.63a8.76,8.76,0,0,1-2.88,2.75,7.55,7.55,0,0,1-4,1,9.23,9.23,0,0,1-4.32-1,8.91,8.91,0,0,1-3.14-2.75,13,13,0,0,1-1.93-4.16A19.63,19.63,0,0,1,125.12,29.27Zm7.46-.5v.5a17,17,0,0,0,.23,2.85,7.81,7.81,0,0,0,.75,2.32A4.15,4.15,0,0,0,135,36a3.76,3.76,0,0,0,2.11.57,4.59,4.59,0,0,0,2.75-.78,4.74,4.74,0,0,0,1.62-2.17A9,9,0,0,0,142,30.4V27.88a11.62,11.62,0,0,0-.31-2.75,6.14,6.14,0,0,0-.92-2.05,4.06,4.06,0,0,0-1.52-1.28,4.84,4.84,0,0,0-2.16-.44,3.7,3.7,0,0,0-2.08.56,4.25,4.25,0,0,0-1.4,1.56,8.18,8.18,0,0,0-.78,2.36A15.81,15.81,0,0,0,132.58,28.77Zm8.66,7.34V5.17h7.51V41.9H142Z" transform="translate(-2.87 -5.17)"/><path class="cls-17" d="M165.92,42.38a14.76,14.76,0,0,1-5.52-1,11.71,11.71,0,0,1-6.7-6.72,13.31,13.31,0,0,1-.88-4.86v-.91a16.83,16.83,0,0,1,.81-5.33A12.15,12.15,0,0,1,156,19.34a10.48,10.48,0,0,1,3.86-2.8,13.13,13.13,0,0,1,5.24-1,12.59,12.59,0,0,1,4.9.9A9.89,9.89,0,0,1,173.65,19a11.47,11.47,0,0,1,2.26,4,16.76,16.76,0,0,1,.77,5.23v3.06H155.83V26.47h13.54V25.9a5.57,5.57,0,0,0-.49-2.39,3.59,3.59,0,0,0-1.44-1.59,4.53,4.53,0,0,0-2.38-.56,4.18,4.18,0,0,0-2.27.57,4.05,4.05,0,0,0-1.45,1.61,8.39,8.39,0,0,0-.78,2.42,18.29,18.29,0,0,0-.23,2.95v.91a8.83,8.83,0,0,0,.4,2.75,5.85,5.85,0,0,0,1.2,2.13,5.67,5.67,0,0,0,1.91,1.39,6.29,6.29,0,0,0,2.56.5,8.6,8.6,0,0,0,3.37-.68,7.17,7.17,0,0,0,2.78-2.14l3.49,4A9.83,9.83,0,0,1,173.83,40a12.27,12.27,0,0,1-3.41,1.74A14.24,14.24,0,0,1,165.92,42.38Z" transform="translate(-2.87 -5.17)"/><path class="cls-17" d="M188.16,5.17V41.9h-7.48V5.17Z" transform="translate(-2.87 -5.17)"/><path class="cls-17" d="M204.74,29.27v-.5a18.86,18.86,0,0,1,.71-5.37,12.35,12.35,0,0,1,2.1-4.18,9.36,9.36,0,0,1,3.32-2.72,9.8,9.8,0,0,1,4.39-1,8.64,8.64,0,0,1,4.35,1,7.74,7.74,0,0,1,2.8,2.77,15.68,15.68,0,0,1,1.7,4.19,44.9,44.9,0,0,1,1,5.2v.86a31.91,31.91,0,0,1-1.1,5,16.4,16.4,0,0,1-1.86,4.07,8.43,8.43,0,0,1-2.86,2.75,7.91,7.91,0,0,1-4.08,1,9.53,9.53,0,0,1-4.35-1,9.72,9.72,0,0,1-3.31-2.75,12.63,12.63,0,0,1-2.1-4.16A18.1,18.1,0,0,1,204.74,29.27ZM222,16h6.79V41A10.86,10.86,0,0,1,227.2,47a10.28,10.28,0,0,1-4.48,3.78A16.24,16.24,0,0,1,216,52.09a14.47,14.47,0,0,1-3.49-.45,14,14,0,0,1-3.42-1.31,8.79,8.79,0,0,1-2.68-2.21l3.18-4.4a8.75,8.75,0,0,0,2.63,2,7.59,7.59,0,0,0,3.49.77,6.54,6.54,0,0,0,3-.64,4.39,4.39,0,0,0,1.9-1.89,6.34,6.34,0,0,0,.66-3V22.07ZM212.2,28.77v.5a12.85,12.85,0,0,0,.3,2.85,7.65,7.65,0,0,0,.91,2.32A4.4,4.4,0,0,0,214.94,36a4,4,0,0,0,2.16.57,5.09,5.09,0,0,0,3-.78,4.53,4.53,0,0,0,1.68-2.17,9.26,9.26,0,0,0,.56-3.22V27.88a11.12,11.12,0,0,0-.31-2.75,6.14,6.14,0,0,0-.92-2.05,4,4,0,0,0-1.58-1.28,5.51,5.51,0,0,0-2.33-.44,4,4,0,0,0-2.15.56,4.65,4.65,0,0,0-1.56,1.56,7.71,7.71,0,0,0-.93,2.36A12.91,12.91,0,0,0,212.2,28.77Z" transform="translate(-2.87 -5.17)"/><path class="cls-17" d="M249.77,30.37l2-.05a17.79,17.79,0,0,1-.61,4.81A11.5,11.5,0,0,1,249.4,39a8.44,8.44,0,0,1-3,2.52,9.09,9.09,0,0,1-4.15.9,10.8,10.8,0,0,1-3.5-.54,6.83,6.83,0,0,1-2.74-1.7,7.55,7.55,0,0,1-1.77-3,13.53,13.53,0,0,1-.63-4.39V16h7.47V32.81a5.06,5.06,0,0,0,.25,1.71,3.22,3.22,0,0,0,.69,1.16,2.68,2.68,0,0,0,1.1.67,4.74,4.74,0,0,0,1.45.22,5.23,5.23,0,0,0,3.12-.83,4.36,4.36,0,0,0,1.6-2.22A10,10,0,0,0,249.77,30.37ZM249,35.66V16h7.51V41.9h-7Z" transform="translate(-2.87 -5.17)"/><path class="cls-17" d="M269.43,16V41.9h-7.49V16Zm-7.23-3,4.74-7.43h8L268.3,13Z" transform="translate(-2.87 -5.17)"/><path class="cls-17" d="M289.66,26.12l0,4.11H286a6.49,6.49,0,0,0-2.14.31,3.87,3.87,0,0,0-1.45.85,3.23,3.23,0,0,0-.8,1.24,4.52,4.52,0,0,0-.25,1.54,2.67,2.67,0,0,0,1.43,2.42,3.27,3.27,0,0,0,1.56.36,5.13,5.13,0,0,0,2.5-.57,4.73,4.73,0,0,0,1.61-1.4,2.72,2.72,0,0,0,.58-1.55l1.79,3.11a19.18,19.18,0,0,1-1.05,2,8.92,8.92,0,0,1-1.58,1.88,7.65,7.65,0,0,1-2.31,1.43,8.71,8.71,0,0,1-3.24.55,9.64,9.64,0,0,1-4.42-1,8.11,8.11,0,0,1-3.17-2.73,7,7,0,0,1-1.18-4,8.29,8.29,0,0,1,.74-3.61,7,7,0,0,1,2.23-2.68,10.56,10.56,0,0,1,3.77-1.66,22,22,0,0,1,5.31-.56Zm-.93,9.61V24.63a5.08,5.08,0,0,0-.36-2,2.88,2.88,0,0,0-1.13-1.31,3.67,3.67,0,0,0-2-.48,4.07,4.07,0,0,0-1.78.36,2.52,2.52,0,0,0-1.15,1,3.2,3.2,0,0,0-.4,1.65h-7.46a6.94,6.94,0,0,1,.79-3.25A8.24,8.24,0,0,1,277.52,18a11,11,0,0,1,3.53-1.78,15.73,15.73,0,0,1,4.62-.64,13.59,13.59,0,0,1,5.41,1,8.53,8.53,0,0,1,3.77,3,8.82,8.82,0,0,1,1.39,5.08V35.51a19.29,19.29,0,0,0,.27,3.67,8.35,8.35,0,0,0,.8,2.31v.41h-7.53a10.32,10.32,0,0,1-.79-2.79A21,21,0,0,1,288.73,35.73Z" transform="translate(-2.87 -5.17)"/><path class="cls-17" d="M325.53,42.38a14.72,14.72,0,0,1-5.52-1,11.71,11.71,0,0,1-6.7-6.72,13.31,13.31,0,0,1-.88-4.86v-.91a16.83,16.83,0,0,1,.81-5.33,12.15,12.15,0,0,1,2.38-4.24,10.48,10.48,0,0,1,3.86-2.8,13.13,13.13,0,0,1,5.24-1,12.59,12.59,0,0,1,4.9.9A10,10,0,0,1,333.26,19a11.47,11.47,0,0,1,2.26,4,16.76,16.76,0,0,1,.77,5.23v3.06H315.44V26.47H329V25.9a5.43,5.43,0,0,0-.49-2.39,3.51,3.51,0,0,0-1.43-1.59,4.53,4.53,0,0,0-2.38-.56,4.18,4.18,0,0,0-2.27.57A4.05,4.05,0,0,0,321,23.54a8.39,8.39,0,0,0-.78,2.42,17.22,17.22,0,0,0-.23,2.95v.91a8.83,8.83,0,0,0,.4,2.75,5.85,5.85,0,0,0,1.2,2.13,5.57,5.57,0,0,0,1.91,1.39,6.29,6.29,0,0,0,2.56.5,8.6,8.6,0,0,0,3.37-.68,7.24,7.24,0,0,0,2.78-2.14l3.49,4A9.83,9.83,0,0,1,333.44,40,12.27,12.27,0,0,1,330,41.71,14.24,14.24,0,0,1,325.53,42.38Z" transform="translate(-2.87 -5.17)"/><path class="cls-17" d="M347.22,21.55V41.9h-7.48V16h7Zm-1,6.5-1.86.05a18,18,0,0,1,.71-5.24,11.65,11.65,0,0,1,2.05-3.95,8.65,8.65,0,0,1,3.18-2.5,9.5,9.5,0,0,1,4.1-.87,10,10,0,0,1,3.32.53,6.34,6.34,0,0,1,2.6,1.69A7.59,7.59,0,0,1,362,20.82a16.42,16.42,0,0,1,.58,4.67V41.9h-7.51V25.47a5.65,5.65,0,0,0-.46-2.51,2.55,2.55,0,0,0-1.32-1.25,5.81,5.81,0,0,0-2.12-.35,4.62,4.62,0,0,0-2.25.51,4.33,4.33,0,0,0-1.53,1.42,6.36,6.36,0,0,0-.87,2.13A11.59,11.59,0,0,0,346.24,28.05Z" transform="translate(-2.87 -5.17)"/><path class="cls-17" d="M394.29,26.12l0,4.11h-3.7a6.49,6.49,0,0,0-2.14.31,3.87,3.87,0,0,0-1.45.85,3.23,3.23,0,0,0-.8,1.24,4.52,4.52,0,0,0-.25,1.54,2.67,2.67,0,0,0,1.43,2.42A3.27,3.27,0,0,0,389,37a5.16,5.16,0,0,0,2.5-.57,4.73,4.73,0,0,0,1.61-1.4,2.8,2.8,0,0,0,.58-1.55l1.79,3.11a19.18,19.18,0,0,1-1,2,8.92,8.92,0,0,1-1.58,1.88,7.65,7.65,0,0,1-2.31,1.43,8.71,8.71,0,0,1-3.24.55,9.61,9.61,0,0,1-4.42-1,8.11,8.11,0,0,1-3.17-2.73,7,7,0,0,1-1.19-4,8.43,8.43,0,0,1,.74-3.61,7,7,0,0,1,2.24-2.68,10.56,10.56,0,0,1,3.77-1.66,22,22,0,0,1,5.31-.56Zm-.94,9.61V24.63a5.28,5.28,0,0,0-.35-2,2.88,2.88,0,0,0-1.13-1.31,3.67,3.67,0,0,0-2-.48,4.07,4.07,0,0,0-1.78.36,2.52,2.52,0,0,0-1.15,1,3.1,3.1,0,0,0-.4,1.65H379.1a6.82,6.82,0,0,1,.79-3.25A8.24,8.24,0,0,1,382.15,18a11,11,0,0,1,3.53-1.78,15.71,15.71,0,0,1,4.61-.64,13.64,13.64,0,0,1,5.42,1,8.53,8.53,0,0,1,3.77,3,8.81,8.81,0,0,1,1.38,5.08V35.51a19.14,19.14,0,0,0,.28,3.67,8.35,8.35,0,0,0,.8,2.31v.41h-7.53a10.32,10.32,0,0,1-.79-2.79A21,21,0,0,1,393.35,35.73Z" transform="translate(-2.87 -5.17)"/><path class="cls-17" d="M416.58,36.57a4.43,4.43,0,0,0,2.08-.46A3.26,3.26,0,0,0,420,34.83a3.79,3.79,0,0,0,.49-2h7a8.71,8.71,0,0,1-1.44,5,9.79,9.79,0,0,1-3.89,3.36,12.31,12.31,0,0,1-5.5,1.21,12.79,12.79,0,0,1-5.26-1,10.29,10.29,0,0,1-3.76-2.78,12.37,12.37,0,0,1-2.26-4.17,17.12,17.12,0,0,1-.75-5.16v-.62a17.08,17.08,0,0,1,.75-5.14,12.37,12.37,0,0,1,2.26-4.19,10.34,10.34,0,0,1,3.75-2.78,12.87,12.87,0,0,1,5.25-1,12.53,12.53,0,0,1,5.63,1.22,9.31,9.31,0,0,1,3.84,3.51,10.41,10.41,0,0,1,1.38,5.49h-7a5.36,5.36,0,0,0-.44-2.24,3.62,3.62,0,0,0-1.34-1.58,4.56,4.56,0,0,0-4.45,0A3.74,3.74,0,0,0,413,23.56a8.72,8.72,0,0,0-.62,2.33,22,22,0,0,0-.16,2.76v.62a22.75,22.75,0,0,0,.16,2.81,8.08,8.08,0,0,0,.64,2.33A3.74,3.74,0,0,0,414.3,36,4,4,0,0,0,416.58,36.57Z" transform="translate(-2.87 -5.17)"/><path class="cls-17" d="M444.41,16v5.24H429.06V16ZM432.58,9.61h7.48V33.79a4.17,4.17,0,0,0,.26,1.65,1.5,1.5,0,0,0,.86.8,4.18,4.18,0,0,0,1.53.23,9.62,9.62,0,0,0,1.15,0c.32,0,.62-.07.89-.12v5.41a13.83,13.83,0,0,1-2,.49,14.08,14.08,0,0,1-2.34.18,10.2,10.2,0,0,1-4.17-.79,5.63,5.63,0,0,1-2.69-2.5,9.32,9.32,0,0,1-.93-4.46Z" transform="translate(-2.87 -5.17)"/><path class="cls-17" d="M447.9,9.33a3.45,3.45,0,0,1,1.15-2.67,4.9,4.9,0,0,1,6,0,3.42,3.42,0,0,1,1.16,2.67A3.39,3.39,0,0,1,455.09,12a4.9,4.9,0,0,1-6,0A3.42,3.42,0,0,1,447.9,9.33ZM455.84,16V41.9h-7.48V16Z" transform="translate(-2.87 -5.17)"/><path class="cls-17" d="M466.77,16l5.38,20.62.05,5.26h-4.71L458.91,16Zm3.5,20.59L475.67,16h7.84L474.93,41.9h-4.71Z" transform="translate(-2.87 -5.17)"/><path class="cls-17" d="M486.17,9.33a3.42,3.42,0,0,1,1.15-2.67,4.32,4.32,0,0,1,3-1,4.41,4.41,0,0,1,3,1,3.42,3.42,0,0,1,1.16,2.67A3.39,3.39,0,0,1,493.36,12a4.41,4.41,0,0,1-3,1,4.32,4.32,0,0,1-3-1A3.38,3.38,0,0,1,486.17,9.33ZM494.11,16V41.9h-7.49V16Z" transform="translate(-2.87 -5.17)"/><path class="cls-17" d="M498.41,29.27v-.5a20.46,20.46,0,0,1,.66-5.37A12.7,12.7,0,0,1,501,19.22a8.72,8.72,0,0,1,3.17-2.72,9.42,9.42,0,0,1,4.33-1,7.59,7.59,0,0,1,3.92,1,8.87,8.87,0,0,1,2.86,2.77,16.2,16.2,0,0,1,1.92,4.19,31.34,31.34,0,0,1,1.12,5.2v.86a27.94,27.94,0,0,1-1.11,5,16.49,16.49,0,0,1-1.93,4.07,8.83,8.83,0,0,1-2.87,2.75,7.62,7.62,0,0,1-4,1,9.23,9.23,0,0,1-4.32-1A8.91,8.91,0,0,1,501,38.65a13,13,0,0,1-1.93-4.16A19.63,19.63,0,0,1,498.41,29.27Zm7.47-.5v.5a17,17,0,0,0,.22,2.85,7.54,7.54,0,0,0,.76,2.32A4,4,0,0,0,508.24,36a3.76,3.76,0,0,0,2.11.57,4.59,4.59,0,0,0,2.75-.78,4.74,4.74,0,0,0,1.62-2.17,9,9,0,0,0,.58-3.22V27.88a11.62,11.62,0,0,0-.31-2.75,6.14,6.14,0,0,0-.92-2.05,4.06,4.06,0,0,0-1.52-1.28,4.84,4.84,0,0,0-2.16-.44,3.7,3.7,0,0,0-2.08.56,4.14,4.14,0,0,0-1.39,1.56,7.89,7.89,0,0,0-.79,2.36A15.84,15.84,0,0,0,505.88,28.77Zm8.65,7.34V5.17H522V41.9H515.3Z" transform="translate(-2.87 -5.17)"/><path class="cls-17" d="M541.65,26.12l.05,4.11H538a6.49,6.49,0,0,0-2.14.31,3.75,3.75,0,0,0-1.44.85,3.26,3.26,0,0,0-.81,1.24,4.78,4.78,0,0,0-.25,1.54,2.67,2.67,0,0,0,.39,1.43,2.64,2.64,0,0,0,1,1,3.2,3.2,0,0,0,1.55.36,5.13,5.13,0,0,0,2.5-.57,4.77,4.77,0,0,0,1.62-1.4,2.78,2.78,0,0,0,.57-1.55l1.79,3.11a16,16,0,0,1-1.05,2,8.63,8.63,0,0,1-1.58,1.88,7.53,7.53,0,0,1-2.31,1.43,8.71,8.71,0,0,1-3.24.55,9.64,9.64,0,0,1-4.42-1,8.18,8.18,0,0,1-3.17-2.73,7,7,0,0,1-1.18-4,8.43,8.43,0,0,1,.74-3.61,6.93,6.93,0,0,1,2.24-2.68,10.5,10.5,0,0,1,3.76-1.66,22.07,22.07,0,0,1,5.31-.56Zm-.93,9.61V24.63a5.08,5.08,0,0,0-.36-2,2.86,2.86,0,0,0-1.12-1.31,3.71,3.71,0,0,0-2-.48,4.1,4.1,0,0,0-1.78.36,2.57,2.57,0,0,0-1.15,1,3.2,3.2,0,0,0-.39,1.65h-7.47a6.94,6.94,0,0,1,.79-3.25A8.24,8.24,0,0,1,529.51,18,11.05,11.05,0,0,1,533,16.18a15.73,15.73,0,0,1,4.62-.64,13.59,13.59,0,0,1,5.41,1,8.47,8.47,0,0,1,3.77,3,8.74,8.74,0,0,1,1.39,5.08V35.51a19.29,19.29,0,0,0,.27,3.67,8.69,8.69,0,0,0,.8,2.31v.41h-7.53a10.7,10.7,0,0,1-.79-2.79A22.23,22.23,0,0,1,540.72,35.73Z" transform="translate(-2.87 -5.17)"/><path class="cls-17" d="M552.08,29.27v-.5a20.46,20.46,0,0,1,.66-5.37,12.49,12.49,0,0,1,1.93-4.18,8.8,8.8,0,0,1,3.17-2.72,9.42,9.42,0,0,1,4.33-1,7.54,7.54,0,0,1,3.92,1A8.77,8.77,0,0,1,569,19.31a16.21,16.21,0,0,1,1.93,4.19A33.5,33.5,0,0,1,572,28.7v.86a28.83,28.83,0,0,1-1.11,5A16.51,16.51,0,0,1,569,38.63a8.73,8.73,0,0,1-2.87,2.75,7.57,7.57,0,0,1-4,1,9.22,9.22,0,0,1-4.31-1,8.94,8.94,0,0,1-3.15-2.75,13,13,0,0,1-1.92-4.16A19.63,19.63,0,0,1,552.08,29.27Zm7.46-.5v.5a17,17,0,0,0,.23,2.85,7.81,7.81,0,0,0,.75,2.32A4,4,0,0,0,561.91,36a3.7,3.7,0,0,0,2.1.57,4.57,4.57,0,0,0,2.75-.78,4.76,4.76,0,0,0,1.63-2.17A9,9,0,0,0,569,30.4V27.88a11.12,11.12,0,0,0-.31-2.75,6,6,0,0,0-.92-2.05,4,4,0,0,0-1.52-1.28,4.77,4.77,0,0,0-2.15-.44,3.68,3.68,0,0,0-2.08.56,4.25,4.25,0,0,0-1.4,1.56,8.18,8.18,0,0,0-.79,2.36A15.84,15.84,0,0,0,559.54,28.77Zm8.66,7.34V5.17h7.51V41.9H569Z" transform="translate(-2.87 -5.17)"/><path class="cls-17" d="M592.88,42.38a14.81,14.81,0,0,1-5.53-1,11.85,11.85,0,0,1-4.12-2.72,11.73,11.73,0,0,1-2.57-4,13.31,13.31,0,0,1-.89-4.86v-.91a16.55,16.55,0,0,1,.82-5.33A12.29,12.29,0,0,1,583,19.34a10.6,10.6,0,0,1,3.87-2.8,13.08,13.08,0,0,1,5.23-1,12.64,12.64,0,0,1,4.91.9A9.94,9.94,0,0,1,600.6,19a11.31,11.31,0,0,1,2.26,4,16.46,16.46,0,0,1,.78,5.23v3.06H582.79V26.47h13.53V25.9a5.43,5.43,0,0,0-.49-2.39,3.57,3.57,0,0,0-1.43-1.59,4.56,4.56,0,0,0-2.38-.56,4.24,4.24,0,0,0-2.28.57,4.1,4.1,0,0,0-1.44,1.61,8.39,8.39,0,0,0-.78,2.42,17.19,17.19,0,0,0-.24,2.95v.91a8.82,8.82,0,0,0,.41,2.75,6,6,0,0,0,1.19,2.13,5.71,5.71,0,0,0,1.92,1.39,6.29,6.29,0,0,0,2.56.5,8.6,8.6,0,0,0,3.37-.68,7.14,7.14,0,0,0,2.77-2.14l3.49,4A9.43,9.43,0,0,1,600.78,40a12.14,12.14,0,0,1-3.41,1.74A14.17,14.17,0,0,1,592.88,42.38Z" transform="translate(-2.87 -5.17)"/><path class="cls-17" d="M621,34.7a2,2,0,0,0-.45-1.27,3.83,3.83,0,0,0-1.58-1,21.21,21.21,0,0,0-3.19-.91,23.45,23.45,0,0,1-3.61-1.06,12.14,12.14,0,0,1-2.92-1.61,7,7,0,0,1-1.93-2.24,6.19,6.19,0,0,1-.7-3,7,7,0,0,1,.71-3.09A7.64,7.64,0,0,1,609.42,18a10,10,0,0,1,3.29-1.77,14.11,14.11,0,0,1,4.44-.65,15,15,0,0,1,5.91,1.07,8.69,8.69,0,0,1,3.82,3,7.28,7.28,0,0,1,1.34,4.34h-7.46a3.83,3.83,0,0,0-.38-1.75A2.79,2.79,0,0,0,619.21,21a4.44,4.44,0,0,0-2.08-.42,4.19,4.19,0,0,0-1.76.35,2.83,2.83,0,0,0-1.17.94,2.36,2.36,0,0,0-.42,1.39,1.92,1.92,0,0,0,.25,1,2.54,2.54,0,0,0,.79.82,5.83,5.83,0,0,0,1.41.65,19.23,19.23,0,0,0,2.14.55,26.29,26.29,0,0,1,4.94,1.41,9.09,9.09,0,0,1,3.59,2.52,6.32,6.32,0,0,1,1.35,4.23,6.45,6.45,0,0,1-.78,3.15,7.62,7.62,0,0,1-2.24,2.52,11.2,11.2,0,0,1-3.49,1.67,16.16,16.16,0,0,1-4.59.6A13.27,13.27,0,0,1,611,41.06a9.7,9.7,0,0,1-3.82-3.31,7.54,7.54,0,0,1-1.28-4.1h7a3.59,3.59,0,0,0,.66,2.1,3.44,3.44,0,0,0,1.59,1.19,6.34,6.34,0,0,0,2.2.37,5.22,5.22,0,0,0,2-.34,2.86,2.86,0,0,0,1.25-.92A2.26,2.26,0,0,0,621,34.7Z" transform="translate(-2.87 -5.17)"/><path class="cls-17" d="M643.53,29.27v-.5a20.46,20.46,0,0,1,.66-5.37,12.49,12.49,0,0,1,1.93-4.18,8.8,8.8,0,0,1,3.17-2.72,9.45,9.45,0,0,1,4.33-1,7.54,7.54,0,0,1,3.92,1,8.77,8.77,0,0,1,2.86,2.77,16.21,16.21,0,0,1,1.93,4.19,32.38,32.38,0,0,1,1.12,5.2v.86a28.83,28.83,0,0,1-1.11,5,16.16,16.16,0,0,1-1.94,4.07,8.73,8.73,0,0,1-2.87,2.75,7.57,7.57,0,0,1-4,1,9.22,9.22,0,0,1-4.31-1,9,9,0,0,1-3.15-2.75,13,13,0,0,1-1.92-4.16A19.63,19.63,0,0,1,643.53,29.27Zm7.46-.5v.5a17,17,0,0,0,.23,2.85,7.81,7.81,0,0,0,.75,2.32A4.06,4.06,0,0,0,653.36,36a3.7,3.7,0,0,0,2.1.57,4.55,4.55,0,0,0,2.75-.78,4.76,4.76,0,0,0,1.63-2.17,8.81,8.81,0,0,0,.57-3.22V27.88a11.12,11.12,0,0,0-.31-2.75,5.77,5.77,0,0,0-.92-2.05,3.92,3.92,0,0,0-1.52-1.28,4.77,4.77,0,0,0-2.15-.44,3.68,3.68,0,0,0-2.08.56,4.25,4.25,0,0,0-1.4,1.56,8.18,8.18,0,0,0-.79,2.36A15.84,15.84,0,0,0,651,28.77Zm8.66,7.34V5.17h7.51V41.9h-6.75Z" transform="translate(-2.87 -5.17)"/><path class="cls-17" d="M684.33,42.38a14.81,14.81,0,0,1-5.53-1,11.85,11.85,0,0,1-4.12-2.72,11.73,11.73,0,0,1-2.57-4,13.31,13.31,0,0,1-.89-4.86v-.91a16.55,16.55,0,0,1,.82-5.33,12.15,12.15,0,0,1,2.38-4.24,10.48,10.48,0,0,1,3.86-2.8,13.09,13.09,0,0,1,5.24-1,12.63,12.63,0,0,1,4.9.9A9.94,9.94,0,0,1,692.05,19a11.31,11.31,0,0,1,2.26,4,16.46,16.46,0,0,1,.78,5.23v3.06H674.24V26.47h13.53V25.9a5.43,5.43,0,0,0-.49-2.39,3.51,3.51,0,0,0-1.43-1.59,4.56,4.56,0,0,0-2.38-.56,4.18,4.18,0,0,0-2.27.57,4.05,4.05,0,0,0-1.45,1.61A8.39,8.39,0,0,0,679,26a17.19,17.19,0,0,0-.24,2.95v.91a8.82,8.82,0,0,0,.41,2.75,6,6,0,0,0,1.19,2.13,5.71,5.71,0,0,0,1.92,1.39,6.29,6.29,0,0,0,2.56.5,8.6,8.6,0,0,0,3.37-.68A7.14,7.14,0,0,0,691,33.77l3.5,4A9.68,9.68,0,0,1,692.23,40a12.14,12.14,0,0,1-3.41,1.74A14.17,14.17,0,0,1,684.33,42.38Z" transform="translate(-2.87 -5.17)"/><path class="cls-17" d="M725.53,26.12l.05,4.11h-3.7a6.55,6.55,0,0,0-2.15.31,3.82,3.82,0,0,0-1.44.85,3.12,3.12,0,0,0-.8,1.24,4.52,4.52,0,0,0-.25,1.54,2.67,2.67,0,0,0,1.43,2.42,3.22,3.22,0,0,0,1.55.36,5.1,5.1,0,0,0,2.5-.57,4.68,4.68,0,0,0,1.62-1.4,2.78,2.78,0,0,0,.57-1.55l1.8,3.11a17.56,17.56,0,0,1-1.06,2,8.87,8.87,0,0,1-1.57,1.88,7.65,7.65,0,0,1-2.31,1.43,8.71,8.71,0,0,1-3.24.55,9.68,9.68,0,0,1-4.43-1,8.18,8.18,0,0,1-3.17-2.73,7,7,0,0,1-1.18-4,8.43,8.43,0,0,1,.74-3.61,7,7,0,0,1,2.24-2.68,10.5,10.5,0,0,1,3.76-1.66,22.07,22.07,0,0,1,5.31-.56Zm-.93,9.61V24.63a5.08,5.08,0,0,0-.36-2,2.86,2.86,0,0,0-1.12-1.31,3.69,3.69,0,0,0-2-.48,4.1,4.1,0,0,0-1.78.36,2.54,2.54,0,0,0-1.14,1,3.1,3.1,0,0,0-.4,1.65h-7.46a6.82,6.82,0,0,1,.79-3.25A8.12,8.12,0,0,1,713.4,18a10.89,10.89,0,0,1,3.52-1.78,15.78,15.78,0,0,1,4.62-.64,13.68,13.68,0,0,1,5.42,1,8.5,8.5,0,0,1,3.76,3,8.74,8.74,0,0,1,1.39,5.08V35.51a18.36,18.36,0,0,0,.28,3.67,8.35,8.35,0,0,0,.8,2.31v.41h-7.54a10.34,10.34,0,0,1-.78-2.79A21,21,0,0,1,724.6,35.73Z" transform="translate(-2.87 -5.17)"/><path class="cls-17" d="M744.88,5.17V41.9H737.4V5.17Z" transform="translate(-2.87 -5.17)"/><path class="cls-17" d="M750.17,9.33a3.44,3.44,0,0,1,1.14-2.67,4.9,4.9,0,0,1,6,0,3.39,3.39,0,0,1,1.16,2.67A3.36,3.36,0,0,1,757.35,12a4.9,4.9,0,0,1-6,0A3.41,3.41,0,0,1,750.17,9.33ZM758.11,16V41.9h-7.49V16Z" transform="translate(-2.87 -5.17)"/><path class="cls-17" d="M771,21.45V41.9h-7.46V16h7Zm-1,6.6-1.89.05a18,18,0,0,1,.66-5,12.19,12.19,0,0,1,1.93-4,8.67,8.67,0,0,1,3.14-2.63,9.66,9.66,0,0,1,4.34-.94,9.13,9.13,0,0,1,3.13.52,6.14,6.14,0,0,1,2.43,1.6,7.38,7.38,0,0,1,1.57,2.82,14,14,0,0,1,.55,4.15V41.9h-7.46V25.54a6.4,6.4,0,0,0-.42-2.62,2.38,2.38,0,0,0-1.21-1.23,4.91,4.91,0,0,0-1.89-.33,4.32,4.32,0,0,0-2.12.51,4.63,4.63,0,0,0-1.54,1.42,6.64,6.64,0,0,0-.92,2.13A11,11,0,0,0,770,28.05Zm15.09-.38-2.37.19a18.06,18.06,0,0,1,.63-4.88,11.52,11.52,0,0,1,1.86-3.91,8.63,8.63,0,0,1,3.1-2.59,9.51,9.51,0,0,1,4.32-.94,10,10,0,0,1,3.31.53,6.36,6.36,0,0,1,2.58,1.7,7.94,7.94,0,0,1,1.69,3.07,15.66,15.66,0,0,1,.59,4.65V41.9h-7.5V25.49a6.22,6.22,0,0,0-.42-2.58,2.38,2.38,0,0,0-1.2-1.22,4.71,4.71,0,0,0-1.85-.33,4.18,4.18,0,0,0-2.08.49,4.34,4.34,0,0,0-1.49,1.34,6,6,0,0,0-.88,2A10.37,10.37,0,0,0,785.08,27.67Z" transform="translate(-2.87 -5.17)"/><path class="cls-17" d="M818,42.38a14.81,14.81,0,0,1-5.53-1,11.85,11.85,0,0,1-4.12-2.72,11.59,11.59,0,0,1-2.57-4,13.31,13.31,0,0,1-.89-4.86v-.91a16.83,16.83,0,0,1,.81-5.33,12.31,12.31,0,0,1,2.38-4.24,10.51,10.51,0,0,1,3.87-2.8,13.08,13.08,0,0,1,5.23-1,12.64,12.64,0,0,1,4.91.9A9.94,9.94,0,0,1,825.69,19,11.31,11.31,0,0,1,828,23a16.46,16.46,0,0,1,.78,5.23v3.06H807.87V26.47h13.54V25.9a5.43,5.43,0,0,0-.49-2.39,3.59,3.59,0,0,0-1.44-1.59,4.52,4.52,0,0,0-2.37-.56,4.24,4.24,0,0,0-2.28.57,4.1,4.1,0,0,0-1.44,1.61,8.39,8.39,0,0,0-.78,2.42,17.19,17.19,0,0,0-.24,2.95v.91a8.82,8.82,0,0,0,.41,2.75A6,6,0,0,0,814,34.7a5.77,5.77,0,0,0,1.91,1.39,6.32,6.32,0,0,0,2.56.5,8.65,8.65,0,0,0,3.38-.68,7.21,7.21,0,0,0,2.77-2.14l3.49,4A9.43,9.43,0,0,1,825.87,40a12.14,12.14,0,0,1-3.41,1.74A14.17,14.17,0,0,1,818,42.38Z" transform="translate(-2.87 -5.17)"/><path class="cls-17" d="M839.66,21.55V41.9h-7.49V16h7Zm-1,6.5-1.87.05a17.7,17.7,0,0,1,.72-5.24,11.81,11.81,0,0,1,2-3.95,8.82,8.82,0,0,1,3.18-2.5,9.58,9.58,0,0,1,4.11-.87,10,10,0,0,1,3.32.53,6.31,6.31,0,0,1,2.59,1.69,7.6,7.6,0,0,1,1.67,3.06,16.46,16.46,0,0,1,.57,4.67V41.9H847.5V25.47a5.66,5.66,0,0,0-.45-2.51,2.61,2.61,0,0,0-1.33-1.25,5.77,5.77,0,0,0-2.12-.35,4.6,4.6,0,0,0-2.24.51,4.28,4.28,0,0,0-1.54,1.42,6.58,6.58,0,0,0-.87,2.13A12.2,12.2,0,0,0,838.68,28.05Z" transform="translate(-2.87 -5.17)"/><path class="cls-17" d="M873,16v5.24H857.69V16ZM861.21,9.61h7.48V33.79a4.17,4.17,0,0,0,.26,1.65,1.5,1.5,0,0,0,.86.8,4.18,4.18,0,0,0,1.53.23,9.62,9.62,0,0,0,1.15,0c.32,0,.62-.07.89-.12v5.41a13.83,13.83,0,0,1-2,.49,14.08,14.08,0,0,1-2.34.18,10.2,10.2,0,0,1-4.17-.79,5.63,5.63,0,0,1-2.69-2.5,9.32,9.32,0,0,1-.93-4.46Z" transform="translate(-2.87 -5.17)"/><path class="cls-17" d="M891.24,26.12l0,4.11h-3.71a6.49,6.49,0,0,0-2.14.31,3.75,3.75,0,0,0-1.44.85,3.26,3.26,0,0,0-.81,1.24,4.78,4.78,0,0,0-.25,1.54,2.67,2.67,0,0,0,.39,1.43,2.64,2.64,0,0,0,1,1,3.2,3.2,0,0,0,1.55.36,5.13,5.13,0,0,0,2.5-.57,4.87,4.87,0,0,0,1.62-1.4,2.78,2.78,0,0,0,.57-1.55l1.79,3.11a16,16,0,0,1-1,2,8.63,8.63,0,0,1-1.58,1.88,7.53,7.53,0,0,1-2.31,1.43,8.71,8.71,0,0,1-3.24.55,9.64,9.64,0,0,1-4.42-1,8.18,8.18,0,0,1-3.17-2.73,7,7,0,0,1-1.18-4A8.43,8.43,0,0,1,876.2,31a6.93,6.93,0,0,1,2.24-2.68,10.5,10.5,0,0,1,3.76-1.66,22.07,22.07,0,0,1,5.31-.56Zm-.93,9.61V24.63a5.08,5.08,0,0,0-.36-2,2.86,2.86,0,0,0-1.12-1.31,3.71,3.71,0,0,0-2-.48,4.1,4.1,0,0,0-1.78.36,2.57,2.57,0,0,0-1.15,1,3.2,3.2,0,0,0-.39,1.65h-7.46a6.93,6.93,0,0,1,.78-3.25A8.15,8.15,0,0,1,879.11,18a10.89,10.89,0,0,1,3.52-1.78,15.73,15.73,0,0,1,4.62-.64,13.59,13.59,0,0,1,5.41,1,8.47,8.47,0,0,1,3.77,3,8.74,8.74,0,0,1,1.39,5.08V35.51a19.29,19.29,0,0,0,.27,3.67,8.69,8.69,0,0,0,.8,2.31v.41h-7.53a10.7,10.7,0,0,1-.79-2.79A22.23,22.23,0,0,1,890.31,35.73Z" transform="translate(-2.87 -5.17)"/><path class="cls-17" d="M913.53,36.57a4.4,4.4,0,0,0,2.08-.46A3.35,3.35,0,0,0,917,34.83a3.89,3.89,0,0,0,.49-2h7a8.64,8.64,0,0,1-1.45,5,9.72,9.72,0,0,1-3.89,3.36,12.28,12.28,0,0,1-5.5,1.21,12.82,12.82,0,0,1-5.26-1,10.17,10.17,0,0,1-3.75-2.78,12,12,0,0,1-2.26-4.17,17.12,17.12,0,0,1-.76-5.16v-.62a17.08,17.08,0,0,1,.76-5.14,12,12,0,0,1,2.26-4.19,10.22,10.22,0,0,1,3.74-2.78,12.87,12.87,0,0,1,5.25-1,12.5,12.5,0,0,1,5.63,1.22,9.19,9.19,0,0,1,3.84,3.51,10.41,10.41,0,0,1,1.39,5.49h-7a5.37,5.37,0,0,0-.45-2.24,3.6,3.6,0,0,0-1.33-1.58,4,4,0,0,0-2.22-.58,3.91,3.91,0,0,0-2.23.58,3.61,3.61,0,0,0-1.33,1.62,8.36,8.36,0,0,0-.62,2.33,22,22,0,0,0-.17,2.76v.62a22.69,22.69,0,0,0,.17,2.81,7.78,7.78,0,0,0,.63,2.33A3.69,3.69,0,0,0,911.26,36,4,4,0,0,0,913.53,36.57Z" transform="translate(-2.87 -5.17)"/><path class="cls-17" d="M928.14,9.33a3.45,3.45,0,0,1,1.15-2.67,4.9,4.9,0,0,1,6,0,3.42,3.42,0,0,1,1.16,2.67A3.39,3.39,0,0,1,935.33,12a4.9,4.9,0,0,1-6,0A3.42,3.42,0,0,1,928.14,9.33ZM936.08,16V41.9H928.6V16Z" transform="translate(-2.87 -5.17)"/><path class="cls-17" d="M940.36,29.22v-.5a16.14,16.14,0,0,1,.82-5.25,11.94,11.94,0,0,1,2.39-4.17,10.86,10.86,0,0,1,3.87-2.76,13.19,13.19,0,0,1,5.26-1,13.44,13.44,0,0,1,5.33,1,10.9,10.9,0,0,1,3.88,2.76,11.94,11.94,0,0,1,2.39,4.17,16.41,16.41,0,0,1,.82,5.25v.5a16.25,16.25,0,0,1-.82,5.23,12,12,0,0,1-2.39,4.18A10.76,10.76,0,0,1,958,41.4a14.74,14.74,0,0,1-10.57,0,10.7,10.7,0,0,1-3.9-2.77,12,12,0,0,1-2.39-4.18A16,16,0,0,1,940.36,29.22Zm7.49-.5v.5a15.26,15.26,0,0,0,.25,2.87,7.33,7.33,0,0,0,.83,2.35A4.12,4.12,0,0,0,950.44,36a4.4,4.4,0,0,0,2.31.57,4.33,4.33,0,0,0,2.3-.57,4.17,4.17,0,0,0,1.5-1.56,7.33,7.33,0,0,0,.83-2.35,15.26,15.26,0,0,0,.25-2.87v-.5a15,15,0,0,0-.25-2.83,7.66,7.66,0,0,0-.83-2.36,4.23,4.23,0,0,0-1.51-1.6,4.46,4.46,0,0,0-2.34-.57,4,4,0,0,0-3.77,2.17,7.66,7.66,0,0,0-.83,2.36A15,15,0,0,0,947.85,28.72Zm1.39-16.12L954,5.17h8l-6.63,7.43Z" transform="translate(-2.87 -5.17)"/><path class="cls-17" d="M976.36,21.55V41.9h-7.49V16h7Zm-1,6.5-1.87.05a17.7,17.7,0,0,1,.72-5.24,11.81,11.81,0,0,1,2-3.95,8.82,8.82,0,0,1,3.18-2.5,9.54,9.54,0,0,1,4.1-.87,10.07,10.07,0,0,1,3.33.53,6.31,6.31,0,0,1,2.59,1.69,7.48,7.48,0,0,1,1.66,3.06,16.07,16.07,0,0,1,.58,4.67V41.9H984.2V25.47a5.66,5.66,0,0,0-.45-2.51,2.61,2.61,0,0,0-1.33-1.25,5.77,5.77,0,0,0-2.12-.35,4.65,4.65,0,0,0-2.25.51,4.33,4.33,0,0,0-1.53,1.42,6.36,6.36,0,0,0-.87,2.13A12.2,12.2,0,0,0,975.38,28.05Z" transform="translate(-2.87 -5.17)"/><path class="cls-17" d="M1021,42.38a14.72,14.72,0,0,1-5.52-1,11.71,11.71,0,0,1-6.7-6.72,13.31,13.31,0,0,1-.88-4.86v-.91a16.83,16.83,0,0,1,.81-5.33,12.15,12.15,0,0,1,2.38-4.24,10.48,10.48,0,0,1,3.86-2.8,13.13,13.13,0,0,1,5.24-1,12.59,12.59,0,0,1,4.9.9,9.89,9.89,0,0,1,3.64,2.56,11.47,11.47,0,0,1,2.26,4,16.76,16.76,0,0,1,.77,5.23v3.06h-20.85V26.47h13.53V25.9a5.43,5.43,0,0,0-.49-2.39,3.51,3.51,0,0,0-1.43-1.59,4.53,4.53,0,0,0-2.38-.56,4.18,4.18,0,0,0-2.27.57,4.05,4.05,0,0,0-1.45,1.61,8.39,8.39,0,0,0-.78,2.42,17.19,17.19,0,0,0-.24,2.95v.91a8.82,8.82,0,0,0,.41,2.75,5.85,5.85,0,0,0,1.2,2.13,5.57,5.57,0,0,0,1.91,1.39,6.29,6.29,0,0,0,2.56.5,8.6,8.6,0,0,0,3.37-.68,7.24,7.24,0,0,0,2.78-2.14l3.49,4a9.68,9.68,0,0,1-2.22,2.21,12.07,12.07,0,0,1-3.4,1.74A14.24,14.24,0,0,1,1021,42.38Z" transform="translate(-2.87 -5.17)"/><path class="cls-17" d="M1054.84,5.17V41.9h-7.46V5.17Zm-1,22.88-1.86.05a17.59,17.59,0,0,1,.68-5,12.42,12.42,0,0,1,2-4,8.91,8.91,0,0,1,3-2.63,8.38,8.38,0,0,1,3.93-.94,10.69,10.69,0,0,1,3.49.55,6.79,6.79,0,0,1,2.73,1.75A7.86,7.86,0,0,1,1069.6,21a15.77,15.77,0,0,1,.62,4.71V41.9h-7.51V25.64a6,6,0,0,0-.46-2.59,2.67,2.67,0,0,0-1.34-1.31,5.19,5.19,0,0,0-2.12-.38,5.06,5.06,0,0,0-2.41.51,3.9,3.9,0,0,0-1.51,1.42,6.27,6.27,0,0,0-.78,2.13A14.55,14.55,0,0,0,1053.86,28.05Z" transform="translate(-2.87 -5.17)"/><path class="cls-17" d="M1075,9.33a3.44,3.44,0,0,1,1.14-2.67,4.9,4.9,0,0,1,6,0,3.42,3.42,0,0,1,1.16,2.67,3.39,3.39,0,0,1-1.16,2.64,4.9,4.9,0,0,1-6,0A3.41,3.41,0,0,1,1075,9.33ZM1083,16V41.9h-7.49V16Z" transform="translate(-2.87 -5.17)"/><path class="cls-17" d="M1087.25,29.27v-.5a20.46,20.46,0,0,1,.66-5.37,12.68,12.68,0,0,1,1.93-4.18A8.8,8.8,0,0,1,1093,16.5a9.42,9.42,0,0,1,4.33-1,7.54,7.54,0,0,1,3.92,1,8.77,8.77,0,0,1,2.86,2.77,16.21,16.21,0,0,1,1.93,4.19,32.38,32.38,0,0,1,1.12,5.2v.86a28.83,28.83,0,0,1-1.11,5,16.16,16.16,0,0,1-1.94,4.07,8.73,8.73,0,0,1-2.87,2.75,7.57,7.57,0,0,1-4,1,9.22,9.22,0,0,1-4.31-1,8.94,8.94,0,0,1-3.15-2.75,13.17,13.17,0,0,1-1.92-4.16A19.63,19.63,0,0,1,1087.25,29.27Zm7.46-.5v.5a17,17,0,0,0,.23,2.85,7.81,7.81,0,0,0,.75,2.32,4,4,0,0,0,1.39,1.56,3.7,3.7,0,0,0,2.1.57,4.55,4.55,0,0,0,2.75-.78,4.76,4.76,0,0,0,1.63-2.17,8.81,8.81,0,0,0,.57-3.22V27.88a11.12,11.12,0,0,0-.31-2.75,5.77,5.77,0,0,0-.92-2.05,3.92,3.92,0,0,0-1.52-1.28,4.77,4.77,0,0,0-2.15-.44,3.68,3.68,0,0,0-2.08.56,4.25,4.25,0,0,0-1.4,1.56,8.18,8.18,0,0,0-.79,2.36A15.84,15.84,0,0,0,1094.71,28.77Zm8.66,7.34V5.17h7.51V41.9h-6.75Z" transform="translate(-2.87 -5.17)"/><path class="cls-17" d="M1123.34,22.05V41.9h-7.46V16h7Zm7.72-6.22-.12,7c-.32-.05-.73-.09-1.24-.13s-1-.06-1.32-.06a7.87,7.87,0,0,0-2.47.35,4.36,4.36,0,0,0-1.72,1,4.08,4.08,0,0,0-1,1.66,7.3,7.3,0,0,0-.34,2.29l-1.41-.69a20.12,20.12,0,0,1,.51-4.69,12.76,12.76,0,0,1,1.45-3.7,7.18,7.18,0,0,1,2.35-2.42,5.82,5.82,0,0,1,3.16-.87,9.46,9.46,0,0,1,1.17.08A5.26,5.26,0,0,1,1131.06,15.83Z" transform="translate(-2.87 -5.17)"/><path class="cls-17" d="M1147.78,26.12l0,4.11h-3.71a6.49,6.49,0,0,0-2.14.31,3.87,3.87,0,0,0-1.45.85,3.35,3.35,0,0,0-.8,1.24,4.52,4.52,0,0,0-.25,1.54,2.65,2.65,0,0,0,1.44,2.42,3.2,3.2,0,0,0,1.55.36,5.13,5.13,0,0,0,2.5-.57,4.73,4.73,0,0,0,1.61-1.4,2.8,2.8,0,0,0,.58-1.55l1.79,3.11a19.18,19.18,0,0,1-1,2,8.92,8.92,0,0,1-1.58,1.88,7.65,7.65,0,0,1-2.31,1.43,8.71,8.71,0,0,1-3.24.55,9.61,9.61,0,0,1-4.42-1,8.11,8.11,0,0,1-3.17-2.73,7,7,0,0,1-1.19-4,8.29,8.29,0,0,1,.75-3.61,7,7,0,0,1,2.23-2.68,10.56,10.56,0,0,1,3.77-1.66,22,22,0,0,1,5.31-.56Zm-.93,9.61V24.63a5.08,5.08,0,0,0-.36-2,2.88,2.88,0,0,0-1.13-1.31,3.67,3.67,0,0,0-2-.48,4.07,4.07,0,0,0-1.78.36,2.52,2.52,0,0,0-1.15,1,3.2,3.2,0,0,0-.4,1.65h-7.46a6.94,6.94,0,0,1,.79-3.25,8.24,8.24,0,0,1,2.26-2.66,11,11,0,0,1,3.53-1.78,15.73,15.73,0,0,1,4.62-.64,13.59,13.59,0,0,1,5.41,1,8.53,8.53,0,0,1,3.77,3,8.82,8.82,0,0,1,1.39,5.08V35.51a19.29,19.29,0,0,0,.27,3.67,8.35,8.35,0,0,0,.8,2.31v.41h-7.53a10.32,10.32,0,0,1-.79-2.79A21,21,0,0,1,1146.85,35.73Z" transform="translate(-2.87 -5.17)"/><path class="cls-17" d="M1172.41,16v5.24h-15.35V16Zm-11.84-6.41h7.49V33.79a4.17,4.17,0,0,0,.26,1.65,1.47,1.47,0,0,0,.86.8,4.18,4.18,0,0,0,1.53.23,9.62,9.62,0,0,0,1.15,0c.32,0,.61-.07.89-.12v5.41a13.83,13.83,0,0,1-2,.49,14.17,14.17,0,0,1-2.34.18,10.2,10.2,0,0,1-4.17-.79,5.58,5.58,0,0,1-2.69-2.5,9.2,9.2,0,0,1-.94-4.46Z" transform="translate(-2.87 -5.17)"/><path class="cls-17" d="M1190.61,26.12l.05,4.11H1187a6.49,6.49,0,0,0-2.14.31,3.87,3.87,0,0,0-1.45.85,3.35,3.35,0,0,0-.8,1.24,4.78,4.78,0,0,0-.25,1.54,2.67,2.67,0,0,0,.39,1.43,2.64,2.64,0,0,0,1,1,3.2,3.2,0,0,0,1.55.36,5.13,5.13,0,0,0,2.5-.57,4.73,4.73,0,0,0,1.61-1.4,2.72,2.72,0,0,0,.58-1.55l1.79,3.11a17.42,17.42,0,0,1-1,2,8.63,8.63,0,0,1-1.58,1.88,7.65,7.65,0,0,1-2.31,1.43,8.71,8.71,0,0,1-3.24.55,9.64,9.64,0,0,1-4.42-1,8.18,8.18,0,0,1-3.17-2.73,7,7,0,0,1-1.18-4,8.29,8.29,0,0,1,.74-3.61,7,7,0,0,1,2.23-2.68,10.64,10.64,0,0,1,3.77-1.66,22,22,0,0,1,5.31-.56Zm-.93,9.61V24.63a5.08,5.08,0,0,0-.36-2,2.86,2.86,0,0,0-1.12-1.31,3.74,3.74,0,0,0-2-.48,4.07,4.07,0,0,0-1.78.36,2.57,2.57,0,0,0-1.15,1,3.2,3.2,0,0,0-.39,1.65h-7.47a6.94,6.94,0,0,1,.79-3.25,8.24,8.24,0,0,1,2.26-2.66,11,11,0,0,1,3.53-1.78,15.73,15.73,0,0,1,4.62-.64,13.59,13.59,0,0,1,5.41,1,8.47,8.47,0,0,1,3.77,3,8.82,8.82,0,0,1,1.39,5.08V35.51a19.29,19.29,0,0,0,.27,3.67,8.35,8.35,0,0,0,.8,2.31v.41h-7.53a10.7,10.7,0,0,1-.79-2.79A22.23,22.23,0,0,1,1189.68,35.73Z" transform="translate(-2.87 -5.17)"/><path class="cls-17" d="M1212.9,36.57a4.4,4.4,0,0,0,2.08-.46,3.35,3.35,0,0,0,1.38-1.28,3.89,3.89,0,0,0,.49-2h7a8.72,8.72,0,0,1-1.45,5,9.79,9.79,0,0,1-3.89,3.36,12.28,12.28,0,0,1-5.5,1.21,12.79,12.79,0,0,1-5.26-1A10.17,10.17,0,0,1,1204,38.6a12,12,0,0,1-2.26-4.17,16.81,16.81,0,0,1-.76-5.16v-.62a16.77,16.77,0,0,1,.76-5.14,12,12,0,0,1,2.26-4.19,10.22,10.22,0,0,1,3.74-2.78,12.87,12.87,0,0,1,5.25-1,12.5,12.5,0,0,1,5.63,1.22,9.25,9.25,0,0,1,3.84,3.51,10.41,10.41,0,0,1,1.39,5.49h-7a5.37,5.37,0,0,0-.45-2.24,3.56,3.56,0,0,0-1.34-1.58,4.54,4.54,0,0,0-4.44,0,3.61,3.61,0,0,0-1.33,1.62,8,8,0,0,0-.62,2.33,20.25,20.25,0,0,0-.17,2.76v.62a20.9,20.9,0,0,0,.17,2.81,7.78,7.78,0,0,0,.63,2.33,3.69,3.69,0,0,0,1.33,1.58A4,4,0,0,0,1212.9,36.57Z" transform="translate(-2.87 -5.17)"/><path class="cls-17" d="M1227.51,9.33a3.42,3.42,0,0,1,1.15-2.67,4.32,4.32,0,0,1,3-1,4.39,4.39,0,0,1,3,1,3.42,3.42,0,0,1,1.16,2.67A3.39,3.39,0,0,1,1234.7,12a4.39,4.39,0,0,1-3,1,4.32,4.32,0,0,1-3-1A3.38,3.38,0,0,1,1227.51,9.33Zm7.94,6.69V41.9H1228V16Z" transform="translate(-2.87 -5.17)"/><path class="cls-17" d="M1239.73,29.22v-.5a16.42,16.42,0,0,1,.81-5.25,12,12,0,0,1,2.4-4.17,10.86,10.86,0,0,1,3.87-2.76,13.16,13.16,0,0,1,5.26-1,13.39,13.39,0,0,1,5.32,1,10.85,10.85,0,0,1,3.89,2.76,11.94,11.94,0,0,1,2.39,4.17,16.42,16.42,0,0,1,.81,5.25v.5a16.25,16.25,0,0,1-.81,5.23,12,12,0,0,1-2.39,4.18,10.71,10.71,0,0,1-3.88,2.77,13.37,13.37,0,0,1-5.28,1,13.56,13.56,0,0,1-5.29-1,10.75,10.75,0,0,1-3.89-2.77,12,12,0,0,1-2.4-4.18A16.25,16.25,0,0,1,1239.73,29.22Zm7.49-.5v.5a15.26,15.26,0,0,0,.25,2.87,7.57,7.57,0,0,0,.82,2.35,4.22,4.22,0,0,0,1.52,1.56,4.95,4.95,0,0,0,4.61,0,4.17,4.17,0,0,0,1.5-1.56,7.58,7.58,0,0,0,.83-2.35,16.14,16.14,0,0,0,.25-2.87v-.5a15.85,15.85,0,0,0-.25-2.83,7.93,7.93,0,0,0-.83-2.36,4.26,4.26,0,0,0-1.52-1.6,4.42,4.42,0,0,0-2.33-.57,4.27,4.27,0,0,0-2.27.57,4.39,4.39,0,0,0-1.51,1.6,7.92,7.92,0,0,0-.82,2.36A15,15,0,0,0,1247.22,28.72Zm1.38-16.12,4.74-7.43h8l-6.63,7.43Z" transform="translate(-2.87 -5.17)"/><path class="cls-17" d="M1275.72,21.55V41.9h-7.48V16h7Zm-1,6.5-1.86.05a17.7,17.7,0,0,1,.72-5.24,11.63,11.63,0,0,1,2-3.95,8.82,8.82,0,0,1,3.18-2.5,9.54,9.54,0,0,1,4.1-.87,10.11,10.11,0,0,1,3.33.53,6.31,6.31,0,0,1,2.59,1.69,7.48,7.48,0,0,1,1.66,3.06,16.07,16.07,0,0,1,.58,4.67V41.9h-7.51V25.47a5.51,5.51,0,0,0-.46-2.51,2.55,2.55,0,0,0-1.32-1.25,5.77,5.77,0,0,0-2.12-.35,4.62,4.62,0,0,0-2.25.51,4.33,4.33,0,0,0-1.53,1.42,6.36,6.36,0,0,0-.87,2.13A11.59,11.59,0,0,0,1274.74,28.05Z" transform="translate(-2.87 -5.17)"/></g></g></g></svg>