<svg id="Capa_1" data-name="Capa 1" xmlns="http://www.w3.org/2000/svg" viewBox="0 0 167.39 147.96"><defs><style>.cls-1{fill:#6c2911;}</style></defs><path class="cls-1" d="M100.57,131.54c-4.9,0-9.79,0-14.69,0-5.27,0-8.36-2.82-8.63-8-.08-1.6-.62-2-2.12-2.16a42.92,42.92,0,0,1-8.47-2,38.1,38.1,0,0,0-11.08-1.57q-13.2,0-26.4,0c-4.65,0-6.84-2.23-6.84-6.92q0-14.68,0-29.38c0-4.49,2.28-6.81,6.74-6.84q7.35,0,14.69,0A15.46,15.46,0,0,0,55.11,70c2.35-2.31,4.66-4.65,7-7a18.67,18.67,0,0,1,13.28-5.86c1.69,0,1.83-.78,1.82-2.09,0-5.74,0-11.48,0-17.22a9,9,0,0,1,4.27-8.33c2.31-1.5,4.48-3.21,6.74-4.78a1.85,1.85,0,0,0,.92-2.2c-1-6.2,2.53-9,7.36-8.61,2.82.22,5.66,0,8.49,0,5.64,0,8,2.31,7.44,7.84A3.16,3.16,0,0,0,114,25.28c2.32,1.47,4.51,3.15,6.74,4.76a8.06,8.06,0,0,1,3.51,6.87c0,6.58,0,13.16,0,19.74A7.73,7.73,0,0,1,122.47,62c-.61.7-.68,1.16,0,1.9a7.53,7.53,0,0,1,1.82,5.3c0,1.08.18,1.6,1.47,1.69,6.38.49,9.25,4.45,7.75,10.6-.22.87-.12,1.14.76,1.43,3.59,1.17,5.65,3.69,5.64,7.48s-2.11,6.29-5.66,7.5c-.83.28-1,.48-.76,1.38,1.23,4.53.29,7.24-3.48,9.64-1,.65-.83,1.09-.51,2,1.53,4.06.15,8-3.71,9.88a2.51,2.51,0,0,0-1.51,2.66c-.11,5-3.34,8.12-8.3,8.15C110.83,131.57,105.7,131.54,100.57,131.54Zm-.95-13.78v0q10.78,0,21.58,0c3,0,4.92-1.52,5-3.91s-1.79-3.88-4.9-3.9c-4,0-8,0-11.93,0-1.37,0-2.56-.26-2.63-1.86-.08-1.78,1.23-2.06,2.65-2.06h9.41c2.53,0,5.06.07,7.57-.1a4,4,0,0,0,3.79-3.9,3.93,3.93,0,0,0-3.85-3.8c-.61-.06-1.23,0-1.84,0-4.59,0-9.18,0-13.77,0-1.55,0-3.86.68-3.92-1.87s2.22-2,3.8-2c3.75,0,7.5,0,11.25,0,3.37,0,6.74.06,10.1,0a4,4,0,0,0,4-4.1c-.08-2.17-1.67-3.6-4.15-3.66-1.53,0-3.06,0-4.59,0-6,0-11.94,0-17.91,0-1.37,0-2.53-.37-2.59-1.93s1.08-2,2.46-2.07H111c5,0,10,0,14.92,0,2.45,0,4.12-1.53,4.22-3.64a4.18,4.18,0,0,0-3.87-4.11,19.41,19.41,0,0,0-2.29,0H77.13a13.38,13.38,0,0,1-2.29-.09,1.73,1.73,0,0,1-1.5-1.77c-.06-.86.44-1.82,1.13-1.76,3,.25,2.76-1.77,2.91-3.64a8.31,8.31,0,0,1,1.15-3c.32-.64,1.55-1,.79-2a2.84,2.84,0,0,0-2.61-1.46,16.26,16.26,0,0,0-11.62,4.64c-2.44,2.43-4.86,4.88-7.31,7.3a18.6,18.6,0,0,1-11.09,5.52c-5.64.64-11.31.16-17,.27-3.11.06-3.43.33-3.44,3.41q0,14.13,0,28.24c0,3.31.32,3.6,3.75,3.6,8.57,0,17.14,0,25.71,0a39.35,39.35,0,0,1,12.43,1.8,43.14,43.14,0,0,0,14.45,2.08C88.29,117.66,94,117.76,99.62,117.76Zm.94-46.95h17.22c2.51,0,3.09-.75,2.32-3.15A3.7,3.7,0,0,0,116.74,65c-1.32-.13-2.23-.66-2.21-2.09s1-1.7,2.15-2c2.7-.59,3.57-1.66,3.58-4.45,0-6.43,0-12.86,0-19.29a4.72,4.72,0,0,0-2.22-4.23c-3-2.09-6-4.25-9-6.41a4.13,4.13,0,0,0-2.33-.79c-12.93-.57-12.92-.56-23.45,7.24a4.89,4.89,0,0,0-2.21,4.25c0,6.42,0,12.85,0,19.28,0,2.69.95,3.81,3.66,4.4,1.16.25,2.15.7,2.17,2s-.93,2-2.26,2.08a3.75,3.75,0,0,0-3.38,2.69c-.83,2.37-.25,3.16,2.23,3.16Zm.21,56.77c5,0,9.94,0,14.91,0a4.25,4.25,0,0,0,4-1.78,3.8,3.8,0,0,0,.45-3.52c-.4-1-1.64-.48-2.48-.48q-16.87,0-33.74,0c-.9,0-2.22-.6-2.64.56a3.93,3.93,0,0,0,.71,3.69c1,1.31,2.38,1.53,3.89,1.53Zm.09-105.81c2.06,0,4.12-.08,6.17,0,1.42.07,1.69-.57,1.56-1.77a2.16,2.16,0,0,0-2.46-2.12c-2.21,0-4.42,0-6.63,0-1.52,0-3,0-4.57,0s-2,1.1-2,2.49c-.08,1.68,1.07,1.31,2,1.32C96.9,21.79,98.88,21.77,100.86,21.77Z"/><path class="cls-1" d="M100.64,64.93c-2.37,0-4.73,0-7.1,0-1.4,0-2.53-.46-2.55-2s1.14-2,2.51-2c4.81,0,9.62,0,14.42,0,1.35,0,2.55.42,2.55,2s-1.12,2-2.51,2C105.52,64.92,103.08,64.93,100.64,64.93Z"/></svg>