<svg xmlns="http://www.w3.org/2000/svg" viewBox="0 0 60.5 59.71"><defs><style>.cls-1{fill:#c6875e;}</style></defs><g id="Capa_2" data-name="Capa 2"><g id="Capa_1-2" data-name="Capa 1"><path class="cls-1" d="M11.88,41.88c-4-3.4-4.78-7.43-2.27-10.21a6.45,6.45,0,0,1,8.87-.36c2.84,2.62,2.22,6.49-1.79,10.56,2,.09,3.84.92,5.76-.49,1.55-1.13,3.62-.92,5.8-1.1-2.86-1.75-4.45-4.05-4.54-7.19a5.73,5.73,0,0,1,1.84-4.4,7,7,0,0,1,9.71.32c2.82,3.18,1.74,7.61-2.81,11.23,1.14.13,2.19.27,3.25.38a4,4,0,0,1,2.18.68c1.85,1.63,3.83.66,5.89.63-4.07-4.42-4.63-8.11-1.72-10.69a6.48,6.48,0,0,1,8.87.51c2.42,2.81,1.55,6.88-2.18,10,.42.36.93.24,1.38.27,4.39.37,7.1,3.17,7.45,7.58.16,2,.48,4.06.73,6.09.17,1.35.22,2.66-1.18,3.48-1,.6-3.78.47-4.63-.29a1.66,1.66,0,0,0-1.26-.32c-2,0-3.91,0-5.87,0a11.15,11.15,0,0,0-3.53.61c-1.52.5-3.43,1.16-4.82-.66-.23-.31-.68-.16-1-.16H24.52c-.39,0-.79-.1-1.15.23a4.79,4.79,0,0,1-5.09.46,3.18,3.18,0,0,0-1.78-.49c-2.05,0-4.09,0-6.14,0a5.51,5.51,0,0,0-2.9.67,4.51,4.51,0,0,1-4.19-.13C2,58.43,2,57.22,2.14,56c.29-2.48.52-5,.85-7.44A7.61,7.61,0,0,1,10.17,42ZM19.37,56c-.08.58-.28,1.21.69,1.25s1.33-.11,1.46-1.1c.28-2.25.7-4.48,1-6.72.11-.75.34-1.4,1.2-1.37s1.1.77,1.11,1.55c0,1.82.11,3.64.1,5.45,0,.83.28,1.1,1.11,1.08q4.21-.06,8.45,0c.86,0,1.09-.33,1.08-1.12,0-1.68,0-3.36.07-5,0-.82-.08-1.81,1-1.92s1.25,1,1.38,1.78c.36,2.15.71,4.3,1,6.46.13,1,.75,1,1.46.93s.76-.57.7-1.14c-.3-2.71-.55-5.42-.91-8.12a5.65,5.65,0,0,0-4.69-5.15,37.8,37.8,0,0,0-9.91-.09c-3.21.41-5,2.13-5.47,5.28C19.86,50.69,19.65,53.36,19.37,56Zm-6.44.22c1.12,0,2-.05,2.94,0,.72,0,1.11-.16,1.13-.93a8.49,8.49,0,0,1,.16-1.22c.49-3,.35-6.17,1.55-9.09.34-.82-.37-.68-.72-.72a34.8,34.8,0,0,0-8.16.06,5.11,5.11,0,0,0-4.67,4.88c-.26,2.25-.53,4.51-.77,6.76-.06.56-.31,1.22.68,1.28.76,0,1.13-.13,1.24-1,.26-2.07.65-4.12,1-6.18.1-.62.39-1,1.06-1s.92.51,1,1.1c0,.77,0,1.55.06,2.32.05,1.18-.33,2.72.27,3.43S11.94,56.1,12.93,56.24ZM41.5,44.41a14.28,14.28,0,0,1,1.23,4.75c.26,2,.47,4,.66,6,.08.81.37,1.18,1.27,1.14,1.77-.08,3.55-.07,5.32,0,.87,0,1.08-.28,1.06-1.09,0-1.59,0-3.18.07-4.77,0-.61.14-1.23.92-1.29s1.06.5,1.17,1.2c.31,2.07.7,4.12,1,6.19.13.92.71.77,1.28.76.77,0,.71-.52.65-1-.27-2.3-.49-4.6-.8-6.9-.28-2-1.06-3.91-3.17-4.55C48.69,43.7,45.16,44,41.5,44.41ZM30.25,29.16c-2.52,0-4.31,1.64-4.3,3.95,0,2.6,2.19,5.15,4.36,5.11s4.2-2.57,4.23-5.1C34.56,30.81,32.77,29.17,30.25,29.16ZM14.18,32a3.53,3.53,0,0,0-3.72,3.52c0,2.24,1.92,4.53,3.75,4.55S18,37.68,18,35.4A3.51,3.51,0,0,0,14.18,32Zm28.31,3.55c0,2.25,1.91,4.52,3.74,4.52S50,37.67,50,35.37A3.52,3.52,0,0,0,46.15,32,3.47,3.47,0,0,0,42.49,35.52Z"/><path class="cls-1" d="M30.34,0H55.17c3.47,0,5.31,1.83,5.32,5.29,0,2.64,0,5.27,0,7.91,0,3.38-1.84,5.2-5.25,5.23-2.37,0-4.74.06-7.1,0-1.16-.05-1.51.37-1.43,1.47s0,2.09,0,3.14c0,.63-.09,1.2-.76,1.45s-1.11-.19-1.51-.64c-1.39-1.56-2.79-3.12-4.16-4.7a1.8,1.8,0,0,0-1.52-.71c-1.36,0-2.73,0-4.09,0a1.25,1.25,0,0,0-1.34.88c-.54,1.3-1.13,2.57-1.71,3.86-.28.61-.48,1.35-1.33,1.37s-1.09-.7-1.37-1.32c-.58-1.28-1.18-2.55-1.7-3.86a1.37,1.37,0,0,0-1.44-.94c-4.56-.11-4.56-.12-7.59,3.29l-2,2.25A1.19,1.19,0,0,1,14,23.18a27.45,27.45,0,0,1,0-3.27c.12-1.26-.4-1.51-1.55-1.47-2.36.08-4.73,0-7.09,0C1.86,18.44,0,16.6,0,13.16q0-4,0-7.92C0,1.86,1.87,0,5.24,0ZM44.47,20.46c0-1.06,0-1.68,0-2.3,0-1.7.3-2,2-2,3,0,5.91,0,8.86,0,2.08,0,2.87-.8,2.88-2.9,0-2.72,0-5.45,0-8.18,0-2-.87-2.83-2.84-2.83q-25.08,0-50.17,0c-2,0-2.84.85-2.85,2.82,0,2.72,0,5.45,0,8.18,0,2.15.8,2.9,3,2.91h9c1.6,0,1.88.3,1.91,1.92,0,.66,0,1.32,0,2.38,1.26-1.4,2.23-2.45,3.17-3.54a2,2,0,0,1,1.65-.77c2,0,4,0,6,0a1.64,1.64,0,0,1,1.68,1.1,14.56,14.56,0,0,0,1.6,3.21c.51-1.14,1-2.11,1.4-3.11a1.66,1.66,0,0,1,1.75-1.2c2.05,0,4.09,0,6.14,0a2.12,2.12,0,0,1,1.75.85C42.29,18.05,43.24,19.08,44.47,20.46Z"/><path class="cls-1" d="M22.94,10.68a1.37,1.37,0,0,1-1.41-1.46,1.45,1.45,0,1,1,2.89,0A1.39,1.39,0,0,1,22.94,10.68Z"/><path class="cls-1" d="M37.51,10.68A1.4,1.4,0,0,1,36.07,9.2a1.45,1.45,0,0,1,2.9.05A1.38,1.38,0,0,1,37.51,10.68Z"/><path class="cls-1" d="M28.8,9.25c.1-1,.63-1.51,1.53-1.46a1.32,1.32,0,0,1,1.34,1.55,1.29,1.29,0,0,1-1.43,1.32A1.36,1.36,0,0,1,28.8,9.25Z"/></g></g></svg>