<svg xmlns="http://www.w3.org/2000/svg" viewBox="0 0 59.07 64.83"><defs><style>.cls-1{fill:#c6875e;}</style></defs><g id="Capa_2" data-name="Capa 2"><g id="Capa_1-2" data-name="Capa 1"><path class="cls-1" d="M31.55,64.83h-23c-2.9,0-4.25-1.35-4.25-4.26,0-5.15,0-10.3,0-15.44,0-.88-.14-1.25-1.13-1.27A3.09,3.09,0,0,1,.27,41.72a3.35,3.35,0,0,1,.58-3.56,4.61,4.61,0,0,1,.62-.63A1.56,1.56,0,0,0,2,35.07c-.82-1.31-.29-2.9.94-4.11.48-.47,1-.92,1.63-.33s.24,1.11-.23,1.63c-1,1.08-1,1.9-.17,2.77a1.72,1.72,0,0,0,2.58.14C8,34,9.18,32.75,10.38,31.5a1.64,1.64,0,0,0,.08-2.39A1.8,1.8,0,0,0,8,28.63a3.14,3.14,0,0,1-.77.4.8.8,0,0,1-.93-.49,1,1,0,0,1,.32-1.25,3.49,3.49,0,0,1,4.22-.36,1.13,1.13,0,0,0,1.44,0,2.76,2.76,0,0,1,2.56-.27c.95.4,1.32-.24,1.79-.73s-.16-.91-.38-1.27a9.82,9.82,0,0,1,3.1-13.63A1.86,1.86,0,0,0,20.4,9.32a6.49,6.49,0,0,1,3.5-5.77,3,3,0,0,0,1-1.06A5.08,5.08,0,0,1,29.36,0q7.85,0,15.69,0a5.08,5.08,0,0,1,4.44,2.49,3.11,3.11,0,0,0,1.14,1.11A6.66,6.66,0,0,1,54,9.46c0,.92,0,1.85,0,2.78A7,7,0,0,0,55.2,16.8c2.1,3-.12,7.17-3.81,7.51-.87.08-1.1.32-1.11,1.18a10,10,0,0,1-7.07,10,1.11,1.11,0,0,0-.86,1.27c0,2.64,0,2.65,2.5,3.17s5.37,1.09,8,1.63A7.13,7.13,0,0,1,59.06,49q0,5.82,0,11.64c0,2.82-1.38,4.15-4.23,4.15Zm4.69-18.76a2.8,2.8,0,0,0-1.22,1,2.94,2.94,0,0,1-5-.83c-.23-.45-.43-.91-.64-1.37a8.14,8.14,0,0,0-1.17-2.36c-.69-.66-1.65.11-2.5.15-.63,0-1.12-.09-1.24-.76s.32-1,.93-1.11l4.09-.83c2.61-.54,2.58-.55,2.58-3.23a1.07,1.07,0,0,0-.89-1.23A9.87,9.87,0,0,1,25,30a1.25,1.25,0,0,0-1.23-.84,9.58,9.58,0,0,1-4.62-1.53c-.37-.21-.7-.89-1.27-.27s-1.05.83-.68,1.7a2.9,2.9,0,0,1-.12,2.34c-.13.31-.32.6-.19,1a4.13,4.13,0,0,1-.39,3.17c-.64,1.51-1.2,3.06-1.91,4.54a8,8,0,0,0-.46,3.84c0,1,1.11.68,1.61,1.13s.61-.21.79-.46a7,7,0,0,1,3.8-2.78c.66-.2,1.43-.35,1.66.57s-.43,1-1.08,1.25a5,5,0,0,0-3.67,4.9c-.05,4.47,0,8.94,0,13.41,0,.7.23,1,1,1,1.47,0,2.95,0,4.43,0q16,0,32,0c2.1,0,2.5-.41,2.5-2.53,0-3.92,0-7.84,0-11.76A5,5,0,0,0,53,43.55c-1.93-.43-3.88-.79-5.81-1.22a1.06,1.06,0,0,0-1.44.76c-.43,1.1-.93,2.17-1.46,3.22a2.93,2.93,0,0,1-4.93.76c-.36-.36-.61-.87-1.24-1.09,0,1.59,0,3.06,0,4.53,0,.71-.13,1.35-1,1.35s-.95-.68-.95-1.36C36.23,49.07,36.24,47.64,36.24,46.07ZM31.59,12.39c.47.63.79,1,1.06,1.43a.93.93,0,0,1-.17,1.44c-.52.38-1,.14-1.32-.29-.16-.19-.3-.4-.46-.6a7.95,7.95,0,0,0-14,6.38A8,8,0,0,0,32.5,19.47c0-.73-.1-1.63.91-1.62s1,1,1,1.71a9.65,9.65,0,0,1-6.72,9.15c-1,.33-.93.65-.46,1.37A8.15,8.15,0,0,0,33,34a41.39,41.39,0,0,0,7,.15,8.32,8.32,0,0,0,8.48-8.4c.07-2.91,0-5.82,0-8.73,0-.55-.08-.92-.7-1.13A4.49,4.49,0,0,1,44.89,13a.74.74,0,0,0-.81-.6Zm5.6-2h0c2.57,0,5.14,0,7.71,0,1,0,1.53.27,1.67,1.39a2.68,2.68,0,0,0,2.79,2.41c.67,0,1.35,0,2,.07s.73-.14.72-.67c0-1.56,0-3.13-.05-4.68a4.19,4.19,0,0,0-2.27-3.58,4.12,4.12,0,0,1-1.94-1.84A2.88,2.88,0,0,0,45.13,2q-7.91,0-15.82,0A3.08,3.08,0,0,0,26.38,3.8,2.66,2.66,0,0,1,25,5.14a4.7,4.7,0,0,0-2.66,3.62c-.12.72,0,1,.82.9a7.18,7.18,0,0,1,3.51.16,14.77,14.77,0,0,0,5.6.6Zm-31,43.72c0,2.23,0,4.46,0,6.69,0,1.52.52,2,2.05,2.07,2,0,4.05,0,6.07,0,.73,0,1-.16,1-1,0-4.55,0-9.09,0-13.64,0-1.36-.55-1.91-1.92-1.93-2.06,0-4.12,0-6.18,0-.88,0-1.06.3-1,1.09C6.24,49.68,6.21,51.91,6.22,54.15ZM37.22,36H34.7c-.28,0-.56,0-.71.33a4.45,4.45,0,0,0,1.06,4.16c2.13,1.56,2.13,1.56,4.34-.05.53-.39,1.06-.67,1.06-1.54,0-2.91.06-2.91-2.85-2.9ZM13.46,38.22a3.82,3.82,0,0,1-2.22.1.69.69,0,0,0-.8.15c-1.33,1.34-2.69,2.66-4,4a1.71,1.71,0,0,0-.16,1.68c.15.61.78.31,1.2.32,1.3,0,2.6,0,3.9,0,.61,0,1-.14.9-.84A8.4,8.4,0,0,1,13.46,38.22Zm36.85-19c0,.84,0,1.68,0,2.52,0,.55.19.74.74.72a3.26,3.26,0,0,0,3-3,3.18,3.18,0,0,0-2.72-3.26c-.71-.08-1.13,0-1.05.9C50.36,17.81,50.31,18.53,50.31,19.24ZM8.59,36.07a3.53,3.53,0,0,1-2.92,1.46c-1.49-.23-2.21.65-3,1.51s-1,1.87-.2,2.53a1.59,1.59,0,0,0,2.43-.25c1.24-1.25,2.47-2.52,3.75-3.72C9.19,37.06,9.15,36.63,8.59,36.07Zm33.27,5.18a1.16,1.16,0,0,0-.44.12c-.89.64-2.1,1.14-2.52,2-.28.58,1,1.32,1.57,2.06a1.67,1.67,0,0,0,.25.28c.72.63,1.41.63,1.87-.25s.94-2.07,1.44-3.09c.18-.38.21-.64-.27-.74Zm-9.12,0c-2.4,0-2.7.42-1.81,2.36.28.61.56,1.22.85,1.83s1,.94,1.55.47a23.35,23.35,0,0,0,2.16-2.28c.13-.14.17-.32,0-.44A16.28,16.28,0,0,0,32.74,41.28ZM12.08,36.5c1.11,0,3.08-2,3.06-3.07A1.52,1.52,0,0,0,14.28,32a1.56,1.56,0,0,0-1.78.17,17.76,17.76,0,0,0-1.68,1.68,1.56,1.56,0,0,0-.16,1.77A1.46,1.46,0,0,0,12.08,36.5Zm3.37-6.6a1.42,1.42,0,0,0-.82-1.24,1.65,1.65,0,0,0-1.66.12c-.3.19-.28.47-.18.77a8.13,8.13,0,0,0,2.57.63A.64.64,0,0,0,15.45,29.9Z" transform="translate(0 0)"/><path class="cls-1" d="M48.67,53.42h3.27c.68,0,1.18.24,1.15,1s-.56.87-1.15.87H45.39c-.6,0-1.13-.18-1.15-.88s.48-1,1.16-1Z" transform="translate(0 0)"/><path class="cls-1" d="M24.5,23.82a7.89,7.89,0,0,1-5.72-2.53,2.63,2.63,0,0,1,0-3.75,7.92,7.92,0,0,1,11.57,0,2.62,2.62,0,0,1,0,3.84A7.87,7.87,0,0,1,24.5,23.82ZM27,21.25c.92-.43,2.16-.8,2.14-1.87s-1.16-1.47-2.41-2A3.51,3.51,0,0,1,27,21.25Zm-5-.07a4.06,4.06,0,0,1,.18-3.83c-1,.68-2.21,1-2.16,2.1S21.1,20.8,22,21.18Zm3.54-1.8a1,1,0,0,0-2-.06,1,1,0,1,0,2,.06Z" transform="translate(0 0)"/><path class="cls-1" d="M37.06,30.6a4.37,4.37,0,0,1-3.74-2.41.94.94,0,0,1,.31-1.41c.55-.33.94-.05,1.29.39,1.64,2,2.95,2.06,4.52,0,.34-.44.71-.76,1.28-.45s.59.86.36,1.42A4.54,4.54,0,0,1,37.06,30.6Z" transform="translate(0 0)"/><path class="cls-1" d="M38.13,22.46c0,.5,0,1,0,1.51a.86.86,0,0,1-.89.87.8.8,0,0,1-.93-.8q-.06-1.63,0-3.27a.81.81,0,0,1,.93-.81.85.85,0,0,1,.89.87C38.16,21.37,38.13,21.91,38.13,22.46Z" transform="translate(0 0)"/></g></g></svg>