<svg id="Capa_1" data-name="Capa 1" xmlns="http://www.w3.org/2000/svg" viewBox="0 0 139.21 128.96"><defs><style>.cls-1{fill:#6c2910;}</style></defs><path class="cls-1" d="M50.18,87.86a3.53,3.53,0,0,0-.42,2.53c0,9.39-.08,18.79,0,28.19,0,2-.59,2.41-2.47,2.39-8.37-.11-16.74-.08-25.11,0-1.42,0-1.91-.29-1.67-1.82,1.83-11.82,3.58-23.65,5.35-35.47a19.42,19.42,0,0,0,.21-2.85c0-6.68,0-13.36,0-20,0-2.45.13-4.79,1.48-7,.83-1.36.09-3,.36-4.53.4-2.18-1.44-2.43-2.6-3.25A22.54,22.54,0,0,1,15.2,26.33a9,9,0,0,1,4.26-7.78A3.9,3.9,0,0,0,21.25,16a9.69,9.69,0,0,1,10-7.9c3.16,0,6.31,0,9.47,0A14.62,14.62,0,0,1,55.21,21.61c.3,3.71-1.82,6.3-5.54,6.44-1.59.06-1.9.55-1.82,2.05.16,2.86.09,5.73,0,8.59a7.12,7.12,0,0,1-5.7,7.36c-1.12.3-1.55.71-1.53,1.9,0,2.27.15,4.28,1.75,6.3,2.44,3.09,4.29,6.64,6.48,10.15,1.28-1.56,1.86-3,.57-4.71s-1-3.1.7-4.37a22.31,22.31,0,0,0,2.19-2.16C55,50.47,55,50.47,58.63,51.94c1.67.68,4.66-.62,5.06-2.48.57-2.65,2-3.64,4.6-3.15a13,13,0,0,0,2.42,0c3.82,0,3.82,0,5.2,3.47.68,1.69,3.73,3,5.27,1.94,2.37-1.63,4-1.18,5.65,1a30.41,30.41,0,0,0,3.09,3.13c.67.67,1.48,1.26,1,2.49A6.3,6.3,0,0,0,95,56a7.72,7.72,0,0,1,3.68-2.71,2.55,2.55,0,0,0,2-3.25,4.86,4.86,0,0,1,0-1.32c.22-1.71-.1-2.44-2.22-2.48-3.92-.07-6.68-3.15-6.85-7.25-.15-3.51-.12-7,0-10.57,0-1.57-.33-2.41-2.06-2.12-1.49.24-1.61-.62-1.63-1.82-.21-11.13,8-17.91,19.55-16.2,15.27,2.26,24.19,16.88,19,31.43A66.12,66.12,0,0,0,122.57,63a38.72,38.72,0,0,1-.55,9.43c-.27,1.15.31,1.16,1.15,1.23C127.31,74,128,74.74,128,79c0,4,0,8.08,0,12.11,0,3-1.28,4.29-4.26,4.36a1.61,1.61,0,0,0-.22,0c-2.09.17-4.84-.93-6.11.48s-.26,4.08-.35,6.19a13.46,13.46,0,0,0,0,2.2c.2,1.58-.29,2.4-2,2.08-1.49-.27-1.65.57-1.63,1.78.06,3.6,0,7.2,0,10.79,0,1.47-.26,2-1.89,2-6.09-.1-12.19-.07-18.28,0-1.33,0-1.79-.36-1.77-1.73.18-10.13-.26-20.26.28-30.39a67.2,67.2,0,0,1,1.41-9.35c.13-.68.59-1.78-.15-2a2.29,2.29,0,0,0-2.56,1.21c-.86,1.84-1.87,3.69-.19,5.66,1.13,1.34.73,2.48-.6,3.5a14,14,0,0,0-2.18,2.18c-1.88,2.32-3.75,3.9-6.83,1.53-1.24-1-4.52.74-4.86,2.44-.53,2.65-1.92,3.68-4.56,3.21a7.06,7.06,0,0,0-2.2,0c-2.94.43-5-.16-5.56-3.63-.22-1.48-3.5-2.57-5-2-3.56,1.5-3.56,1.5-6.16-1.37ZM46.07,101c0-4.84,0-9.68,0-14.52,0-1.33-.22-2-1.78-2-4.4.09-8.8.07-13.2,0-1.31,0-1.72.47-1.9,1.74-1.23,8.56-2.59,17.1-3.84,25.65-.82,5.55-.78,5.5,4.83,5.45,1.3,0,1.8-.43,2-1.65.53-3,1.22-5.88,1.74-8.84,1-5.55,2.57-11,3-16.63.11-1.39.23-2.09,1.9-2.09s2,.74,1.82,2.12c-.11.94-.11,1.91-.29,2.83-1.45,7.33-2.89,14.66-4.41,22-.35,1.68-.07,2.41,1.84,2.27a54.32,54.32,0,0,1,6.38,0c1.42.07,1.91-.35,1.89-1.83C46,110.65,46.07,105.8,46.07,101Zm73.05-45.42A74.88,74.88,0,0,1,123,38.77c5.12-14.34-5.38-28.09-20.59-27a11.32,11.32,0,0,0-10.54,9c-.23,1.39,0,1.93,1.58,1.9,4.76-.1,9.54-.07,14.31,0A5.32,5.32,0,0,1,113.29,27a3.38,3.38,0,0,0,1.5,2.2,5.35,5.35,0,0,1,0,8.82,6.14,6.14,0,0,0-1.1.72c-.62.73-.19,10.49.48,11.16A42.18,42.18,0,0,1,119.12,55.54Zm-.28,12.51A19.75,19.75,0,0,0,112,52.83a1.75,1.75,0,0,0-2.16-.2c-2.84,1.16-5.71,2.28-8.55,3.45-5,2.07-7.1,6.53-5.41,11.62a20,20,0,0,1,1.28,7.73c0,.67-.46,1.86.89,1.77,1-.06,2.36.8,2.88-1s2-2.6,3.88-2.57c1.32,0,2.64,0,4,0a1.36,1.36,0,0,0,1.34-.53c1.11-1.57,1.33-5,.06-6.51-2-2.3-2.33-4.89-2.19-7.77.07-1.51.78-1.59,1.93-1.61s1.87.26,1.82,1.7-.56,3.05.61,4.22c3.17,3.19,3.13,6.75,1.47,10.58a4.35,4.35,0,0,0-.4,1.48c0,.7-1.27,1.9.35,2,1.22,0,3.11,1.12,3.69-1A29.09,29.09,0,0,0,118.84,68.05Zm-91-25c.24-2.27.4-4-1.81-5.65-2.69-1.94-2.21-6.14.59-8.15A2.8,2.8,0,0,0,28,26.76c.2-5,5.12-7.49,9.34-4.84,1.12.7,2.14,1.55,3.28,2.2a2.69,2.69,0,0,0,2.92-.07,1.57,1.57,0,0,0,.64-1.94c-.39-1.06-1.29-1.28-2.32-1.26-1.86,0-1-1.4-1.14-2.23-.19-1,.25-1.39,1.33-1.42a5.35,5.35,0,0,1,5.81,5.69c0,1.32.33,1.63,1.56,1.57,1.78-.09,2.21-1.07,2.11-2.63A10.94,10.94,0,0,0,40.67,11.74c-2.64-.09-5.28,0-7.92,0-5.54,0-7.28,1.41-8.32,6.9A2.7,2.7,0,0,1,22.56,21,5.8,5.8,0,0,0,18.85,26C18.06,32.07,22.18,40,27.8,43Zm76.43,7.9a32.74,32.74,0,0,1,3.32-1.28c1.76-.44,2.44-1.37,2.33-3.27-.19-3,0-6-.07-9,0-1.23,0-2.13,1.7-2a1.66,1.66,0,0,0,1.87-1.73c.05-.9-.49-1.77-1.36-1.69-2.47.21-2.28-1.33-2.2-2.93s-.53-2.72-2.35-2.72c-3.59,0-7.19,0-10.78,0-1.06,0-1.42.4-1.41,1.42,0,3.82,0,7.63,0,11.44a3.35,3.35,0,0,0,2.48,3.29,3.67,3.67,0,0,0,4-1c.2-.21.33-.49.54-.69,1.11-1.06,1.79.3,2.68.51.66.16,1,.69.45,1.31C103.41,45,104.67,47.83,104.23,50.9ZM53.52,77.27c-4,0-3.94,0-3.79,3.56A3.1,3.1,0,0,0,50.64,83c1.41,1.49,2.86,3,4.14,4.55.93,1.15,1.78,1.31,2.94.46a2.89,2.89,0,0,1,3.79,0,5.26,5.26,0,0,0,2.2.94A3.53,3.53,0,0,1,67,92.14c.28,1.87,1.69,1.42,2.87,1.46s2.56.26,2.79-1.57a3.35,3.35,0,0,1,3.12-3.1,5,5,0,0,0,2.2-1,3,3,0,0,1,4,.07c1.35,1,2.21.42,3.13-.63s2.31-1.78,1-3.45c-1-1.29-.66-2.48-.16-4,1.09-3.44,2.95-5.7,6.55-6.37.07,0,.13-.07.2-.1,1-.36.83-1.08.58-1.81-.33-.94-.92-.41-1.42-.22-1.86.69-3.68,1.48-5.56,2.09a3.8,3.8,0,0,0-2.72,2.72A13.58,13.58,0,0,1,72,86.11a13.66,13.66,0,0,1-14.36-6.47C56.43,77.8,55.36,76.72,53.52,77.27Zm-1.69-3.65c1.9,0,3.81,0,5.72,0,.93,0,1.22-.36,1.3-1.29.35-4.22.38-4.22-3.86-4.22a34.44,34.44,0,0,1-3.52,0A4.6,4.6,0,0,0,46.88,70c-.79,1.11-1.49,1.24-2.57.13s-1.36-1.79,0-2.71,1.24-1.65.4-2.88c-1.78-2.6-3.39-5.32-5-8A5.8,5.8,0,0,0,37,54a5.19,5.19,0,0,0-6.25,1.82,5.81,5.81,0,0,0,.73,7.45c2.74,2.55,5.65,4.91,8.41,7.44a10.59,10.59,0,0,0,7.81,2.91C49,73.59,50.43,73.62,51.83,73.62ZM31.54,42.84c0,1-.05,2.06,0,3.09.07,1.45-.62,3.29.34,4.22.62.6,2.48-.07,3.78-.18h.22c.93.14,1-.41,1.15-1.16.42-2.29-.55-3.85-2.25-5.26-.49-.41-1.73-1.35-.62-2.08.9-.58,2.07-2.27,3.44-.24a3.41,3.41,0,0,0,4.16,1.15,3.27,3.27,0,0,0,2.44-3.08c.11-3.16.07-6.32,0-9.47,0-.79-.24-1.86-1.28-1.72-3,.41-5.09-1.45-7.35-2.94s-3.91-.49-4,2.09c-.05,1-.05,2.06,0,3.08s-.24,1.52-1.35,1.46-2.25.4-2.2,1.83,1.09,1.82,2.32,1.74c1-.06,1.25.38,1.23,1.29C31.51,38.73,31.54,40.79,31.54,42.84Zm72.73,59.9H108c5.65,0,5.61,0,5.46-5.71,0-1.24-.36-1.68-1.62-1.64-2.35.09-4.7.06-7,0-2.72,0-4.06-1.36-4.11-4.06s0-5.58,0-8.37c0-.88.55-2.21-1.27-2.13-1.42.07-2.76-.35-3.16,1.91-1.08,6.12-.88,12.28-1,18.44,0,1.33.57,1.59,1.73,1.56C99.42,102.7,101.84,102.74,104.27,102.74ZM53,64.31c2.67.46,4.19,0,5.75-1.91a14.17,14.17,0,0,1,20.74-1.31c1.42,1.34,2.48,1.41,4,.58.51-.28,1.09-.45,1.62-.69a2.34,2.34,0,0,0,1.42-3.19c-.77-1.84-3.12-3.15-4.17-2.45a3.9,3.9,0,0,1-5,0,4.88,4.88,0,0,0-2-.81A2.72,2.72,0,0,1,72.78,52c-.23-1.54-1.06-2-2.7-2.09-2-.07-3.19.45-3.46,2.54-.07.49-.34,1.3-.61,1.34-3,.46-5.55,4.14-9.05,1.44-.92-.71-1.57-.12-2,.57-.63,1-2.69,1.36-1.8,3C54.13,60.67,54.91,62.36,53,64.31Zm55.69,13.07c-.63,0-1.21,0-1.78-.12-2.06-.34-2.83.36-2.69,2.57.2,3.36.11,6.75,0,10.12,0,1.39.33,1.91,1.83,1.89q8.25-.14,16.5,0c1.55,0,1.82-.59,1.79-1.93-.07-3.59,0-7.19,0-10.78,0-.79.38-1.88-1.11-1.87-1.25,0-2.49-.24-2.71,1.62a34.73,34.73,0,0,1-1,4.72A5.86,5.86,0,0,1,108,82.23C107.91,80.59,108.56,79.08,108.73,77.38Zm-79-10.65c0,4.66,0,8.82,0,13,0,1.29.81,1.14,1.61,1.14h13c.86,0,1.88.21,1.73-1.23-.11-1.05.51-2.35-1.42-2.56a12.94,12.94,0,0,1-7.33-3.71C35,71.21,32.51,69.15,29.74,66.73Zm72.76,44.92c0,5.89,0,5.84,5.68,5.69,1.43,0,1.7-.6,1.67-1.84-.07-2.41-.12-4.83,0-7.24.08-1.58-.52-1.93-2-1.92C102.5,106.35,102.5,106.29,102.5,111.65ZM60.31,77.27c2.71,3.85,5.94,5.6,10.16,5.34s7.09-2.34,9.23-6.24c-1.1.23-1.88.37-2.64.56-1.82.46-3.71.67-5.35-.31a2.56,2.56,0,0,0-3.3.08,4.55,4.55,0,0,1-2.75.58C64.05,77.25,62.44,77.27,60.31,77.27ZM91.77,62.19l-10,4.15c-3.13,1.31-3.09,1.33-2.89,4.66.07,1.22.49,1.33,1.48.94,2.38-1,4.74-2,7.18-2.74,2.77-.88,5.16-1.86,4.14-5.53A5.53,5.53,0,0,1,91.77,62.19ZM61.45,65c1.84-.64,3.55-.94,4.87-.41a10.31,10.31,0,0,0,7.76-.06c1-.35,2.14.3,3.12-.45C73,59.56,65.57,59.89,61.45,65Zm37.44,47c0-1.4-.09-2.79,0-4.18s-.65-1.5-1.73-1.48-2-.07-1.92,1.54c.13,2.48.08,5,0,7.47,0,1.28.13,2,1.74,2s2-.61,1.89-2.06C98.81,114.21,98.89,113.11,98.89,112ZM62.51,71c-.23,1.64-.17,2.86,2.11,2.71C67.36,73.49,68,73.1,68,70.8c0-2-1-2.67-2.86-2.71C63,68,62.08,68.83,62.51,71Zm12.8-.07c-.66-.83.92-2.65-1.16-2.67a2.44,2.44,0,0,0-2.51,2.72,2.41,2.41,0,0,0,2.43,2.57C76.22,73.54,74.67,71.72,75.31,70.89Zm38.91,9.89c-.87.49-2.58-.83-2.55,1.34a2.06,2.06,0,0,0,2.07,2.31,2.42,2.42,0,0,0,2.44-2.73C116.1,80.11,114.82,81.26,114.22,80.78Z"/></svg>