<svg id="Capa_1" data-name="Capa 1" xmlns="http://www.w3.org/2000/svg" viewBox="0 0 346.25 216.84"><defs><style>.cls-1{fill:#c6875e;}.cls-2{fill:#d8d29b;}</style></defs><path class="cls-1" d="M19.53,37.47,17,52.4H14.51L17.1,37.47ZM23,50.31l-.37,2.09h-6.3l.36-2.09Zm.31-6.62-.37,2.05H17.44l.37-2.05Zm1.85-6.22-.37,2.11H18.5l.38-2.11Z"/><path class="cls-1" d="M29.59,36.65,26.85,52.4H24.51l2.74-15.75Z"/><path class="cls-1" d="M38.27,50.62a1.52,1.52,0,0,0,.95-.25,1.72,1.72,0,0,0,.59-.71,3.82,3.82,0,0,0,.3-.94H42.3a4.67,4.67,0,0,1-.68,2,3.89,3.89,0,0,1-1.44,1.41,4,4,0,0,1-2,.5,3.65,3.65,0,0,1-1.86-.48,2.88,2.88,0,0,1-1.12-1.2,5,5,0,0,1-.49-1.67,8.14,8.14,0,0,1,0-1.91l.12-1a9.24,9.24,0,0,1,.48-2,5.93,5.93,0,0,1,.93-1.7,4.25,4.25,0,0,1,1.46-1.17,4.33,4.33,0,0,1,2-.39,3.24,3.24,0,0,1,1.95.62,3.28,3.28,0,0,1,1.05,1.54A5.69,5.69,0,0,1,43,45.31H40.76a6.5,6.5,0,0,0,0-1,1.74,1.74,0,0,0-.34-.85,1.15,1.15,0,0,0-.88-.37,1.78,1.78,0,0,0-1.12.27,2,2,0,0,0-.68.79,4.25,4.25,0,0,0-.38,1.07,9.72,9.72,0,0,0-.19,1.12l-.12,1c0,.29,0,.62-.08,1a4.73,4.73,0,0,0,0,1.07,1.58,1.58,0,0,0,.37.84A1.21,1.21,0,0,0,38.27,50.62Z"/><path class="cls-1" d="M44.06,47.31l.11-.88a8.4,8.4,0,0,1,.49-2,6.71,6.71,0,0,1,1-1.73,4.51,4.51,0,0,1,1.51-1.2,4.24,4.24,0,0,1,2-.41,3.46,3.46,0,0,1,1.83.5,3.26,3.26,0,0,1,1.13,1.23,5,5,0,0,1,.53,1.7,8,8,0,0,1,0,1.89l-.1.89a8.44,8.44,0,0,1-.49,2,6.33,6.33,0,0,1-1,1.72,4.44,4.44,0,0,1-1.49,1.2,4.25,4.25,0,0,1-2,.4,3.48,3.48,0,0,1-1.85-.49,3.37,3.37,0,0,1-1.13-1.24,5.14,5.14,0,0,1-.54-1.7A8.35,8.35,0,0,1,44.06,47.31Zm2.45-.89-.1.9a9.05,9.05,0,0,0,0,1,4.18,4.18,0,0,0,.1,1.07,1.86,1.86,0,0,0,.42.88,1.25,1.25,0,0,0,.9.38,1.66,1.66,0,0,0,1.12-.28,2.37,2.37,0,0,0,.74-.83,5.59,5.59,0,0,0,.43-1.1,8.26,8.26,0,0,0,.21-1.11l.09-.9q0-.42.06-1a4.68,4.68,0,0,0-.11-1.07,1.89,1.89,0,0,0-.42-.89,1.21,1.21,0,0,0-.91-.39,1.77,1.77,0,0,0-1.09.3,2.35,2.35,0,0,0-.72.83,4.88,4.88,0,0,0-.45,1.11A7,7,0,0,0,46.51,46.42Z"/><path class="cls-1" d="M57.47,43.81,56,52.4H53.63l1.93-11.09h2.2Zm-.85,2.66-.65,0a12,12,0,0,1,.37-1.84,7.33,7.33,0,0,1,.76-1.77,3.92,3.92,0,0,1,1.25-1.31,3.07,3.07,0,0,1,1.84-.47,2.3,2.3,0,0,1,1.35.41,2.37,2.37,0,0,1,.73,1,4.37,4.37,0,0,1,.28,1.33,11,11,0,0,1,0,1.41L61.33,52.4H59l1.19-7.18a7.35,7.35,0,0,0,0-.94,1.48,1.48,0,0,0-.26-.82.94.94,0,0,0-.82-.33,1.54,1.54,0,0,0-1.07.3,2.8,2.8,0,0,0-.73.86,4.88,4.88,0,0,0-.45,1.11A9.45,9.45,0,0,0,56.62,46.47Z"/><path class="cls-1" d="M69.91,41.31l-.33,1.85H64.29l.33-1.85Zm-3.39-2.72h2.34L67,49.34a3.27,3.27,0,0,0,0,.54.8.8,0,0,0,.13.45.56.56,0,0,0,.47.19,2,2,0,0,0,.34,0l.37-.06-.21,1.94a3.24,3.24,0,0,1-.66.18,3.82,3.82,0,0,1-.68,0,1.92,1.92,0,0,1-1.35-.47,2.23,2.23,0,0,1-.63-1.18,4.78,4.78,0,0,1-.08-1.47Z"/><path class="cls-1" d="M73.63,43.57,72.09,52.4H69.76l1.93-11.09h2.22Zm2.94-2.34-.28,2.35-.44-.08a3.17,3.17,0,0,0-.43,0,2.1,2.1,0,0,0-1,.2,2.18,2.18,0,0,0-.7.58,3.49,3.49,0,0,0-.47.82A7.35,7.35,0,0,0,73,46l-.5,0c.06-.44.15-.95.27-1.52a8.64,8.64,0,0,1,.55-1.65,3.65,3.65,0,0,1,1-1.3,2.09,2.09,0,0,1,1.49-.5,2.7,2.7,0,0,1,.41.06A2.73,2.73,0,0,1,76.57,41.23Z"/><path class="cls-1" d="M76.61,47.31l.12-.88a7.94,7.94,0,0,1,.49-2,6.18,6.18,0,0,1,1-1.73,4.38,4.38,0,0,1,1.5-1.2,4.27,4.27,0,0,1,2-.41,3.46,3.46,0,0,1,1.83.5,3.21,3.21,0,0,1,1.14,1.23,5.2,5.2,0,0,1,.53,1.7,8,8,0,0,1,0,1.89l-.11.89a8,8,0,0,1-.49,2,5.85,5.85,0,0,1-1,1.72,4.44,4.44,0,0,1-1.49,1.2,4.2,4.2,0,0,1-2,.4,3.44,3.44,0,0,1-1.84-.49,3.31,3.31,0,0,1-1.14-1.24,4.91,4.91,0,0,1-.53-1.7A7.79,7.79,0,0,1,76.61,47.31Zm2.45-.89-.1.9c0,.28,0,.6,0,1a4.68,4.68,0,0,0,.1,1.07,2,2,0,0,0,.43.88,1.25,1.25,0,0,0,.9.38,1.67,1.67,0,0,0,1.12-.28,2.35,2.35,0,0,0,.73-.83,4.58,4.58,0,0,0,.43-1.1,8.36,8.36,0,0,0,.22-1.11l.09-.9c0-.28,0-.6,0-1a4.68,4.68,0,0,0-.1-1.07,2.1,2.1,0,0,0-.42-.89,1.23,1.23,0,0,0-.92-.39,1.74,1.74,0,0,0-1.08.3,2.27,2.27,0,0,0-.73.83,5.38,5.38,0,0,0-.45,1.11A10.53,10.53,0,0,0,79.06,46.42Z"/><path class="cls-1" d="M91.44,36.65,88.7,52.4H86.36L89.1,36.65Z"/><path class="cls-1" d="M99.75,43.81,98.26,52.4H95.91l1.93-11.09H100Zm-.86,2.66-.64,0a10.84,10.84,0,0,1,.36-1.84,7.75,7.75,0,0,1,.76-1.77,4,4,0,0,1,1.25-1.31,3.09,3.09,0,0,1,1.84-.47,2.26,2.26,0,0,1,1.35.41,2.28,2.28,0,0,1,.73,1,4.37,4.37,0,0,1,.28,1.33,8.26,8.26,0,0,1,0,1.41L103.6,52.4h-2.33l1.19-7.18a5.88,5.88,0,0,0,0-.94,1.66,1.66,0,0,0-.26-.82.94.94,0,0,0-.82-.33,1.53,1.53,0,0,0-1.07.3,2.56,2.56,0,0,0-.73.86,4.91,4.91,0,0,0-.46,1.11C99,45.79,99,46.15,98.89,46.47Z"/><path class="cls-1" d="M106.46,47.31l.12-.88a7.94,7.94,0,0,1,.49-2,6.18,6.18,0,0,1,1-1.73,4.38,4.38,0,0,1,1.5-1.2,4.27,4.27,0,0,1,2-.41,3.46,3.46,0,0,1,1.83.5,3.21,3.21,0,0,1,1.14,1.23,5,5,0,0,1,.52,1.7,8,8,0,0,1,0,1.89l-.11.89a8,8,0,0,1-.49,2,6.08,6.08,0,0,1-1,1.72,4.44,4.44,0,0,1-1.49,1.2,4.2,4.2,0,0,1-2,.4,3.48,3.48,0,0,1-1.85-.49A3.37,3.37,0,0,1,107,50.88a4.91,4.91,0,0,1-.53-1.7A7.79,7.79,0,0,1,106.46,47.31Zm2.45-.89-.1.9c0,.28,0,.6,0,1a4.68,4.68,0,0,0,.1,1.07,2,2,0,0,0,.43.88,1.23,1.23,0,0,0,.89.38,1.68,1.68,0,0,0,1.13-.28,2.35,2.35,0,0,0,.73-.83,5,5,0,0,0,.43-1.1,8.36,8.36,0,0,0,.22-1.11l.09-.9c0-.28,0-.6,0-1a4.68,4.68,0,0,0-.1-1.07,2.1,2.1,0,0,0-.42-.89,1.23,1.23,0,0,0-.92-.39,1.72,1.72,0,0,0-1.08.3,2.27,2.27,0,0,0-.73.83,5.38,5.38,0,0,0-.45,1.11A8.42,8.42,0,0,0,108.91,46.42Z"/><path class="cls-1" d="M121.41,47.31l.11-.86a14.28,14.28,0,0,1,.38-1.86,6.94,6.94,0,0,1,.76-1.76,3.76,3.76,0,0,1,1.26-1.28,3.32,3.32,0,0,1,1.88-.45,2.19,2.19,0,0,1,1.5.56,3.31,3.31,0,0,1,.83,1.35,6.19,6.19,0,0,1,.34,1.68,10.66,10.66,0,0,1,0,1.6l-.16,1.21a12.87,12.87,0,0,1-.42,1.68,7.29,7.29,0,0,1-.78,1.7,4,4,0,0,1-1.2,1.28,2.7,2.7,0,0,1-1.68.46,2.57,2.57,0,0,1-1.65-.55,2.85,2.85,0,0,1-.89-1.32,6,6,0,0,1-.32-1.71A12.28,12.28,0,0,1,121.41,47.31Zm2.45-.87-.09.89c0,.29-.06.62-.08,1a4.62,4.62,0,0,0,.06,1.06,1.75,1.75,0,0,0,.39.86,1.23,1.23,0,0,0,.92.35,1.71,1.71,0,0,0,1.16-.35,3.15,3.15,0,0,0,.79-1,4.89,4.89,0,0,0,.43-1.15l.37-2.41a6,6,0,0,0,0-.84,2.84,2.84,0,0,0-.22-.82,1.58,1.58,0,0,0-.48-.63,1.32,1.32,0,0,0-.79-.28,1.75,1.75,0,0,0-1.12.27,2.15,2.15,0,0,0-.71.81,5.4,5.4,0,0,0-.4,1.11A10.5,10.5,0,0,0,123.86,46.44ZM126.71,50,129,36.65h2.35L128.62,52.4h-2.1Z"/><path class="cls-1" d="M135.25,52.61a4,4,0,0,1-1.85-.43,3.06,3.06,0,0,1-1.19-1.12,4.44,4.44,0,0,1-.58-1.6,7,7,0,0,1-.07-1.9l.13-1.06a10,10,0,0,1,.48-2,6.53,6.53,0,0,1,.94-1.75,4.4,4.4,0,0,1,1.46-1.22,4.27,4.27,0,0,1,2.05-.43,3.38,3.38,0,0,1,1.82.51,3,3,0,0,1,1,1.25,4.87,4.87,0,0,1,.4,1.7,10.65,10.65,0,0,1-.05,1.87l-.19,1.21h-7l.33-1.82h4.6l.05-.27a5.52,5.52,0,0,0,0-1.08,1.81,1.81,0,0,0-.31-.94,1.16,1.16,0,0,0-.93-.44,1.74,1.74,0,0,0-1.12.29,2.17,2.17,0,0,0-.7.85,4.77,4.77,0,0,0-.38,1.14c-.08.39-.14.77-.18,1.13l-.13,1.07a6,6,0,0,0,0,1,3.34,3.34,0,0,0,.16,1,1.52,1.52,0,0,0,.51.73,1.63,1.63,0,0,0,1,.29,2.84,2.84,0,0,0,1.37-.29,4.8,4.8,0,0,0,1.15-.83L139,51a3.72,3.72,0,0,1-1,.94,4.31,4.31,0,0,1-1.29.54A5.47,5.47,0,0,1,135.25,52.61Z"/><path class="cls-1" d="M143.39,36.65h2.32l-2.33,13.5-.57,2.25h-2.16Zm6.4,9.75-.11.87a14.77,14.77,0,0,1-.38,1.87,6.73,6.73,0,0,1-.73,1.76,3.63,3.63,0,0,1-1.24,1.28,3.17,3.17,0,0,1-1.87.44,2.25,2.25,0,0,1-1.5-.55,3.1,3.1,0,0,1-.84-1.33,6.61,6.61,0,0,1-.34-1.67,12.28,12.28,0,0,1,0-1.6l.16-1.22a12.73,12.73,0,0,1,.42-1.7,7.74,7.74,0,0,1,.76-1.71,4,4,0,0,1,1.19-1.28,2.8,2.8,0,0,1,1.69-.48,2.68,2.68,0,0,1,1.7.55,2.87,2.87,0,0,1,.88,1.3,5.89,5.89,0,0,1,.29,1.71A14.38,14.38,0,0,1,149.79,46.4Zm-2.43.9.1-.89c0-.3,0-.63.08-1a4.73,4.73,0,0,0,0-1.07,1.55,1.55,0,0,0-.38-.86,1.16,1.16,0,0,0-.92-.35,1.61,1.61,0,0,0-.94.19,2.55,2.55,0,0,0-.7.61,4,4,0,0,0-.48.83,4.48,4.48,0,0,0-.29.9l-.36,2.41a4.62,4.62,0,0,0,.08,1.11,2.15,2.15,0,0,0,.47,1,1.31,1.31,0,0,0,1,.43,1.73,1.73,0,0,0,1.12-.26,2,2,0,0,0,.69-.8,5.19,5.19,0,0,0,.38-1.09C147.26,48,147.32,47.66,147.36,47.3Z"/><path class="cls-1" d="M155,52.61a4,4,0,0,1-1.85-.43A3.06,3.06,0,0,1,152,51.06a4.44,4.44,0,0,1-.58-1.6,7,7,0,0,1-.07-1.9l.13-1.06a9.34,9.34,0,0,1,.48-2,6.53,6.53,0,0,1,.94-1.75,4.4,4.4,0,0,1,1.46-1.22,4.27,4.27,0,0,1,2.05-.43,3.38,3.38,0,0,1,1.82.51,3,3,0,0,1,1,1.25,5.11,5.11,0,0,1,.4,1.7,10.65,10.65,0,0,1-.05,1.87l-.19,1.21h-7l.33-1.82h4.6l.05-.27a5.52,5.52,0,0,0,0-1.08,1.91,1.91,0,0,0-.31-.94,1.16,1.16,0,0,0-.93-.44,1.74,1.74,0,0,0-1.12.29,2.17,2.17,0,0,0-.7.85,4.77,4.77,0,0,0-.38,1.14c-.08.39-.14.77-.19,1.13l-.12,1.07a6.05,6.05,0,0,0-.06,1,3.71,3.71,0,0,0,.17,1,1.52,1.52,0,0,0,.51.73,1.63,1.63,0,0,0,1,.29,2.84,2.84,0,0,0,1.37-.29,4.8,4.8,0,0,0,1.15-.83l.93,1.49a3.72,3.72,0,0,1-1,.94,4.31,4.31,0,0,1-1.29.54A5.47,5.47,0,0,1,155,52.61Z"/><path class="cls-1" d="M169.05,43.58l-2.27,13.09h-2.33l2.66-15.36h2.14Zm5.26,2.85-.1.86a11.53,11.53,0,0,1-.37,1.84,7.42,7.42,0,0,1-.76,1.75,3.81,3.81,0,0,1-1.23,1.29,3.14,3.14,0,0,1-1.85.44,2.27,2.27,0,0,1-1.5-.52,3.17,3.17,0,0,1-.87-1.26,6.36,6.36,0,0,1-.37-1.62,8.67,8.67,0,0,1,0-1.6l.17-1.34a14.4,14.4,0,0,1,.43-1.72,7.48,7.48,0,0,1,.78-1.7,4,4,0,0,1,1.2-1.28,2.79,2.79,0,0,1,1.71-.47,2.69,2.69,0,0,1,1.7.53,2.85,2.85,0,0,1,.88,1.31,5.63,5.63,0,0,1,.28,1.72A12.72,12.72,0,0,1,174.31,46.43Zm-2.43.87.1-.89c0-.3.05-.63.07-1a4.71,4.71,0,0,0-.06-1.07,1.64,1.64,0,0,0-.4-.86,1.28,1.28,0,0,0-.93-.37,1.78,1.78,0,0,0-.93.21,2.55,2.55,0,0,0-.7.61,3.93,3.93,0,0,0-.49.84,5.13,5.13,0,0,0-.27.9l-.39,2.55a4.88,4.88,0,0,0,.12,1.07,2,2,0,0,0,.47.92,1.4,1.4,0,0,0,1,.4,1.72,1.72,0,0,0,1.13-.27,2.09,2.09,0,0,0,.7-.82,4.51,4.51,0,0,0,.4-1.1A8.58,8.58,0,0,0,171.88,47.3Z"/><path class="cls-1" d="M179.53,52.61a4,4,0,0,1-1.85-.43,3,3,0,0,1-1.19-1.12,4.45,4.45,0,0,1-.59-1.6,7.46,7.46,0,0,1-.06-1.9L176,46.5a9.36,9.36,0,0,1,.49-2,6.26,6.26,0,0,1,.94-1.75,4.13,4.13,0,0,1,3.51-1.65,3.4,3.4,0,0,1,1.82.51,3,3,0,0,1,1,1.25,5.11,5.11,0,0,1,.4,1.7,9.78,9.78,0,0,1-.06,1.87l-.18,1.21h-7l.33-1.82h4.6l.05-.27a5.52,5.52,0,0,0,0-1.08,1.91,1.91,0,0,0-.31-.94,1.16,1.16,0,0,0-.93-.44,1.77,1.77,0,0,0-1.13.29,2.36,2.36,0,0,0-.7.85,4.76,4.76,0,0,0-.37,1.14,9.87,9.87,0,0,0-.19,1.13l-.12,1.07a6.05,6.05,0,0,0-.06,1,3.34,3.34,0,0,0,.17,1,1.5,1.5,0,0,0,.5.73,1.66,1.66,0,0,0,1,.29,2.86,2.86,0,0,0,1.37-.29,4.8,4.8,0,0,0,1.15-.83l.92,1.49a3.55,3.55,0,0,1-1,.94,4.54,4.54,0,0,1-1.29.54A5.52,5.52,0,0,1,179.53,52.61Z"/><path class="cls-1" d="M188.79,43.57l-1.54,8.83h-2.33l1.93-11.09h2.22Zm2.94-2.34-.28,2.35L191,43.5a3.17,3.17,0,0,0-.43,0,2.1,2.1,0,0,0-1,.2,2.29,2.29,0,0,0-.7.58,3.89,3.89,0,0,0-.47.82,6,6,0,0,0-.29.94l-.51,0c.06-.44.15-.95.27-1.52a8.64,8.64,0,0,1,.55-1.65,3.65,3.65,0,0,1,1-1.3,2.09,2.09,0,0,1,1.49-.5,2.7,2.7,0,0,1,.41.06A2.73,2.73,0,0,1,191.73,41.23Z"/><path class="cls-1" d="M195.38,50.62a1.55,1.55,0,0,0,1-.25,1.72,1.72,0,0,0,.59-.71,3.82,3.82,0,0,0,.3-.94h2.19a4.8,4.8,0,0,1-.68,2,3.9,3.9,0,0,1-3.49,1.91,3.72,3.72,0,0,1-1.87-.48,2.92,2.92,0,0,1-1.11-1.2,5,5,0,0,1-.49-1.67,8.14,8.14,0,0,1,0-1.91l.12-1a9.86,9.86,0,0,1,.47-2,6,6,0,0,1,.94-1.7,4.25,4.25,0,0,1,1.46-1.17,4.33,4.33,0,0,1,2-.39,3.24,3.24,0,0,1,2,.62,3.19,3.19,0,0,1,1,1.54,5.69,5.69,0,0,1,.26,2.05h-2.19a6.5,6.5,0,0,0,0-1,1.74,1.74,0,0,0-.34-.85,1.16,1.16,0,0,0-.89-.37,1.77,1.77,0,0,0-1.11.27,2.12,2.12,0,0,0-.69.79,4.66,4.66,0,0,0-.37,1.07,9.72,9.72,0,0,0-.19,1.12l-.12,1c0,.29-.05.62-.08,1a4.73,4.73,0,0,0,0,1.07,1.58,1.58,0,0,0,.37.84A1.2,1.2,0,0,0,195.38,50.62Z"/><path class="cls-1" d="M205,41.31,203.08,52.4h-2.33l1.92-11.09Zm-1.95-2.87a1.4,1.4,0,0,1,.36-1,1.26,1.26,0,0,1,1-.42,1.18,1.18,0,0,1,.91.37,1.35,1.35,0,0,1,.36,1,1.37,1.37,0,0,1-.36.95,1.25,1.25,0,0,1-.93.4,1.14,1.14,0,0,1-.92-.35A1.37,1.37,0,0,1,203.06,38.44Z"/><path class="cls-1" d="M208.27,36.65h2.33l-2.34,13.5-.56,2.25h-2.16Zm6.4,9.75-.1.87a14.77,14.77,0,0,1-.38,1.87,7.09,7.09,0,0,1-.73,1.76,3.63,3.63,0,0,1-1.24,1.28,3.21,3.21,0,0,1-1.88.44,2.27,2.27,0,0,1-1.5-.55,3.18,3.18,0,0,1-.83-1.33,6.2,6.2,0,0,1-.34-1.67,10.74,10.74,0,0,1,0-1.6l.15-1.22a14.62,14.62,0,0,1,.43-1.7,7.74,7.74,0,0,1,.76-1.71,3.86,3.86,0,0,1,1.19-1.28,2.77,2.77,0,0,1,1.68-.48,2.73,2.73,0,0,1,1.71.55,2.87,2.87,0,0,1,.88,1.3,5.89,5.89,0,0,1,.28,1.71A12.63,12.63,0,0,1,214.67,46.4Zm-2.43.9.1-.89c0-.3.06-.63.09-1a5.39,5.39,0,0,0,0-1.07,1.62,1.62,0,0,0-.38-.86,1.17,1.17,0,0,0-.93-.35,1.65,1.65,0,0,0-.94.19,2.37,2.37,0,0,0-.69.61,3.27,3.27,0,0,0-.48.83,5.28,5.28,0,0,0-.3.9l-.36,2.41a4.17,4.17,0,0,0,.09,1.11,2.15,2.15,0,0,0,.47,1,1.3,1.3,0,0,0,1,.43,1.75,1.75,0,0,0,1.13-.26,2.15,2.15,0,0,0,.69-.8,4.66,4.66,0,0,0,.37-1.09A8,8,0,0,0,212.24,47.3Z"/><path class="cls-1" d="M220,41.31,218.09,52.4h-2.34l1.93-11.09Zm-1.94-2.87a1.4,1.4,0,0,1,.36-1,1.29,1.29,0,0,1,1.86,0,1.46,1.46,0,0,1,0,1.91,1.25,1.25,0,0,1-.93.4,1.16,1.16,0,0,1-.92-.35A1.31,1.31,0,0,1,218.07,38.44Z"/><path class="cls-1" d="M224.4,43.57l-1.53,8.83h-2.33l1.92-11.09h2.22Zm2.95-2.34-.29,2.35-.44-.08a3,3,0,0,0-.42,0,1.93,1.93,0,0,0-1.67.78,3.53,3.53,0,0,0-.48.82,6,6,0,0,0-.29.94l-.51,0c.06-.44.15-.95.28-1.52a8,8,0,0,1,.55-1.65,3.51,3.51,0,0,1,.95-1.3,2.1,2.1,0,0,1,1.5-.5l.41.06A3.48,3.48,0,0,1,227.35,41.23Z"/><path class="cls-1" d="M232.55,49.42a.89.89,0,0,0-.2-.77,2.42,2.42,0,0,0-.64-.54l-.71-.38a10.26,10.26,0,0,1-1-.56,4.6,4.6,0,0,1-.87-.68,2.59,2.59,0,0,1-.58-.88,2.66,2.66,0,0,1-.16-1.16,3.29,3.29,0,0,1,.39-1.41,3.43,3.43,0,0,1,.87-1.06,3.68,3.68,0,0,1,1.23-.67,4.92,4.92,0,0,1,1.44-.22,4,4,0,0,1,1.79.46,2.83,2.83,0,0,1,1.17,1.18,3.74,3.74,0,0,1,.38,1.81h-2.33a2.25,2.25,0,0,0-.07-.74,1.2,1.2,0,0,0-.36-.58,1.06,1.06,0,0,0-.73-.23,1.44,1.44,0,0,0-.72.16,1.49,1.49,0,0,0-.54.49,1.65,1.65,0,0,0-.27.7.86.86,0,0,0,.07.56,1.34,1.34,0,0,0,.37.42,2.93,2.93,0,0,0,.51.32l.5.24a11.77,11.77,0,0,1,1.41.79,3.39,3.39,0,0,1,1,1.06,2.58,2.58,0,0,1,.31,1.56,3.05,3.05,0,0,1-.39,1.44,3.36,3.36,0,0,1-.93,1.05,3.9,3.9,0,0,1-1.29.64,4.69,4.69,0,0,1-1.5.2,3.82,3.82,0,0,1-1.84-.49,3.11,3.11,0,0,1-1.24-1.25A3.75,3.75,0,0,1,227.2,49h2.27a2.51,2.51,0,0,0,.1.88,1.14,1.14,0,0,0,.43.61,1.43,1.43,0,0,0,.85.23,2.1,2.1,0,0,0,.79-.16,1.45,1.45,0,0,0,.91-1.16Z"/><path class="cls-1" d="M240.56,52.61a4,4,0,0,1-1.85-.43,3,3,0,0,1-1.19-1.12,4.64,4.64,0,0,1-.59-1.6,7.46,7.46,0,0,1-.06-1.9L237,46.5a9.36,9.36,0,0,1,.49-2,6.26,6.26,0,0,1,.94-1.75,4.13,4.13,0,0,1,3.51-1.65,3.38,3.38,0,0,1,1.82.51,3,3,0,0,1,1,1.25,5.11,5.11,0,0,1,.4,1.7,10.65,10.65,0,0,1-.05,1.87l-.19,1.21h-7l.33-1.82h4.6l.05-.27a5.52,5.52,0,0,0,0-1.08,1.91,1.91,0,0,0-.31-.94,1.16,1.16,0,0,0-.93-.44,1.77,1.77,0,0,0-1.13.29,2.24,2.24,0,0,0-.69.85,4.77,4.77,0,0,0-.38,1.14c-.08.39-.15.77-.19,1.13l-.12,1.07a6.05,6.05,0,0,0-.06,1,3.34,3.34,0,0,0,.17,1,1.57,1.57,0,0,0,.5.73,1.66,1.66,0,0,0,1,.29,2.86,2.86,0,0,0,1.37-.29,4.8,4.8,0,0,0,1.15-.83l.93,1.49a3.72,3.72,0,0,1-1,.94,4.31,4.31,0,0,1-1.29.54A5.47,5.47,0,0,1,240.56,52.61Z"/><path class="cls-1" d="M18.49,72.62a1.52,1.52,0,0,0,1-.25,1.72,1.72,0,0,0,.59-.71,3.82,3.82,0,0,0,.3-.94h2.19a4.67,4.67,0,0,1-.68,2,3.89,3.89,0,0,1-1.44,1.41,4,4,0,0,1-2,.5,3.65,3.65,0,0,1-1.86-.48,2.88,2.88,0,0,1-1.12-1.2,5,5,0,0,1-.49-1.67,8.14,8.14,0,0,1,0-1.91l.12-1a9.24,9.24,0,0,1,.48-2,5.7,5.7,0,0,1,.93-1.7,4.25,4.25,0,0,1,1.46-1.17,4.33,4.33,0,0,1,2-.39,3.24,3.24,0,0,1,1.95.62,3.28,3.28,0,0,1,1.05,1.54,5.69,5.69,0,0,1,.25,2H21a6.5,6.5,0,0,0-.05-1,1.74,1.74,0,0,0-.34-.85,1.15,1.15,0,0,0-.88-.37,1.78,1.78,0,0,0-1.12.27,2,2,0,0,0-.68.79,4.25,4.25,0,0,0-.38,1.07,9.72,9.72,0,0,0-.19,1.12l-.12,1c0,.29,0,.62-.08,1a4.73,4.73,0,0,0,0,1.07,1.58,1.58,0,0,0,.37.84A1.21,1.21,0,0,0,18.49,72.62Z"/><path class="cls-1" d="M24.28,69.31l.11-.88a8.4,8.4,0,0,1,.49-2,6.71,6.71,0,0,1,1-1.73,4.58,4.58,0,0,1,1.5-1.2,4.31,4.31,0,0,1,2-.41,3.46,3.46,0,0,1,1.83.5,3.26,3.26,0,0,1,1.13,1.23,5,5,0,0,1,.53,1.7,8,8,0,0,1,0,1.89l-.1.89a8.44,8.44,0,0,1-.49,2,6.33,6.33,0,0,1-1,1.72,4.54,4.54,0,0,1-1.49,1.2,4.25,4.25,0,0,1-2,.4A3.48,3.48,0,0,1,26,74.12a3.37,3.37,0,0,1-1.13-1.24,5.14,5.14,0,0,1-.54-1.7A8.35,8.35,0,0,1,24.28,69.31Zm2.45-.89-.1.9a9.05,9.05,0,0,0-.05,1,4.18,4.18,0,0,0,.1,1.07,1.86,1.86,0,0,0,.42.88,1.25,1.25,0,0,0,.9.38,1.66,1.66,0,0,0,1.12-.28,2.37,2.37,0,0,0,.74-.83,5.59,5.59,0,0,0,.43-1.1,8.26,8.26,0,0,0,.21-1.11l.09-.9q0-.42.06-1a4.68,4.68,0,0,0-.11-1.07,1.89,1.89,0,0,0-.42-.89,1.21,1.21,0,0,0-.91-.39,1.77,1.77,0,0,0-1.09.3,2.35,2.35,0,0,0-.72.83A4.88,4.88,0,0,0,27,67.33,7,7,0,0,0,26.73,68.42Z"/><path class="cls-1" d="M37.75,65.7l-1.52,8.7H33.91l1.92-11.09H38Zm-.83,2.76h-.75a10.76,10.76,0,0,1,.36-1.85,7,7,0,0,1,.76-1.77,4.09,4.09,0,0,1,1.26-1.29,3.29,3.29,0,0,1,1.87-.46,2.36,2.36,0,0,1,1.28.38,2.34,2.34,0,0,1,.74,1,4,4,0,0,1,.31,1.25,7.39,7.39,0,0,1,0,1.33L41.51,74.4H39.18l1.2-7.17a4.89,4.89,0,0,0,0-.94,1.57,1.57,0,0,0-.27-.82,1,1,0,0,0-.84-.36,1.62,1.62,0,0,0-1.07.31,2.33,2.33,0,0,0-.69.85,5.13,5.13,0,0,0-.4,1.12A8.55,8.55,0,0,0,36.92,68.46Zm5.59-.64-1.07.27a8.75,8.75,0,0,1,.35-1.75,6.23,6.23,0,0,1,.76-1.63,3.82,3.82,0,0,1,1.22-1.18,3.14,3.14,0,0,1,1.76-.44,2.33,2.33,0,0,1,1.38.4,2.36,2.36,0,0,1,.78,1A4.26,4.26,0,0,1,48,65.8a7.71,7.71,0,0,1,0,1.44L46.78,74.4H44.44l1.2-7.18a5,5,0,0,0,0-1,1.45,1.45,0,0,0-.27-.81,1,1,0,0,0-.84-.33,1.35,1.35,0,0,0-.88.25,2.16,2.16,0,0,0-.6.67,4,4,0,0,0-.35.89C42.62,67.26,42.56,67.55,42.51,67.82Z"/><path class="cls-1" d="M49.68,69.31l.11-.88a8.4,8.4,0,0,1,.49-2,6.71,6.71,0,0,1,1-1.73,4.58,4.58,0,0,1,1.5-1.2,4.29,4.29,0,0,1,2-.41,3.4,3.4,0,0,1,1.83.5,3.21,3.21,0,0,1,1.14,1.23,5,5,0,0,1,.53,1.7,8,8,0,0,1,0,1.89l-.1.89a8.44,8.44,0,0,1-.49,2,6.33,6.33,0,0,1-1,1.72,4.54,4.54,0,0,1-1.49,1.2,4.25,4.25,0,0,1-2,.4,3.48,3.48,0,0,1-1.85-.49,3.28,3.28,0,0,1-1.13-1.24,5.14,5.14,0,0,1-.54-1.7A8.35,8.35,0,0,1,49.68,69.31Zm2.45-.89-.1.9c0,.28-.05.6-.06,1a4.68,4.68,0,0,0,.11,1.07,1.86,1.86,0,0,0,.42.88,1.25,1.25,0,0,0,.9.38,1.66,1.66,0,0,0,1.12-.28,2.37,2.37,0,0,0,.74-.83,5.59,5.59,0,0,0,.43-1.1,8.26,8.26,0,0,0,.21-1.11l.09-.9a9,9,0,0,0,0-1,4.18,4.18,0,0,0-.1-1.07,1.89,1.89,0,0,0-.42-.89,1.21,1.21,0,0,0-.91-.39,1.77,1.77,0,0,0-1.09.3,2.47,2.47,0,0,0-.73.83,5.35,5.35,0,0,0-.44,1.11A7,7,0,0,0,52.13,68.42Z"/><path class="cls-1" d="M70.52,69.43l.66,0a15.62,15.62,0,0,1-.33,1.8,6.75,6.75,0,0,1-.66,1.71A3.55,3.55,0,0,1,69,74.18a2.93,2.93,0,0,1-1.79.44,2.48,2.48,0,0,1-1.38-.41,2.31,2.31,0,0,1-.79-1,4.11,4.11,0,0,1-.31-1.33,8.27,8.27,0,0,1,0-1.41L66,63.31h2.33l-1.2,7.2a6.05,6.05,0,0,0,0,.63,2.39,2.39,0,0,0,.06.66,1.15,1.15,0,0,0,.27.54.79.79,0,0,0,.59.24,1.79,1.79,0,0,0,1.4-.45,2.87,2.87,0,0,0,.77-1.23A6.81,6.81,0,0,0,70.52,69.43Zm-.64,2.23,1.44-8.35h2.35L71.74,74.4H69.55Z"/><path class="cls-1" d="M77.83,65.81,76.35,74.4H74l1.93-11.09h2.19ZM77,68.47l-.64,0a10.84,10.84,0,0,1,.36-1.84,7.75,7.75,0,0,1,.76-1.77,4,4,0,0,1,1.25-1.31,3.07,3.07,0,0,1,1.84-.47,2.26,2.26,0,0,1,1.35.41,2.28,2.28,0,0,1,.73,1,4.37,4.37,0,0,1,.28,1.33,8.26,8.26,0,0,1,0,1.41L81.69,74.4H79.36l1.19-7.18a7.34,7.34,0,0,0,0-.94,1.66,1.66,0,0,0-.26-.82,1,1,0,0,0-.82-.33,1.55,1.55,0,0,0-1.08.3,2.65,2.65,0,0,0-.72.86,4.91,4.91,0,0,0-.46,1.11C77.12,67.79,77,68.15,77,68.47Z"/><path class="cls-1" d="M90.48,67.65l-.26,1.56h-1a3.24,3.24,0,0,0-.89.12,2.85,2.85,0,0,0-.78.39,2.24,2.24,0,0,0-.57.62,2.18,2.18,0,0,0-.29.87,2.09,2.09,0,0,0,0,.71,1,1,0,0,0,.29.53.9.9,0,0,0,.66.21,2.13,2.13,0,0,0,.88-.2,2.18,2.18,0,0,0,.75-.55,1.6,1.6,0,0,0,.38-.81l.4,1a4.56,4.56,0,0,1-.43,1,3.73,3.73,0,0,1-.65.82,3.32,3.32,0,0,1-.87.56,2.58,2.58,0,0,1-1,.19,2.78,2.78,0,0,1-1.55-.45,2.52,2.52,0,0,1-1-1.16,3.51,3.51,0,0,1-.27-1.6,3.76,3.76,0,0,1,.47-1.7,3.6,3.6,0,0,1,1.06-1.17,4.73,4.73,0,0,1,1.49-.69,6.69,6.69,0,0,1,1.74-.22Zm-1.09,4.5.88-5.55a3.19,3.19,0,0,0,0-.76,1,1,0,0,0-.29-.58,1,1,0,0,0-.7-.23,1.52,1.52,0,0,0-.79.19,1.61,1.61,0,0,0-.53.54,2.4,2.4,0,0,0-.27.75H85.36a3.4,3.4,0,0,1,.42-1.43A3.52,3.52,0,0,1,86.72,64,4.46,4.46,0,0,1,88,63.31a4.92,4.92,0,0,1,1.48-.23,3.62,3.62,0,0,1,1.81.47,2.59,2.59,0,0,1,1.07,1.24,3.79,3.79,0,0,1,.23,1.86l-.84,5.19q-.09.6-.12,1.2a4.26,4.26,0,0,0,.11,1.18l0,.18h-2.3a4.19,4.19,0,0,1-.13-1.12A8.49,8.49,0,0,1,89.39,72.15Z"/><path class="cls-1" d="M102.32,65.57l-1.54,8.83H98.46l1.92-11.09h2.22Zm2.94-2.34L105,65.58l-.44-.08a3.1,3.1,0,0,0-.42,0,2.15,2.15,0,0,0-1,.2,2.29,2.29,0,0,0-.7.58,3.89,3.89,0,0,0-.47.82,6,6,0,0,0-.29.94l-.51,0c.06-.44.15-1,.27-1.52a8.64,8.64,0,0,1,.55-1.65,3.65,3.65,0,0,1,1-1.3,2.09,2.09,0,0,1,1.49-.5,2.7,2.7,0,0,1,.41.06A2.73,2.73,0,0,1,105.26,63.23Z"/><path class="cls-1" d="M109,74.61a4,4,0,0,1-1.86-.43A3.06,3.06,0,0,1,106,73.06a4.44,4.44,0,0,1-.58-1.6,7,7,0,0,1-.07-1.9l.13-1.06a10,10,0,0,1,.48-2,6.53,6.53,0,0,1,.94-1.75,4.4,4.4,0,0,1,1.46-1.22,4.27,4.27,0,0,1,2-.43,3.38,3.38,0,0,1,1.82.51,3,3,0,0,1,1,1.25,4.87,4.87,0,0,1,.4,1.7,10.65,10.65,0,0,1,0,1.87l-.19,1.21h-7l.33-1.82h4.6l0-.27a5.52,5.52,0,0,0,0-1.08,1.81,1.81,0,0,0-.31-.94,1.15,1.15,0,0,0-.92-.44,1.75,1.75,0,0,0-1.13.29,2.17,2.17,0,0,0-.7.85,4.77,4.77,0,0,0-.38,1.14c-.08.39-.14.77-.18,1.13l-.13,1.07a6,6,0,0,0,0,1,3.34,3.34,0,0,0,.16,1,1.52,1.52,0,0,0,.51.73,1.63,1.63,0,0,0,1,.29,2.84,2.84,0,0,0,1.37-.29,4.85,4.85,0,0,0,1.16-.83l.92,1.49a3.59,3.59,0,0,1-1,.94,4.31,4.31,0,0,1-1.29.54A5.44,5.44,0,0,1,109,74.61Z"/><path class="cls-1" d="M119.94,71.42a1,1,0,0,0-.2-.77,2.46,2.46,0,0,0-.65-.54l-.71-.38a11.45,11.45,0,0,1-1-.56,4.94,4.94,0,0,1-.87-.68,2.75,2.75,0,0,1-.58-.88,2.82,2.82,0,0,1-.16-1.16,3.6,3.6,0,0,1,.39-1.41A3.43,3.43,0,0,1,117,64a3.68,3.68,0,0,1,1.23-.67,4.92,4.92,0,0,1,1.44-.22,4,4,0,0,1,1.79.46,2.83,2.83,0,0,1,1.17,1.18,3.63,3.63,0,0,1,.38,1.81h-2.32a2.55,2.55,0,0,0-.08-.74,1.18,1.18,0,0,0-.35-.58,1.1,1.1,0,0,0-.73-.23,1.48,1.48,0,0,0-.73.16,1.49,1.49,0,0,0-.54.49,1.65,1.65,0,0,0-.27.7.8.8,0,0,0,.08.56,1.19,1.19,0,0,0,.36.42,3.36,3.36,0,0,0,.51.32l.51.24a12.45,12.45,0,0,1,1.4.79,3.39,3.39,0,0,1,1,1.06,2.51,2.51,0,0,1,.31,1.56,3.05,3.05,0,0,1-.39,1.44,3.45,3.45,0,0,1-.92,1,3.85,3.85,0,0,1-1.3.64,4.69,4.69,0,0,1-1.5.2,3.85,3.85,0,0,1-1.84-.49A3.11,3.11,0,0,1,115,72.87a3.75,3.75,0,0,1-.42-1.86h2.27a2.77,2.77,0,0,0,.1.88,1.2,1.2,0,0,0,.43.61,1.44,1.44,0,0,0,.86.23,2,2,0,0,0,.78-.16,1.38,1.38,0,0,0,.6-.44A1.4,1.4,0,0,0,119.94,71.42Z"/><path class="cls-1" d="M130,63.31l-.33,1.85h-5.29l.32-1.85Zm-3.39-2.72h2.34l-1.83,10.75a4.89,4.89,0,0,0,0,.54.8.8,0,0,0,.13.45.56.56,0,0,0,.47.19l.34,0,.37-.06-.21,1.94a3.24,3.24,0,0,1-.66.18,3.82,3.82,0,0,1-.68,0,2,2,0,0,1-1.36-.47,2.28,2.28,0,0,1-.62-1.18,4.78,4.78,0,0,1-.08-1.47Z"/><path class="cls-1" d="M133.69,65.57l-1.54,8.83h-2.33l1.93-11.09H134Zm2.94-2.34-.29,2.35-.43-.08a3.17,3.17,0,0,0-.43,0,2,2,0,0,0-1.67.78,3.49,3.49,0,0,0-.47.82,6.05,6.05,0,0,0-.3.94l-.5,0a14.12,14.12,0,0,1,.27-1.52,8.64,8.64,0,0,1,.55-1.65,3.75,3.75,0,0,1,.95-1.3,2.13,2.13,0,0,1,1.5-.5,2.9,2.9,0,0,1,.41.06A3.06,3.06,0,0,1,136.63,63.23Z"/><path class="cls-1" d="M140.71,63.31,138.78,74.4h-2.34l1.93-11.09Zm-2-2.87a1.4,1.4,0,0,1,.36-1,1.24,1.24,0,0,1,.94-.42,1.19,1.19,0,0,1,.92.37,1.35,1.35,0,0,1,.36,1,1.37,1.37,0,0,1-.36.95,1.26,1.26,0,0,1-.94.4,1.14,1.14,0,0,1-.91-.35A1.37,1.37,0,0,1,138.76,60.44Z"/><path class="cls-1" d="M145.4,72.62a1.52,1.52,0,0,0,.95-.25,1.72,1.72,0,0,0,.59-.71,3.82,3.82,0,0,0,.3-.94h2.2a4.81,4.81,0,0,1-.69,2,3.89,3.89,0,0,1-1.44,1.41,4,4,0,0,1-2.05.5,3.65,3.65,0,0,1-1.86-.48,2.88,2.88,0,0,1-1.12-1.2,5,5,0,0,1-.49-1.67,8.14,8.14,0,0,1,0-1.91l.12-1a9.24,9.24,0,0,1,.48-2,5.93,5.93,0,0,1,.93-1.7,4.25,4.25,0,0,1,1.46-1.17,4.35,4.35,0,0,1,2-.39,3.24,3.24,0,0,1,1.95.62,3.28,3.28,0,0,1,1.05,1.54,5.69,5.69,0,0,1,.25,2h-2.19a5.41,5.41,0,0,0,0-1,1.74,1.74,0,0,0-.34-.85,1.15,1.15,0,0,0-.88-.37,1.8,1.8,0,0,0-1.12.27,2,2,0,0,0-.68.79,4.25,4.25,0,0,0-.38,1.07,9.72,9.72,0,0,0-.19,1.12l-.12,1c0,.29,0,.62-.08,1a5.39,5.39,0,0,0,0,1.07,1.58,1.58,0,0,0,.37.84A1.21,1.21,0,0,0,145.4,72.62Z"/><path class="cls-1" d="M154.79,72.62a1.52,1.52,0,0,0,1-.25,1.65,1.65,0,0,0,.59-.71,3.82,3.82,0,0,0,.3-.94h2.2a5,5,0,0,1-.68,2,3.93,3.93,0,0,1-3.49,1.91,3.69,3.69,0,0,1-1.87-.48,2.8,2.8,0,0,1-1.11-1.2,5,5,0,0,1-.5-1.67,8.14,8.14,0,0,1,0-1.91l.12-1a9.24,9.24,0,0,1,.48-2,5.72,5.72,0,0,1,.94-1.7,4.12,4.12,0,0,1,1.45-1.17,4.38,4.38,0,0,1,2-.39,3.24,3.24,0,0,1,1.95.62,3.28,3.28,0,0,1,1.05,1.54,5.69,5.69,0,0,1,.25,2h-2.19a5.41,5.41,0,0,0-.05-1,1.65,1.65,0,0,0-.34-.85,1.13,1.13,0,0,0-.88-.37,1.77,1.77,0,0,0-1.11.27,2.12,2.12,0,0,0-.69.79,4.68,4.68,0,0,0-.38,1.07,9.72,9.72,0,0,0-.19,1.12l-.11,1c0,.29-.06.62-.08,1a4.74,4.74,0,0,0,0,1.07,1.59,1.59,0,0,0,.38.84A1.18,1.18,0,0,0,154.79,72.62Z"/><path class="cls-1" d="M164.42,63.31,162.49,74.4h-2.34l1.93-11.09Zm-1.95-2.87a1.4,1.4,0,0,1,.36-1,1.24,1.24,0,0,1,.94-.42,1.21,1.21,0,0,1,.92.37,1.46,1.46,0,0,1,0,1.91,1.25,1.25,0,0,1-.93.4,1.16,1.16,0,0,1-.92-.35A1.41,1.41,0,0,1,162.47,60.44Z"/><path class="cls-1" d="M165.5,69.31l.12-.88a7.94,7.94,0,0,1,.49-2,6.43,6.43,0,0,1,1-1.73,4.38,4.38,0,0,1,1.5-1.2,4.29,4.29,0,0,1,2-.41,3.46,3.46,0,0,1,1.83.5,3.21,3.21,0,0,1,1.14,1.23,5.2,5.2,0,0,1,.53,1.7,8,8,0,0,1,0,1.89l-.11.89a8,8,0,0,1-.49,2,5.85,5.85,0,0,1-1,1.72,4.44,4.44,0,0,1-1.49,1.2,4.2,4.2,0,0,1-2,.4,3.44,3.44,0,0,1-1.84-.49,3.31,3.31,0,0,1-1.14-1.24,4.91,4.91,0,0,1-.53-1.7A7.79,7.79,0,0,1,165.5,69.31Zm2.46-.89-.11.9c0,.28,0,.6,0,1a4.68,4.68,0,0,0,.1,1.07,2,2,0,0,0,.43.88,1.25,1.25,0,0,0,.9.38,1.67,1.67,0,0,0,1.12-.28,2.35,2.35,0,0,0,.73-.83,4.58,4.58,0,0,0,.43-1.1,7,7,0,0,0,.22-1.11l.09-.9c0-.28,0-.6.05-1a4.68,4.68,0,0,0-.1-1.07,2.1,2.1,0,0,0-.42-.89,1.23,1.23,0,0,0-.91-.39,1.75,1.75,0,0,0-1.09.3,2.27,2.27,0,0,0-.73.83,5.38,5.38,0,0,0-.45,1.11A8.3,8.3,0,0,0,168,68.42Zm1.64-6.67,2.43-3.1h2.88l-3.21,3.1Z"/><path class="cls-1" d="M178.92,65.81l-1.49,8.59h-2.35L177,63.31h2.19Zm-.86,2.66-.64,0a10.84,10.84,0,0,1,.36-1.84,7.75,7.75,0,0,1,.76-1.77,4,4,0,0,1,1.25-1.31,3.09,3.09,0,0,1,1.84-.47,2.26,2.26,0,0,1,1.35.41,2.28,2.28,0,0,1,.73,1,4.37,4.37,0,0,1,.28,1.33,8.26,8.26,0,0,1,0,1.41l-1.19,7.15h-2.33l1.19-7.18a5.88,5.88,0,0,0,0-.94,1.66,1.66,0,0,0-.26-.82.94.94,0,0,0-.82-.33,1.53,1.53,0,0,0-1.07.3,2.56,2.56,0,0,0-.73.86,4.91,4.91,0,0,0-.46,1.11C178.2,67.79,178.12,68.15,178.06,68.47Z"/><path class="cls-1" d="M187.81,72l-.29,1.78a6,6,0,0,1-.84,2.25,6.68,6.68,0,0,1-1.61,1.78L183.8,77l.65-1a6.2,6.2,0,0,0,.54-1,5,5,0,0,0,.35-1.12l.32-1.89Z"/><path class="cls-1" d="M199.93,71.42a1,1,0,0,0-.2-.77,2.46,2.46,0,0,0-.65-.54l-.71-.38a10.26,10.26,0,0,1-1-.56,4.6,4.6,0,0,1-.87-.68,2.59,2.59,0,0,1-.58-.88,2.66,2.66,0,0,1-.16-1.16A3.42,3.42,0,0,1,197,64a3.68,3.68,0,0,1,1.23-.67,4.92,4.92,0,0,1,1.44-.22,4,4,0,0,1,1.79.46,2.83,2.83,0,0,1,1.17,1.18,3.74,3.74,0,0,1,.38,1.81h-2.33a2.25,2.25,0,0,0-.07-.74,1.2,1.2,0,0,0-.36-.58,1.05,1.05,0,0,0-.72-.23,1.48,1.48,0,0,0-.73.16,1.49,1.49,0,0,0-.54.49,1.65,1.65,0,0,0-.27.7.86.86,0,0,0,.07.56,1.34,1.34,0,0,0,.37.42,3.36,3.36,0,0,0,.51.32l.5.24a11.77,11.77,0,0,1,1.41.79,3.39,3.39,0,0,1,1,1.06,2.58,2.58,0,0,1,.31,1.56,3.05,3.05,0,0,1-.39,1.44,3.36,3.36,0,0,1-.93,1,3.9,3.9,0,0,1-1.29.64,4.69,4.69,0,0,1-1.5.2,3.85,3.85,0,0,1-1.84-.49A3.11,3.11,0,0,1,195,72.87a3.75,3.75,0,0,1-.42-1.86h2.27a2.77,2.77,0,0,0,.1.88,1.14,1.14,0,0,0,.43.61,1.43,1.43,0,0,0,.85.23,2.06,2.06,0,0,0,.79-.16,1.38,1.38,0,0,0,.6-.44A1.49,1.49,0,0,0,199.93,71.42Z"/><path class="cls-1" d="M208.07,63.31,206.14,74.4H203.8l1.93-11.09Zm-1.95-2.87a1.4,1.4,0,0,1,.36-1,1.24,1.24,0,0,1,.94-.42,1.21,1.21,0,0,1,.92.37,1.34,1.34,0,0,1,.35,1,1.37,1.37,0,0,1-.36.95,1.25,1.25,0,0,1-.93.4,1.16,1.16,0,0,1-.92-.35A1.41,1.41,0,0,1,206.12,60.44Z"/><path class="cls-1" d="M212.38,65.81,210.9,74.4h-2.35l1.93-11.09h2.19Zm-.85,2.66-.64,0a10.84,10.84,0,0,1,.36-1.84,7.75,7.75,0,0,1,.76-1.77,3.92,3.92,0,0,1,1.25-1.31,3.07,3.07,0,0,1,1.84-.47,2.26,2.26,0,0,1,1.35.41,2.28,2.28,0,0,1,.73,1,4.37,4.37,0,0,1,.28,1.33,8.26,8.26,0,0,1,0,1.41l-1.19,7.15h-2.33l1.19-7.18a7.34,7.34,0,0,0,0-.94,1.66,1.66,0,0,0-.26-.82,1,1,0,0,0-.82-.33,1.55,1.55,0,0,0-1.08.3,2.65,2.65,0,0,0-.72.86,4.91,4.91,0,0,0-.46,1.11C211.67,67.79,211.59,68.15,211.53,68.47Z"/><path class="cls-1" d="M219.1,69.31l.11-.88a8.42,8.42,0,0,1,.5-2,6.18,6.18,0,0,1,1-1.73,4.38,4.38,0,0,1,1.5-1.2,4.27,4.27,0,0,1,2-.41,3.46,3.46,0,0,1,1.83.5,3.21,3.21,0,0,1,1.14,1.23,5,5,0,0,1,.52,1.7,8,8,0,0,1,0,1.89l-.11.89a8,8,0,0,1-.49,2,6.08,6.08,0,0,1-1,1.72,4.44,4.44,0,0,1-1.49,1.2,4.2,4.2,0,0,1-2,.4,3.48,3.48,0,0,1-1.85-.49,3.37,3.37,0,0,1-1.13-1.24,4.91,4.91,0,0,1-.53-1.7A7.79,7.79,0,0,1,219.1,69.31Zm2.45-.89-.1.9c0,.28,0,.6,0,1a4.68,4.68,0,0,0,.1,1.07,2,2,0,0,0,.43.88,1.21,1.21,0,0,0,.89.38,1.68,1.68,0,0,0,1.13-.28,2.35,2.35,0,0,0,.73-.83,5,5,0,0,0,.43-1.1,8.36,8.36,0,0,0,.22-1.11l.09-.9c0-.28,0-.6.05-1a4.68,4.68,0,0,0-.1-1.07,2.1,2.1,0,0,0-.42-.89,1.23,1.23,0,0,0-.92-.39,1.72,1.72,0,0,0-1.08.3,2.27,2.27,0,0,0-.73.83,5.38,5.38,0,0,0-.45,1.11A8.42,8.42,0,0,0,221.55,68.42Z"/><path class="cls-1" d="M18.49,94.62a1.52,1.52,0,0,0,1-.25,1.72,1.72,0,0,0,.59-.71,3.82,3.82,0,0,0,.3-.94h2.19a4.67,4.67,0,0,1-.68,2,3.89,3.89,0,0,1-1.44,1.41,4,4,0,0,1-2,.5,3.65,3.65,0,0,1-1.86-.48,2.88,2.88,0,0,1-1.12-1.2,5,5,0,0,1-.49-1.67,8.14,8.14,0,0,1,0-1.91l.12-1a9.24,9.24,0,0,1,.48-2,5.7,5.7,0,0,1,.93-1.7,4.25,4.25,0,0,1,1.46-1.17,4.33,4.33,0,0,1,2-.39,3.24,3.24,0,0,1,1.95.62,3.28,3.28,0,0,1,1.05,1.54,5.69,5.69,0,0,1,.25,2H21a6.5,6.5,0,0,0-.05-1,1.74,1.74,0,0,0-.34-.85,1.15,1.15,0,0,0-.88-.37,1.78,1.78,0,0,0-1.12.27,2,2,0,0,0-.68.79,4.25,4.25,0,0,0-.38,1.07,9.72,9.72,0,0,0-.19,1.12l-.12,1c0,.29,0,.62-.08,1a4.73,4.73,0,0,0,0,1.07,1.58,1.58,0,0,0,.37.84A1.21,1.21,0,0,0,18.49,94.62Z"/><path class="cls-1" d="M24.28,91.31l.11-.88a8.4,8.4,0,0,1,.49-2,6.71,6.71,0,0,1,1-1.73,4.58,4.58,0,0,1,1.5-1.2,4.31,4.31,0,0,1,2-.41,3.46,3.46,0,0,1,1.83.5,3.26,3.26,0,0,1,1.13,1.23,5,5,0,0,1,.53,1.7,8,8,0,0,1,0,1.89l-.1.89a8.44,8.44,0,0,1-.49,2,6.33,6.33,0,0,1-1,1.72,4.54,4.54,0,0,1-1.49,1.2,4.25,4.25,0,0,1-2,.4A3.48,3.48,0,0,1,26,96.12a3.37,3.37,0,0,1-1.13-1.24,5.14,5.14,0,0,1-.54-1.7A8.35,8.35,0,0,1,24.28,91.31Zm2.45-.89-.1.9a9.05,9.05,0,0,0-.05,1,4.18,4.18,0,0,0,.1,1.07,1.86,1.86,0,0,0,.42.88,1.25,1.25,0,0,0,.9.38,1.66,1.66,0,0,0,1.12-.28,2.37,2.37,0,0,0,.74-.83,5.59,5.59,0,0,0,.43-1.1,8.26,8.26,0,0,0,.21-1.11l.09-.9q0-.42.06-1a4.68,4.68,0,0,0-.11-1.07,1.89,1.89,0,0,0-.42-.89,1.21,1.21,0,0,0-.91-.39,1.77,1.77,0,0,0-1.09.3,2.35,2.35,0,0,0-.72.83A4.88,4.88,0,0,0,27,89.33,7,7,0,0,0,26.73,90.42Z"/><path class="cls-1" d="M37.75,87.7l-1.52,8.7H33.91l1.92-11.09H38Zm-.83,2.76h-.75a10.76,10.76,0,0,1,.36-1.85,7,7,0,0,1,.76-1.77,4.09,4.09,0,0,1,1.26-1.29,3.29,3.29,0,0,1,1.87-.46,2.36,2.36,0,0,1,1.28.38,2.34,2.34,0,0,1,.74,1,4,4,0,0,1,.31,1.25,7.39,7.39,0,0,1,0,1.33L41.51,96.4H39.18l1.2-7.17a4.89,4.89,0,0,0,0-.94,1.57,1.57,0,0,0-.27-.82,1,1,0,0,0-.84-.36,1.62,1.62,0,0,0-1.07.31,2.33,2.33,0,0,0-.69.85,5.13,5.13,0,0,0-.4,1.12A8.55,8.55,0,0,0,36.92,90.46Zm5.59-.64-1.07.27a8.75,8.75,0,0,1,.35-1.75,6.23,6.23,0,0,1,.76-1.63,3.82,3.82,0,0,1,1.22-1.18,3.14,3.14,0,0,1,1.76-.44,2.33,2.33,0,0,1,1.38.4,2.36,2.36,0,0,1,.78,1A4.26,4.26,0,0,1,48,87.8a7.71,7.71,0,0,1,0,1.44L46.78,96.4H44.44l1.2-7.18a5,5,0,0,0,0-1,1.45,1.45,0,0,0-.27-.81,1,1,0,0,0-.84-.33,1.35,1.35,0,0,0-.88.25,2.16,2.16,0,0,0-.6.67,4,4,0,0,0-.35.89C42.62,89.26,42.56,89.55,42.51,89.82Z"/><path class="cls-1" d="M49.68,91.31l.11-.88a8.4,8.4,0,0,1,.49-2,6.71,6.71,0,0,1,1-1.73,4.58,4.58,0,0,1,1.5-1.2,4.29,4.29,0,0,1,2-.41,3.4,3.4,0,0,1,1.83.5,3.21,3.21,0,0,1,1.14,1.23,5,5,0,0,1,.53,1.7,8,8,0,0,1,0,1.89l-.1.89a8.44,8.44,0,0,1-.49,2,6.33,6.33,0,0,1-1,1.72,4.54,4.54,0,0,1-1.49,1.2,4.25,4.25,0,0,1-2,.4,3.48,3.48,0,0,1-1.85-.49,3.28,3.28,0,0,1-1.13-1.24,5.14,5.14,0,0,1-.54-1.7A8.35,8.35,0,0,1,49.68,91.31Zm2.45-.89-.1.9c0,.28-.05.6-.06,1a4.68,4.68,0,0,0,.11,1.07,1.86,1.86,0,0,0,.42.88,1.25,1.25,0,0,0,.9.38,1.66,1.66,0,0,0,1.12-.28,2.37,2.37,0,0,0,.74-.83,5.59,5.59,0,0,0,.43-1.1,8.26,8.26,0,0,0,.21-1.11l.09-.9a9,9,0,0,0,0-1,4.18,4.18,0,0,0-.1-1.07,1.89,1.89,0,0,0-.42-.89,1.21,1.21,0,0,0-.91-.39,1.77,1.77,0,0,0-1.09.3,2.47,2.47,0,0,0-.73.83,5.35,5.35,0,0,0-.44,1.11A7,7,0,0,0,52.13,90.42Z"/><path class="cls-1" d="M70.52,91.43l.66,0a15.62,15.62,0,0,1-.33,1.8,6.75,6.75,0,0,1-.66,1.71A3.55,3.55,0,0,1,69,96.18a2.93,2.93,0,0,1-1.79.44,2.48,2.48,0,0,1-1.38-.41,2.31,2.31,0,0,1-.79-1,4.11,4.11,0,0,1-.31-1.33,8.27,8.27,0,0,1,0-1.41L66,85.31h2.33l-1.2,7.2a6.05,6.05,0,0,0,0,.63,2.39,2.39,0,0,0,.06.66,1.15,1.15,0,0,0,.27.54.79.79,0,0,0,.59.24,1.79,1.79,0,0,0,1.4-.45,2.87,2.87,0,0,0,.77-1.23A6.81,6.81,0,0,0,70.52,91.43Zm-.64,2.23,1.44-8.35h2.35L71.74,96.4H69.55Z"/><path class="cls-1" d="M77.83,87.81,76.35,96.4H74l1.93-11.09h2.19ZM77,90.47l-.64,0a10.84,10.84,0,0,1,.36-1.84,7.75,7.75,0,0,1,.76-1.77,4,4,0,0,1,1.25-1.31,3.07,3.07,0,0,1,1.84-.47,2.26,2.26,0,0,1,1.35.41,2.28,2.28,0,0,1,.73,1,4.37,4.37,0,0,1,.28,1.33,8.26,8.26,0,0,1,0,1.41L81.69,96.4H79.36l1.19-7.18a7.34,7.34,0,0,0,0-.94,1.66,1.66,0,0,0-.26-.82,1,1,0,0,0-.82-.33,1.55,1.55,0,0,0-1.08.3,2.65,2.65,0,0,0-.72.86,4.91,4.91,0,0,0-.46,1.11C77.12,89.79,77,90.15,77,90.47Z"/><path class="cls-1" d="M90.48,89.65l-.26,1.56h-1a3.24,3.24,0,0,0-.89.12,2.85,2.85,0,0,0-.78.39,2.24,2.24,0,0,0-.57.62,2.18,2.18,0,0,0-.29.87,2.09,2.09,0,0,0,0,.71,1,1,0,0,0,.29.53.9.9,0,0,0,.66.21,2.13,2.13,0,0,0,.88-.2,2.18,2.18,0,0,0,.75-.55,1.6,1.6,0,0,0,.38-.81l.4,1a4.56,4.56,0,0,1-.43,1,3.73,3.73,0,0,1-.65.82,3.32,3.32,0,0,1-.87.56,2.58,2.58,0,0,1-1,.19,2.78,2.78,0,0,1-1.55-.45,2.52,2.52,0,0,1-1-1.16,3.51,3.51,0,0,1-.27-1.6,3.76,3.76,0,0,1,.47-1.7,3.6,3.6,0,0,1,1.06-1.17,4.73,4.73,0,0,1,1.49-.69,6.69,6.69,0,0,1,1.74-.22Zm-1.09,4.5.88-5.55a3.19,3.19,0,0,0,0-.76,1,1,0,0,0-.29-.58,1,1,0,0,0-.7-.23,1.52,1.52,0,0,0-.79.19,1.61,1.61,0,0,0-.53.54,2.4,2.4,0,0,0-.27.75H85.36a3.4,3.4,0,0,1,.42-1.43A3.52,3.52,0,0,1,86.72,86,4.46,4.46,0,0,1,88,85.31a4.92,4.92,0,0,1,1.48-.23,3.62,3.62,0,0,1,1.81.47,2.59,2.59,0,0,1,1.07,1.24,3.79,3.79,0,0,1,.23,1.86l-.84,5.19q-.09.6-.12,1.2a4.26,4.26,0,0,0,.11,1.18l0,.18h-2.3a4.19,4.19,0,0,1-.13-1.12A8.49,8.49,0,0,1,89.39,94.15Z"/><path class="cls-1" d="M103.48,80.65,100.75,96.4H98.41l2.74-15.75Zm-2.07,9.82h-.69a13.2,13.2,0,0,1,.38-1.8,6.93,6.93,0,0,1,.75-1.77,4.25,4.25,0,0,1,1.23-1.33,3,3,0,0,1,1.8-.48,2.35,2.35,0,0,1,1.37.41,2.24,2.24,0,0,1,.77,1,4.59,4.59,0,0,1,.31,1.35,7.58,7.58,0,0,1,0,1.43l-1.18,7.11h-2.33L105,89.26a7.51,7.51,0,0,0,0-1,1.64,1.64,0,0,0-.26-.84.93.93,0,0,0-.83-.34,1.58,1.58,0,0,0-1.08.3,2.56,2.56,0,0,0-.73.86,5.35,5.35,0,0,0-.44,1.11A8.29,8.29,0,0,0,101.41,90.47Z"/><path class="cls-1" d="M112.66,96.61a4,4,0,0,1-1.86-.43,3.06,3.06,0,0,1-1.19-1.12,4.44,4.44,0,0,1-.58-1.6,7,7,0,0,1-.07-1.9l.13-1.06a10,10,0,0,1,.48-2,6.53,6.53,0,0,1,.94-1.75A4.4,4.4,0,0,1,112,85.52a4.27,4.27,0,0,1,2-.43,3.38,3.38,0,0,1,1.82.51,2.91,2.91,0,0,1,1,1.25,4.87,4.87,0,0,1,.4,1.7,10.65,10.65,0,0,1,0,1.87L117,91.63h-7l.33-1.82H115l.06-.27a6.44,6.44,0,0,0,0-1.08,1.81,1.81,0,0,0-.31-.94,1.15,1.15,0,0,0-.92-.44,1.75,1.75,0,0,0-1.13.29,2.17,2.17,0,0,0-.7.85,4.77,4.77,0,0,0-.38,1.14c-.08.39-.14.77-.18,1.13l-.13,1.07a7.25,7.25,0,0,0,0,1,3.34,3.34,0,0,0,.16,1,1.52,1.52,0,0,0,.51.73,1.63,1.63,0,0,0,1,.29,2.84,2.84,0,0,0,1.37-.29,4.85,4.85,0,0,0,1.16-.83l.92,1.49a3.59,3.59,0,0,1-1,.94,4.31,4.31,0,0,1-1.29.54A5.44,5.44,0,0,1,112.66,96.61Z"/><path class="cls-1" d="M121.92,87.57l-1.54,8.83h-2.33L120,85.31h2.21Zm2.94-2.34-.29,2.35-.43-.08a3.17,3.17,0,0,0-.43,0,2,2,0,0,0-1.67.78,3.49,3.49,0,0,0-.47.82,5.14,5.14,0,0,0-.3.94l-.5,0a14.12,14.12,0,0,1,.27-1.52,8.64,8.64,0,0,1,.55-1.65,3.62,3.62,0,0,1,1-1.3,2.13,2.13,0,0,1,1.5-.5l.41.06A3.48,3.48,0,0,1,124.86,85.23Z"/><path class="cls-1" d="M128.41,87.57l-1.54,8.83h-2.33l1.93-11.09h2.21Zm2.94-2.34-.29,2.35-.43-.08a3.17,3.17,0,0,0-.43,0,2.1,2.1,0,0,0-1,.2,2.07,2.07,0,0,0-.7.58,3.49,3.49,0,0,0-.47.82,7.35,7.35,0,0,0-.3.94l-.5,0a14.12,14.12,0,0,1,.27-1.52,8.64,8.64,0,0,1,.55-1.65,3.75,3.75,0,0,1,.95-1.3,2.13,2.13,0,0,1,1.5-.5,2.9,2.9,0,0,1,.41.06A3.06,3.06,0,0,1,131.35,85.23Z"/><path class="cls-1" d="M137.11,89.65l-.25,1.56h-1a3.3,3.3,0,0,0-.89.12,2.66,2.66,0,0,0-.77.39,2.24,2.24,0,0,0-.57.62,2.18,2.18,0,0,0-.29.87,2.1,2.1,0,0,0,0,.71,1,1,0,0,0,.29.53.93.93,0,0,0,.66.21,2.17,2.17,0,0,0,.89-.2,2.14,2.14,0,0,0,.74-.55,1.53,1.53,0,0,0,.38-.81l.4,1a4.52,4.52,0,0,1-.42,1,3.77,3.77,0,0,1-.66.82,3.32,3.32,0,0,1-.87.56,2.57,2.57,0,0,1-1,.19,2.81,2.81,0,0,1-1.56-.45,2.65,2.65,0,0,1-.95-1.16,3.38,3.38,0,0,1-.26-1.6,3.75,3.75,0,0,1,.46-1.7,3.63,3.63,0,0,1,1.07-1.17,4.53,4.53,0,0,1,1.49-.69,6.64,6.64,0,0,1,1.74-.22ZM136,94.15l.88-5.55a3.16,3.16,0,0,0,0-.76,1,1,0,0,0-.29-.58,1,1,0,0,0-.7-.23,1.52,1.52,0,0,0-.79.19,1.71,1.71,0,0,0-.53.54,2.4,2.4,0,0,0-.27.75H132a3.4,3.4,0,0,1,.42-1.43,3.62,3.62,0,0,1,.93-1.09,4.38,4.38,0,0,1,1.3-.69,4.87,4.87,0,0,1,1.48-.23,3.58,3.58,0,0,1,1.8.47A2.59,2.59,0,0,1,139,86.79a3.68,3.68,0,0,1,.23,1.86l-.84,5.19a9.73,9.73,0,0,0-.11,1.2,4.25,4.25,0,0,0,.1,1.18l0,.18h-2.29a4.19,4.19,0,0,1-.14-1.12A8.48,8.48,0,0,1,136,94.15Z"/><path class="cls-1" d="M144.15,87.7l-1.52,8.7H140.3l1.93-11.09h2.18Zm-.83,2.76h-.75a10.76,10.76,0,0,1,.36-1.85,6.67,6.67,0,0,1,.76-1.77A3.89,3.89,0,0,1,145,85.56a3.26,3.26,0,0,1,1.86-.46,2.08,2.08,0,0,1,2,1.33,4,4,0,0,1,.32,1.25,7.39,7.39,0,0,1,0,1.33L147.9,96.4h-2.33l1.2-7.17a4.87,4.87,0,0,0,0-.94,1.67,1.67,0,0,0-.28-.82,1,1,0,0,0-.84-.36,1.64,1.64,0,0,0-1.07.31,2.31,2.31,0,0,0-.68.85,5.15,5.15,0,0,0-.41,1.12A8.39,8.39,0,0,0,143.32,90.46Zm5.58-.64-1.06.27a8.71,8.71,0,0,1,.34-1.75,6.57,6.57,0,0,1,.76-1.63,3.85,3.85,0,0,1,1.23-1.18,3.1,3.1,0,0,1,1.75-.44,2.31,2.31,0,0,1,1.38.4,2.36,2.36,0,0,1,.78,1,4,4,0,0,1,.31,1.32,8.66,8.66,0,0,1,0,1.44l-1.19,7.16h-2.34l1.2-7.18a5,5,0,0,0,0-1,1.54,1.54,0,0,0-.28-.81,1,1,0,0,0-.83-.33,1.38,1.38,0,0,0-.89.25,2.13,2.13,0,0,0-.59.67,3.61,3.61,0,0,0-.36.89C149,89.26,149,89.55,148.9,89.82Z"/><path class="cls-1" d="M159.91,85.31,158,96.4h-2.34l1.93-11.09ZM158,82.44a1.4,1.4,0,0,1,.36-1,1.24,1.24,0,0,1,.94-.42,1.21,1.21,0,0,1,.92.37,1.34,1.34,0,0,1,.35,1,1.37,1.37,0,0,1-.36,1,1.25,1.25,0,0,1-.93.4,1.16,1.16,0,0,1-.92-.35A1.41,1.41,0,0,1,158,82.44Z"/><path class="cls-1" d="M164.7,96.61a4,4,0,0,1-1.86-.43,3.06,3.06,0,0,1-1.19-1.12,4.44,4.44,0,0,1-.58-1.6,7,7,0,0,1-.07-1.9l.13-1.06a10,10,0,0,1,.48-2,6.53,6.53,0,0,1,.94-1.75A4.4,4.4,0,0,1,164,85.52a4.27,4.27,0,0,1,2.05-.43,3.38,3.38,0,0,1,1.82.51,3,3,0,0,1,1,1.25,4.87,4.87,0,0,1,.4,1.7,10.65,10.65,0,0,1-.05,1.87l-.19,1.21h-7l.33-1.82H167l.05-.27a5.52,5.52,0,0,0,0-1.08,1.81,1.81,0,0,0-.31-.94,1.15,1.15,0,0,0-.92-.44,1.75,1.75,0,0,0-1.13.29,2.17,2.17,0,0,0-.7.85,4.77,4.77,0,0,0-.38,1.14c-.08.39-.14.77-.18,1.13l-.13,1.07a6,6,0,0,0,0,1,3.34,3.34,0,0,0,.16,1,1.52,1.52,0,0,0,.51.73,1.63,1.63,0,0,0,1,.29,2.84,2.84,0,0,0,1.37-.29,5.05,5.05,0,0,0,1.16-.83l.92,1.49a3.59,3.59,0,0,1-1,.94,4.31,4.31,0,0,1-1.29.54A5.44,5.44,0,0,1,164.7,96.61Z"/><path class="cls-1" d="M173.88,87.81,172.4,96.4h-2.35L172,85.31h2.19ZM173,90.47l-.64,0a10.84,10.84,0,0,1,.36-1.84,7.33,7.33,0,0,1,.76-1.77,3.92,3.92,0,0,1,1.25-1.31,3.07,3.07,0,0,1,1.84-.47,2.26,2.26,0,0,1,1.35.41,2.37,2.37,0,0,1,.73,1,4.37,4.37,0,0,1,.28,1.33,8.26,8.26,0,0,1,0,1.41l-1.19,7.15h-2.33l1.19-7.18a7.34,7.34,0,0,0,0-.94,1.57,1.57,0,0,0-.27-.82.93.93,0,0,0-.82-.33,1.54,1.54,0,0,0-1.07.3,2.8,2.8,0,0,0-.73.86,5.38,5.38,0,0,0-.45,1.11C173.17,89.79,173.09,90.15,173,90.47Z"/><path class="cls-1" d="M186.32,85.31,186,87.16H180.7l.33-1.85Zm-3.38-2.72h2.34l-1.83,10.75a3.27,3.27,0,0,0,0,.54.88.88,0,0,0,.13.45.56.56,0,0,0,.47.19l.35,0,.36-.06-.2,1.94a3.24,3.24,0,0,1-.66.18,3.94,3.94,0,0,1-.69,0,1.92,1.92,0,0,1-1.35-.47,2.3,2.3,0,0,1-.63-1.18,4.78,4.78,0,0,1-.08-1.47Z"/><path class="cls-1" d="M192.67,89.65l-.26,1.56h-1a3.24,3.24,0,0,0-.89.12,2.66,2.66,0,0,0-.77.39,2.14,2.14,0,0,0-.58.62,2.34,2.34,0,0,0-.27,1.58,1,1,0,0,0,.29.53.9.9,0,0,0,.66.21,2.17,2.17,0,0,0,.89-.2,2.24,2.24,0,0,0,.74-.55,1.6,1.6,0,0,0,.38-.81l.4,1a4.56,4.56,0,0,1-.43,1,3.73,3.73,0,0,1-.65.82,3.32,3.32,0,0,1-.87.56,2.58,2.58,0,0,1-1.05.19,2.8,2.8,0,0,1-1.55-.45,2.58,2.58,0,0,1-.95-1.16,3.38,3.38,0,0,1-.26-1.6,3.63,3.63,0,0,1,.46-1.7A3.72,3.72,0,0,1,188,90.55a4.68,4.68,0,0,1,1.5-.69,6.56,6.56,0,0,1,1.73-.22Zm-1.09,4.5.88-5.55a2.74,2.74,0,0,0,0-.76,1,1,0,0,0-.29-.58,1,1,0,0,0-.7-.23,1.52,1.52,0,0,0-.79.19,1.61,1.61,0,0,0-.53.54,2.4,2.4,0,0,0-.27.75h-2.32a3.4,3.4,0,0,1,.42-1.43,3.52,3.52,0,0,1,.94-1.09,4.46,4.46,0,0,1,1.29-.69,4.92,4.92,0,0,1,1.48-.23,3.59,3.59,0,0,1,1.81.47,2.59,2.59,0,0,1,1.07,1.24,3.79,3.79,0,0,1,.23,1.86L194,93.84q-.09.6-.12,1.2a4.68,4.68,0,0,0,.11,1.18l0,.18h-2.3a4.19,4.19,0,0,1-.13-1.12A10.52,10.52,0,0,1,191.58,94.15Z"/><path class="cls-1" d="M204.51,87.58l-2.27,13.09h-2.33l2.66-15.36h2.14Zm5.26,2.85-.1.86a11.53,11.53,0,0,1-.37,1.84,7.42,7.42,0,0,1-.76,1.75,3.81,3.81,0,0,1-1.23,1.29,3.14,3.14,0,0,1-1.85.44,2.27,2.27,0,0,1-1.5-.52,3.17,3.17,0,0,1-.87-1.26,6.36,6.36,0,0,1-.37-1.62,8.67,8.67,0,0,1,0-1.6l.17-1.34a14.4,14.4,0,0,1,.43-1.72,7.48,7.48,0,0,1,.78-1.7,4,4,0,0,1,1.2-1.28A2.79,2.79,0,0,1,207,85.1a2.69,2.69,0,0,1,1.7.53,2.85,2.85,0,0,1,.88,1.31,5.63,5.63,0,0,1,.28,1.72A12.72,12.72,0,0,1,209.77,90.43Zm-2.43.87.1-.89c0-.3.05-.63.07-1a4.71,4.71,0,0,0-.06-1.07,1.64,1.64,0,0,0-.4-.86,1.28,1.28,0,0,0-.93-.37,1.78,1.78,0,0,0-.93.21,2.55,2.55,0,0,0-.7.61,3.93,3.93,0,0,0-.49.84,5.13,5.13,0,0,0-.27.9l-.39,2.55a4.34,4.34,0,0,0,.12,1.07,2,2,0,0,0,.47.92,1.4,1.4,0,0,0,1,.4,1.72,1.72,0,0,0,1.13-.27,2.09,2.09,0,0,0,.7-.82,4.51,4.51,0,0,0,.4-1.1A8.58,8.58,0,0,0,207.34,91.3Z"/><path class="cls-1" d="M217.22,89.65,217,91.21h-1a3.24,3.24,0,0,0-.89.12,2.66,2.66,0,0,0-.77.39,2.14,2.14,0,0,0-.58.62,2.18,2.18,0,0,0-.29.87,2.09,2.09,0,0,0,0,.71,1,1,0,0,0,.29.53.9.9,0,0,0,.66.21,2.13,2.13,0,0,0,.88-.2,2.18,2.18,0,0,0,.75-.55,1.6,1.6,0,0,0,.38-.81l.4,1a4.56,4.56,0,0,1-.43,1,3.73,3.73,0,0,1-.65.82,3.32,3.32,0,0,1-.87.56,2.58,2.58,0,0,1-1,.19,2.78,2.78,0,0,1-1.55-.45A2.52,2.52,0,0,1,211.3,95a3.38,3.38,0,0,1-.26-1.6,3.57,3.57,0,0,1,1.52-2.87,4.73,4.73,0,0,1,1.49-.69,6.69,6.69,0,0,1,1.74-.22Zm-1.09,4.5L217,88.6a2.74,2.74,0,0,0,0-.76,1,1,0,0,0-.29-.58A1,1,0,0,0,216,87a1.52,1.52,0,0,0-.79.19,1.61,1.61,0,0,0-.53.54,2.4,2.4,0,0,0-.27.75H212.1a3.4,3.4,0,0,1,.42-1.43,3.52,3.52,0,0,1,.94-1.09,4.46,4.46,0,0,1,1.29-.69,4.92,4.92,0,0,1,1.48-.23,3.62,3.62,0,0,1,1.81.47,2.59,2.59,0,0,1,1.07,1.24,3.79,3.79,0,0,1,.23,1.86l-.84,5.19q-.09.6-.12,1.2a4.26,4.26,0,0,0,.11,1.18l0,.18h-2.3a4.19,4.19,0,0,1-.13-1.12A8.49,8.49,0,0,1,216.13,94.15Z"/><path class="cls-1" d="M224.26,87.57l-1.54,8.83H220.4l1.92-11.09h2.22Zm3-2.34-.29,2.35-.44-.08a3,3,0,0,0-.42,0,1.93,1.93,0,0,0-1.67.78,3.53,3.53,0,0,0-.48.82,6,6,0,0,0-.29.94l-.51,0c.06-.44.15-1,.28-1.52a8.61,8.61,0,0,1,.54-1.65,3.65,3.65,0,0,1,1-1.3,2.09,2.09,0,0,1,1.49-.5,2.7,2.7,0,0,1,.41.06A3.2,3.2,0,0,1,227.21,85.23Z"/><path class="cls-1" d="M233,89.65l-.26,1.56h-1a3.24,3.24,0,0,0-.89.12,2.66,2.66,0,0,0-.77.39,2.14,2.14,0,0,0-.58.62,2.18,2.18,0,0,0-.29.87,2.09,2.09,0,0,0,0,.71,1,1,0,0,0,.29.53.9.9,0,0,0,.66.21,2.13,2.13,0,0,0,.88-.2,2.18,2.18,0,0,0,.75-.55,1.6,1.6,0,0,0,.38-.81l.4,1a4.56,4.56,0,0,1-.43,1,3.73,3.73,0,0,1-.65.82,3.32,3.32,0,0,1-.87.56,2.58,2.58,0,0,1-1,.19,2.78,2.78,0,0,1-1.55-.45,2.52,2.52,0,0,1-.95-1.16,3.38,3.38,0,0,1-.26-1.6,3.57,3.57,0,0,1,1.52-2.87,4.73,4.73,0,0,1,1.49-.69,6.69,6.69,0,0,1,1.74-.22Zm-1.09,4.5.88-5.55a2.74,2.74,0,0,0,0-.76,1,1,0,0,0-.29-.58,1,1,0,0,0-.7-.23,1.52,1.52,0,0,0-.79.19,1.61,1.61,0,0,0-.53.54,2.4,2.4,0,0,0-.27.75h-2.32a3.4,3.4,0,0,1,.42-1.43,3.52,3.52,0,0,1,.94-1.09,4.46,4.46,0,0,1,1.29-.69,4.92,4.92,0,0,1,1.48-.23,3.62,3.62,0,0,1,1.81.47,2.59,2.59,0,0,1,1.07,1.24,3.79,3.79,0,0,1,.23,1.86l-.84,5.19q-.09.6-.12,1.2a4.26,4.26,0,0,0,.11,1.18l0,.18h-2.3a4.19,4.19,0,0,1-.13-1.12A8.49,8.49,0,0,1,231.88,94.15Z"/><path class="cls-1" d="M17.37,118.4H15l2.06-12.15a5.63,5.63,0,0,1,.6-2A3.62,3.62,0,0,1,19,102.91a3.5,3.5,0,0,1,2-.5q.31,0,.63.06c.2,0,.41.08.62.13l-.24,2-.37-.08a2.34,2.34,0,0,0-.38,0,1.56,1.56,0,0,0-.9.25,1.71,1.71,0,0,0-.56.66,2.85,2.85,0,0,0-.29.88Zm3.68-11.09-.34,1.85H15.29l.32-1.85Z"/><path class="cls-1" d="M21.46,113.31l.11-.88a8.4,8.4,0,0,1,.49-2,6.71,6.71,0,0,1,1-1.73,4.51,4.51,0,0,1,1.51-1.2,4.24,4.24,0,0,1,2-.41,3.46,3.46,0,0,1,1.83.5,3.18,3.18,0,0,1,1.13,1.23,5,5,0,0,1,.53,1.7,8,8,0,0,1,0,1.89l-.1.89a8.44,8.44,0,0,1-.49,2,6.33,6.33,0,0,1-1,1.72,4.44,4.44,0,0,1-1.49,1.2,4.23,4.23,0,0,1-2,.4,3.48,3.48,0,0,1-1.85-.49A3.37,3.37,0,0,1,22,116.88a4.91,4.91,0,0,1-.53-1.7A7.79,7.79,0,0,1,21.46,113.31Zm2.45-.89-.1.9a9.05,9.05,0,0,0,0,1,4.18,4.18,0,0,0,.1,1.07,2,2,0,0,0,.42.88,1.25,1.25,0,0,0,.9.38,1.66,1.66,0,0,0,1.12-.28,2.37,2.37,0,0,0,.74-.83,5,5,0,0,0,.43-1.1,8.26,8.26,0,0,0,.21-1.11l.1-.9c0-.28,0-.6,0-1a4.68,4.68,0,0,0-.11-1.07,1.89,1.89,0,0,0-.42-.89,1.21,1.21,0,0,0-.91-.39,1.77,1.77,0,0,0-1.09.3,2.35,2.35,0,0,0-.72.83,4.88,4.88,0,0,0-.45,1.11A7,7,0,0,0,23.91,112.42Z"/><path class="cls-1" d="M34.94,109.57,33.4,118.4H31.08L33,107.31h2.22Zm2.94-2.34-.28,2.35-.44-.08a3,3,0,0,0-.42,0,1.93,1.93,0,0,0-1.67.78,3.53,3.53,0,0,0-.48.82,6,6,0,0,0-.29.94l-.51,0c.06-.44.15-1,.28-1.52a8,8,0,0,1,.54-1.65,3.65,3.65,0,0,1,1-1.3,2.09,2.09,0,0,1,1.49-.5,2.7,2.7,0,0,1,.41.06A2.73,2.73,0,0,1,37.88,107.23Z"/><path class="cls-1" d="M44.37,107.31,44,109.16H38.75l.32-1.85ZM41,104.59h2.34l-1.83,10.75a4.89,4.89,0,0,0,0,.54.73.73,0,0,0,.13.45.56.56,0,0,0,.47.19l.34,0,.37-.06-.21,1.94a3.24,3.24,0,0,1-.66.18,3.82,3.82,0,0,1-.68,0,2,2,0,0,1-1.36-.47,2.28,2.28,0,0,1-.62-1.18,4.78,4.78,0,0,1-.08-1.47Z"/><path class="cls-1" d="M50.71,111.65l-.25,1.56h-1a3.3,3.3,0,0,0-.89.12,2.66,2.66,0,0,0-.77.39,2.24,2.24,0,0,0-.57.62,2.18,2.18,0,0,0-.29.87,2.1,2.1,0,0,0,0,.71,1,1,0,0,0,.29.53.93.93,0,0,0,.66.21,2.17,2.17,0,0,0,.89-.2,2.14,2.14,0,0,0,.74-.55,1.53,1.53,0,0,0,.38-.81l.4,1a4.52,4.52,0,0,1-.42,1,3.5,3.5,0,0,1-.66.82,3.16,3.16,0,0,1-.87.56,2.57,2.57,0,0,1-1,.19,2.75,2.75,0,0,1-1.55-.45,2.6,2.6,0,0,1-1-1.16,3.51,3.51,0,0,1-.26-1.6,3.75,3.75,0,0,1,.46-1.7,3.63,3.63,0,0,1,1.07-1.17,4.63,4.63,0,0,1,1.49-.69,6.69,6.69,0,0,1,1.74-.22Zm-1.08,4.5.88-5.55a2.72,2.72,0,0,0,0-.76,1,1,0,0,0-.28-.58,1,1,0,0,0-.71-.23,1.54,1.54,0,0,0-.79.19,1.58,1.58,0,0,0-.52.54,2.19,2.19,0,0,0-.28.75H45.6a3.4,3.4,0,0,1,.42-1.43A3.52,3.52,0,0,1,47,108a4.21,4.21,0,0,1,1.29-.69,4.87,4.87,0,0,1,1.48-.23,3.58,3.58,0,0,1,1.8.47,2.54,2.54,0,0,1,1.07,1.24,3.68,3.68,0,0,1,.23,1.86L52,115.84a8.13,8.13,0,0,0-.12,1.2,4.67,4.67,0,0,0,.1,1.18l0,.18H49.67a4.19,4.19,0,0,1-.14-1.12A8.48,8.48,0,0,1,49.63,116.15Z"/><path class="cls-1" d="M59.1,102.65,56.36,118.4H54l2.73-15.75Z"/><path class="cls-1" d="M63.08,118.61a4.05,4.05,0,0,1-1.86-.43A3.13,3.13,0,0,1,60,117.06a4.63,4.63,0,0,1-.58-1.6,7.46,7.46,0,0,1-.06-1.9l.12-1.06a10,10,0,0,1,.48-2,6.56,6.56,0,0,1,.95-1.75,4.21,4.21,0,0,1,1.46-1.22,4.26,4.26,0,0,1,2-.43,3.35,3.35,0,0,1,1.82.51,2.91,2.91,0,0,1,1,1.25,4.87,4.87,0,0,1,.4,1.7,9,9,0,0,1,0,1.87l-.18,1.21h-7l.33-1.82H65.4l0-.27a4.85,4.85,0,0,0,0-1.08,1.81,1.81,0,0,0-.3-.94,1.16,1.16,0,0,0-.93-.44,1.75,1.75,0,0,0-1.13.29,2.26,2.26,0,0,0-.7.85,5.26,5.26,0,0,0-.38,1.14c-.08.39-.14.77-.18,1.13l-.12,1.07a6.05,6.05,0,0,0-.06,1,3.71,3.71,0,0,0,.16,1,1.52,1.52,0,0,0,.51.73,1.66,1.66,0,0,0,1,.29,2.86,2.86,0,0,0,1.37-.29,5,5,0,0,0,1.15-.83L66.8,117a3.68,3.68,0,0,1-1,.94,4.48,4.48,0,0,1-1.3.54A5.39,5.39,0,0,1,63.08,118.61Z"/><path class="cls-1" d="M72.64,116.62a1.52,1.52,0,0,0,1-.25,1.72,1.72,0,0,0,.59-.71,3.82,3.82,0,0,0,.3-.94h2.2a4.81,4.81,0,0,1-.69,2,3.89,3.89,0,0,1-1.44,1.41,4,4,0,0,1-2,.5,3.65,3.65,0,0,1-1.86-.48,2.88,2.88,0,0,1-1.12-1.2,5,5,0,0,1-.49-1.67,8.14,8.14,0,0,1,0-1.91l.12-1a9.24,9.24,0,0,1,.48-2,5.72,5.72,0,0,1,.94-1.7A4.12,4.12,0,0,1,72,107.49a4.38,4.38,0,0,1,2-.39,3.24,3.24,0,0,1,2,.62,3.28,3.28,0,0,1,1,1.54,5.69,5.69,0,0,1,.25,2H75.13a5.41,5.41,0,0,0,0-1,1.74,1.74,0,0,0-.34-.85,1.15,1.15,0,0,0-.88-.37,1.8,1.8,0,0,0-1.12.27,2,2,0,0,0-.68.79,4.25,4.25,0,0,0-.38,1.07,9.72,9.72,0,0,0-.19,1.12l-.12,1c0,.29-.05.62-.08,1a5.39,5.39,0,0,0,0,1.07,1.58,1.58,0,0,0,.37.84A1.21,1.21,0,0,0,72.64,116.62Z"/><path class="cls-1" d="M82.13,118.61a4,4,0,0,1-1.85-.43,3,3,0,0,1-1.19-1.12,4.45,4.45,0,0,1-.59-1.6,7.46,7.46,0,0,1-.06-1.9l.12-1.06a10,10,0,0,1,.48-2,6.56,6.56,0,0,1,.95-1.75,4.21,4.21,0,0,1,1.46-1.22,4.27,4.27,0,0,1,2-.43,3.4,3.4,0,0,1,1.82.51,3,3,0,0,1,1,1.25,5.11,5.11,0,0,1,.4,1.7,9.78,9.78,0,0,1-.06,1.87l-.18,1.21h-7l.32-1.82h4.61l0-.27a5.52,5.52,0,0,0,0-1.08,1.91,1.91,0,0,0-.31-.94,1.16,1.16,0,0,0-.93-.44,1.77,1.77,0,0,0-1.13.29,2.36,2.36,0,0,0-.7.85,4.76,4.76,0,0,0-.37,1.14,9.87,9.87,0,0,0-.19,1.13l-.12,1.07a6.05,6.05,0,0,0-.06,1,3.34,3.34,0,0,0,.17,1,1.5,1.5,0,0,0,.5.73,1.66,1.66,0,0,0,1,.29,2.86,2.86,0,0,0,1.37-.29,4.8,4.8,0,0,0,1.15-.83l.92,1.49a3.55,3.55,0,0,1-1,.94,4.54,4.54,0,0,1-1.29.54A5.52,5.52,0,0,1,82.13,118.61Z"/><path class="cls-1" d="M91.39,109.57l-1.54,8.83H87.52l1.93-11.09h2.22Zm2.94-2.34-.28,2.35-.44-.08a3.17,3.17,0,0,0-.43,0,2.1,2.1,0,0,0-1,.2,2.29,2.29,0,0,0-.7.58,3.89,3.89,0,0,0-.47.82,6,6,0,0,0-.29.94l-.51,0c.06-.44.15-1,.27-1.52a8.64,8.64,0,0,1,.55-1.65,3.65,3.65,0,0,1,1-1.3,2.09,2.09,0,0,1,1.49-.5,2.7,2.7,0,0,1,.41.06A2.73,2.73,0,0,1,94.33,107.23Z"/><path class="cls-1" d="M104,102.65l-2.73,15.75H99l2.73-15.75Z"/><path class="cls-1" d="M110.23,111.65l-.26,1.56h-1a3.24,3.24,0,0,0-.89.12,2.72,2.72,0,0,0-.78.39,2.24,2.24,0,0,0-.57.62,2.18,2.18,0,0,0-.29.87,2.09,2.09,0,0,0,0,.71,1,1,0,0,0,.29.53.9.9,0,0,0,.66.21,2.13,2.13,0,0,0,.88-.2,2.28,2.28,0,0,0,.75-.55,1.6,1.6,0,0,0,.38-.81l.4,1a5.13,5.13,0,0,1-.43,1,3.5,3.5,0,0,1-.66.82,3.11,3.11,0,0,1-.86.56,2.58,2.58,0,0,1-1,.19,2.78,2.78,0,0,1-1.55-.45,2.6,2.6,0,0,1-1-1.16,3.65,3.65,0,0,1-.26-1.6,3.88,3.88,0,0,1,.46-1.7,3.75,3.75,0,0,1,1.07-1.17,4.73,4.73,0,0,1,1.49-.69,6.69,6.69,0,0,1,1.74-.22Zm-1.09,4.5.88-5.55a3.19,3.19,0,0,0,0-.76,1,1,0,0,0-.29-.58,1,1,0,0,0-.7-.23,1.52,1.52,0,0,0-.79.19,1.61,1.61,0,0,0-.53.54,2.17,2.17,0,0,0-.27.75h-2.32a3.4,3.4,0,0,1,.42-1.43,3.52,3.52,0,0,1,.94-1.09,4.33,4.33,0,0,1,1.29-.69,4.92,4.92,0,0,1,1.48-.23,3.65,3.65,0,0,1,1.81.47,2.59,2.59,0,0,1,1.07,1.24,3.79,3.79,0,0,1,.23,1.86l-.84,5.19q-.09.6-.12,1.2a4.26,4.26,0,0,0,.11,1.18l0,.18h-2.3a3.82,3.82,0,0,1-.13-1.12A7.11,7.11,0,0,1,109.14,116.15Z"/><path class="cls-1" d="M123.73,115.42a.92.92,0,0,0-.2-.77,2.42,2.42,0,0,0-.64-.54l-.72-.38a11.27,11.27,0,0,1-1-.56,4.6,4.6,0,0,1-.87-.68,2.46,2.46,0,0,1-.58-.88,2.52,2.52,0,0,1-.16-1.16,3.36,3.36,0,0,1,1.25-2.47,3.68,3.68,0,0,1,1.23-.67,5,5,0,0,1,1.44-.22,4,4,0,0,1,1.79.46,2.83,2.83,0,0,1,1.17,1.18,3.74,3.74,0,0,1,.39,1.81h-2.33a2.25,2.25,0,0,0-.08-.74,1.11,1.11,0,0,0-.35-.58,1.08,1.08,0,0,0-.73-.23,1.48,1.48,0,0,0-.73.16,1.49,1.49,0,0,0-.54.49,1.65,1.65,0,0,0-.27.7.86.86,0,0,0,.08.56,1.44,1.44,0,0,0,.36.42,3,3,0,0,0,.52.32l.5.24a12.61,12.61,0,0,1,1.41.79,3.35,3.35,0,0,1,1,1.06,2.51,2.51,0,0,1,.32,1.56,3.05,3.05,0,0,1-.39,1.44,3.36,3.36,0,0,1-.93,1,3.9,3.9,0,0,1-1.29.64,4.73,4.73,0,0,1-1.5.2,3.79,3.79,0,0,1-1.84-.49,3.13,3.13,0,0,1-1.25-1.25,3.75,3.75,0,0,1-.41-1.86h2.27a2.51,2.51,0,0,0,.1.88,1.09,1.09,0,0,0,.43.61,1.41,1.41,0,0,0,.85.23,2,2,0,0,0,.78-.16,1.36,1.36,0,0,0,.61-.44A1.48,1.48,0,0,0,123.73,115.42Z"/><path class="cls-1" d="M131.74,118.61a4.05,4.05,0,0,1-1.86-.43,3.13,3.13,0,0,1-1.19-1.12,4.63,4.63,0,0,1-.58-1.6,7.46,7.46,0,0,1-.06-1.9l.12-1.06a10,10,0,0,1,.48-2,6.56,6.56,0,0,1,.95-1.75,4.21,4.21,0,0,1,1.46-1.22,4.26,4.26,0,0,1,2-.43,3.35,3.35,0,0,1,1.82.51,2.91,2.91,0,0,1,1,1.25,4.87,4.87,0,0,1,.4,1.7,9,9,0,0,1,0,1.87l-.18,1.21h-7l.33-1.82h4.61l.05-.27a4.85,4.85,0,0,0,0-1.08,1.81,1.81,0,0,0-.3-.94,1.16,1.16,0,0,0-.93-.44,1.75,1.75,0,0,0-1.13.29,2.26,2.26,0,0,0-.7.85,5.26,5.26,0,0,0-.38,1.14c-.08.39-.14.77-.18,1.13l-.12,1.07a6.05,6.05,0,0,0-.06,1,3.71,3.71,0,0,0,.16,1,1.52,1.52,0,0,0,.51.73,1.66,1.66,0,0,0,1,.29,2.86,2.86,0,0,0,1.37-.29,5,5,0,0,0,1.15-.83l.92,1.49a3.68,3.68,0,0,1-1,.94,4.48,4.48,0,0,1-1.3.54A5.39,5.39,0,0,1,131.74,118.61Z"/><path class="cls-1" d="M144.77,107.31h2.14L145,118.45a6,6,0,0,1-.78,2.31,4.07,4.07,0,0,1-1.62,1.54,4.74,4.74,0,0,1-2.41.48,4.29,4.29,0,0,1-1.16-.17,5.58,5.58,0,0,1-1.13-.46,3.66,3.66,0,0,1-.92-.73l1-1.65a3.36,3.36,0,0,0,1,.76,2.66,2.66,0,0,0,1.21.29,2.32,2.32,0,0,0,1.27-.26,2.23,2.23,0,0,0,.81-.83,3.72,3.72,0,0,0,.39-1.22l1.49-8.81Zm-7.07,6,.1-.86a12.11,12.11,0,0,1,.39-1.9,7.43,7.43,0,0,1,.78-1.77,4,4,0,0,1,1.28-1.28,3.41,3.41,0,0,1,1.91-.45,2.34,2.34,0,0,1,1.54.56,3.12,3.12,0,0,1,.82,1.33,6.1,6.1,0,0,1,.31,1.67,11.2,11.2,0,0,1,0,1.64l-.16,1.21a11.77,11.77,0,0,1-.43,1.7,7.54,7.54,0,0,1-.77,1.68,4.3,4.3,0,0,1-1.19,1.28,2.81,2.81,0,0,1-1.7.47,2.64,2.64,0,0,1-1.66-.54,2.91,2.91,0,0,1-.9-1.31,5.91,5.91,0,0,1-.35-1.7A9.91,9.91,0,0,1,137.7,113.35Zm2.44-.9-.1.88c0,.3,0,.63-.07,1a4.53,4.53,0,0,0,.07,1,1.76,1.76,0,0,0,.42.84,1.24,1.24,0,0,0,.93.36,1.77,1.77,0,0,0,1.2-.33,2.78,2.78,0,0,0,.8-1,4.82,4.82,0,0,0,.44-1.18l.37-2.41a4.1,4.1,0,0,0,0-.85,2.69,2.69,0,0,0-.24-.82,1.61,1.61,0,0,0-.49-.63,1.44,1.44,0,0,0-.8-.27,1.8,1.8,0,0,0-1.14.27,2.23,2.23,0,0,0-.74.81,4.93,4.93,0,0,0-.42,1.09A10.3,10.3,0,0,0,140.14,112.45Z"/><path class="cls-1" d="M153.72,113.43l.66,0a15.62,15.62,0,0,1-.33,1.8,6.75,6.75,0,0,1-.66,1.71,3.55,3.55,0,0,1-1.16,1.27,2.93,2.93,0,0,1-1.79.44,2.48,2.48,0,0,1-1.38-.41,2.31,2.31,0,0,1-.79-1,4.39,4.39,0,0,1-.31-1.33,8.27,8.27,0,0,1,0-1.41l1.2-7.18h2.33l-1.2,7.2c0,.19,0,.4,0,.63a2.39,2.39,0,0,0,.06.66,1.15,1.15,0,0,0,.27.54.8.8,0,0,0,.59.24,1.79,1.79,0,0,0,1.4-.45,2.87,2.87,0,0,0,.77-1.23A6.81,6.81,0,0,0,153.72,113.43Zm-.64,2.23,1.44-8.35h2.35l-1.93,11.09h-2.19Z"/><path class="cls-1" d="M161.11,109.57l-1.54,8.83h-2.33l1.93-11.09h2.21Zm2.94-2.34-.29,2.35-.43-.08a3.17,3.17,0,0,0-.43,0,2,2,0,0,0-1.67.78,3.49,3.49,0,0,0-.47.82,6.05,6.05,0,0,0-.3.94l-.5,0a14.12,14.12,0,0,1,.27-1.52,8.64,8.64,0,0,1,.55-1.65,3.62,3.62,0,0,1,.95-1.3,2.13,2.13,0,0,1,1.5-.5,2.9,2.9,0,0,1,.41.06A3.06,3.06,0,0,1,164.05,107.23Z"/><path class="cls-1" d="M168.13,107.31,166.2,118.4h-2.33l1.92-11.09Zm-1.95-2.87a1.4,1.4,0,0,1,.36-1,1.24,1.24,0,0,1,1-.42,1.18,1.18,0,0,1,.91.37,1.35,1.35,0,0,1,.36,1,1.37,1.37,0,0,1-.36,1,1.26,1.26,0,0,1-.94.4,1.14,1.14,0,0,1-.91-.35A1.37,1.37,0,0,1,166.18,104.44Z"/><path class="cls-1" d="M169.19,113.31l.1-.86a12.85,12.85,0,0,1,.39-1.86,7.29,7.29,0,0,1,.75-1.76,4,4,0,0,1,1.26-1.28,3.36,3.36,0,0,1,1.89-.45,2.15,2.15,0,0,1,1.49.56,3.23,3.23,0,0,1,.84,1.35,6.59,6.59,0,0,1,.33,1.68,10.66,10.66,0,0,1,0,1.6l-.15,1.21a12.87,12.87,0,0,1-.42,1.68,7.29,7.29,0,0,1-.78,1.7,4.22,4.22,0,0,1-1.2,1.28,2.7,2.7,0,0,1-1.68.46,2.57,2.57,0,0,1-1.65-.55,2.94,2.94,0,0,1-.9-1.32,6,6,0,0,1-.31-1.71A10.94,10.94,0,0,1,169.19,113.31Zm2.45-.87-.09.89c0,.29-.07.62-.09,1a4.62,4.62,0,0,0,.06,1.06,1.85,1.85,0,0,0,.4.86,1.2,1.2,0,0,0,.92.35,1.72,1.72,0,0,0,1.16-.35,3,3,0,0,0,.78-1,4.94,4.94,0,0,0,.44-1.15l.36-2.41a4.82,4.82,0,0,0,0-.84,2.55,2.55,0,0,0-.22-.82,1.66,1.66,0,0,0-.47-.63,1.35,1.35,0,0,0-.79-.28,1.78,1.78,0,0,0-1.13.27,2.13,2.13,0,0,0-.7.81,4.44,4.44,0,0,0-.4,1.11A8.47,8.47,0,0,0,171.64,112.44Zm2.85,3.52,2.3-13.31h2.34L176.4,118.4h-2.11Z"/><path class="cls-1" d="M185.25,111.65l-.25,1.56h-1a3.22,3.22,0,0,0-.88.12,2.59,2.59,0,0,0-.78.39,2.24,2.24,0,0,0-.57.62,2.18,2.18,0,0,0-.29.87,2.09,2.09,0,0,0,0,.71,1,1,0,0,0,.28.53.93.93,0,0,0,.66.21,2.21,2.21,0,0,0,1.63-.75,1.46,1.46,0,0,0,.38-.81l.4,1a4.52,4.52,0,0,1-.42,1,3.5,3.5,0,0,1-.66.82,3.11,3.11,0,0,1-.86.56,2.61,2.61,0,0,1-1,.19,2.75,2.75,0,0,1-1.55-.45,2.6,2.6,0,0,1-1-1.16,3.51,3.51,0,0,1-.26-1.6,3.88,3.88,0,0,1,.46-1.7,3.75,3.75,0,0,1,1.07-1.17,4.63,4.63,0,0,1,1.49-.69,6.69,6.69,0,0,1,1.74-.22Zm-1.08,4.5.88-5.55a2.72,2.72,0,0,0,0-.76,1,1,0,0,0-.28-.58A1,1,0,0,0,184,109a1.48,1.48,0,0,0-.78.19,1.61,1.61,0,0,0-.53.54,2,2,0,0,0-.27.75h-2.32a3.4,3.4,0,0,1,.42-1.43,3.52,3.52,0,0,1,.94-1.09,4.21,4.21,0,0,1,1.29-.69,4.87,4.87,0,0,1,1.48-.23,3.65,3.65,0,0,1,1.81.47,2.64,2.64,0,0,1,1.07,1.24,3.79,3.79,0,0,1,.23,1.86l-.84,5.19a9.75,9.75,0,0,0-.12,1.2,4.26,4.26,0,0,0,.11,1.18l0,.18h-2.3a3.82,3.82,0,0,1-.13-1.12A7.11,7.11,0,0,1,184.17,116.15Z"/><path class="cls-1" d="M189,113.31l.1-.86a12.85,12.85,0,0,1,.39-1.86,7.29,7.29,0,0,1,.75-1.76,4,4,0,0,1,1.26-1.28,3.35,3.35,0,0,1,1.88-.45,2.16,2.16,0,0,1,1.5.56,3.23,3.23,0,0,1,.84,1.35,6.59,6.59,0,0,1,.33,1.68,10.66,10.66,0,0,1,0,1.6l-.15,1.21a12.87,12.87,0,0,1-.42,1.68,7.72,7.72,0,0,1-.78,1.7,4.22,4.22,0,0,1-1.2,1.28,2.7,2.7,0,0,1-1.68.46,2.57,2.57,0,0,1-1.65-.55,2.94,2.94,0,0,1-.9-1.32,6.39,6.39,0,0,1-.32-1.71A12.23,12.23,0,0,1,189,113.31Zm2.45-.87-.09.89c0,.29-.07.62-.09,1a4.62,4.62,0,0,0,.06,1.06,2,2,0,0,0,.39.86,1.24,1.24,0,0,0,.93.35,1.72,1.72,0,0,0,1.16-.35,3,3,0,0,0,.78-1,4.94,4.94,0,0,0,.44-1.15l.36-2.41a4.82,4.82,0,0,0,0-.84,2.55,2.55,0,0,0-.22-.82,1.66,1.66,0,0,0-.47-.63,1.35,1.35,0,0,0-.79-.28,1.78,1.78,0,0,0-1.13.27,2.13,2.13,0,0,0-.7.81,4.44,4.44,0,0,0-.4,1.11A7.09,7.09,0,0,0,191.42,112.44Zm2.85,3.52,2.29-13.31h2.35l-2.74,15.75h-2.1Z"/><path class="cls-1" d="M206.15,117.06l4-9.75h2.55L207,120.1a8.35,8.35,0,0,1-.53,1,4.84,4.84,0,0,1-.69.91,3.56,3.56,0,0,1-.9.65,2.66,2.66,0,0,1-1.15.24,2.8,2.8,0,0,1-.57-.08l-.56-.13.22-1.93.16,0h.18a1.71,1.71,0,0,0,.9-.15,2,2,0,0,0,.65-.54,3.59,3.59,0,0,0,.47-.79Zm.7-9.75.44,8.38,0,2.59-1.62.41-1.23-11.38Z"/><path class="cls-1" d="M222.16,102.65l-2.74,15.75h-2.34l2.74-15.75Z"/><path class="cls-1" d="M228.36,111.65l-.26,1.56h-1a3.3,3.3,0,0,0-.89.12,2.66,2.66,0,0,0-.77.39,2.28,2.28,0,0,0-.58.62,2.18,2.18,0,0,0-.28.87,2.1,2.1,0,0,0,0,.71,1,1,0,0,0,.29.53.93.93,0,0,0,.66.21,2.17,2.17,0,0,0,.89-.2,2.14,2.14,0,0,0,.74-.55,1.53,1.53,0,0,0,.38-.81l.4,1a4.52,4.52,0,0,1-.42,1,3.77,3.77,0,0,1-.66.82,3.32,3.32,0,0,1-.87.56,2.57,2.57,0,0,1-1,.19,2.81,2.81,0,0,1-1.56-.45,2.65,2.65,0,0,1-.95-1.16,3.38,3.38,0,0,1-.26-1.6,3.75,3.75,0,0,1,.46-1.7,3.63,3.63,0,0,1,1.07-1.17,4.53,4.53,0,0,1,1.49-.69,6.59,6.59,0,0,1,1.74-.22Zm-1.09,4.5.89-5.55a3.16,3.16,0,0,0,0-.76,1,1,0,0,0-.29-.58,1,1,0,0,0-.7-.23,1.52,1.52,0,0,0-.79.19,1.71,1.71,0,0,0-.53.54,2.4,2.4,0,0,0-.27.75h-2.31a3.4,3.4,0,0,1,.42-1.43,3.48,3.48,0,0,1,.93-1.09,4.38,4.38,0,0,1,1.3-.69,4.82,4.82,0,0,1,1.48-.23,3.58,3.58,0,0,1,1.8.47,2.59,2.59,0,0,1,1.07,1.24,3.68,3.68,0,0,1,.23,1.86l-.84,5.19a9.73,9.73,0,0,0-.11,1.2,4.25,4.25,0,0,0,.1,1.18l0,.18h-2.29a3.83,3.83,0,0,1-.14-1.12A10.52,10.52,0,0,1,227.27,116.15Z"/><path class="cls-1" d="M18.49,138.62a1.52,1.52,0,0,0,1-.25,1.72,1.72,0,0,0,.59-.71,3.82,3.82,0,0,0,.3-.94h2.19a4.67,4.67,0,0,1-.68,2,3.89,3.89,0,0,1-1.44,1.41,4,4,0,0,1-2,.5,3.65,3.65,0,0,1-1.86-.48,2.88,2.88,0,0,1-1.12-1.2,5,5,0,0,1-.49-1.67,8.14,8.14,0,0,1,0-1.91l.12-1a9.24,9.24,0,0,1,.48-2,5.7,5.7,0,0,1,.93-1.7,4.25,4.25,0,0,1,1.46-1.17,4.33,4.33,0,0,1,2-.39,3.24,3.24,0,0,1,1.95.62,3.28,3.28,0,0,1,1.05,1.54,5.69,5.69,0,0,1,.25,2.05H21a6.5,6.5,0,0,0-.05-1,1.74,1.74,0,0,0-.34-.85,1.15,1.15,0,0,0-.88-.37,1.78,1.78,0,0,0-1.12.27,2,2,0,0,0-.68.79,4.25,4.25,0,0,0-.38,1.07,9.72,9.72,0,0,0-.19,1.12l-.12,1c0,.29,0,.62-.08,1a4.73,4.73,0,0,0,0,1.07,1.58,1.58,0,0,0,.37.84A1.21,1.21,0,0,0,18.49,138.62Z"/><path class="cls-1" d="M24.28,135.31l.11-.88a8.4,8.4,0,0,1,.49-2,6.71,6.71,0,0,1,1-1.73,4.58,4.58,0,0,1,1.5-1.2,4.31,4.31,0,0,1,2-.41,3.46,3.46,0,0,1,1.83.5,3.26,3.26,0,0,1,1.13,1.23,5,5,0,0,1,.53,1.7,8,8,0,0,1,0,1.89l-.1.89a8.44,8.44,0,0,1-.49,2,6.33,6.33,0,0,1-1,1.72,4.54,4.54,0,0,1-1.49,1.2,4.25,4.25,0,0,1-2,.4,3.48,3.48,0,0,1-1.85-.49,3.37,3.37,0,0,1-1.13-1.24,5.14,5.14,0,0,1-.54-1.7A8.35,8.35,0,0,1,24.28,135.31Zm2.45-.89-.1.9a9.05,9.05,0,0,0-.05,1,4.18,4.18,0,0,0,.1,1.07,1.86,1.86,0,0,0,.42.88,1.25,1.25,0,0,0,.9.38,1.66,1.66,0,0,0,1.12-.28,2.37,2.37,0,0,0,.74-.83,5.59,5.59,0,0,0,.43-1.1,8.26,8.26,0,0,0,.21-1.11l.09-.9q0-.42.06-1a4.68,4.68,0,0,0-.11-1.07,1.89,1.89,0,0,0-.42-.89,1.21,1.21,0,0,0-.91-.39,1.77,1.77,0,0,0-1.09.3,2.35,2.35,0,0,0-.72.83,4.88,4.88,0,0,0-.45,1.11A7,7,0,0,0,26.73,134.42Z"/><path class="cls-1" d="M37.69,131.81,36.2,140.4H33.86l1.92-11.09H38Zm-.85,2.66-.65,0a12,12,0,0,1,.37-1.84,7.33,7.33,0,0,1,.76-1.77,3.92,3.92,0,0,1,1.25-1.31,3.07,3.07,0,0,1,1.84-.47,2.28,2.28,0,0,1,1.35.41,2.37,2.37,0,0,1,.73,1,4.37,4.37,0,0,1,.28,1.33,11,11,0,0,1,0,1.41l-1.19,7.15H39.22l1.19-7.18a5.89,5.89,0,0,0,0-.94,1.48,1.48,0,0,0-.26-.82.94.94,0,0,0-.82-.33,1.54,1.54,0,0,0-1.07.3,2.8,2.8,0,0,0-.73.86,5.38,5.38,0,0,0-.45,1.11A9.45,9.45,0,0,0,36.84,134.47Z"/><path class="cls-1" d="M46.89,140.4H44.56l2.06-12.15a5.63,5.63,0,0,1,.6-2,3.7,3.7,0,0,1,1.27-1.39,3.5,3.5,0,0,1,2-.5q.32,0,.63.06c.21,0,.41.08.62.13l-.24,2-.37-.08a2.34,2.34,0,0,0-.38,0,1.51,1.51,0,0,0-.89.25,1.65,1.65,0,0,0-.57.66,2.85,2.85,0,0,0-.29.88Zm3.68-11.09-.34,1.85H44.81l.33-1.85Z"/><path class="cls-1" d="M54.82,129.31,52.89,140.4H50.55l1.93-11.09Zm-2-2.87a1.4,1.4,0,0,1,.36-1,1.29,1.29,0,0,1,1.86,0,1.46,1.46,0,0,1,0,1.91,1.25,1.25,0,0,1-.93.4,1.16,1.16,0,0,1-.92-.35A1.36,1.36,0,0,1,52.87,126.44Z"/><path class="cls-1" d="M61.83,133.65l-.26,1.56h-1a3.24,3.24,0,0,0-.89.12,2.66,2.66,0,0,0-.77.39,2.14,2.14,0,0,0-.58.62,2.18,2.18,0,0,0-.28.87,2.1,2.1,0,0,0,0,.71,1,1,0,0,0,.29.53.92.92,0,0,0,.66.21,2.17,2.17,0,0,0,.89-.2,2.24,2.24,0,0,0,.74-.55,1.6,1.6,0,0,0,.38-.81l.4,1a4.56,4.56,0,0,1-.43,1,3.73,3.73,0,0,1-.65.82,3.32,3.32,0,0,1-.87.56,2.58,2.58,0,0,1-1.05.19,2.8,2.8,0,0,1-1.55-.45,2.58,2.58,0,0,1-1-1.16,3.38,3.38,0,0,1-.26-1.6,3.63,3.63,0,0,1,.46-1.7,3.72,3.72,0,0,1,1.06-1.17,4.68,4.68,0,0,1,1.5-.69,6.56,6.56,0,0,1,1.73-.22Zm-1.09,4.5.88-5.55a2.74,2.74,0,0,0,0-.76,1,1,0,0,0-.29-.58,1,1,0,0,0-.7-.23,1.52,1.52,0,0,0-.79.19,1.61,1.61,0,0,0-.53.54,2.4,2.4,0,0,0-.27.75H56.71a3.4,3.4,0,0,1,.42-1.43,3.52,3.52,0,0,1,.94-1.09,4.46,4.46,0,0,1,1.29-.69,4.92,4.92,0,0,1,1.48-.23,3.59,3.59,0,0,1,1.81.47,2.59,2.59,0,0,1,1.07,1.24,3.79,3.79,0,0,1,.23,1.86l-.84,5.19q-.09.6-.12,1.2a4.68,4.68,0,0,0,.11,1.18l0,.18h-2.3a4.19,4.19,0,0,1-.13-1.12A10.52,10.52,0,0,1,60.74,138.15Z"/><path class="cls-1" d="M68.8,131.81l-1.48,8.59H65l1.92-11.09h2.2ZM68,134.47l-.65,0a12,12,0,0,1,.37-1.84,7.33,7.33,0,0,1,.76-1.77,3.92,3.92,0,0,1,1.25-1.31,3.07,3.07,0,0,1,1.84-.47,2.26,2.26,0,0,1,1.35.41,2.37,2.37,0,0,1,.73,1,4.37,4.37,0,0,1,.28,1.33,9.43,9.43,0,0,1,0,1.41l-1.19,7.15H70.33l1.19-7.18a7.34,7.34,0,0,0,0-.94,1.57,1.57,0,0,0-.27-.82.93.93,0,0,0-.82-.33,1.54,1.54,0,0,0-1.07.3,2.8,2.8,0,0,0-.73.86,5.38,5.38,0,0,0-.45,1.11C68.09,133.79,68,134.15,68,134.47Z"/><path class="cls-1" d="M83.59,131l-7.35,9.41H74.66l.3-1.73,7.31-9.36h1.62Zm-1.15,7.4-.36,2H75.37l.36-2Zm.55-9.08-.36,2H76.3l.36-2Z"/><path class="cls-1" d="M90.54,133.65l-.26,1.56h-1a3.3,3.3,0,0,0-.89.12,2.66,2.66,0,0,0-.77.39,2.14,2.14,0,0,0-.58.62,2.18,2.18,0,0,0-.28.87,2.1,2.1,0,0,0,0,.71,1,1,0,0,0,.29.53.93.93,0,0,0,.66.21,2.17,2.17,0,0,0,.89-.2,2.24,2.24,0,0,0,.74-.55,1.6,1.6,0,0,0,.38-.81l.4,1a4.56,4.56,0,0,1-.43,1,3.73,3.73,0,0,1-.65.82,3.32,3.32,0,0,1-.87.56,2.58,2.58,0,0,1-1,.19,2.8,2.8,0,0,1-1.55-.45,2.58,2.58,0,0,1-.95-1.16,3.38,3.38,0,0,1-.26-1.6,3.63,3.63,0,0,1,.46-1.7,3.72,3.72,0,0,1,1.06-1.17,4.68,4.68,0,0,1,1.5-.69,6.59,6.59,0,0,1,1.74-.22Zm-1.09,4.5.88-5.55a2.74,2.74,0,0,0,0-.76,1,1,0,0,0-.29-.58,1,1,0,0,0-.7-.23,1.52,1.52,0,0,0-.79.19,1.71,1.71,0,0,0-.53.54,2.4,2.4,0,0,0-.27.75H85.42a3.4,3.4,0,0,1,.42-1.43,3.65,3.65,0,0,1,.94-1.09,4.46,4.46,0,0,1,1.29-.69,4.94,4.94,0,0,1,1.49-.23,3.58,3.58,0,0,1,1.8.47,2.59,2.59,0,0,1,1.07,1.24,3.79,3.79,0,0,1,.23,1.86l-.84,5.19q-.09.6-.12,1.2a4.68,4.68,0,0,0,.11,1.18l0,.18h-2.3a4.19,4.19,0,0,1-.13-1.12A10.52,10.52,0,0,1,89.45,138.15Z"/><path class="cls-1" d="M99.05,135.31l.1-.86a16.24,16.24,0,0,1,.39-1.86,6.94,6.94,0,0,1,.76-1.76,3.76,3.76,0,0,1,1.26-1.28,3.3,3.3,0,0,1,1.88-.45,2.19,2.19,0,0,1,1.5.56,3.31,3.31,0,0,1,.83,1.35,7.05,7.05,0,0,1,.34,1.68,10.66,10.66,0,0,1,0,1.6L106,135.5a12.87,12.87,0,0,1-.42,1.68,7.29,7.29,0,0,1-.78,1.7,4.22,4.22,0,0,1-1.2,1.28,2.7,2.7,0,0,1-1.68.46,2.57,2.57,0,0,1-1.65-.55,2.85,2.85,0,0,1-.89-1.32A6,6,0,0,1,99,137,12.28,12.28,0,0,1,99.05,135.31Zm2.45-.87-.09.89c0,.29-.06.62-.08,1a4.62,4.62,0,0,0,.06,1.06,1.75,1.75,0,0,0,.39.86,1.22,1.22,0,0,0,.92.35,1.71,1.71,0,0,0,1.16-.35,3,3,0,0,0,.78-1,4.53,4.53,0,0,0,.44-1.15l.37-2.41a6,6,0,0,0,0-.84,3.2,3.2,0,0,0-.22-.82,1.58,1.58,0,0,0-.48-.63,1.32,1.32,0,0,0-.79-.28,1.75,1.75,0,0,0-1.12.27,2.15,2.15,0,0,0-.71.81,4.87,4.87,0,0,0-.4,1.11A10.5,10.5,0,0,0,101.5,134.44Zm2.85,3.52,2.3-13.31H109l-2.74,15.75h-2.1Z"/><path class="cls-1" d="M115.06,135.43l.65,0a13.66,13.66,0,0,1-.32,1.8,6.77,6.77,0,0,1-.67,1.71,3.52,3.52,0,0,1-1.15,1.27,3,3,0,0,1-1.79.44,2.49,2.49,0,0,1-1.39-.41,2.22,2.22,0,0,1-.78-1,4.12,4.12,0,0,1-.32-1.33,8.26,8.26,0,0,1,0-1.41l1.19-7.18h2.33l-1.2,7.2q0,.28,0,.63a3.52,3.52,0,0,0,.06.66,1.08,1.08,0,0,0,.28.54.79.79,0,0,0,.59.24,1.78,1.78,0,0,0,1.39-.45,2.89,2.89,0,0,0,.78-1.23A7.45,7.45,0,0,0,115.06,135.43Zm-.65,2.23,1.45-8.35h2.35l-1.93,11.09h-2.2Z"/><path class="cls-1" d="M122.44,131.57l-1.54,8.83h-2.33l1.93-11.09h2.22Zm2.94-2.34-.28,2.35-.44-.08a3.17,3.17,0,0,0-.43,0,2.1,2.1,0,0,0-1,.2,2.18,2.18,0,0,0-.7.58,3.49,3.49,0,0,0-.47.82,7.35,7.35,0,0,0-.3.94l-.5,0c.06-.44.15-.95.27-1.52a8.64,8.64,0,0,1,.55-1.65,3.65,3.65,0,0,1,1-1.3,2.09,2.09,0,0,1,1.49-.5,2.7,2.7,0,0,1,.41.06A2.73,2.73,0,0,1,125.38,129.23Z"/><path class="cls-1" d="M131.15,133.65l-.26,1.56h-1a3.22,3.22,0,0,0-.88.12,2.72,2.72,0,0,0-.78.39,2.24,2.24,0,0,0-.57.62,2.18,2.18,0,0,0-.29.87,2.09,2.09,0,0,0,0,.71,1,1,0,0,0,.28.53.94.94,0,0,0,.67.21,2.13,2.13,0,0,0,.88-.2,2.28,2.28,0,0,0,.75-.55,1.6,1.6,0,0,0,.38-.81l.39,1a4.52,4.52,0,0,1-.42,1,3.5,3.5,0,0,1-.66.82,3.11,3.11,0,0,1-.86.56,2.58,2.58,0,0,1-1,.19,2.75,2.75,0,0,1-1.55-.45,2.6,2.6,0,0,1-1-1.16,3.65,3.65,0,0,1-.26-1.6,3.88,3.88,0,0,1,.46-1.7,3.75,3.75,0,0,1,1.07-1.17,4.63,4.63,0,0,1,1.49-.69,6.69,6.69,0,0,1,1.74-.22Zm-1.09,4.5.88-5.55a2.72,2.72,0,0,0,0-.76,1,1,0,0,0-.28-.58,1,1,0,0,0-.7-.23,1.49,1.49,0,0,0-.79.19,1.61,1.61,0,0,0-.53.54,2,2,0,0,0-.27.75H126a3.4,3.4,0,0,1,.42-1.43,3.52,3.52,0,0,1,.94-1.09,4.21,4.21,0,0,1,1.29-.69,4.87,4.87,0,0,1,1.48-.23,3.65,3.65,0,0,1,1.81.47,2.59,2.59,0,0,1,1.07,1.24,3.79,3.79,0,0,1,.23,1.86l-.84,5.19q-.09.6-.12,1.2a4.26,4.26,0,0,0,.11,1.18l0,.18h-2.3a3.82,3.82,0,0,1-.13-1.12A7.11,7.11,0,0,1,130.06,138.15Z"/><path class="cls-1" d="M138.12,131.81l-1.49,8.59h-2.35l1.93-11.09h2.2Zm-.85,2.66-.65,0a10,10,0,0,1,.37-1.84,7.72,7.72,0,0,1,.75-1.77,4.05,4.05,0,0,1,1.26-1.31,3.05,3.05,0,0,1,1.84-.47,2.25,2.25,0,0,1,1.34.41,2.31,2.31,0,0,1,.74,1,4.37,4.37,0,0,1,.27,1.33,8.26,8.26,0,0,1,0,1.41L142,140.4h-2.32l1.19-7.18a7.35,7.35,0,0,0,0-.94,1.56,1.56,0,0,0-.26-.82.94.94,0,0,0-.82-.33,1.54,1.54,0,0,0-1.07.3,2.8,2.8,0,0,0-.73.86,5.41,5.41,0,0,0-.46,1.11A9.25,9.25,0,0,0,137.27,134.47Z"/><path class="cls-1" d="M150.56,129.31l-.33,1.85h-5.29l.33-1.85Zm-3.39-2.72h2.34l-1.82,10.75a3.27,3.27,0,0,0,0,.54.8.8,0,0,0,.13.45.56.56,0,0,0,.47.19l.34,0,.37-.06-.21,1.94a3.24,3.24,0,0,1-.66.18,3.82,3.82,0,0,1-.68,0,1.92,1.92,0,0,1-1.35-.47,2.23,2.23,0,0,1-.63-1.18,4.78,4.78,0,0,1-.08-1.47Z"/><path class="cls-1" d="M154.68,140.61a4.05,4.05,0,0,1-1.86-.43,3.13,3.13,0,0,1-1.19-1.12,4.63,4.63,0,0,1-.58-1.6,7.46,7.46,0,0,1-.06-1.9l.12-1.06a10,10,0,0,1,.48-2,6.29,6.29,0,0,1,.95-1.75,4.12,4.12,0,0,1,3.5-1.65,3.38,3.38,0,0,1,1.82.51,2.91,2.91,0,0,1,1,1.25,4.87,4.87,0,0,1,.4,1.7,9.77,9.77,0,0,1,0,1.87l-.18,1.21h-7l.33-1.82H157l.05-.27a5.53,5.53,0,0,0,0-1.08,1.81,1.81,0,0,0-.3-.94,1.19,1.19,0,0,0-.93-.44,1.75,1.75,0,0,0-1.13.29,2.17,2.17,0,0,0-.7.85,4.77,4.77,0,0,0-.38,1.14c-.08.39-.14.77-.18,1.13l-.13,1.07a7.25,7.25,0,0,0-.05,1,3.34,3.34,0,0,0,.16,1,1.52,1.52,0,0,0,.51.73,1.64,1.64,0,0,0,1,.29,2.82,2.82,0,0,0,1.36-.29,4.85,4.85,0,0,0,1.16-.83l.92,1.49a3.68,3.68,0,0,1-1,.94,4.48,4.48,0,0,1-1.3.54A5.44,5.44,0,0,1,154.68,140.61Z"/><path class="cls-1" d="M170.08,124.65l-2.74,15.75H165l2.74-15.75Z"/><path class="cls-1" d="M176.28,133.65l-.25,1.56h-1a3.3,3.3,0,0,0-.89.12,2.66,2.66,0,0,0-.77.39,2.24,2.24,0,0,0-.57.62,2.18,2.18,0,0,0-.29.87,2.39,2.39,0,0,0,0,.71,1,1,0,0,0,.29.53.93.93,0,0,0,.66.21,2.17,2.17,0,0,0,.89-.2,2.14,2.14,0,0,0,.74-.55,1.46,1.46,0,0,0,.38-.81l.4,1a4.52,4.52,0,0,1-.42,1,3.5,3.5,0,0,1-.66.82,3.27,3.27,0,0,1-.86.56,2.65,2.65,0,0,1-1,.19,2.75,2.75,0,0,1-1.55-.45,2.6,2.6,0,0,1-1-1.16,3.51,3.51,0,0,1-.26-1.6,3.75,3.75,0,0,1,.46-1.7,3.63,3.63,0,0,1,1.07-1.17,4.63,4.63,0,0,1,1.49-.69,6.69,6.69,0,0,1,1.74-.22Zm-1.08,4.5.88-5.55a2.72,2.72,0,0,0,0-.76,1,1,0,0,0-.28-.58,1,1,0,0,0-.71-.23,1.54,1.54,0,0,0-.79.19,1.58,1.58,0,0,0-.52.54,2.19,2.19,0,0,0-.28.75h-2.31a3.4,3.4,0,0,1,.42-1.43,3.52,3.52,0,0,1,.94-1.09,4.21,4.21,0,0,1,1.29-.69,4.87,4.87,0,0,1,1.48-.23,3.58,3.58,0,0,1,1.8.47,2.54,2.54,0,0,1,1.07,1.24,3.79,3.79,0,0,1,.24,1.86l-.84,5.19a8.13,8.13,0,0,0-.12,1.2,4.67,4.67,0,0,0,.1,1.18l0,.18h-2.29a4.19,4.19,0,0,1-.14-1.12A8.48,8.48,0,0,1,175.2,138.15Z"/><path class="cls-1" d="M18.59,162.61a4.05,4.05,0,0,1-1.86-.43,3.13,3.13,0,0,1-1.19-1.12,4.44,4.44,0,0,1-.58-1.6,6.64,6.64,0,0,1-.06-1.9L15,156.5a10,10,0,0,1,.48-2,6.53,6.53,0,0,1,.94-1.75,4.33,4.33,0,0,1,1.47-1.22,4.23,4.23,0,0,1,2-.43,3.38,3.38,0,0,1,1.82.51,2.91,2.91,0,0,1,1,1.25,4.87,4.87,0,0,1,.4,1.7,9.77,9.77,0,0,1-.05,1.87L23,157.63H16l.33-1.82h4.61l.05-.27a5.53,5.53,0,0,0,0-1.08,1.73,1.73,0,0,0-.31-.94,1.15,1.15,0,0,0-.92-.44,1.75,1.75,0,0,0-1.13.29,2.17,2.17,0,0,0-.7.85,4.77,4.77,0,0,0-.38,1.14c-.08.39-.14.77-.18,1.13l-.13,1.07a7.25,7.25,0,0,0,0,1,3.34,3.34,0,0,0,.16,1,1.52,1.52,0,0,0,.51.73,1.63,1.63,0,0,0,1,.29,2.84,2.84,0,0,0,1.37-.29,4.85,4.85,0,0,0,1.16-.83l.92,1.49a3.59,3.59,0,0,1-1,.94,4.31,4.31,0,0,1-1.29.54A5.44,5.44,0,0,1,18.59,162.61Z"/><path class="cls-1" d="M27.67,151.31l.9,3.61,2.11-3.61h2.63l-3.58,5.57,1.84,5.52H29.13l-1-3.78L26,162.4H23.29L27,156.64l-1.78-5.33Z"/><path class="cls-1" d="M36.94,153.58l-2.27,13.09H32.34L35,151.31h2.14Zm5.26,2.85-.1.86a11.53,11.53,0,0,1-.37,1.84,7.85,7.85,0,0,1-.76,1.75,3.81,3.81,0,0,1-1.23,1.29,3.14,3.14,0,0,1-1.85.44,2.27,2.27,0,0,1-1.5-.52,3.17,3.17,0,0,1-.87-1.26,6.36,6.36,0,0,1-.37-1.62,8.67,8.67,0,0,1,0-1.6l.17-1.34a14.4,14.4,0,0,1,.43-1.72,7.48,7.48,0,0,1,.78-1.7,4,4,0,0,1,1.2-1.28,2.79,2.79,0,0,1,1.71-.47,2.69,2.69,0,0,1,1.7.53,2.85,2.85,0,0,1,.88,1.31,5.63,5.63,0,0,1,.28,1.72A12.72,12.72,0,0,1,42.2,156.43Zm-2.43.87.1-.89c0-.3.05-.63.07-1a4.71,4.71,0,0,0-.06-1.07,1.64,1.64,0,0,0-.4-.86,1.28,1.28,0,0,0-.93-.37,1.78,1.78,0,0,0-.93.21,2.55,2.55,0,0,0-.7.61,3.93,3.93,0,0,0-.49.84,5.13,5.13,0,0,0-.27.9l-.39,2.55a4.34,4.34,0,0,0,.12,1.07,1.88,1.88,0,0,0,.47.92,1.4,1.4,0,0,0,1,.4,1.68,1.68,0,0,0,1.12-.27,2,2,0,0,0,.71-.82,4.51,4.51,0,0,0,.4-1.1A8.58,8.58,0,0,0,39.77,157.3Z"/><path class="cls-1" d="M47.42,162.61a4,4,0,0,1-1.85-.43,3,3,0,0,1-1.19-1.12,4.45,4.45,0,0,1-.59-1.6,7.46,7.46,0,0,1-.06-1.9l.12-1.06a9.36,9.36,0,0,1,.49-2,6.26,6.26,0,0,1,.94-1.75,4.13,4.13,0,0,1,3.51-1.65,3.4,3.4,0,0,1,1.82.51,3,3,0,0,1,1,1.25,5.11,5.11,0,0,1,.4,1.7,10.65,10.65,0,0,1,0,1.87l-.19,1.21h-7l.33-1.82h4.6l0-.27a5.52,5.52,0,0,0,0-1.08,1.91,1.91,0,0,0-.31-.94,1.16,1.16,0,0,0-.93-.44,1.77,1.77,0,0,0-1.13.29,2.24,2.24,0,0,0-.69.85,4.37,4.37,0,0,0-.38,1.14,9.87,9.87,0,0,0-.19,1.13l-.12,1.07a6.05,6.05,0,0,0-.06,1,3.34,3.34,0,0,0,.17,1,1.57,1.57,0,0,0,.5.73,1.66,1.66,0,0,0,1,.29,2.86,2.86,0,0,0,1.37-.29,4.8,4.8,0,0,0,1.15-.83l.92,1.49a3.55,3.55,0,0,1-1,.94,4.42,4.42,0,0,1-1.29.54A5.52,5.52,0,0,1,47.42,162.61Z"/><path class="cls-1" d="M56.68,153.57l-1.54,8.83H52.82l1.92-11.09H57Zm2.94-2.34-.28,2.35-.44-.08a3.1,3.1,0,0,0-.42,0,2.15,2.15,0,0,0-1,.2,2.29,2.29,0,0,0-.7.58,3.89,3.89,0,0,0-.47.82A6,6,0,0,0,56,156l-.51,0c.06-.44.15-.95.27-1.52a8.64,8.64,0,0,1,.55-1.65,3.65,3.65,0,0,1,1-1.3,2.09,2.09,0,0,1,1.49-.5,2.7,2.7,0,0,1,.41.06A2.73,2.73,0,0,1,59.62,151.23Z"/><path class="cls-1" d="M63.71,151.31,61.78,162.4H59.44l1.93-11.09Zm-2-2.87a1.4,1.4,0,0,1,.36-1,1.24,1.24,0,0,1,.94-.42,1.21,1.21,0,0,1,.92.37,1.46,1.46,0,0,1,0,1.91,1.25,1.25,0,0,1-.93.4,1.16,1.16,0,0,1-.92-.35A1.36,1.36,0,0,1,61.76,148.44Z"/><path class="cls-1" d="M68.49,162.61a4,4,0,0,1-1.85-.43,3.06,3.06,0,0,1-1.19-1.12,4.44,4.44,0,0,1-.58-1.6,7,7,0,0,1-.07-1.9l.13-1.06a9.34,9.34,0,0,1,.48-2,6.53,6.53,0,0,1,.94-1.75,4.4,4.4,0,0,1,1.46-1.22,4.27,4.27,0,0,1,2-.43,3.38,3.38,0,0,1,1.82.51,3,3,0,0,1,1,1.25,5.11,5.11,0,0,1,.4,1.7,10.65,10.65,0,0,1,0,1.87l-.19,1.21h-7l.33-1.82h4.6l0-.27a5.52,5.52,0,0,0,0-1.08,1.91,1.91,0,0,0-.31-.94,1.16,1.16,0,0,0-.93-.44,1.74,1.74,0,0,0-1.12.29,2.17,2.17,0,0,0-.7.85,4.77,4.77,0,0,0-.38,1.14c-.08.39-.14.77-.19,1.13l-.12,1.07a6.05,6.05,0,0,0-.06,1,3.71,3.71,0,0,0,.17,1,1.52,1.52,0,0,0,.51.73,1.63,1.63,0,0,0,1,.29,2.84,2.84,0,0,0,1.37-.29,4.8,4.8,0,0,0,1.15-.83l.93,1.49a3.72,3.72,0,0,1-1,.94,4.31,4.31,0,0,1-1.29.54A5.47,5.47,0,0,1,68.49,162.61Z"/><path class="cls-1" d="M77.68,153.81,76.2,162.4H73.85l1.92-11.09H78Zm-.85,2.66-.65,0a12,12,0,0,1,.37-1.84,7.33,7.33,0,0,1,.76-1.77,3.92,3.92,0,0,1,1.25-1.31,3.07,3.07,0,0,1,1.84-.47,2.26,2.26,0,0,1,1.35.41,2.37,2.37,0,0,1,.73,1,4.37,4.37,0,0,1,.28,1.33,9.43,9.43,0,0,1,0,1.41l-1.19,7.15H79.21l1.19-7.18a7.34,7.34,0,0,0,0-.94,1.57,1.57,0,0,0-.27-.82.93.93,0,0,0-.82-.33,1.54,1.54,0,0,0-1.07.3,2.8,2.8,0,0,0-.73.86,5.38,5.38,0,0,0-.45,1.11C77,155.79,76.89,156.15,76.83,156.47Z"/><path class="cls-1" d="M88,160.62a1.52,1.52,0,0,0,1-.25,1.72,1.72,0,0,0,.59-.71,3.82,3.82,0,0,0,.3-.94H92a5,5,0,0,1-.68,2,3.93,3.93,0,0,1-3.5,1.91,3.68,3.68,0,0,1-1.86-.48,2.8,2.8,0,0,1-1.11-1.2,4.78,4.78,0,0,1-.5-1.67,8.14,8.14,0,0,1,0-1.91l.12-1a9.24,9.24,0,0,1,.48-2,5.72,5.72,0,0,1,.94-1.7,4.12,4.12,0,0,1,1.45-1.17,4.38,4.38,0,0,1,2-.39,3.24,3.24,0,0,1,1.95.62,3.28,3.28,0,0,1,1.05,1.54,5.69,5.69,0,0,1,.25,2.05H90.49a5.41,5.41,0,0,0,0-1,1.74,1.74,0,0,0-.34-.85,1.13,1.13,0,0,0-.88-.37,1.77,1.77,0,0,0-1.11.27,2,2,0,0,0-.69.79,4.25,4.25,0,0,0-.38,1.07,9.72,9.72,0,0,0-.19,1.12l-.11,1c0,.29-.06.62-.09,1a5.39,5.39,0,0,0,0,1.07,1.66,1.66,0,0,0,.37.84A1.21,1.21,0,0,0,88,160.62Z"/><path class="cls-1" d="M97.63,151.31,95.7,162.4H93.36l1.93-11.09Zm-1.95-2.87a1.4,1.4,0,0,1,.36-1,1.24,1.24,0,0,1,.94-.42,1.21,1.21,0,0,1,.92.37,1.46,1.46,0,0,1,0,1.91,1.25,1.25,0,0,1-.93.4,1.16,1.16,0,0,1-.92-.35A1.36,1.36,0,0,1,95.68,148.44Z"/><path class="cls-1" d="M104.64,155.65l-.26,1.56h-1a3.24,3.24,0,0,0-.89.12,2.66,2.66,0,0,0-.77.39,2.14,2.14,0,0,0-.58.62,2.18,2.18,0,0,0-.28.87,2.1,2.1,0,0,0,0,.71,1,1,0,0,0,.29.53.92.92,0,0,0,.66.21,2.17,2.17,0,0,0,.89-.2,2.24,2.24,0,0,0,.74-.55,1.6,1.6,0,0,0,.38-.81l.4,1a4.56,4.56,0,0,1-.43,1,3.73,3.73,0,0,1-.65.82,3.32,3.32,0,0,1-.87.56,2.58,2.58,0,0,1-1,.19,2.8,2.8,0,0,1-1.55-.45,2.58,2.58,0,0,1-1-1.16,3.38,3.38,0,0,1-.26-1.6,3.63,3.63,0,0,1,.46-1.7,3.72,3.72,0,0,1,1.06-1.17,4.68,4.68,0,0,1,1.5-.69,6.56,6.56,0,0,1,1.73-.22Zm-1.09,4.5.88-5.55a2.74,2.74,0,0,0,0-.76,1,1,0,0,0-.29-.58,1,1,0,0,0-.7-.23,1.52,1.52,0,0,0-.79.19,1.71,1.71,0,0,0-.53.54,2.4,2.4,0,0,0-.27.75H99.52a3.4,3.4,0,0,1,.42-1.43,3.65,3.65,0,0,1,.94-1.09,4.46,4.46,0,0,1,1.29-.69,4.94,4.94,0,0,1,1.49-.23,3.58,3.58,0,0,1,1.8.47,2.59,2.59,0,0,1,1.07,1.24,3.79,3.79,0,0,1,.23,1.86l-.84,5.19q-.09.6-.12,1.2a4.68,4.68,0,0,0,.11,1.18l0,.18h-2.3a4.19,4.19,0,0,1-.13-1.12A10.52,10.52,0,0,1,103.55,160.15Z"/><path class="cls-1" d="M118.9,151.31l-.32,1.85h-5.3l.33-1.85Zm-3.38-2.72h2.34L116,159.34a2.45,2.45,0,0,0,0,.54.79.79,0,0,0,.12.45.58.58,0,0,0,.48.19l.34,0,.36-.06-.2,1.94a3.24,3.24,0,0,1-.66.18,3.88,3.88,0,0,1-.68,0,2,2,0,0,1-1.36-.47,2.28,2.28,0,0,1-.62-1.18,4.78,4.78,0,0,1-.09-1.47Z"/><path class="cls-1" d="M125.19,157.43l.66,0a15.62,15.62,0,0,1-.33,1.8,6.75,6.75,0,0,1-.66,1.71,3.55,3.55,0,0,1-1.16,1.27,2.93,2.93,0,0,1-1.79.44,2.49,2.49,0,0,1-1.39-.41,2.29,2.29,0,0,1-.78-1,4.11,4.11,0,0,1-.31-1.33,7.36,7.36,0,0,1,0-1.41l1.2-7.18H123l-1.19,7.2c0,.19,0,.4,0,.63a2.84,2.84,0,0,0,.07.66,1,1,0,0,0,.27.54.79.79,0,0,0,.59.24,1.82,1.82,0,0,0,1.4-.45,3,3,0,0,0,.77-1.23A7.45,7.45,0,0,0,125.19,157.43Zm-.65,2.23,1.45-8.35h2.35l-1.93,11.09h-2.2Z"/><path class="cls-1" d="M132.57,153.57,131,162.4h-2.32l1.92-11.09h2.22Zm2.94-2.34-.28,2.35-.44-.08a3,3,0,0,0-.42,0,1.93,1.93,0,0,0-1.67.78,3.53,3.53,0,0,0-.48.82,6,6,0,0,0-.29.94l-.51,0c.06-.44.15-.95.28-1.52a8,8,0,0,1,.54-1.65,3.65,3.65,0,0,1,1-1.3,2.09,2.09,0,0,1,1.49-.5,2.7,2.7,0,0,1,.41.06A2.73,2.73,0,0,1,135.51,151.23Z"/><path class="cls-1" d="M139.64,151.31l-1.93,11.09h-2.33l1.92-11.09Zm-2.17-1.46,2.43-3.09h2.89l-3.21,3.09Z"/><path class="cls-1" d="M145.81,159.42a.92.92,0,0,0-.2-.77,2.31,2.31,0,0,0-.65-.54l-.71-.38a10.08,10.08,0,0,1-1-.56,5,5,0,0,1-.88-.68,2.57,2.57,0,0,1-.57-.88,2.52,2.52,0,0,1-.16-1.16,3.36,3.36,0,0,1,1.25-2.47,3.68,3.68,0,0,1,1.23-.67,4.92,4.92,0,0,1,1.44-.22,4,4,0,0,1,1.79.46,2.83,2.83,0,0,1,1.17,1.18,3.74,3.74,0,0,1,.39,1.81h-2.33a2.25,2.25,0,0,0-.08-.74,1.11,1.11,0,0,0-.35-.58,1.08,1.08,0,0,0-.73-.23,1.48,1.48,0,0,0-.73.16,1.49,1.49,0,0,0-.54.49,1.65,1.65,0,0,0-.27.7.86.86,0,0,0,.08.56,1.3,1.3,0,0,0,.36.42,3,3,0,0,0,.52.32l.5.24a13.57,13.57,0,0,1,1.41.79,3.35,3.35,0,0,1,1,1.06,2.58,2.58,0,0,1,.32,1.56,3.05,3.05,0,0,1-.39,1.44,3.36,3.36,0,0,1-.93,1.05,3.9,3.9,0,0,1-1.29.64,4.76,4.76,0,0,1-1.5.2,3.86,3.86,0,0,1-1.85-.49,3.17,3.17,0,0,1-1.24-1.25,3.65,3.65,0,0,1-.41-1.86h2.26a2.5,2.5,0,0,0,.11.88,1.09,1.09,0,0,0,.43.61,1.41,1.41,0,0,0,.85.23,2,2,0,0,0,.78-.16,1.36,1.36,0,0,0,.61-.44A1.48,1.48,0,0,0,145.81,159.42Z"/><path class="cls-1" d="M155.84,151.31l-.33,1.85h-5.29l.33-1.85Zm-3.38-2.72h2.33L153,159.34a3.27,3.27,0,0,0,0,.54.88.88,0,0,0,.13.45.56.56,0,0,0,.47.19,2,2,0,0,0,.34,0l.37-.06-.21,1.94a3.08,3.08,0,0,1-.66.18,3.82,3.82,0,0,1-.68,0,1.92,1.92,0,0,1-1.35-.47,2.23,2.23,0,0,1-.63-1.18,4.78,4.78,0,0,1-.08-1.47Z"/><path class="cls-1" d="M160.09,151.31l-1.92,11.09h-2.34l1.93-11.09Zm-1.94-2.87a1.4,1.4,0,0,1,.36-1,1.29,1.29,0,0,1,1.86-.05,1.46,1.46,0,0,1,0,1.91,1.25,1.25,0,0,1-.93.4,1.16,1.16,0,0,1-.92-.35A1.31,1.31,0,0,1,158.15,148.44Z"/><path class="cls-1" d="M164.78,160.62a1.52,1.52,0,0,0,.95-.25,1.65,1.65,0,0,0,.59-.71,4.32,4.32,0,0,0,.31-.94h2.19a5,5,0,0,1-.68,2,3.93,3.93,0,0,1-3.49,1.91,3.72,3.72,0,0,1-1.87-.48,2.86,2.86,0,0,1-1.11-1.2,4.77,4.77,0,0,1-.49-1.67,8.13,8.13,0,0,1,0-1.91l.12-1a9.24,9.24,0,0,1,.48-2,5.72,5.72,0,0,1,.94-1.7,4.16,4.16,0,0,1,1.46-1.17,4.33,4.33,0,0,1,2-.39,3.23,3.23,0,0,1,1.94.62,3.14,3.14,0,0,1,1.05,1.54,5.69,5.69,0,0,1,.26,2.05h-2.2a5.4,5.4,0,0,0,0-1,1.75,1.75,0,0,0-.35-.85,1.13,1.13,0,0,0-.88-.37,1.77,1.77,0,0,0-1.11.27,2.12,2.12,0,0,0-.69.79,4.68,4.68,0,0,0-.38,1.07c-.08.39-.15.76-.19,1.12l-.11,1c0,.29-.06.62-.08,1a4.74,4.74,0,0,0,0,1.07,1.59,1.59,0,0,0,.38.84A1.2,1.2,0,0,0,164.78,160.62Z"/><path class="cls-1" d="M176.5,155.65l-.26,1.56h-1a3.3,3.3,0,0,0-.89.12,2.66,2.66,0,0,0-.77.39,2.28,2.28,0,0,0-.58.62,2.18,2.18,0,0,0-.28.87,2.1,2.1,0,0,0,0,.71,1,1,0,0,0,.29.53.93.93,0,0,0,.66.21,2.17,2.17,0,0,0,.89-.2,2.14,2.14,0,0,0,.74-.55,1.53,1.53,0,0,0,.38-.81l.4,1a4.52,4.52,0,0,1-.42,1,4.09,4.09,0,0,1-.66.82,3.32,3.32,0,0,1-.87.56,2.57,2.57,0,0,1-1,.19,2.81,2.81,0,0,1-1.56-.45,2.65,2.65,0,0,1-.95-1.16,3.38,3.38,0,0,1-.26-1.6,3.75,3.75,0,0,1,.46-1.7,3.63,3.63,0,0,1,1.07-1.17,4.53,4.53,0,0,1,1.49-.69,6.59,6.59,0,0,1,1.74-.22Zm-1.09,4.5.89-5.55a3.16,3.16,0,0,0,0-.76,1,1,0,0,0-.29-.58,1,1,0,0,0-.7-.23,1.52,1.52,0,0,0-.79.19,1.71,1.71,0,0,0-.53.54,2.4,2.4,0,0,0-.27.75h-2.32a3.72,3.72,0,0,1,.42-1.43,3.65,3.65,0,0,1,.94-1.09,4.38,4.38,0,0,1,1.3-.69,4.82,4.82,0,0,1,1.48-.23,3.58,3.58,0,0,1,1.8.47,2.59,2.59,0,0,1,1.07,1.24,3.68,3.68,0,0,1,.23,1.86l-.84,5.19a9.73,9.73,0,0,0-.11,1.2,4.25,4.25,0,0,0,.1,1.18l0,.18h-2.29a3.83,3.83,0,0,1-.14-1.12A10.52,10.52,0,0,1,175.41,160.15Z"/><path class="cls-1" d="M180.08,161.19a1.37,1.37,0,0,1,.39-1,1.46,1.46,0,0,1,1-.42,1.36,1.36,0,0,1,1,.37,1.3,1.3,0,0,1,.4,1,1.37,1.37,0,0,1-.39,1,1.57,1.57,0,0,1-1,.42,1.4,1.4,0,0,1-1-.37A1.27,1.27,0,0,1,180.08,161.19Z"/><path class="cls-1" d="M188.71,146.65l-.23,1.45a5.79,5.79,0,0,1-.41,1.42,6.5,6.5,0,0,1-.73,1.28,6.42,6.42,0,0,1-1,1.09l-1.17-.82a12.06,12.06,0,0,0,.78-1.41,7,7,0,0,0,.49-1.53l.25-1.48Zm3,0-.24,1.45a5.77,5.77,0,0,1-.4,1.42,7,7,0,0,1-.73,1.28,6.42,6.42,0,0,1-1,1.09l-1.18-.82a12.06,12.06,0,0,0,.78-1.41,6.51,6.51,0,0,0,.49-1.53l.26-1.48Z"/><path class="cls-1" d="M18.55,169.47l1.12,12.27v2.66H17.93l-2-14.93Zm.77,12.05,4.9-12.05H27L20.29,184.4H18.42Z"/><path class="cls-1" d="M32,177.65l-.26,1.56h-1a3.24,3.24,0,0,0-.89.12,2.66,2.66,0,0,0-.77.39,2.14,2.14,0,0,0-.58.62,2.18,2.18,0,0,0-.28.87,2.1,2.1,0,0,0,0,.71,1,1,0,0,0,.29.53.9.9,0,0,0,.66.21,2.17,2.17,0,0,0,.89-.2,2.24,2.24,0,0,0,.74-.55,1.6,1.6,0,0,0,.38-.81l.4,1a4.56,4.56,0,0,1-.43,1,3.73,3.73,0,0,1-.65.82,3.32,3.32,0,0,1-.87.56,2.58,2.58,0,0,1-1.05.19,2.8,2.8,0,0,1-1.55-.45A2.58,2.58,0,0,1,26,183a3.38,3.38,0,0,1-.26-1.6,3.63,3.63,0,0,1,.46-1.7,3.72,3.72,0,0,1,1.06-1.17,4.68,4.68,0,0,1,1.5-.69,6.56,6.56,0,0,1,1.73-.22Zm-1.09,4.5.88-5.55a2.74,2.74,0,0,0,0-.76,1,1,0,0,0-.29-.58,1,1,0,0,0-.7-.23,1.52,1.52,0,0,0-.79.19,1.61,1.61,0,0,0-.53.54,2.4,2.4,0,0,0-.27.75H26.84a3.4,3.4,0,0,1,.42-1.43A3.52,3.52,0,0,1,28.2,174a4.46,4.46,0,0,1,1.29-.69,4.92,4.92,0,0,1,1.48-.23,3.59,3.59,0,0,1,1.81.47,2.59,2.59,0,0,1,1.07,1.24,3.79,3.79,0,0,1,.23,1.86l-.84,5.19q-.09.6-.12,1.2a4.68,4.68,0,0,0,.11,1.18l0,.18h-2.3a4.19,4.19,0,0,1-.13-1.12A10.52,10.52,0,0,1,30.87,182.15Z"/><path class="cls-1" d="M40.35,168.65,37.61,184.4H35.27L38,168.65Z"/><path class="cls-1" d="M44.33,184.61a4,4,0,0,1-1.86-.43,3.06,3.06,0,0,1-1.19-1.12,4.44,4.44,0,0,1-.58-1.6,7,7,0,0,1-.07-1.9l.13-1.06a10,10,0,0,1,.48-2,6.53,6.53,0,0,1,.94-1.75,4.4,4.4,0,0,1,1.46-1.22,4.27,4.27,0,0,1,2-.43,3.38,3.38,0,0,1,1.82.51,3,3,0,0,1,1,1.25,4.87,4.87,0,0,1,.4,1.7,10.65,10.65,0,0,1,0,1.87l-.19,1.21h-7l.33-1.82h4.6l0-.27a5.52,5.52,0,0,0,0-1.08,1.81,1.81,0,0,0-.31-.94,1.15,1.15,0,0,0-.92-.44,1.75,1.75,0,0,0-1.13.29,2.17,2.17,0,0,0-.7.85,4.77,4.77,0,0,0-.38,1.14c-.08.39-.14.77-.18,1.13L43,179.57a6,6,0,0,0,0,1,3.34,3.34,0,0,0,.16,1,1.52,1.52,0,0,0,.51.73,1.63,1.63,0,0,0,1,.29,2.84,2.84,0,0,0,1.37-.29,4.8,4.8,0,0,0,1.15-.83l.93,1.49a3.59,3.59,0,0,1-1,.94,4.31,4.31,0,0,1-1.29.54A5.44,5.44,0,0,1,44.33,184.61Z"/><path class="cls-1" d="M53.51,175.81,52,184.4H49.68l1.93-11.09H53.8Zm-.85,2.66-.64,0a10.84,10.84,0,0,1,.36-1.84,7.33,7.33,0,0,1,.76-1.77,3.92,3.92,0,0,1,1.25-1.31,3.07,3.07,0,0,1,1.84-.47,2.26,2.26,0,0,1,1.35.41,2.37,2.37,0,0,1,.73,1,4.37,4.37,0,0,1,.28,1.33,8.26,8.26,0,0,1,0,1.41l-1.19,7.15H55l1.19-7.18a7.34,7.34,0,0,0,0-.94,1.57,1.57,0,0,0-.27-.82.93.93,0,0,0-.82-.33,1.54,1.54,0,0,0-1.07.3,2.8,2.8,0,0,0-.73.86,5.38,5.38,0,0,0-.45,1.11C52.8,177.79,52.72,178.15,52.66,178.47Z"/><path class="cls-1" d="M63.83,182.62a1.52,1.52,0,0,0,1-.25,1.65,1.65,0,0,0,.59-.71,3.82,3.82,0,0,0,.3-.94h2.2a5,5,0,0,1-.68,2,3.93,3.93,0,0,1-3.49,1.91,3.69,3.69,0,0,1-1.87-.48,2.8,2.8,0,0,1-1.11-1.2,5,5,0,0,1-.5-1.67,8.14,8.14,0,0,1,0-1.91l.12-1a9.24,9.24,0,0,1,.48-2,5.72,5.72,0,0,1,.94-1.7,4.12,4.12,0,0,1,1.45-1.17,4.38,4.38,0,0,1,2-.39,3.24,3.24,0,0,1,1.95.62,3.28,3.28,0,0,1,1.05,1.54,5.69,5.69,0,0,1,.25,2.05H66.32a5.41,5.41,0,0,0,0-1,1.65,1.65,0,0,0-.34-.85,1.13,1.13,0,0,0-.88-.37,1.77,1.77,0,0,0-1.11.27,2.12,2.12,0,0,0-.69.79,4.68,4.68,0,0,0-.38,1.07,9.72,9.72,0,0,0-.19,1.12l-.11,1c0,.29-.06.62-.08,1a4.74,4.74,0,0,0,0,1.07,1.59,1.59,0,0,0,.38.84A1.18,1.18,0,0,0,63.83,182.62Z"/><path class="cls-1" d="M73.46,173.31,71.53,184.4H69.19l1.93-11.09Zm-1.95-2.87a1.4,1.4,0,0,1,.36-1,1.24,1.24,0,0,1,.94-.42,1.21,1.21,0,0,1,.92.37,1.46,1.46,0,0,1,0,1.91,1.25,1.25,0,0,1-.93.4,1.16,1.16,0,0,1-.92-.35A1.41,1.41,0,0,1,71.51,170.44Z"/><path class="cls-1" d="M80.47,177.65l-.26,1.56h-1a3.3,3.3,0,0,0-.89.12,2.66,2.66,0,0,0-.77.39,2.28,2.28,0,0,0-.58.62,2.18,2.18,0,0,0-.28.87,2.1,2.1,0,0,0,0,.71,1,1,0,0,0,.29.53.93.93,0,0,0,.66.21,2.17,2.17,0,0,0,.89-.2,2.14,2.14,0,0,0,.74-.55,1.53,1.53,0,0,0,.38-.81l.4,1a4.1,4.1,0,0,1-.43,1,3.73,3.73,0,0,1-.65.82,3.32,3.32,0,0,1-.87.56,2.57,2.57,0,0,1-1,.19,2.81,2.81,0,0,1-1.56-.45,2.65,2.65,0,0,1-1-1.16,3.38,3.38,0,0,1-.26-1.6,3.75,3.75,0,0,1,.46-1.7,3.63,3.63,0,0,1,1.07-1.17,4.53,4.53,0,0,1,1.49-.69,6.59,6.59,0,0,1,1.74-.22Zm-1.09,4.5.89-5.55a3.16,3.16,0,0,0,0-.76,1,1,0,0,0-.29-.58,1,1,0,0,0-.7-.23,1.52,1.52,0,0,0-.79.19,1.71,1.71,0,0,0-.53.54,2.4,2.4,0,0,0-.27.75H75.35a3.72,3.72,0,0,1,.42-1.43,3.65,3.65,0,0,1,.94-1.09,4.46,4.46,0,0,1,1.29-.69,4.94,4.94,0,0,1,1.49-.23,3.58,3.58,0,0,1,1.8.47,2.59,2.59,0,0,1,1.07,1.24,3.79,3.79,0,0,1,.23,1.86l-.84,5.19q-.09.6-.12,1.2a4.68,4.68,0,0,0,.11,1.18l0,.18h-2.3a4.19,4.19,0,0,1-.13-1.12A10.52,10.52,0,0,1,79.38,182.15Z"/><path class="cls-1" d="M96.51,179.54l2.35,0a7,7,0,0,1-.87,2.67A4.87,4.87,0,0,1,96.15,184a5.12,5.12,0,0,1-2.74.61,3.85,3.85,0,0,1-2.15-.61A3.8,3.8,0,0,1,90,182.51a6,6,0,0,1-.57-2,9.7,9.7,0,0,1,0-2.22l.4-2.64a12.25,12.25,0,0,1,.62-2.36,7.5,7.5,0,0,1,1.17-2.07,5,5,0,0,1,4.18-1.92,4,4,0,0,1,2.44.73,3.78,3.78,0,0,1,1.28,1.87,7.49,7.49,0,0,1,.35,2.56l-2.43,0a6.77,6.77,0,0,0,0-1.43,2,2,0,0,0-.49-1.15,1.71,1.71,0,0,0-1.29-.48,2.68,2.68,0,0,0-1.49.34,3,3,0,0,0-1,1,5.75,5.75,0,0,0-.59,1.42,12.08,12.08,0,0,0-.31,1.47l-.4,2.67c-.05.39-.09.83-.11,1.3a5.7,5.7,0,0,0,.08,1.38,2.21,2.21,0,0,0,.52,1.11,1.74,1.74,0,0,0,1.23.48,2.44,2.44,0,0,0,1.55-.35,2.56,2.56,0,0,0,.89-1.1A8.06,8.06,0,0,0,96.51,179.54Z"/><path class="cls-1" d="M106.45,179.43l.66,0a15.62,15.62,0,0,1-.33,1.8,6.75,6.75,0,0,1-.66,1.71,3.55,3.55,0,0,1-1.16,1.27,2.93,2.93,0,0,1-1.79.44,2.48,2.48,0,0,1-1.38-.41,2.31,2.31,0,0,1-.79-1,4.39,4.39,0,0,1-.31-1.33,8.27,8.27,0,0,1,0-1.41l1.2-7.18h2.33l-1.2,7.2q0,.28,0,.63a2.39,2.39,0,0,0,.06.66,1.15,1.15,0,0,0,.27.54.8.8,0,0,0,.59.24,1.79,1.79,0,0,0,1.4-.45,3,3,0,0,0,.78-1.23A7.41,7.41,0,0,0,106.45,179.43Zm-.64,2.23,1.44-8.35h2.35l-1.93,11.09h-2.19Z"/><path class="cls-1" d="M114.24,184.61a4,4,0,0,1-1.86-.43,3.06,3.06,0,0,1-1.19-1.12,4.44,4.44,0,0,1-.58-1.6,7,7,0,0,1-.07-1.9l.13-1.06a10,10,0,0,1,.48-2,6.53,6.53,0,0,1,.94-1.75,4.4,4.4,0,0,1,1.46-1.22,4.27,4.27,0,0,1,2-.43,3.38,3.38,0,0,1,1.82.51,2.91,2.91,0,0,1,1,1.25,4.87,4.87,0,0,1,.4,1.7,10.65,10.65,0,0,1,0,1.87l-.18,1.21h-7l.33-1.82h4.6l.06-.27a5.53,5.53,0,0,0,0-1.08,1.81,1.81,0,0,0-.31-.94,1.15,1.15,0,0,0-.92-.44,1.75,1.75,0,0,0-1.13.29,2.17,2.17,0,0,0-.7.85,4.77,4.77,0,0,0-.38,1.14c-.08.39-.14.77-.18,1.13l-.13,1.07a7.25,7.25,0,0,0,0,1,3.34,3.34,0,0,0,.16,1,1.52,1.52,0,0,0,.51.73,1.63,1.63,0,0,0,1,.29,2.84,2.84,0,0,0,1.37-.29,4.85,4.85,0,0,0,1.16-.83L118,183a3.59,3.59,0,0,1-1,.94,4.31,4.31,0,0,1-1.29.54A5.44,5.44,0,0,1,114.24,184.61Z"/><path class="cls-1" d="M125.16,181.42a1,1,0,0,0-.2-.77,2.46,2.46,0,0,0-.65-.54l-.71-.38a11.45,11.45,0,0,1-1-.56,4.94,4.94,0,0,1-.87-.68,2.75,2.75,0,0,1-.58-.88,2.82,2.82,0,0,1-.16-1.16,3.6,3.6,0,0,1,.39-1.41,3.43,3.43,0,0,1,.87-1.06,3.68,3.68,0,0,1,1.23-.67,4.92,4.92,0,0,1,1.44-.22,4,4,0,0,1,1.79.46,2.83,2.83,0,0,1,1.17,1.18,3.63,3.63,0,0,1,.38,1.81H125.9a2.55,2.55,0,0,0-.08-.74,1.13,1.13,0,0,0-.36-.58,1.05,1.05,0,0,0-.72-.23,1.48,1.48,0,0,0-.73.16,1.49,1.49,0,0,0-.54.49,1.65,1.65,0,0,0-.27.7.8.8,0,0,0,.08.56,1.19,1.19,0,0,0,.36.42,3.36,3.36,0,0,0,.51.32l.51.24a12.45,12.45,0,0,1,1.4.79,3.39,3.39,0,0,1,1,1.06,2.51,2.51,0,0,1,.31,1.56,3.05,3.05,0,0,1-.39,1.44,3.45,3.45,0,0,1-.92,1.05,3.85,3.85,0,0,1-1.3.64,4.69,4.69,0,0,1-1.5.2,3.85,3.85,0,0,1-1.84-.49,3.11,3.11,0,0,1-1.24-1.25,3.75,3.75,0,0,1-.42-1.86h2.27a2.77,2.77,0,0,0,.1.88,1.14,1.14,0,0,0,.43.61,1.44,1.44,0,0,0,.86.23,2,2,0,0,0,.78-.16,1.38,1.38,0,0,0,.6-.44A1.49,1.49,0,0,0,125.16,181.42Z"/><path class="cls-1" d="M135.19,173.31l-.33,1.85h-5.29l.32-1.85Zm-3.39-2.72h2.34l-1.83,10.75a4.89,4.89,0,0,0,0,.54.8.8,0,0,0,.13.45.56.56,0,0,0,.47.19l.34,0,.37-.06-.21,1.94a3.24,3.24,0,0,1-.66.18,3.82,3.82,0,0,1-.68,0,2,2,0,0,1-1.36-.47,2.28,2.28,0,0,1-.62-1.18,4.78,4.78,0,0,1-.08-1.47Z"/><path class="cls-1" d="M141.53,177.65l-.25,1.56h-1a3.3,3.3,0,0,0-.89.12,2.66,2.66,0,0,0-.77.39,2.24,2.24,0,0,0-.57.62,2.18,2.18,0,0,0-.29.87,2.39,2.39,0,0,0,0,.71,1,1,0,0,0,.29.53.93.93,0,0,0,.66.21,2.17,2.17,0,0,0,.89-.2,2.14,2.14,0,0,0,.74-.55,1.46,1.46,0,0,0,.38-.81l.4,1a4.52,4.52,0,0,1-.42,1,3.5,3.5,0,0,1-.66.82,3.27,3.27,0,0,1-.86.56,2.65,2.65,0,0,1-1,.19,2.75,2.75,0,0,1-1.55-.45,2.6,2.6,0,0,1-1-1.16,3.51,3.51,0,0,1-.26-1.6,3.75,3.75,0,0,1,.46-1.7,3.63,3.63,0,0,1,1.07-1.17,4.63,4.63,0,0,1,1.49-.69,6.69,6.69,0,0,1,1.74-.22Zm-1.08,4.5.88-5.55a2.72,2.72,0,0,0,0-.76,1,1,0,0,0-.28-.58,1,1,0,0,0-.71-.23,1.54,1.54,0,0,0-.79.19,1.58,1.58,0,0,0-.52.54,2.19,2.19,0,0,0-.28.75h-2.31a3.4,3.4,0,0,1,.42-1.43,3.52,3.52,0,0,1,.94-1.09,4.21,4.21,0,0,1,1.29-.69,4.87,4.87,0,0,1,1.48-.23,3.58,3.58,0,0,1,1.8.47,2.54,2.54,0,0,1,1.07,1.24,3.79,3.79,0,0,1,.24,1.86l-.84,5.19a8.13,8.13,0,0,0-.12,1.2,4.67,4.67,0,0,0,.1,1.18l0,.18h-2.29a4.19,4.19,0,0,1-.14-1.12A8.48,8.48,0,0,1,140.45,182.15Z"/><path class="cls-1" d="M150.62,178.55l0-.17a24,24,0,0,1,.64-3,18.38,18.38,0,0,1,1.12-3,12.42,12.42,0,0,1,1.69-2.7,8.55,8.55,0,0,1,2.35-2l.35,1.48a10.05,10.05,0,0,0-1.63,2,13.11,13.11,0,0,0-1.16,2.27,16.07,16.07,0,0,0-.77,2.44q-.3,1.26-.48,2.49l0,.23c-.09.66-.17,1.41-.25,2.25a21.39,21.39,0,0,0-.06,2.54,10.72,10.72,0,0,0,.39,2.45,5.11,5.11,0,0,0,1.09,2l-.55,1.36a5.86,5.86,0,0,1-1.76-2.13,10.25,10.25,0,0,1-.89-2.76,17.51,17.51,0,0,1-.25-3A22.6,22.6,0,0,1,150.62,178.55Z"/><path class="cls-1" d="M164.67,182.39l-.32,2H156l.28-1.82,4.68-5.2c.32-.35.64-.73.95-1.13a8.46,8.46,0,0,0,.83-1.28,4.25,4.25,0,0,0,.46-1.41,4.62,4.62,0,0,0,0-1,1.9,1.9,0,0,0-.34-.92,1,1,0,0,0-.87-.4,1.55,1.55,0,0,0-1.21.39,2.69,2.69,0,0,0-.71,1.1,5.52,5.52,0,0,0-.29,1.27l-2.32,0a5.93,5.93,0,0,1,.71-2.39,4.76,4.76,0,0,1,1.63-1.76,4.31,4.31,0,0,1,2.4-.64,3.52,3.52,0,0,1,2,.56,3.12,3.12,0,0,1,1.18,1.45,4.35,4.35,0,0,1,.26,2.06,5.13,5.13,0,0,1-.38,1.59,8.11,8.11,0,0,1-.78,1.45c-.32.45-.65.89-1,1.32s-.73.83-1.08,1.22l-3,3.49Z"/><path class="cls-1" d="M175.69,175.69l-.39,2.44a19.37,19.37,0,0,1-.46,2.21,9.52,9.52,0,0,1-.87,2.13,4.82,4.82,0,0,1-1.45,1.59,3.68,3.68,0,0,1-2.22.55,2.78,2.78,0,0,1-2.63-1.58,5.21,5.21,0,0,1-.49-1.55,9.87,9.87,0,0,1-.1-1.72,13.37,13.37,0,0,1,.12-1.62l.37-2.45a17.52,17.52,0,0,1,.47-2.21,8.76,8.76,0,0,1,.87-2.11,4.56,4.56,0,0,1,1.46-1.56,3.68,3.68,0,0,1,2.2-.54,3,3,0,0,1,1.65.45,2.82,2.82,0,0,1,1,1.11,4.91,4.91,0,0,1,.47,1.52,8.78,8.78,0,0,1,.11,1.7C175.79,174.63,175.75,175.18,175.69,175.69Zm-2.75,2.8.46-3.19c0-.2.06-.46.1-.79a8.45,8.45,0,0,0,.08-1,5.83,5.83,0,0,0-.09-1,1.87,1.87,0,0,0-.36-.82.93.93,0,0,0-.75-.35,1.43,1.43,0,0,0-1.17.38,3.1,3.1,0,0,0-.7,1.11,7.55,7.55,0,0,0-.38,1.37c-.08.47-.14.86-.18,1.19l-.46,3.19c0,.19-.06.45-.1.78s-.06.68-.07,1.05a5.4,5.4,0,0,0,.07,1.08,1.83,1.83,0,0,0,.35.84,1,1,0,0,0,.76.37,1.48,1.48,0,0,0,1.17-.4,3.09,3.09,0,0,0,.69-1.13,7.63,7.63,0,0,0,.38-1.4C172.83,179.22,172.89,178.82,172.94,178.49Z"/><path class="cls-1" d="M184.58,169.43l-2.54,15h-2.33l2.07-11.92-3.12,1.22.39-2.2,5.19-2.08Z"/><path class="cls-1" d="M188.54,182.43h.11a4.31,4.31,0,0,0,1.94-.37A3.89,3.89,0,0,0,192,181a5.4,5.4,0,0,0,.88-1.56,9.54,9.54,0,0,0,.48-1.91l.35-2.61c0-.23,0-.54.06-.93a6.11,6.11,0,0,0-.06-1.2,2.6,2.6,0,0,0-.35-1.06.94.94,0,0,0-.82-.45,1.32,1.32,0,0,0-1,.3,2.48,2.48,0,0,0-.63.85,4.76,4.76,0,0,0-.37,1.08c-.08.38-.14.71-.17,1s0,.53,0,.87a4.86,4.86,0,0,0,.11,1,2,2,0,0,0,.38.84,1.05,1.05,0,0,0,.8.35,1.48,1.48,0,0,0,.88-.24,2.3,2.3,0,0,0,.66-.66,4.19,4.19,0,0,0,.46-.86,5.78,5.78,0,0,0,.27-.84l.83.31a7,7,0,0,1-.37,1.45,5.73,5.73,0,0,1-.77,1.39,4,4,0,0,1-1.14,1,2.59,2.59,0,0,1-1.46.37,2.52,2.52,0,0,1-1.58-.49,3,3,0,0,1-.93-1.22,5.46,5.46,0,0,1-.42-1.61,8,8,0,0,1,0-1.62,8.22,8.22,0,0,1,.42-1.9,6.33,6.33,0,0,1,.9-1.73,4.27,4.27,0,0,1,1.41-1.24,3.74,3.74,0,0,1,1.91-.44,2.79,2.79,0,0,1,1.86.63,3.67,3.67,0,0,1,1,1.54,7.41,7.41,0,0,1,.4,2,12.25,12.25,0,0,1,0,1.93l-.12.88a18.68,18.68,0,0,1-.52,2.47,12.86,12.86,0,0,1-.91,2.26A7.5,7.5,0,0,1,193,182.8a6,6,0,0,1-1.93,1.25,6.94,6.94,0,0,1-2.55.47h-.22Z"/><path class="cls-1" d="M202,178.28l0,.19a24.78,24.78,0,0,1-.64,3,18.16,18.16,0,0,1-1.15,3,12.09,12.09,0,0,1-1.73,2.7,7.89,7.89,0,0,1-2.39,1.95l-.33-1.41a11,11,0,0,0,1.63-2,14.37,14.37,0,0,0,1.16-2.28,15.28,15.28,0,0,0,.78-2.46c.2-.85.36-1.68.49-2.51l0-.24q.14-1,.24-2.22a19.34,19.34,0,0,0,0-2.53,11.39,11.39,0,0,0-.4-2.46,5.15,5.15,0,0,0-1-2l.55-1.36a6,6,0,0,1,1.77,2.12,10.06,10.06,0,0,1,.91,2.76,16.56,16.56,0,0,1,.28,3A19.15,19.15,0,0,1,202,178.28Z"/><path class="cls-1" d="M203.72,183.19a1.38,1.38,0,0,1,.4-1,1.44,1.44,0,0,1,1-.42,1.33,1.33,0,0,1,1,.37,1.3,1.3,0,0,1,.4,1,1.33,1.33,0,0,1-.39,1,1.52,1.52,0,0,1-1,.42,1.41,1.41,0,0,1-1-.37A1.31,1.31,0,0,1,203.72,183.19Z"/><path class="cls-2" d="M264.73,159.15c5.81-1.84,11.12-1.27,16,2.09A17.44,17.44,0,0,1,278.93,191c-.43.23-1,1-1.44,0-.38-.77-.5-1.34.52-1.67a5.45,5.45,0,0,0,1.23-.71,2.53,2.53,0,0,0,.14-4.34c-1.32-1-3-1.1-4.49-1.52-.47-.14-.54.29-.73.57-1.81,2.7-4.91,2.69-6.77,0-.24-.34-.39-.66-.89-.51-1.15.33-2.33.59-3.46,1a2.82,2.82,0,0,0-2,3,1.74,1.74,0,0,0,.86,1.57,15.31,15.31,0,0,0,12.21,2.37c.81-.17,1.21-.08,1.44.79.29,1.07-.46,1-1.06,1.14a17.35,17.35,0,0,1-20.14-11.17,1.67,1.67,0,0,0-1.93-1.32c-7,0-14,0-21,0-2.68,0-3.69-1-3.7-3.65q0-12,0-24.06c0-.85,0-1.58,1.18-1.38.75.13.83-.36.82-.95q0-3.56,0-7.11a16.05,16.05,0,0,1,3.45-9.82c.31-.39.58-.94,1.18-.29.4.43,1.09.64.4,1.49A14.54,14.54,0,0,0,231.7,144c0,2,0,4,0,6.08,0,.82.31,1,1.06,1s.95-.29.94-1c0-2.24,0-4.49,0-6.73a12.6,12.6,0,0,1,25-2.15,20,20,0,0,1,.14,3.87c0,.76.09,1.16,1,1.15s.94-.38,1-1.09c.21-5.15-1.24-9.63-5.3-13a14.41,14.41,0,0,0-18.05-.4c-.54.4-.87.67-1.46,0s-.5-1,.18-1.5c5.31-3.81,11-4.62,17-1.85s9.15,7.67,9.54,14.27c.09,1.51,0,3,0,4.53,0,.69-.16,1-.93,1-1.33-.05-2.67,0-4,0-.69,0-.87-.27-.87-.92a39.05,39.05,0,0,0-.12-5.3,10.66,10.66,0,0,0-21.23,1.27c0,2.2.05,4.4,0,6.6,0,1.07.35,1.27,1.33,1.27,8.79,0,17.59,0,26.38,0,1.2,0,1.54.33,1.49,1.51C264.66,154.71,264.73,156.86,264.73,159.15ZM246.33,153c-5.08,0-10.17,0-15.25,0-1,0-1.3.27-1.3,1.29.05,7.41,0,14.82,0,22.23,0,1.59.18,1.76,1.8,1.76,6.81,0,13.62,0,20.43,0,1.15,0,1.44-.26,1.36-1.43a17.41,17.41,0,0,1,5.86-14.44c1.12-1.06,3.12-1.25,3.42-3a28.08,28.08,0,0,0,.06-4.77,4.51,4.51,0,0,1,0-.52c.14-.91-.26-1.16-1.15-1.15C256.5,153,251.42,153,246.33,153Zm36.12,32.65c5.44-5.32,5-15.44-.84-21.16a15.53,15.53,0,0,0-22.14.49c-6.21,6.66-4.82,16.14-.36,20.6.72-2.75,2.83-3.75,5.29-4.31.46-.1.92-.21,1.37-.35s1,0,1.09-.68a1.49,1.49,0,0,0-.51-1.48,6.13,6.13,0,0,1-2.3-4.34,24.76,24.76,0,0,1,0-4.39,6.72,6.72,0,0,1,6.35-6.05,6.49,6.49,0,0,1,6.94,5.16c.54,3.53.91,7.17-2.36,9.9-.74.62-.41,1.56.52,1.82.71.19,1.42.36,2.13.53C280,182,281.85,183.06,282.45,185.64ZM270.8,171.72c-.94,0-1.89,0-2.83,0a1.88,1.88,0,0,0-2,2.16,4.85,4.85,0,0,0,4.8,4.61,4.91,4.91,0,0,0,4.85-4.58,1.93,1.93,0,0,0-2-2.19C272.7,171.68,271.75,171.72,270.8,171.72Zm4.79-1.74c-.12-.41-.2-.75-.32-1.07a4.83,4.83,0,0,0-9.06.27c-.14.45-.43.93.51.79A37.07,37.07,0,0,1,275.59,170Zm-6.72,11.07c0,1.33.65,2.15,1.74,2.25a2,2,0,0,0,2.11-1.8c.13-.87,0-1.39-1.1-1.15a5,5,0,0,1-1.92,0C268.9,180.17,268.8,180.52,268.87,181.05Z"/><path class="cls-2" d="M242.75,161c.51.12.73.52,1,.81,1.81,1.79,1.79,1.78,3.59,0,.76-.74,1.4-2.06,2.33-2.06s1.57,1.32,2.34,2.07c1.79,1.76,1.78,1.77,0,3.59s-3.85,3.82-5.75,5.76c-.48.5-.79.59-1.33,0-1.82-1.89-3.68-3.74-5.56-5.57-.52-.5-.56-.83,0-1.33,1-.9,1.89-1.88,2.84-2.82C242.38,161.27,242.58,161.11,242.75,161Zm8.19,2.69a2.89,2.89,0,0,0-1-1.18c-.42-.36-.6.13-.82.33-.44.4-.84.86-1.28,1.26-.76.69-1.34,1.95-2.26,2s-1.48-1.18-2.13-1.9-.91-.26-1.32.15-.74.66-.13,1.21c1.05.95,2,2,3,3,.42.45.69.46,1.13,0,1.43-1.49,2.91-2.93,4.37-4.39C250.67,164,250.8,163.8,250.94,163.64Z"/><path class="cls-2" d="M256.07,156.84c-.84.16-1.12-.13-1.12-1s.28-.94,1-.94,1.09.17,1.05,1S256.78,157,256.07,156.84Z"/><path class="cls-2" d="M259.86,156.84c-.84.16-1-.22-1-.92,0-.87.38-1,1.09-1s.95.25.95,1S260.57,157,259.86,156.84Z"/><path class="cls-2" d="M264.53,93.75c.5-1.13.83-1.94,1.22-2.71a1.22,1.22,0,0,1,1.71-.74,1.26,1.26,0,0,1,.67,1.77c-.7,1.79-1.47,3.55-2.22,5.32a1.35,1.35,0,0,1-1.88.8c-1.79-.7-3.56-1.45-5.32-2.23a1.23,1.23,0,0,1-.83-1.68,1.27,1.27,0,0,1,1.86-.72c.62.26,1.26.48,2.13.8a47.09,47.09,0,0,1-2.58-11.06,41.44,41.44,0,0,1-.23-4.72,1.75,1.75,0,0,0-1.28-2,11.68,11.68,0,0,1-2-1A4.68,4.68,0,0,1,254,70a4.49,4.49,0,0,1,5-2.9c1.19.28,1.52-.07,1.77-1.08.29-1.16.69-2.3,1-3.49-.81-.14-1.32.33-1.91.52-.85.28-1.66.33-2-.68s.21-1.41,1-1.74c1.67-.7,3.34-1.38,5-2.1a1.43,1.43,0,0,1,2.1.89q1.08,2.49,2.09,5c.31.77.3,1.53-.6,1.92s-1.44-.06-1.8-.87l-1.06-2.37A26.76,26.76,0,0,0,263,68c-.2.71.36.89.83,1.11l15.48,7.41a2.61,2.61,0,0,0,1,.27c1.6.06,1.82-.29,1.32-1.82A18.83,18.83,0,0,1,281,64.3c1.4-5.42,5.63-8.74,10.74-8.5,4.82.22,8.9,4.15,9.8,9.44.76,4.48.07,8-2.79,13.71,2.1.21,4.41,0,6.06,1.28,2.64,2.09,5.57,1.92,8.58,1.89,4,0,7.95,0,11.92,0,3.14,0,5.26,1.88,5.31,4.61s-2.11,4.79-5.31,4.8c-7.18,0-14.37,0-21.56,0-1.44,0-1.78.39-1.56,1.76.28,1.72.37,3.48.55,5.22.09.94-.2,1.7-1.22,1.76s-1.31-.6-1.4-1.46c-.26-2.62-.55-5.23-.8-7.85-.17-1.67.25-2.08,2.13-2.09q11.47,0,23,0a12.8,12.8,0,0,0,1.75-.06,1.84,1.84,0,0,0,1.75-2A1.78,1.78,0,0,0,326,84.84c-1.92-.06-3.85,0-5.78,0-4,0-8.06,0-12.09,0a3.34,3.34,0,0,1-2.52-1,7.88,7.88,0,0,0-5.6-2.12,42.87,42.87,0,0,0-7.5.34,8.5,8.5,0,0,1-7.09-1.76,4.65,4.65,0,0,0-4.27-.94,4,4,0,0,1-3-.41c-4.82-2.35-9.68-4.63-14.5-7-1-.51-1.51-.48-1.67.8A43,43,0,0,0,264.53,93.75ZM283.2,68.49A14.3,14.3,0,0,0,285,76.17a7.22,7.22,0,0,0,11.65.91c3-3.64,3.34-11.52.61-15.37a7.34,7.34,0,0,0-12.18-.06A10.48,10.48,0,0,0,283.2,68.49Zm-24.88,1.23a1.94,1.94,0,0,0-2,2c0,1,1.63,2.71,2.41,2.31,1.28-.64.54-2.16.89-3.26S258.94,69.85,258.32,69.72Z"/><path class="cls-2" d="M323.93,141.32c-.81,0-1.63,0-2.44,0-1.76-.11-3.08-.1-4,2.06a4,4,0,0,1-7.07.28c-1.3-2.13-2.85-2.53-5-2.36-1.73.13-3.49,0-5.4,0,.33.94,1.09,1.33,1.57,1.94a1.29,1.29,0,0,1,0,1.88,1.2,1.2,0,0,1-1.86,0q-2.07-2-4.09-4.08a1.33,1.33,0,0,1,0-2c1.34-1.38,2.71-2.74,4.08-4.09a1.21,1.21,0,0,1,1.86-.11,1.31,1.31,0,0,1-.07,2c-.46.5-.94,1-1.61,1.7h6.94l-14-20.86a3.08,3.08,0,0,0-.28,1.92c0,7.82,0,15.65,0,23.48,0,2.38-.14,2.52-2.45,2.53h-6.66a3,3,0,0,1-3-1.7,3.08,3.08,0,0,1,.43-3.44c.91-1.18,2.07-2.25,1.34-4A1.08,1.08,0,0,1,283,135a1.29,1.29,0,0,1,1.6,1,4.29,4.29,0,0,1-1,5.1c-.42.39-1.19.92-.84,1.57s1.18.28,1.79.3c1.11,0,2.23-.08,3.33,0,1.51.16,2-.34,2-1.92-.09-7.48,0-15,0-22.43a17,17,0,0,1,0-1.75,2.33,2.33,0,0,1,1.66-2.06,2.44,2.44,0,0,1,2.74.61,10.16,10.16,0,0,1,1,1.4c4.41,6.53,8.87,13,13.17,19.64,1.07,1.65,2.2,2.56,4.2,2.21a9.13,9.13,0,0,1,1.57,0,3.33,3.33,0,0,0-.67-2q-6-12.65-12.07-25.26c-1.17-2.44-.59-5-.91-7.57-.09-.62.45-1.08,1.1-1.16a1.28,1.28,0,0,1,1.44,1,2,2,0,0,1,.08.69c-.3,3.89,1.26,7.24,2.93,10.62,3.63,7.38,7.14,14.82,10.64,22.26a2,2,0,0,0,2.2,1.46c1.62-.12,3.26,0,5,0-.28-.92-1-1.3-1.44-1.84a1.31,1.31,0,0,1,0-2,1.21,1.21,0,0,1,1.86.13q2,2,4,4a1.44,1.44,0,0,1,0,2.29c-1.28,1.28-2.55,2.57-3.84,3.84-.61.6-1.32.85-2,.14a1.28,1.28,0,0,1,.16-2,14.69,14.69,0,0,1,1.69-1.2Zm-8.4.11h-3.38C313.25,143.29,314.33,143.31,315.53,141.43Z"/><path class="cls-2" d="M279.08,100.16l-3.83,6.58c-.82,1.42-1.61,2.85-2.46,4.24-1.56,2.56-4.26,3.32-6.6,1.91a4.64,4.64,0,0,1-1.49-6.58q5.61-9.8,11.32-19.53c.51-.87.54-1.18-.43-1.62-3.39-1.56-6.74-3.22-10.11-4.83-.92-.44-2-.9-1.35-2.17s1.58-.66,2.44-.24c3.58,1.72,7.17,3.41,10.72,5.18A2.25,2.25,0,0,0,280,83a10.12,10.12,0,0,1,2.17-1.12,1.32,1.32,0,0,1,1.94.58c.42.89-.14,1.39-.85,1.82-2.52,1.52-2.55,1.55-1,4.17a4.58,4.58,0,0,1,.67,3c-.73,7.31-1.79,14.61-1.46,22a126.25,126.25,0,0,0,1.95,16.68c.18,1,.32,2-1,2.22s-1.5-.8-1.66-1.77c-1.68-9.81-2.78-19.66-1.49-29.62a4.56,4.56,0,0,0,0-.64Zm-.51-12.49c-.4.64-.74,1.17-1.06,1.72l-10.05,17.42a9.15,9.15,0,0,0-.72,1.39,2,2,0,0,0,3.24,2.1,6.87,6.87,0,0,0,1-1.43c2.75-4.74,5.42-9.52,8.24-14.22C280.68,92.2,280.75,90,278.57,87.67Z"/><path class="cls-2" d="M333.4,84.35v-18a5.85,5.85,0,0,1,.1-1.57,1.16,1.16,0,0,1,1.32-.9,1.09,1.09,0,0,1,1.09.94,9.2,9.2,0,0,1,.1,1.57q0,18.1,0,36.22c0,.47,0,.94-.06,1.4a1.19,1.19,0,0,1-1.28,1.17,1.23,1.23,0,0,1-1.25-1.21,13.14,13.14,0,0,1,0-1.4Z"/><path class="cls-2" d="M326.19,75.52h-12c-.92,0-1.71-.27-1.72-1.29s.75-1.31,1.69-1.31c2.45,0,4.9,0,7.34,0h4.33c-.17-1-1-1.32-1.47-1.91s-.7-1.26-.14-1.88a1.27,1.27,0,0,1,2,0c1.34,1.3,2.65,2.62,4,3.95a1.46,1.46,0,0,1,0,2.3c-1.28,1.28-2.55,2.56-3.84,3.82a1.32,1.32,0,0,1-2,.16c-.67-.65-.46-1.37.13-2Z"/></svg>