<svg id="Capa_1" data-name="Capa 1" xmlns="http://www.w3.org/2000/svg" viewBox="0 0 167.39 147.96"><defs><style>.cls-1{fill:#6c2911;}</style></defs><path class="cls-1" d="M86.91,96.17c0,4.13,0,8.26,0,12.39,0,1.6.56,3.28-2.33,3.23-2.71-.05-2.18-1.59-2.19-3.1,0-8.44-.14-16.9.08-25.34.07-2.84-.82-3.5-3.44-3.28a74,74,0,0,1-8.16,0,13.16,13.16,0,0,1-8-23.81c4.72-3.82,5.06-6.76,1.32-11.66S61,33,65.87,29.54c4.48-3.2,6-7.26,6.41-12.4C73,7.48,82.83,2.49,91.35,7.27a10.85,10.85,0,0,1,5.59,8.61c.2,1.59.47,3.17.56,4.75a9.88,9.88,0,0,0,4.32,7.53c6.7,5.15,7.38,10.83,2.24,17.65-2.52,3.35-2,7.08,1.59,9.85,3.37,2.59,5.66,5.74,6,10A13,13,0,0,1,98.84,80.09c-3.09.12-6.2.15-9.29,0-2-.11-2.79.37-2.7,2.58C87,87.16,86.91,91.67,86.91,96.17Zm0-63c1.76.27,1.92-2.89,4-1,1.6,1.46,2.13,2.46.2,4.16-1.57,1.38-3.8,2.54-4.11,4.78a59.25,59.25,0,0,0-.08,8l.7.4c1-1.17,2.12-2.3,3.1-3.52,1.11-1.4,1.9-.83,2.9.18s1.76,1.8.25,3.12c-2,1.73-3.76,3.67-5.6,5.54-.64.65-1.4,1.2-1.39,2.32.06,3.33,0,6.66,0,10l.65.33C89,66,90.43,64.63,91.71,63.06s2-1,3.13.11,1.46,1.88.09,3.13c-2.49,2.28-4.81,4.75-7.19,7.14-.47.47-1,.94-.72,1.69s.94.45,1.45.45c3.47,0,7,.15,10.41,0a8.45,8.45,0,0,0,8.25-9.67c-.36-3.17-2.4-5.13-4.73-7a11,11,0,0,1-2.11-15.55c3.86-5.16,3.55-7.88-1.51-11.77A13.88,13.88,0,0,1,93,21.33c-.15-1.77-.38-3.55-.64-5.31a6.14,6.14,0,0,0-5-5.46c-5.56-1.26-10.56.8-10.7,7.18S74.44,29.14,69,32.83c-3.29,2.22-3.46,6.24-.81,9.39a11.66,11.66,0,0,1,3,9.34c-.47,3.72-2.75,6.2-5.57,8.43a8.68,8.68,0,0,0-3.07,9.81c1.15,3.43,4.39,5.67,8.49,5.78,2.35.07,4.7,0,7,0,4.81,0,4.76,0,4.37-4.78a3.51,3.51,0,0,0-1.32-2.35c-1.79-1.79-3.52-3.64-5.4-5.35-1.28-1.16-1.56-1.95-.14-3.34s2.19-1.3,3.35.09c.91,1.1,2,2,3.48,3.48,0-4.4-.06-8.05,0-11.69a4.49,4.49,0,0,0-1.5-3.7c-2.66-2.51-5.14-5.21-7.81-7.71-1.29-1.21-.85-1.92.17-2.92s1.81-1.79,3.12-.26c1.68,2,3.57,3.76,5.37,5.62l.62-.29V39.71c0-6,0-12,0-18,0-1.64.15-2.52,2.2-2.52S87,20,87,21.79C86.82,25.62,86.91,29.46,86.91,33.21Z"/><path class="cls-1" d="M44.7,141c-8.33-.54-15.55-5.07-19.67-14.14a7,7,0,0,0-2.7-3.36,6.14,6.14,0,0,1,0-10.69c2-1.26,1.24-2.85,1.43-4.38.22-1.71-1.33-1.25-2.12-1.57A6.87,6.87,0,0,1,17,100.4,6.54,6.54,0,0,1,21.94,94a3,3,0,0,0,2.47-2.45,17.25,17.25,0,0,1,13-13A2.93,2.93,0,0,0,39.88,76,6.54,6.54,0,0,1,46.3,71.1,6.42,6.42,0,0,1,52.74,76c.42,1.66,1.21,2.11,2.73,2.53A17.46,17.46,0,0,1,68.2,91.18c.42,1.45.71,2.38,2.46,2.78a6.44,6.44,0,0,1,5,6.38,6.87,6.87,0,0,1-4.84,6.55c-.74.27-2.14-.08-1.89,1.44s-.74,3,1.15,4.23c4.61,3,4.51,8.32-.15,11.18a5.7,5.7,0,0,0-2.23,3C64,135.48,55.59,141,44.7,141Zm1.71-33.79c-3.75,0-7.5-.07-11.24,0-2.22.06-5.14-1-6.44.49-1.08,1.27-.43,4.1-.39,6.23,0,1.52-.1,2.59-2.06,2.3a2,2,0,0,0-2.38,1.49,1.93,1.93,0,0,0,1.53,2.35c2,.67,2.77,2.14,3.42,4a18.55,18.55,0,0,0,34.72.69c.83-2.16,1.53-4.14,4-4.9a1.71,1.71,0,0,0,1.19-2,1.74,1.74,0,0,0-2-1.62c-2.66.42-2.58-1.21-2.48-3,.07-1.31-.11-2.63,0-3.93.2-1.8-.54-2.2-2.22-2.17C56.91,107.23,51.66,107.17,46.41,107.17Zm-.16-13.54c5.26,0,10.51-.09,15.76,0,2.07,0,2.16-.75,1.56-2.29a13.76,13.76,0,0,0-7.78-8c-1.88-.79-3.1-.87-2.69,1.73.35,2.23-1.24,1.71-2.48,1.83-1.57.16-2.18-.38-2.07-2,.12-1.87,0-3.75,0-5.63,0-1.67,0-3.48-2.18-3.55s-2.35,1.69-2.32,3.4-.07,3.57,0,5.35S44,87.05,41.91,87c-1.71-.08-2.68-.33-2.36-2.3.36-2.15-.83-2-2.28-1.48a13.78,13.78,0,0,0-8.13,8.07c-.68,1.7-.58,2.5,1.64,2.43C35.93,93.53,41.09,93.63,46.25,93.63Zm0,9H67.32c1.74,0,3.71.08,3.69-2.31,0-2.17-1.85-2.2-3.52-2.19H25.06c-1.71,0-3.46.12-3.41,2.3s1.85,2.2,3.52,2.2C32.19,102.63,39.22,102.64,46.24,102.64Z"/><path class="cls-1" d="M98.16,97.6c0-2.62.08-5.26,0-7.88-.07-1.63.33-2.47,2.1-2.92,7.8-2,15.57-4.16,23.33-6.32a5.81,5.81,0,0,1,3.28,0c7.76,2.17,15.55,4.26,23.32,6.38,1,.26,2.15.23,2.1,1.73-.26,8.23.94,16.57-1.27,24.66C147.5,126,139.6,135,127.5,140.29a5.4,5.4,0,0,1-4.55,0,40.22,40.22,0,0,1-24.78-36.5C98.14,101.73,98.16,99.67,98.16,97.6Zm49.58,2.45c0-2.83-.13-5,0-7.14.14-1.69-.59-2.26-2.08-2.65-6.25-1.63-12.48-3.37-18.72-5.07a5.29,5.29,0,0,0-3-.14q-9.73,2.74-19.53,5.29c-1.5.39-1.83,1.17-1.79,2.58.1,3.48,0,7,0,10.42.21,11.16,4.37,20.64,13.24,27.4,9.44,7.2,9.17,7.24,18.57,0C144.63,122.93,148.4,112,147.74,100.05Z"/><path class="cls-1" d="M138.77,73.87A54,54,0,0,0,104.34,23c-1.91-.75-2.33-1.42-1.67-3.4.75-2.28,2-1.4,3.23-.92,23.74,9,39.4,33.83,37.28,58.89-.19,2.24-1,2.87-3.13,2.52-1.37-.23-1.69-.77-1.53-2S138.69,75.27,138.77,73.87Z"/><path class="cls-1" d="M26.07,72.48A58.55,58.55,0,0,1,63.43,18.71c1.33-.51,2.54-1.29,3.2,1,.5,1.74.44,2.49-1.47,3.26C43.28,31.73,30.33,51.3,30.6,75c0,1.61.19,2.94-2.16,2.89-1.6,0-2.54-.21-2.39-2.08C26.15,74.74,26.07,73.6,26.07,72.48Z"/><path class="cls-1" d="M84.19,132a64.94,64.94,0,0,1-9.54-.82c-1.9-.24-1.54-1.34-1.3-2.57s.29-2.28,2.21-1.93a51,51,0,0,0,22.52-.92c2.32-.62,2,1.12,2.5,2.27.77,1.63-.25,1.92-1.43,2.19A60.87,60.87,0,0,1,84.19,132Z"/><path class="cls-1" d="M120.72,121.42c-.4-.32-.71-.52-1-.77-2.13-2.12-4.21-4.28-6.38-6.35-1.41-1.33-.1-1.91.59-2.67s1.4-1.81,2.69-.49,2.57,3.82,4,3.51c1.71-.35,3.08-2.51,4.53-4,4.26-4.22,8.55-8.42,12.7-12.74,1.33-1.39,2.06-1,3.12.17s1.58,1.64.27,2.92c-6.48,6.37-12.88,12.83-19.32,19.26C121.62,120.69,121.19,121,120.72,121.42Z"/></svg>