<svg id="Capa_1" data-name="Capa 1" xmlns="http://www.w3.org/2000/svg" viewBox="0 0 346.25 216.84"><defs><style>.cls-1{fill:#d8d29b;}.cls-2{fill:#c6875e;}</style></defs><path class="cls-1" d="M193.31,195.55H154.38c-7.26,0-10-2.85-10.06-10.2,0-3.5-.06-7,0-10.48.11-5.47,3.37-8.76,8.86-8.76q40.11-.06,80.24,0c5.49,0,8.75,3.3,8.85,8.77q.12,6,0,12c-.11,5.5-3.29,8.66-8.86,8.68C220.05,195.59,206.68,195.55,193.31,195.55Zm-13.2-24.65c-8.77,0-17.54,0-26.31,0-3.54,0-4.62,1.1-4.65,4.65s-.05,7.18,0,10.77c0,3.31,1,4.39,4.23,4.39,17.94,0,35.88,0,53.82.06,1.9,0,2.33-.66,2.29-2.43-.1-4.88-.15-9.77,0-14.65.07-2.2-.5-2.89-2.79-2.85C197.85,171,189,170.9,180.11,170.9Zm44.69,19.83c2.89,0,5.77,0,8.66,0s4-1.38,4-4c0-3.89,0-7.77,0-11.65,0-2.64-1.25-4.14-4-4.15-5.78,0-11.55,0-17.33,0-1.36,0-2,.37-1.94,1.85.07,5.37.06,10.75,0,16.13,0,1.42.47,1.93,1.89,1.89C219,190.68,221.91,190.73,224.8,190.73Z"/><path class="cls-1" d="M115.44,195.55c-4.68,0-9.37,0-14,0-2.38,0-3.51-.92-3.41-3.37s.1-4.79,0-7.18c-.25-6.52,2.17-11.7,7.79-15.11,2.15-1.3.41-2.1-.1-2.95a11.65,11.65,0,0,1,18.72-13.79,11.44,11.44,0,0,1,.66,14.12c-1,1.45-.85,1.94.57,2.85A15.23,15.23,0,0,1,133,183.37c.06,3,0,6,0,9,0,2.26-1,3.26-3.25,3.23C125,195.51,120.23,195.55,115.44,195.55Zm-.14-4.81h5.39c8.18,0,8.18,0,7.44-8.24a11.16,11.16,0,0,0-8.11-9.69c-1.47-.37-2.27-.2-2.15,1.59.11,1.59-.11,3.21,0,4.78.2,2-.59,2.51-2.51,2.49s-2.54-.47-2.36-2.35c.15-1.58-.07-3.2,0-4.78.15-2-.71-2.18-2.31-1.65a11,11,0,0,0-7.6,7.77c-.75,2.63-.21,5.36-.39,8-.11,1.56.47,2.11,2,2.07C108.32,190.67,111.81,190.73,115.3,190.74Zm-6.56-30.15a6.78,6.78,0,0,0,6.63,7,6.88,6.88,0,0,0,7-6.7,6.76,6.76,0,0,0-6.69-6.92A6.64,6.64,0,0,0,108.74,160.59Z"/><path class="cls-2" d="M17,38.28l.22-1.39a5.31,5.31,0,0,1,.41-1.41,6.51,6.51,0,0,1,.75-1.28,7,7,0,0,1,1-1.09l1.12.8a13.93,13.93,0,0,0-.78,1.41,6.08,6.08,0,0,0-.48,1.55L19,38.28Zm3,0,.21-1.39a5.73,5.73,0,0,1,.42-1.41,6.05,6.05,0,0,1,.75-1.28,6.14,6.14,0,0,1,1-1.09l1.11.8a13.93,13.93,0,0,0-.78,1.41,6.51,6.51,0,0,0-.48,1.55L22,38.28Z"/><path class="cls-2" d="M32,34.22h2.42L32.7,44.58a6.44,6.44,0,0,1-.89,2.55A4.73,4.73,0,0,1,30,48.81a5.3,5.3,0,0,1-2.62.56A4.51,4.51,0,0,1,25,48.73a3.34,3.34,0,0,1-1.34-1.68,5.13,5.13,0,0,1-.24-2.45l1.77-10.38h2.42L25.89,44.61a4.4,4.4,0,0,0,0,1.31,1.63,1.63,0,0,0,.48,1,1.68,1.68,0,0,0,1.2.38A2.48,2.48,0,0,0,29,47a2.23,2.23,0,0,0,.86-1,5,5,0,0,0,.42-1.4Z"/><path class="cls-2" d="M38,40.56l-1.49,8.59H34.12L36,38.06h2.2Zm-.85,2.65-.65,0a11.88,11.88,0,0,1,.37-1.83,7,7,0,0,1,.76-1.77,4.05,4.05,0,0,1,1.25-1.32,3.07,3.07,0,0,1,1.84-.46,2.19,2.19,0,0,1,1.35.41,2.31,2.31,0,0,1,.73,1A4.37,4.37,0,0,1,43,40.59,10.79,10.79,0,0,1,43,42l-1.19,7.16H39.48L40.67,42a5.89,5.89,0,0,0,0-.94,1.45,1.45,0,0,0-.26-.81.91.91,0,0,0-.82-.34,1.59,1.59,0,0,0-1.07.3,2.93,2.93,0,0,0-.73.86,5.7,5.7,0,0,0-.45,1.12C37.24,42.54,37.16,42.89,37.1,43.21Z"/><path class="cls-2" d="M53.07,47.37a1.52,1.52,0,0,0,1-.25,1.79,1.79,0,0,0,.59-.71,3.82,3.82,0,0,0,.3-.94h2.2a4.86,4.86,0,0,1-.69,2,4,4,0,0,1-3.49,1.91,3.65,3.65,0,0,1-1.86-.48A3,3,0,0,1,50,47.69,5,5,0,0,1,49.46,46a8.06,8.06,0,0,1,0-1.9l.12-1a9.48,9.48,0,0,1,.48-2A6.07,6.07,0,0,1,51,39.4a4.12,4.12,0,0,1,3.5-1.55,3.17,3.17,0,0,1,2,.62,3.25,3.25,0,0,1,1,1.53,5.72,5.72,0,0,1,.25,2H55.56a5.37,5.37,0,0,0-.05-1,1.66,1.66,0,0,0-.34-.85,1.12,1.12,0,0,0-.88-.37,1.78,1.78,0,0,0-1.12.27,2,2,0,0,0-.68.79A4,4,0,0,0,52.11,42a9.37,9.37,0,0,0-.19,1.12l-.12,1c0,.28,0,.61-.08,1a5.29,5.29,0,0,0,0,1.06,1.61,1.61,0,0,0,.37.85A1.25,1.25,0,0,0,53.07,47.37Z"/><path class="cls-2" d="M58.86,44.05l.11-.88a8.44,8.44,0,0,1,.49-2,6.55,6.55,0,0,1,1-1.73A4.51,4.51,0,0,1,62,38.26a4.13,4.13,0,0,1,2-.41,3.45,3.45,0,0,1,1.83.49A3.39,3.39,0,0,1,67,39.58a5.12,5.12,0,0,1,.52,1.7,7.88,7.88,0,0,1,0,1.88l-.1.89a8.4,8.4,0,0,1-.49,2,6.49,6.49,0,0,1-1,1.72A4.44,4.44,0,0,1,64.43,49a4.35,4.35,0,0,1-2,.4,3.48,3.48,0,0,1-1.85-.5,3.26,3.26,0,0,1-1.13-1.23,5,5,0,0,1-.53-1.7A7.88,7.88,0,0,1,58.86,44.05Zm2.45-.89-.1.9a9.25,9.25,0,0,0-.05,1,4.23,4.23,0,0,0,.1,1.07,1.87,1.87,0,0,0,.42.87,1.22,1.22,0,0,0,.9.39,1.76,1.76,0,0,0,1.12-.28,2.37,2.37,0,0,0,.74-.83,5,5,0,0,0,.43-1.1A8.69,8.69,0,0,0,65.08,44l.1-.9c0-.27,0-.59,0-1a4.8,4.8,0,0,0-.11-1.07,1.86,1.86,0,0,0-.42-.88,1.21,1.21,0,0,0-.91-.39,1.72,1.72,0,0,0-1.08.29A2.39,2.39,0,0,0,62,41a5.38,5.38,0,0,0-.45,1.11A6.91,6.91,0,0,0,61.31,43.16Z"/><path class="cls-2" d="M72.27,40.56l-1.49,8.59H68.44l1.92-11.09h2.2Zm-.85,2.65-.65,0a11.88,11.88,0,0,1,.37-1.83,7,7,0,0,1,.76-1.77,4.05,4.05,0,0,1,1.25-1.32A3.07,3.07,0,0,1,75,37.85a2.21,2.21,0,0,1,1.35.41,2.31,2.31,0,0,1,.73,1,4.37,4.37,0,0,1,.28,1.33,10.79,10.79,0,0,1,0,1.4l-1.19,7.16H73.8L75,42A5.89,5.89,0,0,0,75,41a1.45,1.45,0,0,0-.26-.81.92.92,0,0,0-.82-.34,1.59,1.59,0,0,0-1.07.3,2.93,2.93,0,0,0-.73.86,5.7,5.7,0,0,0-.45,1.12A9.32,9.32,0,0,0,71.42,43.21Z"/><path class="cls-2" d="M84.71,38.06l-.33,1.84H79.09l.33-1.84Zm-3.38-2.72h2.33L81.84,46.08a3.27,3.27,0,0,0,0,.54.88.88,0,0,0,.13.45.53.53,0,0,0,.47.19l.35,0,.36-.07-.21,1.95a3.05,3.05,0,0,1-.66.17,3.82,3.82,0,0,1-.68.05,1.88,1.88,0,0,1-1.35-.48,2.2,2.2,0,0,1-.63-1.17,4.82,4.82,0,0,1-.08-1.47Z"/><path class="cls-2" d="M88.83,49.36A4.05,4.05,0,0,1,87,48.92a3,3,0,0,1-1.18-1.11,4.43,4.43,0,0,1-.59-1.61,7.39,7.39,0,0,1-.06-1.89l.12-1.07a9.88,9.88,0,0,1,.48-2,6.41,6.41,0,0,1,1-1.75,4.1,4.1,0,0,1,1.46-1.22,4.26,4.26,0,0,1,2-.43,3.27,3.27,0,0,1,1.82.51,2.82,2.82,0,0,1,1,1.24,5.17,5.17,0,0,1,.41,1.71,9.65,9.65,0,0,1-.06,1.86l-.18,1.21h-7l.32-1.81h4.61l0-.28a5.42,5.42,0,0,0,0-1.07,1.88,1.88,0,0,0-.31-.94,1.13,1.13,0,0,0-.93-.44,1.77,1.77,0,0,0-1.13.29,2.18,2.18,0,0,0-.7.85,5.18,5.18,0,0,0-.38,1.13c-.08.4-.14.78-.18,1.13l-.12,1.08a6,6,0,0,0-.06,1,3.71,3.71,0,0,0,.16,1,1.49,1.49,0,0,0,.51.72,1.66,1.66,0,0,0,1,.3,2.87,2.87,0,0,0,1.37-.3,5,5,0,0,0,1.15-.82l.92,1.48a3.59,3.59,0,0,1-1,.95,5.11,5.11,0,0,1-1.3.54A5.87,5.87,0,0,1,88.83,49.36Z"/><path class="cls-2" d="M94.79,44.05l.11-.88a8.44,8.44,0,0,1,.49-2,6.55,6.55,0,0,1,1-1.73,4.58,4.58,0,0,1,1.5-1.2,4.19,4.19,0,0,1,2-.41,3.45,3.45,0,0,1,1.83.49,3.37,3.37,0,0,1,1.13,1.24,4.91,4.91,0,0,1,.53,1.7,7.88,7.88,0,0,1,0,1.88l-.1.89a8.4,8.4,0,0,1-.49,2,6.49,6.49,0,0,1-1,1.72,4.54,4.54,0,0,1-1.49,1.2,4.37,4.37,0,0,1-2,.4,3.48,3.48,0,0,1-1.85-.5,3.18,3.18,0,0,1-1.13-1.23,5.21,5.21,0,0,1-.54-1.7A8.44,8.44,0,0,1,94.79,44.05Zm2.45-.89-.1.9c0,.28,0,.61-.06,1a4.74,4.74,0,0,0,.11,1.07,1.78,1.78,0,0,0,.42.87,1.22,1.22,0,0,0,.9.39,1.77,1.77,0,0,0,1.12-.28,2.37,2.37,0,0,0,.74-.83,5.59,5.59,0,0,0,.43-1.1A8.69,8.69,0,0,0,101,44l.09-.9q0-.41.06-1a4.8,4.8,0,0,0-.11-1.07,1.86,1.86,0,0,0-.42-.88,1.21,1.21,0,0,0-.91-.39,1.77,1.77,0,0,0-1.09.29,2.47,2.47,0,0,0-.72.84,4.88,4.88,0,0,0-.45,1.11A6.91,6.91,0,0,0,97.24,43.16Z"/><path class="cls-2" d="M113.07,40.31l-1.54,8.84h-2.32l1.92-11.09h2.22ZM116,38l-.28,2.35-.44-.07a2.87,2.87,0,0,0-1.4.18,2.15,2.15,0,0,0-.7.58,3.65,3.65,0,0,0-.47.82,5.9,5.9,0,0,0-.29.93l-.51,0c.06-.43.15-.94.27-1.51a8.64,8.64,0,0,1,.55-1.65,3.69,3.69,0,0,1,1-1.31,2.13,2.13,0,0,1,1.49-.49,2.7,2.7,0,0,1,.41,0Z"/><path class="cls-2" d="M120.09,38.06l-1.92,11.09h-2.34l1.93-11.09Zm-1.94-2.88a1.4,1.4,0,0,1,.36-1,1.22,1.22,0,0,1,.94-.42,1.19,1.19,0,0,1,.92.37,1.45,1.45,0,0,1,0,1.9,1.22,1.22,0,0,1-.93.41,1.16,1.16,0,0,1-.92-.36A1.3,1.3,0,0,1,118.15,35.18Z"/><path class="cls-2" d="M128.26,38.06h2.13l-1.9,11.13a5.69,5.69,0,0,1-.78,2.32A4.11,4.11,0,0,1,126.09,53a5.16,5.16,0,0,1-3.57.31,4.56,4.56,0,0,1-1.12-.46,3.73,3.73,0,0,1-.93-.72l1-1.66a3.2,3.2,0,0,0,1,.76,2.8,2.8,0,0,0,1.2.3,2.32,2.32,0,0,0,1.27-.27,2.06,2.06,0,0,0,.81-.82,3.49,3.49,0,0,0,.39-1.23l1.49-8.8Zm-7.08,6,.1-.87a12,12,0,0,1,.4-1.89,7.1,7.1,0,0,1,.78-1.77,3.71,3.71,0,0,1,1.27-1.28,3.41,3.41,0,0,1,1.91-.45,2.29,2.29,0,0,1,1.54.56,3.11,3.11,0,0,1,.83,1.32,7,7,0,0,1,.31,1.68,14.93,14.93,0,0,1,0,1.64l-.17,1.21a11.25,11.25,0,0,1-.42,1.69,8.34,8.34,0,0,1-.77,1.69,4.27,4.27,0,0,1-1.19,1.27,2.84,2.84,0,0,1-1.71.48,2.66,2.66,0,0,1-1.66-.54,3,3,0,0,1-.9-1.31,5.9,5.9,0,0,1-.34-1.7A11,11,0,0,1,121.18,44.1Zm2.44-.91-.09.88c0,.31-.06.64-.08,1a4.61,4.61,0,0,0,.08,1.06A1.76,1.76,0,0,0,124,47a1.28,1.28,0,0,0,.92.36,1.79,1.79,0,0,0,1.2-.34,2.76,2.76,0,0,0,.81-1,4.86,4.86,0,0,0,.43-1.19l.37-2.41a4,4,0,0,0,0-.84,3.18,3.18,0,0,0-.23-.83,1.6,1.6,0,0,0-.5-.62,1.28,1.28,0,0,0-.8-.27,1.83,1.83,0,0,0-1.14.26,2.2,2.2,0,0,0-.73.81,4.17,4.17,0,0,0-.42,1.1A8.09,8.09,0,0,0,123.62,43.19Z"/><path class="cls-2" d="M137.21,44.18l.66,0a15.62,15.62,0,0,1-.33,1.8,6.9,6.9,0,0,1-.66,1.71,3.7,3.7,0,0,1-1.16,1.26,2.94,2.94,0,0,1-1.79.45,2.49,2.49,0,0,1-1.39-.41,2.35,2.35,0,0,1-.78-1,3.87,3.87,0,0,1-.31-1.34,7.36,7.36,0,0,1,0-1.41l1.2-7.17H135l-1.2,7.19,0,.63a2.93,2.93,0,0,0,.07.67,1,1,0,0,0,.27.54.87.87,0,0,0,.59.24,1.9,1.9,0,0,0,1.4-.45,3.08,3.08,0,0,0,.77-1.24A7.36,7.36,0,0,0,137.21,44.18Zm-.65,2.22L138,38.06h2.35l-1.93,11.09h-2.2Z"/><path class="cls-2" d="M144.59,40.31l-1.54,8.84h-2.32l1.92-11.09h2.22ZM147.53,38l-.28,2.35-.44-.07a2,2,0,0,0-.42,0,2,2,0,0,0-1,.2,2.15,2.15,0,0,0-.7.58,3.65,3.65,0,0,0-.47.82,5.9,5.9,0,0,0-.29.93l-.51,0c.06-.43.15-.94.27-1.51a8.64,8.64,0,0,1,.55-1.65,3.69,3.69,0,0,1,1-1.31,2.13,2.13,0,0,1,1.49-.49,2.7,2.7,0,0,1,.41,0Z"/><path class="cls-2" d="M147.58,44.05l.11-.88a8.44,8.44,0,0,1,.49-2,6.55,6.55,0,0,1,1-1.73,4.38,4.38,0,0,1,1.5-1.2,4.18,4.18,0,0,1,2-.41,3.45,3.45,0,0,1,1.83.49,3.31,3.31,0,0,1,1.14,1.24,4.91,4.91,0,0,1,.53,1.7,7.88,7.88,0,0,1,0,1.88l-.1.89a8,8,0,0,1-.5,2,6.2,6.2,0,0,1-1,1.72,4.58,4.58,0,0,1-1.5,1.2,4.32,4.32,0,0,1-2,.4,3.44,3.44,0,0,1-1.84-.5,3.18,3.18,0,0,1-1.13-1.23,5,5,0,0,1-.54-1.7A7.88,7.88,0,0,1,147.58,44.05Zm2.45-.89-.11.9c0,.28,0,.61,0,1a4.74,4.74,0,0,0,.11,1.07,1.78,1.78,0,0,0,.42.87,1.22,1.22,0,0,0,.9.39,1.77,1.77,0,0,0,1.12-.28,2.25,2.25,0,0,0,.73-.83,4.58,4.58,0,0,0,.43-1.1A7.35,7.35,0,0,0,153.8,44l.09-.9a8.72,8.72,0,0,0,.05-1,4.27,4.27,0,0,0-.1-1.07,1.86,1.86,0,0,0-.42-.88,1.21,1.21,0,0,0-.91-.39,1.75,1.75,0,0,0-1.09.29,2.5,2.5,0,0,0-.73.84,4.85,4.85,0,0,0-.44,1.11A6.91,6.91,0,0,0,150,43.16Z"/><path class="cls-2" d="M162.72,46.17a1,1,0,0,0-.2-.78,2.29,2.29,0,0,0-.65-.53c-.25-.15-.49-.28-.71-.39a11.2,11.2,0,0,1-1-.55,5.06,5.06,0,0,1-.88-.69,2.52,2.52,0,0,1-.73-2,3.38,3.38,0,0,1,.38-1.4,3.47,3.47,0,0,1,.87-1.07,3.84,3.84,0,0,1,1.23-.66,4.61,4.61,0,0,1,1.44-.22,3.88,3.88,0,0,1,1.79.45,2.86,2.86,0,0,1,1.17,1.19,3.72,3.72,0,0,1,.39,1.81h-2.33a2.34,2.34,0,0,0-.08-.75A1.15,1.15,0,0,0,163,40a1.08,1.08,0,0,0-.73-.22,1.48,1.48,0,0,0-.73.16,1.56,1.56,0,0,0-.54.48,1.7,1.7,0,0,0-.27.71.87.87,0,0,0,.08.56,1.3,1.3,0,0,0,.36.42,3,3,0,0,0,.52.32l.5.24a12,12,0,0,1,1.41.79,3.43,3.43,0,0,1,1,1.05A2.58,2.58,0,0,1,165,46a3.1,3.1,0,0,1-.39,1.45,3.36,3.36,0,0,1-.93,1.05,4.1,4.1,0,0,1-1.29.64,5.07,5.07,0,0,1-1.5.2,4,4,0,0,1-1.85-.49,3.2,3.2,0,0,1-1.24-1.26,3.58,3.58,0,0,1-.41-1.85h2.26a2.42,2.42,0,0,0,.11.87,1.12,1.12,0,0,0,.43.62,1.48,1.48,0,0,0,.85.23,2.21,2.21,0,0,0,.78-.16,1.52,1.52,0,0,0,.61-.44A1.57,1.57,0,0,0,162.72,46.17Z"/><path class="cls-2" d="M167,44.05l.11-.88a8.44,8.44,0,0,1,.49-2,6.55,6.55,0,0,1,1-1.73,4.58,4.58,0,0,1,1.5-1.2,4.18,4.18,0,0,1,2-.41,3.4,3.4,0,0,1,1.83.49,3.31,3.31,0,0,1,1.14,1.24,4.91,4.91,0,0,1,.53,1.7,7.88,7.88,0,0,1,0,1.88l-.1.89a8.4,8.4,0,0,1-.49,2,6.49,6.49,0,0,1-1,1.72A4.54,4.54,0,0,1,172.6,49a4.37,4.37,0,0,1-2,.4,3.45,3.45,0,0,1-1.85-.5,3.18,3.18,0,0,1-1.13-1.23,5.21,5.21,0,0,1-.54-1.7A8.44,8.44,0,0,1,167,44.05Zm2.45-.89-.11.9c0,.28,0,.61-.05,1a4.74,4.74,0,0,0,.11,1.07,1.78,1.78,0,0,0,.42.87,1.22,1.22,0,0,0,.9.39,1.77,1.77,0,0,0,1.12-.28,2.37,2.37,0,0,0,.74-.83,5.59,5.59,0,0,0,.43-1.1,8.69,8.69,0,0,0,.21-1.12l.09-.9a8.72,8.72,0,0,0,0-1,4.27,4.27,0,0,0-.1-1.07,1.86,1.86,0,0,0-.42-.88,1.21,1.21,0,0,0-.91-.39,1.77,1.77,0,0,0-1.09.29,2.61,2.61,0,0,0-.73.84,4.85,4.85,0,0,0-.44,1.11A6.91,6.91,0,0,0,169.48,43.16Z"/><path class="cls-2" d="M189.08,38.06h2.14l-1.9,11.13a6,6,0,0,1-.78,2.32A4.11,4.11,0,0,1,186.92,53a5.16,5.16,0,0,1-3.57.31,4.63,4.63,0,0,1-1.13-.46,3.86,3.86,0,0,1-.92-.72l1-1.66a3.32,3.32,0,0,0,1,.76,2.84,2.84,0,0,0,1.21.3,2.32,2.32,0,0,0,1.27-.27,2.13,2.13,0,0,0,.81-.82,3.7,3.7,0,0,0,.39-1.23l1.49-8.8Zm-7.07,6,.1-.87a13.24,13.24,0,0,1,.39-1.89,7.1,7.1,0,0,1,.78-1.77,3.82,3.82,0,0,1,1.28-1.28,3.41,3.41,0,0,1,1.91-.45,2.29,2.29,0,0,1,1.54.56,3.09,3.09,0,0,1,.82,1.32,6.17,6.17,0,0,1,.31,1.68,11.21,11.21,0,0,1,0,1.64L189,44.25a11.34,11.34,0,0,1-.43,1.69,7.83,7.83,0,0,1-.77,1.69,4.15,4.15,0,0,1-1.19,1.27,2.81,2.81,0,0,1-1.7.48,2.64,2.64,0,0,1-1.66-.54,3,3,0,0,1-.9-1.31,5.91,5.91,0,0,1-.35-1.7A9.91,9.91,0,0,1,182,44.1Zm2.44-.91-.09.88c0,.31-.06.64-.08,1a4.11,4.11,0,0,0,.08,1.06,1.66,1.66,0,0,0,.41.84,1.32,1.32,0,0,0,.93.36,1.83,1.83,0,0,0,1.2-.34,2.84,2.84,0,0,0,.8-1,4.51,4.51,0,0,0,.44-1.19l.37-2.41a4,4,0,0,0,0-.84,2.84,2.84,0,0,0-.24-.83,1.58,1.58,0,0,0-.49-.62,1.3,1.3,0,0,0-.8-.27,1.8,1.8,0,0,0-1.14.26,2.23,2.23,0,0,0-.74.81,5,5,0,0,0-.42,1.1A9.76,9.76,0,0,0,184.45,43.19Z"/><path class="cls-2" d="M198.1,42.39,197.84,44h-1a2.9,2.9,0,0,0-.89.13,2.69,2.69,0,0,0-.78.38,2.28,2.28,0,0,0-.57.63,2.14,2.14,0,0,0-.29.86,2.08,2.08,0,0,0,0,.71,1,1,0,0,0,.29.54.9.9,0,0,0,.66.21,2.13,2.13,0,0,0,.88-.2,2.43,2.43,0,0,0,.75-.55,1.6,1.6,0,0,0,.38-.81l.4,1a4.94,4.94,0,0,1-.43,1,3.25,3.25,0,0,1-.66.81,2.72,2.72,0,0,1-.86.56,2.59,2.59,0,0,1-1,.2,2.78,2.78,0,0,1-1.55-.45,2.65,2.65,0,0,1-1-1.16,3.67,3.67,0,0,1-.26-1.6,3.85,3.85,0,0,1,.46-1.7,3.54,3.54,0,0,1,1.07-1.17,4.73,4.73,0,0,1,1.49-.69,6.7,6.7,0,0,1,1.74-.23ZM197,46.89l.88-5.54a3.27,3.27,0,0,0,0-.77,1.07,1.07,0,0,0-.29-.58,1,1,0,0,0-.7-.22,1.43,1.43,0,0,0-.79.19,1.45,1.45,0,0,0-.53.54,2.05,2.05,0,0,0-.27.74l-2.32,0a3.36,3.36,0,0,1,.42-1.43,3.55,3.55,0,0,1,.94-1.1,4.09,4.09,0,0,1,1.29-.68,4.92,4.92,0,0,1,1.48-.23,3.55,3.55,0,0,1,1.81.47A2.56,2.56,0,0,1,200,39.53a3.85,3.85,0,0,1,.23,1.87l-.84,5.19a11.69,11.69,0,0,0-.12,1.19,4.33,4.33,0,0,0,.11,1.19l0,.18h-2.3a4.26,4.26,0,0,1-.13-1.13A8.75,8.75,0,0,1,197,46.89Z"/><path class="cls-2" d="M205.14,40.31l-1.54,8.84h-2.32l1.92-11.09h2.22ZM208.08,38l-.28,2.35-.44-.07a2.87,2.87,0,0,0-1.4.18,2.15,2.15,0,0,0-.7.58,3.65,3.65,0,0,0-.47.82,5.9,5.9,0,0,0-.29.93l-.51,0c.06-.43.15-.94.27-1.51a8.64,8.64,0,0,1,.55-1.65,3.69,3.69,0,0,1,1-1.31,2.13,2.13,0,0,1,1.49-.49,2.7,2.7,0,0,1,.41,0Z"/><path class="cls-2" d="M213.85,42.39,213.59,44h-1a2.9,2.9,0,0,0-.89.13,2.69,2.69,0,0,0-.78.38,2.28,2.28,0,0,0-.57.63,2.14,2.14,0,0,0-.29.86,2.08,2.08,0,0,0,0,.71,1,1,0,0,0,.29.54.9.9,0,0,0,.66.21,2.13,2.13,0,0,0,.88-.2,2.43,2.43,0,0,0,.75-.55,1.6,1.6,0,0,0,.38-.81l.4,1a4.94,4.94,0,0,1-.43,1,3.25,3.25,0,0,1-.66.81,2.72,2.72,0,0,1-.86.56,2.59,2.59,0,0,1-1,.2,2.78,2.78,0,0,1-1.55-.45,2.65,2.65,0,0,1-1-1.16,3.67,3.67,0,0,1-.26-1.6,3.85,3.85,0,0,1,.46-1.7,3.54,3.54,0,0,1,1.07-1.17,4.73,4.73,0,0,1,1.49-.69,6.7,6.7,0,0,1,1.74-.23Zm-1.09,4.5.88-5.54a3.27,3.27,0,0,0,0-.77,1.07,1.07,0,0,0-.29-.58,1,1,0,0,0-.7-.22,1.43,1.43,0,0,0-.79.19,1.45,1.45,0,0,0-.53.54,2.05,2.05,0,0,0-.27.74l-2.32,0a3.36,3.36,0,0,1,.42-1.43,3.55,3.55,0,0,1,.94-1.1,4.09,4.09,0,0,1,1.29-.68,4.92,4.92,0,0,1,1.48-.23,3.55,3.55,0,0,1,1.81.47,2.56,2.56,0,0,1,1.07,1.23A3.85,3.85,0,0,1,216,41.4l-.84,5.19a11.69,11.69,0,0,0-.12,1.19,4.33,4.33,0,0,0,.11,1.19l0,.18h-2.3a4.26,4.26,0,0,1-.13-1.13A8.75,8.75,0,0,1,212.76,46.89Z"/><path class="cls-2" d="M220.82,40.56l-1.49,8.59H217l1.93-11.09h2.2ZM220,43.21l-.65,0a10.8,10.8,0,0,1,.37-1.83,7,7,0,0,1,.76-1.77,4.05,4.05,0,0,1,1.25-1.32,3.07,3.07,0,0,1,1.84-.46,2.23,2.23,0,0,1,1.35.41,2.31,2.31,0,0,1,.73,1,4.37,4.37,0,0,1,.28,1.33,10.79,10.79,0,0,1,0,1.4l-1.19,7.16h-2.33L223.54,42a7.35,7.35,0,0,0,0-.94,1.45,1.45,0,0,0-.26-.81.92.92,0,0,0-.82-.34,1.59,1.59,0,0,0-1.07.3,2.93,2.93,0,0,0-.73.86,5.74,5.74,0,0,0-.46,1.12C220.11,42.54,220,42.89,220,43.21Z"/><path class="cls-2" d="M233.26,38.06l-.33,1.84h-5.29l.33-1.84Zm-3.39-2.72h2.34l-1.82,10.74a3.27,3.27,0,0,0,0,.54.8.8,0,0,0,.13.45.53.53,0,0,0,.47.19l.34,0,.37-.07-.21,1.95a3.21,3.21,0,0,1-.66.17,3.82,3.82,0,0,1-.68.05,1.88,1.88,0,0,1-1.35-.48,2.2,2.2,0,0,1-.63-1.17,4.82,4.82,0,0,1-.08-1.47Z"/><path class="cls-2" d="M237.51,38.06l-1.93,11.09h-2.33l1.92-11.09Zm-1.95-2.88a1.4,1.4,0,0,1,.36-1,1.26,1.26,0,0,1,1-.42,1.15,1.15,0,0,1,.91.37,1.32,1.32,0,0,1,.36.95,1.36,1.36,0,0,1-.36,1,1.22,1.22,0,0,1-.93.41,1.15,1.15,0,0,1-.92-.36A1.35,1.35,0,0,1,235.56,35.18Z"/><path class="cls-2" d="M246.67,39.74l-7.35,9.41h-1.58l.31-1.73,7.3-9.36H247Zm-1.15,7.4-.36,2h-6.7l.35-2Zm.55-9.08-.35,2h-6.34l.36-2Z"/><path class="cls-2" d="M253.62,42.39,253.37,44h-1a3,3,0,0,0-.89.13,2.64,2.64,0,0,0-.77.38,2.28,2.28,0,0,0-.57.63,2,2,0,0,0-.29.86,2.09,2.09,0,0,0,0,.71,1,1,0,0,0,.29.54.93.93,0,0,0,.66.21,2.17,2.17,0,0,0,.89-.2,2.27,2.27,0,0,0,.74-.55,1.53,1.53,0,0,0,.38-.81l.4,1a4.38,4.38,0,0,1-.42,1,3.49,3.49,0,0,1-.66.81,2.88,2.88,0,0,1-.87.56,2.57,2.57,0,0,1-1,.2,2.81,2.81,0,0,1-1.56-.45,2.7,2.7,0,0,1-1-1.16,3.4,3.4,0,0,1-.26-1.6,3.72,3.72,0,0,1,.46-1.7A3.44,3.44,0,0,1,249,43.3a4.53,4.53,0,0,1,1.49-.69,6.64,6.64,0,0,1,1.74-.23Zm-1.08,4.5.88-5.54a3.25,3.25,0,0,0,0-.77,1,1,0,0,0-.29-.58,1,1,0,0,0-.7-.22,1.43,1.43,0,0,0-.79.19,1.52,1.52,0,0,0-.53.54,2.26,2.26,0,0,0-.27.74l-2.31,0a3.36,3.36,0,0,1,.42-1.43,3.66,3.66,0,0,1,.93-1.1,4.14,4.14,0,0,1,1.3-.68,4.82,4.82,0,0,1,1.48-.23,3.48,3.48,0,0,1,1.8.47,2.56,2.56,0,0,1,1.07,1.23,3.73,3.73,0,0,1,.23,1.87l-.84,5.19a9.4,9.4,0,0,0-.11,1.19,4.32,4.32,0,0,0,.1,1.19l0,.18h-2.29a4.27,4.27,0,0,1-.14-1.13A8.77,8.77,0,0,1,252.54,46.89Z"/><path class="cls-2" d="M262.13,44.07l.11-.87a14.77,14.77,0,0,1,.38-1.87,6.84,6.84,0,0,1,.75-1.77,3.85,3.85,0,0,1,1.27-1.27,3.54,3.54,0,0,1,1.9-.45,2.26,2.26,0,0,1,1.52.56,3.19,3.19,0,0,1,.84,1.34,6.2,6.2,0,0,1,.34,1.67,12.59,12.59,0,0,1,0,1.62l-.15,1.22a14.78,14.78,0,0,1-.45,1.69,7.38,7.38,0,0,1-.77,1.69,4.18,4.18,0,0,1-1.2,1.27,2.85,2.85,0,0,1-1.7.48,2.72,2.72,0,0,1-1.68-.56,2.82,2.82,0,0,1-.88-1.3,5.83,5.83,0,0,1-.32-1.7A12.64,12.64,0,0,1,262.13,44.07Zm2.44-.87-.09.89c0,.28-.05.61-.06,1a4.83,4.83,0,0,0,.06,1.08,1.59,1.59,0,0,0,.39.86,1.28,1.28,0,0,0,.92.37A1.77,1.77,0,0,0,267,47a2.76,2.76,0,0,0,.8-1,4.58,4.58,0,0,0,.44-1.2l.36-2.4a4.79,4.79,0,0,0,0-.84,3.11,3.11,0,0,0-.23-.82,1.83,1.83,0,0,0-.48-.64,1.27,1.27,0,0,0-.8-.28,1.8,1.8,0,0,0-1.14.28,2.25,2.25,0,0,0-.72.83,5.27,5.27,0,0,0-.41,1.11C264.68,42.46,264.62,42.84,264.57,43.2Zm1.69,10.22,2.3-13.29.61-2.07h2.1L268.6,53.42Z"/><path class="cls-2" d="M278.18,44.18l.66,0a15.62,15.62,0,0,1-.33,1.8,6.9,6.9,0,0,1-.66,1.71,3.6,3.6,0,0,1-1.16,1.26,2.94,2.94,0,0,1-1.79.45,2.51,2.51,0,0,1-1.39-.41,2.43,2.43,0,0,1-.78-1,4.11,4.11,0,0,1-.31-1.34,7.36,7.36,0,0,1,0-1.41l1.2-7.17H276l-1.2,7.19q0,.3,0,.63a2.46,2.46,0,0,0,.06.67,1.07,1.07,0,0,0,.27.54.87.87,0,0,0,.59.24,1.88,1.88,0,0,0,1.4-.45,3.08,3.08,0,0,0,.77-1.24A7.36,7.36,0,0,0,278.18,44.18Zm-.65,2.22L279,38.06h2.35L279.4,49.15h-2.19Z"/><path class="cls-2" d="M286,49.36a4,4,0,0,1-1.85-.44,3,3,0,0,1-1.19-1.11,4.62,4.62,0,0,1-.59-1.61,7.39,7.39,0,0,1-.06-1.89l.12-1.07a9.28,9.28,0,0,1,.49-2,6.13,6.13,0,0,1,.94-1.75,4.19,4.19,0,0,1,1.46-1.22,4.27,4.27,0,0,1,2.05-.43,3.29,3.29,0,0,1,1.82.51,3,3,0,0,1,1,1.24,5.17,5.17,0,0,1,.4,1.71,10.52,10.52,0,0,1-.05,1.86l-.19,1.21h-7l.33-1.81h4.6l.05-.28a5.42,5.42,0,0,0,0-1.07,1.88,1.88,0,0,0-.31-.94,1.13,1.13,0,0,0-.93-.44,1.77,1.77,0,0,0-1.13.29,2.16,2.16,0,0,0-.69.85,4.7,4.7,0,0,0-.38,1.13c-.08.4-.15.78-.19,1.13l-.12,1.08a6,6,0,0,0-.06,1,3.34,3.34,0,0,0,.17,1,1.49,1.49,0,0,0,.51.72,1.61,1.61,0,0,0,1,.3,2.84,2.84,0,0,0,1.37-.3,4.75,4.75,0,0,0,1.15-.82l.93,1.48a3.76,3.76,0,0,1-1,.95,4.89,4.89,0,0,1-1.29.54A6,6,0,0,1,286,49.36Z"/><path class="cls-2" d="M21.42,59.06l-.33,1.84H15.8l.33-1.84ZM18,56.34h2.34L18.55,67.08a2.45,2.45,0,0,0,0,.54.79.79,0,0,0,.12.45.55.55,0,0,0,.48.19l.34,0,.36-.07-.2,2a3.21,3.21,0,0,1-.66.17,3.89,3.89,0,0,1-.68,0,1.92,1.92,0,0,1-1.36-.48,2.25,2.25,0,0,1-.62-1.17,4.82,4.82,0,0,1-.09-1.47Z"/><path class="cls-2" d="M21.64,65.05l.11-.88a8.44,8.44,0,0,1,.49-2,6.55,6.55,0,0,1,1-1.73,4.51,4.51,0,0,1,1.51-1.2,4.13,4.13,0,0,1,2-.41,3.45,3.45,0,0,1,1.83.49,3.37,3.37,0,0,1,1.13,1.24,4.91,4.91,0,0,1,.53,1.7,7.88,7.88,0,0,1,0,1.88l-.1.89a8.4,8.4,0,0,1-.49,2,6.49,6.49,0,0,1-1,1.72A4.44,4.44,0,0,1,27.21,70a4.37,4.37,0,0,1-2,.4,3.48,3.48,0,0,1-1.85-.5,3.26,3.26,0,0,1-1.13-1.23,5.21,5.21,0,0,1-.54-1.7A8.44,8.44,0,0,1,21.64,65.05Zm2.45-.89-.1.9a9.25,9.25,0,0,0,0,1,4.23,4.23,0,0,0,.1,1.07,1.78,1.78,0,0,0,.42.87,1.22,1.22,0,0,0,.9.39,1.77,1.77,0,0,0,1.12-.28,2.37,2.37,0,0,0,.74-.83,5.59,5.59,0,0,0,.43-1.1A8.69,8.69,0,0,0,27.86,65l.1-.9c0-.27,0-.59.05-1a4.8,4.8,0,0,0-.11-1.07,1.86,1.86,0,0,0-.42-.88,1.21,1.21,0,0,0-.91-.39,1.77,1.77,0,0,0-1.09.29,2.47,2.47,0,0,0-.72.84,4.88,4.88,0,0,0-.45,1.11A6.91,6.91,0,0,0,24.09,64.16Z"/><path class="cls-2" d="M31.79,65.05l.1-.86a13.14,13.14,0,0,1,.39-1.86A7,7,0,0,1,33,60.58,3.6,3.6,0,0,1,34.3,59.3a3.3,3.3,0,0,1,1.88-.45,2.15,2.15,0,0,1,1.5.56,3.34,3.34,0,0,1,.83,1.34,6.76,6.76,0,0,1,.33,1.68,10.79,10.79,0,0,1,0,1.61l-.15,1.21a12.87,12.87,0,0,1-.42,1.68,7.48,7.48,0,0,1-.78,1.7,4.22,4.22,0,0,1-1.2,1.28,2.76,2.76,0,0,1-1.68.46A2.63,2.63,0,0,1,33,69.82a2.93,2.93,0,0,1-.89-1.33,5.9,5.9,0,0,1-.32-1.71A11,11,0,0,1,31.79,65.05Zm2.45-.87-.09.89c0,.3-.06.63-.08,1a4.17,4.17,0,0,0,.06,1.06,1.71,1.71,0,0,0,.39.85,1.17,1.17,0,0,0,.92.36A1.66,1.66,0,0,0,36.6,68a3.05,3.05,0,0,0,.78-1,5,5,0,0,0,.44-1.16l.37-2.41a8.07,8.07,0,0,0,0-.83,3.2,3.2,0,0,0-.22-.82,1.83,1.83,0,0,0-.48-.64,1.34,1.34,0,0,0-.79-.27,1.73,1.73,0,0,0-1.12.26,2.1,2.1,0,0,0-.71.82,5,5,0,0,0-.4,1.1A8.47,8.47,0,0,0,34.24,64.18Zm2.85,3.53,2.3-13.31h2.35L39,70.15H36.9Z"/><path class="cls-2" d="M41.93,65.05l.11-.88a8.46,8.46,0,0,1,.5-2,6,6,0,0,1,1-1.73,4.38,4.38,0,0,1,1.5-1.2,4.15,4.15,0,0,1,2-.41,3.45,3.45,0,0,1,1.83.49A3.31,3.31,0,0,1,50,60.58a4.9,4.9,0,0,1,.52,1.7,7.88,7.88,0,0,1,0,1.88l-.11.89A7.94,7.94,0,0,1,50,67a6.49,6.49,0,0,1-1,1.72A4.44,4.44,0,0,1,47.5,70a4.35,4.35,0,0,1-2,.4,3.48,3.48,0,0,1-1.85-.5,3.26,3.26,0,0,1-1.13-1.23,5,5,0,0,1-.53-1.7A7.88,7.88,0,0,1,41.93,65.05Zm2.45-.89-.1.9a9.25,9.25,0,0,0-.05,1,4.23,4.23,0,0,0,.1,1.07,1.88,1.88,0,0,0,.43.87,1.18,1.18,0,0,0,.89.39,1.8,1.8,0,0,0,1.13-.28,2.45,2.45,0,0,0,.73-.83,5,5,0,0,0,.43-1.1A11,11,0,0,0,48.16,65l.09-.9c0-.27,0-.59,0-1a5.46,5.46,0,0,0-.1-1.07,2.06,2.06,0,0,0-.42-.88,1.23,1.23,0,0,0-.92-.39,1.72,1.72,0,0,0-1.08.29,2.39,2.39,0,0,0-.73.84,5.38,5.38,0,0,0-.45,1.11A8.29,8.29,0,0,0,44.38,64.16Z"/><path class="cls-2" d="M57.08,67.17a1,1,0,0,0-.2-.78,2.43,2.43,0,0,0-.65-.53c-.26-.15-.49-.28-.71-.39a11.39,11.39,0,0,1-1-.55,4.64,4.64,0,0,1-.87-.69,2.55,2.55,0,0,1-.58-.87,2.68,2.68,0,0,1-.16-1.17,3.39,3.39,0,0,1,.39-1.4,3.47,3.47,0,0,1,.87-1.07,3.84,3.84,0,0,1,1.23-.66,4.61,4.61,0,0,1,1.44-.22,3.92,3.92,0,0,1,1.79.45,2.86,2.86,0,0,1,1.17,1.19,3.61,3.61,0,0,1,.38,1.81H57.81a2.34,2.34,0,0,0-.07-.75,1.25,1.25,0,0,0-.36-.58,1.05,1.05,0,0,0-.72-.22,1.48,1.48,0,0,0-.73.16,1.56,1.56,0,0,0-.54.48,1.7,1.7,0,0,0-.27.71.87.87,0,0,0,.07.56,1.34,1.34,0,0,0,.37.42,3.36,3.36,0,0,0,.51.32l.5.24a10.54,10.54,0,0,1,1.41.79,3.47,3.47,0,0,1,1,1A2.51,2.51,0,0,1,59.33,67a3.1,3.1,0,0,1-.39,1.45,3.36,3.36,0,0,1-.93,1,4.1,4.1,0,0,1-1.29.64,5,5,0,0,1-1.5.2,4,4,0,0,1-1.84-.49,3.13,3.13,0,0,1-1.24-1.26,3.69,3.69,0,0,1-.42-1.85H54a2.67,2.67,0,0,0,.1.87,1.17,1.17,0,0,0,.43.62,1.5,1.5,0,0,0,.85.23,2.27,2.27,0,0,0,.79-.16,1.56,1.56,0,0,0,.6-.44A1.58,1.58,0,0,0,57.08,67.17Z"/><path class="cls-2" d="M69.48,61.31,68,70.15H65.62l1.92-11.09h2.22Zm3-2.34-.29,2.35-.44-.07a2,2,0,0,0-.42,0,1.93,1.93,0,0,0-1.67.78,3.68,3.68,0,0,0-.48.82,5.9,5.9,0,0,0-.29.93l-.51,0c.06-.43.15-.94.28-1.51a8,8,0,0,1,.55-1.65,3.55,3.55,0,0,1,1-1.31,2.14,2.14,0,0,1,1.5-.49,3.05,3.05,0,0,1,.41,0Z"/><path class="cls-2" d="M76.18,70.36a4.05,4.05,0,0,1-1.86-.44,3.1,3.1,0,0,1-1.19-1.11,4.61,4.61,0,0,1-.58-1.61,7.39,7.39,0,0,1-.06-1.89l.12-1.07a9.88,9.88,0,0,1,.48-2,6.15,6.15,0,0,1,1-1.75,4.1,4.1,0,0,1,1.46-1.22,4.23,4.23,0,0,1,2-.43,3.29,3.29,0,0,1,1.82.51,2.89,2.89,0,0,1,1,1.24,4.93,4.93,0,0,1,.4,1.71,9.64,9.64,0,0,1-.05,1.86l-.18,1.21h-7l.33-1.81H78.5l0-.28a5.43,5.43,0,0,0,0-1.07,1.78,1.78,0,0,0-.3-.94,1.16,1.16,0,0,0-.93-.44,1.75,1.75,0,0,0-1.13.29,2.1,2.1,0,0,0-.7.85,4.7,4.7,0,0,0-.38,1.13c-.08.4-.14.78-.18,1.13l-.13,1.08a7.18,7.18,0,0,0,0,1,3.34,3.34,0,0,0,.16,1,1.49,1.49,0,0,0,.51.72,1.64,1.64,0,0,0,1,.3,2.83,2.83,0,0,0,1.36-.3A4.8,4.8,0,0,0,79,67.23l.92,1.48a3.72,3.72,0,0,1-1,1,5.11,5.11,0,0,1-1.3.54A5.93,5.93,0,0,1,76.18,70.36Z"/><path class="cls-2" d="M89.21,59.06h2.13L89.45,70.19a6,6,0,0,1-.78,2.32A4.25,4.25,0,0,1,87.05,74a4.74,4.74,0,0,1-2.41.49,4.89,4.89,0,0,1-1.17-.18,4.72,4.72,0,0,1-1.12-.46,3.86,3.86,0,0,1-.92-.72l1-1.66a3.2,3.2,0,0,0,1,.76,2.81,2.81,0,0,0,1.21.3,2.26,2.26,0,0,0,1.26-.27,2.09,2.09,0,0,0,.82-.82,3.7,3.7,0,0,0,.39-1.23l1.49-8.8Zm-7.07,6,.1-.87a12,12,0,0,1,.39-1.89,7.1,7.1,0,0,1,.78-1.77,3.82,3.82,0,0,1,1.28-1.28,3.39,3.39,0,0,1,1.91-.45,2.25,2.25,0,0,1,1.53.56A3,3,0,0,1,89,60.72a6.57,6.57,0,0,1,.31,1.68,11.21,11.21,0,0,1,0,1.64l-.16,1.21a11.34,11.34,0,0,1-.43,1.69,7.83,7.83,0,0,1-.77,1.69,4.15,4.15,0,0,1-1.19,1.27,2.81,2.81,0,0,1-1.7.48,2.64,2.64,0,0,1-1.66-.54,3,3,0,0,1-.9-1.31,5.91,5.91,0,0,1-.35-1.7A9.91,9.91,0,0,1,82.14,65.1Zm2.44-.91-.1.88c0,.31-.06.64-.07,1a4.61,4.61,0,0,0,.07,1.06,1.76,1.76,0,0,0,.42.84,1.32,1.32,0,0,0,.93.36A1.83,1.83,0,0,0,87,68a2.84,2.84,0,0,0,.8-.95,4.89,4.89,0,0,0,.44-1.19l.37-2.41a4,4,0,0,0,0-.84,2.84,2.84,0,0,0-.24-.83,1.67,1.67,0,0,0-.49-.62,1.3,1.3,0,0,0-.8-.27,1.8,1.8,0,0,0-1.14.26,2.23,2.23,0,0,0-.74.81,5,5,0,0,0-.42,1.1A9.76,9.76,0,0,0,84.58,64.19Z"/><path class="cls-2" d="M95.6,61.31l-1.54,8.84H91.73l1.93-11.09h2.21ZM98.54,59l-.29,2.35-.43-.07a2.1,2.1,0,0,0-.43,0,2,2,0,0,0-1,.2,2.05,2.05,0,0,0-.7.58,3.3,3.3,0,0,0-.47.82,7.21,7.21,0,0,0-.3.93l-.5,0c0-.43.15-.94.27-1.51a8.64,8.64,0,0,1,.55-1.65,3.79,3.79,0,0,1,1-1.31,2.17,2.17,0,0,1,1.5-.49,2.87,2.87,0,0,1,.41,0Z"/><path class="cls-2" d="M102.29,70.36a4,4,0,0,1-1.85-.44,3,3,0,0,1-1.19-1.11,4.42,4.42,0,0,1-.58-1.61,7,7,0,0,1-.07-1.89l.13-1.07a9.25,9.25,0,0,1,.48-2,6.13,6.13,0,0,1,.94-1.75,4.13,4.13,0,0,1,3.51-1.65,3.29,3.29,0,0,1,1.82.51,3,3,0,0,1,1,1.24,5.17,5.17,0,0,1,.4,1.71,10.52,10.52,0,0,1,0,1.86l-.19,1.21h-7l.33-1.81h4.6l0-.28a5.42,5.42,0,0,0,0-1.07,1.88,1.88,0,0,0-.31-.94,1.13,1.13,0,0,0-.93-.44,1.77,1.77,0,0,0-1.13.29,2.16,2.16,0,0,0-.69.85,4.7,4.7,0,0,0-.38,1.13c-.08.4-.14.78-.19,1.13L101,65.32a6,6,0,0,0-.06,1,3.71,3.71,0,0,0,.17,1,1.49,1.49,0,0,0,.51.72,1.63,1.63,0,0,0,1,.3,2.84,2.84,0,0,0,1.37-.3,4.75,4.75,0,0,0,1.15-.82l.93,1.48a3.76,3.76,0,0,1-1,1,4.89,4.89,0,0,1-1.29.54A6,6,0,0,1,102.29,70.36Z"/><path class="cls-2" d="M113.21,67.17a.92.92,0,0,0-.2-.78,2.38,2.38,0,0,0-.64-.53l-.71-.39a10.21,10.21,0,0,1-1-.55,4.64,4.64,0,0,1-.87-.69,2.55,2.55,0,0,1-.58-.87,2.68,2.68,0,0,1-.16-1.17,3.25,3.25,0,0,1,.39-1.4,3.47,3.47,0,0,1,.87-1.07,3.84,3.84,0,0,1,1.23-.66,4.61,4.61,0,0,1,1.44-.22,3.92,3.92,0,0,1,1.79.45,2.86,2.86,0,0,1,1.17,1.19,3.72,3.72,0,0,1,.38,1.81H114a2.34,2.34,0,0,0-.07-.75,1.25,1.25,0,0,0-.36-.58,1.06,1.06,0,0,0-.73-.22,1.46,1.46,0,0,0-.72.16,1.56,1.56,0,0,0-.54.48,1.7,1.7,0,0,0-.27.71.87.87,0,0,0,.07.56,1.34,1.34,0,0,0,.37.42,2.93,2.93,0,0,0,.51.32l.5.24a10.54,10.54,0,0,1,1.41.79,3.47,3.47,0,0,1,1,1,2.58,2.58,0,0,1,.31,1.56,3.1,3.1,0,0,1-.39,1.45,3.36,3.36,0,0,1-.93,1,4.1,4.1,0,0,1-1.29.64,5,5,0,0,1-1.5.2,3.93,3.93,0,0,1-1.84-.49,3.13,3.13,0,0,1-1.24-1.26,3.69,3.69,0,0,1-.42-1.85h2.27a2.42,2.42,0,0,0,.1.87,1.17,1.17,0,0,0,.43.62,1.5,1.5,0,0,0,.85.23,2.32,2.32,0,0,0,.79-.16,1.56,1.56,0,0,0,.6-.44A1.47,1.47,0,0,0,113.21,67.17Z"/><path class="cls-2" d="M121.22,70.36a4,4,0,0,1-1.85-.44,3,3,0,0,1-1.19-1.11,4.62,4.62,0,0,1-.59-1.61,7.39,7.39,0,0,1-.06-1.89l.12-1.07a9.28,9.28,0,0,1,.49-2,6.13,6.13,0,0,1,.94-1.75,4.19,4.19,0,0,1,1.46-1.22,4.27,4.27,0,0,1,2-.43,3.29,3.29,0,0,1,1.82.51,3,3,0,0,1,1,1.24,5.17,5.17,0,0,1,.4,1.71,10.52,10.52,0,0,1,0,1.86l-.19,1.21h-7l.33-1.81h4.6l0-.28a5.42,5.42,0,0,0,0-1.07,1.88,1.88,0,0,0-.31-.94,1.13,1.13,0,0,0-.93-.44,1.77,1.77,0,0,0-1.13.29,2.16,2.16,0,0,0-.69.85,4.7,4.7,0,0,0-.38,1.13c-.08.4-.15.78-.19,1.13l-.12,1.08a6,6,0,0,0-.06,1,3.34,3.34,0,0,0,.17,1,1.49,1.49,0,0,0,.51.72,1.61,1.61,0,0,0,1,.3,2.84,2.84,0,0,0,1.37-.3,4.75,4.75,0,0,0,1.15-.82l.93,1.48a3.76,3.76,0,0,1-1,1,4.89,4.89,0,0,1-1.29.54A6,6,0,0,1,121.22,70.36Z"/><path class="cls-2" d="M130.41,61.56l-1.49,8.59h-2.34l1.92-11.09h2.2Zm-.85,2.65-.65,0a11.88,11.88,0,0,1,.37-1.83,7,7,0,0,1,.76-1.77,4.05,4.05,0,0,1,1.25-1.32,3.07,3.07,0,0,1,1.84-.46,2.21,2.21,0,0,1,1.35.41,2.31,2.31,0,0,1,.73,1,4.37,4.37,0,0,1,.28,1.33,10.79,10.79,0,0,1,0,1.4l-1.19,7.16h-2.33L133.13,63a5.89,5.89,0,0,0,0-.94,1.45,1.45,0,0,0-.26-.81.92.92,0,0,0-.82-.34,1.59,1.59,0,0,0-1.07.3,2.93,2.93,0,0,0-.73.86,5.7,5.7,0,0,0-.45,1.12A9.32,9.32,0,0,0,129.56,64.21Z"/><path class="cls-2" d="M146.89,67.17a1,1,0,0,0-.2-.78,2.43,2.43,0,0,0-.65-.53c-.25-.15-.49-.28-.71-.39a11.39,11.39,0,0,1-1-.55,5.39,5.39,0,0,1-.87-.69,2.71,2.71,0,0,1-.58-.87,2.84,2.84,0,0,1-.16-1.17,3.55,3.55,0,0,1,.39-1.4,3.47,3.47,0,0,1,.87-1.07,3.84,3.84,0,0,1,1.23-.66,4.61,4.61,0,0,1,1.44-.22,3.92,3.92,0,0,1,1.79.45,2.86,2.86,0,0,1,1.17,1.19,3.72,3.72,0,0,1,.39,1.81h-2.33a2.34,2.34,0,0,0-.08-.75,1.15,1.15,0,0,0-.35-.58,1.08,1.08,0,0,0-.73-.22,1.48,1.48,0,0,0-.73.16,1.56,1.56,0,0,0-.54.48,1.7,1.7,0,0,0-.27.71.87.87,0,0,0,.08.56,1.19,1.19,0,0,0,.36.42,3.36,3.36,0,0,0,.51.32l.51.24a12,12,0,0,1,1.41.79,3.43,3.43,0,0,1,1,1,2.51,2.51,0,0,1,.31,1.56,3.1,3.1,0,0,1-.39,1.45,3.21,3.21,0,0,1-.92,1,4.1,4.1,0,0,1-1.29.64,5.1,5.1,0,0,1-1.51.2,4,4,0,0,1-1.84-.49A3.2,3.2,0,0,1,142,68.61a3.58,3.58,0,0,1-.41-1.85h2.26a2.67,2.67,0,0,0,.1.87,1.18,1.18,0,0,0,.44.62,1.46,1.46,0,0,0,.85.23,2.21,2.21,0,0,0,.78-.16,1.6,1.6,0,0,0,.61-.44A1.57,1.57,0,0,0,146.89,67.17Z"/><path class="cls-2" d="M154.9,70.36a4.05,4.05,0,0,1-1.86-.44,3.1,3.1,0,0,1-1.19-1.11,4.42,4.42,0,0,1-.58-1.61,6.59,6.59,0,0,1-.06-1.89l.12-1.07a9.88,9.88,0,0,1,.48-2,6.39,6.39,0,0,1,.94-1.75,4.13,4.13,0,0,1,3.51-1.65,3.29,3.29,0,0,1,1.82.51,2.89,2.89,0,0,1,1,1.24,4.93,4.93,0,0,1,.4,1.71,9.64,9.64,0,0,1,0,1.86l-.18,1.21h-7l.33-1.81h4.6l.06-.28a5.43,5.43,0,0,0,0-1.07,1.78,1.78,0,0,0-.31-.94,1.12,1.12,0,0,0-.92-.44,1.75,1.75,0,0,0-1.13.29,2.1,2.1,0,0,0-.7.85,4.7,4.7,0,0,0-.38,1.13c-.08.4-.14.78-.18,1.13l-.13,1.08a7.18,7.18,0,0,0-.05,1,3.34,3.34,0,0,0,.16,1,1.49,1.49,0,0,0,.51.72,1.63,1.63,0,0,0,1,.3,2.84,2.84,0,0,0,1.37-.3,4.8,4.8,0,0,0,1.16-.82l.92,1.48a3.62,3.62,0,0,1-1,1,4.89,4.89,0,0,1-1.29.54A5.93,5.93,0,0,1,154.9,70.36Z"/><path class="cls-2" d="M167.93,59.06h2.13l-1.89,11.13a6,6,0,0,1-.78,2.32A4.25,4.25,0,0,1,165.77,74a4.74,4.74,0,0,1-2.41.49,4.82,4.82,0,0,1-1.17-.18,4.56,4.56,0,0,1-1.12-.46,3.67,3.67,0,0,1-.92-.72l1-1.66a3.2,3.2,0,0,0,1,.76,2.81,2.81,0,0,0,1.21.3,2.28,2.28,0,0,0,1.26-.27,2,2,0,0,0,.81-.82,3.49,3.49,0,0,0,.4-1.23l1.48-8.8Zm-7.08,6,.11-.87a11,11,0,0,1,.39-1.89,7.1,7.1,0,0,1,.78-1.77,3.73,3.73,0,0,1,1.28-1.28,3.39,3.39,0,0,1,1.91-.45,2.26,2.26,0,0,1,1.53.56,3.11,3.11,0,0,1,.83,1.32A6.57,6.57,0,0,1,168,62.4,11.21,11.21,0,0,1,168,64l-.16,1.21a11.34,11.34,0,0,1-.43,1.69,7.83,7.83,0,0,1-.77,1.69,4.15,4.15,0,0,1-1.19,1.27,2.81,2.81,0,0,1-1.7.48,2.64,2.64,0,0,1-1.66-.54,3,3,0,0,1-.91-1.31,6.26,6.26,0,0,1-.34-1.7A11,11,0,0,1,160.85,65.1Zm2.44-.91-.09.88c0,.31-.06.64-.07,1a4.11,4.11,0,0,0,.07,1.06,1.76,1.76,0,0,0,.42.84,1.32,1.32,0,0,0,.93.36,1.83,1.83,0,0,0,1.2-.34,2.84,2.84,0,0,0,.8-.95,4.89,4.89,0,0,0,.44-1.19l.37-2.41a4,4,0,0,0,0-.84,3.19,3.19,0,0,0-.24-.83,1.67,1.67,0,0,0-.49-.62,1.33,1.33,0,0,0-.8-.27,1.84,1.84,0,0,0-1.15.26,2.2,2.2,0,0,0-.73.81,5,5,0,0,0-.42,1.1A9.84,9.84,0,0,0,163.29,64.19Z"/><path class="cls-2" d="M176.88,65.18l.66,0a15.62,15.62,0,0,1-.33,1.8,6.9,6.9,0,0,1-.66,1.71,3.6,3.6,0,0,1-1.16,1.26,2.94,2.94,0,0,1-1.79.45,2.48,2.48,0,0,1-1.38-.41,2.37,2.37,0,0,1-.79-1,4.11,4.11,0,0,1-.31-1.34,7.36,7.36,0,0,1,0-1.41l1.2-7.17h2.33l-1.2,7.19q0,.3,0,.63a2.46,2.46,0,0,0,.06.67,1.15,1.15,0,0,0,.27.54.87.87,0,0,0,.59.24,1.88,1.88,0,0,0,1.4-.45,3.08,3.08,0,0,0,.77-1.24A7.36,7.36,0,0,0,176.88,65.18Zm-.64,2.22,1.44-8.34H180L178.1,70.15h-2.19Z"/><path class="cls-2" d="M184.26,61.31l-1.53,8.84H180.4l1.93-11.09h2.21Zm3-2.34-.29,2.35-.44-.07a2,2,0,0,0-.42,0,1.93,1.93,0,0,0-1.67.78,3.3,3.3,0,0,0-.47.82,5,5,0,0,0-.3.93l-.5,0a14.43,14.43,0,0,1,.27-1.51,8,8,0,0,1,.55-1.65,3.66,3.66,0,0,1,.95-1.31,2.17,2.17,0,0,1,1.5-.49,3.05,3.05,0,0,1,.41,0Z"/><path class="cls-2" d="M187.25,65.05l.11-.88a8.44,8.44,0,0,1,.49-2,6.55,6.55,0,0,1,1-1.73,4.51,4.51,0,0,1,1.51-1.2,4.13,4.13,0,0,1,2-.41,3.45,3.45,0,0,1,1.83.49,3.28,3.28,0,0,1,1.13,1.24,4.91,4.91,0,0,1,.53,1.7,7.88,7.88,0,0,1,0,1.88l-.1.89a8.4,8.4,0,0,1-.49,2,6.49,6.49,0,0,1-1,1.72,4.44,4.44,0,0,1-1.49,1.2,4.35,4.35,0,0,1-2,.4,3.48,3.48,0,0,1-1.85-.5,3.26,3.26,0,0,1-1.13-1.23,5,5,0,0,1-.53-1.7A7.88,7.88,0,0,1,187.25,65.05Zm2.45-.89-.1.9a9.25,9.25,0,0,0,0,1,4.23,4.23,0,0,0,.1,1.07,1.87,1.87,0,0,0,.42.87,1.22,1.22,0,0,0,.9.39,1.76,1.76,0,0,0,1.12-.28,2.37,2.37,0,0,0,.74-.83,5,5,0,0,0,.43-1.1,8.69,8.69,0,0,0,.21-1.12l.1-.9c0-.27,0-.59.05-1a4.8,4.8,0,0,0-.11-1.07,1.86,1.86,0,0,0-.42-.88,1.21,1.21,0,0,0-.91-.39,1.77,1.77,0,0,0-1.09.29,2.47,2.47,0,0,0-.72.84,4.88,4.88,0,0,0-.45,1.11A6.91,6.91,0,0,0,189.7,64.16Z"/><path class="cls-2" d="M202.39,67.17a1,1,0,0,0-.2-.78,2.38,2.38,0,0,0-.64-.53l-.72-.39a11.2,11.2,0,0,1-1-.55,4.64,4.64,0,0,1-.87-.69,2.42,2.42,0,0,1-.58-.87,2.54,2.54,0,0,1-.16-1.17,3.38,3.38,0,0,1,.38-1.4,3.59,3.59,0,0,1,2.11-1.73,4.61,4.61,0,0,1,1.44-.22,3.92,3.92,0,0,1,1.79.45,2.92,2.92,0,0,1,1.17,1.19,3.83,3.83,0,0,1,.38,1.81h-2.33a2.09,2.09,0,0,0-.08-.75,1.15,1.15,0,0,0-.35-.58,1.06,1.06,0,0,0-.73-.22,1.44,1.44,0,0,0-.72.16,1.56,1.56,0,0,0-.54.48,1.86,1.86,0,0,0-.28.71.94.94,0,0,0,.08.56,1.34,1.34,0,0,0,.37.42,2.6,2.6,0,0,0,.51.32l.5.24a10.54,10.54,0,0,1,1.41.79,3.47,3.47,0,0,1,1,1,2.58,2.58,0,0,1,.31,1.56,3.1,3.1,0,0,1-.39,1.45,3.36,3.36,0,0,1-.93,1,4.1,4.1,0,0,1-1.29.64,5,5,0,0,1-1.5.2,3.93,3.93,0,0,1-1.84-.49,3.13,3.13,0,0,1-1.24-1.26,3.69,3.69,0,0,1-.42-1.85h2.27a2.42,2.42,0,0,0,.1.87,1.17,1.17,0,0,0,.43.62,1.5,1.5,0,0,0,.85.23,2.32,2.32,0,0,0,.79-.16,1.56,1.56,0,0,0,.6-.44A1.47,1.47,0,0,0,202.39,67.17Z"/><path class="cls-2" d="M208.87,67.75l-.28,1.78a6.14,6.14,0,0,1-.84,2.25,6.64,6.64,0,0,1-1.61,1.77l-1.28-.8c.23-.32.45-.65.66-1a8.3,8.3,0,0,0,.54-1,5.2,5.2,0,0,0,.34-1.12l.33-1.89Z"/><path class="cls-2" d="M219.73,70.36a4,4,0,0,1-1.85-.44,3,3,0,0,1-1.19-1.11,4.62,4.62,0,0,1-.59-1.61,7.39,7.39,0,0,1-.06-1.89l.12-1.07a9.28,9.28,0,0,1,.49-2,6.13,6.13,0,0,1,.94-1.75,4.19,4.19,0,0,1,1.46-1.22,4.27,4.27,0,0,1,2-.43,3.29,3.29,0,0,1,1.82.51,3,3,0,0,1,1,1.24,5.17,5.17,0,0,1,.4,1.71,10.52,10.52,0,0,1,0,1.86l-.19,1.21h-7l.33-1.81h4.6l0-.28a5.42,5.42,0,0,0,0-1.07,1.88,1.88,0,0,0-.31-.94,1.13,1.13,0,0,0-.93-.44,1.77,1.77,0,0,0-1.13.29,2.16,2.16,0,0,0-.69.85,4.7,4.7,0,0,0-.38,1.13c-.08.4-.15.78-.19,1.13l-.12,1.08a6,6,0,0,0-.06,1,3.34,3.34,0,0,0,.17,1,1.54,1.54,0,0,0,.5.72,1.66,1.66,0,0,0,1,.3,2.87,2.87,0,0,0,1.37-.3,4.75,4.75,0,0,0,1.15-.82l.93,1.48a3.76,3.76,0,0,1-1,1,5,5,0,0,1-1.29.54A6,6,0,0,1,219.73,70.36Z"/><path class="cls-2" d="M230.65,67.17a1,1,0,0,0-.2-.78,2.38,2.38,0,0,0-.64-.53l-.72-.39a11.2,11.2,0,0,1-1-.55,4.64,4.64,0,0,1-.87-.69,2.42,2.42,0,0,1-.58-.87,2.54,2.54,0,0,1-.16-1.17,3.38,3.38,0,0,1,.38-1.4,3.59,3.59,0,0,1,2.11-1.73,4.61,4.61,0,0,1,1.44-.22,3.92,3.92,0,0,1,1.79.45,2.89,2.89,0,0,1,1.16,1.19,3.72,3.72,0,0,1,.39,1.81h-2.33a2.09,2.09,0,0,0-.08-.75A1.15,1.15,0,0,0,231,61a1.06,1.06,0,0,0-.73-.22,1.5,1.5,0,0,0-.73.16,1.62,1.62,0,0,0-.53.48,1.86,1.86,0,0,0-.28.71.94.94,0,0,0,.08.56,1.34,1.34,0,0,0,.37.42,2.6,2.6,0,0,0,.51.32l.5.24a10.54,10.54,0,0,1,1.41.79,3.47,3.47,0,0,1,1,1,2.58,2.58,0,0,1,.31,1.56,3.1,3.1,0,0,1-.39,1.45,3.36,3.36,0,0,1-.93,1,4.1,4.1,0,0,1-1.29.64,5,5,0,0,1-1.5.2,3.93,3.93,0,0,1-1.84-.49,3.13,3.13,0,0,1-1.24-1.26,3.69,3.69,0,0,1-.42-1.85h2.27a2.42,2.42,0,0,0,.1.87,1.17,1.17,0,0,0,.43.62,1.5,1.5,0,0,0,.85.23,2.32,2.32,0,0,0,.79-.16,1.56,1.56,0,0,0,.6-.44A1.47,1.47,0,0,0,230.65,67.17Z"/><path class="cls-2" d="M238.26,61.32,236,74.42h-2.33l2.66-15.36h2.14Zm5.26,2.85-.1.86a10.49,10.49,0,0,1-.38,1.85,7.39,7.39,0,0,1-.75,1.75,3.87,3.87,0,0,1-1.23,1.28,3.15,3.15,0,0,1-1.85.45,2.32,2.32,0,0,1-1.5-.52,3.2,3.2,0,0,1-.87-1.27,6.17,6.17,0,0,1-.37-1.62,8.66,8.66,0,0,1,0-1.6l.17-1.33A13.94,13.94,0,0,1,237,62.3a7.29,7.29,0,0,1,.78-1.7,4.13,4.13,0,0,1,1.2-1.29,2.79,2.79,0,0,1,1.71-.46,2.63,2.63,0,0,1,1.7.53,2.8,2.8,0,0,1,.88,1.31,5.9,5.9,0,0,1,.28,1.72A12.63,12.63,0,0,1,243.52,64.17Zm-2.43.87.09-.89c0-.29.06-.62.08-1a4.71,4.71,0,0,0-.06-1.07,1.67,1.67,0,0,0-.4-.87,1.28,1.28,0,0,0-.93-.36,1.78,1.78,0,0,0-.93.21,2.39,2.39,0,0,0-.7.61,3.49,3.49,0,0,0-.49.84,5.3,5.3,0,0,0-.27.89L237.09,66a4.39,4.39,0,0,0,.12,1.07,1.85,1.85,0,0,0,.47.91,1.37,1.37,0,0,0,1,.41,1.74,1.74,0,0,0,1.12-.27,2.17,2.17,0,0,0,.71-.82,4.44,4.44,0,0,0,.4-1.11A10.22,10.22,0,0,0,241.09,65Z"/><path class="cls-2" d="M248.74,70.36a4,4,0,0,1-1.85-.44,3,3,0,0,1-1.19-1.11,4.43,4.43,0,0,1-.59-1.61,7.39,7.39,0,0,1-.06-1.89l.12-1.07a9.28,9.28,0,0,1,.49-2,6.13,6.13,0,0,1,.94-1.75,4.19,4.19,0,0,1,1.46-1.22,4.27,4.27,0,0,1,2.05-.43,3.32,3.32,0,0,1,1.82.51,3,3,0,0,1,1,1.24,5.17,5.17,0,0,1,.4,1.71,9.65,9.65,0,0,1-.06,1.86l-.18,1.21h-7l.33-1.81h4.6l.05-.28a5.42,5.42,0,0,0,0-1.07,1.88,1.88,0,0,0-.31-.94,1.13,1.13,0,0,0-.93-.44,1.77,1.77,0,0,0-1.13.29,2.27,2.27,0,0,0-.7.85,4.68,4.68,0,0,0-.37,1.13,10.66,10.66,0,0,0-.19,1.13l-.12,1.08a6,6,0,0,0-.06,1,3.34,3.34,0,0,0,.17,1,1.47,1.47,0,0,0,.5.72,1.66,1.66,0,0,0,1,.3,2.87,2.87,0,0,0,1.37-.3,4.75,4.75,0,0,0,1.15-.82l.92,1.48a3.59,3.59,0,0,1-1,1,5.19,5.19,0,0,1-1.29.54A6,6,0,0,1,248.74,70.36Z"/><path class="cls-2" d="M258.3,68.37a1.52,1.52,0,0,0,.95-.25,1.79,1.79,0,0,0,.59-.71,3.82,3.82,0,0,0,.3-.94h2.2a5,5,0,0,1-.68,2,4.05,4.05,0,0,1-1.45,1.4,4,4,0,0,1-2,.51,3.69,3.69,0,0,1-1.87-.48,2.91,2.91,0,0,1-1.11-1.2,5,5,0,0,1-.5-1.68,8.06,8.06,0,0,1,0-1.9l.12-1a9.48,9.48,0,0,1,.48-2,5.85,5.85,0,0,1,.94-1.7,4.21,4.21,0,0,1,1.45-1.16,4.38,4.38,0,0,1,2-.39,3.17,3.17,0,0,1,1.95.62A3.25,3.25,0,0,1,262.73,61a5.72,5.72,0,0,1,.25,2h-2.19a5.37,5.37,0,0,0-.05-1,1.66,1.66,0,0,0-.34-.85,1.1,1.1,0,0,0-.88-.37,1.77,1.77,0,0,0-1.11.27,2.12,2.12,0,0,0-.69.79,4,4,0,0,0-.38,1.07,9.37,9.37,0,0,0-.19,1.12l-.11,1c0,.28-.06.61-.08,1a4.65,4.65,0,0,0,0,1.06,1.62,1.62,0,0,0,.38.85A1.21,1.21,0,0,0,258.3,68.37Z"/><path class="cls-2" d="M267.93,59.06,266,70.15h-2.34l1.93-11.09ZM266,56.18a1.4,1.4,0,0,1,.36-1,1.24,1.24,0,0,1,.94-.42,1.17,1.17,0,0,1,.92.37,1.45,1.45,0,0,1,0,1.9,1.22,1.22,0,0,1-.93.41,1.16,1.16,0,0,1-.92-.36A1.39,1.39,0,0,1,266,56.18Z"/><path class="cls-2" d="M274.94,63.39,274.68,65h-1a3,3,0,0,0-.89.13,2.64,2.64,0,0,0-.77.38,2.32,2.32,0,0,0-.58.63,2.13,2.13,0,0,0-.28.86,2.09,2.09,0,0,0,0,.71,1,1,0,0,0,.29.54.93.93,0,0,0,.66.21,2.17,2.17,0,0,0,.89-.2,2.27,2.27,0,0,0,.74-.55,1.53,1.53,0,0,0,.38-.81l.4,1a4,4,0,0,1-.43,1,3.45,3.45,0,0,1-.65.81,2.88,2.88,0,0,1-.87.56,2.57,2.57,0,0,1-1,.2,2.81,2.81,0,0,1-1.56-.45,2.63,2.63,0,0,1-1-1.16,3.4,3.4,0,0,1-.26-1.6,3.72,3.72,0,0,1,.46-1.7,3.44,3.44,0,0,1,1.07-1.17,4.53,4.53,0,0,1,1.49-.69,6.59,6.59,0,0,1,1.74-.23Zm-1.09,4.5.89-5.54a3.25,3.25,0,0,0,0-.77,1,1,0,0,0-.29-.58,1,1,0,0,0-.7-.22,1.43,1.43,0,0,0-.79.19,1.52,1.52,0,0,0-.53.54,2.26,2.26,0,0,0-.27.74l-2.32,0a3.51,3.51,0,0,1,.42-1.43,3.69,3.69,0,0,1,.94-1.1,4.2,4.2,0,0,1,1.29-.68,4.94,4.94,0,0,1,1.49-.23,3.48,3.48,0,0,1,1.8.47,2.56,2.56,0,0,1,1.07,1.23,3.85,3.85,0,0,1,.23,1.87l-.84,5.19a11.69,11.69,0,0,0-.12,1.19,4.76,4.76,0,0,0,.11,1.19l0,.18h-2.3a4.26,4.26,0,0,1-.13-1.13A10.94,10.94,0,0,1,273.85,67.89Z"/><path class="cls-2" d="M283.33,54.4l-2.74,15.75h-2.34L281,54.4Z"/><path class="cls-2" d="M286.9,61.45l-1.52,8.7h-2.33L285,59.06h2.18Zm-.83,2.75h-.75a11,11,0,0,1,.36-1.85,6.92,6.92,0,0,1,.75-1.76,3.82,3.82,0,0,1,1.27-1.29,3.18,3.18,0,0,1,1.86-.46,2.18,2.18,0,0,1,1.28.38,2.3,2.3,0,0,1,.74.94,3.77,3.77,0,0,1,.31,1.25,6.67,6.67,0,0,1,0,1.34l-1.23,7.39h-2.33l1.2-7.18a5.73,5.73,0,0,0,0-.93,1.67,1.67,0,0,0-.28-.82,1,1,0,0,0-.84-.36,1.69,1.69,0,0,0-1.07.3,2.39,2.39,0,0,0-.68.85,5.57,5.57,0,0,0-.41,1.12A6.93,6.93,0,0,0,286.07,64.2Zm5.58-.63-1.06.26a8.09,8.09,0,0,1,.34-1.74,6.4,6.4,0,0,1,.76-1.63,3.78,3.78,0,0,1,1.23-1.19,3.18,3.18,0,0,1,1.75-.43,2.33,2.33,0,0,1,1.38.4,2.28,2.28,0,0,1,.78,1,4.11,4.11,0,0,1,.31,1.33,8.54,8.54,0,0,1,0,1.43l-1.19,7.17h-2.34l1.2-7.19a5,5,0,0,0,0-1,1.6,1.6,0,0,0-.28-.81,1,1,0,0,0-.84-.33,1.41,1.41,0,0,0-.88.25,2,2,0,0,0-.59.68,3.46,3.46,0,0,0-.36.89C291.77,63,291.7,63.3,291.65,63.57Z"/><path class="cls-2" d="M302.52,70.36a4,4,0,0,1-1.85-.44,3,3,0,0,1-1.19-1.11,4.62,4.62,0,0,1-.59-1.61,7.39,7.39,0,0,1-.06-1.89l.12-1.07a9.28,9.28,0,0,1,.49-2,6.13,6.13,0,0,1,.94-1.75,4.19,4.19,0,0,1,1.46-1.22,4.27,4.27,0,0,1,2.05-.43,3.29,3.29,0,0,1,1.82.51,3,3,0,0,1,1,1.24,5.17,5.17,0,0,1,.4,1.71,10.52,10.52,0,0,1-.05,1.86l-.19,1.21h-7l.33-1.81h4.6l.05-.28a5.42,5.42,0,0,0,0-1.07,1.88,1.88,0,0,0-.31-.94,1.13,1.13,0,0,0-.93-.44,1.77,1.77,0,0,0-1.13.29,2.16,2.16,0,0,0-.69.85,4.7,4.7,0,0,0-.38,1.13c-.08.4-.15.78-.19,1.13l-.12,1.08a6,6,0,0,0-.06,1,3.34,3.34,0,0,0,.17,1,1.54,1.54,0,0,0,.5.72,1.66,1.66,0,0,0,1,.3,2.87,2.87,0,0,0,1.37-.3,4.75,4.75,0,0,0,1.15-.82l.93,1.48a3.76,3.76,0,0,1-1,1,5,5,0,0,1-1.29.54A6,6,0,0,1,302.52,70.36Z"/><path class="cls-2" d="M311.71,61.56l-1.49,8.59h-2.35l1.93-11.09H312Zm-.85,2.65-.65,0a11.88,11.88,0,0,1,.37-1.83,7,7,0,0,1,.76-1.77,4.05,4.05,0,0,1,1.25-1.32,3.07,3.07,0,0,1,1.84-.46,2.21,2.21,0,0,1,1.35.41,2.31,2.31,0,0,1,.73,1,4.37,4.37,0,0,1,.28,1.33,10.79,10.79,0,0,1,0,1.4l-1.19,7.16h-2.33L314.43,63a5.89,5.89,0,0,0,0-.94,1.45,1.45,0,0,0-.26-.81.92.92,0,0,0-.82-.34,1.59,1.59,0,0,0-1.07.3,2.93,2.93,0,0,0-.73.86,5.15,5.15,0,0,0-.45,1.12A9.32,9.32,0,0,0,310.86,64.21Z"/><path class="cls-2" d="M324.15,59.06l-.33,1.84h-5.29l.33-1.84Zm-3.39-2.72h2.34l-1.82,10.74a3.27,3.27,0,0,0,0,.54.88.88,0,0,0,.13.45.53.53,0,0,0,.47.19l.34,0,.37-.07-.21,2a3.21,3.21,0,0,1-.66.17,3.82,3.82,0,0,1-.68,0,1.88,1.88,0,0,1-1.35-.48,2.2,2.2,0,0,1-.63-1.17,4.82,4.82,0,0,1-.08-1.47Z"/><path class="cls-2" d="M328.27,70.36a4,4,0,0,1-1.85-.44,3,3,0,0,1-1.19-1.11,4.43,4.43,0,0,1-.59-1.61,7.39,7.39,0,0,1-.06-1.89l.12-1.07a9.88,9.88,0,0,1,.48-2,6.41,6.41,0,0,1,.95-1.75,4.1,4.1,0,0,1,1.46-1.22,4.26,4.26,0,0,1,2-.43,3.33,3.33,0,0,1,1.83.51,3,3,0,0,1,1,1.24,5.43,5.43,0,0,1,.4,1.71,9.65,9.65,0,0,1-.06,1.86l-.18,1.21h-7l.32-1.81h4.61l.05-.28a5.42,5.42,0,0,0,0-1.07,1.88,1.88,0,0,0-.31-.94,1.13,1.13,0,0,0-.93-.44,1.77,1.77,0,0,0-1.13.29,2.27,2.27,0,0,0-.7.85,4.68,4.68,0,0,0-.37,1.13,10.66,10.66,0,0,0-.19,1.13l-.12,1.08a6,6,0,0,0-.06,1,3.34,3.34,0,0,0,.17,1,1.41,1.41,0,0,0,.5.72,1.66,1.66,0,0,0,1,.3,2.87,2.87,0,0,0,1.37-.3,5,5,0,0,0,1.15-.82l.92,1.48a3.59,3.59,0,0,1-1,1,5.19,5.19,0,0,1-1.29.54A6,6,0,0,1,328.27,70.36Z"/><path class="cls-2" d="M19.4,91.36a4,4,0,0,1-1.85-.44,3,3,0,0,1-1.19-1.11,4.43,4.43,0,0,1-.59-1.61,7.39,7.39,0,0,1-.06-1.89l.12-1.07a9.28,9.28,0,0,1,.49-2,6.13,6.13,0,0,1,.94-1.75,4.19,4.19,0,0,1,1.46-1.22,4.27,4.27,0,0,1,2.05-.43,3.32,3.32,0,0,1,1.82.51,3,3,0,0,1,1,1.24A5.17,5.17,0,0,1,24,83.3,10.52,10.52,0,0,1,24,85.16l-.19,1.21h-7l.33-1.81h4.6l.05-.28a5.42,5.42,0,0,0,0-1.07,1.88,1.88,0,0,0-.31-.94,1.13,1.13,0,0,0-.93-.44,1.77,1.77,0,0,0-1.13.29,2.16,2.16,0,0,0-.69.85,4.7,4.7,0,0,0-.38,1.13c-.08.4-.15.78-.19,1.13l-.12,1.08a6,6,0,0,0-.06,1,3.34,3.34,0,0,0,.17,1,1.54,1.54,0,0,0,.5.72,1.66,1.66,0,0,0,1,.3,2.87,2.87,0,0,0,1.37-.3,4.75,4.75,0,0,0,1.15-.82l.92,1.48a3.59,3.59,0,0,1-1,1,5,5,0,0,1-1.29.54A6,6,0,0,1,19.4,91.36Z"/><path class="cls-2" d="M28.59,82.56,27.1,91.15H24.75l1.93-11.09h2.2Zm-.85,2.65-.65,0a11.88,11.88,0,0,1,.37-1.83,7,7,0,0,1,.76-1.77,4.05,4.05,0,0,1,1.25-1.32,3.07,3.07,0,0,1,1.84-.46,2.23,2.23,0,0,1,1.35.41,2.31,2.31,0,0,1,.73,1,4.37,4.37,0,0,1,.28,1.33,10.79,10.79,0,0,1,0,1.4l-1.19,7.16H30.12L31.31,84a7.35,7.35,0,0,0,0-.94,1.45,1.45,0,0,0-.26-.81.92.92,0,0,0-.82-.34,1.59,1.59,0,0,0-1.07.3,2.93,2.93,0,0,0-.73.86A5.15,5.15,0,0,0,28,84.15,9.32,9.32,0,0,0,27.74,85.21Z"/><path class="cls-2" d="M43.81,91.36A4.05,4.05,0,0,1,42,90.92a3.1,3.1,0,0,1-1.19-1.11,4.42,4.42,0,0,1-.58-1.61,6.59,6.59,0,0,1-.06-1.89l.12-1.07a9.88,9.88,0,0,1,.48-2,6.39,6.39,0,0,1,.94-1.75,4.13,4.13,0,0,1,3.51-1.65,3.29,3.29,0,0,1,1.82.51,2.89,2.89,0,0,1,1,1.24,4.93,4.93,0,0,1,.4,1.71,9.64,9.64,0,0,1-.05,1.86l-.18,1.21h-7l.33-1.81h4.6l.06-.28a5.43,5.43,0,0,0,0-1.07,1.78,1.78,0,0,0-.31-.94,1.12,1.12,0,0,0-.92-.44,1.75,1.75,0,0,0-1.13.29,2.1,2.1,0,0,0-.7.85,4.7,4.7,0,0,0-.38,1.13c-.08.4-.14.78-.18,1.13l-.13,1.08a7.18,7.18,0,0,0-.05,1,3.34,3.34,0,0,0,.16,1,1.49,1.49,0,0,0,.51.72,1.63,1.63,0,0,0,1,.3,2.84,2.84,0,0,0,1.37-.3,4.8,4.8,0,0,0,1.16-.82l.92,1.48a3.62,3.62,0,0,1-1,1,4.89,4.89,0,0,1-1.29.54A5.93,5.93,0,0,1,43.81,91.36Z"/><path class="cls-2" d="M53,82.56l-1.49,8.59H49.16l1.93-11.09h2.19Zm-.86,2.65-.64,0a10.74,10.74,0,0,1,.36-1.83,7.39,7.39,0,0,1,.76-1.77,4.16,4.16,0,0,1,1.25-1.32,3.07,3.07,0,0,1,1.84-.46,2.19,2.19,0,0,1,1.35.41,2.23,2.23,0,0,1,.73,1,4.37,4.37,0,0,1,.28,1.33A8.12,8.12,0,0,1,58,84l-1.19,7.16H54.52L55.71,84a7.34,7.34,0,0,0,0-.94,1.62,1.62,0,0,0-.26-.81.92.92,0,0,0-.82-.34,1.61,1.61,0,0,0-1.08.3,2.76,2.76,0,0,0-.72.86,5.18,5.18,0,0,0-.46,1.12C52.28,84.54,52.2,84.89,52.14,85.21Z"/><path class="cls-2" d="M65.43,80.06,65.1,81.9H59.81l.33-1.84Zm-3.38-2.72h2.34L62.56,88.08a2.45,2.45,0,0,0,0,.54.79.79,0,0,0,.12.45.55.55,0,0,0,.47.19l.35,0,.36-.07-.2,2a3.21,3.21,0,0,1-.66.17,3.89,3.89,0,0,1-.68,0,1.92,1.92,0,0,1-1.36-.48,2.25,2.25,0,0,1-.62-1.17,4.82,4.82,0,0,1-.09-1.47Z"/><path class="cls-2" d="M65.65,86.05l.11-.88a8.44,8.44,0,0,1,.49-2,6.55,6.55,0,0,1,1-1.73,4.51,4.51,0,0,1,1.51-1.2,4.13,4.13,0,0,1,2-.41,3.45,3.45,0,0,1,1.83.49,3.37,3.37,0,0,1,1.13,1.24,4.91,4.91,0,0,1,.53,1.7,7.88,7.88,0,0,1,0,1.88l-.1.89a8.4,8.4,0,0,1-.49,2,6.49,6.49,0,0,1-1,1.72A4.54,4.54,0,0,1,71.22,91a4.37,4.37,0,0,1-2,.4,3.48,3.48,0,0,1-1.85-.5,3.26,3.26,0,0,1-1.13-1.23,5.21,5.21,0,0,1-.54-1.7A8.44,8.44,0,0,1,65.65,86.05Zm2.45-.89-.1.9a9.25,9.25,0,0,0,0,1,4.23,4.23,0,0,0,.1,1.07,1.78,1.78,0,0,0,.42.87,1.22,1.22,0,0,0,.9.39,1.77,1.77,0,0,0,1.12-.28,2.37,2.37,0,0,0,.74-.83,5.59,5.59,0,0,0,.43-1.1A8.69,8.69,0,0,0,71.87,86l.09-.9q0-.4.06-1a4.8,4.8,0,0,0-.11-1.07,1.86,1.86,0,0,0-.42-.88,1.21,1.21,0,0,0-.91-.39,1.77,1.77,0,0,0-1.09.29,2.47,2.47,0,0,0-.72.84,4.88,4.88,0,0,0-.45,1.11A6.91,6.91,0,0,0,68.1,85.16Z"/><path class="cls-2" d="M79.13,82.31l-1.54,8.84H75.27l1.92-11.09h2.22ZM82.07,80l-.28,2.35-.44-.07a2,2,0,0,0-.42,0,2,2,0,0,0-1,.2,2.15,2.15,0,0,0-.7.58,3.65,3.65,0,0,0-.47.82,5.9,5.9,0,0,0-.29.93l-.51,0c.06-.43.15-.94.27-1.51a8.64,8.64,0,0,1,.55-1.65,3.69,3.69,0,0,1,1-1.31,2.13,2.13,0,0,1,1.49-.49,2.7,2.7,0,0,1,.41.05Z"/><path class="cls-2" d="M85.55,82.56l-1.49,8.59H81.71l1.93-11.09h2.2Zm-.85,2.65-.65,0a11.88,11.88,0,0,1,.37-1.83,7,7,0,0,1,.76-1.77,4.05,4.05,0,0,1,1.25-1.32,3.07,3.07,0,0,1,1.84-.46,2.23,2.23,0,0,1,1.35.41,2.31,2.31,0,0,1,.73,1,4.37,4.37,0,0,1,.28,1.33,10.79,10.79,0,0,1,0,1.4l-1.19,7.16H87.08L88.27,84a7.35,7.35,0,0,0,0-.94,1.45,1.45,0,0,0-.26-.81.92.92,0,0,0-.82-.34,1.59,1.59,0,0,0-1.07.3,2.93,2.93,0,0,0-.73.86A5.15,5.15,0,0,0,85,84.15,9.32,9.32,0,0,0,84.7,85.21Z"/><path class="cls-2" d="M92.27,86.05l.11-.88a8.44,8.44,0,0,1,.49-2,6.55,6.55,0,0,1,1-1.73,4.48,4.48,0,0,1,1.5-1.2,4.18,4.18,0,0,1,2-.41,3.43,3.43,0,0,1,1.83.49,3.31,3.31,0,0,1,1.14,1.24,4.91,4.91,0,0,1,.53,1.7,7.88,7.88,0,0,1,0,1.88l-.1.89a8.4,8.4,0,0,1-.49,2,6.49,6.49,0,0,1-1,1.72,4.48,4.48,0,0,1-1.5,1.2,4.32,4.32,0,0,1-2,.4,3.44,3.44,0,0,1-1.84-.5,3.18,3.18,0,0,1-1.13-1.23,5.21,5.21,0,0,1-.54-1.7A8.44,8.44,0,0,1,92.27,86.05Zm2.45-.89-.11.9c0,.28,0,.61,0,1a4.74,4.74,0,0,0,.11,1.07,1.78,1.78,0,0,0,.42.87,1.22,1.22,0,0,0,.9.39,1.77,1.77,0,0,0,1.12-.28,2.25,2.25,0,0,0,.73-.83,5.06,5.06,0,0,0,.44-1.1A8.69,8.69,0,0,0,98.49,86l.09-.9a8.72,8.72,0,0,0,0-1,4.27,4.27,0,0,0-.1-1.07,1.86,1.86,0,0,0-.42-.88,1.21,1.21,0,0,0-.91-.39,1.77,1.77,0,0,0-1.09.29,2.61,2.61,0,0,0-.73.84,4.85,4.85,0,0,0-.44,1.11A6.91,6.91,0,0,0,94.72,85.16Z"/><path class="cls-2" d="M107.41,88.17a1,1,0,0,0-.2-.78,2.38,2.38,0,0,0-.64-.53l-.72-.39a11.2,11.2,0,0,1-1-.55,4.64,4.64,0,0,1-.87-.69,2.42,2.42,0,0,1-.58-.87,2.54,2.54,0,0,1-.16-1.17,3.38,3.38,0,0,1,.38-1.4,3.62,3.62,0,0,1,.87-1.07,3.84,3.84,0,0,1,1.23-.66,4.7,4.7,0,0,1,1.44-.22,3.85,3.85,0,0,1,1.79.45,2.86,2.86,0,0,1,1.17,1.19,3.72,3.72,0,0,1,.39,1.81h-2.33a2.34,2.34,0,0,0-.08-.75,1.15,1.15,0,0,0-.35-.58,1.06,1.06,0,0,0-.73-.22,1.48,1.48,0,0,0-.73.16,1.53,1.53,0,0,0-.53.48,1.58,1.58,0,0,0-.28.71.94.94,0,0,0,.08.56,1.44,1.44,0,0,0,.36.42,3,3,0,0,0,.52.32l.5.24a10.54,10.54,0,0,1,1.41.79,3.58,3.58,0,0,1,1,1,2.58,2.58,0,0,1,.31,1.56,3.1,3.1,0,0,1-.39,1.45,3.36,3.36,0,0,1-.93,1,4.1,4.1,0,0,1-1.29.64,5,5,0,0,1-1.5.2,3.93,3.93,0,0,1-1.84-.49,3.22,3.22,0,0,1-1.25-1.26,3.69,3.69,0,0,1-.41-1.85h2.27a2.42,2.42,0,0,0,.1.87,1.12,1.12,0,0,0,.43.62,1.48,1.48,0,0,0,.85.23,2.21,2.21,0,0,0,.78-.16,1.52,1.52,0,0,0,.61-.44A1.57,1.57,0,0,0,107.41,88.17Z"/><path class="cls-2" d="M119.75,82.56l-1.49,8.59h-2.35l1.93-11.09H120Zm-.85,2.65-.65,0a10.74,10.74,0,0,1,.36-1.83,7.81,7.81,0,0,1,.76-1.77,4.27,4.27,0,0,1,1.25-1.32,3.08,3.08,0,0,1,1.84-.46,2.19,2.19,0,0,1,1.35.41,2.33,2.33,0,0,1,.74,1,4.37,4.37,0,0,1,.27,1.33,8.12,8.12,0,0,1,0,1.4l-1.19,7.16h-2.32L122.46,84a5.88,5.88,0,0,0,0-.94,1.53,1.53,0,0,0-.26-.81.92.92,0,0,0-.82-.34,1.58,1.58,0,0,0-1.07.3,2.78,2.78,0,0,0-.73.86,5.18,5.18,0,0,0-.46,1.12A9.12,9.12,0,0,0,118.9,85.21Z"/><path class="cls-2" d="M132.39,84.39,132.13,86h-1a3,3,0,0,0-.89.13,2.64,2.64,0,0,0-.77.38,2.32,2.32,0,0,0-.58.63,2.13,2.13,0,0,0-.28.86,2.09,2.09,0,0,0,0,.71,1,1,0,0,0,.29.54.93.93,0,0,0,.66.21,2.17,2.17,0,0,0,.89-.2,2.27,2.27,0,0,0,.74-.55,1.53,1.53,0,0,0,.38-.81l.4,1a4,4,0,0,1-.43,1,3.45,3.45,0,0,1-.65.81,2.88,2.88,0,0,1-.87.56,2.57,2.57,0,0,1-1,.2,2.81,2.81,0,0,1-1.56-.45,2.7,2.7,0,0,1-1-1.16,3.4,3.4,0,0,1-.26-1.6,3.72,3.72,0,0,1,.46-1.7,3.44,3.44,0,0,1,1.07-1.17,4.53,4.53,0,0,1,1.49-.69,6.59,6.59,0,0,1,1.74-.23Zm-1.09,4.5.89-5.54a3.25,3.25,0,0,0,0-.77,1,1,0,0,0-.29-.58,1,1,0,0,0-.7-.22,1.43,1.43,0,0,0-.79.19,1.52,1.52,0,0,0-.53.54,2.26,2.26,0,0,0-.27.74l-2.32,0a3.51,3.51,0,0,1,1.36-2.53,4.2,4.2,0,0,1,1.29-.68,4.94,4.94,0,0,1,1.49-.23,3.48,3.48,0,0,1,1.8.47,2.56,2.56,0,0,1,1.07,1.23,3.85,3.85,0,0,1,.23,1.87l-.84,5.19a11.69,11.69,0,0,0-.12,1.19,4.76,4.76,0,0,0,.11,1.19l0,.18h-2.3a4.26,4.26,0,0,1-.13-1.13A10.94,10.94,0,0,1,131.3,88.89Z"/><path class="cls-2" d="M141.85,80.06l-.32,1.84h-5.29l.32-1.84Zm-3.38-2.72h2.34L139,88.08a3.26,3.26,0,0,0,0,.54.73.73,0,0,0,.13.45.52.52,0,0,0,.47.19l.34,0,.36-.07-.2,2a3.21,3.21,0,0,1-.66.17,3.82,3.82,0,0,1-.68,0,1.92,1.92,0,0,1-1.36-.48,2.25,2.25,0,0,1-.62-1.17,4.52,4.52,0,0,1-.08-1.47Z"/><path class="cls-2" d="M148.14,86.18l.66,0a15.62,15.62,0,0,1-.33,1.8,6.9,6.9,0,0,1-.66,1.71,3.6,3.6,0,0,1-1.16,1.26,2.94,2.94,0,0,1-1.79.45,2.51,2.51,0,0,1-1.39-.41,2.43,2.43,0,0,1-.78-1,4.11,4.11,0,0,1-.31-1.34,7.36,7.36,0,0,1,0-1.41l1.2-7.17h2.33l-1.2,7.19q0,.3,0,.63a2.46,2.46,0,0,0,.06.67,1.07,1.07,0,0,0,.27.54.87.87,0,0,0,.59.24,1.88,1.88,0,0,0,1.4-.45,3.08,3.08,0,0,0,.77-1.24A7.36,7.36,0,0,0,148.14,86.18Zm-.65,2.22,1.45-8.34h2.35l-1.93,11.09h-2.19Z"/><path class="cls-2" d="M155.52,82.31,154,91.15h-2.33l1.92-11.09h2.22ZM158.47,80l-.29,2.35-.44-.07a2,2,0,0,0-.42,0,1.93,1.93,0,0,0-1.67.78,3.68,3.68,0,0,0-.48.82,5.9,5.9,0,0,0-.29.93l-.51,0c.06-.43.15-.94.28-1.51a8,8,0,0,1,.55-1.65,3.55,3.55,0,0,1,1-1.31,2.14,2.14,0,0,1,1.5-.49,3.05,3.05,0,0,1,.41.05Z"/><path class="cls-2" d="M164.23,84.39,164,86h-1a2.9,2.9,0,0,0-.89.13,2.64,2.64,0,0,0-.77.38,2.17,2.17,0,0,0-.58.63,2.13,2.13,0,0,0-.28.86,2.09,2.09,0,0,0,0,.71,1,1,0,0,0,.29.54.92.92,0,0,0,.66.21,2.17,2.17,0,0,0,.89-.2,2.38,2.38,0,0,0,.74-.55,1.6,1.6,0,0,0,.38-.81l.4,1a4.42,4.42,0,0,1-.43,1,3.45,3.45,0,0,1-.65.81,2.88,2.88,0,0,1-.87.56,2.59,2.59,0,0,1-1.05.2,2.8,2.8,0,0,1-1.55-.45,2.63,2.63,0,0,1-.95-1.16,3.4,3.4,0,0,1-.26-1.6,3.6,3.6,0,0,1,.46-1.7,3.51,3.51,0,0,1,1.06-1.17,4.68,4.68,0,0,1,1.5-.69,6.57,6.57,0,0,1,1.73-.23Zm-1.09,4.5.88-5.54a2.81,2.81,0,0,0,0-.77,1,1,0,0,0-.29-.58,1,1,0,0,0-.7-.22,1.43,1.43,0,0,0-.79.19,1.45,1.45,0,0,0-.53.54,2.26,2.26,0,0,0-.27.74l-2.32,0a3.36,3.36,0,0,1,.42-1.43,3.55,3.55,0,0,1,.94-1.1,4.2,4.2,0,0,1,1.29-.68,4.94,4.94,0,0,1,1.49-.23,3.48,3.48,0,0,1,1.8.47,2.56,2.56,0,0,1,1.07,1.23,3.85,3.85,0,0,1,.23,1.87l-.84,5.19a11.69,11.69,0,0,0-.12,1.19A4.76,4.76,0,0,0,165.5,91l0,.18h-2.3a4.26,4.26,0,0,1-.13-1.13A10.94,10.94,0,0,1,163.14,88.89Z"/><path class="cls-2" d="M172.62,75.4l-2.74,15.75h-2.34l2.74-15.75Z"/><path class="cls-2" d="M176.6,91.36a4,4,0,0,1-1.86-.44,3,3,0,0,1-1.19-1.11A4.42,4.42,0,0,1,173,88.2a7,7,0,0,1-.07-1.89l.13-1.07a9.88,9.88,0,0,1,.48-2,6.39,6.39,0,0,1,.94-1.75A4.13,4.13,0,0,1,178,79.84a3.29,3.29,0,0,1,1.82.51,3,3,0,0,1,1,1.24,4.93,4.93,0,0,1,.4,1.71,10.52,10.52,0,0,1-.05,1.86L181,86.37h-7l.33-1.81h4.6l.05-.28a5.42,5.42,0,0,0,0-1.07,1.78,1.78,0,0,0-.31-.94,1.12,1.12,0,0,0-.92-.44,1.75,1.75,0,0,0-1.13.29,2.1,2.1,0,0,0-.7.85,4.7,4.7,0,0,0-.38,1.13c-.08.4-.14.78-.18,1.13l-.13,1.08a7.18,7.18,0,0,0-.05,1,3.34,3.34,0,0,0,.16,1,1.49,1.49,0,0,0,.51.72,1.63,1.63,0,0,0,1,.3,2.84,2.84,0,0,0,1.37-.3,4.8,4.8,0,0,0,1.16-.82l.92,1.48a3.62,3.62,0,0,1-1,1,4.89,4.89,0,0,1-1.29.54A5.93,5.93,0,0,1,176.6,91.36Z"/><path class="cls-2" d="M187.52,88.17a1,1,0,0,0-.2-.78,2.43,2.43,0,0,0-.65-.53c-.26-.15-.49-.28-.71-.39a11.39,11.39,0,0,1-1-.55,4.64,4.64,0,0,1-.87-.69,2.55,2.55,0,0,1-.58-.87,2.84,2.84,0,0,1-.16-1.17,3.39,3.39,0,0,1,.39-1.4,3.47,3.47,0,0,1,.87-1.07,3.84,3.84,0,0,1,1.23-.66,4.61,4.61,0,0,1,1.44-.22,3.92,3.92,0,0,1,1.79.45,2.86,2.86,0,0,1,1.17,1.19,3.61,3.61,0,0,1,.38,1.81h-2.33a2.34,2.34,0,0,0-.07-.75,1.17,1.17,0,0,0-.36-.58,1.05,1.05,0,0,0-.72-.22,1.48,1.48,0,0,0-.73.16,1.56,1.56,0,0,0-.54.48,1.7,1.7,0,0,0-.27.71.87.87,0,0,0,.07.56,1.34,1.34,0,0,0,.37.42,3.36,3.36,0,0,0,.51.32l.5.24a10.54,10.54,0,0,1,1.41.79,3.47,3.47,0,0,1,1,1,2.51,2.51,0,0,1,.31,1.56,3.1,3.1,0,0,1-.39,1.45,3.45,3.45,0,0,1-.92,1,4.15,4.15,0,0,1-1.3.64,5,5,0,0,1-1.5.2,4,4,0,0,1-1.84-.49,3.13,3.13,0,0,1-1.24-1.26,3.69,3.69,0,0,1-.42-1.85h2.27a2.67,2.67,0,0,0,.1.87,1.17,1.17,0,0,0,.43.62,1.5,1.5,0,0,0,.85.23,2.27,2.27,0,0,0,.79-.16,1.56,1.56,0,0,0,.6-.44A1.58,1.58,0,0,0,187.52,88.17Z"/><path class="cls-2" d="M196.62,86.05l.12-.88a8,8,0,0,1,.49-2,6,6,0,0,1,1-1.73,4.38,4.38,0,0,1,1.5-1.2,4.15,4.15,0,0,1,2-.41,3.45,3.45,0,0,1,1.83.49,3.31,3.31,0,0,1,1.14,1.24,5.13,5.13,0,0,1,.53,1.7,8.44,8.44,0,0,1,0,1.88l-.11.89a7.94,7.94,0,0,1-.49,2,6.23,6.23,0,0,1-1,1.72,4.44,4.44,0,0,1-1.49,1.2,4.32,4.32,0,0,1-2,.4,3.48,3.48,0,0,1-1.85-.5,3.26,3.26,0,0,1-1.13-1.23,5,5,0,0,1-.53-1.7A7.88,7.88,0,0,1,196.62,86.05Zm2.45-.89-.1.9c0,.28,0,.61-.05,1a4.74,4.74,0,0,0,.1,1.07,1.88,1.88,0,0,0,.43.87,1.2,1.2,0,0,0,.89.39,1.8,1.8,0,0,0,1.13-.28,2.35,2.35,0,0,0,.73-.83,5,5,0,0,0,.43-1.1,8.82,8.82,0,0,0,.22-1.12l.09-.9c0-.27,0-.59.05-1a4.79,4.79,0,0,0-.1-1.07,2.06,2.06,0,0,0-.42-.88,1.23,1.23,0,0,0-.92-.39,1.72,1.72,0,0,0-1.08.29,2.39,2.39,0,0,0-.73.84,5.38,5.38,0,0,0-.45,1.11A8.29,8.29,0,0,0,199.07,85.16Z"/><path class="cls-2" d="M215.2,89.37a1.57,1.57,0,0,0,1-.25,1.79,1.79,0,0,0,.59-.71,3.82,3.82,0,0,0,.3-.94h2.19a4.85,4.85,0,0,1-.68,2,4,4,0,0,1-3.49,1.91,3.72,3.72,0,0,1-1.87-.48,3.05,3.05,0,0,1-1.11-1.2A4.76,4.76,0,0,1,211.6,88a8.62,8.62,0,0,1,0-1.9l.13-1a9.46,9.46,0,0,1,.47-2,6.09,6.09,0,0,1,.94-1.7,4.25,4.25,0,0,1,1.46-1.16,4.33,4.33,0,0,1,2-.39,3.22,3.22,0,0,1,2,.62,3.16,3.16,0,0,1,1,1.53,5.72,5.72,0,0,1,.26,2h-2.2a5.36,5.36,0,0,0,0-1,1.67,1.67,0,0,0-.35-.85,1.09,1.09,0,0,0-.88-.37,1.77,1.77,0,0,0-1.11.27,2.12,2.12,0,0,0-.69.79,4.82,4.82,0,0,0-.38,1.07c-.08.38-.14.76-.19,1.12l-.11,1c0,.28-.05.61-.08,1a4.13,4.13,0,0,0,0,1.06,1.61,1.61,0,0,0,.37.85A1.24,1.24,0,0,0,215.2,89.37Z"/><path class="cls-2" d="M221,86.05l.11-.88a8.44,8.44,0,0,1,.49-2,6.55,6.55,0,0,1,1-1.73,4.38,4.38,0,0,1,1.5-1.2,4.18,4.18,0,0,1,2-.41,3.45,3.45,0,0,1,1.83.49,3.31,3.31,0,0,1,1.14,1.24,4.91,4.91,0,0,1,.53,1.7,7.88,7.88,0,0,1,0,1.88l-.1.89a8,8,0,0,1-.5,2,6.2,6.2,0,0,1-1,1.72,4.58,4.58,0,0,1-1.5,1.2,4.32,4.32,0,0,1-2,.4,3.44,3.44,0,0,1-1.84-.5,3.11,3.11,0,0,1-1.13-1.23,5,5,0,0,1-.54-1.7A7.88,7.88,0,0,1,221,86.05Zm2.45-.89-.11.9c0,.28,0,.61-.05,1a4.74,4.74,0,0,0,.11,1.07,1.78,1.78,0,0,0,.42.87,1.22,1.22,0,0,0,.9.39,1.77,1.77,0,0,0,1.12-.28,2.25,2.25,0,0,0,.73-.83,4.58,4.58,0,0,0,.43-1.1,7.35,7.35,0,0,0,.22-1.12l.09-.9a8.72,8.72,0,0,0,.05-1,4.27,4.27,0,0,0-.1-1.07,1.86,1.86,0,0,0-.42-.88,1.21,1.21,0,0,0-.91-.39,1.75,1.75,0,0,0-1.09.29,2.5,2.5,0,0,0-.73.84,4.85,4.85,0,0,0-.44,1.11A6.91,6.91,0,0,0,223.45,85.16Z"/><path class="cls-2" d="M234.41,82.56l-1.49,8.59h-2.35l1.93-11.09h2.2Zm-.85,2.65-.65,0a10.74,10.74,0,0,1,.36-1.83,7.81,7.81,0,0,1,.76-1.77,4.27,4.27,0,0,1,1.25-1.32,3.08,3.08,0,0,1,1.84-.46,2.19,2.19,0,0,1,1.35.41,2.33,2.33,0,0,1,.74,1,4.37,4.37,0,0,1,.27,1.33,8.12,8.12,0,0,1,0,1.4l-1.19,7.16h-2.32L237.12,84a5.88,5.88,0,0,0,0-.94,1.53,1.53,0,0,0-.26-.81.92.92,0,0,0-.82-.34,1.58,1.58,0,0,0-1.07.3,2.78,2.78,0,0,0-.73.86,5.18,5.18,0,0,0-.46,1.12A9.12,9.12,0,0,0,233.56,85.21Z"/><path class="cls-2" d="M248.1,75.4h2.32l-2.33,13.49-.57,2.26h-2.16Zm6.4,9.74-.11.87a14.43,14.43,0,0,1-.38,1.87,6.94,6.94,0,0,1-.73,1.77A3.8,3.8,0,0,1,252,90.93a3.25,3.25,0,0,1-1.87.44,2.2,2.2,0,0,1-1.5-.56,3.12,3.12,0,0,1-.84-1.32,6.61,6.61,0,0,1-.34-1.67,12.29,12.29,0,0,1,0-1.6l.16-1.22a12.85,12.85,0,0,1,.42-1.71,7.88,7.88,0,0,1,.76-1.7A4.1,4.1,0,0,1,250,80.3a2.8,2.8,0,0,1,1.69-.47,2.67,2.67,0,0,1,1.7.54,2.9,2.9,0,0,1,.88,1.31,5.89,5.89,0,0,1,.29,1.71A14.22,14.22,0,0,1,254.5,85.14Zm-2.43.9.1-.89c0-.29.05-.62.08-1a4.73,4.73,0,0,0,0-1.07,1.58,1.58,0,0,0-.38-.87,1.23,1.23,0,0,0-.92-.35,1.7,1.7,0,0,0-.94.2,2.39,2.39,0,0,0-.7.61,3.54,3.54,0,0,0-.48.83,4.61,4.61,0,0,0-.29.89l-.36,2.41a4.74,4.74,0,0,0,.08,1.12,2.15,2.15,0,0,0,.47,1,1.34,1.34,0,0,0,1,.43,1.74,1.74,0,0,0,1.12-.27,1.92,1.92,0,0,0,.69-.8,5.1,5.1,0,0,0,.38-1.08C252,86.78,252,86.41,252.07,86Z"/><path class="cls-2" d="M261.93,84.39,261.67,86h-1a2.9,2.9,0,0,0-.89.13,2.64,2.64,0,0,0-.77.38,2.17,2.17,0,0,0-.58.63,2.3,2.3,0,0,0-.29.86,2.36,2.36,0,0,0,0,.71,1,1,0,0,0,.29.54.9.9,0,0,0,.66.21,2.17,2.17,0,0,0,.89-.2,2.38,2.38,0,0,0,.74-.55,1.6,1.6,0,0,0,.38-.81l.4,1a4.42,4.42,0,0,1-.43,1,3.45,3.45,0,0,1-.65.81,2.88,2.88,0,0,1-.87.56,2.59,2.59,0,0,1-1.05.2,2.8,2.8,0,0,1-1.55-.45,2.63,2.63,0,0,1-.95-1.16,3.4,3.4,0,0,1-.26-1.6,3.6,3.6,0,0,1,.46-1.7,3.51,3.51,0,0,1,1.06-1.17,4.68,4.68,0,0,1,1.5-.69,6.57,6.57,0,0,1,1.73-.23Zm-1.09,4.5.88-5.54a2.81,2.81,0,0,0,0-.77,1,1,0,0,0-.29-.58,1,1,0,0,0-.7-.22,1.43,1.43,0,0,0-.79.19,1.45,1.45,0,0,0-.53.54,2.26,2.26,0,0,0-.27.74l-2.32,0a3.36,3.36,0,0,1,.42-1.43,3.55,3.55,0,0,1,.94-1.1,4.2,4.2,0,0,1,1.29-.68,4.92,4.92,0,0,1,1.48-.23,3.5,3.5,0,0,1,1.81.47,2.56,2.56,0,0,1,1.07,1.23,3.85,3.85,0,0,1,.23,1.87l-.84,5.19a11.69,11.69,0,0,0-.12,1.19A4.76,4.76,0,0,0,263.2,91l0,.18h-2.3a4.26,4.26,0,0,1-.13-1.13A10.94,10.94,0,0,1,260.84,88.89Z"/><path class="cls-2" d="M267.12,80.06h2.35l-2.05,12a6.08,6.08,0,0,1-.49,1.78,3.34,3.34,0,0,1-1.05,1.32,2.82,2.82,0,0,1-1.76.48,4.6,4.6,0,0,1-.64,0l-.62-.14.23-2,.36.07a1.58,1.58,0,0,0,.38,0,1,1,0,0,0,.67-.23,1.37,1.37,0,0,0,.38-.58,5.44,5.44,0,0,0,.2-.72Zm.34-2.88a1.39,1.39,0,0,1,.35-1,1.24,1.24,0,0,1,.94-.42,1.19,1.19,0,0,1,.93.36,1.31,1.31,0,0,1,.35,1,1.36,1.36,0,0,1-.36,1,1.25,1.25,0,0,1-.93.4,1.19,1.19,0,0,1-.93-.36A1.33,1.33,0,0,1,267.46,77.18Z"/><path class="cls-2" d="M276.4,84.39,276.14,86h-1a2.9,2.9,0,0,0-.89.13,2.82,2.82,0,0,0-.78.38,2.28,2.28,0,0,0-.57.63,2.14,2.14,0,0,0-.29.86,2.08,2.08,0,0,0,0,.71,1,1,0,0,0,.29.54.9.9,0,0,0,.66.21,2.13,2.13,0,0,0,.88-.2,2.32,2.32,0,0,0,.75-.55,1.6,1.6,0,0,0,.38-.81l.4,1a4.94,4.94,0,0,1-.43,1,3.45,3.45,0,0,1-.65.81,2.88,2.88,0,0,1-.87.56,2.59,2.59,0,0,1-1,.2,2.78,2.78,0,0,1-1.55-.45,2.57,2.57,0,0,1-.95-1.16,3.53,3.53,0,0,1-.27-1.6,3.72,3.72,0,0,1,.47-1.7,3.41,3.41,0,0,1,1.06-1.17,4.73,4.73,0,0,1,1.49-.69,6.7,6.7,0,0,1,1.74-.23Zm-1.09,4.5.88-5.54a3.27,3.27,0,0,0,0-.77,1.07,1.07,0,0,0-.29-.58,1,1,0,0,0-.7-.22,1.43,1.43,0,0,0-.79.19,1.45,1.45,0,0,0-.53.54,2.26,2.26,0,0,0-.27.74l-2.32,0a3.36,3.36,0,0,1,.42-1.43,3.55,3.55,0,0,1,.94-1.1,4.2,4.2,0,0,1,1.29-.68,4.92,4.92,0,0,1,1.48-.23,3.52,3.52,0,0,1,1.81.47,2.56,2.56,0,0,1,1.07,1.23,3.85,3.85,0,0,1,.23,1.87l-.84,5.19a11.69,11.69,0,0,0-.12,1.19,4.33,4.33,0,0,0,.11,1.19l0,.18h-2.3a4.26,4.26,0,0,1-.13-1.13A8.75,8.75,0,0,1,275.31,88.89Z"/><path class="cls-2" d="M289.9,88.17a1,1,0,0,0-.2-.78,2.38,2.38,0,0,0-.64-.53l-.72-.39a11.2,11.2,0,0,1-1-.55,4.64,4.64,0,0,1-.87-.69,2.42,2.42,0,0,1-.58-.87,2.54,2.54,0,0,1-.16-1.17,3.38,3.38,0,0,1,.38-1.4,3.62,3.62,0,0,1,.87-1.07,3.84,3.84,0,0,1,1.23-.66,4.7,4.7,0,0,1,1.44-.22,3.93,3.93,0,0,1,1.8.45,2.89,2.89,0,0,1,1.16,1.19,3.72,3.72,0,0,1,.39,1.81h-2.33a2.34,2.34,0,0,0-.08-.75,1.15,1.15,0,0,0-.35-.58,1.06,1.06,0,0,0-.73-.22,1.48,1.48,0,0,0-.73.16,1.62,1.62,0,0,0-.53.48,1.71,1.71,0,0,0-.28.71.94.94,0,0,0,.08.56,1.44,1.44,0,0,0,.36.42,3,3,0,0,0,.52.32l.5.24a10.54,10.54,0,0,1,1.41.79,3.58,3.58,0,0,1,1,1,2.58,2.58,0,0,1,.31,1.56,3.1,3.1,0,0,1-.39,1.45,3.36,3.36,0,0,1-.93,1,4.1,4.1,0,0,1-1.29.64,5,5,0,0,1-1.5.2,3.93,3.93,0,0,1-1.84-.49A3.22,3.22,0,0,1,285,89.61a3.69,3.69,0,0,1-.41-1.85h2.27a2.42,2.42,0,0,0,.1.87,1.12,1.12,0,0,0,.43.62,1.48,1.48,0,0,0,.85.23,2.21,2.21,0,0,0,.78-.16,1.52,1.52,0,0,0,.61-.44A1.57,1.57,0,0,0,289.9,88.17Z"/><path class="cls-2" d="M297.91,91.36a4.05,4.05,0,0,1-1.86-.44,3,3,0,0,1-1.18-1.11,4.43,4.43,0,0,1-.59-1.61,7.39,7.39,0,0,1-.06-1.89l.12-1.07a9.88,9.88,0,0,1,.48-2,6.41,6.41,0,0,1,.95-1.75,4.1,4.1,0,0,1,1.46-1.22,4.26,4.26,0,0,1,2-.43,3.27,3.27,0,0,1,1.82.51,2.82,2.82,0,0,1,1,1.24,5.17,5.17,0,0,1,.41,1.71,9.65,9.65,0,0,1-.06,1.86l-.18,1.21h-7l.32-1.81h4.61l0-.28a5.42,5.42,0,0,0,0-1.07,1.88,1.88,0,0,0-.31-.94,1.13,1.13,0,0,0-.93-.44,1.77,1.77,0,0,0-1.13.29,2.18,2.18,0,0,0-.7.85,5.18,5.18,0,0,0-.38,1.13c-.08.4-.14.78-.18,1.13l-.12,1.08a6,6,0,0,0-.06,1,3.71,3.71,0,0,0,.16,1,1.49,1.49,0,0,0,.51.72,1.66,1.66,0,0,0,1,.3,2.87,2.87,0,0,0,1.37-.3,5,5,0,0,0,1.15-.82l.92,1.48a3.59,3.59,0,0,1-1,1,5.11,5.11,0,0,1-1.3.54A5.87,5.87,0,0,1,297.91,91.36Z"/><path class="cls-2" d="M307.1,82.56l-1.49,8.59h-2.35l1.93-11.09h2.2Zm-.85,2.65-.65,0A10.74,10.74,0,0,1,306,83.4a7.81,7.81,0,0,1,.76-1.77A4.27,4.27,0,0,1,308,80.31a3.1,3.1,0,0,1,1.85-.46,2.18,2.18,0,0,1,1.34.41,2.25,2.25,0,0,1,.74,1,4.37,4.37,0,0,1,.27,1.33,8.12,8.12,0,0,1,0,1.4L311,91.15h-2.32L309.82,84a7.35,7.35,0,0,0,0-.94,1.53,1.53,0,0,0-.26-.81.92.92,0,0,0-.82-.34,1.59,1.59,0,0,0-1.07.3A2.78,2.78,0,0,0,307,83a5.18,5.18,0,0,0-.46,1.12A9.12,9.12,0,0,0,306.25,85.21Zm5.24-9.7,1.37.11a4.59,4.59,0,0,1-.28,1.21,2.63,2.63,0,0,1-.67,1,1.55,1.55,0,0,1-1.15.41,1.23,1.23,0,0,1-.61-.16,3.58,3.58,0,0,1-.52-.34,5.69,5.69,0,0,0-.52-.33,1.08,1.08,0,0,0-.56-.13.69.69,0,0,0-.62.36,3.48,3.48,0,0,0-.29.69l-1.39-.09a5.22,5.22,0,0,1,.29-1.2,2.69,2.69,0,0,1,.68-1,1.59,1.59,0,0,1,1.16-.41,1.25,1.25,0,0,1,.58.15,4.3,4.3,0,0,1,.52.35,2.73,2.73,0,0,0,.52.34,1.18,1.18,0,0,0,.59.12.69.69,0,0,0,.62-.36A4.18,4.18,0,0,0,311.49,75.51Z"/><path class="cls-2" d="M319.74,84.39,319.48,86h-1a3,3,0,0,0-.89.13,2.64,2.64,0,0,0-.77.38,2.32,2.32,0,0,0-.58.63,2.13,2.13,0,0,0-.28.86,2.09,2.09,0,0,0,0,.71,1,1,0,0,0,.29.54.93.93,0,0,0,.66.21,2.17,2.17,0,0,0,.89-.2,2.27,2.27,0,0,0,.74-.55,1.53,1.53,0,0,0,.38-.81l.4,1a4.38,4.38,0,0,1-.42,1,3.49,3.49,0,0,1-.66.81,2.88,2.88,0,0,1-.87.56,2.57,2.57,0,0,1-1,.2,2.81,2.81,0,0,1-1.56-.45,2.7,2.7,0,0,1-.95-1.16,3.4,3.4,0,0,1-.26-1.6,3.72,3.72,0,0,1,.46-1.7,3.44,3.44,0,0,1,1.07-1.17,4.53,4.53,0,0,1,1.49-.69,6.59,6.59,0,0,1,1.74-.23Zm-1.09,4.5.89-5.54a3.25,3.25,0,0,0,0-.77,1,1,0,0,0-.29-.58,1,1,0,0,0-.7-.22,1.43,1.43,0,0,0-.79.19,1.52,1.52,0,0,0-.53.54,2.26,2.26,0,0,0-.27.74l-2.32,0A3.51,3.51,0,0,1,316,80.74a4.14,4.14,0,0,1,1.3-.68,4.82,4.82,0,0,1,1.48-.23,3.48,3.48,0,0,1,1.8.47,2.56,2.56,0,0,1,1.07,1.23,3.73,3.73,0,0,1,.23,1.87L321,88.59a9.4,9.4,0,0,0-.11,1.19A4.32,4.32,0,0,0,321,91l0,.18H318.7a3.89,3.89,0,0,1-.14-1.13A10.94,10.94,0,0,1,318.65,88.89Z"/><path class="cls-2" d="M328.13,75.4l-2.74,15.75h-2.34l2.74-15.75Z"/><path class="cls-2" d="M15.67,107.05l.1-.86a14.7,14.7,0,0,1,.39-1.86,7,7,0,0,1,.76-1.75,3.6,3.6,0,0,1,1.26-1.28,3.3,3.3,0,0,1,1.88-.45,2.15,2.15,0,0,1,1.5.56,3.34,3.34,0,0,1,.83,1.34,6.76,6.76,0,0,1,.33,1.68,8.64,8.64,0,0,1,0,1.61l-.15,1.21a12.87,12.87,0,0,1-.42,1.68,7.48,7.48,0,0,1-.78,1.7,4.22,4.22,0,0,1-1.2,1.28,2.76,2.76,0,0,1-1.68.46,2.63,2.63,0,0,1-1.65-.55,2.93,2.93,0,0,1-.89-1.33,5.9,5.9,0,0,1-.32-1.71A12.31,12.31,0,0,1,15.67,107.05Zm2.45-.87-.09.89c0,.3-.06.63-.08,1a4.69,4.69,0,0,0,.06,1.06,1.71,1.71,0,0,0,.39.85,1.19,1.19,0,0,0,.92.36,1.66,1.66,0,0,0,1.16-.36,3.05,3.05,0,0,0,.78-1,4.59,4.59,0,0,0,.44-1.16l.37-2.41a6,6,0,0,0,0-.83,3.2,3.2,0,0,0-.22-.82,1.72,1.72,0,0,0-.48-.64,1.34,1.34,0,0,0-.79-.27,1.75,1.75,0,0,0-1.12.26,2.1,2.1,0,0,0-.71.82,5,5,0,0,0-.4,1.1A10.5,10.5,0,0,0,18.12,106.18ZM21,109.71l2.3-13.31h2.35l-2.74,15.75h-2.1Z"/><path class="cls-2" d="M29.51,112.36a4,4,0,0,1-1.85-.44,3,3,0,0,1-1.19-1.11,4.62,4.62,0,0,1-.59-1.61,7.39,7.39,0,0,1-.06-1.89l.12-1.07a9.28,9.28,0,0,1,.49-2,6.13,6.13,0,0,1,.94-1.75,4.19,4.19,0,0,1,1.46-1.22,4.27,4.27,0,0,1,2.05-.43,3.29,3.29,0,0,1,1.82.51,3,3,0,0,1,1,1.24,5.17,5.17,0,0,1,.4,1.71,10.52,10.52,0,0,1-.05,1.86l-.19,1.21h-7l.33-1.81h4.6l.05-.28a5.42,5.42,0,0,0,0-1.07,1.88,1.88,0,0,0-.31-.94,1.13,1.13,0,0,0-.93-.44,1.77,1.77,0,0,0-1.13.29,2.16,2.16,0,0,0-.69.85,4.7,4.7,0,0,0-.38,1.13c-.08.4-.15.78-.19,1.13l-.12,1.08a6,6,0,0,0-.06,1,3.34,3.34,0,0,0,.17,1,1.49,1.49,0,0,0,.51.72,1.61,1.61,0,0,0,1,.3,2.84,2.84,0,0,0,1.37-.3,4.75,4.75,0,0,0,1.15-.82l.93,1.48a3.76,3.76,0,0,1-1,1,4.89,4.89,0,0,1-1.29.54A6,6,0,0,1,29.51,112.36Z"/><path class="cls-2" d="M43.87,110.37a1.52,1.52,0,0,0,1-.25,1.71,1.71,0,0,0,.59-.71,3.82,3.82,0,0,0,.3-.94h2.2a5,5,0,0,1-.68,2,4.05,4.05,0,0,1-1.45,1.4,4,4,0,0,1-2,.51,3.69,3.69,0,0,1-1.87-.48,2.91,2.91,0,0,1-1.11-1.2,5,5,0,0,1-.5-1.68,8.06,8.06,0,0,1,0-1.9l.12-1a9.48,9.48,0,0,1,.48-2,5.85,5.85,0,0,1,.94-1.7,4.21,4.21,0,0,1,1.45-1.16,4.38,4.38,0,0,1,2-.39,3.17,3.17,0,0,1,2,.62,3.25,3.25,0,0,1,1,1.53,5.72,5.72,0,0,1,.25,2H46.36a5.37,5.37,0,0,0,0-1,1.58,1.58,0,0,0-.34-.85,1.1,1.1,0,0,0-.88-.37,1.77,1.77,0,0,0-1.11.27,2.12,2.12,0,0,0-.69.79,4.36,4.36,0,0,0-.38,1.07,9.37,9.37,0,0,0-.19,1.12l-.11,1c0,.28-.06.61-.08,1a4.65,4.65,0,0,0,0,1.06,1.62,1.62,0,0,0,.38.85A1.21,1.21,0,0,0,43.87,110.37Z"/><path class="cls-2" d="M49.66,107.05l.12-.88a8,8,0,0,1,.49-2,6,6,0,0,1,1-1.73,4.38,4.38,0,0,1,1.5-1.2,4.15,4.15,0,0,1,2-.41,3.45,3.45,0,0,1,1.83.49,3.31,3.31,0,0,1,1.14,1.24,5.13,5.13,0,0,1,.53,1.7,8.44,8.44,0,0,1,0,1.88l-.11.89a7.94,7.94,0,0,1-.49,2,6.23,6.23,0,0,1-1,1.72,4.44,4.44,0,0,1-1.49,1.2,4.32,4.32,0,0,1-2,.4,3.48,3.48,0,0,1-1.85-.5,3.26,3.26,0,0,1-1.13-1.23,5,5,0,0,1-.53-1.7A7.88,7.88,0,0,1,49.66,107.05Zm2.45-.89-.1.9c0,.28,0,.61,0,1a4.74,4.74,0,0,0,.1,1.07,1.88,1.88,0,0,0,.43.87,1.2,1.2,0,0,0,.89.39,1.8,1.8,0,0,0,1.13-.28,2.35,2.35,0,0,0,.73-.83,5,5,0,0,0,.43-1.1,8.82,8.82,0,0,0,.22-1.12l.09-.9c0-.27,0-.59.05-1a4.79,4.79,0,0,0-.1-1.07,2.06,2.06,0,0,0-.42-.88,1.23,1.23,0,0,0-.92-.39,1.72,1.72,0,0,0-1.08.29,2.39,2.39,0,0,0-.73.84,5.38,5.38,0,0,0-.45,1.11A8.29,8.29,0,0,0,52.11,106.16Z"/><path class="cls-2" d="M63.13,103.45l-1.51,8.7H59.29l1.93-11.09H63.4Zm-.83,2.75h-.74a11,11,0,0,1,.36-1.85,6.92,6.92,0,0,1,.75-1.76,3.82,3.82,0,0,1,1.27-1.29,3.18,3.18,0,0,1,1.86-.46,2.18,2.18,0,0,1,1.28.38,2.3,2.3,0,0,1,.74.94,3.77,3.77,0,0,1,.31,1.25,6.67,6.67,0,0,1,0,1.34l-1.23,7.39H64.56l1.2-7.18a5.73,5.73,0,0,0,0-.93,1.67,1.67,0,0,0-.28-.82,1,1,0,0,0-.84-.36,1.67,1.67,0,0,0-1.07.3,2.53,2.53,0,0,0-.69.85,5.53,5.53,0,0,0-.4,1.12A8.55,8.55,0,0,0,62.3,106.2Zm5.59-.63-1.06.26a8.09,8.09,0,0,1,.34-1.74,6.08,6.08,0,0,1,.76-1.63,3.85,3.85,0,0,1,1.22-1.19,3.24,3.24,0,0,1,1.76-.43,2.33,2.33,0,0,1,1.38.4,2.28,2.28,0,0,1,.78,1,4.39,4.39,0,0,1,.31,1.33,8.54,8.54,0,0,1,0,1.43l-1.19,7.17H69.82L71,105a6,6,0,0,0,0-.95,1.6,1.6,0,0,0-.28-.81,1,1,0,0,0-.84-.33,1.41,1.41,0,0,0-.88.25,2,2,0,0,0-.59.68,3.46,3.46,0,0,0-.36.89C68,105,67.94,105.3,67.89,105.57Z"/><path class="cls-2" d="M80.93,107.18l.65,0a15.62,15.62,0,0,1-.33,1.8,6.9,6.9,0,0,1-.66,1.71,3.51,3.51,0,0,1-1.16,1.26,2.92,2.92,0,0,1-1.79.45,2.48,2.48,0,0,1-1.38-.41,2.28,2.28,0,0,1-.78-1,4.11,4.11,0,0,1-.32-1.34,9.44,9.44,0,0,1,0-1.41l1.2-7.17h2.33l-1.2,7.19q0,.3,0,.63a2.46,2.46,0,0,0,.06.67,1.15,1.15,0,0,0,.27.54.89.89,0,0,0,.59.24,1.87,1.87,0,0,0,1.4-.45,3,3,0,0,0,.78-1.24A8.13,8.13,0,0,0,80.93,107.18Zm-.65,2.22,1.45-8.34h2.34l-1.92,11.09H80Z"/><path class="cls-2" d="M88.24,103.56l-1.49,8.59H84.4l1.93-11.09h2.19Zm-.85,2.65-.65,0a10.74,10.74,0,0,1,.36-1.83,7.81,7.81,0,0,1,.76-1.77,4.16,4.16,0,0,1,1.25-1.32,3.08,3.08,0,0,1,1.84-.46,2.19,2.19,0,0,1,1.35.41,2.33,2.33,0,0,1,.74,1,4.37,4.37,0,0,1,.27,1.33,8.12,8.12,0,0,1,0,1.4l-1.19,7.16H89.76L91,105a5.88,5.88,0,0,0,0-.94,1.53,1.53,0,0,0-.26-.81.92.92,0,0,0-.82-.34,1.58,1.58,0,0,0-1.07.3,2.78,2.78,0,0,0-.73.86,5.18,5.18,0,0,0-.46,1.12A9.12,9.12,0,0,0,87.39,106.21Z"/><path class="cls-2" d="M98.79,101.06l-1.93,11.09H94.52l1.93-11.09Zm-2-2.88a1.4,1.4,0,0,1,.36-1,1.24,1.24,0,0,1,.94-.42,1.17,1.17,0,0,1,.92.37,1.31,1.31,0,0,1,.35,1,1.36,1.36,0,0,1-.36.95,1.21,1.21,0,0,1-.93.41,1.18,1.18,0,0,1-.92-.36A1.39,1.39,0,0,1,96.84,98.18Z"/><path class="cls-2" d="M103.47,110.37a1.55,1.55,0,0,0,1-.25,1.79,1.79,0,0,0,.59-.71,3.82,3.82,0,0,0,.3-.94h2.19a4.85,4.85,0,0,1-.68,2,4,4,0,0,1-1.44,1.4,4,4,0,0,1-2,.51,3.72,3.72,0,0,1-1.87-.48,3.05,3.05,0,0,1-1.11-1.2,5,5,0,0,1-.49-1.68,8.62,8.62,0,0,1,0-1.9l.13-1a10.12,10.12,0,0,1,.47-2,6.09,6.09,0,0,1,.94-1.7,4.25,4.25,0,0,1,1.46-1.16,4.33,4.33,0,0,1,2-.39,3,3,0,0,1,3,2.15,5.72,5.72,0,0,1,.26,2H106a6.44,6.44,0,0,0,0-1,1.76,1.76,0,0,0-.34-.85,1.12,1.12,0,0,0-.89-.37,1.77,1.77,0,0,0-1.11.27,2.12,2.12,0,0,0-.69.79,4.35,4.35,0,0,0-.37,1.07,9.37,9.37,0,0,0-.19,1.12l-.12,1c0,.28,0,.61-.08,1a4.64,4.64,0,0,0,0,1.06,1.61,1.61,0,0,0,.37.85A1.24,1.24,0,0,0,103.47,110.37Z"/><path class="cls-2" d="M115.19,105.39l-.25,1.56h-1a2.89,2.89,0,0,0-.88.13,2.57,2.57,0,0,0-.78.38,2.28,2.28,0,0,0-.57.63,2.14,2.14,0,0,0-.29.86,2.08,2.08,0,0,0,0,.71,1,1,0,0,0,.28.54.93.93,0,0,0,.66.21,2.14,2.14,0,0,0,.89-.2,2.27,2.27,0,0,0,.74-.55,1.46,1.46,0,0,0,.38-.81l.4,1a4.38,4.38,0,0,1-.42,1,3.25,3.25,0,0,1-.66.81,2.72,2.72,0,0,1-.86.56,2.62,2.62,0,0,1-1,.2,2.75,2.75,0,0,1-1.55-.45,2.65,2.65,0,0,1-1-1.16,3.53,3.53,0,0,1-.26-1.6,3.72,3.72,0,0,1,.46-1.7,3.54,3.54,0,0,1,1.07-1.17,4.63,4.63,0,0,1,1.49-.69,6.7,6.7,0,0,1,1.74-.23Zm-1.08,4.5.88-5.54a2.79,2.79,0,0,0,0-.77.87.87,0,0,0-1-.8,1.39,1.39,0,0,0-.78.19,1.45,1.45,0,0,0-.53.54,2.07,2.07,0,0,0-.28.74l-2.31,0a3.36,3.36,0,0,1,.42-1.43,3.55,3.55,0,0,1,.94-1.1,4,4,0,0,1,1.29-.68,4.87,4.87,0,0,1,1.48-.23,3.48,3.48,0,0,1,1.8.47,2.58,2.58,0,0,1,1.08,1.23,4,4,0,0,1,.23,1.87l-.84,5.19a7.87,7.87,0,0,0-.12,1.19,4.33,4.33,0,0,0,.11,1.19l0,.18h-2.3A3.89,3.89,0,0,1,114,111,7.3,7.3,0,0,1,114.11,109.89Z"/><path class="cls-2" d="M122.54,110.37a1.52,1.52,0,0,0,.95-.25,1.79,1.79,0,0,0,.59-.71,3.82,3.82,0,0,0,.3-.94h2.2a4.86,4.86,0,0,1-.69,2,4,4,0,0,1-3.49,1.91,3.65,3.65,0,0,1-1.86-.48,3,3,0,0,1-1.12-1.2,5,5,0,0,1-.49-1.68,8.06,8.06,0,0,1,0-1.9l.12-1a9.48,9.48,0,0,1,.48-2,5.85,5.85,0,0,1,.94-1.7,4.21,4.21,0,0,1,1.45-1.16,4.38,4.38,0,0,1,2-.39,3.17,3.17,0,0,1,2,.62,3.25,3.25,0,0,1,1,1.53,5.72,5.72,0,0,1,.25,2H125a5.37,5.37,0,0,0,0-1,1.66,1.66,0,0,0-.34-.85,1.12,1.12,0,0,0-.88-.37,1.8,1.8,0,0,0-1.12.27,2,2,0,0,0-.68.79,4,4,0,0,0-.38,1.07,9.37,9.37,0,0,0-.19,1.12l-.11,1c0,.28-.06.61-.09,1a5.29,5.29,0,0,0,0,1.06,1.69,1.69,0,0,0,.37.85A1.25,1.25,0,0,0,122.54,110.37Z"/><path class="cls-2" d="M132.17,101.06l-1.93,11.09H127.9l1.93-11.09Zm-1.95-2.88a1.4,1.4,0,0,1,.36-1,1.22,1.22,0,0,1,.94-.42,1.19,1.19,0,0,1,.92.37,1.45,1.45,0,0,1,0,1.9,1.22,1.22,0,0,1-.93.41,1.16,1.16,0,0,1-.92-.36A1.3,1.3,0,0,1,130.22,98.18Z"/><path class="cls-2" d="M133.25,107.05l.12-.88a8,8,0,0,1,.49-2,6,6,0,0,1,1-1.73,4.38,4.38,0,0,1,1.5-1.2,4.15,4.15,0,0,1,2-.41,3.45,3.45,0,0,1,1.83.49,3.31,3.31,0,0,1,1.14,1.24,4.9,4.9,0,0,1,.52,1.7,7.88,7.88,0,0,1,0,1.88l-.11.89a7.94,7.94,0,0,1-.49,2,6.23,6.23,0,0,1-1,1.72,4.44,4.44,0,0,1-1.49,1.2,4.32,4.32,0,0,1-2,.4,3.48,3.48,0,0,1-1.85-.5,3.26,3.26,0,0,1-1.13-1.23,5,5,0,0,1-.53-1.7A7.88,7.88,0,0,1,133.25,107.05Zm2.45-.89-.1.9c0,.28,0,.61,0,1a4.74,4.74,0,0,0,.1,1.07,1.88,1.88,0,0,0,.43.87,1.2,1.2,0,0,0,.89.39,1.8,1.8,0,0,0,1.13-.28,2.35,2.35,0,0,0,.73-.83,5,5,0,0,0,.43-1.1,8.82,8.82,0,0,0,.22-1.12l.09-.9c0-.27,0-.59.05-1a4.79,4.79,0,0,0-.1-1.07,2.06,2.06,0,0,0-.42-.88,1.23,1.23,0,0,0-.92-.39,1.72,1.72,0,0,0-1.08.29,2.39,2.39,0,0,0-.73.84,5.38,5.38,0,0,0-.45,1.11A8.29,8.29,0,0,0,135.7,106.16Zm1.64-6.66,2.43-3.1h2.88l-3.2,3.1Z"/><path class="cls-2" d="M146.66,103.56l-1.48,8.59h-2.35l1.93-11.09H147Zm-.85,2.65-.64,0a10.74,10.74,0,0,1,.36-1.83,7,7,0,0,1,.76-1.77,4.05,4.05,0,0,1,1.25-1.32,3.07,3.07,0,0,1,1.84-.46,2.19,2.19,0,0,1,1.35.41,2.31,2.31,0,0,1,.73,1,4.37,4.37,0,0,1,.28,1.33,8.12,8.12,0,0,1,0,1.4l-1.19,7.16h-2.33l1.19-7.19a7.34,7.34,0,0,0,0-.94,1.54,1.54,0,0,0-.27-.81.91.91,0,0,0-.82-.34,1.59,1.59,0,0,0-1.07.3,2.93,2.93,0,0,0-.73.86,5.7,5.7,0,0,0-.45,1.12C146,105.54,145.87,105.89,145.81,106.21Z"/><path class="cls-2" d="M153.22,110.94a1.33,1.33,0,0,1,.39-1,1.49,1.49,0,0,1,1-.43,1.37,1.37,0,0,1,1,.38,1.33,1.33,0,0,1,.4,1,1.34,1.34,0,0,1-.4,1,1.44,1.44,0,0,1-1,.42,1.29,1.29,0,0,1-1-.37A1.25,1.25,0,0,1,153.22,110.94Z"/><path class="cls-2" d="M161.85,96.4l-.24,1.45a5.89,5.89,0,0,1-.4,1.42,7,7,0,0,1-.73,1.28,6.82,6.82,0,0,1-1,1.09l-1.18-.82a10.88,10.88,0,0,0,.78-1.41,6.08,6.08,0,0,0,.49-1.53l.26-1.48Zm3,0-.23,1.45a5.91,5.91,0,0,1-.41,1.42,6.46,6.46,0,0,1-.72,1.28,7.92,7.92,0,0,1-1,1.09l-1.18-.82a13.93,13.93,0,0,0,.78-1.41,6.51,6.51,0,0,0,.49-1.53l.25-1.48Z"/><path class="cls-2" d="M167.06,97.22h2.05l-1.39,10.16-.82,4.77h-2.43Zm1,0h2.09l1.23,11.4,5.2-11.4h2.23l-7.1,14.93H170Zm9.63,0h2.07l-2.6,14.93h-2.43l.88-5Z"/><path class="cls-2" d="M184.1,101.06l-1.93,11.09h-2.33l1.92-11.09Zm-1.95-2.88a1.4,1.4,0,0,1,.36-1,1.26,1.26,0,0,1,1-.42,1.15,1.15,0,0,1,.91.37,1.32,1.32,0,0,1,.36,1,1.36,1.36,0,0,1-.36.95,1.23,1.23,0,0,1-.94.41,1.14,1.14,0,0,1-.91-.36A1.35,1.35,0,0,1,182.15,98.18Z"/><path class="cls-2" d="M188.42,103.56l-1.49,8.59h-2.35l1.93-11.09h2.2Zm-.85,2.65-.65,0a9.9,9.9,0,0,1,.37-1.83,7.37,7.37,0,0,1,.75-1.77,4.27,4.27,0,0,1,1.25-1.32,3.1,3.1,0,0,1,1.85-.46,2.18,2.18,0,0,1,1.34.41,2.25,2.25,0,0,1,.74,1,4.37,4.37,0,0,1,.27,1.33,8.12,8.12,0,0,1,0,1.4l-1.19,7.16H190l1.19-7.19a7.35,7.35,0,0,0,0-.94,1.53,1.53,0,0,0-.26-.81.92.92,0,0,0-.82-.34,1.59,1.59,0,0,0-1.07.3,2.78,2.78,0,0,0-.73.86,5.74,5.74,0,0,0-.46,1.12A9.12,9.12,0,0,0,187.57,106.21Z"/><path class="cls-2" d="M199,101.06,197,112.15H194.7l1.93-11.09ZM197,98.18a1.4,1.4,0,0,1,.36-1,1.24,1.24,0,0,1,.94-.42,1.16,1.16,0,0,1,.92.37,1.32,1.32,0,0,1,.36,1,1.36,1.36,0,0,1-.36.95,1.23,1.23,0,0,1-.94.41,1.14,1.14,0,0,1-.91-.36A1.35,1.35,0,0,1,197,98.18Z"/><path class="cls-2" d="M205,109.17a1,1,0,0,0-.2-.78,2.29,2.29,0,0,0-.65-.53c-.25-.15-.49-.28-.71-.39a10,10,0,0,1-1-.55,5.06,5.06,0,0,1-.88-.69,2.44,2.44,0,0,1-.73-2,3.38,3.38,0,0,1,.38-1.4,3.47,3.47,0,0,1,.87-1.07,3.84,3.84,0,0,1,1.23-.66,4.61,4.61,0,0,1,1.44-.22,3.88,3.88,0,0,1,1.79.45,2.86,2.86,0,0,1,1.17,1.19,3.72,3.72,0,0,1,.39,1.81h-2.33a2.34,2.34,0,0,0-.08-.75,1.15,1.15,0,0,0-.35-.58,1.08,1.08,0,0,0-.73-.22,1.48,1.48,0,0,0-.73.16,1.56,1.56,0,0,0-.54.48,1.7,1.7,0,0,0-.27.71.87.87,0,0,0,.08.56,1.19,1.19,0,0,0,.36.42,3.36,3.36,0,0,0,.51.32l.51.24a12,12,0,0,1,1.41.79,3.43,3.43,0,0,1,1,1,2.58,2.58,0,0,1,.32,1.56,3.17,3.17,0,0,1-1.32,2.5,4.1,4.1,0,0,1-1.29.64,5.1,5.1,0,0,1-1.51.2,4,4,0,0,1-1.84-.49,3.2,3.2,0,0,1-1.24-1.26,3.58,3.58,0,0,1-.41-1.85h2.26a2.42,2.42,0,0,0,.11.87,1.12,1.12,0,0,0,.43.62,1.48,1.48,0,0,0,.85.23,2.21,2.21,0,0,0,.78-.16,1.6,1.6,0,0,0,.61-.44A1.57,1.57,0,0,0,205,109.17Z"/><path class="cls-2" d="M215.05,101.06l-.33,1.84h-5.29l.33-1.84Zm-3.39-2.72H214l-1.82,10.74a3.27,3.27,0,0,0,0,.54.8.8,0,0,0,.13.45.53.53,0,0,0,.47.19l.34,0,.37-.07-.21,2a3.21,3.21,0,0,1-.66.17,3.82,3.82,0,0,1-.68,0,1.88,1.88,0,0,1-1.35-.48,2.2,2.2,0,0,1-.63-1.17,4.82,4.82,0,0,1-.08-1.47Z"/><path class="cls-2" d="M219.17,112.36a4.05,4.05,0,0,1-1.86-.44,3.1,3.1,0,0,1-1.19-1.11,4.61,4.61,0,0,1-.58-1.61,7.39,7.39,0,0,1-.06-1.89l.12-1.07a9.88,9.88,0,0,1,.48-2,6.41,6.41,0,0,1,.95-1.75,4.1,4.1,0,0,1,1.46-1.22,4.26,4.26,0,0,1,2-.43,3.27,3.27,0,0,1,1.82.51,2.89,2.89,0,0,1,1,1.24,4.93,4.93,0,0,1,.4,1.71,8.9,8.9,0,0,1-.05,1.86l-.18,1.21h-7l.33-1.81h4.61l0-.28a4.76,4.76,0,0,0,0-1.07,1.78,1.78,0,0,0-.3-.94,1.14,1.14,0,0,0-.93-.44,1.75,1.75,0,0,0-1.13.29,2.18,2.18,0,0,0-.7.85,5.18,5.18,0,0,0-.38,1.13c-.08.4-.14.78-.18,1.13l-.12,1.08a6,6,0,0,0-.06,1,3.34,3.34,0,0,0,.16,1,1.49,1.49,0,0,0,.51.72,1.66,1.66,0,0,0,1,.3,2.87,2.87,0,0,0,1.37-.3,5,5,0,0,0,1.15-.82l.92,1.48a3.72,3.72,0,0,1-1,1,5.11,5.11,0,0,1-1.3.54A5.87,5.87,0,0,1,219.17,112.36Z"/><path class="cls-2" d="M228.43,103.31l-1.54,8.84h-2.33l1.93-11.09h2.22Zm2.94-2.34-.29,2.35-.43-.07a2.1,2.1,0,0,0-.43,0,2,2,0,0,0-1,.2,2.05,2.05,0,0,0-.7.58,3.3,3.3,0,0,0-.47.82,7.21,7.21,0,0,0-.3.93l-.5,0c.05-.43.15-.94.27-1.51a8.64,8.64,0,0,1,.55-1.65,3.79,3.79,0,0,1,1-1.31,2.17,2.17,0,0,1,1.5-.49,2.87,2.87,0,0,1,.41.05Z"/><path class="cls-2" d="M235.45,101.06l-1.92,11.09h-2.34l1.93-11.09Zm-1.95-2.88a1.4,1.4,0,0,1,.36-1,1.26,1.26,0,0,1,.95-.42,1.15,1.15,0,0,1,.91.37,1.32,1.32,0,0,1,.36,1,1.36,1.36,0,0,1-.36.95,1.22,1.22,0,0,1-.93.41,1.15,1.15,0,0,1-.92-.36A1.35,1.35,0,0,1,233.5,98.18Z"/><path class="cls-2" d="M236.54,107.05l.11-.88a8.46,8.46,0,0,1,.5-2,6.26,6.26,0,0,1,1-1.73,4.51,4.51,0,0,1,1.51-1.2,4.13,4.13,0,0,1,2-.41,3.45,3.45,0,0,1,1.83.49,3.31,3.31,0,0,1,1.14,1.24,4.9,4.9,0,0,1,.52,1.7,7.39,7.39,0,0,1,0,1.88l-.1.89a8.4,8.4,0,0,1-.49,2,6.49,6.49,0,0,1-1,1.72,4.44,4.44,0,0,1-1.49,1.2,4.35,4.35,0,0,1-2,.4,3.48,3.48,0,0,1-1.85-.5,3.26,3.26,0,0,1-1.13-1.23,5,5,0,0,1-.53-1.7A7.88,7.88,0,0,1,236.54,107.05Zm2.45-.89-.1.9a9.25,9.25,0,0,0,0,1,4.23,4.23,0,0,0,.1,1.07,1.79,1.79,0,0,0,.43.87,1.18,1.18,0,0,0,.89.39,1.76,1.76,0,0,0,1.12-.28,2.37,2.37,0,0,0,.74-.83,5,5,0,0,0,.43-1.1,8.69,8.69,0,0,0,.21-1.12l.1-.9c0-.27,0-.59,0-1a5.46,5.46,0,0,0-.1-1.07,2,2,0,0,0-.43-.88,1.21,1.21,0,0,0-.91-.39,1.72,1.72,0,0,0-1.08.29,2.39,2.39,0,0,0-.73.84,5.38,5.38,0,0,0-.45,1.11A8.29,8.29,0,0,0,239,106.16Z"/><path class="cls-2" d="M251.49,107.05l.1-.86a13.14,13.14,0,0,1,.39-1.86,7,7,0,0,1,.76-1.75A3.6,3.6,0,0,1,254,101.3a3.3,3.3,0,0,1,1.88-.45,2.15,2.15,0,0,1,1.5.56,3.34,3.34,0,0,1,.83,1.34,6.76,6.76,0,0,1,.33,1.68,10.79,10.79,0,0,1,0,1.61l-.15,1.21a12.87,12.87,0,0,1-.42,1.68,7.48,7.48,0,0,1-.78,1.7,4.22,4.22,0,0,1-1.2,1.28,2.76,2.76,0,0,1-1.68.46,2.63,2.63,0,0,1-1.65-.55,2.93,2.93,0,0,1-.89-1.33,5.9,5.9,0,0,1-.32-1.71A11,11,0,0,1,251.49,107.05Zm2.45-.87-.09.89c0,.3-.06.63-.08,1a4.69,4.69,0,0,0,.06,1.06,1.71,1.71,0,0,0,.39.85,1.19,1.19,0,0,0,.92.36,1.66,1.66,0,0,0,1.16-.36,3.05,3.05,0,0,0,.78-1,4.59,4.59,0,0,0,.44-1.16l.37-2.41a8.07,8.07,0,0,0,0-.83,3.2,3.2,0,0,0-.22-.82,1.83,1.83,0,0,0-.48-.64,1.34,1.34,0,0,0-.79-.27,1.75,1.75,0,0,0-1.12.26,2.1,2.1,0,0,0-.71.82,5,5,0,0,0-.4,1.1A8.47,8.47,0,0,0,253.94,106.18Zm2.85,3.53,2.3-13.31h2.35l-2.74,15.75h-2.1Z"/><path class="cls-2" d="M265.33,112.36a4,4,0,0,1-1.85-.44,3,3,0,0,1-1.19-1.11,4.43,4.43,0,0,1-.59-1.61,7.39,7.39,0,0,1-.06-1.89l.12-1.07a9.28,9.28,0,0,1,.49-2,6.13,6.13,0,0,1,.94-1.75,4.19,4.19,0,0,1,1.46-1.22,4.27,4.27,0,0,1,2.05-.43,3.32,3.32,0,0,1,1.82.51,3,3,0,0,1,1,1.24,5.17,5.17,0,0,1,.4,1.71,10.52,10.52,0,0,1-.05,1.86l-.19,1.21h-7l.33-1.81h4.6l.05-.28a5.42,5.42,0,0,0,0-1.07,1.88,1.88,0,0,0-.31-.94,1.13,1.13,0,0,0-.93-.44,1.77,1.77,0,0,0-1.13.29,2.16,2.16,0,0,0-.69.85,4.3,4.3,0,0,0-.38,1.13,10.66,10.66,0,0,0-.19,1.13l-.12,1.08a6,6,0,0,0-.06,1,3.34,3.34,0,0,0,.17,1,1.54,1.54,0,0,0,.5.72,1.66,1.66,0,0,0,1,.3,2.87,2.87,0,0,0,1.37-.3,4.75,4.75,0,0,0,1.15-.82l.92,1.48a3.59,3.59,0,0,1-1,1,5,5,0,0,1-1.29.54A6,6,0,0,1,265.33,112.36Z"/><path class="cls-2" d="M23.2,128.29l2.34,0a6.78,6.78,0,0,1-.87,2.67,5,5,0,0,1-1.83,1.82,5.12,5.12,0,0,1-2.74.61,3.7,3.7,0,0,1-3.45-2.1,6,6,0,0,1-.56-2,9.7,9.7,0,0,1,0-2.22l.4-2.65a11.48,11.48,0,0,1,.62-2.35,7.5,7.5,0,0,1,1.17-2.07A4.89,4.89,0,0,1,22.5,118a4,4,0,0,1,2.44.73,3.78,3.78,0,0,1,1.28,1.87,7.68,7.68,0,0,1,.35,2.55l-2.43,0a7.53,7.53,0,0,0,0-1.43,2.12,2.12,0,0,0-.49-1.14,1.72,1.72,0,0,0-1.3-.48,2.58,2.58,0,0,0-1.48.34,3,3,0,0,0-1,1,5.89,5.89,0,0,0-.58,1.41,12.49,12.49,0,0,0-.31,1.47l-.4,2.68c0,.39-.09.82-.12,1.3a6.24,6.24,0,0,0,.09,1.38,2.06,2.06,0,0,0,.52,1.1,1.65,1.65,0,0,0,1.22.48,2.45,2.45,0,0,0,1.56-.34,2.53,2.53,0,0,0,.88-1.1A7.61,7.61,0,0,0,23.2,128.29Z"/><path class="cls-2" d="M27.28,128.05l.11-.88a8.44,8.44,0,0,1,.49-2,6.55,6.55,0,0,1,1-1.73,4.58,4.58,0,0,1,1.5-1.2,4.18,4.18,0,0,1,2-.41,3.4,3.4,0,0,1,1.83.49,3.31,3.31,0,0,1,1.14,1.24,4.91,4.91,0,0,1,.53,1.7,7.88,7.88,0,0,1,0,1.88l-.1.89a8.4,8.4,0,0,1-.49,2,6.49,6.49,0,0,1-1,1.72,4.54,4.54,0,0,1-1.49,1.2,4.37,4.37,0,0,1-2,.4,3.45,3.45,0,0,1-1.85-.5,3.18,3.18,0,0,1-1.13-1.23,5.21,5.21,0,0,1-.54-1.7A8.44,8.44,0,0,1,27.28,128.05Zm2.45-.89-.11.9c0,.28,0,.61-.05,1a4.74,4.74,0,0,0,.11,1.07,1.78,1.78,0,0,0,.42.87,1.22,1.22,0,0,0,.9.39,1.77,1.77,0,0,0,1.12-.28,2.37,2.37,0,0,0,.74-.83,5.59,5.59,0,0,0,.43-1.1A8.69,8.69,0,0,0,33.5,128l.09-.9a8.72,8.72,0,0,0,0-1,4.27,4.27,0,0,0-.1-1.07,1.86,1.86,0,0,0-.42-.88,1.21,1.21,0,0,0-.91-.39,1.77,1.77,0,0,0-1.09.29,2.61,2.61,0,0,0-.73.84,4.85,4.85,0,0,0-.44,1.11A6.91,6.91,0,0,0,29.73,127.16Z"/><path class="cls-2" d="M40.75,124.45l-1.52,8.7H36.91l1.92-11.09H41Zm-.83,2.75h-.75a11,11,0,0,1,.36-1.85,6.94,6.94,0,0,1,.76-1.76,3.89,3.89,0,0,1,1.26-1.29,3.2,3.2,0,0,1,1.87-.46,2.15,2.15,0,0,1,1.27.38,2.25,2.25,0,0,1,.75.94,4,4,0,0,1,.31,1.25,6.67,6.67,0,0,1,0,1.34l-1.23,7.39H42.18L43.37,126a4.11,4.11,0,0,0,0-.93,1.58,1.58,0,0,0-.28-.82,1,1,0,0,0-.83-.36,1.67,1.67,0,0,0-1.07.3,2.31,2.31,0,0,0-.69.85,5.53,5.53,0,0,0-.4,1.12A7,7,0,0,0,39.92,127.2Zm5.59-.63-1.07.26a8.13,8.13,0,0,1,.35-1.74,6.38,6.38,0,0,1,.75-1.63,4,4,0,0,1,1.23-1.19,3.21,3.21,0,0,1,1.75-.43,2.34,2.34,0,0,1,1.39.4,2.28,2.28,0,0,1,.78,1,4.1,4.1,0,0,1,.3,1.33A6.84,6.84,0,0,1,51,126l-1.19,7.17H47.44l1.2-7.19a6,6,0,0,0,0-.95,1.43,1.43,0,0,0-.28-.81,1,1,0,0,0-.83-.33,1.41,1.41,0,0,0-.88.25,2.2,2.2,0,0,0-.6.68,3.86,3.86,0,0,0-.36.89C45.62,126,45.56,126.3,45.51,126.57Z"/><path class="cls-2" d="M56.38,133.36a4.05,4.05,0,0,1-1.86-.44,3.1,3.1,0,0,1-1.19-1.11,4.42,4.42,0,0,1-.58-1.61,6.59,6.59,0,0,1-.06-1.89l.12-1.07a9.88,9.88,0,0,1,.48-2,6.39,6.39,0,0,1,.94-1.75,4.16,4.16,0,0,1,3.51-1.65,3.29,3.29,0,0,1,1.82.51,2.89,2.89,0,0,1,1,1.24,4.93,4.93,0,0,1,.4,1.71,9.64,9.64,0,0,1-.05,1.86l-.18,1.21h-7l.33-1.81H58.7l0-.28a5.43,5.43,0,0,0,0-1.07,1.7,1.7,0,0,0-.31-.94,1.12,1.12,0,0,0-.92-.44,1.75,1.75,0,0,0-1.13.29,2.1,2.1,0,0,0-.7.85,4.7,4.7,0,0,0-.38,1.13c-.08.4-.14.78-.18,1.13L55,128.32a7.18,7.18,0,0,0-.05,1,3.34,3.34,0,0,0,.16,1,1.49,1.49,0,0,0,.51.72,1.63,1.63,0,0,0,1,.3,2.84,2.84,0,0,0,1.37-.3,4.8,4.8,0,0,0,1.16-.82l.92,1.48a3.62,3.62,0,0,1-1,.95,4.89,4.89,0,0,1-1.29.54A5.93,5.93,0,0,1,56.38,133.36Z"/><path class="cls-2" d="M65.64,124.31l-1.54,8.84H61.77l1.93-11.09h2.21ZM68.58,122l-.29,2.35-.43-.07a2.1,2.1,0,0,0-.43,0,2,2,0,0,0-1.67.78,3.3,3.3,0,0,0-.47.82,7.21,7.21,0,0,0-.3.93l-.5,0a14.43,14.43,0,0,1,.27-1.51,8.64,8.64,0,0,1,.55-1.65,3.79,3.79,0,0,1,1-1.31,2.17,2.17,0,0,1,1.5-.49,2.87,2.87,0,0,1,.41.05Z"/><path class="cls-2" d="M72.23,131.37a1.52,1.52,0,0,0,1-.25,1.71,1.71,0,0,0,.59-.71,4.32,4.32,0,0,0,.31-.94h2.19a5,5,0,0,1-.68,2,4.05,4.05,0,0,1-1.45,1.4,4,4,0,0,1-2,.51,3.72,3.72,0,0,1-1.87-.48,3,3,0,0,1-1.11-1.2,4.76,4.76,0,0,1-.49-1.68,8,8,0,0,1,0-1.9l.12-1a9.48,9.48,0,0,1,.48-2,5.85,5.85,0,0,1,.94-1.7,4.3,4.3,0,0,1,1.45-1.16,4.4,4.4,0,0,1,2-.39,3.17,3.17,0,0,1,1.94.62,3.11,3.11,0,0,1,1,1.53,5.72,5.72,0,0,1,.26,2h-2.2a5.36,5.36,0,0,0,0-1,1.67,1.67,0,0,0-.35-.85,1.1,1.1,0,0,0-.88-.37,1.77,1.77,0,0,0-1.11.27,2.12,2.12,0,0,0-.69.79,4.36,4.36,0,0,0-.38,1.07c-.08.38-.15.76-.19,1.12l-.11,1c0,.28-.06.61-.08,1a4.65,4.65,0,0,0,0,1.06,1.62,1.62,0,0,0,.38.85A1.24,1.24,0,0,0,72.23,131.37Z"/><path class="cls-2" d="M81.86,122.06l-1.93,11.09H77.59l1.93-11.09Zm-2-2.88a1.4,1.4,0,0,1,.36-1,1.24,1.24,0,0,1,.94-.42,1.17,1.17,0,0,1,.92.37,1.31,1.31,0,0,1,.35,1,1.36,1.36,0,0,1-.36.95,1.21,1.21,0,0,1-.93.41,1.18,1.18,0,0,1-.92-.36A1.39,1.39,0,0,1,79.91,119.18Z"/><path class="cls-2" d="M83,128.05l.11-.88a8,8,0,0,1,.49-2,6.55,6.55,0,0,1,1-1.73,4.38,4.38,0,0,1,1.5-1.2,4.18,4.18,0,0,1,2-.41,3.45,3.45,0,0,1,1.83.49A3.31,3.31,0,0,1,91,123.58a4.91,4.91,0,0,1,.53,1.7,7.88,7.88,0,0,1,0,1.88l-.1.89a8.42,8.42,0,0,1-.5,2,6,6,0,0,1-1,1.72,4.44,4.44,0,0,1-1.49,1.2,4.32,4.32,0,0,1-2,.4,3.44,3.44,0,0,1-1.84-.5,3.21,3.21,0,0,1-1.14-1.23,5.2,5.2,0,0,1-.53-1.7A7.88,7.88,0,0,1,83,128.05Zm2.45-.89-.11.9c0,.28,0,.61-.05,1a5.39,5.39,0,0,0,.1,1.07,1.88,1.88,0,0,0,.43.87,1.22,1.22,0,0,0,.9.39,1.77,1.77,0,0,0,1.12-.28,2.35,2.35,0,0,0,.73-.83,4.58,4.58,0,0,0,.43-1.1,7.35,7.35,0,0,0,.22-1.12l.09-.9a8.72,8.72,0,0,0,0-1,4.27,4.27,0,0,0-.1-1.07,2,2,0,0,0-.42-.88,1.23,1.23,0,0,0-.91-.39,1.75,1.75,0,0,0-1.09.29,2.5,2.5,0,0,0-.73.84,4.85,4.85,0,0,0-.44,1.11A6.91,6.91,0,0,0,85.4,127.16Z"/><path class="cls-2" d="M95.3,130.75,95,132.53a6.14,6.14,0,0,1-.84,2.25,6.47,6.47,0,0,1-1.61,1.77l-1.27-.8c.23-.32.44-.65.65-1a8.38,8.38,0,0,0,.55-1,5.82,5.82,0,0,0,.34-1.12l.33-1.89Z"/><path class="cls-2" d="M107.21,118.22l-2.61,14.93h-2.43l2.6-14.93Z"/><path class="cls-2" d="M111,124.56l-1.49,8.59h-2.35l1.93-11.09h2.2Zm-.85,2.65-.65,0a10.8,10.8,0,0,1,.37-1.83,7.37,7.37,0,0,1,.75-1.77,4.19,4.19,0,0,1,1.26-1.32,3.07,3.07,0,0,1,1.84-.46,2.23,2.23,0,0,1,1.35.41,2.31,2.31,0,0,1,.73,1,4.37,4.37,0,0,1,.28,1.33,9.24,9.24,0,0,1,0,1.4l-1.18,7.16h-2.33l1.19-7.19a7.35,7.35,0,0,0,0-.94,1.53,1.53,0,0,0-.26-.81.92.92,0,0,0-.82-.34,1.59,1.59,0,0,0-1.07.3,2.93,2.93,0,0,0-.73.86,5.74,5.74,0,0,0-.46,1.12C110.29,126.54,110.2,126.89,110.15,127.21Z"/><path class="cls-2" d="M117.69,128.05l.1-.86a13.14,13.14,0,0,1,.39-1.86,7.39,7.39,0,0,1,.75-1.75,3.77,3.77,0,0,1,1.26-1.28,3.35,3.35,0,0,1,1.88-.45,2.11,2.11,0,0,1,1.5.56,3.26,3.26,0,0,1,.84,1.34,6.76,6.76,0,0,1,.33,1.68,10.79,10.79,0,0,1,0,1.61l-.15,1.21a12.87,12.87,0,0,1-.42,1.68,8.46,8.46,0,0,1-.78,1.7,4.22,4.22,0,0,1-1.2,1.28,2.76,2.76,0,0,1-1.68.46,2.63,2.63,0,0,1-1.65-.55,3,3,0,0,1-.9-1.33,6.25,6.25,0,0,1-.32-1.71A12.27,12.27,0,0,1,117.69,128.05Zm2.45-.87-.1.89c0,.3-.06.63-.08,1a4.69,4.69,0,0,0,.06,1.06,1.81,1.81,0,0,0,.39.85,1.21,1.21,0,0,0,.93.36,1.68,1.68,0,0,0,1.16-.36,3.05,3.05,0,0,0,.78-1,4.55,4.55,0,0,0,.43-1.16l.37-2.41a4.75,4.75,0,0,0,0-.83,2.55,2.55,0,0,0-.22-.82,1.69,1.69,0,0,0-.47-.64,1.34,1.34,0,0,0-.79-.27,1.78,1.78,0,0,0-1.13.26,2.16,2.16,0,0,0-.7.82,4.51,4.51,0,0,0-.4,1.1A7.09,7.09,0,0,0,120.14,127.18Zm2.85,3.53,2.29-13.31h2.35l-2.74,15.75h-2.1Z"/><path class="cls-2" d="M133.69,128.18l.66,0A15.62,15.62,0,0,1,134,130a6.9,6.9,0,0,1-.66,1.71,3.6,3.6,0,0,1-1.16,1.26,2.94,2.94,0,0,1-1.79.45A2.45,2.45,0,0,1,129,133a2.37,2.37,0,0,1-.79-1,4.11,4.11,0,0,1-.31-1.34,7.36,7.36,0,0,1,0-1.41l1.2-7.17h2.33l-1.2,7.19q0,.3,0,.63a2.46,2.46,0,0,0,.06.67,1.15,1.15,0,0,0,.27.54.87.87,0,0,0,.59.24,1.88,1.88,0,0,0,1.4-.45,3.08,3.08,0,0,0,.77-1.24A7.36,7.36,0,0,0,133.69,128.18ZM133,130.4l1.45-8.34h2.35l-1.93,11.09h-2.19Z"/><path class="cls-2" d="M142.74,130.17a1,1,0,0,0-.2-.78,2.43,2.43,0,0,0-.65-.53c-.26-.15-.49-.28-.71-.39a11.39,11.39,0,0,1-1-.55,4.64,4.64,0,0,1-.87-.69,2.55,2.55,0,0,1-.58-.87,2.68,2.68,0,0,1-.16-1.17,3.39,3.39,0,0,1,.39-1.4,3.47,3.47,0,0,1,.87-1.07,3.84,3.84,0,0,1,1.23-.66,4.61,4.61,0,0,1,1.44-.22,3.92,3.92,0,0,1,1.79.45,2.86,2.86,0,0,1,1.17,1.19,3.61,3.61,0,0,1,.38,1.81h-2.33a2.34,2.34,0,0,0-.07-.75A1.25,1.25,0,0,0,143,124a1.05,1.05,0,0,0-.72-.22,1.48,1.48,0,0,0-.73.16,1.56,1.56,0,0,0-.54.48,1.7,1.7,0,0,0-.27.71.87.87,0,0,0,.07.56,1.34,1.34,0,0,0,.37.42,3.36,3.36,0,0,0,.51.32l.5.24a10.54,10.54,0,0,1,1.41.79,3.47,3.47,0,0,1,1,1.05A2.51,2.51,0,0,1,145,130a3.1,3.1,0,0,1-.39,1.45,3.36,3.36,0,0,1-.93,1.05,4.1,4.1,0,0,1-1.29.64,5,5,0,0,1-1.5.2,4,4,0,0,1-1.84-.49,3.13,3.13,0,0,1-1.24-1.26,3.69,3.69,0,0,1-.42-1.85h2.27a2.67,2.67,0,0,0,.1.87,1.17,1.17,0,0,0,.43.62,1.5,1.5,0,0,0,.85.23,2.27,2.27,0,0,0,.79-.16,1.56,1.56,0,0,0,.6-.44A1.58,1.58,0,0,0,142.74,130.17Z"/><path class="cls-2" d="M152.76,122.06l-.32,1.84h-5.29l.32-1.84Zm-3.38-2.72h2.34l-1.83,10.74a3.26,3.26,0,0,0,0,.54.73.73,0,0,0,.13.45.52.52,0,0,0,.47.19l.34,0,.37-.07-.21,2a3.21,3.21,0,0,1-.66.17,3.82,3.82,0,0,1-.68.05,1.92,1.92,0,0,1-1.36-.48,2.25,2.25,0,0,1-.62-1.17,4.82,4.82,0,0,1-.08-1.47Z"/><path class="cls-2" d="M156.49,124.31,155,133.15h-2.33l1.93-11.09h2.21Zm2.94-2.34-.29,2.35-.43-.07a2.1,2.1,0,0,0-.43,0,2,2,0,0,0-1.67.78,3.3,3.3,0,0,0-.47.82,5,5,0,0,0-.3.93l-.5,0a14.43,14.43,0,0,1,.27-1.51,8.64,8.64,0,0,1,.55-1.65,3.66,3.66,0,0,1,1-1.31,2.17,2.17,0,0,1,1.5-.49,3.05,3.05,0,0,1,.41.05Z"/><path class="cls-2" d="M163.51,122.06l-1.93,11.09h-2.34l1.93-11.09Zm-1.95-2.88a1.4,1.4,0,0,1,.36-1,1.24,1.24,0,0,1,.94-.42,1.17,1.17,0,0,1,.92.37,1.31,1.31,0,0,1,.35,1,1.39,1.39,0,0,1-.35.95,1.25,1.25,0,0,1-.94.41,1.18,1.18,0,0,1-.92-.36A1.39,1.39,0,0,1,161.56,119.18Z"/><path class="cls-2" d="M170.52,126.39l-.25,1.56h-1a3,3,0,0,0-.89.13,2.64,2.64,0,0,0-.77.38,2.28,2.28,0,0,0-.57.63,2.14,2.14,0,0,0-.29.86,2.09,2.09,0,0,0,0,.71,1,1,0,0,0,.29.54.93.93,0,0,0,.66.21,2.17,2.17,0,0,0,.89-.2,2.27,2.27,0,0,0,.74-.55,1.53,1.53,0,0,0,.38-.81l.4,1a4.38,4.38,0,0,1-.42,1,3.25,3.25,0,0,1-.66.81,2.88,2.88,0,0,1-.87.56,2.57,2.57,0,0,1-1,.2,2.81,2.81,0,0,1-1.56-.45,2.7,2.7,0,0,1-1-1.16,3.4,3.4,0,0,1-.26-1.6,3.72,3.72,0,0,1,.46-1.7,3.44,3.44,0,0,1,1.07-1.17,4.53,4.53,0,0,1,1.49-.69,6.7,6.7,0,0,1,1.74-.23Zm-1.08,4.5.88-5.54a3.25,3.25,0,0,0,0-.77A1,1,0,0,0,170,124a1,1,0,0,0-.7-.22,1.39,1.39,0,0,0-1.31.73,2.07,2.07,0,0,0-.28.74l-2.31,0a3.36,3.36,0,0,1,.42-1.43,3.66,3.66,0,0,1,.93-1.1,4.14,4.14,0,0,1,1.3-.68,4.87,4.87,0,0,1,1.48-.23,3.48,3.48,0,0,1,1.8.47,2.56,2.56,0,0,1,1.07,1.23,3.73,3.73,0,0,1,.23,1.87l-.84,5.19a9.4,9.4,0,0,0-.11,1.19,4.75,4.75,0,0,0,.1,1.19l0,.18h-2.29a4.27,4.27,0,0,1-.14-1.13A8.77,8.77,0,0,1,169.44,130.89Z"/><path class="cls-2" d="M181.31,131.81l4-9.75h2.55l-5.72,12.78a8.48,8.48,0,0,1-.53,1,4.79,4.79,0,0,1-.7.91,3.1,3.1,0,0,1-.89.64,2.66,2.66,0,0,1-1.15.24,2.78,2.78,0,0,1-.57-.07l-.56-.13.22-1.93a.9.9,0,0,1,.16,0h.17a1.77,1.77,0,0,0,.91-.16,1.83,1.83,0,0,0,.65-.53,4.11,4.11,0,0,0,.47-.8Zm.7-9.75.44,8.37,0,2.6-1.62.41-1.23-11.38Z"/><path class="cls-2" d="M203.44,118.22l-.37,2.1h-9.76l.37-2.1Zm-3.69,0-2.6,14.93h-2.42l2.6-14.93Z"/><path class="cls-2" d="M208,128.18l.66,0a15.62,15.62,0,0,1-.33,1.8,6.9,6.9,0,0,1-.66,1.71,3.6,3.6,0,0,1-1.16,1.26,2.94,2.94,0,0,1-1.79.45,2.48,2.48,0,0,1-1.38-.41,2.37,2.37,0,0,1-.79-1,4.11,4.11,0,0,1-.31-1.34,8.27,8.27,0,0,1,0-1.41l1.2-7.17h2.33l-1.2,7.19q0,.3,0,.63a2.46,2.46,0,0,0,.06.67,1.15,1.15,0,0,0,.27.54.87.87,0,0,0,.59.24,1.88,1.88,0,0,0,1.4-.45,3.08,3.08,0,0,0,.77-1.24A7.36,7.36,0,0,0,208,128.18Zm-.64,2.22,1.44-8.34h2.35l-1.93,11.09H207Z"/><path class="cls-2" d="M215.38,124.31l-1.53,8.84h-2.33l1.93-11.09h2.21Zm3-2.34-.29,2.35-.44-.07a2.08,2.08,0,0,0-2.09.76,3.3,3.3,0,0,0-.47.82,5,5,0,0,0-.3.93l-.5,0a14.43,14.43,0,0,1,.27-1.51,8,8,0,0,1,.55-1.65,3.66,3.66,0,0,1,.95-1.31,2.17,2.17,0,0,1,1.5-.49,3.05,3.05,0,0,1,.41.05Z"/><path class="cls-2" d="M222.41,122.06l-1.93,11.09h-2.34l1.93-11.09Zm-1.95-2.88a1.4,1.4,0,0,1,.36-1,1.24,1.24,0,0,1,.94-.42,1.17,1.17,0,0,1,.92.37,1.31,1.31,0,0,1,.35,1,1.36,1.36,0,0,1-.36.95,1.21,1.21,0,0,1-.93.41,1.18,1.18,0,0,1-.92-.36A1.39,1.39,0,0,1,220.46,119.18Z"/><path class="cls-2" d="M228.46,130.17a1,1,0,0,0-.2-.78,2.43,2.43,0,0,0-.65-.53c-.25-.15-.49-.28-.71-.39a11.39,11.39,0,0,1-1-.55,5.39,5.39,0,0,1-.87-.69,2.71,2.71,0,0,1-.58-.87,2.84,2.84,0,0,1-.16-1.17,3.55,3.55,0,0,1,.39-1.4,3.47,3.47,0,0,1,.87-1.07,3.84,3.84,0,0,1,1.23-.66,4.61,4.61,0,0,1,1.44-.22,3.92,3.92,0,0,1,1.79.45,2.86,2.86,0,0,1,1.17,1.19,3.61,3.61,0,0,1,.38,1.81H229.2a2.66,2.66,0,0,0-.08-.75,1.23,1.23,0,0,0-.35-.58,1.1,1.1,0,0,0-.73-.22,1.48,1.48,0,0,0-.73.16,1.56,1.56,0,0,0-.54.48,1.7,1.7,0,0,0-.27.71.81.81,0,0,0,.08.56,1.19,1.19,0,0,0,.36.42,3.36,3.36,0,0,0,.51.32l.51.24a12,12,0,0,1,1.41.79,3.55,3.55,0,0,1,1,1.05,2.51,2.51,0,0,1,.31,1.56,3.1,3.1,0,0,1-.39,1.45,3.33,3.33,0,0,1-.92,1.05,4,4,0,0,1-1.3.64,5,5,0,0,1-1.5.2,4,4,0,0,1-1.84-.49,3.13,3.13,0,0,1-1.24-1.26,3.58,3.58,0,0,1-.41-1.85h2.26a2.67,2.67,0,0,0,.1.87,1.18,1.18,0,0,0,.44.62,1.46,1.46,0,0,0,.85.23,2.21,2.21,0,0,0,.78-.16,1.68,1.68,0,0,0,.61-.44A1.57,1.57,0,0,0,228.46,130.17Z"/><path class="cls-2" d="M236.06,124.45l-1.52,8.7h-2.33l1.93-11.09h2.18Zm-.83,2.75h-.75a11,11,0,0,1,.36-1.85,6.92,6.92,0,0,1,.75-1.76,3.82,3.82,0,0,1,1.27-1.29,3.18,3.18,0,0,1,1.86-.46,2.18,2.18,0,0,1,1.28.38,2.3,2.3,0,0,1,.74.94,3.77,3.77,0,0,1,.31,1.25,6.67,6.67,0,0,1,0,1.34l-1.23,7.39h-2.33l1.2-7.18a5.73,5.73,0,0,0,0-.93,1.67,1.67,0,0,0-.28-.82,1,1,0,0,0-.84-.36,1.69,1.69,0,0,0-1.07.3,2.39,2.39,0,0,0-.68.85,5.57,5.57,0,0,0-.41,1.12A6.93,6.93,0,0,0,235.23,127.2Zm5.58-.63-1.06.26a8.09,8.09,0,0,1,.34-1.74,6.4,6.4,0,0,1,.76-1.63,3.78,3.78,0,0,1,1.23-1.19,3.18,3.18,0,0,1,1.75-.43,2.33,2.33,0,0,1,1.38.4,2.28,2.28,0,0,1,.78,1,4.11,4.11,0,0,1,.31,1.33,8.54,8.54,0,0,1,0,1.43l-1.19,7.17h-2.34l1.2-7.19a5,5,0,0,0,0-.95,1.6,1.6,0,0,0-.28-.81,1,1,0,0,0-.84-.33,1.43,1.43,0,0,0-.88.25,2,2,0,0,0-.59.68,3.46,3.46,0,0,0-.36.89C240.93,126,240.86,126.3,240.81,126.57Z"/><path class="cls-2" d="M248,128.05l.11-.88a8.46,8.46,0,0,1,.5-2,6,6,0,0,1,1-1.73,4.38,4.38,0,0,1,1.5-1.2,4.15,4.15,0,0,1,2-.41,3.45,3.45,0,0,1,1.83.49,3.31,3.31,0,0,1,1.14,1.24,4.9,4.9,0,0,1,.52,1.7,7.88,7.88,0,0,1,0,1.88l-.11.89a7.94,7.94,0,0,1-.49,2,6.23,6.23,0,0,1-1,1.72,4.44,4.44,0,0,1-1.49,1.2,4.35,4.35,0,0,1-2,.4,3.48,3.48,0,0,1-1.85-.5,3.26,3.26,0,0,1-1.13-1.23,5,5,0,0,1-.53-1.7A7.88,7.88,0,0,1,248,128.05Zm2.45-.89-.1.9c0,.28,0,.61-.05,1a4.74,4.74,0,0,0,.1,1.07,1.88,1.88,0,0,0,.43.87,1.18,1.18,0,0,0,.89.39,1.8,1.8,0,0,0,1.13-.28,2.45,2.45,0,0,0,.73-.83,5,5,0,0,0,.43-1.1,8.82,8.82,0,0,0,.22-1.12l.09-.9c0-.27,0-.59,0-1a4.79,4.79,0,0,0-.1-1.07,2.06,2.06,0,0,0-.42-.88,1.23,1.23,0,0,0-.92-.39,1.72,1.72,0,0,0-1.08.29,2.39,2.39,0,0,0-.73.84,5.38,5.38,0,0,0-.45,1.11A8.29,8.29,0,0,0,250.43,127.16Z"/><path class="cls-2" d="M263.5,127.3l0-.18a22.43,22.43,0,0,1,.63-3,19.82,19.82,0,0,1,1.12-3,13,13,0,0,1,1.7-2.69,8.08,8.08,0,0,1,2.35-2l.35,1.47a9.87,9.87,0,0,0-1.64,2,14.16,14.16,0,0,0-1.16,2.26,18.82,18.82,0,0,0-.77,2.45c-.19.83-.35,1.66-.47,2.49l0,.23c-.09.66-.17,1.41-.25,2.24a21.44,21.44,0,0,0-.06,2.54,9.81,9.81,0,0,0,.39,2.46,5,5,0,0,0,1.09,2l-.56,1.37a5.91,5.91,0,0,1-1.76-2.14,10,10,0,0,1-.88-2.76,16.43,16.43,0,0,1-.25-3A25,25,0,0,1,263.5,127.3Z"/><path class="cls-2" d="M277.55,131.14l-.31,2H268.9l.28-1.82,4.68-5.2c.32-.35.63-.73.95-1.14a7.57,7.57,0,0,0,.83-1.28,4.25,4.25,0,0,0,.46-1.41,4.52,4.52,0,0,0,0-1,2,2,0,0,0-.34-.93,1.07,1.07,0,0,0-.87-.4,1.62,1.62,0,0,0-1.22.4,2.74,2.74,0,0,0-.7,1.09,5.18,5.18,0,0,0-.3,1.27l-2.32,0a6.15,6.15,0,0,1,.72-2.39,4.79,4.79,0,0,1,1.62-1.75,4.27,4.27,0,0,1,2.4-.64,3.61,3.61,0,0,1,2,.55,3.2,3.2,0,0,1,1.18,1.46,4.46,4.46,0,0,1,.26,2.06,5.13,5.13,0,0,1-.38,1.59,8.43,8.43,0,0,1-.79,1.44,14.4,14.4,0,0,1-1,1.32c-.37.43-.73.83-1.08,1.22l-3.05,3.5Z"/><path class="cls-2" d="M288.58,124.43l-.39,2.45a22.38,22.38,0,0,1-.46,2.21,9.26,9.26,0,0,1-.87,2.12,4.56,4.56,0,0,1-1.46,1.59,3.61,3.61,0,0,1-2.22.56,3,3,0,0,1-1.64-.46,2.94,2.94,0,0,1-1-1.13,5.4,5.4,0,0,1-.48-1.55,10.76,10.76,0,0,1-.11-1.71,15.62,15.62,0,0,1,.13-1.63l.37-2.45a17.29,17.29,0,0,1,.46-2.2,8.78,8.78,0,0,1,.88-2.11,4.66,4.66,0,0,1,1.45-1.57,3.64,3.64,0,0,1,2.21-.53,3.06,3.06,0,0,1,1.65.44,2.93,2.93,0,0,1,1,1.11,4.73,4.73,0,0,1,.48,1.53,9.53,9.53,0,0,1,.11,1.7C288.67,123.38,288.64,123.92,288.58,124.43Zm-2.75,2.8.46-3.18c0-.2.06-.47.1-.79a8.64,8.64,0,0,0,.07-1,5,5,0,0,0-.08-1,2,2,0,0,0-.36-.83,1,1,0,0,0-.76-.35,1.46,1.46,0,0,0-1.16.39,3,3,0,0,0-.7,1.11,7.13,7.13,0,0,0-.38,1.37c-.08.46-.15.86-.19,1.18l-.46,3.19q0,.3-.09.78c0,.33-.07.68-.08,1.06a5.28,5.28,0,0,0,.08,1.07,1.86,1.86,0,0,0,.34.85,1,1,0,0,0,.77.37,1.49,1.49,0,0,0,1.16-.4,3.06,3.06,0,0,0,.7-1.13,8.8,8.8,0,0,0,.38-1.4C285.71,128,285.78,127.56,285.83,127.23Z"/><path class="cls-2" d="M297.94,131.14l-.32,2h-8.34l.28-1.82,4.69-5.2c.31-.35.63-.73.95-1.14a9,9,0,0,0,.83-1.28,4.47,4.47,0,0,0,.45-1.41,4,4,0,0,0,0-1,1.93,1.93,0,0,0-.34-.93,1,1,0,0,0-.87-.4,1.59,1.59,0,0,0-1.21.4,2.75,2.75,0,0,0-.71,1.09,5.64,5.64,0,0,0-.29,1.27l-2.32,0a6,6,0,0,1,.71-2.39,4.73,4.73,0,0,1,1.63-1.75,4.23,4.23,0,0,1,2.4-.64,3.66,3.66,0,0,1,2,.55,3.18,3.18,0,0,1,1.17,1.46,4.21,4.21,0,0,1,.26,2.06,5.13,5.13,0,0,1-.38,1.59,8.38,8.38,0,0,1-.78,1.44,12.91,12.91,0,0,1-1,1.32c-.36.43-.72.83-1.08,1.22l-3,3.5Z"/><path class="cls-2" d="M307.66,118.18l-2.54,15h-2.33l2.07-11.93-3.12,1.23.39-2.2,5.19-2.08Z"/><path class="cls-2" d="M314.9,127l0,.18a24.38,24.38,0,0,1-.64,3,19.18,19.18,0,0,1-1.15,3.06,13,13,0,0,1-1.73,2.7,8,8,0,0,1-2.39,1.95l-.34-1.42a10.23,10.23,0,0,0,1.63-2,13.15,13.15,0,0,0,1.17-2.27,17.3,17.3,0,0,0,.78-2.47c.2-.84.36-1.68.48-2.5l0-.24c.09-.65.17-1.39.25-2.22a19.49,19.49,0,0,0,0-2.54,11.3,11.3,0,0,0-.4-2.45,5.22,5.22,0,0,0-1.05-2l.55-1.36a5.94,5.94,0,0,1,1.77,2.11,10.24,10.24,0,0,1,.91,2.77,16.54,16.54,0,0,1,.27,3A20.82,20.82,0,0,1,314.9,127Z"/><path class="cls-2" d="M316.61,131.94a1.37,1.37,0,0,1,.39-1,1.53,1.53,0,0,1,1-.43,1.37,1.37,0,0,1,1,.38,1.29,1.29,0,0,1,.4,1,1.33,1.33,0,0,1-.39,1,1.46,1.46,0,0,1-1,.42,1.32,1.32,0,0,1-1-.37A1.25,1.25,0,0,1,316.61,131.94Z"/><path class="cls-2" d="M322.28,131.94a1.37,1.37,0,0,1,.39-1,1.53,1.53,0,0,1,1-.43,1.37,1.37,0,0,1,1,.38,1.29,1.29,0,0,1,.4,1,1.33,1.33,0,0,1-.39,1,1.48,1.48,0,0,1-1,.42,1.32,1.32,0,0,1-1-.37A1.25,1.25,0,0,1,322.28,131.94Z"/></svg>