<svg id="Capa_1" data-name="Capa 1" xmlns="http://www.w3.org/2000/svg" viewBox="0 0 180.88 165.59"><defs><style>.cls-1{fill:#c6875e;stroke:#c6875e;stroke-miterlimit:10;}</style></defs><path class="cls-1" d="M102.34,114.12c-4.45,7.63-9.21,10.36-15.87,9.25a13.06,13.06,0,0,1-10-7.47c-.77-1.57-1.35-1.68-2.67-.64-6.08,4.83-12.32,9.46-18.31,14.39a21.82,21.82,0,0,0-8.1,17.43q-.06,6.21,0,12.42c0,1.71-.31,3.32-2.3,3.39s-2.47-1.57-2.44-3.26c.1-6-.55-12,.58-18a26.83,26.83,0,0,1,10.28-16.5L72.83,110.1c2.84-2.21,2.86-8.17.07-10.44-1-.85-2-1.77-3-2.71-1.22-1.2-2-2.61-.4-4s2.66-.43,3.75.72a21.83,21.83,0,0,0,14.2,6.86c11.58,1.12,22.56-8,23.3-19.62.29-4.54.06-9.11.17-13.66,0-1.75-.68-2.24-2.32-2.47a135.48,135.48,0,0,0-38.68,0c-2.21.31-2.71,1.2-2.61,3.19.29,5.76-.61,11.59,1,17.29a2.23,2.23,0,0,1-1.57,3c-1.45.45-2.41-.34-2.87-1.67a18.76,18.76,0,0,1-1.09-6.08c0-9.84-.11-19.67,0-29.51.08-5.84,2.76-10.52,7.28-14.15,3-2.39,5.24-2,7.06,1.31A3.29,3.29,0,0,0,80.61,40c5.7-.08,11.39-.07,17.09,0,10.24.1,17.93,7.64,17.92,17.87,0,8.37.67,16.78-.39,25.12-.91,7.13-4.62,12.75-10.28,17.1a6.54,6.54,0,0,0,0,10.16c5.8,4.51,11.5,9.16,17.44,13.49,8.8,6.43,13.09,14.92,12.64,25.84-.14,3.41,0,6.83,0,10.25,0,1.65-.46,3-2.25,3.1s-2.38-1.34-2.39-3c0-3.94,0-7.87,0-11.81a23.44,23.44,0,0,0-9.71-19.81C114.54,123.68,108.53,118.93,102.34,114.12Zm-35-59.88a18.21,18.21,0,0,1,0,2.4c-.5,3,.47,3.81,3.63,3.31a123.35,123.35,0,0,1,37.44.11c2.36.36,2.56-.42,2.52-2.32-.13-7.64-5.52-13-13.55-13.15-6.42-.12-12.84-.07-19.26,0-1.85,0-3.28-.44-3.94-2.28-.84-2.37-1.84-1.49-3-.23A16,16,0,0,0,67.34,54.24ZM79.6,107.83c0,.62,0,1.24,0,1.86A9.22,9.22,0,0,0,98,110.81c.23-1.63.08-3.31.17-5s-.36-2-2-1.52a24.76,24.76,0,0,1-14.66-.21c-1.56-.51-2.07,0-1.92,1.54C79.65,106.37,79.59,107.1,79.6,107.83Z"/><path class="cls-1" d="M38.32,50.88c.16-.14.41-.25.45-.42,1.74-6.75,6.6-7.81,12.58-7,1.63.21,3.31,0,5,.08,1.44.06,2.39.79,2.35,2.31a2.17,2.17,0,0,1-2.43,2.25c-2.69,0-5.39.19-8.07,0A3.62,3.62,0,0,0,44,50.71a18.68,18.68,0,0,1-1.87,3.57c-1.91,2.9-6,3.12-7.34,0-2-4.49-5.06-6.18-9.76-7.36C14.65,44.34,8.15,33.72,9.55,23.34,11,12.48,20,4.06,30.89,4,69.61,3.92,108.33,4,147.05,4a20.87,20.87,0,0,1,9.25,2.32c1.5.74,2.41,1.77,1.65,3.43s-2.17,1.57-3.45.88c-3.44-1.84-7.13-1.9-10.88-1.9q-55.43,0-110.87,0c-9.08,0-15.55,4.54-17.91,12.43-2.91,9.71,3.44,20.67,13.35,21.7,5,.52,7.74,2.42,9.27,6.83a3,3,0,0,0,.48.8A2.52,2.52,0,0,0,38.32,50.88Z"/><path class="cls-1" d="M32.54,108.88c2.07,6-1.56,8.68-5.11,11.55-3.87,3.12-7.57,6.44-11.33,9.69-1.36,1.17-2.42,7.54-1.46,8.95.59.85,1.63.78,2.52.92a149.91,149.91,0,0,0,17.3,1.6c1.68.06,3.63.08,3.54,2.45s-2,2.26-3.69,2.23a140.55,140.55,0,0,1-20.06-2c-2.81-.46-4.1-2.13-4.44-5.09-.76-6.69.74-12.09,6.88-15.85,2.7-1.65,4.91-4.11,7.33-6.21,5.19-4.49,5.35-8,2.06-14A22.71,22.71,0,0,1,26,80.85c2.95-5.65,10-8.08,16.13-6.47A14.5,14.5,0,0,1,53,87.87c.16,5.44,1.06,11.12-2.74,15.83A8.31,8.31,0,0,0,48.45,109c-.12,3,.21,5.47,3.07,7.14,1.35.8,2.1,2.2.91,3.67-1.32,1.64-2.65.86-4-.18-3-2.26-5.59-4.63-4.71-8.94.19-1,0-1.8-1.5-1.37C39.26,110.16,36.27,109.9,32.54,108.88Zm16-16.48c0-1.45,0-2.48,0-3.51C48.28,83,43.9,78.54,38.29,78.57A10.24,10.24,0,0,0,28.21,88.7a59.69,59.69,0,0,0,0,6.82,10.12,10.12,0,0,0,18.54,5.12C48.56,98,48.62,95,48.51,92.4Z"/><path class="cls-1" d="M154.8,92.18a17,17,0,0,1-3.93,13c-1.81,2.12-1,8,1.09,9.9a9.63,9.63,0,0,1,1.53,1.53,2.14,2.14,0,0,1-.2,2.84,2.19,2.19,0,0,1-2.56.54c-2.72-1-5.4-4.64-5.21-7.59.18-2.6-.28-3.79-3.22-2.81a8.36,8.36,0,0,1-5.21-.09c-2.56-.86-2.89.38-2.56,2.33.8,4.74-3,6.37-5.8,8.62a1.93,1.93,0,0,1-2.93-.77,2.24,2.24,0,0,1,.75-3.26c3.26-1.93,3.64-4.85,3.42-8.22a6.59,6.59,0,0,0-1.45-3.9c-4.36-5.57-4.81-17.61-1-23.57a14.8,14.8,0,0,1,27.25,7.14C154.87,89.21,154.8,90.56,154.8,92.18ZM130,91.88h0c0,1.13,0,2.27,0,3.41a10,10,0,0,0,20.07.33,60.58,60.58,0,0,0,0-7.74,10,10,0,0,0-20,.28C129.89,89.4,130,90.64,130,91.88Z"/><path class="cls-1" d="M140,51.93c1.27-6.89,5.51-8.24,11.07-9.36,10.48-2.12,15.65-14,11.2-23.8-.26-.57-.59-1.1-.86-1.66-.66-1.39-.61-2.66.88-3.45s2.56.1,3.28,1.37a20.91,20.91,0,0,1,2,17.35c-2.87,8.92-9.13,14.11-18.34,15.51-2,.3-3.19.91-3.91,2.75a19.28,19.28,0,0,1-1.91,3.55c-2,3.06-6.39,3.26-7.46-.08-2-6.29-6.43-6.48-11.58-6a38,38,0,0,1-4.65,0,2.14,2.14,0,0,1-2.3-2.36,2,2,0,0,1,2.16-2.16c4.86,0,9.73,0,14.59,0,1.34,0,1.92,1,2.46,2.07C137.55,47.42,138.52,49.21,140,51.93Z"/><path class="cls-1" d="M168.52,135c0,2,0,3.22,0,4.46-.07,2.51-1.34,4.19-3.77,4.64a127.15,127.15,0,0,1-21.59,2.19c-1.56,0-2.74-.51-2.81-2.18-.09-1.89,1.24-2.41,2.87-2.48,5.89-.25,11.77-.74,17.62-1.53,2.34-.31,2.94-1.21,3.1-3.53.25-3.66-.71-6.41-3.88-8.37a11.85,11.85,0,0,1-2.33-2,2.19,2.19,0,0,1-.16-3.1,2,2,0,0,1,3-.4C164.6,126.17,170.37,128.66,168.52,135Z"/><path class="cls-1" d="M117.48,154.7c0,1.86,0,3.73,0,5.59,0,1.54-.82,2.63-2.44,2.61a2.26,2.26,0,0,1-2.26-2.47c-.06-3.93-.07-7.86,0-11.79a2.2,2.2,0,0,1,2.4-2.31,2.3,2.3,0,0,1,2.26,2.48C117.53,150.77,117.48,152.74,117.48,154.7Z"/><path class="cls-1" d="M60.27,154.46c0-2,0-3.91,0-5.87a2.24,2.24,0,1,1,4.48,0q.09,6,0,12a2.25,2.25,0,1,1-4.49,0C60.24,158.58,60.27,156.52,60.27,154.46Z"/><path class="cls-1" d="M51.84,24.91a3,3,0,0,1-6.07-.27,2.76,2.76,0,0,1,3-2.86C50.77,21.82,51.77,23,51.84,24.91Z"/><path class="cls-1" d="M75.59,21.76a2.8,2.8,0,0,1,2.92,2.84,2.78,2.78,0,0,1-3,3.2,2.81,2.81,0,0,1-3.07-3.13C72.53,22.92,73.63,21.86,75.59,21.76Z"/><path class="cls-1" d="M102.21,21.75c2.13.12,3.22,1.19,3.26,2.94a3,3,0,1,1-6-.11A2.79,2.79,0,0,1,102.21,21.75Z"/><path class="cls-1" d="M129.06,21.75c2,.12,3.15,1.21,3.11,3.14a3,3,0,0,1-6-.21C126.17,22.84,127.3,21.92,129.06,21.75Z"/></svg>