<svg id="Capa_1" data-name="Capa 1" xmlns="http://www.w3.org/2000/svg" viewBox="0 0 180.88 165.59"><defs><style>.cls-1{fill:#c6875e;}</style></defs><path class="cls-1" d="M36.28,79.9c-3.63,0-7.27,0-10.9,0-4.85,0-6.76-2.34-6-7.06A67.57,67.57,0,0,1,24,56.49c.65-1.48.8-2.34-.92-3.31a9,9,0,0,1-4.64-8.37c0-7.36-.05-14.73,0-22.09a9.56,9.56,0,0,1,9.89-9.9c7.27-.06,14.54,0,21.81,0A9.42,9.42,0,0,1,59,17.66c.77,1.37,1.44,1.28,2.64.74a69.48,69.48,0,0,1,16-4.86c5.67-1.06,7.91.78,7.91,6.48q0,10.49,0,21c0,4.36-1,5.55-5.06,6.78C66.54,52,57.5,61,53.63,75.11c-1,3.58-2.44,4.75-6.16,4.78S40,79.9,36.28,79.9Zm.12-4.31c3.63,0,7.27-.06,10.9,0a2,2,0,0,0,2.31-1.78c4.4-15.62,14.47-25.66,30-30.18a1.89,1.89,0,0,0,1.63-2.14q0-11.19,0-22.37c0-1.54-.55-1.85-2-1.59a75.21,75.21,0,0,0-16.55,4.92A3.17,3.17,0,0,0,60.36,26c.15,6,.07,11.93,0,17.89,0,6.93-4,10.85-11,10.87-6,0-11.93,0-17.89,0-1.28,0-2.26.08-2.88,1.51a75.32,75.32,0,0,0-5.13,17.07c-.28,1.66.12,2.37,2,2.31C29.13,75.51,32.76,75.59,36.4,75.59ZM24.69,49a15.2,15.2,0,0,1,5.74-7.4c1.47-.94,1.6-1.44.42-2.86a10.48,10.48,0,0,1-1.48-12,10.53,10.53,0,0,1,10.09-6.28,10.49,10.49,0,0,1,9.92,6.11,10.39,10.39,0,0,1-1.11,11.8c-1.33,1.67-1.38,2.37.48,3.49a13.44,13.44,0,0,1,4.41,5c.39.66.38,2,1.41,1.77S55.79,47.24,56,46.3a11.37,11.37,0,0,0,.14-1.94c0-7.09,0-14.17,0-21.25,0-4-2-6-6-6.06q-10.62-.11-21.25,0c-4.06,0-6.05,2-6.09,6-.08,7.18,0,14.36,0,21.53A4.72,4.72,0,0,0,24.69,49ZM46.44,31.63a7,7,0,1,0-14-.08,7,7,0,0,0,6.8,7A7,7,0,0,0,46.44,31.63ZM39.33,50.45c2.88,0,5.76-.05,8.63,0,1.69,0,2.31-.38,1.26-2a11.06,11.06,0,0,0-9.95-5.55,11,11,0,0,0-9.65,5.59c-.86,1.37-.63,2,1.08,2C33.58,50.41,36.45,50.45,39.33,50.45Z"/><path class="cls-1" d="M94.64,138.5c0-3.83,0-7.65,0-11.47,0-3.41,1.18-4.82,4.49-5.79,14.3-4.18,23.58-13.33,27.51-27.78.88-3.26,2.42-4.46,5.83-4.48,7.64,0,15.28,0,22.93,0,4.25,0,6.16,2.52,5.47,6.78a68.33,68.33,0,0,1-4.72,16.6c-.65,1.49-.78,2.35.93,3.31a9,9,0,0,1,4.64,8.38c0,7.36.05,14.72,0,22.09a9.6,9.6,0,0,1-9.9,9.89c-7.36.07-14.73,0-22.09,0a9.13,9.13,0,0,1-8.38-4.65c-.91-1.58-1.71-1.45-3.08-.83a68.07,68.07,0,0,1-15.74,4.75c-5.68,1.06-7.87-.75-7.88-6.49Zm4.31,0c0,3.63.06,7.27,0,10.9,0,1.8.53,2.15,2.31,1.84a78.41,78.41,0,0,0,16.28-4.86,3.18,3.18,0,0,0,2.33-3.5c-.15-6-.07-11.93,0-17.89,0-7,3.93-10.86,10.94-10.88,6.06,0,12.11,0,18.17,0a2.53,2.53,0,0,0,2.72-1.75,75.24,75.24,0,0,0,5-16.53c.35-1.85,0-2.67-2.17-2.64-7.08.12-14.16.09-21.24,0a2.32,2.32,0,0,0-2.72,2c-4.39,15.4-14.44,25.26-29.68,29.87-1.47.45-1.92,1.07-1.89,2.5C99,131.25,99,134.88,99,138.52Zm56.64,11.83c1.74-1.38,1.9-3,1.91-4.72,0-7,.05-14,0-21,0-4.25-2-6.21-6.14-6.24q-10.62-.08-21.24,0c-4,0-6,2-6,6,0,7.08,0,14.16,0,21.24a6,6,0,0,0,.63,3.25c.64,1.08,1.15,1.79,1.93,0a12.62,12.62,0,0,1,4.72-5.77c1.87-1.17,1.88-1.86.49-3.61a11,11,0,0,1,2.63-16,11.25,11.25,0,0,1,15.87,3.47c2.5,4.09,2.1,9-1,13.05-.4.52-1.83,1.12-.64,1.91A18.7,18.7,0,0,1,155.59,150.35Zm-7.84-17.5a7,7,0,1,0-6.74,7A6.89,6.89,0,0,0,147.75,132.85Zm-7,19c3,0,5.94,0,8.91,0,1.52,0,1.8-.6,1-1.86a11.41,11.41,0,0,0-19.74-.06c-.91,1.46-.41,2,1.17,1.93C135,151.81,137.84,151.83,140.72,151.83Z"/><path class="cls-1" d="M85.56,138.49c0,3.64,0,7.27,0,10.91,0,4.95-2.14,6.81-7.06,6a64,64,0,0,1-16.31-4.76c-1.58-.71-2.46-.81-3.49,1a8.77,8.77,0,0,1-8,4.39c-7.55.05-15.11.09-22.66,0a9.48,9.48,0,0,1-9.59-9.61q-.13-11.34,0-22.66a9.46,9.46,0,0,1,9.36-9.58c7.73-.16,15.48-.18,23.22,0,5.41.13,9.24,4.35,9.31,9.93q.12,9.51,0,19a2.86,2.86,0,0,0,2,3.11,74.55,74.55,0,0,0,16.53,5c1.74.31,2.36.07,2.34-1.8-.07-7.27-.06-14.54,0-21.82a2.17,2.17,0,0,0-1.9-2.49C64,120.55,53.94,110.55,49.61,95a2,2,0,0,0-2.3-1.75c-7.27.06-14.54.08-21.82,0-1.79,0-2.28.54-2,2.26a74.72,74.72,0,0,0,3,11.62c.55,1.58,1.15,3.28-1,4s-2.5-1.12-3-2.53a70.11,70.11,0,0,1-3.64-16.32c-.21-2.3.7-3.29,3-3.28q14,0,28,0c2,0,2.94.87,3.38,2.87,3.37,15.2,12.64,24.94,27.53,29.36,3.76,1.11,4.79,2.41,4.81,6.4C85.58,131.22,85.56,134.85,85.56,138.49ZM24.65,150.35a15.62,15.62,0,0,1,6-7.56c1.51-.94,1.23-1.47.27-2.66a11.09,11.09,0,0,1,1.31-15.75,11.3,11.3,0,0,1,15,.51,11.09,11.09,0,0,1,.94,15c-1.24,1.53-1.26,2.19.45,3.22a13.82,13.82,0,0,1,4.59,5.17c.37.64.3,2,1.41,1.71.75-.18,1.1-1.22,1.28-2a10.4,10.4,0,0,0,.2-2.23c0-7.08,0-14.16,0-21.24,0-4-2-6-6-6q-10.62-.08-21.24,0c-4.05,0-6.05,2-6.09,6-.08,7.18,0,14.35,0,21.53A4.93,4.93,0,0,0,24.65,150.35Zm21.79-17.43a7,7,0,1,0-14,0,6.88,6.88,0,0,0,7.13,6.93A7,7,0,0,0,46.44,132.92ZM39.5,151.83c3,0,5.94,0,8.91,0,1.3,0,1.7-.48,1-1.69a11,11,0,0,0-9.75-5.89A11,11,0,0,0,29.53,150c-.78,1.28-.44,1.87,1.06,1.86C33.56,151.82,36.53,151.83,39.5,151.83Z"/><path class="cls-1" d="M144,79.9c-3.73,0-7.46,0-11.19,0s-5.24-1.17-6.22-4.71C122.66,61,113.51,51.91,99.45,47.72c-3.77-1.13-4.8-2.42-4.8-6.41q0-11,0-22.09c0-4.55,2.21-6.48,6.75-5.82A63.07,63.07,0,0,1,118,18.17c1.57.7,2.46.86,3.5-.94a8.73,8.73,0,0,1,7.93-4.41c7.55,0,15.11-.08,22.66,0a9.5,9.5,0,0,1,9.62,9.59q.15,11.32,0,22.65a9.45,9.45,0,0,1-9.32,9.61q-11.59.26-23.21,0c-5.42-.12-9.28-4.33-9.35-9.88q-.13-9.51,0-19a2.87,2.87,0,0,0-2-3.15,76,76,0,0,0-16.8-5.06c-1.73-.31-2.12.2-2.11,1.78q.06,11.05,0,22.1c0,1.35.49,1.88,1.82,2.27,15.37,4.63,25.43,14.59,29.83,30.11a2,2,0,0,0,2.3,1.79q10.91-.11,21.82,0c1.81,0,2.28-.61,2-2.3a72.94,72.94,0,0,0-2.81-11.09c-.51-1.44-.76-2.88,1-3.49s2.47.63,3,2.09a72.05,72.05,0,0,1,3.15,13c.52,3.45-1.64,5.93-5.27,6C151.83,80,147.91,79.89,144,79.9ZM155.61,49a4.94,4.94,0,0,0,1.87-4.25c0-7.27.08-14.54,0-21.81,0-3.85-2.05-5.83-5.94-5.87q-10.75-.12-21.53,0c-3.89,0-5.86,2-5.89,5.89-.06,7.18,0,14.36,0,21.53a5.84,5.84,0,0,0,.68,3.24c.65,1,1.18,1.46,1.84,0a12.93,12.93,0,0,1,4.71-5.78c1.85-1.17,1.94-1.89.54-3.67a11,11,0,0,1,2.66-15.95,11.23,11.23,0,0,1,15.85,3.49c2.49,4.12,2.09,9-1,13.06-.44.58-1.93,1.13-.37,2.11A17.77,17.77,0,0,1,155.61,49Zm-7.86-17.43a7,7,0,1,0-6.8,7A7,7,0,0,0,147.75,31.56Zm-7,18.89c2.87,0,5.75,0,8.63,0,1.5,0,2.17-.34,1.22-1.89a11.41,11.41,0,0,0-19.75,0c-1,1.64-.14,1.85,1.26,1.84C135,50.43,137.91,50.45,140.79,50.45Z"/><path class="cls-1" d="M88.55,71.92c0,5.54-3.88,9.91-8.8,9.94S70.9,77.53,70.84,72s3.91-10.1,9-10S88.56,66.35,88.55,71.92ZM75,71.79c0,3.2,2.12,5.92,4.72,5.89s4.62-2.61,4.68-5.68-2.19-5.94-4.75-5.91S75.06,68.71,75,71.79Z"/><path class="cls-1" d="M91.65,97.06c0-5.55,3.77-10,8.69-10s9.06,4.38,9,10-3.93,9.89-8.85,9.9S91.69,102.62,91.65,97.06Zm13.54-.13c0-3.09-2.1-5.68-4.6-5.74S95.76,93.84,95.78,97c0,3,2.17,5.7,4.62,5.77S105.21,100.1,105.19,96.93Z"/><path class="cls-1" d="M82.55,104.48c-1.68-.09-2.32-1.73-1.42-3.89q5.2-12.47,10.46-24.92,2.1-5,4.18-10c.6-1.46,1.52-2.53,3.17-1.75,1.48.7,1.33,2,.75,3.35q-7.41,17.58-14.76,35.2C84.48,103.51,83.89,104.44,82.55,104.48Z"/></svg>