<svg id="Capa_1" data-name="Capa 1" xmlns="http://www.w3.org/2000/svg" viewBox="0 0 180.88 165.59"><defs><style>.cls-1{fill:#c6875e;}</style></defs><path class="cls-1" d="M90.57,153q-36.7,0-73.4-.05C16,153,14,154,13.69,152c-.19-1.42-1.66-4,1.81-4.33.9-.07.57-1.24.57-1.93q0-6.89,0-13.78c0-.62,0-1.67-.27-1.81-3.24-1.45-2.23-4.31-2.26-6.73-.07-8.65,0-17.31-.05-26,0-3.41,1.15-6.09,4.17-7.72,3.19-1.73,6.24-1,9,1.09,3.85,2.91,8.11,5.14,12.23,7.59,2.53,1.5,5.45.53,8.18.62,4.6.15,4.86.33,5,4.93,0,1.21-.69,3.07,1.76,2.8,1.69-.19,3.91,1,4.15-2.33s1.13-6.73,1.67-10.11c.29-1.82,1.08-3.18,3.09-2.82s2.32,2,2,3.73c-.55,3.15-1.07,6.31-1.67,9.46-.28,1.46,0,2,1.69,2.12,5.46.27,5.46.35,6.32-5,0-.32.09-.64.13-.95,1.62-12.54.86-11.05,12.5-16.42,4.11-1.89,9.06-1.27,13.49-.12,2.72.72,5.19,2.45,7.74,3.79s3.67,3.75,4.08,6.52c.46,3.17,1.09,6.33,1.28,9.51.14,2.34,1.17,2.74,3.21,2.7,4.67-.08,4.68,0,4-4.44-.38-2.42-.82-4.84-1.22-7.26-.3-1.81.15-3.34,2.15-3.63,1.82-.26,2.65,1,2.93,2.66.59,3.58,1.34,7.14,1.8,10.74.4,3.14,2.7,1.57,4.19,1.85,1.89.35,1.61-1.12,1.64-2.27.18-5.38.24-5.89,5.4-5.27,7.94.94,13.17-4.11,19-7.73,3.19-2,6.12-3.64,9.77-1.81s4.42,5.09,4.36,8.89c-.13,7.37-.05,14.75,0,22.12,0,1.54,0,3.08-1.61,3.86-1.18.55-1,1.54-1,2.46,0,6.19,0,12.39,0,18.59,0,1-.38,2,1.34,2.32,2.41.47.95,2.61,1.12,4,.2,1.54-1.27,1.09-2.11,1.09-9.93,0-19.87,0-29.81,0ZM59.72,135c0,3.63,0,7.26,0,10.9,0,1.18.07,2,1.65,2,6.41-.06,12.82,0,19.22,0,1.19,0,1.91-.33,1.61-1.64-1.53-6.52.66-14.15-5.72-19.23a1.32,1.32,0,0,1-.49-.81c-.3-4.35-3.29-4.17-6.44-4a70.45,70.45,0,0,1-7.69,0c-1.71-.09-2.21.52-2.16,2.19C59.8,127.9,59.72,131.43,59.72,135Zm61.54.41c0-3.53-.13-7.06,0-10.57.12-2.21-.73-2.7-2.73-2.61-3.31.15-6.63.12-9.93,0-1.83-.06-2.89.22-3.08,2.41-.18,2-1.72,3.37-3.15,4.7a5,5,0,0,0-2,3.17q-.75,6.67-1.66,13.34c-.21,1.51.22,2.09,1.83,2.07,6.2-.07,12.4-.09,18.59,0,1.81,0,2.11-.73,2.07-2.28C121.21,142.19,121.26,138.77,121.26,135.36ZM90.51,117.07c12.6,0,25.2,0,37.79,0,1.91,0,3.39.21,3.34-2.68,0-2.72-1.45-2.47-3.22-2.46q-37.95,0-75.9,0c-1.81,0-3.19-.18-3.17,2.51,0,2.5,1.06,2.66,3,2.65C65.1,117,77.81,117.07,90.51,117.07Zm-71.84-6.71c0,4,.17,7.92-.06,11.86-.13,2.43.54,3.7,3,4.31,2.89.72,5.65,2,8.54,2.71a5.67,5.67,0,0,1,4.54,4.7c1,4.15,2.29,8.22,3.42,12.34.7,2.57,2.79,1.66,4.21,1.43,1.74-.28.5-1.69.27-2.52-1.53-5.33-3.21-10.62-4.68-16a6.84,6.84,0,0,0-3.4-4.32c-3.47-2.06-8-3.29-10-6.63s-.57-8.13-.67-12.27c-.11-4.32,1.45-5.31,5.24-3.23,4.94,2.72,9.93,4.93,15.75,4,.86-.13,2,.36,2-1.24s-1.09-1.21-2-1.31c-2.61-.27-5.37.72-7.83-.85-4.41-2.8-9.11-5.14-13.32-8.29-1-.77-2.13-1.5-3.52-.83s-1.55,2.13-1.54,3.57C18.69,102,18.68,106.19,18.67,110.36Zm129,36.11.59-.25c-1.16-4.74-2.15-9.52-3.54-14.2-.83-2.81.13-4.16,2.62-5.16,4.25-1.71,8.41-3.66,12.68-5.31,1.81-.7,2.32-1.72,2.29-3.57-.11-6.41,0-12.81,0-19.22,0-1.66.44-3.58-1.58-4.48-1.8-.79-2.89.7-4.27,1.44-6.59,3.57-12.07,9.88-20.69,8.56-.89-.13-1.68,0-1.65,1.31s.91,1.19,1.75,1.21c4.48.11,8.95.38,12.9-2.46a21.72,21.72,0,0,1,4.29-2.13c2.46-1,4-.16,4.11,2.49s-.12,5.14.08,7.69a5.16,5.16,0,0,1-3,5.43c-5,2.91-9.81,6-14.67,9.13-.8.51-2.3.83-1.48,2.32C141.3,135,144.52,140.74,147.71,146.47Zm-57-24.25c-2.46,0-4.91-.06-7.36,0-1,0-2.41-.63-2.87.5s.78,2.14,1.67,2.81c2.6,2,3.48,4.63,3.75,7.73.36,4,.92,8.05,1.43,12.06.12.89-.16,2,1.05,2.44,2.77,1.12,4.76-.32,5.42-3.29,1.56-6.9-.63-15,6.27-20.3,1.25-1,.82-2-1-2C96.24,122.27,93.47,122.22,90.7,122.22Zm.35-33.35c-10.15,0-13.49,2.94-14.74,12.49-.12,1-.39,1.89-.45,2.85-.08,1.14-.82,2.68,1.47,2.62,1.67,0,3.21.23,2.94-2.37-.24-2.32,0-4.69-.06-7s1.13-3.48,3.52-3.45c4.49,0,9,.06,13.46,0,2.61,0,3.67,1.19,3.59,3.72-.08,2.35.13,4.71,0,7s1.41,2,2.86,2.1c1.88.13,1.77-1,1.6-2.25-.46-3.17-.9-6.34-1.36-9.5a3.13,3.13,0,0,0-1.67-2.59C98.45,90.74,95.08,87.9,91.05,88.87ZM29.34,108.52c-1.09,6.7-1.21,6.94,4,9.68s9.67,6,10.38,12.49c0,.05.29.07.55.12V113.88c0-1,.09-2.06-1.38-1.9A19.41,19.41,0,0,1,29.34,108.52Zm130.4,18.75-8.29,3.49c-.83.35-1.51.76-1.21,1.88,1.2,4.65,2.23,9.34,3.61,13.94.74,2.46,3.06,1,4.65,1.21s1.23-1.11,1.23-2C159.75,139.81,159.74,133.83,159.74,127.27Zm-138.5,4.54c0,2.45-.09,4.57,0,6.68.15,3-1.39,7.29.61,8.8s6.1.41,9.26.59c1.71.09,2-.56,1.54-2-1-3.24-1.92-6.51-2.83-9.78a2.52,2.52,0,0,0-1.74-2C25.89,133.36,23.7,132.61,21.24,131.81Zm28.22,3.07c0,3.52.12,7-.05,10.55-.09,2,.6,2.55,2.53,2.48,1.69-.07,2.73-.1,2.68-2.34-.15-7-.15-14.06,0-21.08.05-2.26-1-2.24-2.69-2.32-2-.09-2.61.49-2.52,2.49C49.58,128.06,49.46,131.47,49.46,134.88Zm82.06.32c0-3.52-.11-7,0-10.55.09-2-.58-2.57-2.52-2.48-1.68.07-2.74.07-2.69,2.32q.23,10.55,0,21.09c0,2.25,1,2.25,2.69,2.33,1.94.08,2.62-.48,2.52-2.49C131.41,142,131.52,138.61,131.52,135.2Zm5.16-12.54c4.57-2.84,8.49-5.54,12.66-7.79,2.7-1.45,3.21-3.3,2.43-6-2.86.55-5,2.92-7.94,3.12-2.3.15-5.52-1.06-6.67.55s-.41,4.68-.48,7.11C136.66,120.37,136.68,121.12,136.68,122.66ZM90.79,106.81c1.9-.42,5.34,1.59,4.9-3.34-.38-4.31-.07-4.34-4.45-4.34-1.38,0-2.76.05-4.14,0-1.15,0-1.62.32-1.76,1.59C84.7,106.55,84.87,106.81,90.79,106.81Zm46.47,31.56-.58.12v4.62c0,4.9,0,4.91,4.9,4.68.16,0,.3-.22.66-.48C140.59,144.35,138.92,141.36,137.26,138.37Z"/><path class="cls-1" d="M113.72,11.9c4.06,0,8.12-.05,12.18,0,4.95.07,8,2.92,8.13,7.92,0,2.19.91,2.43,2.66,2.35,2.46-.1,4.92-.07,7.37,0,4.73.12,7.89,3.15,8,7.81.1,5,0,10.05,0,15.07,0,2.5-.79,4.88-2.94,6.07s-2.08,3.05-2.24,5.06c-.18,2.3,1.33,5.32-1.55,6.68-2.58,1.21-4.12-1.61-6.13-2.6a14.65,14.65,0,0,1-2.93-1.95c-5-4.12-10.41-6.31-17-5.42-3.38.45-6-1.34-7.45-4.45-.74-1.63-1.35-1.5-2.55-.64-2.18,1.54-4.39,3.05-6.67,4.43s-4.15.48-4.37-2.31a24.46,24.46,0,0,1,0-2.57c0-2.72.35-5.32-2.78-7-1.89-1-2.37-3.44-2.36-5.69,0-4.92-.05-9.83,0-14.75s3.24-7.89,8.15-8C105.38,11.85,109.55,11.9,113.72,11.9Zm28,43.74c.05-1,.11-1.54.09-2-.14-2.87-.29-5.59,3.66-6.19,1.42-.22,1.49-1.87,1.48-3.21,0-4.06,0-8.12,0-12.18,0-4.35-.36-4.74-4.81-4.68-2.54,0-5.72-1-7.44.44s-.42,4.63-.54,7.05c-.24,4.67-3.26,7.73-8,7.86-2.56.07-5.13.12-7.69,0s-2.58,1.4-2.18,3.1,1.91,2.26,3.51,2c7.39-1.17,13.54,1.43,19.07,6.07A29,29,0,0,0,141.69,55.64ZM103.33,45.15C111,41.43,111,41.43,111,33.68c0-1.28,0-2.56,0-3.84a7.66,7.66,0,0,1,7.77-7.67c2.56-.08,5.12,0,7.68,0,1,0,2.5.66,2.5-1.4,0-1.61-.24-3-2-3.56a5.51,5.51,0,0,0-1.58-.12c-7.89,0-15.77,0-23.66,0-2.38,0-3.56,1-3.54,3.42,0,4.58,0,9.17,0,13.75,0,1.86.68,3.06,2.63,3.36s2.57,1.62,2.51,3.45C103.29,42.28,103.33,43.56,103.33,45.15Zm19.81-17.83c-1.38,0-2.77,0-4.16,0s-2.62.73-2.7,2.18c-.14,2.53-.67,5.41.31,7.51.7,1.49,3.73.32,5.7.52a20.9,20.9,0,0,0,2.24,0c3.94,0,4.4-.5,4.43-4.43C129,27.31,129,27.31,123.14,27.32Z"/><path class="cls-1" d="M41.71,19.59c4.91,0,9.82,0,14.73,0,5.27,0,8.34,3.11,8.4,8.36q.07,7,0,14.09c-.06,5.23-3.2,8.78-8.41,8.22A26.93,26.93,0,0,0,35,57.09a26.61,26.61,0,0,1-4.55,3c-2.14,1.18-3.78.29-4.09-2.12a12.88,12.88,0,0,1,0-2.56c.25-2.83.22-5.09-3.5-6-2.67-.68-4.1-3.39-4.16-6.28-.1-5.34-.14-10.68,0-16,.12-4.41,3.38-7.4,8-7.47C31.68,19.53,36.7,19.59,41.71,19.59ZM31.5,52.81c.63-.16.88-.15,1-.27,6.86-5.95,14.68-8.69,23.81-7.34,2.21.33,3.38-.94,3.37-3.22,0-4.6,0-9.19,0-13.78,0-2.43-1.1-3.48-3.51-3.47q-14.41,0-28.84,0c-2.38,0-3.59.94-3.56,3.41,0,4.59,0,9.18,0,13.78,0,2.26,1.05,3.24,3.31,3.35,4.2.19,4.36.44,4.39,4.78C31.51,50.9,31.5,51.75,31.5,52.81Z"/><path class="cls-1" d="M90.54,60.64a10.27,10.27,0,1,1-10.31,10A10.29,10.29,0,0,1,90.54,60.64Zm0,5.16a5.1,5.1,0,1,0,5,5.19A5.15,5.15,0,0,0,90.57,65.8Z"/><path class="cls-1" d="M23.85,65.77a10.27,10.27,0,1,1-10.32,10A10.3,10.3,0,0,1,23.85,65.77ZM23.7,81.13a5.1,5.1,0,1,0-5-5.19A5.15,5.15,0,0,0,23.7,81.13Z"/><path class="cls-1" d="M157.09,65.77A10.27,10.27,0,1,1,146.93,76.3,10.3,10.3,0,0,1,157.09,65.77Zm0,15.36a5.1,5.1,0,1,0-5-5.23A5.16,5.16,0,0,0,157.06,81.13Z"/><path class="cls-1" d="M51.87,32.52c2.48-.59,2.69.65,2.79,2.58.13,2.36-1,2.45-2.83,2.53-2.1.1-2.48-.73-2.44-2.59S49.57,31.7,51.87,32.52Z"/><path class="cls-1" d="M44.27,34.83c.43,2.05-.23,2.85-2.46,2.81-2.05,0-2.78-.53-2.7-2.67.07-1.8.28-2.77,2.43-2.61C43.27,32.49,44.88,32.33,44.27,34.83Z"/><path class="cls-1" d="M29,34.63c-.64-2.73,1.38-2.05,2.9-2.24,2.74-.35,2,1.55,2.23,3,.32,2.49-1.36,2-2.81,2.16C28.77,37.93,28.72,36.46,29,34.63Z"/></svg>