<svg xmlns="http://www.w3.org/2000/svg" viewBox="0 0 407.94 238.9"><defs><style>.cls-1{isolation:isolate;}.cls-2,.cls-5{fill:#fff;}.cls-2{mix-blend-mode:soft-light;}.cls-3{fill:#c6875e;}.cls-4{fill:#6c2911;}.cls-6{fill:#602320;}.cls-7{fill:#f2e5dc;}.cls-8{fill:#e0654a;}.cls-9{fill:#fca886;}.cls-10{fill:#d1bbb4;}.cls-11{fill:#9c956f;}.cls-12{fill:#934a4a;}.cls-13{fill:#facb74;}.cls-14{fill:#dca254;}</style></defs><g class="cls-1"><g id="Capa_2" data-name="Capa 2"><g id="Capa_1-2" data-name="Capa 1"><path class="cls-2" d="M85,85.91c9.1-6.58,20.38-10.41,27.37-19.29s8.26-21.17,11.8-32.1c3.71-11.45,10.49-22.17,20.41-28.64s23.18-8.08,33.54-2.4c6.75,3.7,11.95,10.15,19.1,13,10.73,4.2,22.52-.8,33.38-4.63s24.36-6,32.59,2.26c6,6,7.71,16.23,15.25,19.86,5.28,2.54,11.43.79,17.16-.33,11.8-2.29,24.37-1.58,35.3,3.53s20,14.93,23,26.87c2.56,10.14.85,21.46,5.66,30.7,2.17,4.18,5.51,7.56,8.35,11.29a57,57,0,0,1,10.18,45.93C374,170.73,360.71,185.5,342.83,191a196.68,196.68,0,0,1-131.64-6.24c-7.76-3.21-15.41-6.94-23.62-8.58-14.8-3-30,1.13-44.26,6.29s-28.25,11.5-43.23,13.25c-10.85,1.27-16.48-1.05-23-9.7C56.15,158.33,54.9,107.7,85,85.91Z"/><polygon class="cls-3" points="282.3 28.2 282.3 33 285.58 33 219.06 99.52 171.4 99.52 77.85 193.07 25.11 193.07 0 218.17 4.18 222.35 27.55 198.97 80.3 198.97 173.85 105.42 221.51 105.42 290 36.93 290 40.66 294.8 40.66 294.8 28.2 282.3 28.2"/><circle class="cls-4" cx="220.98" cy="133.02" r="105.88" transform="translate(-29.34 195.22) rotate(-45)"/><circle class="cls-5" cx="220.98" cy="133.02" r="89.24" transform="translate(-29.34 195.22) rotate(-45)"/><circle class="cls-5" cx="220.98" cy="133.02" r="87.24"/><path class="cls-6" d="M221,220.63a87.23,87.23,0,1,1,.77,0Zm.77-.74v0a86.87,86.87,0,1,0-87.63-86.11A86.35,86.35,0,0,0,221.74,219.89Z"/><line class="cls-5" x1="304.18" y1="132.3" x2="296.81" y2="132.36"/><rect class="cls-6" x="296.81" y="131.22" width="7.37" height="2.21" transform="translate(-1.11 2.55) rotate(-0.49)"/><line class="cls-5" x1="145.14" y1="133.68" x2="137.78" y2="133.75"/><rect class="cls-6" x="137.78" y="132.61" width="7.37" height="2.21" transform="translate(-1.17 1.25) rotate(-0.5)"/><line class="cls-5" x1="221.71" y1="216.22" x2="221.64" y2="208.86"/><rect class="cls-6" x="220.57" y="208.86" width="2.21" height="7.37" transform="translate(-1.84 1.94) rotate(-0.5)"/><line class="cls-5" x1="220.32" y1="57.19" x2="220.25" y2="49.82"/><rect class="cls-6" x="219.18" y="49.82" width="2.21" height="7.37" transform="translate(-0.46 1.93) rotate(-0.5)"/><line class="cls-5" x1="292.05" y1="176.28" x2="285.76" y2="172.45"/><rect class="cls-6" x="287.8" y="170.68" width="2.21" height="7.37" transform="translate(-10.25 330.49) rotate(-58.67)"/><line class="cls-5" x1="156.2" y1="93.59" x2="149.91" y2="89.76"/><rect class="cls-6" x="151.94" y="87.99" width="2.21" height="7.37" transform="translate(-4.83 174.75) rotate(-58.67)"/><line class="cls-5" x1="177.72" y1="204.1" x2="181.55" y2="197.8"/><rect class="cls-6" x="175.95" y="199.84" width="7.37" height="2.21" transform="translate(-85.43 249.86) rotate(-58.66)"/><line class="cls-5" x1="260.41" y1="68.24" x2="264.24" y2="61.95"/><rect class="cls-6" x="258.64" y="63.99" width="7.37" height="2.21" transform="translate(70.34 255.34) rotate(-58.68)"/><line class="cls-5" x1="291.68" y1="89.15" x2="285.42" y2="93.04"/><rect class="cls-6" x="284.87" y="89.99" width="7.37" height="2.21" transform="translate(-4.65 165.86) rotate(-31.83)"/><line class="cls-5" x1="156.54" y1="173.01" x2="150.28" y2="176.89"/><rect class="cls-6" x="149.73" y="173.84" width="7.37" height="2.21" transform="translate(-69.2 107.21) rotate(-31.83)"/><line class="cls-5" x1="177.11" y1="62.32" x2="180.99" y2="68.58"/><rect class="cls-6" x="177.94" y="61.77" width="2.21" height="7.37" transform="translate(-7.6 104.25) rotate(-31.82)"/><line class="cls-5" x1="260.97" y1="197.46" x2="264.85" y2="203.72"/><rect class="cls-6" x="261.8" y="196.91" width="2.21" height="7.37" transform="translate(-66.25 168.78) rotate(-31.82)"/><path class="cls-7" d="M221.75,181.67l-2.85-9.78A38.75,38.75,0,0,1,202,167l-7.66,6.73-7.1-5.68,4.91-8.94a38.82,38.82,0,0,1-8.48-15.4L173.54,143l-1-9,9.78-2.85a38.83,38.83,0,0,1,4.91-16.88l-6.74-7.65,5.69-7.1,8.94,4.91A38.7,38.7,0,0,1,210.52,96l.65-10.17,9-1,2.85,9.78a38.61,38.61,0,0,1,16.87,4.91l7.66-6.74,7.1,5.69-4.91,8.94a38.75,38.75,0,0,1,8.48,15.4l10.16.64,1,9-9.78,2.85a38.79,38.79,0,0,1-4.91,16.88l6.74,7.65-5.69,7.1-8.94-4.9a38.8,38.8,0,0,1-15.4,8.47l-.65,10.17Zm-19.82-15.6.23.13a37.87,37.87,0,0,0,17,5h.26l2.83,9.7,7.81-.87.64-10.07.25-.07a38,38,0,0,0,15.55-8.55l.19-.18,8.86,4.86,4.91-6.13-6.67-7.59L254,152a37.94,37.94,0,0,0,5-17l0-.27,9.69-2.82-.86-7.81-10.08-.64-.07-.26a38,38,0,0,0-8.55-15.54l-.18-.2,4.86-8.85-6.13-4.92L240,100.38l-.23-.13a38,38,0,0,0-17-5h-.26l-2.83-9.69-7.81.86-.64,10.07-.25.07a38,38,0,0,0-15.55,8.56l-.19.18-8.86-4.86-4.91,6.13,6.67,7.58-.13.23a38.12,38.12,0,0,0-5,17v.26l-9.69,2.82.86,7.81,10.08.64.07.26a37.91,37.91,0,0,0,8.55,15.54l.18.2-4.86,8.86,6.13,4.91Zm19-8.26a24.58,24.58,0,1,1,2.75-.15A25.48,25.48,0,0,1,220.93,157.81Zm.1-48.43a23.84,23.84,0,1,0,2.57,47.54h0A23.84,23.84,0,0,0,221,109.38ZM221,147.61a14.4,14.4,0,0,1-14.27-12.81,14.39,14.39,0,1,1,25.52,7.42,14.25,14.25,0,0,1-9.64,5.3l0-.36,0,.36A14.61,14.61,0,0,1,221,147.61Zm0-28c-.5,0-1,0-1.51.08a13.67,13.67,0,1,0,1.51-.08Z"/><rect class="cls-8" x="200.16" y="64.47" width="2.21" height="92.89" transform="translate(-23.36 159.41) rotate(-41.04)"/><line class="cls-5" x1="207.93" y1="143.96" x2="273.7" y2="77.08"/><rect class="cls-6" x="193.91" y="107.57" width="93.8" height="5.91" transform="translate(-6.84 204.73) rotate(-45.48)"/><line class="cls-5" x1="215.43" y1="117.37" x2="241.22" y2="188.38"/><rect class="cls-6" x="225.37" y="115.1" width="5.91" height="75.55" transform="translate(-38.48 87.15) rotate(-19.97)"/><circle class="cls-5" cx="220.98" cy="133.02" r="8.91" transform="translate(-12.39 23.17) rotate(-5.84)"/><path class="cls-6" d="M221,142.3a9.28,9.28,0,0,1-.08-18.55H221a9.27,9.27,0,0,1,9.27,9.19,9.29,9.29,0,0,1-9.19,9.36H221Zm0-17.81h-.07a8.54,8.54,0,0,0,.14,17.07h0a8.54,8.54,0,0,0-.07-17.07Z"/><path class="cls-6" d="M221,137.39a4.37,4.37,0,1,1,4.33-4.41A4.37,4.37,0,0,1,221,137.39Z"/><path class="cls-6" d="M309.44,231.25h-8.63s-1.25,2.62-2.91,3.32-5.44.94-5.44,4.33h15.76a1.54,1.54,0,0,0,1.63-1.51Z"/><path class="cls-6" d="M340.4,231.25c-.9-1.18-7.58.7-8.87,0,0,0-.45,2.62-2.1,3.32s-3.82,1.41-3.87,4.33h14.18a1.46,1.46,0,0,0,1.57-1.85Z"/><path class="cls-3" d="M295,136.6h36.31c6.56,13.47,10.85,97.24,10.85,97.24-1.78.68-4.7,1-12.28,0-7.3-26.79-11-56-13.77-81.1l-1.36.1c.12,18.25-2.12,49-4.62,81.36-2.13,1-5.52.76-11.67-.53C295,197.79,292.25,162.16,295,136.6Z"/><path class="cls-6" d="M313.76,153.12c-.91,0-1.87,0-2.88-.13l.05-.55c9.08.82,14-2.62,14.06-2.65l.32.45C325.13,150.37,321.2,153.12,313.76,153.12Z"/><path class="cls-9" d="M265.33,104.08c-3.26,2.39-6.86-1.21-7.37-1.57-2.63-1.85-6.12-8.73-6.12-8.73-1-1.7.32-2.58.71-2.14.17.23-.57-.92-.72-1.16-1.2-2.17.68-2.74,1.37-2-1.21-1.51.35-2.95,1.21-2-.75-1.17.74-2.43,2.14-.91.84.77,6.69,8.23,6.69,8.23.27-.24,0-.9-.28-1.7l1.49-1.52A21.09,21.09,0,0,1,267,98.25C267.28,100.07,267.29,102.64,265.33,104.08Z"/><rect class="cls-6" x="254" y="91.17" width="0.55" height="5.65" transform="translate(-4.23 175.65) rotate(-37.82)"/><rect class="cls-6" x="255.09" y="87.8" width="0.55" height="7.5" transform="translate(-5.47 166.1) rotate(-35.67)"/><rect class="cls-6" x="256.66" y="85.6" width="0.55" height="8.3" transform="matrix(0.8, -0.6, 0.6, 0.8, -2.27, 172.71)"/><path class="cls-10" d="M261.9,107.45c0-.18-3-3.56-3-3.56a14.27,14.27,0,0,1,8.24-6.73l2.68,3.76Z"/><path class="cls-11" d="M277.07,116.61h0l17.48-24.34h0a7.72,7.72,0,1,1,12,9.65h0L288,125.63a7.29,7.29,0,0,1-.73.93h0a7.13,7.13,0,1,1-10.21-10Z"/><path class="cls-11" d="M260.67,106.82S275.1,125.6,277.14,127a8.31,8.31,0,0,0,4.36,1.84,7.13,7.13,0,0,0,7.55-6.69c.16-2.75-3.43-6.56-3.43-6.56L269.54,99.66C266.36,100.51,262.07,103.93,260.67,106.82Z"/><polygon class="cls-11" points="282.48 114.03 281.15 111.66 280.51 113.47 279.99 113.29 281.04 110.33 282.96 113.76 282.48 114.03"/><rect class="cls-9" x="311.58" y="71.21" width="11.93" height="28.66" transform="translate(635.09 171.08) rotate(180)"/><path class="cls-9" d="M312.2,82.48h0A7.85,7.85,0,0,0,320,74.64v-6.2a7.85,7.85,0,0,0-7.82-7.84h0c-4.3,0-7.82-5.74-7.82-1.43v7.5c-.76,1.94-1.95,5.09-1.53,5.88a2.42,2.42,0,0,0,1.53,1C304.42,80.76,307.9,82.48,312.2,82.48Z"/><path class="cls-6" d="M323.51,78.2c-4.35,0-7.39-.45-10.89-4.68,2.58-1.87,3.07-4.76,1.64-6.68-1.46-1.59-4.13-.48-4.15,2-1.19-1.88-.85-3.94-.92-6.07-3.94-.8-6.86-2.3-5.83-6.87,1.92-5.47,15.73-5.25,20.11,3.88C330.37,62.29,326.27,70.9,323.51,78.2Z"/><rect class="cls-6" x="311.29" y="79.81" width="0.55" height="2.67"/><path class="cls-6" d="M312.26,71.55,312,71a1.51,1.51,0,0,0,.89-.88,3,3,0,0,0-.21-2l.5-.25a3.56,3.56,0,0,1,.23,2.48A2.09,2.09,0,0,1,312.26,71.55Z"/><path class="cls-6" d="M311.36,70l-.38-.41a1.84,1.84,0,0,1,2.42-.21l-.1.26-.1-.24a.24.24,0,0,0-.15.2l.54.09-.16.21-.32-.05A1.3,1.3,0,0,0,311.36,70Z"/><path class="cls-6" d="M305,75.4l0-.55s1.2-.11,1.51-1L307,74A2.33,2.33,0,0,1,305,75.4Z"/><path class="cls-6" d="M306.52,65.82a2.18,2.18,0,0,0-1.91-.63l-.14-.54a2.76,2.76,0,0,1,2.43.76Z"/><path class="cls-6" d="M306.13,68a.5.5,0,0,1-.5.5.5.5,0,0,1-.5-.5.5.5,0,0,1,.5-.5A.51.51,0,0,1,306.13,68Z"/><path class="cls-11" d="M333.47,127.5h0l-10.69-28h0a7.71,7.71,0,0,1,12.45-8.39,7.61,7.61,0,0,1,2.23,3.65h0L347,123.32a6.53,6.53,0,0,1,.38,1.13h0a7.13,7.13,0,1,1-13.93,3Z"/><path class="cls-11" d="M316.27,135.8s23.62-1.71,25.88-2.66a8.46,8.46,0,0,0,3.94-2.62,7.14,7.14,0,0,0-1.44-10c-2.2-1.66-7.36-.75-7.36-.75l-22.12,4.68C314.13,127.57,314.62,133,316.27,135.8Z"/><path class="cls-10" d="M294.33,140.64l-.14,1.9c15.54,6.57,29.06,5.22,39.39.5l-.58-2.4Z"/><path class="cls-11" d="M333.47,141.22l4.18-42.91C338.71,88.08,325.24,87,325.24,87H309.33c-7.05,0-16.81,2-16.58,11.91l1.36,41.65C308.68,144.85,326.45,143.67,333.47,141.22Z"/><path class="cls-10" d="M324.11,82.85,325.53,87c-1.84,1.65-8.92,2-16.2,0l1.88-4.17C316.32,83.61,320.67,83.66,324.11,82.85Z"/><rect class="cls-6" x="290.78" y="113.11" width="13.67" height="0.55" transform="translate(24.67 277.5) rotate(-51.87)"/><rect class="cls-6" x="319.25" y="117.7" width="33.06" height="0.55" transform="translate(185.97 440.8) rotate(-84.47)"/><path class="cls-9" d="M100.84,104.65c3.76,1.6,6.48-2.76,6.9-3.23a13.5,13.5,0,0,0,2.85-5c.4-1,.64-2.65-.93-2.89.17-1.31-1.4-2-2.35-1.67a2.13,2.13,0,0,0-2.61-.68c.85-1.77,3.5-7.49,2.86-6.39.47-1.33-1.28-2.23-2.31-.42-.66,1-4.72,9.64-4.72,9.64-.76-.4.88-3.75-.89-5a.37.37,0,0,0-.46.21,21.9,21.9,0,0,0-1.3,10C98,101.15,98.57,103.68,100.84,104.65Z"/><path class="cls-6" d="M103.25,99.55l-.54-.09a5.48,5.48,0,0,0-2.33-5.23l.3-.47A6.06,6.06,0,0,1,103.25,99.55Z"/><path class="cls-6" d="M108.49,98.89a1.35,1.35,0,0,1-1.17-.79,2.06,2.06,0,0,1-2.08,0,1.66,1.66,0,0,1-.78-1.5,1.73,1.73,0,0,1-1.51-.84c-.69-1.33.92-3.75,1.45-4.55l.12-.18.49.25-.15.24c-1.62,2.43-1.66,3.51-1.42,4s.63.54,1.33.55h.32l0,.32a1.16,1.16,0,0,0,.49,1.25,1.59,1.59,0,0,0,1.74-.12l.27-.19.14.3c.15.35.44.76.84.73s.89-.5,1.12-1.17l.52.18a2.07,2.07,0,0,1-1.62,1.55Z"/><rect class="cls-6" x="106.19" y="95.34" width="4.78" height="0.55" transform="translate(-27.52 144.69) rotate(-61.2)"/><rect class="cls-6" x="103.47" y="93.81" width="5.13" height="0.55" transform="translate(-28.26 139.48) rotate(-60.26)"/><path class="cls-5" d="M59.61,95.15c-2.77-6.73,6.54-9.68,10.08-7.75,4.9,2.87,16.81,25.19,17.35,26.81C91.84,124,81.71,130,77,123.32,77,123.32,62.39,101.87,59.61,95.15Z"/><path class="cls-5" d="M105.51,105.05c-3.72-.33-7.79-4.91-7.72-7.8L78.5,115.49c-7,8.37,3.46,14.1,9.78,8.36a86.27,86.27,0,0,0,14.8-15.56C103.85,107.25,105.51,105.05,105.51,105.05Z"/><path class="cls-6" d="M103.43,108.06a13.17,13.17,0,0,1-8.33-8.21l.53-.16a12.6,12.6,0,0,0,8,7.84Z"/><path class="cls-7" d="M102.46,105.89a.6.6,0,1,0,1.19,0,.6.6,0,0,0-1.19,0Z"/><rect class="cls-5" x="59.15" y="228.24" width="6.89" height="7.2" transform="translate(125.18 463.68) rotate(180)"/><rect class="cls-5" x="35.04" y="228.24" width="6.83" height="7.2" transform="translate(76.91 463.68) rotate(180)"/><path class="cls-3" d="M66.34,232.29a11.05,11.05,0,0,0,3.73,1.87c5.56,1.29,6.67,2.5,6.67,2.5a2.07,2.07,0,0,1,0,2.24H58.05s-.14-4.53,1-6.61C62.32,233.09,64.73,233.07,66.34,232.29Z"/><path class="cls-3" d="M41.87,232.29s0,1.32,1,1.6c3.52,1.87,3.87,3.8,3.45,5H33.87s-.12-4.53.8-6.61C37.67,233.35,41.47,233.2,41.87,232.29Z"/><path class="cls-6" d="M32.67,154.27c-1.16-8.87-.51-12,2.34-18.34l32.88-1.53c1.34,1.78,4.31,30.93,5.61,44.37.85,8.81-.58,17.32-1.7,26q-1.59,12.47-3.19,24.93a6.66,6.66,0,0,1-.16,1.23c-2.54.67-5.61.67-11.68,0-.8-16-.71-31.1,1.42-44.06A243.5,243.5,0,0,1,51.71,153l-.33.06L44.4,231c-2.37.89-8.89.89-11.4,0C32.55,220.25,29.94,183,32.67,154.27Z"/><path class="cls-12" d="M37,147.9l-.11-.55c5.49-1.06,6.63-6.58,6.64-6.64l.55.11C44,140.88,42.83,146.76,37,147.9Z"/><path class="cls-12" d="M51.49,153.35l-.23-.5a14.87,14.87,0,0,0,7-6.48l.49.26A15.38,15.38,0,0,1,51.49,153.35Z"/><path class="cls-12" d="M59.9,188.47c-2-1.2-2-1.45-2-1.63s.06-.4,2.34-1.22l.19.52a16.46,16.46,0,0,0-1.88.79,14.68,14.68,0,0,0,1.6,1.06Z"/><path class="cls-6" d="M37.48,236l-.25-.12-.24-.15.24.15-.24-.15c.35-.59,1.75-2.47,5.39-2.47v.55C39,233.85,37.78,235.53,37.48,236Z"/><path class="cls-9" d="M47.15,88.46c4.52,2.48,8.73,3.12,12.32,0V71.4H47.15Z"/><path class="cls-5" d="M34.17,135.84l-.81,3.2c5.9,2.88,14.82,4,25.74,3.93l.62-6.37,1.54,0,1.4,6.33a15,15,0,0,0,6.69-3.75l-.77-4.52Z"/><path class="cls-13" d="M73.7,96.71c.76-6.14-2.61-9.11-6.92-10.6l-7.3-1.39s-.35,3.65-4.87,3.65-7.46-3.66-7.46-3.66S39,85.68,36,86.11c-7.63,1.25-5.94,2-7.3,5.09-.08,13.71,2.73,29.43,4.56,38.19.58,3.67-1.24,5.52,1.54,6.81,2.45,1.48,31,1.49,33.62-.17,2.18-1.17.45-3.1.9-6.45C69.6,127.64,73.7,96.71,73.7,96.71Z"/><path class="cls-5" d="M59.47,82.93l1.35,2a9.17,9.17,0,0,1-3.77,6.82L55,88.38A6.76,6.76,0,0,0,59.47,82.93Z"/><path class="cls-5" d="M54.5,88.37l-2.16,3.31c-3.49-1.71-5.86-3.93-7-6.71l1.82-3C48.23,84.79,50.56,87,54.5,88.37Z"/><path class="cls-5" d="M27.69,90.32c4-6.84,13.66-2.59,14,4.37.87,5.61-8.91,27.22-9.82,28.67-4.55,9.92-13.35,3.65-13.71.47C17.72,115.73,24.24,96.72,27.69,90.32Z"/><path class="cls-11" d="M57,133.79H77.68a2.18,2.18,0,0,0,2.16-1.89l3.07-30.38A1.84,1.84,0,0,0,81,99.46H59.36a2.24,2.24,0,0,0-2.21,2.06l-2,30.38A1.79,1.79,0,0,0,57,133.79Z"/><path class="cls-6" d="M58.19,133.85a2.15,2.15,0,0,1-1.57-.66,2,2,0,0,1-.53-1.5l2-30a2.5,2.5,0,0,1,2.46-2.3V100a1.94,1.94,0,0,0-1.91,1.78l-2,30a1.47,1.47,0,0,0,.38,1.08,1.61,1.61,0,0,0,1.17.49Z"/><path class="cls-6" d="M77.58,102.79h2.81a1.07,1.07,0,0,0,1-1h0a.85.85,0,0,0-.86-.94H77.75a1.06,1.06,0,0,0-1,.94h0A.85.85,0,0,0,77.58,102.79Z"/><path class="cls-14" d="M79.93,101.84a.48.48,0,0,0,.49.55.61.61,0,0,0,.6-.55.48.48,0,0,0-.49-.54A.6.6,0,0,0,79.93,101.84Z"/><path class="cls-6" d="M80.12,101.84a.32.32,0,0,0,.32.36.4.4,0,0,0,.39-.36.31.31,0,0,0-.32-.35A.4.4,0,0,0,80.12,101.84Z"/><path class="cls-9" d="M50.91,122.39a5.71,5.71,0,0,0,3.3,1.72,48.76,48.76,0,0,0,9.22-.13c1.42,0,2.22-2.14.82-2.3,2.34.48,2.83-2.11,1.31-2.55a1.29,1.29,0,1,0,.13-2.57l-6.76.21,7.45-.34c1.71-.3,1.42-2.86-.68-2.63l-9.36.08.3-4.15s-3,1.88-4.35,2.9a6.39,6.39,0,0,0-1.38,9.76Z"/><rect class="cls-6" x="61.55" y="115.37" width="0.55" height="7.47" transform="translate(-57.74 180.03) rotate(-89.57)"/><rect class="cls-6" x="60.67" y="118.24" width="0.55" height="6.62" transform="translate(-62.9 177.7) rotate(-87.76)"/><rect class="cls-6" x="58.14" y="116.35" width="7.64" height="0.55" transform="translate(-4.8 2.68) rotate(-2.39)"/><path class="cls-5" d="M52.13,124A16.11,16.11,0,0,1,50,113.27l-26.17,4.52c-10.44,3.11-4.92,13.66,3.52,12.38a86.81,86.81,0,0,0,20.94-4.77Z"/><path class="cls-6" d="M27.94,119.25l-.5-.24c.95-2,4.71-2.91,6.49-3.25a6.19,6.19,0,0,0-3.48-.15l-.14-.54a6.72,6.72,0,0,1,4.74.57l.7.41-.8.1C34.89,116.16,29,117,27.94,119.25Z"/><path class="cls-6" d="M49,125.18a17.74,17.74,0,0,1-2.45-11.38l.55.06a17,17,0,0,0,2.37,11Z"/><path class="cls-7" d="M49.51,123.21a.6.6,0,1,0,.6-.6A.6.6,0,0,0,49.51,123.21Z"/><path class="cls-6" d="M46.67,77.77c-5.81-4.08-7.14-18.3-1.56-20l18.65,1.89s2.23,2.13-.22,10.52Z"/><path class="cls-9" d="M45,74.12s2.76,6,6.83,7.16,6.69.22,7.44-.28a11.23,11.23,0,0,0,3.94-5.43c.66-2.26.34-16.95.34-16.95l-13-3-3.12,1.75L45.6,60.74,45,64.36C44.35,68.18,43.86,71.82,45,74.12Z"/><path class="cls-6" d="M52.5,68.07a.6.6,0,1,1-.6-.61A.6.6,0,0,1,52.5,68.07Z"/><path class="cls-6" d="M45.83,69.94c2-.42,2.38-5.44,2.65-9.22,2.57,1.28,13.42,1.06,15.16,0,2,0,4.77-8.3-3.61-8.46S43.57,55.48,44.82,58.9L44.34,68Z"/><path class="cls-9" d="M45.12,66l-.06-.1a2.9,2.9,0,0,0-.87-.84,2.18,2.18,0,0,0-2.29.17c-2.82,2-.13,8,3,7.39a2.69,2.69,0,0,0,1.43-3A8.34,8.34,0,0,0,45.12,66Z"/><path class="cls-6" d="M43.33,71.27c-1.54-1.09-2.08-3.13-1.52-4.23a1.51,1.51,0,0,1,2-.65l-.17.53c-.45-.15-1-.21-1.34.37-.44.88.05,2.61,1.35,3.53Z"/><path class="cls-6" d="M44.17,70.12a2.9,2.9,0,0,0-2.17-.9v-.56a3.55,3.55,0,0,1,2.6,1.1Z"/><path class="cls-5" d="M59.55,73a3.37,3.37,0,0,1-5.06.37Z"/><path class="cls-6" d="M63.56,71.87c-.26,1-.73,1.78-1.76,1.8A9.46,9.46,0,0,0,60,72.25a8.57,8.57,0,0,0-6.15.34,10.36,10.36,0,0,0-1.66,1.54c-2.88,0-3.69-1.58-3.91-3.07l-.86-5.21L45.12,66c.65,2.58-.28,10,1.1,11.78,1.75,4.93,7.09,6.72,12.86,5.64C66.68,81.78,63.56,71.87,63.56,71.87ZM57.19,74.6c-.86.05-1.12.57-1.51.46a1.54,1.54,0,0,1-1-1.27c0-.6,4.67-.85,4.7-.26a1.41,1.41,0,0,1-.56,1.27C58.44,75,58.05,74.54,57.19,74.6Z"/><path class="cls-6" d="M56.83,71.55,56.67,71c.61-.18,1.49-.64,1.46-1a19.86,19.86,0,0,0-1.78-3.83l.48-.27a20.82,20.82,0,0,1,1.85,4C58.76,70.94,57,71.49,56.83,71.55Z"/><path class="cls-6" d="M61.31,68.07a.64.64,0,0,1-.64.64.65.65,0,0,1,0-1.29A.65.65,0,0,1,61.31,68.07Z"/><path class="cls-6" d="M59.71,66.45l-.15-.53a3.69,3.69,0,0,1,2.23,0l-.18.53A3.23,3.23,0,0,0,59.71,66.45Z"/><path class="cls-6" d="M51,66.45l-.16-.53a3.69,3.69,0,0,1,2.23,0l-.17.53A3.23,3.23,0,0,0,51,66.45Z"/><path class="cls-5" d="M61.92,70.85a3.51,3.51,0,1,1,3.51-3.51A3.51,3.51,0,0,1,61.92,70.85Zm0-6.65a3.14,3.14,0,1,0,3.14,3.14A3.14,3.14,0,0,0,61.92,64.2Z"/><path class="cls-5" d="M52.14,70.85a3.51,3.51,0,1,1,3.51-3.51A3.52,3.52,0,0,1,52.14,70.85Zm0-6.65a3.14,3.14,0,1,0,3.14,3.14A3.15,3.15,0,0,0,52.14,64.2Z"/><path class="cls-5" d="M55.08,65.77l-.19-.32a3.91,3.91,0,0,1,4.3,0l-.23.28A3.56,3.56,0,0,0,55.08,65.77Z"/><path class="cls-6" d="M399.94,232H358.56l-.07,0c-.19-.13-4.8-3.15-4.49-14.46.22-8.23,4.95-14.25,9.53-20.07a81,81,0,0,0,5.49-7.57c5.27-7.4,6.51-12.44,0-22.81a81.11,81.11,0,0,0-5.49-7.58c-4.58-5.82-9.31-11.84-9.53-20.07-.31-11.31,4.3-14.33,4.49-14.45l.07,0h41.38l.07,0c.2.12,4.8,3.14,4.49,14.45-.22,8.23-4.95,14.25-9.52,20.07a80.48,80.48,0,0,0-5.49,7.57c-5.11,7.64-6.32,12.75,0,22.82h0a79.2,79.2,0,0,0,5.49,7.57c4.57,5.82,9.3,11.84,9.52,20.07.31,11.31-4.29,14.33-4.49,14.46Zm-41.21-.56h41c.54-.39,4.46-3.66,4.18-13.92-.22-8.05-4.89-14-9.41-19.74A82.74,82.74,0,0,1,389,190.1c-6.47-10.33-5.23-15.57,0-23.4a78.93,78.93,0,0,1,5.52-7.62c4.52-5.75,9.19-11.69,9.41-19.74.28-10.26-3.64-13.53-4.18-13.93h-41c-.54.4-4.45,3.67-4.18,13.93.22,8,4.89,14,9.41,19.74a79.63,79.63,0,0,1,5.53,7.63c6.64,10.57,5.29,16,0,23.41a81.34,81.34,0,0,1-5.52,7.61c-4.52,5.74-9.19,11.69-9.41,19.74C354.28,227.73,358.19,231,358.73,231.39Z"/><path class="cls-13" d="M402.14,217.52c-.07-2.75-5.6-6.36-10.84-9.16a17.44,17.44,0,0,1-8.84-16l.59-16.89c.57-3.27,2.17-6.38,4.47-9.84a81.55,81.55,0,0,1,5.64-7.77c1.57-2,3.1-3.95,4.45-6H360.9c1.35,2,2.88,4,4.44,6a80.58,80.58,0,0,1,5.66,7.81,30.94,30.94,0,0,1,4.38,9.8l.64,17.23a16.91,16.91,0,0,1-8.67,15.62c-5.28,2.81-10.91,6.47-11,9.24-.21,7.73,2.11,10.95,3,11.92h39.75C400,228.51,402.35,225.3,402.14,217.52Z"/><rect class="cls-6" x="352.75" y="117.91" width="52.69" height="11.88" rx="2.97"/><rect class="cls-6" x="352.75" y="227.02" width="52.69" height="11.88" rx="2.97"/><path class="cls-4" d="M351.86,229.44h54.48a1.61,1.61,0,0,1,1.61,1.61v6.25a1.6,1.6,0,0,1-1.6,1.6H351.86a1.6,1.6,0,0,1-1.6-1.6V231A1.61,1.61,0,0,1,351.86,229.44Z"/><path class="cls-4" d="M351.86,117.37h54.48a1.61,1.61,0,0,1,1.61,1.61v6.25a1.61,1.61,0,0,1-1.61,1.61H351.86a1.6,1.6,0,0,1-1.6-1.6V119A1.61,1.61,0,0,1,351.86,117.37Z"/></g></g></g></svg>