<svg xmlns="http://www.w3.org/2000/svg" viewBox="0 0 132.73 130.68"><defs><style>.cls-1{fill:#6c2911;stroke:#6c2910;stroke-miterlimit:10;}</style></defs><g id="Capa_2" data-name="Capa 2"><g id="Capa_1-2" data-name="Capa 1"><path class="cls-1" d="M38,55.36c-.57-1.35-1.73-2.1-2.65-3-2.66-2.74-2.69-3.13,0-5.82,1.27-1.27,2.58-2.48,3.79-3.81,1.57-1.73,3.13-1.7,4.46.12,2.1,2.84,4.15,3.19,7.56,1.63,2.88-1.31,3.83-2.59,3.63-5.57-.24-3.48.43-3.95,4-4,1.79,0,3.58.05,5.37,0,2.25-.06,3.54,1,3.18,3.22-.59,3.71,1,5.24,4.41,6.63,2.92,1.18,4.37.75,6.24-1.37,2.42-2.73,3-2.62,5.58-.06,1.33,1.32,2.63,2.68,4,4s1.76,2.9.07,4.07c-3.43,2.39-3.31,4.89-1.61,8.47,1.13,2.38,2.14,3.12,4.61,3,4.39-.19,4.63.2,4.64,4.7v.8c0,6.69,0,6.69-6.57,7.13-.18,0-.39-.06-.53,0-2.67,1.43-2,4.72-3.68,6.7-.87,1,.13,1.62.74,2.21,5.13,4.88,4.36,4.46-.17,9-4.28,4.32-4.06,4.75-8.45.09-1.08-1.15-1.88-1.16-3.41-.63-4,1.37-7,3-5.91,8.09.32,1.54-1.08,2.32-2.64,2.33-2.24,0-4.47,0-6.71,0s-3.54-1-3.18-3.21c.59-3.72-1-5.25-4.41-6.63-2.92-1.19-4.37-.74-6.24,1.37-2.42,2.74-3,2.62-5.58.06-1.33-1.33-2.62-2.69-4-4s-1.73-2.83-.07-4.08c3.06-2.29,3.59-4.53,1.74-8.23-1.28-2.56-2.37-3.35-5-3.23-4,.19-4.36-.3-4.37-4.43V69.89c0-6.68,0-6.68,6.57-7.13.51,0,1.37-.06,1.48-.33A54.93,54.93,0,0,1,38,55.36Zm47.59,32.9c-.8-.72-1.88-1.74-3-2.69-1.56-1.29-1.87-2.65-.67-4.41A13,13,0,0,0,84.05,76c.44-2.69,1.89-3.4,4.47-3.32,4.4.13,4,.71,4-4a9.53,9.53,0,0,1,0-1.07c.17-1.57-.4-2.47-2.09-2.16-4.08.73-6.49-.78-6.92-5a1.11,1.11,0,0,0-.2-.49c-2.75-3.69-2.64-6.92,1.45-9.58.45-.29,1.17-.76.48-1.48-1.3-1.36-2.63-2.68-4-4-.7-.68-1.18-.06-1.5.42-2.64,4-5.85,4.32-9.56,1.5a.56.56,0,0,0-.24-.1c-4.34-.53-6.21-2.85-5.36-7.25.27-1.38-.47-1.81-1.83-1.89-5.28-.28-5.34-.33-5.35,4.81,0,1.9-.58,3-2.53,3.44a18.29,18.29,0,0,0-6.15,2.56c-1.59,1-2.73.67-4-.58-3.63-3.53-3.66-3.49-7.2.28a3.41,3.41,0,0,1-.38.38c-.86.67-.78,1.34.08,1.9,4.07,2.64,4.27,5.86,1.49,9.56a.58.58,0,0,0-.11.24c-.52,4.37-2.9,6.17-7.27,5.33-.92-.18-1.65,0-1.85,1.31-.79,5-.18,5.89,4.79,5.89,1.89,0,3,.55,3.45,2.5a18,18,0,0,0,2.55,6.16,2.7,2.7,0,0,1-.57,4c-.61.53-1.09,1.21-1.73,1.69-1.51,1.14-1.7,2-.13,3.49,3.46,3.22,3.42,3.38,6.67.07,1.41-1.43,2.62-1.8,4.44-.69a16.55,16.55,0,0,0,5.14,2.2c2.65.55,3.64,1.9,3.3,4.49a20,20,0,0,0,0,2.68c0,.56.12,1.19.79,1.2,2,0,4.09.44,5.82-.19,1.35-.5.64-2.6.56-3.94-.13-2.35.62-3.7,3.06-4.15a16.76,16.76,0,0,0,4-1.5c4-1.91,4-1.93,7.17,1.22.61.61,1,1.47,2,1.65C81.13,93.65,85.46,89.26,85.55,88.26Z"/><path class="cls-1" d="M40.77,11.41c-.82-1.09-2-1.38-2.93-2.05A4.8,4.8,0,0,1,36.22,3a4.58,4.58,0,0,1,6.24-1.93q6.95,3.8,13.69,8a4.45,4.45,0,0,1,1.52,6.35Q54,22,50,28.57a4.63,4.63,0,0,1-6.53,1.67,4.79,4.79,0,0,1-1.77-6.33c.35-.8,1.08-1.43,1.07-2.44-1.1-.44-1.88.34-2.72.72-23.24,10.56-35.2,37.4-27.63,62C13.73,88.45,13,91,10,92s-5.39-.68-6.76-5C-6.12,57.22,9.05,24.76,38.08,12.57ZM3.67,69c0,1.7-.11,3.4,0,5.09A55.37,55.37,0,0,0,6.46,87.46c.39,1.16,1.06,2.29,2.5,1.79s1.65-1.71,1-3.08a4.81,4.81,0,0,1-.19-.77c-5.52-18.17-2.29-34.82,9-49.9A51.42,51.42,0,0,1,44.42,17.33c1.08-.36,2.27-1.07,3.2.09s-.14,2.18-.67,3.15c-.76,1.42-1.58,2.8-2.41,4.18-.7,1.16-.79,2.22.54,2.95s2.06,0,2.65-1c2.44-4.16,4.83-8.35,7.28-12.52.59-1,.6-2-.36-2.6Q48,7.57,41.22,3.76a1.71,1.71,0,0,0-2.37.63,1.74,1.74,0,0,0,.67,2.54c1.35.87,2.78,1.62,4.14,2.47,1,.6,2.38.92,2.3,2.34-.1,1.64-1.71,1.66-2.82,2A57.71,57.71,0,0,0,3.67,69Z"/><path class="cls-1" d="M20.22,114.1c0,1.65.06,2.71,0,3.76a4.63,4.63,0,0,1-4.68,4.55A4.56,4.56,0,0,1,10.72,118c-.19-3.66-.07-7.34-.06-11,0-8.9.49-9.36,9.46-9.35,3.13,0,6.26,0,9.39,0,3.71,0,5.92,1.77,6,4.69.08,3.07-2.1,4.87-6,4.91H27.83c.19,1.23,1.2,1.61,1.91,2.17a51.66,51.66,0,0,0,69.63-5.14c.49-.52.94-1.08,1.45-1.58a4.86,4.86,0,0,1,6.77-.4A4.61,4.61,0,0,1,108,109a51.36,51.36,0,0,1-8.53,8.14,61.14,61.14,0,0,1-76.66-1C22.1,115.59,21.41,115.05,20.22,114.1Zm3.08-13.66v0c-2.33,0-4.66,0-7,0-1.91,0-2.81.9-2.82,2.77,0,4.65-.06,9.31-.05,14,0,1.39.51,2.55,2.17,2.44,1.48-.11,1.85-1.19,1.84-2.49,0-2-.09-3.94.05-5.9s1.25-2.25,2.7-1.11c.49.39.9.87,1.36,1.31,23.63,22.51,62.19,21,83.47-3.19,1-1.1,2.15-2.3.7-3.66s-2.56-.23-3.61.88c-12.92,13.65-28.7,19.69-47.42,17.45a52.81,52.81,0,0,1-31-15.06c-.68-.66-1.67-1.29-1.11-2.46.47-1,1.48-.84,2.36-.84,1.7,0,3.41,0,5.11,0,1.4,0,2.57-.36,2.58-2s-1.23-2-2.59-2C27.77,100.42,25.54,100.44,23.3,100.44Z"/><path class="cls-1" d="M121.81,81.34c1.29-.72,2.27-1.33,3.3-1.83a4.8,4.8,0,0,1,6.5,1.85A4.64,4.64,0,0,1,130,87.7q-6.66,4-13.5,7.73a4.45,4.45,0,0,1-6.29-1.73c-2.64-4.35-5.17-8.78-7.63-13.25a4.66,4.66,0,0,1,1.72-6.51c2.27-1.34,4.91-.64,6.53,1.74.49.72.93,1.47,1.67,2.65a47.08,47.08,0,0,0-.73-22.17c-5.82-20-18.72-32.7-39.09-37.58-3.52-.85-5.4-2.81-5.07-5.5.38-3.08,3.08-4.76,6.64-4a58.51,58.51,0,0,1,30.14,16C119.76,40.6,125.44,59.27,121.81,81.34ZM116.08,67.6a58.3,58.3,0,0,1-1.45,14.05c-.2.84-.36,1.85-1.52,1.94-1,.07-1.35-.74-1.75-1.43-1-1.62-1.87-3.26-2.83-4.87-.7-1.17-1.74-1.62-2.94-.88A1.86,1.86,0,0,0,105,79.2c2.45,4.26,4.87,8.54,7.33,12.79a2.09,2.09,0,0,0,3.18.87l12.56-7.19c1.18-.67,1.73-1.67,1.08-2.9-.75-1.44-2-1.28-3.21-.58s-2.45,1.47-3.72,2.12c-1,.53-2.08,1.87-3.36.84-1.08-.88-.34-2.17-.09-3.26a58.44,58.44,0,0,0-44.48-70c-1.5-.33-3.28-.86-3.8,1.19s1.26,2.42,2.77,2.77C98.48,21.56,115.92,43.13,116.08,67.6Z"/><path class="cls-1" d="M60.93,87.29a18.18,18.18,0,1,1,18.26-18A18.34,18.34,0,0,1,60.93,87.29ZM45.71,69.22a15.31,15.31,0,1,0,15.07-15.4A15.44,15.44,0,0,0,45.71,69.22Z"/><path class="cls-1" d="M70.51,67c-.08,2.48-7.82,10.29-10.34,10.42A4,4,0,0,1,57,76.25c-1.46-1.44-3-2.81-4.34-4.36a4,4,0,0,1-.08-5.6,3.82,3.82,0,0,1,5.71-.5c1.53,1.34,2.33.91,3.43-.35a10.37,10.37,0,0,1,2.59-2.27A4.19,4.19,0,0,1,70.51,67Zm-3-.3c-.27-.94-.85-1.54-1.92-1A8.9,8.9,0,0,0,64,67.12c-1.17,1.1-2.15,2.59-3.53,3.24-1.93.9-2.48-1.55-3.8-2.27-.48-.26-.92-.54-1.49-.25a1.31,1.31,0,0,0-.74,1.31c0,.94,4.4,5.3,5.35,5.35C60.94,74.56,67.66,67.84,67.56,66.66Z"/></g></g></svg>