<svg id="Capa_1" data-name="Capa 1" xmlns="http://www.w3.org/2000/svg" viewBox="0 0 82.54 59.26"><defs><style>.cls-1{fill:#c6875e;}</style></defs><path class="cls-1" d="M61.35,54.68c-.87-1.33-.69-2.85-.69-4.34,0-5.06,0-10.12,0-15.17a5.15,5.15,0,0,1,.07-1,.68.68,0,0,1,.75-.58.7.7,0,0,1,.73.62,4.9,4.9,0,0,1,0,.94q0,7.74,0,15.49c0,.47-.22,1.06.69,1s1-.4,1-1.12q0-18.57,0-37.15c0-.73-.27-.88-.91-.85s-1.4,0-2.09,0c-1.39,0-1.86-.5-1.88-1.91,0-.73,0-1.47,0-2.2s-.2-.83-.78-.75h-.42q-18.37,0-36.73,0c-1,0-1.2.3-1.18,1.22.06,2.48,0,5,0,7.43V17c0,.53-.26.89-.82.88s-.73-.38-.73-.84c0-3.18,0-6.35,0-9.53,0-1,.64-1.49,1.81-1.4s1.5-.27,1.42-1.43c-.09-1.33.54-1.85,1.93-1.85H63.48c1.51,0,2,.48,2,2,0,6.48,0,13,0,19.46,0,1,.21,1.41,1.31,1.34,1.49-.1,2,.47,2,2V52c0,2.76-1.66,4.4-4.45,4.4H19.61c-2.83,0-4.45-1.64-4.45-4.5q0-11.3,0-22.6c0-1.64.45-2.15,2.12-2.09.95,0,1.19-.28,1.15-1.18-.07-1.71,0-3.42,0-5.13,0-.55,0-1.12.77-1.13s.8.53.79,1.11c0,1.81,0,3.63,0,5.44,0,.7.22.88.89.88q10.77,0,21.55,0a1.25,1.25,0,0,0,1.19-.66c.73-1.14,1.53-2.25,2.25-3.4a1.61,1.61,0,0,1,1.53-.86c4.29,0,8.58,0,12.87,0,1.48,0,2,.53,2,2,0,2,0,4,0,6,0,.62,0,1.32-.81,1.3s-.79-.73-.79-1.34c0-1.81,0-3.62,0-5.44,0-.64-.13-.92-.86-.92-4,0-8,0-11.93,0a1.08,1.08,0,0,0-1,.55c-.71,1.12-1.49,2.19-2.18,3.33a1.91,1.91,0,0,1-1.86,1c-8.31,0-16.61,0-24.91-.05-1,0-1.2.29-1.19,1.22,0,7.29,0,14.58,0,21.87,0,2.13.86,3,3,3H60.34A1.73,1.73,0,0,0,61.35,54.68ZM63.64,9.74l.29-.17c0-1.42,0-2.83,0-4.24,0-.76-.25-.93-.95-.93q-19.41,0-38.83,0c-.75,0-.93.26-.93,1,0,1,.66.71,1.16.71q17.32,0,34.64,0A2.31,2.31,0,0,1,61,6.87C61.82,7.85,62.74,8.79,63.64,9.74ZM62.5,53.33a2.17,2.17,0,0,0,2,1.48,2.36,2.36,0,0,0,2.26-1,3.31,3.31,0,0,0,.46-2.1V28.4c0-.21,0-.42,0-.63,0-.43-.18-.59-.62-.63-.8-.07-1.08.18-1.07,1,0,6.89,0,13.79,0,20.68,0,.77,0,1.54,0,2.3a2.07,2.07,0,0,1-1.91,2C63.22,53.21,62.86,53.1,62.5,53.33ZM60.67,8.9c-.16,2.28-.07,2.37,1.91,1.92Z"/><path class="cls-1" d="M27.39,43.46h5.34c1.34,0,1.88.57,1.89,1.93s0,2.92,0,4.39a1.58,1.58,0,0,1-1.72,1.78c-.76,0-1.53,0-2.3,0-.53,0-1-.14-1-.78s.5-.81,1.07-.84c.76,0,1.74.34,2.21-.17s.15-1.53.16-2.33c0-2.38,0-2.38-2.39-2.38-2.68,0-5.36,0-8,0-.8,0-1,.24-1,1a27.84,27.84,0,0,1,0,3c0,.67.17.92.87.89,1.32,0,2.65,0,4,0,.6,0,1.21.08,1.2.82s-.64.79-1.23.79c-1.5,0-3,0-4.5,0S20,51,20,49.63s0-2.85,0-4.28.57-1.88,1.94-1.89Z"/><path class="cls-1" d="M38,12.6H50.85a7.17,7.17,0,0,1,1,.06.63.63,0,0,1,.56.65.68.68,0,0,1-.54.79,4.12,4.12,0,0,1-.93.05H24.82c-.24,0-.49,0-.73,0a.73.73,0,0,1-.77-.8.7.7,0,0,1,.74-.72c.35,0,.7,0,1.05,0Z"/><path class="cls-1" d="M33,22.9H24.59c-.58,0-1.23,0-1.26-.76s.65-.85,1.27-.85H41.44c.59,0,1.24,0,1.27.77s-.65.85-1.28.85Z"/><path class="cls-1" d="M33,18.07h8.89a.74.74,0,0,1,.79.79.76.76,0,0,1-.85.74H25a.34.34,0,0,1-.1,0c-.63-.08-1.62.3-1.59-.79s1-.73,1.64-.74C27.67,18.05,30.36,18.07,33,18.07Z"/></svg>