<svg xmlns="http://www.w3.org/2000/svg" viewBox="0 0 755.65 325.46"><defs><style>.cls-1{fill:#6c2910;}.cls-2{fill:#c6875e;}.cls-3{fill:#d9d39c;}</style></defs><g id="Capa_2" data-name="Capa 2"><g id="Capa_1-2" data-name="Capa 1"><path class="cls-1" d="M0,0H688.32a67.33,67.33,0,0,1,67.33,67.33V325.46a0,0,0,0,1,0,0H67.33A67.33,67.33,0,0,1,0,258.13V0A0,0,0,0,1,0,0Z"/><path class="cls-2" d="M259.61,141.77l-3.75,12.52h-1.78l4.43-13.74h1.11Zm3,7.44v1.49H256v-1.49Zm0,5.08-3.76-12.52v-1.22H260l4.42,13.74Z"/><path class="cls-2" d="M271,151.68a1.26,1.26,0,0,0-.19-.68,1.93,1.93,0,0,0-.62-.57,7.76,7.76,0,0,0-1.16-.58c-.47-.2-.89-.39-1.26-.58a4.47,4.47,0,0,1-.95-.63,2.25,2.25,0,0,1-.59-.79,2.48,2.48,0,0,1-.2-1.06,2.7,2.7,0,0,1,.23-1.14,2.8,2.8,0,0,1,.65-.92,3,3,0,0,1,1-.61,3.75,3.75,0,0,1,1.33-.23,3.63,3.63,0,0,1,1.78.41,2.81,2.81,0,0,1,1.13,1.11,3.19,3.19,0,0,1,.39,1.58h-1.66a1.71,1.71,0,0,0-.19-.8,1.56,1.56,0,0,0-.55-.62,1.63,1.63,0,0,0-.9-.24,1.72,1.72,0,0,0-.9.2,1.14,1.14,0,0,0-.51.51,1.58,1.58,0,0,0-.15.69,1.23,1.23,0,0,0,.08.49,1,1,0,0,0,.27.38,4.39,4.39,0,0,0,.55.36c.22.12.52.26.88.42a11.94,11.94,0,0,1,1.74.82,3.11,3.11,0,0,1,1.08,1,2.49,2.49,0,0,1,.37,1.38,3,3,0,0,1-.24,1.21,2.63,2.63,0,0,1-.69.93,3.2,3.2,0,0,1-1.06.59,4.55,4.55,0,0,1-1.38.2,3.8,3.8,0,0,1-1.95-.46,3.1,3.1,0,0,1-1.21-1.2,3.25,3.25,0,0,1-.41-1.59h1.67a2,2,0,0,0,.33,1.12,1.57,1.57,0,0,0,.72.54,2.56,2.56,0,0,0,.85.16,2.31,2.31,0,0,0,.93-.17,1.23,1.23,0,0,0,.57-.48A1.32,1.32,0,0,0,271,151.68Z"/><path class="cls-2" d="M274.92,141.37a1.07,1.07,0,0,1,.24-.71.84.84,0,0,1,.71-.29.85.85,0,0,1,.71.29,1.07,1.07,0,0,1,.24.71,1,1,0,0,1-.24.7.88.88,0,0,1-.71.29.87.87,0,0,1-.71-.29A1,1,0,0,1,274.92,141.37Zm1.76,2.71v10.21H275V144.08Z"/><path class="cls-2" d="M281,146.11v8.18h-1.66V144.08h1.56Zm-.34,2.69-.77,0a8,8,0,0,1,.2-1.94,5.07,5.07,0,0,1,.66-1.55,3.06,3.06,0,0,1,1.1-1,3.23,3.23,0,0,1,1.55-.37,2.75,2.75,0,0,1,1.09.21,2.2,2.2,0,0,1,.89.63,3.2,3.2,0,0,1,.59,1.12,5.59,5.59,0,0,1,.21,1.64v6.8H284.5v-6.72a3.25,3.25,0,0,0-.21-1.28,1.45,1.45,0,0,0-.6-.7,1.83,1.83,0,0,0-.93-.22,1.8,1.8,0,0,0-1,.27,1.91,1.91,0,0,0-.65.75,3.64,3.64,0,0,0-.34,1.1A7.83,7.83,0,0,0,280.65,148.8Zm5.5-1-1.11.36a5.8,5.8,0,0,1,.2-1.62,4.45,4.45,0,0,1,.65-1.37,3.07,3.07,0,0,1,1.07-1,3,3,0,0,1,1.49-.36,3.39,3.39,0,0,1,1.24.22,2.32,2.32,0,0,1,.91.67,3,3,0,0,1,.56,1.14,6.27,6.27,0,0,1,.19,1.66v6.71h-1.67v-6.73a3.39,3.39,0,0,0-.21-1.33,1.33,1.33,0,0,0-.6-.67,2.06,2.06,0,0,0-.93-.19,1.52,1.52,0,0,0-.77.19,1.83,1.83,0,0,0-.56.55,2.75,2.75,0,0,0-.34.78A3.64,3.64,0,0,0,286.15,147.84Z"/><path class="cls-2" d="M293.91,141.37a1.06,1.06,0,0,1,.23-.71.84.84,0,0,1,.71-.29.85.85,0,0,1,.71.29,1.07,1.07,0,0,1,.24.71,1,1,0,0,1-.24.7.88.88,0,0,1-.71.29.87.87,0,0,1-.71-.29A1,1,0,0,1,293.91,141.37Zm1.75,2.71v10.21H294V144.08Z"/><path class="cls-2" d="M303.26,151.68a1.26,1.26,0,0,0-.19-.68,2,2,0,0,0-.62-.57,7.76,7.76,0,0,0-1.16-.58c-.47-.2-.89-.39-1.27-.58a4.66,4.66,0,0,1-.94-.63,2.25,2.25,0,0,1-.59-.79,2.47,2.47,0,0,1-.21-1.06,2.87,2.87,0,0,1,.23-1.14,3,3,0,0,1,.66-.92,2.89,2.89,0,0,1,1-.61,3.75,3.75,0,0,1,1.33-.23,3.63,3.63,0,0,1,1.78.41,2.81,2.81,0,0,1,1.13,1.11,3.19,3.19,0,0,1,.39,1.58h-1.66a1.71,1.71,0,0,0-.19-.8,1.56,1.56,0,0,0-.55-.62,1.63,1.63,0,0,0-.9-.24,1.78,1.78,0,0,0-.91.2,1.17,1.17,0,0,0-.5.51,1.59,1.59,0,0,0-.16.69,1.44,1.44,0,0,0,.08.49,1.1,1.1,0,0,0,.28.38,3.58,3.58,0,0,0,.54.36c.23.12.53.26.89.42a11.94,11.94,0,0,1,1.74.82,3.21,3.21,0,0,1,1.08,1,2.49,2.49,0,0,1,.37,1.38,2.82,2.82,0,0,1-.25,1.21,2.6,2.6,0,0,1-.68.93,3.3,3.3,0,0,1-1.06.59,4.55,4.55,0,0,1-1.38.2,3.8,3.8,0,0,1-1.95-.46,3,3,0,0,1-1.21-1.2,3.25,3.25,0,0,1-.41-1.59h1.67a2,2,0,0,0,.33,1.12,1.52,1.52,0,0,0,.72.54,2.51,2.51,0,0,0,.85.16,2.31,2.31,0,0,0,.93-.17,1.23,1.23,0,0,0,.57-.48A1.32,1.32,0,0,0,303.26,151.68Z"/><path class="cls-2" d="M308.78,146.11v8.18h-1.66V144.08h1.57Zm-.34,2.69-.77,0a7.5,7.5,0,0,1,.21-1.94,4.83,4.83,0,0,1,.65-1.55,3.09,3.09,0,0,1,1.11-1,3.2,3.2,0,0,1,1.55-.37,2.82,2.82,0,0,1,1.09.21,2.17,2.17,0,0,1,.88.63,3,3,0,0,1,.59,1.12,5.59,5.59,0,0,1,.21,1.64v6.8h-1.67v-6.72a3.25,3.25,0,0,0-.21-1.28,1.4,1.4,0,0,0-.6-.7,1.79,1.79,0,0,0-.92-.22,1.86,1.86,0,0,0-1,.27,1.91,1.91,0,0,0-.65.75,3.94,3.94,0,0,0-.34,1.1A9,9,0,0,0,308.44,148.8Zm5.5-1-1.11.36a5.46,5.46,0,0,1,.21-1.62,4.43,4.43,0,0,1,.64-1.37,3.1,3.1,0,0,1,1.08-1,3,3,0,0,1,1.49-.36,3.37,3.37,0,0,1,1.23.22,2.32,2.32,0,0,1,.91.67,2.83,2.83,0,0,1,.56,1.14,6.27,6.27,0,0,1,.19,1.66v6.71h-1.67v-6.73a3.39,3.39,0,0,0-.21-1.33,1.28,1.28,0,0,0-.6-.67,2,2,0,0,0-.92-.19,1.49,1.49,0,0,0-.77.19,1.73,1.73,0,0,0-.56.55,2.77,2.77,0,0,0-.35.78A3.64,3.64,0,0,0,313.94,147.84Z"/><path class="cls-2" d="M321.31,149.68v-1a6.58,6.58,0,0,1,.3-2.09,4.56,4.56,0,0,1,.84-1.51,3.51,3.51,0,0,1,1.26-.91,4,4,0,0,1,3.09,0,3.51,3.51,0,0,1,1.26.91,4.25,4.25,0,0,1,.85,1.51,6.58,6.58,0,0,1,.3,2.09v1a6.63,6.63,0,0,1-.3,2.09,4.19,4.19,0,0,1-.84,1.5,3.51,3.51,0,0,1-1.26.91,4.13,4.13,0,0,1-3.09,0,3.51,3.51,0,0,1-1.26-.91,4.36,4.36,0,0,1-.85-1.5A6.63,6.63,0,0,1,321.31,149.68Zm1.67-1v1a5.82,5.82,0,0,0,.17,1.47,3.58,3.58,0,0,0,.48,1.06,2.07,2.07,0,0,0,.73.63,2,2,0,0,0,.91.21,2.25,2.25,0,0,0,1-.21,1.79,1.79,0,0,0,.71-.63,3.31,3.31,0,0,0,.43-1.06,7.05,7.05,0,0,0,.14-1.47v-1a5.82,5.82,0,0,0-.17-1.47,3.14,3.14,0,0,0-.48-1.06,2.1,2.1,0,0,0-.73-.64,2,2,0,0,0-.91-.21,1.92,1.92,0,0,0-1.62.85,3.34,3.34,0,0,0-.48,1.06A5.82,5.82,0,0,0,323,148.71Z"/><path class="cls-2" d="M333,152.22v1.4a4.42,4.42,0,0,1-.43,1.82,4.49,4.49,0,0,1-1.22,1.6l-1-.69a5.8,5.8,0,0,0,.51-.85,4,4,0,0,0,.31-.88,3.85,3.85,0,0,0,.11-1v-1.43Z"/><path class="cls-2" d="M341.39,139.8v14.49h-1.66V139.8Z"/><path class="cls-2" d="M349.3,148.1v1.23h-1.16a4.1,4.1,0,0,0-1.08.13,2.76,2.76,0,0,0-.83.38,1.74,1.74,0,0,0-.53.62,1.79,1.79,0,0,0-.19.84,2.43,2.43,0,0,0,.17,1,1,1,0,0,0,.51.52,2,2,0,0,0,.86.16,2.14,2.14,0,0,0,1.11-.29,2.33,2.33,0,0,0,.75-.71,1.32,1.32,0,0,0,.25-.77l.37.78a2.49,2.49,0,0,1-.24.8,3.52,3.52,0,0,1-.56.82,3,3,0,0,1-.85.64,2.28,2.28,0,0,1-1.09.25,3.34,3.34,0,0,1-1.55-.34,2.42,2.42,0,0,1-1-1,3.27,3.27,0,0,1-.37-1.63,3.54,3.54,0,0,1,.26-1.36,2.92,2.92,0,0,1,.75-1.08,3.35,3.35,0,0,1,1.26-.71,5.53,5.53,0,0,1,1.76-.26Zm-.27,4.45V147a2.21,2.21,0,0,0-.18-1,1.15,1.15,0,0,0-.55-.54,2.05,2.05,0,0,0-.91-.17,1.85,1.85,0,0,0-.91.21,1.57,1.57,0,0,0-.59.58,1.63,1.63,0,0,0-.2.79H344a2.64,2.64,0,0,1,.24-1.08,3,3,0,0,1,.7-1,3.53,3.53,0,0,1,1.08-.7,3.87,3.87,0,0,1,1.43-.26,4.32,4.32,0,0,1,1.67.31,2.38,2.38,0,0,1,1.15,1,3.57,3.57,0,0,1,.41,1.83v5a8.48,8.48,0,0,0,.08,1.09,4.82,4.82,0,0,0,.23,1v.15h-1.72a2.84,2.84,0,0,1-.19-.81A6.29,6.29,0,0,1,349,152.55Z"/><path class="cls-2" d="M361.26,153.05a2,2,0,0,0,.91-.2,1.58,1.58,0,0,0,.67-.64,2.34,2.34,0,0,0,.3-1.15h1.57a3.6,3.6,0,0,1-.51,1.79,3.5,3.5,0,0,1-1.25,1.2,3.37,3.37,0,0,1-1.69.43,4.29,4.29,0,0,1-1.72-.32,3.1,3.1,0,0,1-1.21-.93,4,4,0,0,1-.71-1.48,7.54,7.54,0,0,1-.24-2v-1.15a7.46,7.46,0,0,1,.24-2,4,4,0,0,1,.71-1.49,3.2,3.2,0,0,1,1.21-.93,4.29,4.29,0,0,1,1.72-.32,3.58,3.58,0,0,1,1.8.44,3,3,0,0,1,1.18,1.27,4.46,4.46,0,0,1,.47,2h-1.57a3.26,3.26,0,0,0-.27-1.26,1.7,1.7,0,0,0-.64-.75,1.77,1.77,0,0,0-1-.25,2.2,2.2,0,0,0-1.09.23,1.73,1.73,0,0,0-.68.66,3.35,3.35,0,0,0-.34,1,7.91,7.91,0,0,0-.1,1.35v1.15a8.11,8.11,0,0,0,.1,1.36,3.35,3.35,0,0,0,.34,1,1.58,1.58,0,0,0,.67.66A2.27,2.27,0,0,0,361.26,153.05Z"/><path class="cls-2" d="M366.3,149.68v-1a6.58,6.58,0,0,1,.3-2.09,4.24,4.24,0,0,1,.84-1.51,3.47,3.47,0,0,1,1.25-.91,4,4,0,0,1,1.54-.31,4,4,0,0,1,1.56.31,3.69,3.69,0,0,1,1.26.91,4.24,4.24,0,0,1,.84,1.51,6.58,6.58,0,0,1,.3,2.09v1a6.63,6.63,0,0,1-.3,2.09,4.19,4.19,0,0,1-.84,1.5,3.56,3.56,0,0,1-1.25.91,4.15,4.15,0,0,1-3.1,0,3.51,3.51,0,0,1-1.26-.91,4.19,4.19,0,0,1-.84-1.5A6.63,6.63,0,0,1,366.3,149.68Zm1.67-1v1a5.4,5.4,0,0,0,.17,1.47,3.14,3.14,0,0,0,.48,1.06,2,2,0,0,0,.72.63,2,2,0,0,0,.91.21,2.19,2.19,0,0,0,1-.21,1.81,1.81,0,0,0,.72-.63,3.31,3.31,0,0,0,.42-1.06,6.44,6.44,0,0,0,.14-1.47v-1a5.4,5.4,0,0,0-.17-1.47,3.14,3.14,0,0,0-.48-1.06,2.1,2.1,0,0,0-.73-.64,2.06,2.06,0,0,0-1.81,0,2.16,2.16,0,0,0-.72.64,3.34,3.34,0,0,0-.47,1.06A5.4,5.4,0,0,0,368,148.71Z"/><path class="cls-2" d="M378,146.11v8.18h-1.66V144.08h1.57Zm-.34,2.69-.77,0a7.5,7.5,0,0,1,.21-1.94,4.83,4.83,0,0,1,.65-1.55,3.09,3.09,0,0,1,1.11-1,3.2,3.2,0,0,1,1.55-.37,2.82,2.82,0,0,1,1.09.21,2.17,2.17,0,0,1,.88.63,3,3,0,0,1,.59,1.12,5.59,5.59,0,0,1,.21,1.64v6.8h-1.67v-6.72a3.25,3.25,0,0,0-.21-1.28,1.4,1.4,0,0,0-.6-.7,1.82,1.82,0,0,0-.92-.22,1.86,1.86,0,0,0-1,.27,1.91,1.91,0,0,0-.65.75,3.94,3.94,0,0,0-.34,1.1A9,9,0,0,0,377.67,148.8Zm5.5-1-1.11.36a5.46,5.46,0,0,1,.21-1.62,4.43,4.43,0,0,1,.64-1.37,3.16,3.16,0,0,1,1.07-1,3,3,0,0,1,1.5-.36,3.37,3.37,0,0,1,1.23.22,2.32,2.32,0,0,1,.91.67,2.83,2.83,0,0,1,.56,1.14,6.27,6.27,0,0,1,.19,1.66v6.71H386.7v-6.73a3.39,3.39,0,0,0-.21-1.33,1.28,1.28,0,0,0-.6-.67,2,2,0,0,0-.92-.19,1.49,1.49,0,0,0-.77.19,1.73,1.73,0,0,0-.56.55,2.51,2.51,0,0,0-.35.78A3.64,3.64,0,0,0,383.17,147.84Z"/><path class="cls-2" d="M396.36,149.78l.66,0a9.19,9.19,0,0,1-.17,1.88,4.6,4.6,0,0,1-.57,1.5,2.79,2.79,0,0,1-1,1,3.3,3.3,0,0,1-1.58.35,2.79,2.79,0,0,1-1.14-.22,2.24,2.24,0,0,1-.89-.67,3,3,0,0,1-.57-1.18,6.28,6.28,0,0,1-.21-1.74v-6.59h1.66v6.61a4,4,0,0,0,.13,1.13,1.88,1.88,0,0,0,.33.71,1.12,1.12,0,0,0,.46.36,1.35,1.35,0,0,0,.52.11,2.14,2.14,0,0,0,1.41-.43,2.36,2.36,0,0,0,.76-1.16A5.22,5.22,0,0,0,396.36,149.78Zm-.31,2.15v-7.85h1.67v10.21h-1.58Z"/><path class="cls-2" d="M401.9,146.26v8h-1.67V144.08h1.58Zm-.41,2.54-.67,0a6.7,6.7,0,0,1,.24-1.94,4.9,4.9,0,0,1,.71-1.55,3.39,3.39,0,0,1,1.12-1,3.08,3.08,0,0,1,2.58-.16,2,2,0,0,1,.86.64,3.17,3.17,0,0,1,.56,1.15,6.51,6.51,0,0,1,.19,1.71v6.69h-1.67v-6.71a4.15,4.15,0,0,0-.17-1.29,1.34,1.34,0,0,0-.53-.7,1.66,1.66,0,0,0-.89-.22,1.68,1.68,0,0,0-.92.27,2.52,2.52,0,0,0-.74.75,4.09,4.09,0,0,0-.49,1.1A4.66,4.66,0,0,0,401.49,148.8Z"/><path class="cls-2" d="M409.63,141.37a1.12,1.12,0,0,1,.23-.71.85.85,0,0,1,.71-.29.84.84,0,0,1,.71.29,1.07,1.07,0,0,1,.24.71,1,1,0,0,1-.24.7.87.87,0,0,1-.71.29.88.88,0,0,1-.71-.29A1.09,1.09,0,0,1,409.63,141.37Zm1.75,2.71v10.21h-1.66V144.08Z"/><path class="cls-2" d="M417.56,153.05a1.93,1.93,0,0,0,.91-.2,1.6,1.6,0,0,0,.68-.64,2.58,2.58,0,0,0,.3-1.15H421a3.61,3.61,0,0,1-.52,1.79,3.47,3.47,0,0,1-1.24,1.2,3.41,3.41,0,0,1-1.7.43,4.33,4.33,0,0,1-1.72-.32,3.1,3.1,0,0,1-1.21-.93,4.33,4.33,0,0,1-.71-1.48,7.54,7.54,0,0,1-.24-2v-1.15a7.46,7.46,0,0,1,.24-2,4.3,4.3,0,0,1,.71-1.49,3.2,3.2,0,0,1,1.21-.93,4.33,4.33,0,0,1,1.72-.32,3.58,3.58,0,0,1,1.8.44,3,3,0,0,1,1.19,1.27,4.74,4.74,0,0,1,.47,2h-1.57a3.68,3.68,0,0,0-.27-1.26,1.66,1.66,0,0,0-.65-.75,1.77,1.77,0,0,0-1-.25,2.23,2.23,0,0,0-1.09.23,1.7,1.7,0,0,0-.67.66,3.35,3.35,0,0,0-.35,1,9.07,9.07,0,0,0-.1,1.35v1.15a9.32,9.32,0,0,0,.1,1.36,3.35,3.35,0,0,0,.34,1,1.6,1.6,0,0,0,.68.66A2.23,2.23,0,0,0,417.56,153.05Z"/><path class="cls-2" d="M428.21,148.1l0,1.23h-1.16a4.1,4.1,0,0,0-1.08.13,2.76,2.76,0,0,0-.83.38,1.77,1.77,0,0,0-.54.62,1.92,1.92,0,0,0-.18.84,2.43,2.43,0,0,0,.17,1,1,1,0,0,0,.51.52,2,2,0,0,0,.86.16,2.14,2.14,0,0,0,1.11-.29,2.33,2.33,0,0,0,.75-.71,1.32,1.32,0,0,0,.25-.77l.37.78a2.76,2.76,0,0,1-.24.8,3.52,3.52,0,0,1-.56.82,3,3,0,0,1-.85.64,2.28,2.28,0,0,1-1.09.25,3.31,3.31,0,0,1-1.55-.34,2.42,2.42,0,0,1-1-1,3.27,3.27,0,0,1-.37-1.63,3.54,3.54,0,0,1,.25-1.36,3,3,0,0,1,.76-1.08,3.35,3.35,0,0,1,1.26-.71,5.53,5.53,0,0,1,1.76-.26Zm-.26,4.45V147a2.21,2.21,0,0,0-.18-1,1.15,1.15,0,0,0-.55-.54,2.05,2.05,0,0,0-.91-.17,1.85,1.85,0,0,0-.91.21,1.57,1.57,0,0,0-.59.58,1.63,1.63,0,0,0-.2.79h-1.67a2.64,2.64,0,0,1,.24-1.08,3.12,3.12,0,0,1,.69-1,3.71,3.71,0,0,1,1.09-.7,3.83,3.83,0,0,1,1.43-.26,4.32,4.32,0,0,1,1.67.31,2.31,2.31,0,0,1,1.14,1,3.47,3.47,0,0,1,.42,1.83v5a8.48,8.48,0,0,0,.08,1.09,4.82,4.82,0,0,0,.23,1v.15H428.2a3.28,3.28,0,0,1-.18-.81A6.29,6.29,0,0,1,428,152.55Z"/><path class="cls-2" d="M435.74,153.05a1.93,1.93,0,0,0,.91-.2,1.6,1.6,0,0,0,.68-.64,2.58,2.58,0,0,0,.3-1.15h1.57a3.61,3.61,0,0,1-.52,1.79,3.47,3.47,0,0,1-1.24,1.2,3.41,3.41,0,0,1-1.7.43,4.33,4.33,0,0,1-1.72-.32,3.1,3.1,0,0,1-1.21-.93,4.33,4.33,0,0,1-.71-1.48,7.54,7.54,0,0,1-.24-2v-1.15a7.46,7.46,0,0,1,.24-2,4.3,4.3,0,0,1,.71-1.49,3.2,3.2,0,0,1,1.21-.93,4.33,4.33,0,0,1,1.72-.32,3.58,3.58,0,0,1,1.8.44,3,3,0,0,1,1.19,1.27,4.74,4.74,0,0,1,.47,2h-1.57a3.68,3.68,0,0,0-.27-1.26,1.72,1.72,0,0,0-.65-.75,1.77,1.77,0,0,0-1-.25,2.23,2.23,0,0,0-1.09.23,1.7,1.7,0,0,0-.67.66,3.11,3.11,0,0,0-.35,1,9.07,9.07,0,0,0-.1,1.35v1.15a9.32,9.32,0,0,0,.1,1.36,3.35,3.35,0,0,0,.34,1,1.6,1.6,0,0,0,.68.66A2.23,2.23,0,0,0,435.74,153.05Z"/><path class="cls-2" d="M441.17,141.37a1.12,1.12,0,0,1,.23-.71.85.85,0,0,1,.71-.29.84.84,0,0,1,.71.29,1.07,1.07,0,0,1,.24.71,1,1,0,0,1-.24.7.87.87,0,0,1-.71.29.88.88,0,0,1-.71-.29A1.09,1.09,0,0,1,441.17,141.37Zm1.75,2.71v10.21h-1.66V144.08Z"/><path class="cls-2" d="M445.21,149.68v-1a6.3,6.3,0,0,1,.31-2.09,4.24,4.24,0,0,1,.84-1.51,3.47,3.47,0,0,1,1.25-.91,4,4,0,0,1,1.54-.31,4,4,0,0,1,1.56.31,3.69,3.69,0,0,1,1.26.91,4.24,4.24,0,0,1,.84,1.51,6.58,6.58,0,0,1,.3,2.09v1a6.63,6.63,0,0,1-.3,2.09,4.19,4.19,0,0,1-.84,1.5,3.56,3.56,0,0,1-1.25.91,4.15,4.15,0,0,1-3.1,0,3.51,3.51,0,0,1-1.26-.91,4.19,4.19,0,0,1-.84-1.5A6.34,6.34,0,0,1,445.21,149.68Zm1.67-1v1a5.82,5.82,0,0,0,.17,1.47,3.35,3.35,0,0,0,.49,1.06,2,2,0,0,0,.72.63,2,2,0,0,0,.91.21,2.19,2.19,0,0,0,1-.21,1.81,1.81,0,0,0,.72-.63,3.31,3.31,0,0,0,.42-1.06,7.05,7.05,0,0,0,.14-1.47v-1a5.4,5.4,0,0,0-.17-1.47,3.14,3.14,0,0,0-.48-1.06,2.1,2.1,0,0,0-.73-.64,2.06,2.06,0,0,0-1.81,0,2.07,2.07,0,0,0-.72.64,3.58,3.58,0,0,0-.48,1.06A5.82,5.82,0,0,0,446.88,148.71Zm1.22-6.14,1.83-2.77H452l-2.53,2.77Z"/><path class="cls-2" d="M456.93,146.26v8h-1.67V144.08h1.58Zm-.4,2.54-.68,0a6.7,6.7,0,0,1,.24-1.94,4.9,4.9,0,0,1,.71-1.55,3.49,3.49,0,0,1,1.12-1,3.08,3.08,0,0,1,2.58-.16,2.1,2.1,0,0,1,.87.64,3.33,3.33,0,0,1,.55,1.15,6.51,6.51,0,0,1,.19,1.71v6.69h-1.67v-6.71a4.15,4.15,0,0,0-.17-1.29,1.34,1.34,0,0,0-.53-.7,1.63,1.63,0,0,0-.89-.22,1.7,1.7,0,0,0-.92.27,2.52,2.52,0,0,0-.74.75,4.09,4.09,0,0,0-.49,1.1A4.66,4.66,0,0,0,456.53,148.8Z"/><path class="cls-2" d="M472.78,144.08v1.34H468v-1.34Zm-3.21-2.48h1.67v10.16a2,2,0,0,0,.13.79.68.68,0,0,0,.33.34,1,1,0,0,0,.42.09,1.76,1.76,0,0,0,.38,0l.28-.07v1.42a3.25,3.25,0,0,1-.45.13,3.59,3.59,0,0,1-.72.06,2,2,0,0,1-1-.26,1.85,1.85,0,0,1-.74-.85,3.82,3.82,0,0,1-.29-1.62Z"/><path class="cls-2" d="M476.44,145.69v8.6h-1.67V144.08h1.62ZM479,144v1.62l-.37-.06-.39,0a1.71,1.71,0,0,0-1.43.72,2.79,2.79,0,0,0-.4.81,4.49,4.49,0,0,0-.21,1l-.44.28a9.52,9.52,0,0,1,.15-1.73,5.41,5.41,0,0,1,.46-1.44,2.52,2.52,0,0,1,.79-1,1.94,1.94,0,0,1,1.17-.36,1.9,1.9,0,0,1,.37.05A.57.57,0,0,1,479,144Z"/><path class="cls-2" d="M485.55,148.1l0,1.23h-1.16a4,4,0,0,0-1.08.13,2.71,2.71,0,0,0-.84.38,1.74,1.74,0,0,0-.53.62,1.79,1.79,0,0,0-.19.84,2.43,2.43,0,0,0,.17,1,1.12,1.12,0,0,0,.51.52,2,2,0,0,0,.86.16,2.14,2.14,0,0,0,1.11-.29,2.33,2.33,0,0,0,.75-.71,1.25,1.25,0,0,0,.25-.77l.37.78a2.26,2.26,0,0,1-.24.8,3.23,3.23,0,0,1-.56.82,3.12,3.12,0,0,1-.84.64,2.33,2.33,0,0,1-1.09.25,3.38,3.38,0,0,1-1.56-.34,2.48,2.48,0,0,1-1-1,3.39,3.39,0,0,1-.37-1.63,3.54,3.54,0,0,1,.26-1.36,2.92,2.92,0,0,1,.75-1.08,3.51,3.51,0,0,1,1.26-.71,5.57,5.57,0,0,1,1.76-.26Zm-.27,4.45V147a2.21,2.21,0,0,0-.18-1,1.11,1.11,0,0,0-.55-.54,2,2,0,0,0-.91-.17,1.88,1.88,0,0,0-.91.21,1.58,1.58,0,0,0-.79,1.37h-1.67a2.64,2.64,0,0,1,.24-1.08,3.16,3.16,0,0,1,.7-1,3.46,3.46,0,0,1,1.09-.7,3.8,3.8,0,0,1,1.43-.26,4.4,4.4,0,0,1,1.67.31,2.4,2.4,0,0,1,1.14,1A3.57,3.57,0,0,1,487,147v5a8.48,8.48,0,0,0,.08,1.09,5.58,5.58,0,0,0,.23,1v.15h-1.72a3.22,3.22,0,0,1-.19-.81A8,8,0,0,1,485.28,152.55Z"/><path class="cls-2" d="M491.21,146.26v8h-1.67V144.08h1.57Zm-.41,2.54-.68,0a7.47,7.47,0,0,1,.24-1.94,5.15,5.15,0,0,1,.72-1.55,3.29,3.29,0,0,1,1.12-1,3.05,3.05,0,0,1,2.57-.16,2.1,2.1,0,0,1,.87.64,3.16,3.16,0,0,1,.55,1.15,6.47,6.47,0,0,1,.2,1.71v6.69h-1.67v-6.71a3.85,3.85,0,0,0-.18-1.29,1.25,1.25,0,0,0-.53-.7,1.61,1.61,0,0,0-.89-.22,1.67,1.67,0,0,0-.91.27,2.41,2.41,0,0,0-.74.75,3.8,3.8,0,0,0-.49,1.1A4.66,4.66,0,0,0,490.8,148.8Z"/><path class="cls-2" d="M503.85,151.68a1.18,1.18,0,0,0-.19-.68,1.83,1.83,0,0,0-.62-.57,7.58,7.58,0,0,0-1.15-.58c-.47-.2-.9-.39-1.27-.58a4.75,4.75,0,0,1-.95-.63,2.37,2.37,0,0,1-.59-.79,2.64,2.64,0,0,1-.2-1.06,2.73,2.73,0,0,1,.89-2.06,2.94,2.94,0,0,1,1-.61,3.75,3.75,0,0,1,1.33-.23,3.67,3.67,0,0,1,1.79.41,2.78,2.78,0,0,1,1.12,1.11,3.09,3.09,0,0,1,.4,1.58h-1.66a1.85,1.85,0,0,0-.19-.8,1.56,1.56,0,0,0-1.46-.86,1.72,1.72,0,0,0-.9.2,1.25,1.25,0,0,0-.51.51,1.58,1.58,0,0,0-.15.69,1.23,1.23,0,0,0,.08.49.89.89,0,0,0,.28.38,3.58,3.58,0,0,0,.54.36c.23.12.52.26.88.42a12.64,12.64,0,0,1,1.75.82,3.08,3.08,0,0,1,1.07,1,2.41,2.41,0,0,1,.37,1.38,3,3,0,0,1-.24,1.21,2.73,2.73,0,0,1-.68.93,3.25,3.25,0,0,1-1.07.59,4.55,4.55,0,0,1-1.38.2,3.8,3.8,0,0,1-1.95-.46,3,3,0,0,1-1.2-1.2,3.14,3.14,0,0,1-.41-1.59h1.67a1.91,1.91,0,0,0,.32,1.12,1.57,1.57,0,0,0,.72.54,2.6,2.6,0,0,0,.85.16,2.39,2.39,0,0,0,.94-.17,1.23,1.23,0,0,0,.57-.48A1.31,1.31,0,0,0,503.85,151.68Z"/><path class="cls-2" d="M509.38,146v12.18h-1.67V144.08h1.52Zm5.71,2.68v1a8.79,8.79,0,0,1-.23,2.11,4.13,4.13,0,0,1-.65,1.5,2.64,2.64,0,0,1-1.05.89,3.22,3.22,0,0,1-1.42.3,2.88,2.88,0,0,1-1.39-.31,2.66,2.66,0,0,1-1-.89,5.09,5.09,0,0,1-.63-1.41,9.77,9.77,0,0,1-.31-1.85v-1.46a10.51,10.51,0,0,1,.31-1.94,4.89,4.89,0,0,1,.63-1.48,2.75,2.75,0,0,1,1-.93,2.87,2.87,0,0,1,1.38-.32,3.47,3.47,0,0,1,1.45.29,2.66,2.66,0,0,1,1.05.87,4.15,4.15,0,0,1,.65,1.5A9.74,9.74,0,0,1,515.09,148.72Zm-1.67,1v-1a8,8,0,0,0-.13-1.48,3,3,0,0,0-.4-1,1.74,1.74,0,0,0-.69-.63,2.35,2.35,0,0,0-1-.2,1.9,1.9,0,0,0-.88.2,2.1,2.1,0,0,0-.66.56,3.52,3.52,0,0,0-.45.81,4.56,4.56,0,0,0-.27.93v2.85a5.72,5.72,0,0,0,.43,1.14,2.22,2.22,0,0,0,.71.86,1.88,1.88,0,0,0,1.14.33,2.19,2.19,0,0,0,1-.2,1.78,1.78,0,0,0,.68-.63,3.13,3.13,0,0,0,.4-1.06A8,8,0,0,0,513.42,149.68Z"/><path class="cls-2" d="M522.5,148.1l0,1.23h-1.16a4,4,0,0,0-1.08.13,2.94,2.94,0,0,0-.84.38,1.74,1.74,0,0,0-.53.62,1.92,1.92,0,0,0-.18.84,2.27,2.27,0,0,0,.17,1,1,1,0,0,0,.51.52,1.94,1.94,0,0,0,.86.16,2.14,2.14,0,0,0,1.11-.29,2.33,2.33,0,0,0,.75-.71,1.32,1.32,0,0,0,.25-.77l.37.78a2.76,2.76,0,0,1-.24.8,3.57,3.57,0,0,1-.57.82,3,3,0,0,1-.84.64,2.3,2.3,0,0,1-1.09.25,3.31,3.31,0,0,1-1.55-.34,2.42,2.42,0,0,1-1-1,3.27,3.27,0,0,1-.37-1.63,3.54,3.54,0,0,1,.25-1.36,2.83,2.83,0,0,1,.76-1.08,3.35,3.35,0,0,1,1.26-.71,5.48,5.48,0,0,1,1.76-.26Zm-.26,4.45V147a2.07,2.07,0,0,0-.19-1,1.09,1.09,0,0,0-.54-.54,2.08,2.08,0,0,0-.91-.17,1.89,1.89,0,0,0-.92.21,1.54,1.54,0,0,0-.78,1.37h-1.67a2.64,2.64,0,0,1,.24-1.08,3.12,3.12,0,0,1,.69-1,3.58,3.58,0,0,1,1.09-.7,3.83,3.83,0,0,1,1.43-.26,4.32,4.32,0,0,1,1.67.31,2.36,2.36,0,0,1,1.14,1,3.47,3.47,0,0,1,.42,1.83v5a7,7,0,0,0,.08,1.09,4.82,4.82,0,0,0,.23,1v.15h-1.73a3.73,3.73,0,0,1-.19-.81A7.88,7.88,0,0,1,522.24,152.55Z"/><path class="cls-2" d="M528.16,145.69v8.6h-1.67V144.08h1.61ZM530.7,144v1.62l-.37-.06-.39,0a1.77,1.77,0,0,0-.82.19,1.82,1.82,0,0,0-.61.53,3.08,3.08,0,0,0-.41.81,4.5,4.5,0,0,0-.2,1l-.44.28a9.52,9.52,0,0,1,.15-1.73,5.41,5.41,0,0,1,.46-1.44,2.52,2.52,0,0,1,.79-1,1.94,1.94,0,0,1,1.17-.36,2,2,0,0,1,.37.05A.57.57,0,0,1,530.7,144Z"/><path class="cls-2" d="M535.85,154.48a4.76,4.76,0,0,1-1.65-.27,3.4,3.4,0,0,1-1.26-.84,3.75,3.75,0,0,1-.79-1.42,6.79,6.79,0,0,1-.27-2v-1.15a7.18,7.18,0,0,1,.31-2.28,4.07,4.07,0,0,1,.86-1.51,3.32,3.32,0,0,1,1.22-.83,4.11,4.11,0,0,1,3,.06,2.62,2.62,0,0,1,1.11.92,4.24,4.24,0,0,1,.62,1.51,9.16,9.16,0,0,1,.21,2.07v1h-6.38v-1.43h4.71V148a6.13,6.13,0,0,0-.22-1.4,1.86,1.86,0,0,0-.57-1,1.65,1.65,0,0,0-1.12-.34,2.34,2.34,0,0,0-.85.15,1.58,1.58,0,0,0-.67.54,3,3,0,0,0-.44,1,8,8,0,0,0-.15,1.7v1.15a5.75,5.75,0,0,0,.15,1.41,2.51,2.51,0,0,0,.47,1,1.75,1.75,0,0,0,.75.57,2.73,2.73,0,0,0,1,.18,2.65,2.65,0,0,0,1.39-.32,3.46,3.46,0,0,0,.95-.84l.88,1.05a3.51,3.51,0,0,1-.71.74,3.46,3.46,0,0,1-1.08.58A4.83,4.83,0,0,1,535.85,154.48Z"/><path class="cls-2" d="M542.93,146.26v8h-1.67V144.08h1.57Zm-.41,2.54-.68,0a6.7,6.7,0,0,1,.24-1.94,5.15,5.15,0,0,1,.72-1.55,3.29,3.29,0,0,1,1.12-1,2.91,2.91,0,0,1,1.44-.37,3,3,0,0,1,1.13.21,2.1,2.1,0,0,1,.87.64,3.16,3.16,0,0,1,.55,1.15,6.51,6.51,0,0,1,.19,1.71v6.69h-1.67v-6.71a3.87,3.87,0,0,0-.17-1.29,1.29,1.29,0,0,0-.53-.7,1.61,1.61,0,0,0-.89-.22,1.64,1.64,0,0,0-.91.27,2.44,2.44,0,0,0-.75.75,4.09,4.09,0,0,0-.49,1.1A5.05,5.05,0,0,0,542.52,148.8Z"/><path class="cls-2" d="M554.34,144.08v1.34h-4.76v-1.34Zm-3.21-2.48h1.67v10.16a2,2,0,0,0,.13.79.65.65,0,0,0,.33.34,1,1,0,0,0,.42.09,1.82,1.82,0,0,0,.38,0l.28-.07v1.42a3.25,3.25,0,0,1-.45.13,3.59,3.59,0,0,1-.72.06,2,2,0,0,1-1-.26,1.74,1.74,0,0,1-.74-.85,3.82,3.82,0,0,1-.29-1.62Z"/><path class="cls-2" d="M560,154.48a4.76,4.76,0,0,1-1.65-.27,3.29,3.29,0,0,1-1.25-.84,3.76,3.76,0,0,1-.8-1.42,6.79,6.79,0,0,1-.27-2v-1.15a7.16,7.16,0,0,1,.32-2.28,4.06,4.06,0,0,1,.85-1.51,3.32,3.32,0,0,1,1.22-.83,3.93,3.93,0,0,1,1.39-.26,3.87,3.87,0,0,1,1.64.32,2.56,2.56,0,0,1,1.11.92,4.43,4.43,0,0,1,.63,1.51,9.82,9.82,0,0,1,.2,2.07v1H557v-1.43h4.71V148a6.78,6.78,0,0,0-.21-1.4,2,2,0,0,0-.57-1,1.68,1.68,0,0,0-1.13-.34,2.37,2.37,0,0,0-.85.15,1.64,1.64,0,0,0-.67.54,2.84,2.84,0,0,0-.43,1,7.37,7.37,0,0,0-.16,1.7v1.15a5.26,5.26,0,0,0,.16,1.41,2.37,2.37,0,0,0,.46,1,1.75,1.75,0,0,0,.75.57,2.74,2.74,0,0,0,1,.18,2.61,2.61,0,0,0,1.38-.32,3.5,3.5,0,0,0,1-.84l.87,1.05a3.64,3.64,0,0,1-1.78,1.32A4.94,4.94,0,0,1,560,154.48Z"/><path class="cls-2" d="M570.72,144.08l2,7.93.43,1.84-1.19.64-3.09-10.41Zm1.47,9.15,2.27-9.15h1.78l-3.37,11.79a6.29,6.29,0,0,1-.33.81,3.85,3.85,0,0,1-.51.84,2.56,2.56,0,0,1-.75.64,1.92,1.92,0,0,1-1,.25,3,3,0,0,1-.46,0l-.4-.1v-1.41l.18,0,.18,0a2.08,2.08,0,0,0,.83-.16,1.39,1.39,0,0,0,.59-.52,3.58,3.58,0,0,0,.42-1Z"/><path class="cls-2" d="M585.84,153.05a1.93,1.93,0,0,0,.91-.2,1.6,1.6,0,0,0,.68-.64,2.58,2.58,0,0,0,.3-1.15h1.57a3.61,3.61,0,0,1-.52,1.79,3.47,3.47,0,0,1-1.24,1.2,3.41,3.41,0,0,1-1.7.43,4.33,4.33,0,0,1-1.72-.32,3.1,3.1,0,0,1-1.21-.93,4.33,4.33,0,0,1-.71-1.48,7.56,7.56,0,0,1-.23-2v-1.15a7.48,7.48,0,0,1,.23-2,4.3,4.3,0,0,1,.71-1.49,3.2,3.2,0,0,1,1.21-.93,4.33,4.33,0,0,1,1.72-.32,3.58,3.58,0,0,1,1.8.44,3,3,0,0,1,1.19,1.27,4.74,4.74,0,0,1,.47,2h-1.57a3.68,3.68,0,0,0-.27-1.26,1.66,1.66,0,0,0-.65-.75,1.77,1.77,0,0,0-1-.25,2.23,2.23,0,0,0-1.09.23,1.7,1.7,0,0,0-.67.66,3.35,3.35,0,0,0-.35,1,9.16,9.16,0,0,0-.09,1.35v1.15a9.4,9.4,0,0,0,.09,1.36,3.35,3.35,0,0,0,.34,1,1.6,1.6,0,0,0,.68.66A2.23,2.23,0,0,0,585.84,153.05Z"/><path class="cls-2" d="M596.7,149.78l.66,0a10,10,0,0,1-.17,1.88,4.6,4.6,0,0,1-.57,1.5,2.79,2.79,0,0,1-1,1,3.3,3.3,0,0,1-1.58.35,2.79,2.79,0,0,1-1.14-.22,2.24,2.24,0,0,1-.89-.67,3.18,3.18,0,0,1-.58-1.18,6.71,6.71,0,0,1-.2-1.74v-6.59h1.66v6.61a4.44,4.44,0,0,0,.12,1.13,2.24,2.24,0,0,0,.33.71,1.21,1.21,0,0,0,.47.36,1.35,1.35,0,0,0,.52.11,2.14,2.14,0,0,0,1.41-.43,2.36,2.36,0,0,0,.76-1.16A5.53,5.53,0,0,0,596.7,149.78Zm-.31,2.15v-7.85h1.67v10.21h-1.58Z"/><path class="cls-2" d="M602.36,139.8v14.49H600.7V139.8Z"/><path class="cls-2" d="M608.73,144.08v1.34H604v-1.34Zm-3.21-2.48h1.67v10.16a2,2,0,0,0,.13.79.65.65,0,0,0,.33.34,1,1,0,0,0,.42.09,1.82,1.82,0,0,0,.38,0l.28-.07v1.42a3.25,3.25,0,0,1-.45.13,3.59,3.59,0,0,1-.72.06,2,2,0,0,1-1-.26,1.74,1.74,0,0,1-.74-.85,3.82,3.82,0,0,1-.29-1.62Z"/><path class="cls-2" d="M616.19,149.78l.66,0a9.19,9.19,0,0,1-.17,1.88,4.6,4.6,0,0,1-.57,1.5,2.79,2.79,0,0,1-1,1,3.3,3.3,0,0,1-1.58.35,2.79,2.79,0,0,1-1.14-.22,2.31,2.31,0,0,1-.89-.67,3,3,0,0,1-.57-1.18,6.28,6.28,0,0,1-.21-1.74v-6.59h1.66v6.61a4,4,0,0,0,.13,1.13,1.88,1.88,0,0,0,.33.71,1.12,1.12,0,0,0,.46.36,1.35,1.35,0,0,0,.52.11,2.14,2.14,0,0,0,1.41-.43,2.36,2.36,0,0,0,.76-1.16A5.22,5.22,0,0,0,616.19,149.78Zm-.31,2.15v-7.85h1.67v10.21H616Z"/><path class="cls-2" d="M621.73,145.69v8.6h-1.67V144.08h1.61Zm2.54-1.66v1.62l-.37-.06-.39,0a1.77,1.77,0,0,0-.82.19,1.82,1.82,0,0,0-.61.53,2.8,2.8,0,0,0-.41.81,4.5,4.5,0,0,0-.2,1l-.44.28a9.52,9.52,0,0,1,.15-1.73,5.41,5.41,0,0,1,.46-1.44,2.52,2.52,0,0,1,.79-1,1.94,1.94,0,0,1,1.17-.36,2,2,0,0,1,.37.05A.57.57,0,0,1,624.27,144Z"/><path class="cls-2" d="M630.84,148.1v1.23h-1.16a4.1,4.1,0,0,0-1.08.13,2.76,2.76,0,0,0-.83.38,1.74,1.74,0,0,0-.53.62,1.79,1.79,0,0,0-.19.84,2.43,2.43,0,0,0,.17,1,1,1,0,0,0,.51.52,2,2,0,0,0,.86.16,2.14,2.14,0,0,0,1.11-.29,2.33,2.33,0,0,0,.75-.71,1.25,1.25,0,0,0,.25-.77l.37.78a2.26,2.26,0,0,1-.24.8,3.52,3.52,0,0,1-.56.82,3,3,0,0,1-.85.64,2.28,2.28,0,0,1-1.09.25,3.34,3.34,0,0,1-1.55-.34,2.42,2.42,0,0,1-1-1,3.27,3.27,0,0,1-.37-1.63,3.54,3.54,0,0,1,.26-1.36,2.92,2.92,0,0,1,.75-1.08,3.35,3.35,0,0,1,1.26-.71,5.53,5.53,0,0,1,1.76-.26Zm-.27,4.45V147a2.21,2.21,0,0,0-.18-1,1.15,1.15,0,0,0-.55-.54,2.05,2.05,0,0,0-.91-.17,1.85,1.85,0,0,0-.91.21,1.57,1.57,0,0,0-.59.58,1.63,1.63,0,0,0-.2.79h-1.67a2.64,2.64,0,0,1,.24-1.08,3,3,0,0,1,.7-1,3.53,3.53,0,0,1,1.08-.7,3.87,3.87,0,0,1,1.43-.26,4.32,4.32,0,0,1,1.67.31,2.38,2.38,0,0,1,1.15,1,3.57,3.57,0,0,1,.41,1.83v5a8.48,8.48,0,0,0,.08,1.09,4.82,4.82,0,0,0,.23,1v.15h-1.72a2.84,2.84,0,0,1-.19-.81A6.29,6.29,0,0,1,630.57,152.55Z"/><path class="cls-2" d="M636.62,139.8v14.49H635V139.8Z"/><path class="cls-2" d="M640.93,146.11v8.18h-1.66V144.08h1.57Zm-.34,2.69-.77,0a8,8,0,0,1,.2-1.94,5.07,5.07,0,0,1,.66-1.55,3.06,3.06,0,0,1,1.1-1,3.24,3.24,0,0,1,1.56-.37,2.82,2.82,0,0,1,1.09.21,2.24,2.24,0,0,1,.88.63,3,3,0,0,1,.59,1.12,5.59,5.59,0,0,1,.21,1.64v6.8h-1.67v-6.72a3.25,3.25,0,0,0-.21-1.28,1.4,1.4,0,0,0-.6-.7,1.83,1.83,0,0,0-.93-.22,1.8,1.8,0,0,0-1,.27,1.91,1.91,0,0,0-.65.75,3.94,3.94,0,0,0-.34,1.1A7.83,7.83,0,0,0,640.59,148.8Zm5.5-1-1.11.36a5.8,5.8,0,0,1,.2-1.62,4.69,4.69,0,0,1,.65-1.37,3.07,3.07,0,0,1,1.07-1,3,3,0,0,1,1.49-.36,3.39,3.39,0,0,1,1.24.22,2.32,2.32,0,0,1,.91.67,3,3,0,0,1,.56,1.14,6.27,6.27,0,0,1,.19,1.66v6.71h-1.67v-6.73a3.39,3.39,0,0,0-.21-1.33,1.28,1.28,0,0,0-.6-.67,2.06,2.06,0,0,0-.93-.19,1.52,1.52,0,0,0-.77.19,1.83,1.83,0,0,0-.56.55,2.75,2.75,0,0,0-.34.78A3.64,3.64,0,0,0,646.09,147.84Z"/><path class="cls-2" d="M657.46,154.48a4.76,4.76,0,0,1-1.65-.27,3.4,3.4,0,0,1-1.26-.84,3.75,3.75,0,0,1-.79-1.42,6.79,6.79,0,0,1-.27-2v-1.15a7.18,7.18,0,0,1,.31-2.28,4.07,4.07,0,0,1,.86-1.51,3.36,3.36,0,0,1,1.21-.83,4,4,0,0,1,1.4-.26,3.87,3.87,0,0,1,1.64.32,2.68,2.68,0,0,1,1.11.92,4.24,4.24,0,0,1,.62,1.51,9.16,9.16,0,0,1,.21,2.07v1h-6.38v-1.43h4.71V148a6.13,6.13,0,0,0-.22-1.4,1.86,1.86,0,0,0-.57-1,1.65,1.65,0,0,0-1.12-.34,2.34,2.34,0,0,0-.85.15,1.58,1.58,0,0,0-.67.54,3,3,0,0,0-.44,1,8,8,0,0,0-.15,1.7v1.15a5.75,5.75,0,0,0,.15,1.41,2.65,2.65,0,0,0,.46,1,1.84,1.84,0,0,0,.76.57,2.73,2.73,0,0,0,1,.18,2.65,2.65,0,0,0,1.39-.32,3.46,3.46,0,0,0,.95-.84l.88,1.05a3.51,3.51,0,0,1-.71.74,3.46,3.46,0,0,1-1.08.58A4.83,4.83,0,0,1,657.46,154.48Z"/><path class="cls-2" d="M664.53,146.26v8h-1.67V144.08h1.58Zm-.4,2.54-.68,0a6.7,6.7,0,0,1,.24-1.94,5.15,5.15,0,0,1,.72-1.55,3.36,3.36,0,0,1,1.11-1,3.08,3.08,0,0,1,2.58-.16,2.1,2.1,0,0,1,.87.64,3.16,3.16,0,0,1,.55,1.15,6.51,6.51,0,0,1,.19,1.71v6.69H668v-6.71a3.87,3.87,0,0,0-.17-1.29,1.29,1.29,0,0,0-.53-.7,1.63,1.63,0,0,0-.89-.22,1.7,1.7,0,0,0-.92.27,2.52,2.52,0,0,0-.74.75,4.09,4.09,0,0,0-.49,1.1A5.05,5.05,0,0,0,664.13,148.8Z"/><path class="cls-2" d="M676,144.08v1.34h-4.76v-1.34Zm-3.21-2.48h1.67v10.16a2,2,0,0,0,.13.79.65.65,0,0,0,.33.34,1,1,0,0,0,.42.09,1.82,1.82,0,0,0,.38,0l.28-.07v1.42a3.25,3.25,0,0,1-.45.13,3.59,3.59,0,0,1-.72.06,2,2,0,0,1-1-.26,1.74,1.74,0,0,1-.74-.85,3.82,3.82,0,0,1-.29-1.62Z"/><path class="cls-2" d="M681.59,154.48a4.76,4.76,0,0,1-1.65-.27,3.29,3.29,0,0,1-1.25-.84,3.76,3.76,0,0,1-.8-1.42,6.79,6.79,0,0,1-.27-2v-1.15a7.16,7.16,0,0,1,.32-2.28,4.06,4.06,0,0,1,.85-1.51,3.32,3.32,0,0,1,1.22-.83,3.93,3.93,0,0,1,1.39-.26,3.87,3.87,0,0,1,1.64.32,2.56,2.56,0,0,1,1.11.92,4.43,4.43,0,0,1,.63,1.51,9.82,9.82,0,0,1,.2,2.07v1H678.6v-1.43h4.71V148a6.78,6.78,0,0,0-.21-1.4,2,2,0,0,0-.57-1,1.68,1.68,0,0,0-1.13-.34,2.37,2.37,0,0,0-.85.15,1.58,1.58,0,0,0-.67.54,2.84,2.84,0,0,0-.43,1,7.37,7.37,0,0,0-.16,1.7v1.15a5.26,5.26,0,0,0,.16,1.41,2.37,2.37,0,0,0,.46,1,1.75,1.75,0,0,0,.75.57,2.74,2.74,0,0,0,1,.18,2.61,2.61,0,0,0,1.38-.32,3.5,3.5,0,0,0,1-.84l.87,1.05a3.64,3.64,0,0,1-1.78,1.32A4.94,4.94,0,0,1,681.59,154.48Z"/><path class="cls-2" d="M256.6,164.56v12.17h-1.67V162.6h1.52Zm5.71,2.68v.95a8.77,8.77,0,0,1-.22,2.11,4.5,4.5,0,0,1-.65,1.5,2.81,2.81,0,0,1-1.05.9,3.3,3.3,0,0,1-1.43.3,3,3,0,0,1-1.39-.31,2.8,2.8,0,0,1-1-.89,4.57,4.57,0,0,1-.63-1.41,9.71,9.71,0,0,1-.32-1.86v-1.45a11.72,11.72,0,0,1,.31-2,4.94,4.94,0,0,1,.63-1.47,2.74,2.74,0,0,1,1-.93,2.87,2.87,0,0,1,1.38-.32,3.47,3.47,0,0,1,1.45.28,2.63,2.63,0,0,1,1.06.88,4.14,4.14,0,0,1,.64,1.5A9.12,9.12,0,0,1,262.31,167.24Zm-1.67.95v-.95a7.14,7.14,0,0,0-.13-1.48,3,3,0,0,0-.4-1,1.78,1.78,0,0,0-.69-.62,2.17,2.17,0,0,0-1-.21,1.82,1.82,0,0,0-.88.21,2.18,2.18,0,0,0-.65.56,3.15,3.15,0,0,0-.46.8,4.28,4.28,0,0,0-.26.93v2.86a6.2,6.2,0,0,0,.42,1.14,2.42,2.42,0,0,0,.72.86,1.83,1.83,0,0,0,1.13.33,2.13,2.13,0,0,0,1-.21,1.64,1.64,0,0,0,.69-.62,3,3,0,0,0,.39-1.06A7.24,7.24,0,0,0,260.64,168.19Z"/><path class="cls-2" d="M268.11,173a4.76,4.76,0,0,1-1.65-.28,3.16,3.16,0,0,1-1.25-.83,3.84,3.84,0,0,1-.8-1.42,6.79,6.79,0,0,1-.27-2v-1.15a7,7,0,0,1,.32-2.29,4,4,0,0,1,.85-1.5,3.2,3.2,0,0,1,1.22-.83,4.17,4.17,0,0,1,3,.05,2.65,2.65,0,0,1,1.11.93,4.43,4.43,0,0,1,.63,1.51,9.65,9.65,0,0,1,.2,2.06v1h-6.38v-1.42h4.71v-.24a6.79,6.79,0,0,0-.21-1.39,2,2,0,0,0-.57-.95,1.68,1.68,0,0,0-1.13-.35,2.34,2.34,0,0,0-.85.16,1.44,1.44,0,0,0-.67.54,2.7,2.7,0,0,0-.43,1.05,7.31,7.31,0,0,0-.16,1.7v1.15a5.26,5.26,0,0,0,.16,1.41,2.43,2.43,0,0,0,.46,1,1.83,1.83,0,0,0,.75.57,2.74,2.74,0,0,0,1,.18,2.71,2.71,0,0,0,1.38-.32,3.65,3.65,0,0,0,1-.84l.87,1.05a3.77,3.77,0,0,1-.71.74,3.51,3.51,0,0,1-1.07.57A4.65,4.65,0,0,1,268.11,173Z"/><path class="cls-2" d="M275.19,164.2v8.61h-1.67V162.6h1.61Zm2.54-1.66v1.63a1.84,1.84,0,0,0-.37-.07H277a1.7,1.7,0,0,0-.83.19,1.77,1.77,0,0,0-.6.53,2.62,2.62,0,0,0-.41.8,5.21,5.21,0,0,0-.21,1l-.43.28a10.67,10.67,0,0,1,.14-1.74,5.22,5.22,0,0,1,.46-1.43,2.65,2.65,0,0,1,.8-1,2,2,0,0,1,1.54-.31A1.11,1.11,0,0,1,277.73,162.54Z"/><path class="cls-2" d="M283.6,162.6v1.34h-4.76V162.6Zm-3.21-2.48h1.67v10.16a1.93,1.93,0,0,0,.13.78.71.71,0,0,0,.33.35,1,1,0,0,0,.42.09,1.81,1.81,0,0,0,.38-.05,1.21,1.21,0,0,0,.28-.07v1.43a3.46,3.46,0,0,1-.45.12,2.92,2.92,0,0,1-.72.07,2,2,0,0,1-1-.26,1.79,1.79,0,0,1-.74-.85,3.82,3.82,0,0,1-.29-1.62Z"/><path class="cls-2" d="M285.63,159.89a1.12,1.12,0,0,1,.24-.72.85.85,0,0,1,.7-.29.89.89,0,0,1,.72.29,1.12,1.12,0,0,1,.24.72,1,1,0,0,1-.24.69.86.86,0,0,1-.72.29.82.82,0,0,1-.7-.29A1,1,0,0,1,285.63,159.89Zm1.75,2.71v10.21h-1.66V162.6Z"/><path class="cls-2" d="M291.7,164.78v8H290V162.6h1.57Zm-.41,2.54-.68,0a6.66,6.66,0,0,1,.24-1.94,5,5,0,0,1,.72-1.55,3.43,3.43,0,0,1,1.12-1,2.9,2.9,0,0,1,1.44-.36,3.11,3.11,0,0,1,1.13.2,2.13,2.13,0,0,1,.87.65,3.16,3.16,0,0,1,.55,1.15,6.37,6.37,0,0,1,.2,1.71v6.69h-1.67V166.1a3.85,3.85,0,0,0-.18-1.29,1.31,1.31,0,0,0-.53-.71,1.7,1.7,0,0,0-.89-.22,1.58,1.58,0,0,0-.91.28,2.41,2.41,0,0,0-.74.75,3.8,3.8,0,0,0-.49,1.1A4.66,4.66,0,0,0,291.29,167.32Z"/><path class="cls-2" d="M303,173a4.76,4.76,0,0,1-1.65-.28,3.26,3.26,0,0,1-1.26-.83,3.83,3.83,0,0,1-.79-1.42,6.77,6.77,0,0,1-.28-2v-1.15a7.27,7.27,0,0,1,.32-2.29,4.16,4.16,0,0,1,.85-1.5,3.28,3.28,0,0,1,1.22-.83,4,4,0,0,1,1.4-.26,3.87,3.87,0,0,1,1.64.31,2.68,2.68,0,0,1,1.1.93,4.07,4.07,0,0,1,.63,1.51,9,9,0,0,1,.2,2.06v1h-6.37v-1.42h4.7v-.24a5.64,5.64,0,0,0-.21-1.39,1.82,1.82,0,0,0-.57-.95,1.65,1.65,0,0,0-1.12-.35,2.43,2.43,0,0,0-.86.16,1.49,1.49,0,0,0-.67.54,2.86,2.86,0,0,0-.43,1.05,7.91,7.91,0,0,0-.16,1.7v1.15a5.7,5.7,0,0,0,.16,1.41,2.57,2.57,0,0,0,.46,1,1.93,1.93,0,0,0,.76.57,2.73,2.73,0,0,0,1,.18,2.77,2.77,0,0,0,1.39-.32,3.61,3.61,0,0,0,1-.84l.88,1.05a3.77,3.77,0,0,1-.71.74,3.56,3.56,0,0,1-1.08.57A4.54,4.54,0,0,1,303,173Z"/><path class="cls-2" d="M310.11,164.78v8h-1.67V162.6H310Zm-.4,2.54-.68,0a6.66,6.66,0,0,1,.24-1.94,4.8,4.8,0,0,1,.71-1.55,3.64,3.64,0,0,1,1.12-1,3,3,0,0,1,1.45-.36,3.15,3.15,0,0,1,1.13.2,2.13,2.13,0,0,1,.87.65,3.16,3.16,0,0,1,.55,1.15,6.41,6.41,0,0,1,.19,1.71v6.69h-1.67V166.1a4.15,4.15,0,0,0-.17-1.29,1.41,1.41,0,0,0-.53-.71,1.72,1.72,0,0,0-.89-.22,1.63,1.63,0,0,0-.92.28,2.52,2.52,0,0,0-.74.75,4.09,4.09,0,0,0-.49,1.1A5.05,5.05,0,0,0,309.71,167.32Z"/><path class="cls-2" d="M321.53,162.6v1.34h-4.77V162.6Zm-3.21-2.48H320v10.16a1.77,1.77,0,0,0,.13.78.65.65,0,0,0,.32.35,1.07,1.07,0,0,0,.43.09,1.89,1.89,0,0,0,.38-.05,1.38,1.38,0,0,0,.28-.07v1.43a3.46,3.46,0,0,1-.45.12,2.92,2.92,0,0,1-.72.07,2,2,0,0,1-1-.26,1.81,1.81,0,0,1-.75-.85,4,4,0,0,1-.28-1.62Z"/><path class="cls-2" d="M327.17,173a4.76,4.76,0,0,1-1.65-.28,3.26,3.26,0,0,1-1.26-.83,3.83,3.83,0,0,1-.79-1.42,6.79,6.79,0,0,1-.27-2v-1.15a7.29,7.29,0,0,1,.31-2.29,4.17,4.17,0,0,1,.86-1.5,3.2,3.2,0,0,1,1.22-.83,4.17,4.17,0,0,1,3,.05,2.71,2.71,0,0,1,1.11.93,4.24,4.24,0,0,1,.62,1.51,9,9,0,0,1,.21,2.06v1h-6.38v-1.42h4.71v-.24a6.79,6.79,0,0,0-.21-1.39,1.9,1.9,0,0,0-.58-.95,1.63,1.63,0,0,0-1.12-.35,2.34,2.34,0,0,0-.85.16,1.44,1.44,0,0,0-.67.54,2.86,2.86,0,0,0-.44,1.05,8,8,0,0,0-.15,1.7v1.15a5.75,5.75,0,0,0,.15,1.41,2.58,2.58,0,0,0,.47,1,1.83,1.83,0,0,0,.75.57,3.09,3.09,0,0,0,2.41-.14,3.46,3.46,0,0,0,1-.84l.88,1.05a3.77,3.77,0,0,1-.71.74,3.45,3.45,0,0,1-1.08.57A4.54,4.54,0,0,1,327.17,173Z"/><path class="cls-2" d="M336.65,168.19v-.95a8.09,8.09,0,0,1,.25-2.17,4,4,0,0,1,.7-1.5,2.75,2.75,0,0,1,1.08-.88,3.37,3.37,0,0,1,1.4-.28,2.79,2.79,0,0,1,1.36.32,2.66,2.66,0,0,1,1,.93,5.51,5.51,0,0,1,.61,1.47,11.81,11.81,0,0,1,.29,2v1.27a11.47,11.47,0,0,1-.3,1.94,5,5,0,0,1-.61,1.46,2.57,2.57,0,0,1-2.33,1.25,3.14,3.14,0,0,1-1.38-.3,3,3,0,0,1-1.08-.9,4.17,4.17,0,0,1-.7-1.5A7.78,7.78,0,0,1,336.65,168.19Zm1.67-.95v.95a8,8,0,0,0,.12,1.48,3.09,3.09,0,0,0,.39,1,1.73,1.73,0,0,0,.68.61,2.26,2.26,0,0,0,1,.19,1.84,1.84,0,0,0,1.14-.33,2.43,2.43,0,0,0,.72-.91,6.15,6.15,0,0,0,.42-1.21v-2.68a5,5,0,0,0-.27-.93,3.45,3.45,0,0,0-.45-.8,2.06,2.06,0,0,0-.65-.56,1.8,1.8,0,0,0-.89-.21,2.16,2.16,0,0,0-1,.21,1.63,1.63,0,0,0-.68.62,3,3,0,0,0-.39,1A7.14,7.14,0,0,0,338.32,167.24Zm4,3.59V158.32H344v14.49H342.5Z"/><path class="cls-2" d="M350.25,173a4.76,4.76,0,0,1-1.65-.28,3.19,3.19,0,0,1-1.26-.83,3.69,3.69,0,0,1-.79-1.42,6.77,6.77,0,0,1-.28-2v-1.15a7.27,7.27,0,0,1,.32-2.29,4.16,4.16,0,0,1,.85-1.5,3.28,3.28,0,0,1,1.22-.83,4,4,0,0,1,1.4-.26,3.87,3.87,0,0,1,1.64.31,2.68,2.68,0,0,1,1.1.93,4.07,4.07,0,0,1,.63,1.51,9,9,0,0,1,.2,2.06v1h-6.37v-1.42H352v-.24a5.64,5.64,0,0,0-.21-1.39,2,2,0,0,0-.57-.95,1.65,1.65,0,0,0-1.12-.35,2.39,2.39,0,0,0-.86.16,1.49,1.49,0,0,0-.67.54,2.86,2.86,0,0,0-.43,1.05,7.91,7.91,0,0,0-.16,1.7v1.15a5.7,5.7,0,0,0,.16,1.41,2.57,2.57,0,0,0,.46,1,1.93,1.93,0,0,0,.76.57,2.73,2.73,0,0,0,1,.18,2.77,2.77,0,0,0,1.39-.32,3.61,3.61,0,0,0,.95-.84l.88,1.05a3.77,3.77,0,0,1-.71.74,3.69,3.69,0,0,1-1.08.57A4.54,4.54,0,0,1,350.25,173Z"/><path class="cls-2" d="M361.88,158.32v14.49h-1.66V158.32Z"/><path class="cls-2" d="M364.17,168.19v-1a6.63,6.63,0,0,1,.3-2.09,4.34,4.34,0,0,1,.84-1.5,3.51,3.51,0,0,1,1.26-.91,4,4,0,0,1,3.09,0,3.51,3.51,0,0,1,1.26.91,4.36,4.36,0,0,1,.85,1.5,6.63,6.63,0,0,1,.3,2.09v1a6.58,6.58,0,0,1-.3,2.09,4.39,4.39,0,0,1-.84,1.51,3.48,3.48,0,0,1-1.26.9,4,4,0,0,1-3.09,0,3.48,3.48,0,0,1-1.26-.9,4.41,4.41,0,0,1-.85-1.51A6.58,6.58,0,0,1,364.17,168.19Zm1.67-1v1a6,6,0,0,0,.17,1.48,3,3,0,0,0,.48,1.05,2,2,0,0,0,1.63.85,2.26,2.26,0,0,0,1-.21,1.74,1.74,0,0,0,.71-.64,3.16,3.16,0,0,0,.43-1.05,7.23,7.23,0,0,0,.14-1.48v-1a5.82,5.82,0,0,0-.17-1.47,3.08,3.08,0,0,0-.48-1.05,2,2,0,0,0-.73-.64,2,2,0,0,0-.91-.22,2,2,0,0,0-.9.22,1.9,1.9,0,0,0-.72.64,3.08,3.08,0,0,0-.48,1.05A5.82,5.82,0,0,0,365.84,167.22Z"/><path class="cls-2" d="M379.17,170.19a1.22,1.22,0,0,0-.19-.68,2,2,0,0,0-.61-.56,9.41,9.41,0,0,0-1.16-.59,12.81,12.81,0,0,1-1.27-.58,5,5,0,0,1-.95-.62,2.37,2.37,0,0,1-.59-.79,2.64,2.64,0,0,1-.2-1.06,2.87,2.87,0,0,1,.23-1.14,2.73,2.73,0,0,1,.66-.92,3.06,3.06,0,0,1,1-.62,3.71,3.71,0,0,1,1.33-.22,3.66,3.66,0,0,1,1.78.41,2.85,2.85,0,0,1,1.13,1.1,3.22,3.22,0,0,1,.39,1.58h-1.66a1.71,1.71,0,0,0-.19-.8,1.56,1.56,0,0,0-.56-.61,1.51,1.51,0,0,0-.89-.25,1.83,1.83,0,0,0-.91.2,1.19,1.19,0,0,0-.5.52,1.46,1.46,0,0,0-.16.69,1.44,1.44,0,0,0,.08.49,1,1,0,0,0,.28.37,2.52,2.52,0,0,0,.54.36c.23.12.52.26.88.42a12.69,12.69,0,0,1,1.75.82,3.18,3.18,0,0,1,1.07,1,2.43,2.43,0,0,1,.37,1.38,2.94,2.94,0,0,1-.24,1.21,2.55,2.55,0,0,1-.68.93,3,3,0,0,1-1.06.59,4.36,4.36,0,0,1-1.39.21,3.89,3.89,0,0,1-1.94-.46,3.1,3.1,0,0,1-1.21-1.2,3.14,3.14,0,0,1-.41-1.59h1.67a1.93,1.93,0,0,0,.32,1.11,1.52,1.52,0,0,0,.72.55,2.58,2.58,0,0,0,.85.15,2.33,2.33,0,0,0,.94-.16,1.23,1.23,0,0,0,.57-.48A1.35,1.35,0,0,0,379.17,170.19Z"/><path class="cls-2" d="M389.14,164.56v12.17h-1.67V162.6H389Zm5.7,2.68v.95a8.77,8.77,0,0,1-.22,2.11,4.31,4.31,0,0,1-.65,1.5,2.81,2.81,0,0,1-1.05.9,3.27,3.27,0,0,1-1.43.3,3.06,3.06,0,0,1-1.39-.31,2.8,2.8,0,0,1-1-.89,4.57,4.57,0,0,1-.63-1.41,10.56,10.56,0,0,1-.32-1.86v-1.45a10.73,10.73,0,0,1,.32-2,4.93,4.93,0,0,1,.62-1.47,2.74,2.74,0,0,1,1-.93,2.94,2.94,0,0,1,1.39-.32,3.46,3.46,0,0,1,1.44.28,2.63,2.63,0,0,1,1.06.88,4.15,4.15,0,0,1,.65,1.5A9.72,9.72,0,0,1,394.84,167.24Zm-1.67.95v-.95a8,8,0,0,0-.12-1.48,3,3,0,0,0-.41-1,1.83,1.83,0,0,0-.68-.62,2.2,2.2,0,0,0-1-.21,1.83,1.83,0,0,0-.89.21,2.18,2.18,0,0,0-.65.56,3.12,3.12,0,0,0-.45.8,5,5,0,0,0-.27.93v2.86a6.23,6.23,0,0,0,.43,1.14,2.3,2.3,0,0,0,.71.86,1.88,1.88,0,0,0,1.14.33,2.19,2.19,0,0,0,1-.21,1.68,1.68,0,0,0,.68-.62,3.21,3.21,0,0,0,.4-1.06A8.09,8.09,0,0,0,393.17,168.19Z"/><path class="cls-2" d="M398.66,164.2v8.61H397V162.6h1.62Zm2.54-1.66v1.63a2,2,0,0,0-.37-.07h-.38a1.71,1.71,0,0,0-1.44.72,2.61,2.61,0,0,0-.4.8,5.21,5.21,0,0,0-.21,1l-.43.28a9.66,9.66,0,0,1,.14-1.74,5.22,5.22,0,0,1,.46-1.43,2.65,2.65,0,0,1,.8-1,1.94,1.94,0,0,1,1.16-.35,1.8,1.8,0,0,1,.37,0A.89.89,0,0,1,401.2,162.54Z"/><path class="cls-2" d="M402.34,168.19v-1a6.63,6.63,0,0,1,.3-2.09,4.51,4.51,0,0,1,.84-1.5,3.51,3.51,0,0,1,1.26-.91,4,4,0,0,1,3.09,0,3.51,3.51,0,0,1,1.26.91,4.2,4.2,0,0,1,.85,1.5,6.63,6.63,0,0,1,.3,2.09v1a6.58,6.58,0,0,1-.3,2.09,4.24,4.24,0,0,1-.84,1.51,3.48,3.48,0,0,1-1.26.9,4,4,0,0,1-3.09,0,3.48,3.48,0,0,1-1.26-.9,4.41,4.41,0,0,1-.85-1.51A6.58,6.58,0,0,1,402.34,168.19Zm1.67-1v1a6,6,0,0,0,.17,1.48,3.4,3.4,0,0,0,.48,1.05,2,2,0,0,0,1.64.85,2.25,2.25,0,0,0,1-.21,1.74,1.74,0,0,0,.71-.64,3.16,3.16,0,0,0,.43-1.05,7.23,7.23,0,0,0,.14-1.48v-1a5.82,5.82,0,0,0-.17-1.47,3.08,3.08,0,0,0-.48-1.05,2,2,0,0,0-.73-.64,2,2,0,0,0-.91-.22,2,2,0,0,0-.9.22,1.9,1.9,0,0,0-.72.64,3.29,3.29,0,0,0-.48,1.05A5.82,5.82,0,0,0,404,167.22Z"/><path class="cls-2" d="M415.93,171.57a2.13,2.13,0,0,0,.91-.2,1.64,1.64,0,0,0,.67-.64,2.4,2.4,0,0,0,.3-1.15h1.57a3.6,3.6,0,0,1-.51,1.79,3.41,3.41,0,0,1-2.94,1.63,4.29,4.29,0,0,1-1.72-.32,3.2,3.2,0,0,1-1.21-.93,4,4,0,0,1-.71-1.49,7.46,7.46,0,0,1-.24-2v-1.15a7.54,7.54,0,0,1,.24-2,4,4,0,0,1,.71-1.48,3,3,0,0,1,1.21-.93,4.29,4.29,0,0,1,1.72-.32,3.58,3.58,0,0,1,1.8.44,3,3,0,0,1,1.18,1.26,4.5,4.5,0,0,1,.47,2h-1.57a3.26,3.26,0,0,0-.27-1.26,1.73,1.73,0,0,0-.64-.76,1.86,1.86,0,0,0-1-.25,2.2,2.2,0,0,0-1.09.24,1.66,1.66,0,0,0-.68.66,3.35,3.35,0,0,0-.34,1,7.91,7.91,0,0,0-.1,1.35v1.15a7.91,7.91,0,0,0,.1,1.35,3.32,3.32,0,0,0,.34,1.05,1.64,1.64,0,0,0,.67.66A2.39,2.39,0,0,0,415.93,171.57Z"/><path class="cls-2" d="M425,173a4.86,4.86,0,0,1-1.66-.28,3.23,3.23,0,0,1-1.25-.83,3.69,3.69,0,0,1-.79-1.42,6.77,6.77,0,0,1-.28-2v-1.15a7.27,7.27,0,0,1,.32-2.29,4.16,4.16,0,0,1,.85-1.5,3.28,3.28,0,0,1,1.22-.83,4,4,0,0,1,1.4-.26,3.87,3.87,0,0,1,1.64.31,2.68,2.68,0,0,1,1.1.93,4.07,4.07,0,0,1,.63,1.51,9,9,0,0,1,.2,2.06v1H422v-1.42h4.7v-.24a5.64,5.64,0,0,0-.21-1.39,2,2,0,0,0-.57-.95,1.65,1.65,0,0,0-1.12-.35,2.39,2.39,0,0,0-.86.16,1.49,1.49,0,0,0-.67.54,2.86,2.86,0,0,0-.43,1.05,7.91,7.91,0,0,0-.16,1.7v1.15a5.7,5.7,0,0,0,.16,1.41,2.57,2.57,0,0,0,.46,1,1.93,1.93,0,0,0,.76.57,2.73,2.73,0,0,0,1,.18,2.77,2.77,0,0,0,1.39-.32,3.61,3.61,0,0,0,.95-.84l.88,1.05a3.56,3.56,0,0,1-.72.74,3.51,3.51,0,0,1-1.07.57A4.59,4.59,0,0,1,425,173Z"/><path class="cls-2" d="M435.32,170.19a1.3,1.3,0,0,0-.18-.68,2.16,2.16,0,0,0-.62-.56,8.74,8.74,0,0,0-1.16-.59c-.47-.19-.89-.38-1.27-.58a5,5,0,0,1-.95-.62,2.34,2.34,0,0,1-.58-.79,2.47,2.47,0,0,1-.21-1.06,2.73,2.73,0,0,1,.89-2.06,3.06,3.06,0,0,1,1-.62,3.71,3.71,0,0,1,1.33-.22,3.63,3.63,0,0,1,1.78.41,2.85,2.85,0,0,1,1.13,1.1,3.22,3.22,0,0,1,.39,1.58h-1.66a1.71,1.71,0,0,0-.19-.8,1.49,1.49,0,0,0-.56-.61,1.51,1.51,0,0,0-.89-.25,1.89,1.89,0,0,0-.91.2,1.19,1.19,0,0,0-.5.52,1.46,1.46,0,0,0-.16.69,1.44,1.44,0,0,0,.08.49,1.07,1.07,0,0,0,.28.37,2.52,2.52,0,0,0,.54.36c.23.12.53.26.89.42a13.09,13.09,0,0,1,1.74.82,3.31,3.31,0,0,1,1.08,1,2.51,2.51,0,0,1,.36,1.38,2.94,2.94,0,0,1-.24,1.21,2.44,2.44,0,0,1-.68.93,3,3,0,0,1-1.06.59,4.25,4.25,0,0,1-1.38.21,3.91,3.91,0,0,1-1.95-.46,3.17,3.17,0,0,1-1.21-1.2,3.25,3.25,0,0,1-.41-1.59h1.67a1.93,1.93,0,0,0,.33,1.11,1.43,1.43,0,0,0,.72.55,2.5,2.5,0,0,0,.85.15,2.32,2.32,0,0,0,.93-.16,1.23,1.23,0,0,0,.57-.48A1.35,1.35,0,0,0,435.32,170.19Z"/><path class="cls-2" d="M438.83,168.19v-1a6.34,6.34,0,0,1,.31-2.09,4.19,4.19,0,0,1,.84-1.5,3.39,3.39,0,0,1,1.25-.91,4,4,0,0,1,3.09,0,3.51,3.51,0,0,1,1.26.91,4.06,4.06,0,0,1,.85,1.5,6.63,6.63,0,0,1,.3,2.09v1a6.58,6.58,0,0,1-.3,2.09,4.24,4.24,0,0,1-.84,1.51,3.48,3.48,0,0,1-1.26.9,3.75,3.75,0,0,1-1.54.31,3.8,3.8,0,0,1-1.55-.31,3.48,3.48,0,0,1-1.26-.9,4.24,4.24,0,0,1-.84-1.51A6.3,6.3,0,0,1,438.83,168.19Zm1.67-1v1a6,6,0,0,0,.17,1.48,3.4,3.4,0,0,0,.48,1.05,2,2,0,0,0,1.64.85,2.22,2.22,0,0,0,1-.21,1.68,1.68,0,0,0,.71-.64,3.16,3.16,0,0,0,.43-1.05,7.23,7.23,0,0,0,.14-1.48v-1a5.82,5.82,0,0,0-.17-1.47,3.08,3.08,0,0,0-.48-1.05,2,2,0,0,0-2.54-.64,2,2,0,0,0-.72.64,3.52,3.52,0,0,0-.48,1.05A5.82,5.82,0,0,0,440.5,167.22Z"/><path class="cls-2" d="M453.83,170.19a1.3,1.3,0,0,0-.18-.68A2.16,2.16,0,0,0,453,169a8.74,8.74,0,0,0-1.16-.59c-.47-.19-.89-.38-1.27-.58a5,5,0,0,1-1-.62,2.52,2.52,0,0,1-.59-.79,2.64,2.64,0,0,1-.2-1.06,2.73,2.73,0,0,1,.89-2.06,3.06,3.06,0,0,1,1-.62,3.71,3.71,0,0,1,1.33-.22,3.63,3.63,0,0,1,1.78.41,2.85,2.85,0,0,1,1.13,1.1,3.22,3.22,0,0,1,.39,1.58h-1.66a1.71,1.71,0,0,0-.19-.8,1.49,1.49,0,0,0-.56-.61,1.51,1.51,0,0,0-.89-.25,1.89,1.89,0,0,0-.91.2,1.19,1.19,0,0,0-.5.52,1.46,1.46,0,0,0-.16.69,1.44,1.44,0,0,0,.08.49,1.07,1.07,0,0,0,.28.37,2.52,2.52,0,0,0,.54.36c.23.12.53.26.88.42a12.69,12.69,0,0,1,1.75.82,3.31,3.31,0,0,1,1.08,1,2.51,2.51,0,0,1,.36,1.38,2.94,2.94,0,0,1-.24,1.21,2.44,2.44,0,0,1-.68.93,3,3,0,0,1-1.06.59,4.25,4.25,0,0,1-1.38.21,3.91,3.91,0,0,1-1.95-.46,3.17,3.17,0,0,1-1.21-1.2,3.25,3.25,0,0,1-.41-1.59h1.67a2,2,0,0,0,.32,1.11,1.5,1.5,0,0,0,.73.55,2.5,2.5,0,0,0,.85.15,2.32,2.32,0,0,0,.93-.16,1.23,1.23,0,0,0,.57-.48A1.35,1.35,0,0,0,453.83,170.19Z"/><path class="cls-2" d="M461.77,168.19v-.95a8.55,8.55,0,0,1,.24-2.17,4.35,4.35,0,0,1,.7-1.5,2.78,2.78,0,0,1,1.09-.88,3.32,3.32,0,0,1,1.39-.28,2.8,2.8,0,0,1,1.37.32,2.56,2.56,0,0,1,.95.93,4.93,4.93,0,0,1,.61,1.47,10.8,10.8,0,0,1,.3,2v1.27a11.42,11.42,0,0,1-.31,1.94,5,5,0,0,1-.6,1.46,2.6,2.6,0,0,1-2.34,1.25,3.09,3.09,0,0,1-1.37-.3,2.9,2.9,0,0,1-1.08-.9,4.36,4.36,0,0,1-.71-1.5A8.22,8.22,0,0,1,461.77,168.19Zm1.67-.95v.95a8,8,0,0,0,.12,1.48,2.89,2.89,0,0,0,.39,1,1.7,1.7,0,0,0,.67.61,2.33,2.33,0,0,0,1,.19,1.88,1.88,0,0,0,1.14-.33,2.41,2.41,0,0,0,.71-.91,6.16,6.16,0,0,0,.43-1.21v-2.68a5,5,0,0,0-.27-.93,3.45,3.45,0,0,0-.45-.8,2.18,2.18,0,0,0-.65-.56,1.83,1.83,0,0,0-.89-.21,2.2,2.2,0,0,0-1,.21,1.76,1.76,0,0,0-.68.62,3.15,3.15,0,0,0-.38,1A7.14,7.14,0,0,0,463.44,167.24Zm4,3.59V158.32h1.66v14.49h-1.52Z"/><path class="cls-2" d="M475.36,173a4.76,4.76,0,0,1-1.65-.28,3.16,3.16,0,0,1-1.25-.83,3.69,3.69,0,0,1-.79-1.42,6.47,6.47,0,0,1-.28-2v-1.15a7.27,7.27,0,0,1,.32-2.29,4,4,0,0,1,.85-1.5,3.28,3.28,0,0,1,1.22-.83,4.2,4.2,0,0,1,3,.05,2.68,2.68,0,0,1,1.1.93,4.43,4.43,0,0,1,.63,1.51,9.65,9.65,0,0,1,.2,2.06v1h-6.38v-1.42h4.71v-.24a6.16,6.16,0,0,0-.21-1.39,2,2,0,0,0-.57-.95,1.68,1.68,0,0,0-1.13-.35,2.38,2.38,0,0,0-.85.16,1.49,1.49,0,0,0-.67.54,2.86,2.86,0,0,0-.43,1.05,7.31,7.31,0,0,0-.16,1.7v1.15a5.26,5.26,0,0,0,.16,1.41,2.57,2.57,0,0,0,.46,1,1.9,1.9,0,0,0,.75.57,2.74,2.74,0,0,0,1,.18,2.71,2.71,0,0,0,1.38-.32,3.5,3.5,0,0,0,1-.84l.88,1.05a3.84,3.84,0,0,1-.72.74,3.51,3.51,0,0,1-1.07.57A4.65,4.65,0,0,1,475.36,173Z"/><path class="cls-2" d="M486.87,164.63v8.18h-1.66V162.6h1.57Zm-.34,2.69-.77,0a7.45,7.45,0,0,1,.21-1.94,4.73,4.73,0,0,1,.65-1.55,3,3,0,0,1,2.66-1.39,3,3,0,0,1,1.09.2,2.3,2.3,0,0,1,.88.64,3.08,3.08,0,0,1,.59,1.11,5.66,5.66,0,0,1,.21,1.65v6.8h-1.67v-6.72a3.25,3.25,0,0,0-.21-1.28,1.47,1.47,0,0,0-.6-.71,1.9,1.9,0,0,0-.92-.22,1.78,1.78,0,0,0-1,.28,1.91,1.91,0,0,0-.65.75,3.94,3.94,0,0,0-.34,1.1A9,9,0,0,0,486.53,167.32Zm5.5-1-1.11.36a5.35,5.35,0,0,1,.21-1.61,4.38,4.38,0,0,1,.64-1.38,3.31,3.31,0,0,1,1.08-1,3.07,3.07,0,0,1,1.49-.35,3.17,3.17,0,0,1,1.23.22,2.21,2.21,0,0,1,.91.66,2.88,2.88,0,0,1,.56,1.15,6.21,6.21,0,0,1,.19,1.66v6.71h-1.67v-6.73a3.36,3.36,0,0,0-.21-1.33,1.25,1.25,0,0,0-.6-.67,2,2,0,0,0-.92-.2,1.5,1.5,0,0,0-.77.2,1.61,1.61,0,0,0-.56.54,2.71,2.71,0,0,0-.35.79A3.61,3.61,0,0,0,492,166.35Z"/><path class="cls-2" d="M503.4,173a4.76,4.76,0,0,1-1.65-.28,3.16,3.16,0,0,1-1.25-.83,3.84,3.84,0,0,1-.8-1.42,6.79,6.79,0,0,1-.27-2v-1.15a7.27,7.27,0,0,1,.32-2.29,4,4,0,0,1,.85-1.5,3.2,3.2,0,0,1,1.22-.83,3.93,3.93,0,0,1,1.39-.26,3.87,3.87,0,0,1,1.64.31,2.65,2.65,0,0,1,1.11.93,4.43,4.43,0,0,1,.63,1.51,9.65,9.65,0,0,1,.2,2.06v1h-6.38v-1.42h4.71v-.24a6.79,6.79,0,0,0-.21-1.39,2,2,0,0,0-.57-.95,1.68,1.68,0,0,0-1.13-.35,2.38,2.38,0,0,0-.85.16,1.49,1.49,0,0,0-.67.54,2.7,2.7,0,0,0-.43,1.05,7.31,7.31,0,0,0-.16,1.7v1.15a5.26,5.26,0,0,0,.16,1.41,2.43,2.43,0,0,0,.46,1,1.83,1.83,0,0,0,.75.57,2.74,2.74,0,0,0,1,.18,2.71,2.71,0,0,0,1.38-.32,3.5,3.5,0,0,0,1-.84l.87,1.05a3.77,3.77,0,0,1-.71.74,3.51,3.51,0,0,1-1.07.57A4.65,4.65,0,0,1,503.4,173Z"/><path class="cls-2" d="M508.85,162.6h1.66V174a4.59,4.59,0,0,1-.24,1.59,2.1,2.1,0,0,1-.74,1,2.23,2.23,0,0,1-1.26.33,3,3,0,0,1-.48-.05,3,3,0,0,1-.45-.11v-1.41l.34.07.32,0a.78.78,0,0,0,.46-.14,1,1,0,0,0,.29-.46,3,3,0,0,0,.1-.83Zm-.16-2.71a1.12,1.12,0,0,1,.24-.72.9.9,0,0,1,.71-.29.88.88,0,0,1,.71.29,1.12,1.12,0,0,1,.24.72,1,1,0,0,1-.24.69.85.85,0,0,1-.71.29.87.87,0,0,1-.71-.29A1,1,0,0,1,508.69,159.89Z"/><path class="cls-2" d="M512.79,168.19v-1a6.63,6.63,0,0,1,.3-2.09,4.19,4.19,0,0,1,.84-1.5,3.56,3.56,0,0,1,1.25-.91,4,4,0,0,1,3.1,0,3.51,3.51,0,0,1,1.26.91,4.19,4.19,0,0,1,.84,1.5,6.61,6.61,0,0,1,.31,2.09v1a6.57,6.57,0,0,1-.31,2.09,4.24,4.24,0,0,1-.84,1.51,3.36,3.36,0,0,1-1.25.9,4,4,0,0,1-3.1,0,3.66,3.66,0,0,1-1.26-.9,4.24,4.24,0,0,1-.84-1.51A6.58,6.58,0,0,1,512.79,168.19Zm1.67-1v1a6,6,0,0,0,.17,1.48,3,3,0,0,0,.48,1.05,2,2,0,0,0,.73.64,1.93,1.93,0,0,0,.9.21,2.26,2.26,0,0,0,1-.21,1.81,1.81,0,0,0,.71-.64,3,3,0,0,0,.42-1.05,6.55,6.55,0,0,0,.15-1.48v-1a5.82,5.82,0,0,0-.17-1.47,3.29,3.29,0,0,0-.49-1.05,1.93,1.93,0,0,0-.73-.64,2,2,0,0,0-.91-.22,1.92,1.92,0,0,0-.89.22,2,2,0,0,0-.73.64,3.28,3.28,0,0,0-.47,1.05A5.82,5.82,0,0,0,514.46,167.22Z"/><path class="cls-2" d="M524.51,164.2v8.61h-1.67V162.6h1.61Zm2.53-1.66v1.63a1.84,1.84,0,0,0-.37-.07h-.38a1.7,1.7,0,0,0-.83.19,1.8,1.8,0,0,0-.61.53,2.61,2.61,0,0,0-.4.8,5.21,5.21,0,0,0-.21,1l-.43.28a10.67,10.67,0,0,1,.14-1.74,5.22,5.22,0,0,1,.46-1.43,2.65,2.65,0,0,1,.8-1,2,2,0,0,1,1.54-.31A.89.89,0,0,1,527,162.54Z"/><path class="cls-2" d="M533.61,166.62l0,1.22h-1.16a4,4,0,0,0-1.08.14,2.59,2.59,0,0,0-.84.38,1.66,1.66,0,0,0-.53.62,1.86,1.86,0,0,0-.18.84,2.19,2.19,0,0,0,.17,1,1.05,1.05,0,0,0,.51.53,2.28,2.28,0,0,0,2-.14,2.3,2.3,0,0,0,.75-.7,1.35,1.35,0,0,0,.25-.78l.36.79a2.21,2.21,0,0,1-.24.79,3.07,3.07,0,0,1-.56.82,3,3,0,0,1-.84.65,2.46,2.46,0,0,1-1.09.25,3.44,3.44,0,0,1-1.55-.34,2.45,2.45,0,0,1-1-1,3.4,3.4,0,0,1-.36-1.64,3.49,3.49,0,0,1,.25-1.35,2.83,2.83,0,0,1,.76-1.08,3.4,3.4,0,0,1,1.25-.72,5.58,5.58,0,0,1,1.76-.25Zm-.26,4.44v-5.54a2.23,2.23,0,0,0-.19-1,1.15,1.15,0,0,0-.55-.54,2.17,2.17,0,0,0-.91-.17,1.88,1.88,0,0,0-.91.22,1.54,1.54,0,0,0-.78,1.37h-1.67a2.69,2.69,0,0,1,.24-1.09,3.2,3.2,0,0,1,.69-1,3.3,3.3,0,0,1,1.09-.7,3.8,3.8,0,0,1,1.43-.26,4.18,4.18,0,0,1,1.67.31,2.38,2.38,0,0,1,1.14,1,3.49,3.49,0,0,1,.42,1.83v5a7.09,7.09,0,0,0,.08,1.09,4.82,4.82,0,0,0,.23,1v.15H533.6a3.73,3.73,0,0,1-.19-.81A8,8,0,0,1,533.35,171.06Z"/><path class="cls-2" d="M545.69,173a4.81,4.81,0,0,1-1.66-.28,3.23,3.23,0,0,1-1.25-.83,3.69,3.69,0,0,1-.79-1.42,6.77,6.77,0,0,1-.28-2v-1.15A7.27,7.27,0,0,1,542,165a4,4,0,0,1,.85-1.5,3.28,3.28,0,0,1,1.22-.83,4,4,0,0,1,1.4-.26,3.87,3.87,0,0,1,1.64.31,2.68,2.68,0,0,1,1.1.93,4.24,4.24,0,0,1,.63,1.51,9,9,0,0,1,.2,2.06v1h-6.38v-1.42h4.71v-.24a5.64,5.64,0,0,0-.21-1.39,2,2,0,0,0-.57-.95,1.65,1.65,0,0,0-1.12-.35,2.39,2.39,0,0,0-.86.16,1.49,1.49,0,0,0-.67.54,2.86,2.86,0,0,0-.43,1.05,7.91,7.91,0,0,0-.16,1.7v1.15a5.7,5.7,0,0,0,.16,1.41,2.57,2.57,0,0,0,.46,1,1.93,1.93,0,0,0,.76.57,2.73,2.73,0,0,0,1,.18,2.77,2.77,0,0,0,1.39-.32,3.61,3.61,0,0,0,1-.84l.88,1.05a3.84,3.84,0,0,1-.72.74,3.51,3.51,0,0,1-1.07.57A4.59,4.59,0,0,1,545.69,173Z"/><path class="cls-2" d="M556,170.19a1.3,1.3,0,0,0-.18-.68,2.16,2.16,0,0,0-.62-.56,8.74,8.74,0,0,0-1.16-.59c-.47-.19-.89-.38-1.27-.58a5,5,0,0,1-.95-.62,2.52,2.52,0,0,1-.59-.79,2.64,2.64,0,0,1-.2-1.06,2.73,2.73,0,0,1,.89-2.06,3.06,3.06,0,0,1,1-.62,3.71,3.71,0,0,1,1.33-.22,3.63,3.63,0,0,1,1.78.41,2.85,2.85,0,0,1,1.13,1.1,3.22,3.22,0,0,1,.39,1.58H556a1.71,1.71,0,0,0-.19-.8,1.49,1.49,0,0,0-.56-.61,1.51,1.51,0,0,0-.89-.25,1.89,1.89,0,0,0-.91.2,1.19,1.19,0,0,0-.5.52,1.46,1.46,0,0,0-.16.69,1.44,1.44,0,0,0,.08.49,1.07,1.07,0,0,0,.28.37,2.52,2.52,0,0,0,.54.36c.23.12.53.26.88.42a12.69,12.69,0,0,1,1.75.82,3.31,3.31,0,0,1,1.08,1,2.51,2.51,0,0,1,.36,1.38,2.94,2.94,0,0,1-.24,1.21,2.44,2.44,0,0,1-.68.93,3,3,0,0,1-1.06.59,4.25,4.25,0,0,1-1.38.21,3.91,3.91,0,0,1-2-.46,3.17,3.17,0,0,1-1.21-1.2,3.25,3.25,0,0,1-.41-1.59h1.67a2,2,0,0,0,.32,1.11,1.5,1.5,0,0,0,.73.55,2.5,2.5,0,0,0,.85.15,2.32,2.32,0,0,0,.93-.16,1.23,1.23,0,0,0,.57-.48A1.35,1.35,0,0,0,556,170.19Z"/><path class="cls-2" d="M568,173a4.76,4.76,0,0,1-1.65-.28,3.26,3.26,0,0,1-1.26-.83,3.83,3.83,0,0,1-.79-1.42,6.79,6.79,0,0,1-.27-2v-1.15a7.29,7.29,0,0,1,.31-2.29,4,4,0,0,1,.86-1.5,3.17,3.17,0,0,1,1.21-.83,4,4,0,0,1,1.4-.26,3.87,3.87,0,0,1,1.64.31,2.78,2.78,0,0,1,1.11.93,4.24,4.24,0,0,1,.62,1.51,9,9,0,0,1,.21,2.06v1H565v-1.42h4.71v-.24a6.13,6.13,0,0,0-.22-1.39,1.82,1.82,0,0,0-.57-.95,1.65,1.65,0,0,0-1.12-.35,2.34,2.34,0,0,0-.85.16,1.4,1.4,0,0,0-.67.54,2.86,2.86,0,0,0-.44,1.05,8,8,0,0,0-.15,1.7v1.15a5.75,5.75,0,0,0,.15,1.41,2.74,2.74,0,0,0,.46,1,1.93,1.93,0,0,0,.76.57,2.73,2.73,0,0,0,1,.18,2.77,2.77,0,0,0,1.39-.32,3.61,3.61,0,0,0,.95-.84l.88,1.05a3.77,3.77,0,0,1-.71.74,3.45,3.45,0,0,1-1.08.57A4.54,4.54,0,0,1,568,173Z"/><path class="cls-2" d="M578.35,170.19a1.31,1.31,0,0,0-.19-.68,2,2,0,0,0-.62-.56,8.74,8.74,0,0,0-1.16-.59,12.58,12.58,0,0,1-1.26-.58,4.73,4.73,0,0,1-1-.62,2.25,2.25,0,0,1-.59-.79,2.48,2.48,0,0,1-.2-1.06,2.77,2.77,0,0,1,.88-2.06,3.17,3.17,0,0,1,1-.62,3.75,3.75,0,0,1,1.33-.22,3.63,3.63,0,0,1,1.78.41,2.79,2.79,0,0,1,1.13,1.1,3.22,3.22,0,0,1,.39,1.58h-1.66a1.71,1.71,0,0,0-.19-.8,1.53,1.53,0,0,0-.55-.61,1.56,1.56,0,0,0-.9-.25,1.82,1.82,0,0,0-.9.2,1.16,1.16,0,0,0-.51.52,1.58,1.58,0,0,0-.15.69,1.23,1.23,0,0,0,.08.49.93.93,0,0,0,.27.37,2.91,2.91,0,0,0,.55.36c.23.12.52.26.88.42a13.09,13.09,0,0,1,1.74.82,3.21,3.21,0,0,1,1.08,1,2.51,2.51,0,0,1,.37,1.38,2.94,2.94,0,0,1-.24,1.21,2.46,2.46,0,0,1-.69.93,2.88,2.88,0,0,1-1.06.59,4.25,4.25,0,0,1-1.38.21,3.91,3.91,0,0,1-1.95-.46,3.15,3.15,0,0,1-1.62-2.79h1.67a1.93,1.93,0,0,0,.33,1.11,1.52,1.52,0,0,0,.72.55,2.54,2.54,0,0,0,.85.15,2.32,2.32,0,0,0,.93-.16,1.23,1.23,0,0,0,.57-.48A1.35,1.35,0,0,0,578.35,170.19Z"/><path class="cls-2" d="M585.86,173a4.76,4.76,0,0,1-1.65-.28,3.26,3.26,0,0,1-1.26-.83,3.69,3.69,0,0,1-.79-1.42,6.77,6.77,0,0,1-.28-2v-1.15a7.27,7.27,0,0,1,.32-2.29,4.16,4.16,0,0,1,.85-1.5,3.28,3.28,0,0,1,1.22-.83,4,4,0,0,1,1.4-.26,3.87,3.87,0,0,1,1.64.31,2.68,2.68,0,0,1,1.1.93,4.07,4.07,0,0,1,.63,1.51,9,9,0,0,1,.2,2.06v1h-6.37v-1.42h4.7v-.24a5.64,5.64,0,0,0-.21-1.39,1.89,1.89,0,0,0-.57-.95,1.65,1.65,0,0,0-1.12-.35,2.39,2.39,0,0,0-.86.16,1.49,1.49,0,0,0-.67.54,2.86,2.86,0,0,0-.43,1.05,7.91,7.91,0,0,0-.16,1.7v1.15a5.7,5.7,0,0,0,.16,1.41,2.57,2.57,0,0,0,.46,1,1.93,1.93,0,0,0,.76.57,2.73,2.73,0,0,0,1,.18,2.77,2.77,0,0,0,1.39-.32,3.61,3.61,0,0,0,.95-.84l.88,1.05a3.77,3.77,0,0,1-.71.74,3.56,3.56,0,0,1-1.08.57A4.54,4.54,0,0,1,585.86,173Z"/><path class="cls-2" d="M592.93,164.78v8h-1.67V162.6h1.58Zm-.4,2.54-.68,0a6.66,6.66,0,0,1,.24-1.94,4.8,4.8,0,0,1,.71-1.55,3.64,3.64,0,0,1,1.12-1,3,3,0,0,1,1.45-.36,3.15,3.15,0,0,1,1.13.2,2.13,2.13,0,0,1,.87.65,3.33,3.33,0,0,1,.55,1.15,6.41,6.41,0,0,1,.19,1.71v6.69h-1.67V166.1a4.15,4.15,0,0,0-.17-1.29,1.41,1.41,0,0,0-.53-.71,1.72,1.72,0,0,0-.89-.22,1.63,1.63,0,0,0-.92.28,2.52,2.52,0,0,0-.74.75,4.09,4.09,0,0,0-.49,1.1A4.66,4.66,0,0,0,592.53,167.32Z"/><path class="cls-2" d="M604.16,171.57a2.09,2.09,0,0,0,.91-.2,1.64,1.64,0,0,0,.67-.64,2.52,2.52,0,0,0,.31-1.15h1.56a3.51,3.51,0,0,1-.51,1.79,3.41,3.41,0,0,1-2.94,1.63,4.33,4.33,0,0,1-1.72-.32,3.2,3.2,0,0,1-1.21-.93,4.13,4.13,0,0,1-.71-1.49,7.46,7.46,0,0,1-.24-2v-1.15a7.54,7.54,0,0,1,.24-2,4.16,4.16,0,0,1,.71-1.48,3,3,0,0,1,1.21-.93,4.33,4.33,0,0,1,1.72-.32,3.58,3.58,0,0,1,1.8.44,3,3,0,0,1,1.18,1.26,4.5,4.5,0,0,1,.47,2h-1.56a3.45,3.45,0,0,0-.28-1.26,1.67,1.67,0,0,0-.64-.76,1.86,1.86,0,0,0-1-.25,2.23,2.23,0,0,0-1.09.24,1.66,1.66,0,0,0-.68.66,3.35,3.35,0,0,0-.34,1,7.91,7.91,0,0,0-.1,1.35v1.15a7.91,7.91,0,0,0,.1,1.35,3.32,3.32,0,0,0,.34,1.05,1.7,1.7,0,0,0,.67.66A2.39,2.39,0,0,0,604.16,171.57Z"/><path class="cls-2" d="M609.58,159.89a1.12,1.12,0,0,1,.24-.72.87.87,0,0,1,.71-.29.88.88,0,0,1,.71.29,1.12,1.12,0,0,1,.24.72,1,1,0,0,1-.24.69.85.85,0,0,1-.71.29.84.84,0,0,1-.71-.29A1,1,0,0,1,609.58,159.89Zm1.76,2.71v10.21h-1.66V162.6Z"/><path class="cls-2" d="M619.25,166.62v1.22H618.1A4.09,4.09,0,0,0,617,168a2.54,2.54,0,0,0-.83.38,1.66,1.66,0,0,0-.53.62,1.74,1.74,0,0,0-.19.84,2.34,2.34,0,0,0,.17,1,1.05,1.05,0,0,0,.51.53,2.13,2.13,0,0,0,.86.16,2.05,2.05,0,0,0,1.11-.3,2.3,2.3,0,0,0,.75-.7,1.28,1.28,0,0,0,.25-.78l.37.79a2.21,2.21,0,0,1-.24.79,3.32,3.32,0,0,1-.56.82,2.87,2.87,0,0,1-.85.65,2.4,2.4,0,0,1-1.09.25,3.47,3.47,0,0,1-1.55-.34,2.42,2.42,0,0,1-1-1,3.29,3.29,0,0,1-.37-1.64,3.49,3.49,0,0,1,.26-1.35,2.92,2.92,0,0,1,.75-1.08,3.36,3.36,0,0,1,1.26-.72,5.54,5.54,0,0,1,1.76-.25Zm-.27,4.44v-5.54a2.24,2.24,0,0,0-.18-1,1.25,1.25,0,0,0-.55-.54,2.21,2.21,0,0,0-.91-.17,1.86,1.86,0,0,0-.91.22,1.57,1.57,0,0,0-.59.58,1.63,1.63,0,0,0-.2.79H614a2.69,2.69,0,0,1,.24-1.09,3.07,3.07,0,0,1,.7-1,3.36,3.36,0,0,1,1.08-.7,3.87,3.87,0,0,1,1.43-.26,4.15,4.15,0,0,1,1.67.31,2.36,2.36,0,0,1,1.15,1,3.59,3.59,0,0,1,.41,1.83v5a8.61,8.61,0,0,0,.08,1.09,4.82,4.82,0,0,0,.23,1v.15h-1.72a2.84,2.84,0,0,1-.19-.81A6.41,6.41,0,0,1,619,171.06Z"/><path class="cls-2" d="M625,158.32v14.49h-1.66V158.32Z"/><path class="cls-2" d="M633.77,164.56v12.17H632.1V162.6h1.52Zm5.71,2.68v.95a8.77,8.77,0,0,1-.22,2.11,4.31,4.31,0,0,1-.65,1.5,2.81,2.81,0,0,1-1.05.9,3.27,3.27,0,0,1-1.43.3,3.06,3.06,0,0,1-1.39-.31,2.8,2.8,0,0,1-1-.89,4.57,4.57,0,0,1-.63-1.41,10.56,10.56,0,0,1-.32-1.86v-1.45a11.72,11.72,0,0,1,.31-2,5.21,5.21,0,0,1,.63-1.47,2.74,2.74,0,0,1,1-.93,2.93,2.93,0,0,1,1.38-.32,3.47,3.47,0,0,1,1.45.28,2.63,2.63,0,0,1,1.06.88,4.15,4.15,0,0,1,.65,1.5A9.72,9.72,0,0,1,639.48,167.24Zm-1.67.95v-.95a7.14,7.14,0,0,0-.13-1.48,2.78,2.78,0,0,0-.4-1,1.83,1.83,0,0,0-.68-.62,2.2,2.2,0,0,0-1-.21,1.83,1.83,0,0,0-.89.21,2.18,2.18,0,0,0-.65.56,3.48,3.48,0,0,0-.46.8,5.82,5.82,0,0,0-.26.93v2.86a6.23,6.23,0,0,0,.43,1.14,2.3,2.3,0,0,0,.71.86,1.87,1.87,0,0,0,1.13.33,2.13,2.13,0,0,0,1-.21,1.64,1.64,0,0,0,.69-.62,3,3,0,0,0,.39-1.06A7.24,7.24,0,0,0,637.81,168.19Z"/><path class="cls-2" d="M646.9,166.62l0,1.22h-1.16a4,4,0,0,0-1.08.14,2.5,2.5,0,0,0-.84.38,1.66,1.66,0,0,0-.53.62,1.74,1.74,0,0,0-.19.84,2.34,2.34,0,0,0,.17,1,1.14,1.14,0,0,0,.51.53,2.16,2.16,0,0,0,.86.16,2.05,2.05,0,0,0,1.11-.3,2.12,2.12,0,0,0,.75-.7,1.28,1.28,0,0,0,.25-.78l.37.79a2.21,2.21,0,0,1-.24.79,3.07,3.07,0,0,1-.56.82,3,3,0,0,1-.84.65,2.46,2.46,0,0,1-1.09.25,3.51,3.51,0,0,1-1.56-.34,2.48,2.48,0,0,1-1-1,3.4,3.4,0,0,1-.37-1.64,3.49,3.49,0,0,1,.26-1.35,2.92,2.92,0,0,1,.75-1.08,3.53,3.53,0,0,1,1.26-.72,5.58,5.58,0,0,1,1.76-.25Zm-.27,4.44v-5.54a2.24,2.24,0,0,0-.18-1,1.2,1.2,0,0,0-.55-.54,2.17,2.17,0,0,0-.91-.17,1.88,1.88,0,0,0-.91.22,1.58,1.58,0,0,0-.79,1.37h-1.67a2.69,2.69,0,0,1,.24-1.09,3.24,3.24,0,0,1,.7-1,3.3,3.3,0,0,1,1.09-.7,3.8,3.8,0,0,1,1.43-.26,4.18,4.18,0,0,1,1.67.31,2.38,2.38,0,0,1,1.14,1,3.59,3.59,0,0,1,.41,1.83v5a8.61,8.61,0,0,0,.08,1.09,5.58,5.58,0,0,0,.23,1v.15h-1.72a3.22,3.22,0,0,1-.19-.81A8.18,8.18,0,0,1,646.63,171.06Z"/><path class="cls-2" d="M652.56,164.2v8.61h-1.67V162.6h1.61Zm2.54-1.66v1.63a1.84,1.84,0,0,0-.37-.07h-.38a1.72,1.72,0,0,0-.83.19,1.77,1.77,0,0,0-.6.53,2.62,2.62,0,0,0-.41.8,5.21,5.21,0,0,0-.21,1l-.43.28a9.64,9.64,0,0,1,.15-1.74,5.22,5.22,0,0,1,.45-1.43,2.75,2.75,0,0,1,.8-1,1.94,1.94,0,0,1,1.16-.35,1.89,1.89,0,0,1,.38,0A1,1,0,0,1,655.1,162.54Z"/><path class="cls-2" d="M661.66,166.62l0,1.22h-1.16a4,4,0,0,0-1.08.14,2.54,2.54,0,0,0-.83.38,1.6,1.6,0,0,0-.54.62,1.86,1.86,0,0,0-.18.84,2.19,2.19,0,0,0,.17,1,1.05,1.05,0,0,0,.51.53,2.09,2.09,0,0,0,.86.16,2.05,2.05,0,0,0,1.11-.3,2.3,2.3,0,0,0,.75-.7,1.35,1.35,0,0,0,.25-.78l.37.79a2.71,2.71,0,0,1-.24.79,3.62,3.62,0,0,1-.56.82,2.87,2.87,0,0,1-.85.65,2.43,2.43,0,0,1-1.09.25,3.44,3.44,0,0,1-1.55-.34,2.42,2.42,0,0,1-1-1,3.29,3.29,0,0,1-.37-1.64,3.49,3.49,0,0,1,.25-1.35,2.83,2.83,0,0,1,.76-1.08,3.36,3.36,0,0,1,1.26-.72,5.5,5.5,0,0,1,1.76-.25Zm-.26,4.44v-5.54a2.09,2.09,0,0,0-.19-1,1.18,1.18,0,0,0-.54-.54,2.24,2.24,0,0,0-.91-.17,1.83,1.83,0,0,0-.91.22,1.57,1.57,0,0,0-.59.58,1.63,1.63,0,0,0-.2.79h-1.67a2.69,2.69,0,0,1,.24-1.09,3.2,3.2,0,0,1,.69-1,3.4,3.4,0,0,1,1.09-.7,3.83,3.83,0,0,1,1.43-.26,4.15,4.15,0,0,1,1.67.31,2.3,2.3,0,0,1,1.14,1,3.49,3.49,0,0,1,.42,1.83v5a7.09,7.09,0,0,0,.08,1.09,4.82,4.82,0,0,0,.23,1v.15h-1.73a3.73,3.73,0,0,1-.19-.81A8,8,0,0,1,661.4,171.06Z"/><path class="cls-2" d="M256.6,183.14v8.18h-1.66v-10.2h1.57Zm-.34,2.69-.77,0a7.42,7.42,0,0,1,.21-1.93,4.79,4.79,0,0,1,.65-1.56,3,3,0,0,1,1.11-1,3.2,3.2,0,0,1,1.55-.36,2.82,2.82,0,0,1,1.09.2,2.38,2.38,0,0,1,.88.64,3.08,3.08,0,0,1,.59,1.11,5.59,5.59,0,0,1,.21,1.64v6.8h-1.67v-6.71a3.27,3.27,0,0,0-.21-1.29,1.44,1.44,0,0,0-.6-.7,1.82,1.82,0,0,0-.92-.22,1.86,1.86,0,0,0-1,.27,2,2,0,0,0-.65.76,3.84,3.84,0,0,0-.34,1.1A8.91,8.91,0,0,0,256.26,185.83Zm5.5-1-1.11.36a5.35,5.35,0,0,1,.21-1.61,4.38,4.38,0,0,1,.64-1.38,3.38,3.38,0,0,1,1.07-1,3,3,0,0,1,1.49-.35,3.39,3.39,0,0,1,1.24.21,2.32,2.32,0,0,1,.91.67,2.88,2.88,0,0,1,.56,1.15,6.16,6.16,0,0,1,.19,1.66v6.7h-1.67V184.6a3.41,3.41,0,0,0-.21-1.34,1.28,1.28,0,0,0-.6-.67,2,2,0,0,0-.92-.19,1.41,1.41,0,0,0-.77.2,1.61,1.61,0,0,0-.56.54,2.47,2.47,0,0,0-.35.79A3.56,3.56,0,0,0,261.76,184.87Z"/><path class="cls-2" d="M274.74,185.13l0,1.23H273.6a4.57,4.57,0,0,0-1.08.13,2.55,2.55,0,0,0-.83.39,1.66,1.66,0,0,0-.54.61,1.92,1.92,0,0,0-.18.84,2.4,2.4,0,0,0,.17,1,1,1,0,0,0,.51.52,2,2,0,0,0,.86.16,2,2,0,0,0,1.11-.29,2.23,2.23,0,0,0,.75-.71,1.3,1.3,0,0,0,.25-.77l.37.78a2.76,2.76,0,0,1-.24.8,3.32,3.32,0,0,1-.56.82,2.84,2.84,0,0,1-.85.64,2.28,2.28,0,0,1-1.09.25,3.31,3.31,0,0,1-1.55-.34,2.37,2.37,0,0,1-1-1,3.25,3.25,0,0,1-.37-1.63,3.58,3.58,0,0,1,.26-1.36,3.09,3.09,0,0,1,.75-1.08,3.49,3.49,0,0,1,1.26-.71,5.53,5.53,0,0,1,1.76-.26Zm-.26,4.45V184a2.21,2.21,0,0,0-.18-1,1.15,1.15,0,0,0-.55-.54,2.21,2.21,0,0,0-.91-.17,1.75,1.75,0,0,0-.91.22,1.47,1.47,0,0,0-.59.57,1.67,1.67,0,0,0-.2.8h-1.67a2.65,2.65,0,0,1,.24-1.09,3.24,3.24,0,0,1,.69-1,3.49,3.49,0,0,1,1.09-.69,3.64,3.64,0,0,1,1.43-.26,4.33,4.33,0,0,1,1.67.3,2.36,2.36,0,0,1,1.14,1,3.49,3.49,0,0,1,.42,1.83v5a8.34,8.34,0,0,0,.08,1.08,4.53,4.53,0,0,0,.23,1v.15h-1.73a3.29,3.29,0,0,1-.18-.8A6.41,6.41,0,0,1,274.48,189.58Z"/><path class="cls-2" d="M280.4,183.3v8h-1.67v-10.2h1.58Zm-.4,2.53-.68,0a6.63,6.63,0,0,1,.24-1.93,5.1,5.1,0,0,1,.72-1.56,3.36,3.36,0,0,1,1.11-1,3.18,3.18,0,0,1,2.58-.16,2.13,2.13,0,0,1,.87.65,3,3,0,0,1,.55,1.14,6.51,6.51,0,0,1,.19,1.71v6.69h-1.67v-6.7a3.8,3.8,0,0,0-.17-1.29,1.32,1.32,0,0,0-.53-.71,1.61,1.61,0,0,0-.89-.22,1.7,1.7,0,0,0-.92.27,2.69,2.69,0,0,0-.74.76,4,4,0,0,0-.49,1.1A5,5,0,0,0,280,185.83Z"/><path class="cls-2" d="M291.82,181.12v1.34h-4.76v-1.34Zm-3.21-2.49h1.67V188.8a2,2,0,0,0,.13.78.71.71,0,0,0,.33.35,1.16,1.16,0,0,0,.42.08,1.82,1.82,0,0,0,.38,0l.28-.07v1.42a2.27,2.27,0,0,1-.45.13,3.59,3.59,0,0,1-.72.06,2,2,0,0,1-1-.25,1.77,1.77,0,0,1-.74-.86,3.77,3.77,0,0,1-.29-1.61Z"/><path class="cls-2" d="M297.46,191.51a4.76,4.76,0,0,1-1.65-.27,3.07,3.07,0,0,1-1.25-.84,3.69,3.69,0,0,1-.8-1.42,6.72,6.72,0,0,1-.27-2V185.8a7.16,7.16,0,0,1,.32-2.28,4,4,0,0,1,.85-1.5,3.2,3.2,0,0,1,1.22-.83,3.72,3.72,0,0,1,1.39-.26,3.87,3.87,0,0,1,1.64.31,2.63,2.63,0,0,1,1.11.92,4.43,4.43,0,0,1,.63,1.51,9.82,9.82,0,0,1,.2,2.07v1h-6.38v-1.42h4.71v-.24a6.89,6.89,0,0,0-.21-1.4,2,2,0,0,0-.57-.94,1.68,1.68,0,0,0-1.13-.35,2.18,2.18,0,0,0-.85.16,1.48,1.48,0,0,0-.67.53,2.82,2.82,0,0,0-.43,1.06,7.22,7.22,0,0,0-.16,1.69V187a5.37,5.37,0,0,0,.16,1.41,2.5,2.5,0,0,0,.46,1,1.81,1.81,0,0,0,.75.56,2.56,2.56,0,0,0,1,.19,2.61,2.61,0,0,0,1.38-.33,3.31,3.31,0,0,0,1-.83l.87,1a3.81,3.81,0,0,1-.71.75,3.74,3.74,0,0,1-1.07.57A4.66,4.66,0,0,1,297.46,191.51Z"/><path class="cls-2" d="M304.54,183.3v8h-1.67v-10.2h1.57Zm-.41,2.53-.68,0a7.39,7.39,0,0,1,.24-1.93,5.1,5.1,0,0,1,.72-1.56,3.29,3.29,0,0,1,1.12-1,3.16,3.16,0,0,1,2.57-.16,2.13,2.13,0,0,1,.87.65,3,3,0,0,1,.55,1.14,6.47,6.47,0,0,1,.2,1.71v6.69h-1.67v-6.7a3.77,3.77,0,0,0-.18-1.29,1.27,1.27,0,0,0-.53-.71,1.61,1.61,0,0,0-.89-.22,1.67,1.67,0,0,0-.91.27,2.56,2.56,0,0,0-.74.76,3.68,3.68,0,0,0-.49,1.1A4.59,4.59,0,0,0,304.13,185.83Z"/><path class="cls-2" d="M315.88,191.51a4.76,4.76,0,0,1-1.65-.27,3.18,3.18,0,0,1-1.26-.84,3.68,3.68,0,0,1-.79-1.42,6.72,6.72,0,0,1-.27-2V185.8a7.18,7.18,0,0,1,.31-2.28,4,4,0,0,1,.86-1.5,3.17,3.17,0,0,1,1.21-.83,3.78,3.78,0,0,1,1.4-.26,3.87,3.87,0,0,1,1.64.31,2.66,2.66,0,0,1,1.1.92,4.07,4.07,0,0,1,.63,1.51,9.16,9.16,0,0,1,.21,2.07v1h-6.38v-1.42h4.71v-.24a6.23,6.23,0,0,0-.22-1.4,1.83,1.83,0,0,0-.57-.94,1.65,1.65,0,0,0-1.12-.35,2.15,2.15,0,0,0-.85.16,1.43,1.43,0,0,0-.67.53,3,3,0,0,0-.44,1.06,7.88,7.88,0,0,0-.15,1.69V187a5.86,5.86,0,0,0,.15,1.41,2.82,2.82,0,0,0,.46,1,1.91,1.91,0,0,0,.76.56,2.54,2.54,0,0,0,1,.19,2.67,2.67,0,0,0,1.39-.33,3.41,3.41,0,0,0,.95-.83l.88,1a3.46,3.46,0,0,1-1.79,1.32A4.56,4.56,0,0,1,315.88,191.51Z"/><path class="cls-2" d="M323,182.72v8.6h-1.67v-10.2h1.62Zm2.54-1.66v1.62l-.37-.06h-.38a1.7,1.7,0,0,0-.83.19,1.79,1.79,0,0,0-.61.52,2.79,2.79,0,0,0-.4.81,5.11,5.11,0,0,0-.21,1l-.43.29a9.58,9.58,0,0,1,.14-1.74,5.41,5.41,0,0,1,.46-1.44,2.62,2.62,0,0,1,.8-1,1.88,1.88,0,0,1,1.16-.35,1.8,1.8,0,0,1,.37,0A.89.89,0,0,1,325.49,181.06Z"/><path class="cls-2" d="M333.4,176.83v14.49h-1.66V176.83Z"/><path class="cls-2" d="M341.3,185.13l0,1.23h-1.16a4.57,4.57,0,0,0-1.08.13,2.55,2.55,0,0,0-.83.39,1.66,1.66,0,0,0-.54.61,1.92,1.92,0,0,0-.18.84,2.4,2.4,0,0,0,.17,1,1,1,0,0,0,.51.52,2,2,0,0,0,.86.16,2,2,0,0,0,1.11-.29,2.23,2.23,0,0,0,.75-.71,1.3,1.3,0,0,0,.25-.77l.37.78a2.76,2.76,0,0,1-.24.8,3.32,3.32,0,0,1-.56.82,2.84,2.84,0,0,1-.85.64,2.28,2.28,0,0,1-1.09.25,3.31,3.31,0,0,1-1.55-.34,2.37,2.37,0,0,1-1-1,3.25,3.25,0,0,1-.37-1.63,3.58,3.58,0,0,1,.25-1.36,3.12,3.12,0,0,1,.76-1.08,3.49,3.49,0,0,1,1.26-.71,5.53,5.53,0,0,1,1.76-.26Zm-.26,4.45V184a2.21,2.21,0,0,0-.18-1,1.15,1.15,0,0,0-.55-.54,2.21,2.21,0,0,0-.91-.17,1.75,1.75,0,0,0-.91.22,1.47,1.47,0,0,0-.59.57,1.67,1.67,0,0,0-.2.8H336a2.65,2.65,0,0,1,.24-1.09,3.24,3.24,0,0,1,.69-1,3.49,3.49,0,0,1,1.09-.69,3.64,3.64,0,0,1,1.43-.26,4.33,4.33,0,0,1,1.67.3,2.36,2.36,0,0,1,1.14,1,3.49,3.49,0,0,1,.42,1.83v5a8.34,8.34,0,0,0,.08,1.08,4.53,4.53,0,0,0,.23,1v.15h-1.73a3.29,3.29,0,0,1-.18-.8A6.41,6.41,0,0,1,341,189.58Z"/><path class="cls-2" d="M353.27,190.09a2.13,2.13,0,0,0,.91-.2,1.61,1.61,0,0,0,.67-.65,2.33,2.33,0,0,0,.3-1.14h1.57a3.74,3.74,0,0,1-.51,1.79,3.43,3.43,0,0,1-2.94,1.62,4.13,4.13,0,0,1-1.72-.32,2.94,2.94,0,0,1-1.21-.93,3.92,3.92,0,0,1-.71-1.48,7.46,7.46,0,0,1-.24-2v-1.16a7.46,7.46,0,0,1,.24-2,3.92,3.92,0,0,1,.71-1.48,2.94,2.94,0,0,1,1.21-.93,4.13,4.13,0,0,1,1.72-.32,3.42,3.42,0,0,1,1.79.44,3,3,0,0,1,1.19,1.26,4.64,4.64,0,0,1,.47,2h-1.57a3.18,3.18,0,0,0-.27-1.26,1.73,1.73,0,0,0-.64-.76,1.8,1.8,0,0,0-1-.25,2.32,2.32,0,0,0-1.09.23,1.75,1.75,0,0,0-.68.67,3,3,0,0,0-.34,1,7.86,7.86,0,0,0-.1,1.34v1.16a8.07,8.07,0,0,0,.1,1.35,3,3,0,0,0,.34,1,1.66,1.66,0,0,0,.67.67A2.39,2.39,0,0,0,353.27,190.09Z"/><path class="cls-2" d="M358.3,186.71v-1a6.34,6.34,0,0,1,.31-2.09,4.32,4.32,0,0,1,.84-1.51,3.6,3.6,0,0,1,1.25-.91,4,4,0,0,1,1.54-.3,4,4,0,0,1,1.56.3,3.83,3.83,0,0,1,1.26.91,4.32,4.32,0,0,1,.84,1.51,6.63,6.63,0,0,1,.3,2.09v1a6.63,6.63,0,0,1-.3,2.09,4.32,4.32,0,0,1-.84,1.51,3.53,3.53,0,0,1-1.25.9,4.15,4.15,0,0,1-3.1,0,3.48,3.48,0,0,1-1.26-.9,4.32,4.32,0,0,1-.84-1.51A6.34,6.34,0,0,1,358.3,186.71Zm1.67-1v1a5.82,5.82,0,0,0,.17,1.47,3.25,3.25,0,0,0,.49,1.06,2.09,2.09,0,0,0,.72.64,2,2,0,0,0,.91.21,2.19,2.19,0,0,0,1-.21,1.92,1.92,0,0,0,.72-.64,3.22,3.22,0,0,0,.42-1.06,7.05,7.05,0,0,0,.14-1.47v-1a5.4,5.4,0,0,0-.17-1.47,3.14,3.14,0,0,0-.48-1.06,2.1,2.1,0,0,0-.73-.64,2.06,2.06,0,0,0-1.81,0,2.07,2.07,0,0,0-.72.64,3.58,3.58,0,0,0-.48,1.06A5.82,5.82,0,0,0,360,185.74Z"/><path class="cls-2" d="M370,183.3v8h-1.67v-10.2h1.58Zm-.4,2.53-.68,0a6.63,6.63,0,0,1,.24-1.93,4.86,4.86,0,0,1,.71-1.56,3.49,3.49,0,0,1,1.12-1,3.18,3.18,0,0,1,2.58-.16,2.13,2.13,0,0,1,.87.65,3.19,3.19,0,0,1,.55,1.14,6.51,6.51,0,0,1,.19,1.71v6.69h-1.67v-6.7a4.07,4.07,0,0,0-.17-1.29,1.37,1.37,0,0,0-.53-.71,1.63,1.63,0,0,0-.89-.22,1.7,1.7,0,0,0-.92.27,2.69,2.69,0,0,0-.74.76,4,4,0,0,0-.49,1.1A4.59,4.59,0,0,0,369.62,185.83Z"/><path class="cls-2" d="M381.85,181.12v1.34h-4.73v-1.34Zm-1.73,10.2h-1.67V180a4.29,4.29,0,0,1,.35-1.86,2.53,2.53,0,0,1,1-1.15,3,3,0,0,1,1.56-.4,4.73,4.73,0,0,1,.52,0,2.7,2.7,0,0,1,.49.12l-.07,1.42a2.73,2.73,0,0,0-.37-.07l-.4,0a1.3,1.3,0,0,0-.77.23,1.29,1.29,0,0,0-.49.64,3,3,0,0,0-.16,1Z"/><path class="cls-2" d="M383.86,178.41a1.1,1.1,0,0,1,.24-.72.87.87,0,0,1,.71-.29.88.88,0,0,1,.71.29,1.1,1.1,0,0,1,.24.72,1,1,0,0,1-.24.69.88.88,0,0,1-.71.29.87.87,0,0,1-.71-.29A1,1,0,0,1,383.86,178.41Zm1.76,2.71v10.2H384v-10.2Z"/><path class="cls-2" d="M393.52,185.13l0,1.23h-1.16a4.57,4.57,0,0,0-1.08.13,2.55,2.55,0,0,0-.83.39,1.66,1.66,0,0,0-.54.61,1.92,1.92,0,0,0-.18.84,2.4,2.4,0,0,0,.17,1,1,1,0,0,0,.51.52,2,2,0,0,0,.86.16,2,2,0,0,0,1.11-.29,2.23,2.23,0,0,0,.75-.71,1.3,1.3,0,0,0,.25-.77l.37.78a2.76,2.76,0,0,1-.24.8,3.32,3.32,0,0,1-.56.82,2.84,2.84,0,0,1-.85.64,2.3,2.3,0,0,1-1.09.25,3.31,3.31,0,0,1-1.55-.34,2.37,2.37,0,0,1-1-1,3.25,3.25,0,0,1-.37-1.63,3.58,3.58,0,0,1,.25-1.36,3.12,3.12,0,0,1,.76-1.08,3.49,3.49,0,0,1,1.26-.71,5.48,5.48,0,0,1,1.76-.26Zm-.26,4.45V184a2.21,2.21,0,0,0-.18-1,1.15,1.15,0,0,0-.55-.54,2.21,2.21,0,0,0-.91-.17,1.75,1.75,0,0,0-.91.22,1.47,1.47,0,0,0-.59.57,1.67,1.67,0,0,0-.2.8h-1.67a2.65,2.65,0,0,1,.24-1.09,3.24,3.24,0,0,1,.69-1,3.49,3.49,0,0,1,1.09-.69,3.64,3.64,0,0,1,1.43-.26,4.33,4.33,0,0,1,1.67.3,2.36,2.36,0,0,1,1.14,1,3.49,3.49,0,0,1,.42,1.83v5a8.34,8.34,0,0,0,.08,1.08,4.53,4.53,0,0,0,.23,1v.15h-1.73a3.29,3.29,0,0,1-.18-.8A6.41,6.41,0,0,1,393.26,189.58Z"/><path class="cls-2" d="M399.18,183.3v8h-1.67v-10.2h1.58Zm-.4,2.53-.68,0a6.63,6.63,0,0,1,.24-1.93,5.1,5.1,0,0,1,.72-1.56,3.36,3.36,0,0,1,1.11-1,3.18,3.18,0,0,1,2.58-.16,2.13,2.13,0,0,1,.87.65,3,3,0,0,1,.55,1.14,6.51,6.51,0,0,1,.19,1.71v6.69h-1.67v-6.7a3.8,3.8,0,0,0-.17-1.29,1.32,1.32,0,0,0-.53-.71,1.63,1.63,0,0,0-.89-.22,1.7,1.7,0,0,0-.92.27,2.69,2.69,0,0,0-.74.76,4,4,0,0,0-.49,1.1A5,5,0,0,0,398.78,185.83Z"/><path class="cls-2" d="M413.15,182.35l-5.62,9h-1V190l5.57-8.92h1.06Zm-.73-1.23v1.44h-5.88v-1.44Zm.92,8.77v1.43h-6.18v-1.43Z"/><path class="cls-2" d="M420.62,185.13l0,1.23h-1.16a4.44,4.44,0,0,0-1.08.13,2.61,2.61,0,0,0-.84.39,1.63,1.63,0,0,0-.53.61,1.92,1.92,0,0,0-.18.84,2.24,2.24,0,0,0,.17,1,1,1,0,0,0,.5.52,2,2,0,0,0,.86.16,2.08,2.08,0,0,0,1.12-.29,2.23,2.23,0,0,0,.75-.71,1.3,1.3,0,0,0,.25-.77l.36.78a2.26,2.26,0,0,1-.24.8,3.07,3.07,0,0,1-.56.82,2.93,2.93,0,0,1-.84.64,2.33,2.33,0,0,1-1.09.25,3.31,3.31,0,0,1-1.55-.34,2.39,2.39,0,0,1-1-1,3.36,3.36,0,0,1-.36-1.63,3.58,3.58,0,0,1,.25-1.36,3.09,3.09,0,0,1,.75-1.08,3.67,3.67,0,0,1,1.26-.71,5.57,5.57,0,0,1,1.76-.26Zm-.27,4.45V184a2.21,2.21,0,0,0-.18-1,1.07,1.07,0,0,0-.55-.54,2.17,2.17,0,0,0-.91-.17,1.78,1.78,0,0,0-.91.22,1.45,1.45,0,0,0-.58.57,1.56,1.56,0,0,0-.2.8h-1.67a2.65,2.65,0,0,1,.24-1.09,3.24,3.24,0,0,1,.69-1,3.28,3.28,0,0,1,1.09-.69,3.61,3.61,0,0,1,1.43-.26,4.36,4.36,0,0,1,1.67.3,2.46,2.46,0,0,1,1.14,1,3.5,3.5,0,0,1,.41,1.83v5a8.34,8.34,0,0,0,.08,1.08,5.13,5.13,0,0,0,.24,1v.15h-1.73a3.77,3.77,0,0,1-.19-.8A8.18,8.18,0,0,1,420.35,189.58Z"/><path class="cls-2" d="M432.7,191.51a4.82,4.82,0,0,1-1.66-.27,3.14,3.14,0,0,1-1.25-.84A3.55,3.55,0,0,1,429,189a6.4,6.4,0,0,1-.28-2V185.8a7.16,7.16,0,0,1,.32-2.28,4,4,0,0,1,.85-1.5,3.28,3.28,0,0,1,1.22-.83,3.74,3.74,0,0,1,1.4-.26,3.87,3.87,0,0,1,1.64.31,2.66,2.66,0,0,1,1.1.92,4.24,4.24,0,0,1,.63,1.51,9.2,9.2,0,0,1,.2,2.07v1H429.7v-1.42h4.71v-.24a5.73,5.73,0,0,0-.21-1.4,2,2,0,0,0-.57-.94,1.65,1.65,0,0,0-1.12-.35,2.2,2.2,0,0,0-.86.16,1.54,1.54,0,0,0-.67.53,3,3,0,0,0-.43,1.06,7.8,7.8,0,0,0-.16,1.69V187a5.82,5.82,0,0,0,.16,1.41,2.65,2.65,0,0,0,.46,1,1.91,1.91,0,0,0,.76.56,2.51,2.51,0,0,0,1,.19,2.67,2.67,0,0,0,1.39-.33,3.41,3.41,0,0,0,.95-.83l.88,1a3.88,3.88,0,0,1-.72.75,3.74,3.74,0,0,1-1.07.57A4.6,4.6,0,0,1,432.7,191.51Z"/><path class="cls-2" d="M439.77,183.3v8H438.1v-10.2h1.58Zm-.41,2.53-.67,0a6.63,6.63,0,0,1,.24-1.93,4.86,4.86,0,0,1,.71-1.56,3.39,3.39,0,0,1,1.12-1,3.18,3.18,0,0,1,2.58-.16,2,2,0,0,1,.86.65,3,3,0,0,1,.56,1.14,6.51,6.51,0,0,1,.19,1.71v6.69h-1.67v-6.7a4.07,4.07,0,0,0-.17-1.29,1.37,1.37,0,0,0-.53-.71,1.66,1.66,0,0,0-.89-.22,1.68,1.68,0,0,0-.92.27,2.69,2.69,0,0,0-.74.76,4,4,0,0,0-.49,1.1A4.59,4.59,0,0,0,439.36,185.83Z"/><path class="cls-2" d="M451.19,181.12v1.34h-4.77v-1.34ZM448,178.63h1.67V188.8a1.8,1.8,0,0,0,.13.78.69.69,0,0,0,.32.35,1.22,1.22,0,0,0,.43.08,1.67,1.67,0,0,0,.37,0l.29-.07v1.42a2.77,2.77,0,0,1-.45.13,3.59,3.59,0,0,1-.72.06,2,2,0,0,1-1-.25,1.84,1.84,0,0,1-.75-.86,3.78,3.78,0,0,1-.28-1.61Z"/><path class="cls-2" d="M454.85,182.72v8.6h-1.67v-10.2h1.61Zm2.54-1.66v1.62l-.37-.06h-.38a1.7,1.7,0,0,0-.83.19,1.85,1.85,0,0,0-.6.52,2.8,2.8,0,0,0-.41.81,5.11,5.11,0,0,0-.21,1l-.43.29a10.57,10.57,0,0,1,.14-1.74,5.41,5.41,0,0,1,.46-1.44,2.62,2.62,0,0,1,.8-1,1.88,1.88,0,0,1,1.16-.35,2,2,0,0,1,.38,0A1.11,1.11,0,0,1,457.39,181.06Z"/><path class="cls-2" d="M462.54,191.51a4.82,4.82,0,0,1-1.66-.27,3.14,3.14,0,0,1-1.25-.84,3.55,3.55,0,0,1-.79-1.42,6.4,6.4,0,0,1-.28-2V185.8a7.16,7.16,0,0,1,.32-2.28,4,4,0,0,1,.85-1.5,3.28,3.28,0,0,1,1.22-.83,3.74,3.74,0,0,1,1.4-.26,3.87,3.87,0,0,1,1.64.31,2.66,2.66,0,0,1,1.1.92,4.24,4.24,0,0,1,.63,1.51,9.82,9.82,0,0,1,.2,2.07v1h-6.38v-1.42h4.71v-.24a5.73,5.73,0,0,0-.21-1.4,2,2,0,0,0-.57-.94,1.65,1.65,0,0,0-1.12-.35,2.2,2.2,0,0,0-.86.16,1.54,1.54,0,0,0-.67.53,3,3,0,0,0-.43,1.06,7.8,7.8,0,0,0-.16,1.69V187a5.82,5.82,0,0,0,.16,1.41,2.65,2.65,0,0,0,.46,1,1.91,1.91,0,0,0,.76.56,2.51,2.51,0,0,0,1,.19,2.67,2.67,0,0,0,1.39-.33,3.41,3.41,0,0,0,1-.83l.88,1a3.88,3.88,0,0,1-.72.75,3.74,3.74,0,0,1-1.07.57A4.6,4.6,0,0,1,462.54,191.51Z"/><path class="cls-2" d="M476.1,181.12v1.34h-4.76v-1.34Zm-3.21-2.49h1.67V188.8a2,2,0,0,0,.13.78.75.75,0,0,0,.33.35,1.16,1.16,0,0,0,.42.08,1.76,1.76,0,0,0,.38,0l.28-.07v1.42a2.27,2.27,0,0,1-.45.13,3.59,3.59,0,0,1-.72.06,2,2,0,0,1-1-.25,1.82,1.82,0,0,1-.74-.86,3.77,3.77,0,0,1-.29-1.61Z"/><path class="cls-2" d="M477.55,186.71v-1a6.34,6.34,0,0,1,.31-2.09,4.32,4.32,0,0,1,.84-1.51,3.6,3.6,0,0,1,1.25-.91,4,4,0,0,1,1.54-.3,4,4,0,0,1,1.56.3,3.83,3.83,0,0,1,1.26.91,4.32,4.32,0,0,1,.84,1.51,6.63,6.63,0,0,1,.3,2.09v1a6.63,6.63,0,0,1-.3,2.09,4.32,4.32,0,0,1-.84,1.51,3.53,3.53,0,0,1-1.25.9,4.15,4.15,0,0,1-3.1,0,3.48,3.48,0,0,1-1.26-.9,4.32,4.32,0,0,1-.84-1.51A6.34,6.34,0,0,1,477.55,186.71Zm1.67-1v1a5.82,5.82,0,0,0,.17,1.47,3.25,3.25,0,0,0,.49,1.06,2.09,2.09,0,0,0,.72.64,2,2,0,0,0,.91.21,2.19,2.19,0,0,0,1-.21,1.92,1.92,0,0,0,.72-.64,3.22,3.22,0,0,0,.42-1.06,7.05,7.05,0,0,0,.14-1.47v-1a5.4,5.4,0,0,0-.17-1.47,3.14,3.14,0,0,0-.48-1.06,2.1,2.1,0,0,0-.73-.64,2.06,2.06,0,0,0-1.81,0,2.07,2.07,0,0,0-.72.64,3.58,3.58,0,0,0-.48,1.06A5.82,5.82,0,0,0,479.22,185.74Z"/><path class="cls-2" d="M487.24,186.71v-1a8.17,8.17,0,0,1,.25-2.18,4.35,4.35,0,0,1,.7-1.5,2.82,2.82,0,0,1,1.08-.87,3.37,3.37,0,0,1,1.4-.28,2.57,2.57,0,0,1,2.32,1.25,5,5,0,0,1,.61,1.47,10.57,10.57,0,0,1,.29,1.95v1.27a10.68,10.68,0,0,1-.3,1.94,5.13,5.13,0,0,1-.61,1.46,2.59,2.59,0,0,1-2.33,1.24,3.31,3.31,0,0,1-1.38-.29,3.07,3.07,0,0,1-1.08-.9,4.35,4.35,0,0,1-.7-1.5A7.78,7.78,0,0,1,487.24,186.71Zm1.67-1v1a7.14,7.14,0,0,0,.13,1.48,3,3,0,0,0,.38,1,1.59,1.59,0,0,0,.68.61,2.12,2.12,0,0,0,1,.2,1.83,1.83,0,0,0,1.15-.34,2.47,2.47,0,0,0,.71-.9,6.4,6.4,0,0,0,.43-1.21V184.9a5.87,5.87,0,0,0-.28-.93,3.26,3.26,0,0,0-.45-.8,1.75,1.75,0,0,0-.65-.56,1.8,1.8,0,0,0-.89-.21,2.19,2.19,0,0,0-1,.21,1.56,1.56,0,0,0-.68.62,3.15,3.15,0,0,0-.39,1.05A7.9,7.9,0,0,0,488.91,185.76Zm4,3.58V176.83h1.66v14.49h-1.52Z"/><path class="cls-2" d="M496.84,186.71v-1a6.63,6.63,0,0,1,.3-2.09,4.32,4.32,0,0,1,.84-1.51,3.69,3.69,0,0,1,1.25-.91,4.15,4.15,0,0,1,3.1,0,3.63,3.63,0,0,1,1.26.91,4.32,4.32,0,0,1,.84,1.51,6.63,6.63,0,0,1,.3,2.09v1a6.63,6.63,0,0,1-.3,2.09,4.32,4.32,0,0,1-.84,1.51,3.45,3.45,0,0,1-1.25.9,4.15,4.15,0,0,1-3.1,0,3.66,3.66,0,0,1-1.26-.9,4.32,4.32,0,0,1-.84-1.51A6.63,6.63,0,0,1,496.84,186.71Zm1.67-1v1a5.4,5.4,0,0,0,.17,1.47,3.05,3.05,0,0,0,.48,1.06,2.21,2.21,0,0,0,.73.64,1.93,1.93,0,0,0,.9.21,2.26,2.26,0,0,0,1-.21,2,2,0,0,0,.71-.64,3,3,0,0,0,.42-1.06,6.44,6.44,0,0,0,.14-1.47v-1a5.4,5.4,0,0,0-.17-1.47,3.14,3.14,0,0,0-.48-1.06,2,2,0,0,0-.73-.64,2,2,0,0,0-.91-.21,1.91,1.91,0,0,0-.89.21,2.1,2.1,0,0,0-.73.64,3.34,3.34,0,0,0-.47,1.06A5.4,5.4,0,0,0,498.51,185.74Z"/><path class="cls-2" d="M511.84,188.71a1.29,1.29,0,0,0-.19-.68,2,2,0,0,0-.62-.56,7.5,7.5,0,0,0-1.15-.59c-.48-.19-.9-.39-1.27-.58a4.35,4.35,0,0,1-.95-.63,2.16,2.16,0,0,1-.59-.79,2.45,2.45,0,0,1-.2-1.06,2.66,2.66,0,0,1,.23-1.13,2.7,2.7,0,0,1,.65-.92,3.1,3.1,0,0,1,1-.62,3.75,3.75,0,0,1,1.33-.22,3.7,3.7,0,0,1,1.79.4,2.78,2.78,0,0,1,1.12,1.11,3.22,3.22,0,0,1,.39,1.58h-1.66a1.84,1.84,0,0,0-.18-.8,1.67,1.67,0,0,0-.56-.62,1.63,1.63,0,0,0-.9-.24,1.82,1.82,0,0,0-.9.2,1.19,1.19,0,0,0-.51.51,1.63,1.63,0,0,0-.15.7,1.15,1.15,0,0,0,.08.48,1,1,0,0,0,.27.38,2.91,2.91,0,0,0,.55.36c.23.12.52.26.88.42a11.94,11.94,0,0,1,1.74.82,3.21,3.21,0,0,1,1.08,1,2.41,2.41,0,0,1,.37,1.38,3,3,0,0,1-.24,1.21,2.63,2.63,0,0,1-.69.93,3,3,0,0,1-1.06.59,4.55,4.55,0,0,1-1.38.2,3.91,3.91,0,0,1-1.95-.45,3.24,3.24,0,0,1-1.21-1.2,3.3,3.3,0,0,1-.41-1.59h1.67a2,2,0,0,0,.33,1.11,1.59,1.59,0,0,0,.72.55,2.54,2.54,0,0,0,.85.15,2.31,2.31,0,0,0,.93-.17,1.17,1.17,0,0,0,.57-.47A1.35,1.35,0,0,0,511.84,188.71Z"/><path class="cls-2" d="M521.92,176.83v14.49h-1.66V176.83Z"/><path class="cls-2" d="M524.22,186.71v-1a6.63,6.63,0,0,1,.3-2.09,4.32,4.32,0,0,1,.84-1.51,3.69,3.69,0,0,1,1.25-.91,4,4,0,0,1,1.54-.3,4,4,0,0,1,1.56.3,3.83,3.83,0,0,1,1.26.91,4.32,4.32,0,0,1,.84,1.51,6.63,6.63,0,0,1,.3,2.09v1a6.63,6.63,0,0,1-.3,2.09,4.32,4.32,0,0,1-.84,1.51,3.53,3.53,0,0,1-1.25.9,4.15,4.15,0,0,1-3.1,0,3.57,3.57,0,0,1-1.26-.9,4.32,4.32,0,0,1-.84-1.51A6.63,6.63,0,0,1,524.22,186.71Zm1.67-1v1a5.4,5.4,0,0,0,.17,1.47,3.05,3.05,0,0,0,.48,1.06,2.28,2.28,0,0,0,.72.64,2,2,0,0,0,.91.21,2.26,2.26,0,0,0,1-.21,2,2,0,0,0,.71-.64,3,3,0,0,0,.42-1.06,6.44,6.44,0,0,0,.14-1.47v-1a5.4,5.4,0,0,0-.17-1.47,3.14,3.14,0,0,0-.48-1.06,2.1,2.1,0,0,0-.73-.64,2.06,2.06,0,0,0-1.81,0,2.16,2.16,0,0,0-.72.64,3.34,3.34,0,0,0-.47,1.06A5.4,5.4,0,0,0,525.89,185.74Z"/><path class="cls-2" d="M539.22,188.71A1.29,1.29,0,0,0,539,188a2,2,0,0,0-.62-.56,7.67,7.67,0,0,0-1.16-.59c-.47-.19-.89-.39-1.26-.58a4.35,4.35,0,0,1-1-.63,2.16,2.16,0,0,1-.59-.79,2.45,2.45,0,0,1-.2-1.06,2.66,2.66,0,0,1,.23-1.13,2.7,2.7,0,0,1,.65-.92,3,3,0,0,1,1-.62,3.75,3.75,0,0,1,1.33-.22,3.63,3.63,0,0,1,1.78.4,2.75,2.75,0,0,1,1.13,1.11,3.22,3.22,0,0,1,.39,1.58h-1.66a1.71,1.71,0,0,0-.19-.8,1.56,1.56,0,0,0-.55-.62,1.63,1.63,0,0,0-.9-.24,1.82,1.82,0,0,0-.9.2,1.14,1.14,0,0,0-.51.51,1.63,1.63,0,0,0-.15.7,1.15,1.15,0,0,0,.08.48,1,1,0,0,0,.27.38,2.91,2.91,0,0,0,.55.36c.23.12.52.26.88.42a11.94,11.94,0,0,1,1.74.82,3.21,3.21,0,0,1,1.08,1,2.49,2.49,0,0,1,.37,1.38,3,3,0,0,1-.24,1.21,2.63,2.63,0,0,1-.69.93,3,3,0,0,1-1.06.59,4.55,4.55,0,0,1-1.38.2,3.91,3.91,0,0,1-1.95-.45,3.24,3.24,0,0,1-1.21-1.2,3.3,3.3,0,0,1-.41-1.59h1.67a2,2,0,0,0,.33,1.11,1.59,1.59,0,0,0,.72.55,2.54,2.54,0,0,0,.85.15,2.31,2.31,0,0,0,.93-.17,1.27,1.27,0,0,0,.57-.47A1.35,1.35,0,0,0,539.22,188.71Z"/><path class="cls-2" d="M552.77,185.13l0,1.23h-1.16a4.57,4.57,0,0,0-1.08.13,2.55,2.55,0,0,0-.83.39,1.66,1.66,0,0,0-.54.61,1.92,1.92,0,0,0-.18.84,2.4,2.4,0,0,0,.17,1,1,1,0,0,0,.51.52,2,2,0,0,0,.86.16,2,2,0,0,0,1.11-.29,2.23,2.23,0,0,0,.75-.71,1.3,1.3,0,0,0,.25-.77l.37.78a2.76,2.76,0,0,1-.24.8,3.32,3.32,0,0,1-.56.82,2.84,2.84,0,0,1-.85.64,2.28,2.28,0,0,1-1.09.25,3.34,3.34,0,0,1-1.55-.34,2.37,2.37,0,0,1-1-1,3.25,3.25,0,0,1-.37-1.63,3.58,3.58,0,0,1,.26-1.36,3.09,3.09,0,0,1,.75-1.08,3.49,3.49,0,0,1,1.26-.71,5.53,5.53,0,0,1,1.76-.26Zm-.26,4.45V184a2.21,2.21,0,0,0-.18-1,1.15,1.15,0,0,0-.55-.54,2.21,2.21,0,0,0-.91-.17,1.75,1.75,0,0,0-.91.22,1.47,1.47,0,0,0-.59.57,1.67,1.67,0,0,0-.2.8H547.5a2.65,2.65,0,0,1,.24-1.09,3.24,3.24,0,0,1,.69-1,3.49,3.49,0,0,1,1.09-.69,3.68,3.68,0,0,1,1.43-.26,4.33,4.33,0,0,1,1.67.3,2.43,2.43,0,0,1,1.15,1,3.59,3.59,0,0,1,.41,1.83v5a8.34,8.34,0,0,0,.08,1.08,4.53,4.53,0,0,0,.23,1v.15h-1.72a2.85,2.85,0,0,1-.19-.8A6.41,6.41,0,0,1,552.51,189.58Z"/><path class="cls-2" d="M560.3,190.09a2.06,2.06,0,0,0,.91-.2,1.63,1.63,0,0,0,.68-.65,2.57,2.57,0,0,0,.3-1.14h1.57a3.64,3.64,0,0,1-.52,1.79,3.36,3.36,0,0,1-1.24,1.19,3.41,3.41,0,0,1-1.7.43,4.16,4.16,0,0,1-1.72-.32,3,3,0,0,1-1.21-.93,4.25,4.25,0,0,1-.71-1.48,7.48,7.48,0,0,1-.23-2v-1.16a7.48,7.48,0,0,1,.23-2,4.25,4.25,0,0,1,.71-1.48,3,3,0,0,1,1.21-.93,4.16,4.16,0,0,1,1.72-.32,3.48,3.48,0,0,1,1.8.44,3,3,0,0,1,1.19,1.26,4.79,4.79,0,0,1,.47,2h-1.57a3.57,3.57,0,0,0-.27-1.26,1.69,1.69,0,0,0-.65-.76,1.77,1.77,0,0,0-1-.25,2.35,2.35,0,0,0-1.09.23,1.73,1.73,0,0,0-.67.67,3.26,3.26,0,0,0-.35,1,9.12,9.12,0,0,0-.09,1.34v1.16a9.36,9.36,0,0,0,.09,1.35,3.26,3.26,0,0,0,.34,1,1.69,1.69,0,0,0,.68.67A2.35,2.35,0,0,0,560.3,190.09Z"/><path class="cls-2" d="M569.42,181.12v1.34h-4.77v-1.34Zm-3.21-2.49h1.67V188.8a1.8,1.8,0,0,0,.13.78.69.69,0,0,0,.32.35,1.18,1.18,0,0,0,.43.08,1.73,1.73,0,0,0,.37,0l.29-.07v1.42a2.64,2.64,0,0,1-.46.13,3.41,3.41,0,0,1-.71.06,2,2,0,0,1-1-.25,1.84,1.84,0,0,1-.75-.86,3.78,3.78,0,0,1-.28-1.61Z"/><path class="cls-2" d="M570.87,186.71v-1a6.63,6.63,0,0,1,.3-2.09,4.32,4.32,0,0,1,.84-1.51,3.63,3.63,0,0,1,1.26-.91,3.9,3.9,0,0,1,1.53-.3,4,4,0,0,1,1.56.3,3.63,3.63,0,0,1,1.26.91,4.32,4.32,0,0,1,.84,1.51,6.61,6.61,0,0,1,.31,2.09v1a6.61,6.61,0,0,1-.31,2.09,4.32,4.32,0,0,1-.84,1.51,3.36,3.36,0,0,1-1.25.9,4.15,4.15,0,0,1-3.1,0,3.53,3.53,0,0,1-1.25-.9,4.19,4.19,0,0,1-.85-1.51A6.63,6.63,0,0,1,570.87,186.71Zm1.67-1v1a5.82,5.82,0,0,0,.17,1.47,3.05,3.05,0,0,0,.48,1.06,2.21,2.21,0,0,0,.73.64,1.93,1.93,0,0,0,.9.21,2.26,2.26,0,0,0,1-.21,2,2,0,0,0,.71-.64,3,3,0,0,0,.42-1.06,6.4,6.4,0,0,0,.15-1.47v-1a5.82,5.82,0,0,0-.17-1.47,3.35,3.35,0,0,0-.49-1.06,2,2,0,0,0-.73-.64,2,2,0,0,0-.91-.21,1.91,1.91,0,0,0-.89.21,2.1,2.1,0,0,0-.73.64,3.34,3.34,0,0,0-.47,1.06A5.82,5.82,0,0,0,572.54,185.74Z"/><path class="cls-2" d="M582.59,182.72v8.6h-1.67v-10.2h1.61Zm2.53-1.66v1.62l-.37-.06h-.38a1.7,1.7,0,0,0-.83.19,1.88,1.88,0,0,0-.61.52,2.79,2.79,0,0,0-.4.81,5.11,5.11,0,0,0-.21,1l-.43.29a10.57,10.57,0,0,1,.14-1.74,5.41,5.41,0,0,1,.46-1.44,2.62,2.62,0,0,1,.8-1,1.88,1.88,0,0,1,1.16-.35,2,2,0,0,1,.38,0A.89.89,0,0,1,585.12,181.06Z"/><path class="cls-2" d="M590.28,191.51a4.82,4.82,0,0,1-1.66-.27,3.14,3.14,0,0,1-1.25-.84,3.55,3.55,0,0,1-.79-1.42,6.4,6.4,0,0,1-.28-2V185.8a7.16,7.16,0,0,1,.32-2.28,4,4,0,0,1,.85-1.5,3.28,3.28,0,0,1,1.22-.83,3.74,3.74,0,0,1,1.4-.26,3.87,3.87,0,0,1,1.64.31,2.66,2.66,0,0,1,1.1.92,4.24,4.24,0,0,1,.63,1.51,9.2,9.2,0,0,1,.2,2.07v1h-6.38v-1.42H592v-.24a5.73,5.73,0,0,0-.21-1.4,2,2,0,0,0-.57-.94,1.65,1.65,0,0,0-1.12-.35,2.2,2.2,0,0,0-.86.16,1.54,1.54,0,0,0-.67.53,3,3,0,0,0-.43,1.06,7.8,7.8,0,0,0-.16,1.69V187a5.82,5.82,0,0,0,.16,1.41,2.65,2.65,0,0,0,.46,1,1.91,1.91,0,0,0,.76.56,2.51,2.51,0,0,0,1,.19,2.67,2.67,0,0,0,1.39-.33,3.41,3.41,0,0,0,1-.83l.88,1a3.88,3.88,0,0,1-.72.75,3.74,3.74,0,0,1-1.07.57A4.6,4.6,0,0,1,590.28,191.51Z"/><path class="cls-2" d="M600.63,188.71a1.28,1.28,0,0,0-.18-.68,2.16,2.16,0,0,0-.62-.56,7.67,7.67,0,0,0-1.16-.59c-.47-.19-.89-.39-1.27-.58a4.61,4.61,0,0,1-.95-.63,2.41,2.41,0,0,1-.59-.79,2.6,2.6,0,0,1-.2-1.06,2.82,2.82,0,0,1,.23-1.13,2.88,2.88,0,0,1,.66-.92,2.91,2.91,0,0,1,1-.62,3.71,3.71,0,0,1,1.33-.22,3.63,3.63,0,0,1,1.78.4,2.81,2.81,0,0,1,1.13,1.11,3.22,3.22,0,0,1,.39,1.58h-1.66a1.71,1.71,0,0,0-.19-.8,1.51,1.51,0,0,0-.56-.62,1.58,1.58,0,0,0-.89-.24,1.89,1.89,0,0,0-.91.2,1.17,1.17,0,0,0-.5.51,1.5,1.5,0,0,0-.16.7,1.34,1.34,0,0,0,.08.48,1.1,1.1,0,0,0,.28.38,2.52,2.52,0,0,0,.54.36c.23.12.53.26.88.42a11.62,11.62,0,0,1,1.75.82,3.31,3.31,0,0,1,1.08,1,2.49,2.49,0,0,1,.36,1.38,3,3,0,0,1-.24,1.21,2.6,2.6,0,0,1-.68.93,3.13,3.13,0,0,1-1.06.59,4.55,4.55,0,0,1-1.38.2,3.91,3.91,0,0,1-2-.45,3.17,3.17,0,0,1-1.21-1.2,3.3,3.3,0,0,1-.41-1.59H597a2,2,0,0,0,.32,1.11,1.56,1.56,0,0,0,.73.55,2.5,2.5,0,0,0,.85.15,2.31,2.31,0,0,0,.93-.17,1.27,1.27,0,0,0,.57-.47A1.35,1.35,0,0,0,600.63,188.71Z"/><path class="cls-2" d="M255,196.92a1.07,1.07,0,0,1,.24-.71.82.82,0,0,1,.7-.29.86.86,0,0,1,.72.29,1.16,1.16,0,0,1,0,1.41.89.89,0,0,1-.72.29.85.85,0,0,1-.7-.29A1.06,1.06,0,0,1,255,196.92Zm1.75,2.71v10.21h-1.66V199.63Z"/><path class="cls-2" d="M261,201.81v8h-1.67V199.63h1.57Zm-.41,2.54-.68,0a6.7,6.7,0,0,1,.24-1.94,5.15,5.15,0,0,1,.72-1.55,3.29,3.29,0,0,1,1.12-1,3.05,3.05,0,0,1,2.57-.16,2.1,2.1,0,0,1,.87.64,3.16,3.16,0,0,1,.55,1.15,6.47,6.47,0,0,1,.2,1.71v6.69h-1.67v-6.71a3.85,3.85,0,0,0-.18-1.29,1.25,1.25,0,0,0-.53-.7,1.61,1.61,0,0,0-.89-.22,1.64,1.64,0,0,0-.91.27,2.41,2.41,0,0,0-.74.75,3.8,3.8,0,0,0-.49,1.1A4.66,4.66,0,0,0,260.63,204.35Z"/><path class="cls-2" d="M269.6,199.63l2.29,8.68.18,1.53H271l-3.07-10.21Zm1.77,8.64,2.19-8.64h1.69l-3,10.21h-1.11Z"/><path class="cls-2" d="M276.5,205.23v-1a6.58,6.58,0,0,1,.3-2.09,4.24,4.24,0,0,1,.84-1.51,3.51,3.51,0,0,1,1.26-.91,3.91,3.91,0,0,1,1.53-.31,4,4,0,0,1,1.56.31,3.51,3.51,0,0,1,1.26.91,4.24,4.24,0,0,1,.84,1.51,6.3,6.3,0,0,1,.31,2.09v1a6.34,6.34,0,0,1-.31,2.09,4.33,4.33,0,0,1-.83,1.5,3.51,3.51,0,0,1-1.26.91,4,4,0,0,1-1.55.3,3.92,3.92,0,0,1-1.54-.3,3.51,3.51,0,0,1-1.26-.91,4.06,4.06,0,0,1-.85-1.5A6.63,6.63,0,0,1,276.5,205.23Zm1.67-1v1a5.82,5.82,0,0,0,.17,1.47,3.14,3.14,0,0,0,.48,1.06,2.07,2.07,0,0,0,.73.63,2,2,0,0,0,.9.21,2.26,2.26,0,0,0,1-.21,1.86,1.86,0,0,0,.71-.63,3.31,3.31,0,0,0,.43-1.06,7.05,7.05,0,0,0,.14-1.47v-1a5.82,5.82,0,0,0-.17-1.47,3.58,3.58,0,0,0-.48-1.06,2,2,0,0,0-.74-.64,2,2,0,0,0-.91-.21,1.92,1.92,0,0,0-1.61.85,3.14,3.14,0,0,0-.48,1.06A5.82,5.82,0,0,0,278.17,204.26Z"/><path class="cls-2" d="M288.34,195.35v14.49h-1.66V195.35Z"/><path class="cls-2" d="M296.45,205.33l.66,0a9.19,9.19,0,0,1-.17,1.88,4.6,4.6,0,0,1-.57,1.5,2.79,2.79,0,0,1-1,1,3.28,3.28,0,0,1-1.57.35,2.81,2.81,0,0,1-1.15-.22,2.31,2.31,0,0,1-.89-.67,3,3,0,0,1-.57-1.18,6.28,6.28,0,0,1-.21-1.74v-6.59h1.66v6.61a4,4,0,0,0,.13,1.13,1.88,1.88,0,0,0,.33.71,1.19,1.19,0,0,0,.46.36,1.35,1.35,0,0,0,.52.11,2.2,2.2,0,0,0,1.41-.43,2.36,2.36,0,0,0,.76-1.16A5.22,5.22,0,0,0,296.45,205.33Zm-.31,2.15v-7.85h1.67v10.21h-1.58Z"/><path class="cls-2" d="M303.86,208.6a2,2,0,0,0,.91-.2,1.58,1.58,0,0,0,.67-.64,2.45,2.45,0,0,0,.31-1.15h1.56a3.51,3.51,0,0,1-.51,1.79,3.42,3.42,0,0,1-1.25,1.2,3.35,3.35,0,0,1-1.69.43,4.33,4.33,0,0,1-1.72-.32,3.1,3.1,0,0,1-1.21-.93,4.16,4.16,0,0,1-.71-1.48,7.54,7.54,0,0,1-.24-2v-1.15a7.46,7.46,0,0,1,.24-2,4.13,4.13,0,0,1,.71-1.49,3.2,3.2,0,0,1,1.21-.93,4.33,4.33,0,0,1,1.72-.32,3.58,3.58,0,0,1,1.8.44,3.11,3.11,0,0,1,1.19,1.27,4.6,4.6,0,0,1,.46,2h-1.56a3.45,3.45,0,0,0-.28-1.26,1.64,1.64,0,0,0-.64-.75,1.77,1.77,0,0,0-1-.25,2.23,2.23,0,0,0-1.09.23,1.58,1.58,0,0,0-.67.66,3.11,3.11,0,0,0-.35,1,7.91,7.91,0,0,0-.1,1.35v1.15a8.11,8.11,0,0,0,.1,1.36,3.35,3.35,0,0,0,.34,1,1.6,1.6,0,0,0,.68.66A2.2,2.2,0,0,0,303.86,208.6Z"/><path class="cls-2" d="M310.92,201.24v8.6h-1.67V199.63h1.61Zm2.53-1.66v1.62l-.37-.06-.38,0a1.81,1.81,0,0,0-.83.19,1.92,1.92,0,0,0-.61.53,2.79,2.79,0,0,0-.4.81,5.11,5.11,0,0,0-.21,1l-.43.28a10.54,10.54,0,0,1,.14-1.73,5.41,5.41,0,0,1,.46-1.44,2.54,2.54,0,0,1,.8-1,1.88,1.88,0,0,1,1.16-.36,2.09,2.09,0,0,1,.38.05A.56.56,0,0,1,313.45,199.58Z"/><path class="cls-2" d="M320,203.65l0,1.23h-1.16a4,4,0,0,0-1.08.13,2.94,2.94,0,0,0-.84.38,1.74,1.74,0,0,0-.53.62,1.92,1.92,0,0,0-.18.84,2.27,2.27,0,0,0,.17,1,1,1,0,0,0,.51.52,1.92,1.92,0,0,0,.85.16,2.15,2.15,0,0,0,1.12-.29,2.33,2.33,0,0,0,.75-.71,1.32,1.32,0,0,0,.25-.77l.37.78a2.52,2.52,0,0,1-.25.8,3.23,3.23,0,0,1-.56.82,3,3,0,0,1-.84.64,2.3,2.3,0,0,1-1.09.25,3.31,3.31,0,0,1-1.55-.34,2.45,2.45,0,0,1-1-1,3.39,3.39,0,0,1-.36-1.63,3.54,3.54,0,0,1,.25-1.36,2.83,2.83,0,0,1,.76-1.08,3.35,3.35,0,0,1,1.26-.71,5.48,5.48,0,0,1,1.76-.26Zm-.26,4.45v-5.54a2.17,2.17,0,0,0-.19-1,1.07,1.07,0,0,0-.55-.54,2,2,0,0,0-.91-.17,1.88,1.88,0,0,0-.91.21,1.54,1.54,0,0,0-.78,1.37h-1.67a2.64,2.64,0,0,1,.24-1.08,3.12,3.12,0,0,1,.69-1,3.58,3.58,0,0,1,1.09-.7,3.8,3.8,0,0,1,1.43-.26,4.32,4.32,0,0,1,1.67.31,2.4,2.4,0,0,1,1.14,1,3.47,3.47,0,0,1,.42,1.83v5a7,7,0,0,0,.08,1.09,4.82,4.82,0,0,0,.23,1v.15H320a3.73,3.73,0,0,1-.19-.81A7.88,7.88,0,0,1,319.76,208.1Z"/><path class="cls-2" d="M323.65,205.23v-1a8.14,8.14,0,0,1,.25-2.17,4,4,0,0,1,.7-1.5,2.82,2.82,0,0,1,1.08-.87,3.37,3.37,0,0,1,1.4-.29,2.76,2.76,0,0,1,1.36.32,2.84,2.84,0,0,1,1,.93,5.15,5.15,0,0,1,.61,1.48,11.53,11.53,0,0,1,.29,1.94v1.28a11.51,11.51,0,0,1-.3,1.93,5,5,0,0,1-.61,1.46,2.75,2.75,0,0,1-1,.93,2.83,2.83,0,0,1-1.37.32,3,3,0,0,1-2.46-1.19,4.35,4.35,0,0,1-.7-1.5A7.88,7.88,0,0,1,323.65,205.23Zm1.67-1v1a7.86,7.86,0,0,0,.12,1.47,3.23,3.23,0,0,0,.39,1,1.59,1.59,0,0,0,.68.61,2.25,2.25,0,0,0,1,.2,1.78,1.78,0,0,0,1.14-.34,2.48,2.48,0,0,0,.72-.9,6.66,6.66,0,0,0,.43-1.21v-2.68a5.3,5.3,0,0,0-.28-.93,3.52,3.52,0,0,0-.45-.81,2.06,2.06,0,0,0-.65-.56,1.8,1.8,0,0,0-.89-.2,2.19,2.19,0,0,0-1,.2,1.65,1.65,0,0,0-.68.63,2.82,2.82,0,0,0-.39,1A7.21,7.21,0,0,0,325.32,204.27Zm4,3.59V195.35H331v14.49H329.5Z"/><path class="cls-2" d="M333.25,205.23v-1a6.58,6.58,0,0,1,.3-2.09,4.24,4.24,0,0,1,.84-1.51,3.56,3.56,0,0,1,1.25-.91,4,4,0,0,1,1.54-.31,4,4,0,0,1,1.56.31,3.51,3.51,0,0,1,1.26.91,4.24,4.24,0,0,1,.84,1.51,6.58,6.58,0,0,1,.3,2.09v1a6.63,6.63,0,0,1-.3,2.09,4.19,4.19,0,0,1-.84,1.5,3.47,3.47,0,0,1-1.25.91,4.15,4.15,0,0,1-3.1,0,3.6,3.6,0,0,1-1.26-.91,4.19,4.19,0,0,1-.84-1.5A6.63,6.63,0,0,1,333.25,205.23Zm1.67-1v1a5.4,5.4,0,0,0,.17,1.47,3.14,3.14,0,0,0,.48,1.06,2.13,2.13,0,0,0,.72.63,2,2,0,0,0,.91.21,2.26,2.26,0,0,0,1-.21,1.86,1.86,0,0,0,.71-.63,3.09,3.09,0,0,0,.42-1.06,6.44,6.44,0,0,0,.14-1.47v-1a5.4,5.4,0,0,0-.17-1.47,3.14,3.14,0,0,0-.48-1.06,2,2,0,0,0-2.54-.64,2.06,2.06,0,0,0-.72.64,3.34,3.34,0,0,0-.47,1.06A5.4,5.4,0,0,0,334.92,204.26Z"/><path class="cls-2" d="M348.25,207.23a1.26,1.26,0,0,0-.19-.68,1.93,1.93,0,0,0-.62-.57,7.76,7.76,0,0,0-1.16-.58c-.47-.2-.89-.39-1.26-.58a4.75,4.75,0,0,1-.95-.63,2.25,2.25,0,0,1-.59-.79,2.48,2.48,0,0,1-.2-1.06,2.7,2.7,0,0,1,.23-1.14,2.8,2.8,0,0,1,.65-.92,3,3,0,0,1,1-.61,3.75,3.75,0,0,1,1.33-.23,3.63,3.63,0,0,1,1.78.41,2.75,2.75,0,0,1,1.13,1.11,3.19,3.19,0,0,1,.39,1.58h-1.66a1.71,1.71,0,0,0-.19-.8,1.5,1.5,0,0,0-.55-.62,1.63,1.63,0,0,0-.9-.24,1.72,1.72,0,0,0-.9.2,1.14,1.14,0,0,0-.51.51,1.58,1.58,0,0,0-.15.69,1.23,1.23,0,0,0,.08.49,1,1,0,0,0,.27.38,4.39,4.39,0,0,0,.55.36c.23.12.52.26.88.42a11.94,11.94,0,0,1,1.74.82,3.11,3.11,0,0,1,1.08,1,2.49,2.49,0,0,1,.37,1.38,3,3,0,0,1-.24,1.21,2.63,2.63,0,0,1-.69.93,3.2,3.2,0,0,1-1.06.59,4.55,4.55,0,0,1-1.38.2,3.8,3.8,0,0,1-1.95-.46,3.1,3.1,0,0,1-1.21-1.2,3.25,3.25,0,0,1-.41-1.59h1.67a2,2,0,0,0,.33,1.12,1.57,1.57,0,0,0,.72.54,2.56,2.56,0,0,0,.85.16,2.31,2.31,0,0,0,.93-.17,1.18,1.18,0,0,0,.57-.48A1.32,1.32,0,0,0,348.25,207.23Z"/><path class="cls-2" d="M352.21,208.92a1,1,0,0,1,.28-.75,1.2,1.2,0,0,1,1.61,0,1,1,0,0,1,.28.75,1,1,0,0,1-.28.73,1.23,1.23,0,0,1-1.61,0A1,1,0,0,1,352.21,208.92Z"/><path class="cls-3" d="M96.53,178.91c-6.57-7.88-7-15.84-1.43-22.24a15.47,15.47,0,0,1,19.83-2.92c7.26,4.55,9,12.21,4.88,22.06a21.3,21.3,0,0,0,7.48-5c3.58-3.51,7.1-7.08,10.64-10.62q3-3,6-6c3.55-3.51,8.05-3.73,11.16-.56s2.83,7.58-.74,11.16Q143,176.21,131.55,187.6c-1.83,1.83-3.61,3.71-5.5,5.47a5.66,5.66,0,0,0-1.84,4.52c.07,7.2,0,14.4.06,21.59,0,1.66-.38,2.19-2.12,2.18q-20.25-.12-40.5,0c-1.73,0-2.16-.49-2.13-2.17.1-6.14,0-12.29,0-18.43,0-10.48,5.72-18.25,15.68-21.38C95.62,179.26,96,179.11,96.53,178.91Zm10.22,38.51c3.8,0,7.61-.12,11.4.05,1.91.08,2.26-.6,2.23-2.33-.11-5.58.09-11.17-.09-16.74a10.74,10.74,0,0,1,3.51-8.61c9.19-9,18.23-18.15,27.31-27.25a10.34,10.34,0,0,0,1.73-2,3.47,3.47,0,0,0-2.28-5.13c-1.72-.38-2.91.56-4,1.69-5.37,5.39-10.76,10.74-16.12,16.14a28.6,28.6,0,0,1-13.92,7.94,2.8,2.8,0,0,0-2.47,2.41c-1,4-3.81,6.55-7,6.66s-6.06-2.08-7.35-6c-.47-1.44-1-1.65-2.39-1.38C90,184.33,83.9,191,83.55,198.55c-.27,5.81-.06,11.65-.11,17.47,0,1,.3,1.5,1.38,1.41a9.35,9.35,0,0,1,2.18,0c1.76.25,2.35-.32,2.31-2.21-.12-6.3,0-12.61-.08-18.92,0-1.59.25-2.26,2.06-2.26s1.91.76,1.9,2.17c0,6.31,0,12.62-.06,18.93,0,1.73.3,2.41,2.22,2.33C99.14,217.3,103,217.42,106.75,217.42Zm11.64-50.52a11.64,11.64,0,1,0-11.73,11.67A11.7,11.7,0,0,0,118.39,166.9Zm-11.6,15.58a4.39,4.39,0,0,0-1,0c-.8.18-2-.55-2.34.45s.66,1.88,1.4,2.62a3.09,3.09,0,0,0,.6.39,2.51,2.51,0,0,0,3.27-.55c.7-.66,1.6-1.59,1.27-2.43-.47-1.18-1.83-.24-2.76-.49A1.93,1.93,0,0,0,106.79,182.48Z"/><path class="cls-3" d="M167,153.09c-3.73-2.49-7.16-4.59-10.38-7a12.31,12.31,0,0,0-8.28-2.57c-2.19.09-4-.05-5.56,2-1.29,1.72-3.58,2.12-5.77,1.92a6.52,6.52,0,0,0-4.49,1.35c-3.84,2.67-7.77,5.22-11.9,8a33.91,33.91,0,0,1-.2-7.29c0-1.57-.4-2.08-2-2-4.93.1-9.86,0-14.8,0-5.3,0-8.44-3.16-8.46-8.46q0-9.1,0-18.2c0-5.12,3.22-8.29,8.37-8.3,10.68,0,21.36,0,32,0,1.67,0,2.36-.22,2.38-2.17a9.46,9.46,0,0,1,9.64-9.49q21.35-.09,42.71,0a9.56,9.56,0,0,1,9.72,9.69q.11,11.64,0,23.29a9.6,9.6,0,0,1-9.72,9.71c-6.87.07-13.75.14-20.62,0-2.37-.07-2.85.76-2.69,2.85S167,150.56,167,153.09Zm-3.9-7.32a23.92,23.92,0,0,0,0-3.35c-.36-2.29.64-2.76,2.78-2.73,8,.12,16,.08,24,0,3.84,0,6.21-2.38,6.24-6.2q.06-11.28,0-22.55c0-3.72-2.37-6.15-6-6.16q-21.1-.06-42.2,0a5.73,5.73,0,0,0-6.1,6.08q-.07,11.4,0,22.8c0,3.57,2.42,6.29,5.9,5.94,4.9-.5,8.79,1.19,12.41,4.14C160.84,144.43,161.76,144.92,163.06,145.77Zm-38.82,3.92c2.35-1.57,4.3-2.74,6.09-4.1a8.44,8.44,0,0,1,6.49-2,4.23,4.23,0,0,0,2.82-.49c1.22-.76,2.05-1.46.6-2.93a9.29,9.29,0,0,1-2.44-6.9c0-4.93,0-9.87,0-14.8,0-1.52-.31-2.09-2-2.07-10.76.07-21.52,0-32.28,0-3.16,0-4.58,1.44-4.59,4.6q0,9,0,18c0,3.16,1.44,4.58,4.61,4.6,5.5,0,11,0,16.5,0,4.09,0,4.09,0,4.13,4Z"/><path class="cls-3" d="M175,182.26c-8.72-3.82-12.6-9.43-11.88-16.87A15.57,15.57,0,0,1,192,159.07c3.74,6.33,2.69,13-3.12,19.71.07.12.12.31.23.35,7.71,2.92,11.09,8.55,10.9,16.72-.18,7.76-.08,15.53,0,23.29,0,1.6-.27,2.24-2.07,2.22-9.7-.09-19.41-.07-29.11,0-1.47,0-2.14-.37-1.88-1.89a3.84,3.84,0,0,0,0-.48c0-5.43,0-5.43-5.58-5.43-4.12,0-8.24,0-12.37,0s-7.28-2.89-7.28-6.79,3-6.77,7.26-6.8c5.58,0,11.16,0,16.74,0,1.27,0,1.88-.38,2.16-1.62.49-2.13,1.15-4.21,1.66-6.33C170.42,188.34,171.82,185,175,182.26Zm21.08,22.3c0-3.4,0-6.8,0-10.19,0-6.34-4.06-11.1-9.94-11.83-5.7-.7-10.71,2.92-12.38,9-1,3.51-2,7-2.84,10.53-.35,1.49-1,1.87-2.49,1.85-6.23-.07-12.46,0-18.69,0-2.76,0-4.16,1-4.11,3s1.32,2.82,4,2.82c7.2,0,14.4,0,21.6,0,3.28,0,4.26-.71,5.3-3.82,1.83-5.44,3.65-10.88,5.42-16.33.4-1.25.74-1.95,2.31-1.31,1.29.52,2.07.78,1.48,2.48-2,5.71-3.84,11.49-5.8,17.22-1.19,3.49-3.64,5.6-7.37,5.59-2,0-1.66,1.08-1.77,2.29-.12,1.5.61,1.68,1.86,1.67,7.2-.05,14.4-.07,21.6,0,1.61,0,1.86-.59,1.83-2C196,211.84,196.07,208.2,196.07,204.56Zm-5.83-37.69a11.64,11.64,0,1,0-11.69,11.7A11.68,11.68,0,0,0,190.24,166.87Z"/><path class="cls-3" d="M168.89,124.21c7,0,14.07,0,21.11,0,1.55,0,2.29.2,2.27,2s-.71,1.92-2.15,1.92q-21.23-.06-42.46,0c-1.42,0-2.14-.16-2.15-1.91s.71-2.06,2.27-2C154.82,124.25,161.85,124.21,168.89,124.21Z"/><path class="cls-3" d="M168.65,135.87c-7,0-13.91,0-20.87,0-1.56,0-2.28-.2-2.27-2s.72-1.91,2.15-1.91q21.24.06,42.46,0c1.44,0,2.14.17,2.15,1.91s-.71,2.06-2.27,2C182.88,135.83,175.77,135.87,168.65,135.87Z"/><path class="cls-3" d="M164.76,120.34c-5.74,0-11.48-.06-17.22,0-1.64,0-2-.51-2-2.06s.36-1.93,1.89-1.92q17.6.1,35.18,0c1.54,0,1.87.49,1.89,1.93s-.4,2.07-2,2C176.57,120.28,170.66,120.34,164.76,120.34Z"/><path class="cls-3" d="M176.66,108.67c4.52,0,9.05.07,13.58,0,1.62,0,2,.49,2,2.05s-.34,1.94-1.88,1.93q-13.71-.12-27.41,0c-1.54,0-1.88-.47-1.9-1.93s.38-2.09,2-2.05C167.6,108.74,172.13,108.67,176.66,108.67Z"/><path class="cls-3" d="M147.56,108.72c1.74-.42,1.9.52,2,2,.09,1.79-.76,1.85-2.15,1.92-1.59.07-1.84-.56-1.86-2S145.88,108.33,147.56,108.72Z"/><path class="cls-3" d="M157.17,110.63c.5,2-.75,1.87-2,2-1.64.13-1.76-.65-1.82-2-.08-1.63.52-2,2.06-2S157.64,109.11,157.17,110.63Z"/><path class="cls-3" d="M190.41,116.5c2.18-.51,1.67,1,1.81,2.17.26,2.07-1.17,1.54-2.31,1.69-1.88.24-1.5-1-1.63-2.13C188.05,116.35,189.09,116.24,190.41,116.5Z"/><path class="cls-3" d="M118.4,128.09c4.53,0,9.06.07,13.58,0,1.63,0,2,.49,2,2s-.35,1.94-1.89,1.92q-13.71-.11-27.41,0c-1.53,0-1.88-.46-1.89-1.92s.37-2.09,2-2C109.34,128.16,113.87,128.09,118.4,128.09Z"/><path class="cls-3" d="M118.39,139.76c-4.61,0-9.22-.09-13.83,0-1.73,0-1.73-.81-1.73-2.07s.06-1.92,1.63-1.91q14,.1,27.9,0c1.6,0,1.59.78,1.61,1.94s-.05,2.08-1.75,2C127.61,139.68,123,139.76,118.39,139.76Z"/><path class="cls-3" d="M122,124.22c-3.15,0-6.31-.09-9.45,0-1.63.06-2-.5-2-2.05s.35-1.94,1.89-1.92q9.83.12,19.65,0c1.53,0,1.87.47,1.89,1.92s-.38,2.11-2,2.05C128.68,124.13,125.36,124.22,122,124.22Z"/><path class="cls-3" d="M104.74,124.17c-1.8.45-1.83-.62-1.93-2-.14-1.85.84-1.8,2.17-1.88,1.65-.11,1.78.65,1.82,2C106.86,123.88,106.36,124.54,104.74,124.17Z"/></g></g></svg>