<svg xmlns="http://www.w3.org/2000/svg" viewBox="0 0 190.16 190.23"><defs><style>.cls-1{fill:#6c2910;}</style></defs><g id="Capa_2" data-name="Capa 2"><g id="Capa_1-2" data-name="Capa 1"><path class="cls-1" d="M122.66,114.86c-1.47,5.78-1.62,11.57-1.73,17.35-.07,3.94-1.68,8.65.42,11.6s7.14,2.68,10.87,3.88c4.82,1.57,9.72,2.88,14.57,4.32,13.81,4.11,18.86,18.48,10.67,30.39-.26.39-.51.79-1.14,1.76h11c6.19,0,12.38,0,18.56,0,2.2,0,4.2.43,4.16,3s-2.09,3-4.26,2.94c-.74,0-1.49,0-2.23,0q-88.53,0-177,0c-2.5,0-6.35,1.14-6.26-3s3.94-2.82,6.43-2.85c8.87-.12,17.75-.05,27.2-.05-3.29-4.45-5.24-8.83-5.06-14a18.89,18.89,0,0,1,13.63-17.89c8-2.39,16.13-4.7,24.18-7.08,1.23-.36,2.84-.38,2.8-2.34-.17-9.26.14-18.55-1.83-28-2.52,1.35-4,3.44-5.77,5.22a22.42,22.42,0,0,1-17,7c-11-.09-22,.11-33,0a11.94,11.94,0,0,1-3.07-23.45,11.51,11.51,0,0,1,3.66-.34,2.52,2.52,0,0,1,2.46,2.34A2.7,2.7,0,0,1,13,108.8c-.68.25-1.46.23-2.17.42-3.15.84-4.94,2.93-4.76,6.17S8.22,121,11.44,121q18.36.23,36.74-.13c3.72-.07,6.71-2.35,9.31-4.93q5.65-5.62,11.26-11.31c1.41-1.43,3-2.58,4.83-1.11s1.44,3.26-.09,4.78a2.61,2.61,0,0,0-.63,2.73c2.48,9.7,2.4,19.62,2.49,29.5,0,2.57,1,3.08,3.29,3.07q16.52-.12,33,0c2.11,0,3.08-.44,3.11-2.83.16-10-.05-20.06,2.54-29.86a3,3,0,0,0-1-3c-1.29-1.38-1.41-3,0-4.25,1.61-1.43,3.18-.86,4.58.54,3.67,3.67,7.44,7.26,11,11a17.71,17.71,0,0,0,13.86,5.86c10.27-.14,20.54,0,30.81,0,4.52,0,7.13-2,7.49-5.5.34-3.3-1.56-5.39-6-6.53-1.76-.44-3-1.31-2.82-3.28.22-2.19,1.78-2.69,3.74-2.64,5.56.13,10.73,5.21,11.11,11,.42,6.31-4.24,12.56-10.43,12.71q-19.09.45-38.22-.13c-6.12-.19-10.73-4-14.79-8.4C125.54,117.13,124.52,115.68,122.66,114.86Zm12.45,63.07c0,6.37,0,6.37,6.52,6.23.49,0,1,0,1.48,0a13.59,13.59,0,0,0,12.08-10.87c1.07-6.19-1.94-13.06-7.53-14.62-14.42-4-28.31-10.37-43.93-9.21-9.23.69-18.55.15-27.83.12a17.74,17.74,0,0,0-5.13.64c-8.76,2.58-17.54,5.13-26.29,7.74-6.75,2-10.42,7.71-9.57,14.73a13.47,13.47,0,0,0,13,11.51c7.15.3,7.15.3,7.15-6.74,0-1,0-2,0-3,.06-1.34-.12-2.42-1.72-2.79-2.11-.5-3.41-1.82-2.54-4s2.67-2.05,4.69-1.52c7.17,1.88,14.4,3.53,21.55,5.45a7.2,7.2,0,0,0,6.52-1c6.2-4.16,11.88-3.39,16.79,2.24,1.29,1.48,2.41,1.32,3.86,1l16.17-4.07q7.55-1.89,15.1-3.78a3,3,0,0,1,3.77,1.53c.76,1.42.41,3.17-.92,3.51C134.13,172,135.13,175.11,135.11,177.93Zm-62.43,6.23h48.74c8.17,0,8.09,0,7.75-8.06-.09-2.19-.75-2.34-2.65-1.83-8,2.1-16,4-24,6.07-2.82.72-4.87.62-6.16-2.7-1.4-3.6-5.06-4.87-8.25-2.85C83.07,178,77.82,180.65,72.68,184.16ZM72,176.52c-1.36-.43-2.25-.74-3.15-1-8.48-2.24-8.65-2.09-7.77,6.64.08.81-.19,1.87,1.1,1.93,1,0,2.31.47,2.71-.56C66.14,180.29,68.93,178.56,72,176.52Z"/><path class="cls-1" d="M90.08,0c53.76,0,94.28,36.55,99.47,85.2.32,3.07.42,6.16.58,9.25.12,2.22,0,4.56-2.92,4.6s-3-2.25-3-4.5a88.52,88.52,0,0,0-12.44-44.84C152.54,17.23,114.27.12,77.72,7.65,40.49,15.33,12.08,45.26,6.89,82.42,6.34,86.32,6.2,90.3,6,94.25c-.11,2.3.06,4.9-3.13,4.79S0,96.26,0,94C.45,71.57,7.52,51.48,22,34.32,41,11.74,65.65.59,90.08,0Z"/><path class="cls-1" d="M108.55,80.21c2.79,0,5.23.12,7.64,0,4.9-.31,8.55,1.91,11.72,5.33,1.33,1.44,2,3,.51,4.57a2.76,2.76,0,0,1-4.52-.21c-2.81-3.63-6.59-3.76-10.67-3.72q-19.5.16-39,0a9.33,9.33,0,0,0-7.23,3C61.32,95,55.45,100.72,49.74,106.56a7.3,7.3,0,0,1-5.88,2.52c-3.08-.12-6.19-.09-9.28,0-8.45.35-14.55-4-19.9-9.83-1.25-1.37-1.56-2.89-.14-4.28s2.9-1.09,4.32.07a3.33,3.33,0,0,1,.55.51c6.17,8.29,15,7.9,23.94,7.5,1.58-.07,2.42-1.09,3.37-2,4.82-4.81,9.83-9.44,14.38-14.49,4.22-4.68,9.07-7.08,15.4-6.36a49.14,49.14,0,0,0,5,0c-1.41-3.14-2.68-5.91-3.91-8.7a41.51,41.51,0,0,1-3.56-17.3c.06-5.25,1.86-9.89,5.87-13.12,2.68-2.16,3.28-4.42,3.25-7.58a11.68,11.68,0,0,1,11.51-12c6.62-.22,12.12,4.59,12.24,11.23.06,3.65.88,6.27,3.78,8.87,6,5.37,6,12.64,4.84,20C114.49,68.07,111.56,73.92,108.55,80.21Zm1.55-24.29c.26-8.72-6.14-15.05-15.19-15-8.76,0-15,6.41-14.86,15,.13,7.15,2.66,13.59,6.09,19.62,3.63,6.39,14.2,6.41,17.87,0C107.47,69.53,110,63.06,110.1,55.92Zm-9-22.19a5.94,5.94,0,0,0-6-6.28,6,6,0,0,0-6,6.14c0,1.69.5,2.2,2.17,1.78a16,16,0,0,1,7.71,0C100.56,35.76,101.32,35.37,101.08,33.73Z"/><path class="cls-1" d="M18.58,84.37a74.21,74.21,0,0,1,9.68-28c10.71-18,26.12-30,46.32-35.73,2.21-.63,4.35-1.06,5.07,1.78.66,2.58-1.29,3.28-3.34,3.93-29.22,9.25-46.6,28.9-51.81,59.18-.35,2-1,3.66-3.43,3.56C19.25,89,18.42,87.48,18.58,84.37Z"/><path class="cls-1" d="M171.59,84.61c.21,2.75-.5,4.18-2.41,4.4-2.39.28-3.23-1.39-3.48-3.43a63.52,63.52,0,0,0-4.29-16.45c-8.88-21.42-24.31-35.68-46.52-42.51-.59-.18-1.17-.4-1.77-.55-2-.5-3.1-1.7-2.57-3.76s2.18-2.6,4.09-2a105.6,105.6,0,0,1,11.18,3.91c25.35,11.63,40.46,31.29,45.59,58.68A14.56,14.56,0,0,1,171.59,84.61Z"/><path class="cls-1" d="M35.77,90.29C37.39,71.74,46.42,56,63.35,44.82c1.74-1.14,3.72-2.11,5.22.07,1.64,2.38-.11,3.76-2,5C51.25,59.92,43,74.11,41.7,92.32c-.17,2.34-.16,4.68-3.28,4.74C36.42,97.1,35.59,95.34,35.77,90.29Z"/><path class="cls-1" d="M154.48,91.67c0,.67,0,1.16,0,1.66.11,2-.68,3.57-2.73,3.71-2.29.14-3.17-1.42-3.24-3.6a53.23,53.23,0,0,0-24.25-43.16,11.33,11.33,0,0,1-2.62-2,2.55,2.55,0,0,1,.16-3.68c1.69-1.72,3.4-.82,5,.22a59.29,59.29,0,0,1,25.41,33.92A66.77,66.77,0,0,1,154.48,91.67Z"/><path class="cls-1" d="M152.14,109c-3,0-5.22.1-7.44,0-2.39-.13-4.22-1.38-3.92-3.91s2.14-2.64,4.48-2.3a56.77,56.77,0,0,0,14,0c4.8-.51,7.92-3.72,11.08-6.87,1.62-1.62,3.42-2.89,5.37-.79s.24,3.52-1.14,5C168.36,107.17,160.67,110.22,152.14,109Z"/><path class="cls-1" d="M12.59,133.08a3.48,3.48,0,0,1,3,2.23,89.78,89.78,0,0,0,11,16.66c1.33,1.6,1.91,3.38.08,4.87s-3.43.48-4.74-1.11a92.42,92.42,0,0,1-11.53-17.61C9.08,135.53,10.12,133.22,12.59,133.08Z"/><path class="cls-1" d="M165.59,157.5c-2.71-.1-4.11-2.59-2.56-4.58a135.65,135.65,0,0,0,12.18-18.52,2.49,2.49,0,0,1,3.55-1c1.56.78,2.22,2.17,1.51,3.69a86,86,0,0,1-12.74,19.43A2.31,2.31,0,0,1,165.59,157.5Z"/><path class="cls-1" d="M42.18,143.68a3.4,3.4,0,0,1-1.64,2.83,2.58,2.58,0,0,1-3.37-.49,44.34,44.34,0,0,1-6.49-8.46,2.78,2.78,0,0,1,.8-3.93,2.5,2.5,0,0,1,3.65.32c2.27,2.75,4.38,5.62,6.52,8.46A5.45,5.45,0,0,1,42.18,143.68Z"/><path class="cls-1" d="M156.65,133a3,3,0,0,1,2.83,4.52A40.39,40.39,0,0,1,153,146a2.59,2.59,0,0,1-3.68.26c-1.18-.92-1.84-2.24-.92-3.54,2.2-3.1,4.57-6.08,6.94-9.05C155.66,133.28,156.38,133.17,156.65,133Z"/><path class="cls-1" d="M61.65,138.13a2.85,2.85,0,0,1-4.06,2.73,13.67,13.67,0,0,1-5.32-4.94,2.91,2.91,0,0,1,2.47-4.27C56.56,131.6,61.61,136.33,61.65,138.13Z"/><path class="cls-1" d="M131.42,141.12c-2.16,0-3.75-2.33-2.56-4.12a12.74,12.74,0,0,1,5.63-5.08c2.11-.83,3.56.43,3.7,2.71C138.31,136.58,133.43,141.15,131.42,141.12Z"/><path class="cls-1" d="M138.17,96.82c-.14,2-1.23,3.18-3,3.1a3.31,3.31,0,0,1-3.32-3.32,2.63,2.63,0,0,1,2.62-3C136.62,93.54,137.68,95,138.17,96.82Z"/></g></g></svg>