<svg xmlns="http://www.w3.org/2000/svg" viewBox="0 0 60 59.93"><defs><style>.cls-1{fill:#c6875e;}</style></defs><g id="Capa_2" data-name="Capa 2"><g id="Capa_1-2" data-name="Capa 1"><path class="cls-1" d="M35.89,51.14a83.22,83.22,0,0,1-11.71,0c-.15.38.21.46.34.66a2.58,2.58,0,0,1-.62,3.8c-2.11,1.4-4.28,2.72-6.41,4.09a1.92,1.92,0,0,1-1.12.22H5.61a3,3,0,0,1-3.3-3.27c0-1.52,0-3,0-4.56a3.94,3.94,0,0,1,3-3.87c.8-.22,1-.66,1.14-1.36s-.5-.79-.85-1A16.24,16.24,0,0,1,1.8,42.56c-2.33-2.93-2.41-6-.17-9a3.16,3.16,0,0,0,.69-2.14c0-1.13,0-2.26,0-3.39a4,4,0,0,1,3-3.9A1.29,1.29,0,0,0,6.39,23,5.79,5.79,0,0,1,8.9,19.34c.47-.31.53-.57.39-1.13a15.12,15.12,0,0,1-.12-7,5.23,5.23,0,0,1,5.7-4,5.36,5.36,0,0,1,4.77,5.1c0,2.05.38,4.14-.4,6.14-.16.39.1.56.37.74a6.51,6.51,0,0,1,2.79,4.8c.08.68.33.82,1,.75,1.17-.12,2.33-.18,3.5-.25.61,0,1.24-.05,1.28.79s-.55.9-1.18.93a52.83,52.83,0,0,0-15.79,3A21.27,21.27,0,0,0,4.46,33C1,36.07,1,39.74,4.45,42.79a9.58,9.58,0,0,0,1.49,1.13c.5.3,1,1.08,1.59.67.71-.53,1.54-1.07,1.43-2.32-.15-1.78-.05-3.59,0-5.38a5.37,5.37,0,1,1,10.74,0c0,1.87,0,3.75,0,5.62a1.37,1.37,0,0,0,.49,1.22,6.27,6.27,0,0,1,2.27,4.58c0,.64.26.85.87.91a65.88,65.88,0,0,0,13.32,0c.58-.07.85-.23.9-.9a6.42,6.42,0,0,1,2.81-5,.71.71,0,0,0,.31-1,15.69,15.69,0,0,1-.25-6.61,5.19,5.19,0,0,1,5.69-4.43A5.26,5.26,0,0,1,51,36.42c.05,2,.38,4.14-.4,6.14-.12.31,0,.48.22.69,1.82,1.71,1.92,1.72,4,.14a13.19,13.19,0,0,0,1.07-.91c3-2.89,3-6.28,0-9.15-2.75-2.57-6.17-3.9-9.69-5a49.23,49.23,0,0,0-10.91-1.92c-.74-.06-1.91.21-1.77-1.08s1.19-.66,1.9-.69a2,2,0,0,1,.69.09c1.08.31,1.47-.1,1.6-1.2a5.79,5.79,0,0,1,2.55-4.16.93.93,0,0,0,.4-1.24,15.56,15.56,0,0,1-.14-6.72,5.22,5.22,0,0,1,6.48-4A1.17,1.17,0,0,0,48.24,7a3.37,3.37,0,0,1,3.89-.74,3.3,3.3,0,0,1,2.22,3.26c0,3.31,0,6.63,0,9.94a3.62,3.62,0,0,1-.46,1.79c-.84,1.48-.53,2.25,1.07,2.92a4,4,0,0,1,2.65,3.66,11.06,11.06,0,0,1,0,1.41A7.89,7.89,0,0,0,59,34.63c1.61,2.34,1.26,4.9-.31,7.24a14.43,14.43,0,0,1-4.17,3.88c-.38.26-1.1.26-1,1.08a1.48,1.48,0,0,0,1.23,1.41A4,4,0,0,1,57.63,52c0,.59,0,1.14-.79,1.19s-.83-.35-1-.94c-.34-1.83-1.09-2.42-3-2.43q-3.09,0-6.2,0c-1.91,0-2.76.89-2.78,2.82,0,1.56,0,3.12,0,4.68,0,.65.2.89.87.88,3.16,0,6.32,0,9.48,0A1.42,1.42,0,0,0,55.89,57c.13-.62.48-.9,1.08-.78s.69.64.63,1.18a3,3,0,0,1-2.93,2.54c-3.78,0-7.57,0-11.35,0A2.38,2.38,0,0,1,42,59.44L36.7,56.07C34.52,54.68,34.26,53.33,35.89,51.14ZM10.73,41.32h0c0,1.67-.05,3.35,0,5,.06,1.43.35,1.65,1.77,1.64a4.63,4.63,0,0,1,2.83.46c1,.72,1.51.2,2-.6a3.32,3.32,0,0,0,.52-1.77c0-3.15.06-6.31,0-9.45a3.45,3.45,0,0,0-3.57-3.53,3.52,3.52,0,0,0-3.56,3.68C10.7,38.29,10.73,39.8,10.73,41.32Zm-.42,16.82c1.56,0,3.12,0,4.67,0,.72,0,1.07-.15,1-1-.06-1.64,0-3.28,0-4.91a2.33,2.33,0,0,0-2.49-2.51q-3.45-.06-6.9,0A2.41,2.41,0,0,0,4,52.36c0,1.36,0,2.73,0,4.09s.45,1.67,1.72,1.69C7.27,58.16,8.79,58.14,10.31,58.14Zm38.9-19.43h0c0-.78.05-1.56,0-2.33a3.55,3.55,0,0,0-7.07-.08,32.75,32.75,0,0,0,0,4.54,3.42,3.42,0,0,0,3.61,3.21,3.48,3.48,0,0,0,3.49-3.36C49.24,40,49.21,39.37,49.21,38.71Zm2.75-10c0-1.7.08-3.22,0-4.72a4.3,4.3,0,0,0-1.84-3.13,1,1,0,0,0-1.42,0A4.84,4.84,0,0,1,43,21c-1.21-.8-1.81-.32-2.51.47a4.78,4.78,0,0,0-1.18,2.86c0,.52.09.81.64.89A45.2,45.2,0,0,1,52,28.67Zm-44-3c0,.93,0,1.55,0,2.18s0,.84.71.53A41.52,41.52,0,0,1,20,25.23c.61-.08.76-.39.69-1a5,5,0,0,0-1.81-3.41,1.06,1.06,0,0,0-1.52-.05,4.89,4.89,0,0,1-5.8.11,1.4,1.4,0,0,0-2.08.24A5.14,5.14,0,0,0,8,25.69ZM42.1,53.31c0-.39,0-.54,0-.7.08-3,1.73-4.61,4.78-4.62,1,0,2,0,3,0,.64,0,1.63.31,1.83-.18.28-.68-.34-1.46-.83-2.06a9.67,9.67,0,0,0-.93-.88c-.44-.4-.8-.36-1.32,0a5.1,5.1,0,0,1-6.11,0,1.09,1.09,0,0,0-1.52.09,6.67,6.67,0,0,0-1.76,6.43,1,1,0,0,0,.37.41Zm7.12-37.66a5.45,5.45,0,0,1,0-.7c.13-1-.17-1.29-1.22-1-1.65.45-3.35.71-5,1.08-.39.08-.83.06-.94.67A3.69,3.69,0,0,0,45.25,20C47.68,20.19,49.21,18.53,49.22,15.65ZM17.9,15.56c0-.35,0-.7,0-1.05,0-.55-.16-.8-.75-.67-1.94.43-3.88.83-5.82,1.25a.64.64,0,0,0-.61.57A3.68,3.68,0,0,0,14,20C16.42,20.14,17.89,18.47,17.9,15.56Zm34.74-1c0-1.6,0-3.2,0-4.79a1.87,1.87,0,0,0-2.5-1.92c-.66.26-1.13.55-.39,1.3a4,4,0,0,1,1.11,2.28,17.2,17.2,0,0,1,0,6c-.25,1.12-.2,1.82.83,2.33.26.13.4.63.72.42s.25-.56.26-.86C52.65,17.78,52.64,16.19,52.64,14.59ZM14.26,9a3.61,3.61,0,0,0-3.53,3.61c0,.67.19.79.8.65,1.51-.36,3-.64,4.55-1,.57-.14,1.51,0,1.61-.56.13-.75-.55-1.39-1.17-1.9A3.62,3.62,0,0,0,14.26,9Zm31.4,0a3.61,3.61,0,0,0-3.61,3.65c0,.44,0,.78.64.64,2-.43,3.94-.87,5.92-1.27.59-.12.52-.38.35-.8A3.72,3.72,0,0,0,45.66,9ZM19.75,46a6,6,0,0,1-2,4.08c-.22.19-.37.37-.24.69a8.68,8.68,0,0,1,.32,2.6c1-.83,2.5-1,2.69-2A6.75,6.75,0,0,0,19.75,46ZM17.92,57.32l4.83-3c.46-.29.84-.66.43-1.24s-.84-.47-1.34-.16a29.64,29.64,0,0,1-2.78,1.71A2,2,0,0,0,17.92,57.32Zm24.27.13c-.2-.93.36-1.74-.45-2.27-1.23-.81-2.49-1.57-3.75-2.34a.83.83,0,0,0-1.3.26c-.3.53,0,.89.45,1.15C38.73,55.27,40.34,56.28,42.19,57.45ZM4,30.87c2.12-.95,2.12-.95,2.12-2.9a5.46,5.46,0,0,0,0-.81c-.08-.46.31-1.19-.28-1.32s-1,.43-1.38.92A2.52,2.52,0,0,0,4,28.18ZM55.9,31c0-1.21.05-2.17,0-3.13a2.3,2.3,0,0,0-1.41-2c-.28-.13-.64-.32-.65.23a13.94,13.94,0,0,0,.08,3.36C54.06,30.22,55.07,30.42,55.9,31ZM8.84,46A3.33,3.33,0,0,0,8,47.86C9.31,48.08,9.31,48.08,8.84,46Z"/><path class="cls-1" d="M26.9,20.11c-1-.25-1.74.58-2.58,1-1.17.59-1.76.32-1.72-1a5.37,5.37,0,0,0-1-3.22A6.34,6.34,0,0,1,27,7.33c.92,0,1.14-.22,1.14-1.13A6.35,6.35,0,0,1,39.44,2.4a6.24,6.24,0,0,1,.46,7.31,4.7,4.7,0,0,0-.91,3c0,1.43-.56,1.73-1.82,1a4.88,4.88,0,0,0-2.78-1c-.81,0-.91.24-.92,1A6.46,6.46,0,0,1,26.9,20.11ZM24.36,19A4.46,4.46,0,0,1,27,18.26a4.56,4.56,0,0,0,4.61-5.52,1.33,1.33,0,0,0-.58-1,6.08,6.08,0,0,1-2-2A1.42,1.42,0,0,0,28,9.16a4.69,4.69,0,0,0-4.84,2.11,4.4,4.4,0,0,0,.23,5.15A3.1,3.1,0,0,1,24.36,19Zm12.89-7.19a3,3,0,0,1,.88-2.62A4.5,4.5,0,0,0,38,3.47,4.6,4.6,0,0,0,30,7.34,4.41,4.41,0,0,0,34.13,11,4.29,4.29,0,0,1,37.25,11.81Z"/><path class="cls-1" d="M33.31,30.42a5.83,5.83,0,0,1,4.92,3.33A5.87,5.87,0,0,1,38,40.27,4.24,4.24,0,0,0,37.18,43c0,1.58-.56,1.93-1.89,1.13a6.37,6.37,0,0,0-3.13-1,6.29,6.29,0,0,1-5.9-6.48C26.4,33.1,29.23,30.4,33.31,30.42Zm2.1,11.73a2.87,2.87,0,0,1,.86-2.52,4.61,4.61,0,1,0-8.1-1.78,4.48,4.48,0,0,0,4.48,3.53A3.84,3.84,0,0,1,35.41,42.15Z"/><path class="cls-1" d="M29.66,12.9a.81.81,0,0,1,.87.77.78.78,0,0,1-.77,1,.77.77,0,0,1-.87-.75A.84.84,0,0,1,29.66,12.9Z"/><path class="cls-1" d="M27.91,13.65c0,.62-.25.94-.74,1a.78.78,0,0,1-.9-.84.79.79,0,0,1,.87-.87A.74.74,0,0,1,27.91,13.65Z"/><path class="cls-1" d="M25.31,13.76c0,.58-.33.87-.81.87a.77.77,0,0,1-.84-.89.77.77,0,0,1,.8-.82A.79.79,0,0,1,25.31,13.76Z"/><path class="cls-1" d="M36.78,5.15c-1.35.8-.39,1.76-.07,2.81.19.64-.87,1-1.44.46s-1-.75-1.54,0a.81.81,0,0,1-1.32,0,.8.8,0,0,1,.11-1.24c.59-.48.75-.89,0-1.43a.81.81,0,0,1-.12-1.31.81.81,0,0,1,1.32.07c.53.63.94.64,1.44,0a.82.82,0,0,1,1-.24A.94.94,0,0,1,36.78,5.15Z"/><path class="cls-1" d="M33.5,36.82c-.06.6-.34.92-.91.88a.84.84,0,0,1,0-1.67A.79.79,0,0,1,33.5,36.82Z"/><path class="cls-1" d="M30.89,36.83c-.05.52-.29.88-.86.88A.85.85,0,0,1,30,36C30.52,36,30.8,36.3,30.89,36.83Z"/><path class="cls-1" d="M36.09,36.85c0,.51-.24.83-.76.85a.84.84,0,1,1,0-1.67C35.86,36.05,36.07,36.38,36.09,36.85Z"/></g></g></svg>