<svg id="Capa_1" data-name="Capa 1" xmlns="http://www.w3.org/2000/svg" viewBox="0 0 1797.39 810.46"><defs><style>.cls-1{fill:#9c966f;}.cls-2{fill:#9c956f;}.cls-3,.cls-8{opacity:0.2;}.cls-4{fill:#d8d29b;}.cls-5{fill:#c6875e;}.cls-6{fill:#d1bbb4;}.cls-7,.cls-8{fill:#6c2911;}.cls-9{fill:#ffb33c;}.cls-10{fill:#facb74;}</style></defs><path class="cls-1" d="M244.61,338.3v34.82h-7.77V338.3Z"/><path class="cls-1" d="M258,352.67v20.45h-7.46V347.24h7Zm-1,6.6-1.89.05a18,18,0,0,1,.66-5,12.19,12.19,0,0,1,1.93-4,8.57,8.57,0,0,1,3.14-2.63,9.53,9.53,0,0,1,4.34-.94,8.9,8.9,0,0,1,3.13.52,6,6,0,0,1,2.43,1.6,7.3,7.3,0,0,1,1.57,2.82,13.73,13.73,0,0,1,.55,4.15v17.27h-7.46V356.76a6.4,6.4,0,0,0-.42-2.62,2.31,2.31,0,0,0-1.21-1.23,4.84,4.84,0,0,0-1.89-.34,4.26,4.26,0,0,0-2.11.52,4.57,4.57,0,0,0-1.55,1.42,6.64,6.64,0,0,0-.92,2.13A11,11,0,0,0,257,359.27Zm15.09-.38-2.36.19a18.07,18.07,0,0,1,.62-4.88,11.71,11.71,0,0,1,1.86-3.91,8.63,8.63,0,0,1,3.1-2.59,9.38,9.38,0,0,1,4.32-.94,10,10,0,0,1,3.31.53,6.3,6.3,0,0,1,2.58,1.7,7.86,7.86,0,0,1,1.69,3.07,15.63,15.63,0,0,1,.6,4.65v16.41h-7.51V356.71a6.22,6.22,0,0,0-.42-2.58,2.34,2.34,0,0,0-1.2-1.22,4.7,4.7,0,0,0-1.85-.34,4.29,4.29,0,0,0-2.08.49,4.42,4.42,0,0,0-1.48,1.34,6,6,0,0,0-.89,2A10.37,10.37,0,0,0,272.11,358.89Z"/><path class="cls-1" d="M300.29,352.22v30.85h-7.46V347.24h6.95Zm16.14,7.67v.5a20.08,20.08,0,0,1-.65,5.23,13.06,13.06,0,0,1-1.92,4.2,9.1,9.1,0,0,1-3.15,2.78,9,9,0,0,1-4.33,1,7.85,7.85,0,0,1-4.05-1,8.43,8.43,0,0,1-2.87-2.77,16.16,16.16,0,0,1-1.86-4.09,31.39,31.39,0,0,1-1.09-4.94v-1a33.66,33.66,0,0,1,1.1-5.19,16.18,16.18,0,0,1,1.86-4.15,8.56,8.56,0,0,1,2.85-2.74,8,8,0,0,1,4-1,9.54,9.54,0,0,1,4.33.94,8.73,8.73,0,0,1,3.17,2.66,12.31,12.31,0,0,1,1.92,4.15A20.88,20.88,0,0,1,316.43,359.89Zm-7.49.5v-.5a16.28,16.28,0,0,0-.24-2.9,7.91,7.91,0,0,0-.76-2.32,4,4,0,0,0-1.39-1.55,3.86,3.86,0,0,0-2.1-.55,5.39,5.39,0,0,0-2.28.44,3.59,3.59,0,0,0-1.5,1.25,5.54,5.54,0,0,0-.83,2,14.66,14.66,0,0,0-.27,2.73v2.63a10.06,10.06,0,0,0,.51,3.19,4.47,4.47,0,0,0,1.56,2.18,4.72,4.72,0,0,0,2.85.77,3.7,3.7,0,0,0,2.12-.56,3.88,3.88,0,0,0,1.36-1.59,8.38,8.38,0,0,0,.75-2.36A17.45,17.45,0,0,0,308.94,360.39Z"/><path class="cls-1" d="M328.24,336.38v36.74h-7.48V336.38Z"/><path class="cls-1" d="M345.8,373.6a14.81,14.81,0,0,1-5.53-1,11.85,11.85,0,0,1-4.12-2.72,11.53,11.53,0,0,1-2.57-4,13.22,13.22,0,0,1-.89-4.85v-.91a16.83,16.83,0,0,1,.81-5.33,12.61,12.61,0,0,1,2.38-4.25,10.65,10.65,0,0,1,3.86-2.79,13,13,0,0,1,5.24-1,12.64,12.64,0,0,1,4.91.9,9.94,9.94,0,0,1,3.63,2.56,11.31,11.31,0,0,1,2.26,4,16.46,16.46,0,0,1,.78,5.23v3.06H335.7v-4.81h13.54v-.57a5.43,5.43,0,0,0-.49-2.39,3.63,3.63,0,0,0-1.43-1.59,4.6,4.6,0,0,0-2.39-.57,4.23,4.23,0,0,0-2.27.58,4.1,4.1,0,0,0-1.44,1.61,8.39,8.39,0,0,0-.78,2.42,17.19,17.19,0,0,0-.24,2.95V361a8.54,8.54,0,0,0,.41,2.75,6,6,0,0,0,1.19,2.13,5.71,5.71,0,0,0,1.92,1.39,6.24,6.24,0,0,0,2.55.5,8.65,8.65,0,0,0,3.38-.68,7.21,7.21,0,0,0,2.77-2.14l3.49,4a9.43,9.43,0,0,1-2.21,2.21,12.14,12.14,0,0,1-3.41,1.74A14.17,14.17,0,0,1,345.8,373.6Z"/><path class="cls-1" d="M367.66,352.67v20.45h-7.47V347.24h7Zm-1,6.6-1.89.05a18,18,0,0,1,.66-5,12.38,12.38,0,0,1,1.92-4,8.6,8.6,0,0,1,3.15-2.63,9.53,9.53,0,0,1,4.34-.94,8.94,8.94,0,0,1,3.13.52,6.11,6.11,0,0,1,2.43,1.6A7.29,7.29,0,0,1,382,351.7a13.73,13.73,0,0,1,.55,4.15v17.27h-7.46V356.76a6.4,6.4,0,0,0-.42-2.62,2.33,2.33,0,0,0-1.2-1.23,4.91,4.91,0,0,0-1.89-.34,4.3,4.3,0,0,0-2.12.52,4.54,4.54,0,0,0-1.54,1.42,6.43,6.43,0,0,0-.92,2.13A11,11,0,0,0,366.7,359.27Zm15.09-.38-2.37.19a18.47,18.47,0,0,1,.62-4.88,11.73,11.73,0,0,1,1.87-3.91A8.69,8.69,0,0,1,385,347.7a9.41,9.41,0,0,1,4.32-.94,9.91,9.91,0,0,1,3.31.53,6.4,6.4,0,0,1,2.59,1.7,8,8,0,0,1,1.68,3.07,15.63,15.63,0,0,1,.6,4.65v16.41H390V356.71a6.22,6.22,0,0,0-.42-2.58,2.33,2.33,0,0,0-1.19-1.22,4.75,4.75,0,0,0-1.86-.34,4.32,4.32,0,0,0-2.08.49A4.51,4.51,0,0,0,383,354.4a6,6,0,0,0-.88,2A9.89,9.89,0,0,0,381.79,358.89Z"/><path class="cls-1" d="M414.67,373.6a14.72,14.72,0,0,1-5.52-1,11.69,11.69,0,0,1-6.7-6.73,13.22,13.22,0,0,1-.88-4.85v-.91a16.83,16.83,0,0,1,.81-5.33,12.28,12.28,0,0,1,2.38-4.25,10.57,10.57,0,0,1,3.86-2.79,13,13,0,0,1,5.24-1,12.59,12.59,0,0,1,4.9.9,9.89,9.89,0,0,1,3.64,2.56,11.47,11.47,0,0,1,2.26,4,16.76,16.76,0,0,1,.77,5.23v3.06H404.58v-4.81h13.54v-.57a5.43,5.43,0,0,0-.5-2.39,3.51,3.51,0,0,0-1.43-1.59,4.53,4.53,0,0,0-2.38-.57,4.18,4.18,0,0,0-2.27.58,4.05,4.05,0,0,0-1.45,1.61,8.39,8.39,0,0,0-.78,2.42,18.29,18.29,0,0,0-.23,2.95V361a8.83,8.83,0,0,0,.4,2.75,5.85,5.85,0,0,0,1.2,2.13,5.57,5.57,0,0,0,1.91,1.39,6.29,6.29,0,0,0,2.56.5,8.6,8.6,0,0,0,3.37-.68A7.24,7.24,0,0,0,421.3,365l3.49,4a9.83,9.83,0,0,1-2.21,2.21,12.27,12.27,0,0,1-3.41,1.74A14.24,14.24,0,0,1,414.67,373.6Z"/><path class="cls-1" d="M436.36,352.77v20.35h-7.48V347.24h7Zm-1,6.5-1.86.05a18,18,0,0,1,.71-5.24,11.7,11.7,0,0,1,2-4,8.87,8.87,0,0,1,3.18-2.5,9.68,9.68,0,0,1,4.1-.86,10.11,10.11,0,0,1,3.33.53,6.46,6.46,0,0,1,2.59,1.68,7.58,7.58,0,0,1,1.66,3.07,16.38,16.38,0,0,1,.58,4.67v16.41h-7.51V356.69a5.48,5.48,0,0,0-.46-2.51,2.53,2.53,0,0,0-1.33-1.25,5.51,5.51,0,0,0-2.11-.36,4.62,4.62,0,0,0-2.25.52,4.33,4.33,0,0,0-1.53,1.42,6.36,6.36,0,0,0-.87,2.13A11.53,11.53,0,0,0,435.38,359.27Z"/><path class="cls-1" d="M469.75,347.24v5.24H454.39v-5.24Zm-11.84-6.41h7.49V365a4,4,0,0,0,.26,1.65,1.48,1.48,0,0,0,.86.8,4.4,4.4,0,0,0,1.53.23c.45,0,.83,0,1.15-.05s.61-.07.88-.12v5.41a15.07,15.07,0,0,1-2,.49,14.26,14.26,0,0,1-2.34.18,10.25,10.25,0,0,1-4.18-.79,5.63,5.63,0,0,1-2.69-2.5,9.32,9.32,0,0,1-.93-4.46Z"/><path class="cls-1" d="M488,357.33l0,4.12h-3.7a6.49,6.49,0,0,0-2.14.31,3.87,3.87,0,0,0-1.45.85,3.23,3.23,0,0,0-.8,1.24,4.52,4.52,0,0,0-.25,1.54,2.67,2.67,0,0,0,1.43,2.42,3.27,3.27,0,0,0,1.56.36,5,5,0,0,0,2.5-.58,4.63,4.63,0,0,0,1.61-1.4,2.77,2.77,0,0,0,.58-1.54l1.79,3.11a18.1,18.1,0,0,1-1.05,2,8.72,8.72,0,0,1-1.58,1.89,7.65,7.65,0,0,1-2.31,1.43,8.71,8.71,0,0,1-3.24.55,9.61,9.61,0,0,1-4.42-1,8.06,8.06,0,0,1-3.17-2.74,7,7,0,0,1-1.19-4,8.29,8.29,0,0,1,.75-3.61,6.83,6.83,0,0,1,2.23-2.68,10.39,10.39,0,0,1,3.77-1.66,21.92,21.92,0,0,1,5.31-.57ZM487,367v-11.1a5.09,5.09,0,0,0-.35-2,2.83,2.83,0,0,0-1.13-1.31,3.67,3.67,0,0,0-2-.48,4.14,4.14,0,0,0-1.79.36,2.54,2.54,0,0,0-1.14,1,3.1,3.1,0,0,0-.4,1.65h-7.46a6.89,6.89,0,0,1,.79-3.26,8.21,8.21,0,0,1,2.26-2.65,10.75,10.75,0,0,1,3.53-1.78,15.38,15.38,0,0,1,4.61-.64,13.64,13.64,0,0,1,5.42,1,8.53,8.53,0,0,1,3.77,3,8.79,8.79,0,0,1,1.38,5.08v10.83a19.14,19.14,0,0,0,.28,3.67,8.35,8.35,0,0,0,.8,2.31v.41h-7.53a10.32,10.32,0,0,1-.79-2.79A21,21,0,0,1,487,367Z"/><path class="cls-1" d="M510.24,367.78a4.55,4.55,0,0,0,2.08-.45,3.32,3.32,0,0,0,1.37-1.28,3.8,3.8,0,0,0,.49-2h7a8.77,8.77,0,0,1-1.44,5,10,10,0,0,1-3.89,3.36,12.31,12.31,0,0,1-5.5,1.21,12.79,12.79,0,0,1-5.26-1,10.29,10.29,0,0,1-3.76-2.78,12.32,12.32,0,0,1-2.26-4.18,17,17,0,0,1-.75-5.15v-.62a17.08,17.08,0,0,1,.75-5.14,12.27,12.27,0,0,1,2.26-4.19,10.34,10.34,0,0,1,3.75-2.78,12.71,12.71,0,0,1,5.25-1A12.53,12.53,0,0,1,516,348a9.24,9.24,0,0,1,3.84,3.51,10.4,10.4,0,0,1,1.38,5.48h-7a5.51,5.51,0,0,0-.44-2.23,3.62,3.62,0,0,0-1.34-1.58,4.49,4.49,0,0,0-4.45,0,3.77,3.77,0,0,0-1.33,1.61,8.53,8.53,0,0,0-.62,2.34,22,22,0,0,0-.16,2.76v.62a22.75,22.75,0,0,0,.16,2.81,7.86,7.86,0,0,0,.64,2.33,3.74,3.74,0,0,0,1.32,1.58A4.1,4.1,0,0,0,510.24,367.78Z"/><path class="cls-1" d="M524.85,340.55a3.42,3.42,0,0,1,1.15-2.67,4.89,4.89,0,0,1,6,0,3.62,3.62,0,0,1,0,5.31,4.89,4.89,0,0,1-6,0A3.41,3.41,0,0,1,524.85,340.55Zm7.94,6.69v25.88H525.3V347.24Z"/><path class="cls-1" d="M537.07,360.44v-.5a16.33,16.33,0,0,1,.81-5.25,11.94,11.94,0,0,1,2.39-4.17,11,11,0,0,1,3.88-2.76,13,13,0,0,1,5.26-1,13.22,13.22,0,0,1,5.32,1,10.93,10.93,0,0,1,3.89,2.76,11.94,11.94,0,0,1,2.39,4.17,16.33,16.33,0,0,1,.81,5.25v.5a16.29,16.29,0,0,1-.81,5.23,12,12,0,0,1-2.39,4.18,10.88,10.88,0,0,1-3.88,2.77,13.4,13.4,0,0,1-5.28,1,13.56,13.56,0,0,1-5.29-1,10.79,10.79,0,0,1-3.9-2.77,12,12,0,0,1-2.39-4.18A16.29,16.29,0,0,1,537.07,360.44Zm7.48-.5v.5a15.31,15.31,0,0,0,.26,2.87,7.32,7.32,0,0,0,.82,2.35,4.14,4.14,0,0,0,1.52,1.56,4.39,4.39,0,0,0,2.31.56,4.3,4.3,0,0,0,2.29-.56,4.19,4.19,0,0,0,1.51-1.56,7.32,7.32,0,0,0,.82-2.35,15.34,15.34,0,0,0,.25-2.87v-.5a15,15,0,0,0-.25-2.83,7.65,7.65,0,0,0-.82-2.36,4.26,4.26,0,0,0-1.52-1.6,4.45,4.45,0,0,0-2.33-.58,4.28,4.28,0,0,0-2.27.58,4.23,4.23,0,0,0-1.51,1.6,7.65,7.65,0,0,0-.82,2.36A15,15,0,0,0,544.55,359.94Zm1.39-16.12,4.74-7.44h8L552,343.82Z"/><path class="cls-1" d="M573.06,352.77v20.35h-7.48V347.24h7Zm-1,6.5-1.86.05a17.67,17.67,0,0,1,.71-5.24,11.7,11.7,0,0,1,2.05-4,8.87,8.87,0,0,1,3.18-2.5,9.65,9.65,0,0,1,4.1-.86,10,10,0,0,1,3.32.53,6.42,6.42,0,0,1,2.6,1.68,7.7,7.7,0,0,1,1.66,3.07,16.41,16.41,0,0,1,.57,4.67v16.41h-7.5V356.69a5.62,5.62,0,0,0-.46-2.51,2.57,2.57,0,0,0-1.33-1.25,5.51,5.51,0,0,0-2.11-.36,4.62,4.62,0,0,0-2.25.52,4.33,4.33,0,0,0-1.53,1.42,6.36,6.36,0,0,0-.87,2.13A11.53,11.53,0,0,0,572.08,359.27Z"/><path class="cls-1" d="M347.9,400.56v-.5a20.46,20.46,0,0,1,.66-5.37,12.68,12.68,0,0,1,1.93-4.18,9,9,0,0,1,3.17-2.72,9.58,9.58,0,0,1,4.33-1,7.54,7.54,0,0,1,3.92,1,8.87,8.87,0,0,1,2.86,2.77,16.36,16.36,0,0,1,1.93,4.19,32.38,32.38,0,0,1,1.12,5.2v.86a28.63,28.63,0,0,1-1.11,5,16.23,16.23,0,0,1-1.94,4.08,8.84,8.84,0,0,1-2.87,2.75,7.66,7.66,0,0,1-4,1,9.22,9.22,0,0,1-4.31-1,9,9,0,0,1-3.15-2.75,13.17,13.17,0,0,1-1.92-4.16A19.63,19.63,0,0,1,347.9,400.56Zm7.46-.5v.5a17,17,0,0,0,.23,2.85,7.81,7.81,0,0,0,.75,2.32,4.17,4.17,0,0,0,1.39,1.57,3.78,3.78,0,0,0,2.1.56,4.55,4.55,0,0,0,2.75-.78,4.78,4.78,0,0,0,1.63-2.16,8.87,8.87,0,0,0,.57-3.23v-2.51a11,11,0,0,0-.31-2.75,5.74,5.74,0,0,0-.92-2.06,4,4,0,0,0-1.52-1.28,4.91,4.91,0,0,0-2.15-.44,3.78,3.78,0,0,0-2.08.56,4.2,4.2,0,0,0-1.4,1.57,8.12,8.12,0,0,0-.79,2.35A16.75,16.75,0,0,0,355.36,400.06ZM364,407.4V376.46h7.51v36.73h-6.75Z"/><path class="cls-1" d="M388.7,413.67a14.72,14.72,0,0,1-5.52-1,11.71,11.71,0,0,1-6.7-6.72,13.28,13.28,0,0,1-.89-4.86v-.91a16.87,16.87,0,0,1,.82-5.33,12.24,12.24,0,0,1,2.38-4.24,10.48,10.48,0,0,1,3.86-2.8,13.13,13.13,0,0,1,5.24-1,12.82,12.82,0,0,1,4.9.89,9.85,9.85,0,0,1,3.63,2.56,11.12,11.12,0,0,1,2.26,4,16.36,16.36,0,0,1,.78,5.22v3.06H378.61v-4.8h13.53v-.58a5.46,5.46,0,0,0-.49-2.39,3.51,3.51,0,0,0-1.43-1.59,4.63,4.63,0,0,0-2.38-.56,4.18,4.18,0,0,0-2.27.57,4,4,0,0,0-1.45,1.62,8.22,8.22,0,0,0-.78,2.41,17.19,17.19,0,0,0-.24,2.95v.91a8.77,8.77,0,0,0,.41,2.75,5.85,5.85,0,0,0,1.2,2.13,5.57,5.57,0,0,0,1.91,1.39,6.29,6.29,0,0,0,2.56.5,8.6,8.6,0,0,0,3.37-.68,7,7,0,0,0,2.77-2.14l3.5,4a9.71,9.71,0,0,1-2.22,2.22,12.33,12.33,0,0,1-3.4,1.73A14,14,0,0,1,388.7,413.67Z"/><path class="cls-1" d="M422.75,392.74v20.45h-7.46V387.31h7Zm-.95,6.6-1.89.05a18,18,0,0,1,.66-5,12.17,12.17,0,0,1,1.92-4,8.7,8.7,0,0,1,3.15-2.63,9.63,9.63,0,0,1,4.34-.93,9.17,9.17,0,0,1,3.13.51,6.22,6.22,0,0,1,2.43,1.6,7.37,7.37,0,0,1,1.56,2.82,13.73,13.73,0,0,1,.55,4.15v17.27h-7.46V396.83a6.4,6.4,0,0,0-.42-2.62,2.4,2.4,0,0,0-1.2-1.23,4.91,4.91,0,0,0-1.89-.33,4.29,4.29,0,0,0-2.12.51,4.57,4.57,0,0,0-1.54,1.43,6.28,6.28,0,0,0-.92,2.12A11,11,0,0,0,421.8,399.34Zm15.09-.38-2.37.19a18.47,18.47,0,0,1,.62-4.88,11.82,11.82,0,0,1,1.87-3.91,8.79,8.79,0,0,1,3.09-2.59,9.54,9.54,0,0,1,4.32-.93,9.91,9.91,0,0,1,3.31.52,6.4,6.4,0,0,1,2.59,1.7,8.06,8.06,0,0,1,1.68,3.07,15.66,15.66,0,0,1,.6,4.66v16.4h-7.51v-16.4a6.24,6.24,0,0,0-.42-2.59,2.4,2.4,0,0,0-1.19-1.22,4.76,4.76,0,0,0-1.86-.33,4.21,4.21,0,0,0-2.08.49,4.41,4.41,0,0,0-1.48,1.34,5.83,5.83,0,0,0-.88,2A9.89,9.89,0,0,0,436.89,399Z"/><path class="cls-1" d="M469.77,413.67a14.72,14.72,0,0,1-5.52-1,11.71,11.71,0,0,1-6.7-6.72,13.27,13.27,0,0,1-.88-4.86v-.91a16.87,16.87,0,0,1,.81-5.33,12.24,12.24,0,0,1,2.38-4.24,10.48,10.48,0,0,1,3.86-2.8,13.13,13.13,0,0,1,5.24-1,12.78,12.78,0,0,1,4.9.89,9.89,9.89,0,0,1,3.64,2.56,11.27,11.27,0,0,1,2.26,4,16.65,16.65,0,0,1,.77,5.22v3.06H459.68v-4.8h13.54v-.58a5.6,5.6,0,0,0-.49-2.39,3.59,3.59,0,0,0-1.44-1.59,4.63,4.63,0,0,0-2.38-.56,4.18,4.18,0,0,0-2.27.57,4,4,0,0,0-1.45,1.62,8.22,8.22,0,0,0-.78,2.41,17.22,17.22,0,0,0-.23,2.95v.91a8.78,8.78,0,0,0,.4,2.75,5.85,5.85,0,0,0,1.2,2.13,5.57,5.57,0,0,0,1.91,1.39,6.29,6.29,0,0,0,2.56.5,8.6,8.6,0,0,0,3.37-.68,7.15,7.15,0,0,0,2.78-2.14l3.49,4a9.85,9.85,0,0,1-2.21,2.22,12.54,12.54,0,0,1-3.41,1.73A14,14,0,0,1,469.77,413.67Z"/><path class="cls-1" d="M484.62,387.31h7.51v27.08a10.42,10.42,0,0,1-1.12,5.05,7.39,7.39,0,0,1-3.24,3.14,11.15,11.15,0,0,1-5.06,1.06c-.64,0-1.24,0-1.82-.08a13.81,13.81,0,0,1-1.84-.33v-5.69c.4.07.78.12,1.14.16a10.15,10.15,0,0,0,1.13.06,4.08,4.08,0,0,0,1.81-.36,2.44,2.44,0,0,0,1.11-1.11,4.26,4.26,0,0,0,.38-1.9Zm-.57-6.69A3.43,3.43,0,0,1,485.2,378a4.92,4.92,0,0,1,6.05,0,3.46,3.46,0,0,1,1.15,2.67,3.42,3.42,0,0,1-1.15,2.64,4.92,4.92,0,0,1-6.05,0A3.38,3.38,0,0,1,484.05,380.62Z"/><path class="cls-1" d="M496.08,400.52V400a16.42,16.42,0,0,1,.81-5.25,11.94,11.94,0,0,1,2.39-4.17,10.9,10.9,0,0,1,3.88-2.76,13.16,13.16,0,0,1,5.26-1,13.39,13.39,0,0,1,5.32,1,10.93,10.93,0,0,1,3.89,2.76,11.94,11.94,0,0,1,2.39,4.17,16.42,16.42,0,0,1,.81,5.25v.51a16.23,16.23,0,0,1-.81,5.22,12.12,12.12,0,0,1-2.39,4.19,11,11,0,0,1-3.88,2.76,13.4,13.4,0,0,1-5.28,1,13.56,13.56,0,0,1-5.29-1,10.8,10.8,0,0,1-3.9-2.76,12.12,12.12,0,0,1-2.39-4.19A16.23,16.23,0,0,1,496.08,400.52Zm7.48-.51v.51a15.39,15.39,0,0,0,.26,2.87,7.35,7.35,0,0,0,.82,2.34,4.25,4.25,0,0,0,1.52,1.57,4.49,4.49,0,0,0,2.31.56,4.42,4.42,0,0,0,2.29-.56,4.3,4.3,0,0,0,1.51-1.57,7.35,7.35,0,0,0,.82-2.34,15.41,15.41,0,0,0,.25-2.87V400a15,15,0,0,0-.25-2.83,7.74,7.74,0,0,0-.82-2.36,4.26,4.26,0,0,0-1.52-1.6,4.45,4.45,0,0,0-2.33-.57,4,4,0,0,0-3.78,2.17,7.74,7.74,0,0,0-.82,2.36A15,15,0,0,0,503.56,400Z"/><path class="cls-1" d="M532.24,393.34v19.85h-7.46V387.31h7Zm7.72-6.22-.12,7c-.32-.05-.73-.09-1.24-.13s-1-.06-1.32-.06a7.87,7.87,0,0,0-2.47.35,4.43,4.43,0,0,0-1.72,1,4.12,4.12,0,0,0-1,1.67,7.21,7.21,0,0,0-.33,2.28l-1.41-.69a20.14,20.14,0,0,1,.5-4.69,12.49,12.49,0,0,1,1.46-3.7,7.06,7.06,0,0,1,2.34-2.42,5.81,5.81,0,0,1,3.16-.86,9.41,9.41,0,0,1,1.17.07A5.26,5.26,0,0,1,540,387.12Z"/><path class="cls-1" d="M556.68,397.41l.05,4.11H553a6.49,6.49,0,0,0-2.14.31,3.87,3.87,0,0,0-1.45.85,3.35,3.35,0,0,0-.8,1.24,4.54,4.54,0,0,0-.25,1.55,2.65,2.65,0,0,0,1.44,2.41,3.2,3.2,0,0,0,1.55.36,5.13,5.13,0,0,0,2.5-.57,4.73,4.73,0,0,0,1.61-1.4,2.72,2.72,0,0,0,.58-1.55l1.79,3.11a19.18,19.18,0,0,1-1.05,2,9.23,9.23,0,0,1-1.58,1.89,7.83,7.83,0,0,1-2.31,1.42,8.51,8.51,0,0,1-3.24.55,9.76,9.76,0,0,1-4.42-1,8.14,8.14,0,0,1-3.17-2.74,7,7,0,0,1-1.18-4,8.32,8.32,0,0,1,.74-3.61,7,7,0,0,1,2.23-2.68,10.56,10.56,0,0,1,3.77-1.66,22,22,0,0,1,5.31-.56Zm-.93,9.61v-11.1a5,5,0,0,0-.36-2,2.85,2.85,0,0,0-1.13-1.32,3.67,3.67,0,0,0-2-.48,4.07,4.07,0,0,0-1.78.36,2.52,2.52,0,0,0-1.15,1,3.25,3.25,0,0,0-.4,1.65h-7.46a7,7,0,0,1,.79-3.25,8.24,8.24,0,0,1,2.26-2.66,11,11,0,0,1,3.53-1.78,15.74,15.74,0,0,1,4.62-.63,13.77,13.77,0,0,1,5.41,1,8.53,8.53,0,0,1,3.77,3,8.82,8.82,0,0,1,1.39,5.08v10.84a19.43,19.43,0,0,0,.27,3.67,8.4,8.4,0,0,0,.8,2.3v.41H556.8a10.32,10.32,0,0,1-.79-2.79A20.93,20.93,0,0,1,555.75,407Z"/><path class="cls-1" d="M581.93,406a1.94,1.94,0,0,0-.44-1.27,3.83,3.83,0,0,0-1.58-1,21.21,21.21,0,0,0-3.19-.91,22.09,22.09,0,0,1-3.61-1.06,12.14,12.14,0,0,1-2.92-1.61,6.8,6.8,0,0,1-1.94-2.24,6.27,6.27,0,0,1-.69-3,7.06,7.06,0,0,1,.71-3.09,7.73,7.73,0,0,1,2.05-2.58,10,10,0,0,1,3.3-1.77,14.12,14.12,0,0,1,4.44-.64A15,15,0,0,1,584,387.9a8.75,8.75,0,0,1,3.82,3,7.28,7.28,0,0,1,1.34,4.34h-7.46a3.86,3.86,0,0,0-.38-1.75,2.79,2.79,0,0,0-1.17-1.16,4.44,4.44,0,0,0-2.08-.42,4.19,4.19,0,0,0-1.76.35,2.84,2.84,0,0,0-1.17.94,2.36,2.36,0,0,0-.42,1.39,1.92,1.92,0,0,0,.25,1,2.54,2.54,0,0,0,.79.82,5.83,5.83,0,0,0,1.41.65,16.8,16.8,0,0,0,2.14.55,25.55,25.55,0,0,1,4.94,1.42,8.93,8.93,0,0,1,3.58,2.51,6.29,6.29,0,0,1,1.36,4.23,6.52,6.52,0,0,1-.78,3.16,7.8,7.8,0,0,1-2.24,2.51,11.2,11.2,0,0,1-3.49,1.67,16.21,16.21,0,0,1-4.59.6,13.27,13.27,0,0,1-6.19-1.32,9.56,9.56,0,0,1-3.82-3.31,7.54,7.54,0,0,1-1.28-4.1h7a3.59,3.59,0,0,0,.66,2.1,3.39,3.39,0,0,0,1.59,1.19,6.08,6.08,0,0,0,2.2.37,5.22,5.22,0,0,0,2-.34,2.77,2.77,0,0,0,1.24-.92A2.2,2.2,0,0,0,581.93,406Z"/><path class="cls-1" d="M260.92,453.74a14.76,14.76,0,0,1-5.52-1,11.63,11.63,0,0,1-6.7-6.72,13.22,13.22,0,0,1-.88-4.85v-.91a16.89,16.89,0,0,1,.81-5.34A12.24,12.24,0,0,1,251,430.7a10.59,10.59,0,0,1,3.86-2.8,13.13,13.13,0,0,1,5.24-1,12.59,12.59,0,0,1,4.9.9,9.87,9.87,0,0,1,3.64,2.55,11.27,11.27,0,0,1,2.26,4,16.65,16.65,0,0,1,.77,5.22v3.06H250.83v-4.8h13.54v-.58a5.6,5.6,0,0,0-.49-2.39,3.7,3.7,0,0,0-1.44-1.59,4.63,4.63,0,0,0-2.38-.56,4.2,4.2,0,0,0-2.27.57,4.08,4.08,0,0,0-1.45,1.62,8,8,0,0,0-.77,2.41,17.23,17.23,0,0,0-.24,3v.91a8.87,8.87,0,0,0,.4,2.75,5.8,5.8,0,0,0,1.2,2.12,5.45,5.45,0,0,0,1.91,1.39,6.13,6.13,0,0,0,2.56.5,8.42,8.42,0,0,0,3.37-.68,7.15,7.15,0,0,0,2.78-2.14l3.49,4a10,10,0,0,1-2.21,2.21,12,12,0,0,1-3.41,1.73A14,14,0,0,1,260.92,453.74Z"/><path class="cls-1" d="M282.61,432.91v20.35h-7.48V427.39h7Zm-1,6.51-1.86,0a17.59,17.59,0,0,1,.72-5.23,11.42,11.42,0,0,1,2-4,8.76,8.76,0,0,1,3.18-2.5,9.68,9.68,0,0,1,4.1-.86,10.11,10.11,0,0,1,3.33.52,6.59,6.59,0,0,1,2.59,1.69,7.48,7.48,0,0,1,1.66,3.06,16.15,16.15,0,0,1,.58,4.68v16.4h-7.51V436.83a5.51,5.51,0,0,0-.46-2.51,2.53,2.53,0,0,0-1.32-1.24,5.59,5.59,0,0,0-2.12-.36,4.62,4.62,0,0,0-2.25.51,4.36,4.36,0,0,0-1.53,1.43,6.2,6.2,0,0,0-.87,2.13A11.53,11.53,0,0,0,281.63,439.42Z"/><path class="cls-1" d="M322.91,416.53v36.73h-7.49V416.53Z"/><path class="cls-1" d="M327.19,440.59v-.5a16.33,16.33,0,0,1,.81-5.25,11.92,11.92,0,0,1,2.4-4.18,10.86,10.86,0,0,1,3.87-2.76,13.16,13.16,0,0,1,5.26-1,13.39,13.39,0,0,1,5.32,1,10.85,10.85,0,0,1,3.89,2.76,11.9,11.9,0,0,1,2.39,4.18,16.33,16.33,0,0,1,.81,5.25v.5a16.23,16.23,0,0,1-.81,5.22,12,12,0,0,1-2.39,4.19,10.65,10.65,0,0,1-3.88,2.76,13.4,13.4,0,0,1-5.28,1,13.56,13.56,0,0,1-5.29-1A10.61,10.61,0,0,1,330.4,450a12.05,12.05,0,0,1-2.4-4.19A16.23,16.23,0,0,1,327.19,440.59Zm7.49-.5v.5a15.41,15.41,0,0,0,.25,2.87,7.35,7.35,0,0,0,.82,2.34,4.25,4.25,0,0,0,1.52,1.57,4.49,4.49,0,0,0,2.31.56,4.39,4.39,0,0,0,2.29-.56,4.22,4.22,0,0,0,1.51-1.57,7.61,7.61,0,0,0,.83-2.34,16.31,16.31,0,0,0,.25-2.87v-.5a16,16,0,0,0-.25-2.84,7.86,7.86,0,0,0-.83-2.35,4.29,4.29,0,0,0-1.52-1.61,4.42,4.42,0,0,0-2.33-.57,4.27,4.27,0,0,0-2.27.57,4.34,4.34,0,0,0-1.51,1.61,7.59,7.59,0,0,0-.82,2.35A15.09,15.09,0,0,0,334.68,440.09Z"/><path class="cls-1" d="M369.64,446.06a2,2,0,0,0-.44-1.26,3.91,3.91,0,0,0-1.58-1,22.87,22.87,0,0,0-3.19-.91,22.09,22.09,0,0,1-3.61-1.06,12.12,12.12,0,0,1-2.92-1.6A6.81,6.81,0,0,1,356,438a6.27,6.27,0,0,1-.69-3,7,7,0,0,1,.7-3.08,7.7,7.7,0,0,1,2.06-2.59,10,10,0,0,1,3.3-1.77,14.12,14.12,0,0,1,4.44-.64,14.91,14.91,0,0,1,5.9,1.06,8.72,8.72,0,0,1,3.83,3,7.37,7.37,0,0,1,1.34,4.34h-7.46a3.73,3.73,0,0,0-.39-1.75,2.68,2.68,0,0,0-1.17-1.16,4.41,4.41,0,0,0-2.08-.42,4.22,4.22,0,0,0-1.76.35,2.85,2.85,0,0,0-1.17.95,2.32,2.32,0,0,0-.42,1.38,2,2,0,0,0,.26,1,2.58,2.58,0,0,0,.78.81,5.46,5.46,0,0,0,1.41.66,22,22,0,0,0,2.15.55,24.77,24.77,0,0,1,4.93,1.41,9,9,0,0,1,3.59,2.51,6.35,6.35,0,0,1,1.35,4.23,6.52,6.52,0,0,1-.78,3.16,7.55,7.55,0,0,1-2.23,2.51,10.88,10.88,0,0,1-3.49,1.67,16.26,16.26,0,0,1-4.59.6,13.44,13.44,0,0,1-6.2-1.31,9.62,9.62,0,0,1-3.81-3.32,7.43,7.43,0,0,1-1.28-4.1h7a3.72,3.72,0,0,0,.65,2.11,3.55,3.55,0,0,0,1.59,1.18,6.16,6.16,0,0,0,2.2.37,5.48,5.48,0,0,0,2-.33,2.91,2.91,0,0,0,1.24-.92A2.23,2.23,0,0,0,369.64,446.06Z"/><path class="cls-1" d="M407,446.06a2,2,0,0,0-.44-1.26,3.91,3.91,0,0,0-1.58-1,22.87,22.87,0,0,0-3.19-.91,22.09,22.09,0,0,1-3.61-1.06,12.12,12.12,0,0,1-2.92-1.6,6.81,6.81,0,0,1-1.94-2.25,6.27,6.27,0,0,1-.69-3,7,7,0,0,1,.7-3.08,7.7,7.7,0,0,1,2.06-2.59,10,10,0,0,1,3.3-1.77,14.12,14.12,0,0,1,4.44-.64A14.88,14.88,0,0,1,409,428a8.72,8.72,0,0,1,3.83,3,7.37,7.37,0,0,1,1.34,4.34h-7.46a3.86,3.86,0,0,0-.38-1.75,2.75,2.75,0,0,0-1.18-1.16,4.41,4.41,0,0,0-2.08-.42,4.14,4.14,0,0,0-1.75.35,2.81,2.81,0,0,0-1.18.95,2.32,2.32,0,0,0-.41,1.38,2,2,0,0,0,.25,1,2.58,2.58,0,0,0,.78.81,5.39,5.39,0,0,0,1.42.66,21,21,0,0,0,2.14.55,24.77,24.77,0,0,1,4.93,1.41,9,9,0,0,1,3.59,2.51,6.35,6.35,0,0,1,1.35,4.23,6.62,6.62,0,0,1-.77,3.16,7.7,7.7,0,0,1-2.24,2.51,10.88,10.88,0,0,1-3.49,1.67,16.26,16.26,0,0,1-4.59.6,13.44,13.44,0,0,1-6.2-1.31,9.62,9.62,0,0,1-3.81-3.32,7.51,7.51,0,0,1-1.28-4.1h7a3.72,3.72,0,0,0,.65,2.11,3.55,3.55,0,0,0,1.59,1.18,6.16,6.16,0,0,0,2.2.37,5.48,5.48,0,0,0,2-.33,2.91,2.91,0,0,0,1.24-.92A2.23,2.23,0,0,0,407,446.06Z"/><path class="cls-1" d="M430.53,453.74a14.81,14.81,0,0,1-5.53-1,11.65,11.65,0,0,1-6.69-6.72,13.22,13.22,0,0,1-.89-4.85v-.91a16.61,16.61,0,0,1,.82-5.34,12.38,12.38,0,0,1,2.37-4.24,10.71,10.71,0,0,1,3.87-2.8,13.08,13.08,0,0,1,5.23-1,12.64,12.64,0,0,1,4.91.9,9.91,9.91,0,0,1,3.63,2.55,11.27,11.27,0,0,1,2.26,4,16.36,16.36,0,0,1,.78,5.22v3.06H420.44v-4.8H434v-.58a5.46,5.46,0,0,0-.49-2.39,3.68,3.68,0,0,0-1.43-1.59,4.66,4.66,0,0,0-2.38-.56,4.24,4.24,0,0,0-2.28.57,4.13,4.13,0,0,0-1.44,1.62,8.32,8.32,0,0,0-.78,2.41,17.23,17.23,0,0,0-.24,3v.91a8.87,8.87,0,0,0,.41,2.75,5.93,5.93,0,0,0,1.19,2.12,5.58,5.58,0,0,0,1.92,1.39,6.13,6.13,0,0,0,2.56.5,8.42,8.42,0,0,0,3.37-.68,7,7,0,0,0,2.77-2.14l3.49,4a9.62,9.62,0,0,1-2.21,2.21,11.87,11.87,0,0,1-3.41,1.73A13.89,13.89,0,0,1,430.53,453.74Z"/><path class="cls-1" d="M452.39,433.41v19.85h-7.47V427.39h7Zm7.72-6.21-.12,6.95c-.32,0-.73-.09-1.24-.13s-.95-.06-1.32-.06a7.87,7.87,0,0,0-2.47.35,4.26,4.26,0,0,0-1.72,1,4,4,0,0,0-1,1.66,6.92,6.92,0,0,0-.34,2.28l-1.41-.69a20.12,20.12,0,0,1,.51-4.69,12.58,12.58,0,0,1,1.45-3.69,7.12,7.12,0,0,1,2.35-2.43,5.86,5.86,0,0,1,3.15-.86,9.45,9.45,0,0,1,1.18.07A4.67,4.67,0,0,1,460.11,427.2Z"/><path class="cls-1" d="M469.15,427.39,474.53,448l.05,5.26h-4.71l-8.59-25.87ZM472.64,448l5.41-20.59h7.84l-8.58,25.87h-4.72Z"/><path class="cls-1" d="M488.55,420.69a3.47,3.47,0,0,1,1.14-2.67,4.9,4.9,0,0,1,6,0,3.45,3.45,0,0,1,1.16,2.67,3.39,3.39,0,0,1-1.16,2.64,4.9,4.9,0,0,1-6,0A3.41,3.41,0,0,1,488.55,420.69Zm7.94,6.7v25.87H489V427.39Z"/><path class="cls-1" d="M512.65,447.93a4.52,4.52,0,0,0,2.08-.45,3.41,3.41,0,0,0,1.38-1.28,3.92,3.92,0,0,0,.49-2h7a8.64,8.64,0,0,1-1.45,5,9.76,9.76,0,0,1-3.88,3.36,12.18,12.18,0,0,1-5.5,1.21,13,13,0,0,1-5.27-1,10.09,10.09,0,0,1-3.75-2.79,11.85,11.85,0,0,1-2.26-4.17,17.05,17.05,0,0,1-.75-5.15V440a17.13,17.13,0,0,1,.75-5.14,11.9,11.9,0,0,1,2.26-4.18,10.13,10.13,0,0,1,3.74-2.79,12.87,12.87,0,0,1,5.25-1,12.37,12.37,0,0,1,5.63,1.22,9.1,9.1,0,0,1,3.84,3.5,10.32,10.32,0,0,1,1.39,5.49h-7a5.56,5.56,0,0,0-.44-2.24,3.66,3.66,0,0,0-1.34-1.57,4,4,0,0,0-2.22-.59,3.93,3.93,0,0,0-2.23.59,3.65,3.65,0,0,0-1.33,1.61,8.46,8.46,0,0,0-.62,2.33,22,22,0,0,0-.17,2.76v.63a22.93,22.93,0,0,0,.17,2.81,7.86,7.86,0,0,0,.63,2.33,3.82,3.82,0,0,0,1.33,1.58A4,4,0,0,0,512.65,447.93Z"/><path class="cls-1" d="M527.26,420.69a3.48,3.48,0,0,1,1.15-2.67,4.9,4.9,0,0,1,6,0,3.45,3.45,0,0,1,1.16,2.67,3.39,3.39,0,0,1-1.16,2.64,4.9,4.9,0,0,1-6,0A3.42,3.42,0,0,1,527.26,420.69Zm7.94,6.7v25.87h-7.48V427.39Z"/><path class="cls-1" d="M539.49,440.59v-.5a16.33,16.33,0,0,1,.81-5.25,11.9,11.9,0,0,1,2.39-4.18,10.86,10.86,0,0,1,3.87-2.76,13.21,13.21,0,0,1,5.27-1,13.43,13.43,0,0,1,5.32,1,10.9,10.9,0,0,1,3.88,2.76,11.9,11.9,0,0,1,2.39,4.18,16.06,16.06,0,0,1,.82,5.25v.5a16,16,0,0,1-.82,5.22A12,12,0,0,1,561,450a10.62,10.62,0,0,1-3.87,2.76,14.74,14.74,0,0,1-10.57,0,10.56,10.56,0,0,1-3.9-2.76,12,12,0,0,1-2.39-4.19A16.23,16.23,0,0,1,539.49,440.59Zm7.48-.5v.5a15.41,15.41,0,0,0,.25,2.87,7.36,7.36,0,0,0,.83,2.34,4.17,4.17,0,0,0,1.52,1.57,5,5,0,0,0,4.6,0,4.27,4.27,0,0,0,1.5-1.57,7.36,7.36,0,0,0,.83-2.34,15.41,15.41,0,0,0,.25-2.87v-.5a15.09,15.09,0,0,0-.25-2.84,7.6,7.6,0,0,0-.83-2.35,4.26,4.26,0,0,0-1.51-1.61,4.45,4.45,0,0,0-2.33-.57,4,4,0,0,0-3.78,2.18,7.6,7.6,0,0,0-.83,2.35A15.09,15.09,0,0,0,547,440.09Z"/><path class="cls-1" d="M581.93,446.06a1.92,1.92,0,0,0-.44-1.26,3.84,3.84,0,0,0-1.58-1,22.47,22.47,0,0,0-3.19-.91,22.09,22.09,0,0,1-3.61-1.06,12.12,12.12,0,0,1-2.92-1.6,6.93,6.93,0,0,1-1.94-2.25,6.27,6.27,0,0,1-.69-3,7,7,0,0,1,.71-3.08,7.67,7.67,0,0,1,2.05-2.59,10,10,0,0,1,3.3-1.77,14.12,14.12,0,0,1,4.44-.64A15,15,0,0,1,584,428a8.75,8.75,0,0,1,3.82,3,7.3,7.3,0,0,1,1.34,4.34h-7.46a3.86,3.86,0,0,0-.38-1.75,2.79,2.79,0,0,0-1.17-1.16A4.44,4.44,0,0,0,578,432a4.19,4.19,0,0,0-1.76.35,2.78,2.78,0,0,0-1.17.95,2.32,2.32,0,0,0-.42,1.38,2,2,0,0,0,.25,1,2.62,2.62,0,0,0,.79.81,5.46,5.46,0,0,0,1.41.66,21,21,0,0,0,2.14.55,24.87,24.87,0,0,1,4.94,1.41,8.93,8.93,0,0,1,3.58,2.51,6.3,6.3,0,0,1,1.36,4.23,6.52,6.52,0,0,1-.78,3.16,7.7,7.7,0,0,1-2.24,2.51,10.78,10.78,0,0,1-3.49,1.67,16.21,16.21,0,0,1-4.59.6,13.39,13.39,0,0,1-6.19-1.31,9.58,9.58,0,0,1-3.82-3.32,7.51,7.51,0,0,1-1.28-4.1h7a3.65,3.65,0,0,0,.66,2.11A3.44,3.44,0,0,0,576,448.3a6.08,6.08,0,0,0,2.2.37,5.42,5.42,0,0,0,2-.33,2.85,2.85,0,0,0,1.24-.92A2.23,2.23,0,0,0,581.93,446.06Z"/><path class="cls-1" d="M94,467.46v5.24H78.64v-5.24Zm-11.83-6.41h7.48v24.18a4,4,0,0,0,.27,1.65,1.48,1.48,0,0,0,.86.8,4.32,4.32,0,0,0,1.53.23c.44,0,.83,0,1.14-.05s.62-.07.89-.12v5.4a14,14,0,0,1-2,.5,14.34,14.34,0,0,1-2.35.17,10.21,10.21,0,0,1-4.17-.78,5.63,5.63,0,0,1-2.69-2.5,9.32,9.32,0,0,1-.93-4.46Z"/><path class="cls-1" d="M113.53,481.81l2.06-.05a17.84,17.84,0,0,1-.61,4.81,11.37,11.37,0,0,1-1.82,3.82,8.29,8.29,0,0,1-3,2.53,9.06,9.06,0,0,1-4.15.89,10.84,10.84,0,0,1-3.5-.53,7,7,0,0,1-2.74-1.7,7.79,7.79,0,0,1-1.77-3,13.83,13.83,0,0,1-.62-4.39V467.46h7.46v16.79a5.32,5.32,0,0,0,.25,1.71,3.1,3.1,0,0,0,.7,1.16,2.72,2.72,0,0,0,1.1.67,4.68,4.68,0,0,0,1.44.21,5.19,5.19,0,0,0,3.12-.82,4.36,4.36,0,0,0,1.61-2.23A9.92,9.92,0,0,0,113.53,481.81Zm-.79,5.28V467.46h7.51v25.88h-7Z"/><path class="cls-1" d="M132.59,473.49v19.85h-7.46V467.46h7Zm7.73-6.22-.12,7c-.32-.05-.73-.09-1.25-.13s-.94-.06-1.31-.06a8,8,0,0,0-2.48.34,4.4,4.4,0,0,0-1.72,1,4.17,4.17,0,0,0-1,1.66,6.94,6.94,0,0,0-.34,2.29l-1.41-.7a20.61,20.61,0,0,1,.5-4.68,12.65,12.65,0,0,1,1.46-3.7,7.3,7.3,0,0,1,2.35-2.43,5.86,5.86,0,0,1,3.15-.86c.38,0,.77,0,1.17.07A4.64,4.64,0,0,1,140.32,467.27Z"/><path class="cls-1" d="M151.44,467.46v25.88H144V467.46Zm-7.22-3L149,457h8l-6.62,7.44Z"/><path class="cls-1" d="M170.81,486.14a2,2,0,0,0-.44-1.27,3.8,3.8,0,0,0-1.58-1,20.4,20.4,0,0,0-3.19-.91,22.09,22.09,0,0,1-3.61-1.07,12.12,12.12,0,0,1-2.92-1.6,6.81,6.81,0,0,1-1.94-2.25,6.27,6.27,0,0,1-.69-3,7,7,0,0,1,.7-3.08,7.76,7.76,0,0,1,2.06-2.58,10,10,0,0,1,3.3-1.77,14.11,14.11,0,0,1,4.44-.65,14.91,14.91,0,0,1,5.9,1.07,8.7,8.7,0,0,1,3.83,3,7.39,7.39,0,0,1,1.34,4.34h-7.46a3.66,3.66,0,0,0-.39-1.74,2.63,2.63,0,0,0-1.17-1.16,4.41,4.41,0,0,0-2.08-.42,4.22,4.22,0,0,0-1.76.34,2.93,2.93,0,0,0-1.17.95,2.36,2.36,0,0,0-.42,1.39,2,2,0,0,0,.26,1,2.38,2.38,0,0,0,.78.81,5.46,5.46,0,0,0,1.41.66,22,22,0,0,0,2.15.55,25.45,25.45,0,0,1,4.93,1.41,9.07,9.07,0,0,1,3.59,2.51,6.35,6.35,0,0,1,1.35,4.23,6.52,6.52,0,0,1-.78,3.16,7.46,7.46,0,0,1-2.23,2.51,11.1,11.1,0,0,1-3.49,1.68,16.64,16.64,0,0,1-4.59.59,13.31,13.31,0,0,1-6.2-1.31,9.68,9.68,0,0,1-3.81-3.31,7.46,7.46,0,0,1-1.28-4.1h7a3.66,3.66,0,0,0,.65,2.1,3.48,3.48,0,0,0,1.59,1.18,6.16,6.16,0,0,0,2.2.37,5.48,5.48,0,0,0,2-.33,2.83,2.83,0,0,0,1.24-.92A2.2,2.2,0,0,0,170.81,486.14Z"/><path class="cls-1" d="M195.32,467.46v5.24H180v-5.24Zm-11.83-6.41H191v24.18a4.17,4.17,0,0,0,.26,1.65,1.53,1.53,0,0,0,.86.8,4.4,4.4,0,0,0,1.53.23c.45,0,.83,0,1.15-.05s.62-.07.89-.12v5.4a13.83,13.83,0,0,1-2,.5,14.13,14.13,0,0,1-2.34.17,10.21,10.21,0,0,1-4.17-.78,5.63,5.63,0,0,1-2.69-2.5,9.32,9.32,0,0,1-.93-4.46Z"/><path class="cls-1" d="M198.81,460.76A3.44,3.44,0,0,1,200,458.1a4.9,4.9,0,0,1,6,0,3.62,3.62,0,0,1,0,5.31,4.9,4.9,0,0,1-6,0A3.45,3.45,0,0,1,198.81,460.76Zm7.94,6.7v25.88h-7.48V467.46Z"/><path class="cls-1" d="M222.92,488a4.52,4.52,0,0,0,2.08-.45,3.35,3.35,0,0,0,1.38-1.28,3.92,3.92,0,0,0,.49-2h7a8.78,8.78,0,0,1-1.45,5,9.92,9.92,0,0,1-3.88,3.36,12.35,12.35,0,0,1-5.51,1.2,13,13,0,0,1-5.26-1,10.17,10.17,0,0,1-3.75-2.78,12,12,0,0,1-2.26-4.18,17,17,0,0,1-.76-5.15v-.62a17,17,0,0,1,.76-5.14,11.94,11.94,0,0,1,2.26-4.19,10.24,10.24,0,0,1,3.74-2.79,12.87,12.87,0,0,1,5.25-1,12.5,12.5,0,0,1,5.63,1.22,9.12,9.12,0,0,1,3.84,3.51,10.4,10.4,0,0,1,1.39,5.48h-7a5.32,5.32,0,0,0-.45-2.23,3.56,3.56,0,0,0-1.34-1.58,4.47,4.47,0,0,0-4.44,0,3.64,3.64,0,0,0-1.33,1.61,8.53,8.53,0,0,0-.62,2.34,21.76,21.76,0,0,0-.17,2.76v.62a22.81,22.81,0,0,0,.17,2.81,7.86,7.86,0,0,0,.63,2.33,3.76,3.76,0,0,0,1.33,1.58A4,4,0,0,0,222.92,488Z"/><path class="cls-1" d="M236.53,480.66v-.5a16.33,16.33,0,0,1,.81-5.25,11.94,11.94,0,0,1,2.39-4.17,11.14,11.14,0,0,1,3.88-2.77,13.16,13.16,0,0,1,5.26-1,13.39,13.39,0,0,1,5.32,1,11.08,11.08,0,0,1,3.89,2.77,12.1,12.1,0,0,1,2.39,4.17,16.33,16.33,0,0,1,.81,5.25v.5a16.34,16.34,0,0,1-.81,5.23,12.24,12.24,0,0,1-2.39,4.18,10.74,10.74,0,0,1-3.88,2.76,13.23,13.23,0,0,1-5.28,1,13.38,13.38,0,0,1-5.29-1,10.65,10.65,0,0,1-3.9-2.76,12.08,12.08,0,0,1-2.39-4.18A16.34,16.34,0,0,1,236.53,480.66Zm7.48-.5v.5a16.23,16.23,0,0,0,.25,2.87,7.51,7.51,0,0,0,.83,2.34,4.17,4.17,0,0,0,1.52,1.57,4.39,4.39,0,0,0,2.31.56,4.3,4.3,0,0,0,2.29-.56,4.22,4.22,0,0,0,1.51-1.57,7.26,7.26,0,0,0,.82-2.34,15.31,15.31,0,0,0,.26-2.87v-.5a14.88,14.88,0,0,0-.26-2.83,7.65,7.65,0,0,0-.82-2.36,4.19,4.19,0,0,0-1.52-1.6,4.35,4.35,0,0,0-2.33-.58,4.19,4.19,0,0,0-2.27.58,4.24,4.24,0,0,0-1.51,1.6,7.93,7.93,0,0,0-.83,2.36A15.77,15.77,0,0,0,244,480.16Z"/><path class="cls-1" d="M279,486.14a2,2,0,0,0-.44-1.27,3.87,3.87,0,0,0-1.58-1,20.25,20.25,0,0,0-3.2-.91,22.39,22.39,0,0,1-3.61-1.07,12,12,0,0,1-2.91-1.6A6.81,6.81,0,0,1,265.3,478a6.27,6.27,0,0,1-.7-3,7,7,0,0,1,.71-3.08,7.76,7.76,0,0,1,2.06-2.58,10,10,0,0,1,3.3-1.77,14.09,14.09,0,0,1,4.43-.65,15,15,0,0,1,5.91,1.07,8.76,8.76,0,0,1,3.83,3,7.39,7.39,0,0,1,1.34,4.34h-7.47a3.66,3.66,0,0,0-.38-1.74,2.63,2.63,0,0,0-1.17-1.16,4.44,4.44,0,0,0-2.08-.42,4.19,4.19,0,0,0-1.76.34,2.93,2.93,0,0,0-1.17.95,2.36,2.36,0,0,0-.42,1.39,2.08,2.08,0,0,0,.25,1,2.52,2.52,0,0,0,.79.81,5.46,5.46,0,0,0,1.41.66,21.73,21.73,0,0,0,2.14.55,25.56,25.56,0,0,1,4.94,1.41,9.07,9.07,0,0,1,3.59,2.51,6.35,6.35,0,0,1,1.35,4.23,6.52,6.52,0,0,1-.78,3.16,7.46,7.46,0,0,1-2.23,2.51,11.21,11.21,0,0,1-3.49,1.68,16.66,16.66,0,0,1-4.6.59,13.27,13.27,0,0,1-6.19-1.31,9.78,9.78,0,0,1-3.82-3.31,7.52,7.52,0,0,1-1.27-4.1h7a3.59,3.59,0,0,0,.66,2.1,3.48,3.48,0,0,0,1.59,1.18,6.12,6.12,0,0,0,2.2.37,5.42,5.42,0,0,0,2-.33,2.81,2.81,0,0,0,1.25-.92A2.26,2.26,0,0,0,279,486.14Z"/><path class="cls-1" d="M313.34,488a4.52,4.52,0,0,0,2.08-.45,3.35,3.35,0,0,0,1.38-1.28,3.83,3.83,0,0,0,.49-2h7a8.7,8.7,0,0,1-1.45,5,9.92,9.92,0,0,1-3.88,3.36,12.31,12.31,0,0,1-5.5,1.2,12.92,12.92,0,0,1-5.26-1,10.29,10.29,0,0,1-3.76-2.78,12.15,12.15,0,0,1-2.26-4.18,17,17,0,0,1-.75-5.15v-.62a17,17,0,0,1,.75-5.14,12.11,12.11,0,0,1,2.26-4.19,10.33,10.33,0,0,1,3.74-2.79,12.87,12.87,0,0,1,5.25-1,12.5,12.5,0,0,1,5.63,1.22,9.12,9.12,0,0,1,3.84,3.51,10.31,10.31,0,0,1,1.39,5.48h-7a5.48,5.48,0,0,0-.44-2.23,3.62,3.62,0,0,0-1.34-1.58,4.49,4.49,0,0,0-4.45,0,3.7,3.7,0,0,0-1.33,1.61,8.53,8.53,0,0,0-.62,2.34,21.76,21.76,0,0,0-.17,2.76v.62a22.81,22.81,0,0,0,.17,2.81,7.86,7.86,0,0,0,.63,2.33,3.83,3.83,0,0,0,1.33,1.58A4.06,4.06,0,0,0,313.34,488Z"/><path class="cls-1" d="M327,480.66v-.5a16.33,16.33,0,0,1,.81-5.25,12,12,0,0,1,2.4-4.17A11,11,0,0,1,334,468a13.16,13.16,0,0,1,5.26-1,13.39,13.39,0,0,1,5.32,1,11,11,0,0,1,3.89,2.77,11.94,11.94,0,0,1,2.39,4.17,16.33,16.33,0,0,1,.81,5.25v.5a16.34,16.34,0,0,1-.81,5.23,12.08,12.08,0,0,1-2.39,4.18,10.57,10.57,0,0,1-3.88,2.76,13.23,13.23,0,0,1-5.28,1,13.38,13.38,0,0,1-5.29-1,10.61,10.61,0,0,1-3.89-2.76,12.1,12.1,0,0,1-2.4-4.18A16.34,16.34,0,0,1,327,480.66Zm7.49-.5v.5a15.34,15.34,0,0,0,.25,2.87,7.51,7.51,0,0,0,.82,2.34,4.25,4.25,0,0,0,1.52,1.57,5,5,0,0,0,4.61,0,4.2,4.2,0,0,0,1.5-1.57,7.51,7.51,0,0,0,.83-2.34,16.23,16.23,0,0,0,.25-2.87v-.5a15.77,15.77,0,0,0-.25-2.83,7.93,7.93,0,0,0-.83-2.36,4.19,4.19,0,0,0-1.52-1.6,4.33,4.33,0,0,0-2.33-.58,4.19,4.19,0,0,0-2.27.58,4.31,4.31,0,0,0-1.51,1.6,7.92,7.92,0,0,0-.82,2.36A14.9,14.9,0,0,0,334.44,480.16Z"/><path class="cls-1" d="M363.11,472.89v20.45h-7.46V467.46h7Zm-1,6.6-1.89.05a18,18,0,0,1,.66-5,12.19,12.19,0,0,1,1.93-4,8.7,8.7,0,0,1,3.14-2.64,9.66,9.66,0,0,1,4.34-.93,9,9,0,0,1,3.14.52,6,6,0,0,1,2.42,1.6,7.3,7.3,0,0,1,1.57,2.82,13.73,13.73,0,0,1,.55,4.15v17.27h-7.46V477a6.4,6.4,0,0,0-.42-2.62,2.31,2.31,0,0,0-1.21-1.23,4.66,4.66,0,0,0-1.89-.34,4.28,4.28,0,0,0-2.11.52,4.47,4.47,0,0,0-1.55,1.42,6.64,6.64,0,0,0-.92,2.13A11,11,0,0,0,362.15,479.49Zm15.09-.38-2.36.19a18,18,0,0,1,.62-4.88,11.52,11.52,0,0,1,1.86-3.91,8.85,8.85,0,0,1,3.1-2.6,9.54,9.54,0,0,1,4.32-.93,10,10,0,0,1,3.31.53,6.3,6.3,0,0,1,2.58,1.7,7.86,7.86,0,0,1,1.69,3.07,15.63,15.63,0,0,1,.6,4.65v16.41h-7.51V476.93a6.22,6.22,0,0,0-.42-2.58,2.34,2.34,0,0,0-1.2-1.22,4.5,4.5,0,0,0-1.85-.34,4.29,4.29,0,0,0-2.08.49,4.51,4.51,0,0,0-1.48,1.34,5.89,5.89,0,0,0-.89,2A10.31,10.31,0,0,0,377.24,479.11Z"/><path class="cls-1" d="M413.91,481.81l2-.05a17.84,17.84,0,0,1-.61,4.81,11.36,11.36,0,0,1-1.81,3.82,8.46,8.46,0,0,1-3,2.53,9.09,9.09,0,0,1-4.15.89,10.86,10.86,0,0,1-3.51-.53,6.9,6.9,0,0,1-2.73-1.7,7.55,7.55,0,0,1-1.77-3,13.53,13.53,0,0,1-.63-4.39V467.46h7.47v16.79a5.06,5.06,0,0,0,.25,1.71,3,3,0,0,0,.69,1.16,2.72,2.72,0,0,0,1.1.67,4.75,4.75,0,0,0,1.45.21,5.23,5.23,0,0,0,3.12-.82,4.4,4.4,0,0,0,1.6-2.23A9.91,9.91,0,0,0,413.91,481.81Zm-.79,5.28V467.46h7.51v25.88h-7Z"/><path class="cls-1" d="M432.8,473v20.36h-7.49V467.46h7Zm-1,6.51-1.87.05a17.66,17.66,0,0,1,.72-5.24,11.61,11.61,0,0,1,2.05-4,8.87,8.87,0,0,1,3.18-2.5A9.65,9.65,0,0,1,440,467a10,10,0,0,1,3.32.53,6.42,6.42,0,0,1,2.6,1.68,7.7,7.7,0,0,1,1.66,3.07,16.41,16.41,0,0,1,.57,4.67v16.41h-7.51V476.91a5.63,5.63,0,0,0-.45-2.51,2.57,2.57,0,0,0-1.33-1.25,5.56,5.56,0,0,0-2.12-.36,4.61,4.61,0,0,0-2.24.52,4.24,4.24,0,0,0-1.53,1.42,6.59,6.59,0,0,0-.88,2.13A12.14,12.14,0,0,0,431.82,479.49Z"/><path class="cls-1" d="M453,460.76a3.41,3.41,0,0,1,1.15-2.66,4.27,4.27,0,0,1,3-1,4.36,4.36,0,0,1,3,1,3.62,3.62,0,0,1,0,5.31,4.41,4.41,0,0,1-3,1,4.32,4.32,0,0,1-3-1A3.42,3.42,0,0,1,453,460.76Zm7.94,6.7v25.88h-7.49V467.46Z"/><path class="cls-1" d="M479.41,467.46v5.24H464.06v-5.24Zm-11.84-6.41h7.49v24.18a4.17,4.17,0,0,0,.26,1.65,1.48,1.48,0,0,0,.86.8,4.4,4.4,0,0,0,1.53.23c.45,0,.83,0,1.15-.05s.61-.07.88-.12v5.4a13.39,13.39,0,0,1-2,.5,14.3,14.3,0,0,1-2.34.17,10.21,10.21,0,0,1-4.17-.78,5.65,5.65,0,0,1-2.7-2.5,9.32,9.32,0,0,1-.93-4.46Z"/><path class="cls-1" d="M497.61,477.55l.05,4.12H494a6.49,6.49,0,0,0-2.14.31,3.74,3.74,0,0,0-1.45.85,3.16,3.16,0,0,0-.8,1.24,4.48,4.48,0,0,0-.25,1.54,2.7,2.7,0,0,0,1.43,2.42,3.27,3.27,0,0,0,1.56.36,5.13,5.13,0,0,0,2.5-.58,4.63,4.63,0,0,0,1.61-1.4,2.69,2.69,0,0,0,.58-1.54l1.79,3.11a19.07,19.07,0,0,1-1,2,8.72,8.72,0,0,1-1.58,1.89,7.85,7.85,0,0,1-2.31,1.43,8.72,8.72,0,0,1-3.24.54,9.76,9.76,0,0,1-4.42-1,8.06,8.06,0,0,1-3.17-2.74,7,7,0,0,1-1.18-4,8.37,8.37,0,0,1,.74-3.62,7,7,0,0,1,2.23-2.67,10.56,10.56,0,0,1,3.77-1.67,22.47,22.47,0,0,1,5.31-.56Zm-.93,9.62v-11.1a5.08,5.08,0,0,0-.36-2,2.78,2.78,0,0,0-1.13-1.31,3.67,3.67,0,0,0-2-.48,4.07,4.07,0,0,0-1.78.36,2.5,2.5,0,0,0-1.15,1,3.25,3.25,0,0,0-.4,1.65h-7.46a7,7,0,0,1,.79-3.25,8.21,8.21,0,0,1,2.26-2.65,10.75,10.75,0,0,1,3.53-1.78,15.4,15.4,0,0,1,4.62-.64,13.59,13.59,0,0,1,5.41,1,8.53,8.53,0,0,1,3.77,3,8.79,8.79,0,0,1,1.39,5.08V487a19.36,19.36,0,0,0,.27,3.67,8.35,8.35,0,0,0,.8,2.31v.41h-7.53a10.32,10.32,0,0,1-.79-2.79A21.11,21.11,0,0,1,496.68,487.17Z"/><path class="cls-1" d="M516.57,473.49v19.85h-7.46V467.46h7Zm7.73-6.22-.12,7c-.32-.05-.73-.09-1.25-.13s-.94-.06-1.31-.06a8,8,0,0,0-2.48.34,4.4,4.4,0,0,0-1.72,1,4.17,4.17,0,0,0-1,1.66,6.94,6.94,0,0,0-.34,2.29l-1.41-.7a20.61,20.61,0,0,1,.5-4.68,12.65,12.65,0,0,1,1.46-3.7,7.3,7.3,0,0,1,2.35-2.43,5.86,5.86,0,0,1,3.15-.86,11.65,11.65,0,0,1,1.17.07A4.64,4.64,0,0,1,524.3,467.27Z"/><path class="cls-1" d="M527.26,460.76a3.44,3.44,0,0,1,1.15-2.66,4.9,4.9,0,0,1,6,0,3.62,3.62,0,0,1,0,5.31,4.9,4.9,0,0,1-6,0A3.45,3.45,0,0,1,527.26,460.76Zm7.94,6.7v25.88h-7.48V467.46Z"/><path class="cls-1" d="M539.49,480.66v-.5a16.33,16.33,0,0,1,.81-5.25,11.94,11.94,0,0,1,2.39-4.17,11,11,0,0,1,3.87-2.77,13.21,13.21,0,0,1,5.27-1,13.43,13.43,0,0,1,5.32,1,11,11,0,0,1,3.88,2.77,11.94,11.94,0,0,1,2.39,4.17,16.06,16.06,0,0,1,.82,5.25v.5a16.06,16.06,0,0,1-.82,5.23,12.08,12.08,0,0,1-2.39,4.18,10.62,10.62,0,0,1-3.87,2.76,14.74,14.74,0,0,1-10.57,0,10.56,10.56,0,0,1-3.9-2.76,12.08,12.08,0,0,1-2.39-4.18A16.34,16.34,0,0,1,539.49,480.66Zm7.48-.5v.5a15.34,15.34,0,0,0,.25,2.87,7.27,7.27,0,0,0,.83,2.34,4.1,4.1,0,0,0,1.52,1.57,5,5,0,0,0,4.6,0,4.2,4.2,0,0,0,1.5-1.57,7.27,7.27,0,0,0,.83-2.34,15.34,15.34,0,0,0,.25-2.87v-.5a14.9,14.9,0,0,0-.25-2.83,7.66,7.66,0,0,0-.83-2.36,4.16,4.16,0,0,0-1.51-1.6,4.35,4.35,0,0,0-2.33-.58,4.05,4.05,0,0,0-3.78,2.18,7.66,7.66,0,0,0-.83,2.36A14.9,14.9,0,0,0,547,480.16Z"/><path class="cls-1" d="M581.93,486.14a1.94,1.94,0,0,0-.44-1.27,3.74,3.74,0,0,0-1.58-1,20.08,20.08,0,0,0-3.19-.91,22.09,22.09,0,0,1-3.61-1.07,12.12,12.12,0,0,1-2.92-1.6,6.93,6.93,0,0,1-1.94-2.25,6.27,6.27,0,0,1-.69-3,7,7,0,0,1,.71-3.08,7.73,7.73,0,0,1,2.05-2.58,10,10,0,0,1,3.3-1.77,14.11,14.11,0,0,1,4.44-.65,15,15,0,0,1,5.91,1.07,8.73,8.73,0,0,1,3.82,3,7.32,7.32,0,0,1,1.34,4.34h-7.46a3.78,3.78,0,0,0-.38-1.74,2.73,2.73,0,0,0-1.17-1.16A4.44,4.44,0,0,0,578,472a4.19,4.19,0,0,0-1.76.34,2.86,2.86,0,0,0-1.17.95,2.36,2.36,0,0,0-.42,1.39,2,2,0,0,0,.25,1,2.52,2.52,0,0,0,.79.81,5.46,5.46,0,0,0,1.41.66,21,21,0,0,0,2.14.55,25.56,25.56,0,0,1,4.94,1.41,9,9,0,0,1,3.58,2.51,6.3,6.3,0,0,1,1.36,4.23,6.52,6.52,0,0,1-.78,3.16,7.6,7.6,0,0,1-2.24,2.51,11,11,0,0,1-3.49,1.68,16.59,16.59,0,0,1-4.59.59,13.27,13.27,0,0,1-6.19-1.31,9.64,9.64,0,0,1-3.82-3.31,7.54,7.54,0,0,1-1.28-4.1h7a3.59,3.59,0,0,0,.66,2.1,3.38,3.38,0,0,0,1.59,1.18,6.08,6.08,0,0,0,2.2.37,5.42,5.42,0,0,0,2-.33,2.77,2.77,0,0,0,1.24-.92A2.2,2.2,0,0,0,581.93,486.14Z"/><polygon class="cls-2" points="635.95 650.51 700.54 605.56 700.54 679.48 635.95 650.51"/><polygon class="cls-3" points="700.54 679.48 635.95 650.51 700.54 642.52 700.54 679.48"/><rect class="cls-4" x="635.95" y="651.89" width="163.78" height="142.34"/><polygon class="cls-2" points="799.73 794.23 856.48 643.24 856.48 563.54 799.73 651.89 799.73 794.23"/><path class="cls-4" d="M856.48,563.43H977a39.85,39.85,0,0,1,39.85,39.85v0A39.85,39.85,0,0,1,977,643.13H856.48a0,0,0,0,1,0,0v-79.7a0,0,0,0,1,0,0Z"/><polygon class="cls-5" points="635.95 452.43 700.54 407.48 700.54 481.4 635.95 452.43"/><polygon class="cls-3" points="700.54 481.4 635.95 452.43 700.54 407.48 700.54 481.4"/><polygon class="cls-3" points="700.54 481.4 635.95 452.43 700.54 444.44 700.54 481.4"/><rect class="cls-6" x="635.95" y="452.42" width="163.78" height="142.34"/><polygon class="cls-5" points="799.73 594.76 856.48 523.55 856.48 443.85 799.73 452.42 799.73 594.76"/><polygon class="cls-3" points="799.73 594.76 856.48 523.55 856.48 443.85 799.73 452.42 799.73 594.76"/><path class="cls-6" d="M977,523.47H856.48v-79.7H977a39.85,39.85,0,0,1,39.85,39.85h0A39.85,39.85,0,0,1,977,523.47Z"/><polygon class="cls-7" points="635.95 253.01 700.54 208.06 700.54 281.99 635.95 253.01"/><polygon class="cls-8" points="700.54 281.99 635.95 253.01 700.54 208.06 700.54 281.99"/><polygon class="cls-3" points="700.54 281.99 635.95 253.01 700.54 245.02 700.54 281.99"/><rect class="cls-5" x="635.95" y="252.95" width="163.78" height="142.34"/><polygon class="cls-7" points="799.73 395.29 856.48 403.85 856.48 324.15 799.73 252.95 799.73 395.29"/><path class="cls-5" d="M977,403.82H856.48v-79.7H977A39.85,39.85,0,0,1,1016.88,364h0A39.85,39.85,0,0,1,977,403.82Z"/><polygon class="cls-9" points="635.95 53.04 700.54 8.09 700.54 82.01 635.95 53.04"/><polygon class="cls-3" points="700.54 82.01 635.95 53.04 700.54 8.09 700.54 82.01"/><polygon class="cls-3" points="700.54 82.01 635.95 53.04 700.54 45.05 700.54 82.01"/><rect class="cls-10" x="635.95" y="53.48" width="163.78" height="142.34"/><polygon class="cls-9" points="799.73 195.82 856.48 284.16 856.48 204.46 799.73 53.48 799.73 195.82"/><polygon class="cls-3" points="799.73 195.82 856.48 284.16 856.48 204.46 799.73 53.48 799.73 195.82"/><path class="cls-10" d="M977,284.16H856.48v-79.7H977a39.85,39.85,0,0,1,39.85,39.85h0A39.85,39.85,0,0,1,977,284.16Z"/><circle class="cls-7" cx="975.41" cy="245.02" r="28.85"/><path class="cls-10" d="M978.44,234.36v19.82h-4.59V239.53l-4.51,1.32v-3.48l8.68-3Z"/><circle class="cls-7" cx="975.41" cy="363.97" r="28.85"/><path class="cls-10" d="M982.12,369.58v3.54H968.29v-3l6.37-6.69a20.4,20.4,0,0,0,1.36-1.74,6.92,6.92,0,0,0,.75-1.39,3.23,3.23,0,0,0,.24-1.13,3.61,3.61,0,0,0-.25-1.44,1.93,1.93,0,0,0-.73-.88,2.25,2.25,0,0,0-1.2-.3,2,2,0,0,0-1.23.41,2.66,2.66,0,0,0-.83,1.12,4.21,4.21,0,0,0-.29,1.59h-4.6a6.43,6.43,0,0,1,.89-3.33,6.63,6.63,0,0,1,2.48-2.42,7.42,7.42,0,0,1,3.69-.9,8.73,8.73,0,0,1,3.68.68,4.9,4.9,0,0,1,2.24,2,6.53,6.53,0,0,1,.42,5.09,8.42,8.42,0,0,1-.93,1.88,16.92,16.92,0,0,1-1.49,1.91c-.59.66-1.25,1.35-2,2.09l-2.56,2.95Z"/><circle class="cls-7" cx="975.41" cy="483.62" r="28.85"/><path class="cls-10" d="M972.47,484.36v-2.29h3a10.41,10.41,0,0,1,2.71.34,6.32,6.32,0,0,1,2.11,1,4.51,4.51,0,0,1,1.36,1.62,4.85,4.85,0,0,1,.48,2.2,5.35,5.35,0,0,1-.56,2.47,5.24,5.24,0,0,1-1.57,1.84,7.24,7.24,0,0,1-2.35,1.14,10.93,10.93,0,0,1-2.93.38,9.53,9.53,0,0,1-2.47-.33,7.38,7.38,0,0,1-2.26-1,5.35,5.35,0,0,1-1.64-1.8,5.16,5.16,0,0,1-.62-2.62h4.6a2,2,0,0,0,.34,1.14,2.55,2.55,0,0,0,.94.81,2.72,2.72,0,0,0,1.26.3,3.06,3.06,0,0,0,1.44-.32,2.33,2.33,0,0,0,1.22-2.08,3.35,3.35,0,0,0-.34-1.61,1.94,1.94,0,0,0-1-.87,3.9,3.9,0,0,0-1.52-.27Zm0-3.41h2.23a2.94,2.94,0,0,0,1.41-.31,2,2,0,0,0,.82-.87,3.11,3.11,0,0,0,.27-1.34,2.37,2.37,0,0,0-.25-1.1,1.88,1.88,0,0,0-.77-.81,2.48,2.48,0,0,0-1.32-.31,2.62,2.62,0,0,0-1.06.22,2.11,2.11,0,0,0-.85.64,1.52,1.52,0,0,0-.33,1H968a4.57,4.57,0,0,1,.93-2.89,6,6,0,0,1,2.46-1.85,8.41,8.41,0,0,1,3.3-.65,9.78,9.78,0,0,1,3.7.65,5.46,5.46,0,0,1,2.49,1.9,5.29,5.29,0,0,1,.89,3.11,4,4,0,0,1-.48,1.92,5,5,0,0,1-1.33,1.58,6.65,6.65,0,0,1-2,1.07,7.77,7.77,0,0,1-2.51.39h-3Z"/><circle class="cls-7" cx="975.41" cy="603.28" r="28.85"/><path class="cls-10" d="M982.4,604.68v3.54H968.14l-.27-2.8,8-12.81h3.62l-3.94,6.44-3.26,5.63Zm-2-12.07v19.82h-4.59V592.61Z"/><polygon class="cls-8" points="799.73 395.29 856.48 403.85 856.48 324.15 799.73 252.95 799.73 395.29"/><path class="cls-7" d="M751.29,106.09c-2.13,0-4.26,0-6.39,0-1,0-1.29.31-1.38,1.3a42.27,42.27,0,0,1-5.62,17.76c-.85,1.42-.33,2,.89,2.5a3.44,3.44,0,0,0,3.77-.73c1.74-1.48,2.5-1.41,4,.29a22.26,22.26,0,0,1,4.33,7.67c.61,1.83.2,2.58-1.63,3.2s-2.88,1.88-2.77,3.44a3.43,3.43,0,0,0,2.89,3.36,2,2,0,0,1,1.62,2.78,20.14,20.14,0,0,1-5,8.64c-1,1-2,.86-3,0-1.85-1.53-3.11-1.73-4.64-.77-1.7,1-1.8,2.61-1.34,4.36a1.9,1.9,0,0,1-1.4,2.49,19.27,19.27,0,0,1-10.33,0,1.93,1.93,0,0,1-1.42-2.63,3.47,3.47,0,0,0-1.5-4.31c-1.48-.94-2.82-.7-4.49.71-1.43,1.21-2.35,1.16-3.61-.3a18,18,0,0,1-3.34-5c-.45-1.12-1-1.13-2-.74a48.79,48.79,0,0,1-19.6,3.33,49.83,49.83,0,0,1-8.43-1.06c-1.17-.24-2.22-.6-2.28-2s.9-1.89,2-2.26a45.64,45.64,0,0,0,32.25-40.58c.08-1.12-.23-1.46-1.32-1.45-4,0-7.93,0-11.89,0-1.18,0-2.45.12-3-1.3s.33-2.1,1.15-2.91l28.36-28.35c1.85-1.85,2.51-1.84,4.39,0L759,101.89c.82.82,1.68,1.62,1.19,2.91s-1.69,1.29-2.84,1.29Q754.3,106.07,751.29,106.09Zm-62,43a3.85,3.85,0,0,0,2.19.31,46.86,46.86,0,0,0,20.31-4.95c1.39-.68,2.42-1.54,2.28-3.21a3.5,3.5,0,0,0-2.81-3.24c-1.71-.51-2.11-1.35-1.58-3.09a21.1,21.1,0,0,1,4.78-8.19c1-1.12,2.12-1.28,3.19-.1a3.4,3.4,0,0,0,4.46.89c1.67-.88,1.91-2.38,1.57-4.11s.16-2.62,2-3a21.63,21.63,0,0,1,8.63-.11c1.1.22,1.57,0,2-1A42,42,0,0,0,739.6,105c.13-2.36.64-2.84,3.06-2.86,2.89,0,5.79,0,8.69,0a2.46,2.46,0,0,0,1.79-.31,4.44,4.44,0,0,0-.4-.52Q741.07,89.65,729.43,78c-.78-.78-1.16-.54-1.8.11q-11.45,11.51-22.93,23c-.25.25-.76.43-.44,1.11h9.68c2.77,0,3.43.62,3.28,3.33-1,18.73-9.56,32.9-25.77,42.41C690.8,148.28,690.14,148.64,689.31,149.1Zm24.86-.34c.36.66.82,1.42,1.2,2.21.5,1,1.06,1.35,2.19.73a6,6,0,0,1,4-.57,7.38,7.38,0,0,1,6.34,6.67c.14.95.39,1.4,1.37,1.33.71,0,1.42,0,2.13,0s1.06-.36,1.18-1.16c.82-5.53,5.54-8.26,10.68-6.13.89.36,1.29.21,1.68-.53a12.21,12.21,0,0,1,.89-1.53c.7-1,.5-1.5-.47-2.24a7.39,7.39,0,0,1,.06-11.89c1-.78,1-1.35.4-2.26a16.42,16.42,0,0,1-.9-1.52c-.41-.77-.86-.86-1.7-.45a7.29,7.29,0,0,1-10.55-5.56c-.22-1.84-1.26-1.69-2.39-1.67s-2.18-.31-2.44,1.58a7.25,7.25,0,0,1-10.17,5.87c-1.29-.56-1.78-.22-2.29.81-.27.52-.54,1.05-.86,1.54-.44.7-.24,1.07.4,1.57,4.38,3.43,4.38,8.76.07,12.2C714.65,148,714.16,148.08,714.17,148.76Z"/><path class="cls-7" d="M737.19,141.13a6.9,6.9,0,1,1-6.84-6.9A6.91,6.91,0,0,1,737.19,141.13Zm-4-.22a2.78,2.78,0,0,0-2.68-2.75,2.74,2.74,0,0,0-3,2.75,2.82,2.82,0,0,0,2.7,2.92A3.07,3.07,0,0,0,733.17,140.91Z"/><path class="cls-7" d="M678.52,512.94c3.32-2.16,4.23-2.15,7.33.26a1.31,1.31,0,0,0,1.31.16c2.8-.58,4.77.46,5.68,3.06.25.69.42,1.35,1.3,1s2.65,1,2.9-1.21c.14-1.29.52-2.56.84-4.06-1,.21-1.76.4-2.56.56a3.88,3.88,0,0,1-4.78-2.78c-.47-1.55-.78-3.15-1.16-4.72a1.36,1.36,0,1,1,2.63-.66c.33,1.22.63,2.45.85,3.69.27,1.47,1,2.05,2.52,1.68,5-1.23,10-2.41,15.08-3.6.69-.16,1.34-.43,1.38-1.2a4.38,4.38,0,0,0-.57-2.42c-.25-.43-.65,0-.95.08-4,1.11-7.44-.7-8.34-4.36s1.44-6.89,5.49-7.6c.82-.14,1.07-.41.83-1.14-.31-.95-.18-2.4-1.81-2.16-1.43.21-2.82.6-4.23.94-.71.17-1.44.38-2-.27s-.27-1.3,0-2a3.51,3.51,0,0,0-1.41-4.68,3.46,3.46,0,0,0-4.6,1.15c-1.06,1.6-.74,3.37.93,4.79.53.45,1,.85.89,1.62s-.9,1.06-1.6,1.23c-1.28.33-2.57.61-3.86.9a1.51,1.51,0,0,0-1.3,2.11c.42,1.63.79,3.27,1.2,4.9.23.89,0,1.63-.87,1.9-1,.32-1.57-.36-1.8-1.28-.41-1.63-.81-3.26-1.16-4.91-.61-2.9.45-4.66,3.35-5.32,1.33-.3,1.89-.57,1.27-2.17A5.61,5.61,0,0,1,693,480a5.89,5.89,0,0,1,6.38-1.25,5.55,5.55,0,0,1,3.95,5.1c.08,1.45.6,1.42,1.71,1.16,3.42-.8,5.07.28,5.87,3.7.18.76.36,1.52.53,2.28.47,2.11-.31,3-2.47,2.59a3.63,3.63,0,0,0-3.2.77,3.51,3.51,0,0,0-.46,4.74,3.47,3.47,0,0,0,4.83.69c2.35-1.55,3.08-1.25,3.75,1.56.43,1.85,1.23,3.68.25,5.62-.39.77.37.7.78.8l4,.93c3.48.83,4.55,2.42,3.77,5.84-.26,1.13-.24,1.51,1.11,1.61a5.77,5.77,0,0,1,5.32,4.2,6.19,6.19,0,0,1-8.11,7.74c-1-.37-1.27-.32-1.53.78-.88,3.86-2.33,4.7-6.21,3.86-.24-.05-.48-.07-.71-.12-3.7-.81-3.79-1-2.12-4.35a3.48,3.48,0,1,0-6.54-1.07c.33,2.83-.27,3.37-3,2.82-.54-.11-1.42-.75-1.6.3s-.71,2,.65,2.67c1.69.79,3.32,1.69,5,2.48a9.25,9.25,0,0,1,4.46,4.29c.7,1.33,1.45,2.63,2.16,4a8.35,8.35,0,0,1,.78,6.45,13.75,13.75,0,0,0-.61,5.52c.11.94-.12,1.78-1.2,1.85s-1.41-.71-1.48-1.66a16.86,16.86,0,0,1,.56-6.08,6,6,0,0,0-.58-5,3.14,3.14,0,0,1-.18-.31,13.65,13.65,0,0,0-8.48-8.24c-4.93-1.8-8.7-5.25-12.19-9.06-.73-.8-1.51-1.55-2.29-2.3-1.51-1.45-3.21-1.59-4.46-.37s-1.18,3,.37,4.59c2.45,2.48,4.93,4.94,7.4,7.4a27.4,27.4,0,0,1,3.61,4.5c.48.75.62,1.53-.16,2.08a1.33,1.33,0,0,1-2-.47c-2.84-4.32-6.82-7.6-10.44-11.2-2.2-2.18-3.29-5.25-1.32-8.08a1.57,1.57,0,0,0,0-1.68q-1.71-4.37-3.37-8.75c-.44-1.17-1.16-1.88-2.45-1.5s-1.47,1.48-1.14,2.63q3.12,10.72,6.28,21.44a6.75,6.75,0,0,0,2.37,3.11c5,4.35,10,8.72,15,13a3.77,3.77,0,0,1,1.42,2.57c.49,4.06,1.08,8.11,1.63,12.16,0,.3,0,.6.07.9.07.88-.17,1.59-1.18,1.67s-1.36-.55-1.48-1.44c-.54-4-1.14-8-1.61-12a3.54,3.54,0,0,0-1.3-2.42c-4.88-4.21-9.7-8.47-14.57-12.68a9.88,9.88,0,0,1-3.17-4.91c-1.92-6.7-3.91-13.38-5.88-20.06-1-3.36,0-5.74,2.69-6.66s4.71.36,6.06,3.58C678.31,512.51,678.42,512.72,678.52,512.94Zm28.87,7.45a6.28,6.28,0,0,1,6,7.88c-.17.72-1,1.59.56,1.83,1.2.19,2.44.68,2.78-1.17.24-1.3.57-2.58.87-3.87.16-.72.34-1.44,1.2-1.63s1.18.36,1.63.87c1.51,1.68,3.36,2,4.94.78a3.44,3.44,0,0,0,1-4.51c-1-1.7-2.72-2.16-4.86-1.28-1.63.68-2.49.05-2.2-1.67.23-1.36.56-2.71.91-4s-.19-1.93-1.41-2.19c-2.47-.53-5-1-7.39-1.64a7.24,7.24,0,0,0-3.89,0,39.31,39.31,0,0,1-4.91,1.15,2.15,2.15,0,0,0-2.07,2c-.41,2.24-1,4.46-1.46,6.69-.38,1.76-.79,3.51-1.13,5.28s1.1,1.76,2.23,2.08c1.6.46.94-.82,1-1.36A6.42,6.42,0,0,1,707.39,520.39Zm-17.07,4.72c0-2.51,0-5,0-7.42a1.65,1.65,0,0,0-1.68-1.75,1.35,1.35,0,0,0-1.64,1A7.66,7.66,0,0,0,690.32,525.11Zm6,5.76a3.29,3.29,0,0,0-.53-3.15,3.52,3.52,0,0,1-.64-3.24c.26-1.05.42-2.13.72-3.16.36-1.26-.38-1.4-1.25-1.24a1.61,1.61,0,0,0-1.41,1.8,40,40,0,0,1,.07,4.51C693.07,528.75,694.57,529.77,696.31,530.87Zm-12.07-12.7a22.41,22.41,0,0,0-.16-2.32,1.86,1.86,0,0,0-3.7.06c-.23,1.37.35,2.56.65,3.84.43,1.76,1.61,1.19,2.65,1.1,1.39-.13.54-1.16.63-1.79A3.91,3.91,0,0,0,684.24,518.17Z"/><path class="cls-7" d="M751.91,513c.33-.76.56-1.45.9-2.08a4.49,4.49,0,0,1,5.51-2.21,4.39,4.39,0,0,1,3,5.28c-2.14,7.57-4.4,15.11-6.65,22.65a7.87,7.87,0,0,1-2.63,3.59c-4.9,4.26-9.78,8.56-14.69,12.81a3.26,3.26,0,0,0-1.26,2.25c-.47,3.94-1.05,7.86-1.59,11.8-.13.95-.32,1.88-1.56,1.75s-1.24-1.13-1.12-2.06c.58-4.41,1.21-8.82,1.76-13.23a2.92,2.92,0,0,1,1.24-1.89c5-4.39,10-8.81,15.1-13.17a8.23,8.23,0,0,0,2.67-4.16c1.88-6.59,3.83-13.15,5.75-19.72a6.83,6.83,0,0,0,.31-1.41,1.65,1.65,0,0,0-1.28-1.9,1.62,1.62,0,0,0-2.12.9c-1.33,3.29-2.6,6.6-3.88,9.9-.21.52.09.9.33,1.33,1.53,2.82,1.23,5.1-1,7.38s-4.5,4.52-6.77,6.77a27.42,27.42,0,0,0-4,4.83c-.54.85-1.3,1.17-2.14.56s-.59-1.34-.12-2.08a29.55,29.55,0,0,1,4.12-5q3.54-3.49,7-7c1.43-1.46,1.48-3.26.2-4.46s-2.89-1-4.33.3c-.48.46-1,.91-1.41,1.41a43.2,43.2,0,0,1-15.77,11.42c-4.83,2.11-7.56,8.19-6.39,13.31a15.2,15.2,0,0,1,.08,6.44c-.63,3.25-1.34,6.48-2,9.71-.21,1-.46,2.19-1.9,1.8s-1-1.46-.77-2.41c.63-2.93,1.27-5.87,1.91-8.8a13.26,13.26,0,0,0-.14-7,8.75,8.75,0,0,1,.92-7.45,21.74,21.74,0,0,0,1.29-2.37,10.15,10.15,0,0,1,6.22-5.92c3.73-1.19,5.43-3.32,4.51-7.35a27.21,27.21,0,0,1-.26-5c-.12-3.31,2-5.42,5.23-5.1,1,.1,1.2-.18,1.48-1a4.42,4.42,0,0,1,5.53-3.07c.51.11.91.31,1.47-.14C747.58,510.8,748.87,510.78,751.91,513ZM734,530.93c2.15-1.23,3.43-2.59,3.16-5a21.44,21.44,0,0,1,.06-3.58c.08-1.34-.37-2.32-1.83-2.28-1.31,0-1.83.95-1.78,2.21C733.76,525.07,733.89,527.87,734,530.93Zm6.08-5.82c2.89-1.48,3.43-4.08,3.35-7.05,0-1.14,0-2.11-1.46-2.12a1.71,1.71,0,0,0-1.88,1.92C740.1,520.26,740.11,522.65,740.11,525.11Zm10-7.75c0-1.76-.13-3.13-1.87-3.16s-1.93,1.27-2,2.62c0,.95-.16,1.9-.22,2.86,0,.49-.27,1.26.6,1.15s1.86.9,2.4-.33A9.31,9.31,0,0,0,750.13,517.36Z"/><path class="cls-7" d="M729.75,490.18a9.86,9.86,0,0,1,.62-2.49c.23-.56,1.35-1.25-.14-1.75-1.12-.38-2.26-1.25-3,.47-.51,1.15-1,2.33-1.45,3.49-.3.72-.48,1.54-1.44,1.67s-1.3-.62-1.71-1.3a3.48,3.48,0,1,0-2,5.05c.72-.18,1.43-.48,2,.17s.3,1.45,0,2.19c-.49,1.16-1,2.33-1.44,3.5a1.5,1.5,0,0,0,1,2.26c1.24.46,2.46,1,3.67,1.51.86.37,1.48.94,1,1.95s-1.26.92-2.14.54c-1.15-.51-2.33-1-3.49-1.45-2.86-1.21-3.73-3.11-2.52-5.9.57-1.32.58-1.82-1-2.26a6.16,6.16,0,1,1,4.64-11.38c1.58.89,1.89.39,2.42-1,1-2.63,3-3.42,5.66-2.42,1,.39,2,.78,3,1.23,1.66.76,1.89,2,.61,3.23a4.13,4.13,0,0,0-1.4,2.24,3.53,3.53,0,0,0,3.07,4.14,3.49,3.49,0,0,0,3.83-3.42c.13-2.91.82-3.34,3.58-2.21,5.46,2.22,5.88,3.21,3.64,8.64-1.68,4-3.34,8.11-5,12.16-1.4,3.36-3.13,4.06-6.55,2.67l-3.83-1.57c-.89-.37-1.74-.83-1.3-2s1.36-.94,2.26-.57c1.44.6,2.89,1.18,4.33,1.79a1.59,1.59,0,0,0,2.43-1q3-7.26,6-14.5c.27-.65.48-1.31-.13-1.82a3.55,3.55,0,0,0-2.28-.95c-.61,0-.5.86-.68,1.34a6.25,6.25,0,0,1-12.12-2.32Z"/><path class="cls-7" d="M714.13,567.07c.08.95-.13,1.55-.91,1.75a1.23,1.23,0,0,1-1.66-1c-.43-1.81-.83-3.63-1.18-5.46a1.33,1.33,0,0,1,2.59-.58C713.41,563.63,713.78,565.46,714.13,567.07Z"/><path class="cls-7" d="M680.83,330.22c4.77-4.77,9.32-9.22,13.73-13.81a3.28,3.28,0,0,1,4.22-.85c6.35,2.65,12.75,5.18,19.16,7.69a4.18,4.18,0,0,1,2.63,2.56q3.81,9.79,7.8,19.53a2.91,2.91,0,0,1-.73,3.73c-4.21,4.08-8.32,8.27-12.45,12.43-.43.43-1,.75-1.22,1.62a30.17,30.17,0,0,0,11.09-2.22,32.39,32.39,0,0,0,19.31-39.14,3.18,3.18,0,0,1,.89-3.6q8.82-8.66,17.52-17.46c.86-.87,1.36-1,2.28-.05s.92,1.37,0,2.27c-5.57,5.46-11,11-16.6,16.47a2.5,2.5,0,0,0-.82,2.68c5.55,23.76-12.34,45.25-36.71,44.13-.95-.05-2,0-2.48-1.07s.46-1.75,1.11-2.41c4.91-4.93,9.81-9.87,14.77-14.74a2.16,2.16,0,0,0,.62-2.81c-2.4-5.76-4.69-11.56-7-17.37a3.09,3.09,0,0,0-1.92-1.94q-8.8-3.44-17.55-7a2,2,0,0,0-2.49.53c-5,5-10,10-15,15-.64.63-1.21,1.42-2.29,1s-1-1.39-1.06-2.29a35.62,35.62,0,0,1,36.71-38,24.72,24.72,0,0,1,6.86,1,3.14,3.14,0,0,0,3.66-1.08c5.26-5.4,10.64-10.69,15.93-16.06.85-.87,1.36-1.21,2.42-.16s.76,1.54-.13,2.42q-8.73,8.63-17.35,17.35a3.19,3.19,0,0,1-3.59.95,32.42,32.42,0,0,0-40.87,25A17.34,17.34,0,0,0,680.83,330.22Z"/><path class="cls-7" d="M703.48,364.62a1.66,1.66,0,0,1-.68-.14c-2-1.53-3.38.39-5,1-.62.24-.42.86-.48,1.35-.25,2.08-1.34,3.15-3.38,3.21-1.61.05-3.22.06-4.83,0A3.22,3.22,0,0,1,685.8,367c-.28-1.82-3-3.41-4.67-2.76-2,.75-3.2.39-4.3-1.34q-1.35-2.11-2.56-4.32c-.95-1.75-.65-3.11.89-4.45s1.43-4.48,0-5.66a3.17,3.17,0,0,1-.85-4.45c.74-1.42,1.53-2.83,2.37-4.2,1.1-1.83,2.44-2.24,4.42-1.42,1.43.59,4.44-1.14,4.62-2.65.27-2.27,1.24-3.24,3.46-3.31,1.68-.05,3.36-.06,5,0a3.07,3.07,0,0,1,3.13,3c.21,1.75,3,3.46,4.62,2.84,2-.78,3.35-.4,4.44,1.41q1.3,2.14,2.47,4.37a3.18,3.18,0,0,1-.9,4.3,4.24,4.24,0,0,0,0,5.76,3,3,0,0,1,1,3.95c-.87,1.72-1.84,3.4-2.83,5.05A3.17,3.17,0,0,1,703.48,364.62Zm-24.2-14v.3c.12,2.17.58,4.47-2.07,5.63-.42.19-.17.55,0,.82.63,1.12,1.29,2.22,1.91,3.35.34.62.75.48,1.29.3,2-.67,6.81,1.08,7.93,2.92a2.34,2.34,0,0,1,.46,1.24c-.15,1.54.76,1.63,1.9,1.58a22.29,22.29,0,0,1,2.31.08c.75,0,1.14-.15,1.28-1,.35-2.24,4.67-5.55,6.88-5.39a1.14,1.14,0,0,1,.57.09c1.81,1.37,2.38-.07,3.06-1.32.3-.57.64-1.12,1-1.66s.38-.9-.25-1.39c-1.74-1.34-2.51-6.76-1.32-8.64.14-.21.29-.49.5-.58,1.94-.82,1.19-2,.41-3.14a10.75,10.75,0,0,1-.85-1.52c-.38-.85-.85-1.15-1.78-.62a3.26,3.26,0,0,1-3.77-.44,15.91,15.91,0,0,0-2.35-1.32,3.19,3.19,0,0,1-2.08-3c0-1.13-.53-1.28-1.42-1.22a10.12,10.12,0,0,1-1.74,0c-1.42-.15-2.43,0-2.41,1.87,0,1.05-.89,1.8-1.87,2.3a18.81,18.81,0,0,0-2.51,1.42,3.32,3.32,0,0,1-3.78.37c-.54-.29-1-.55-1.41.22-.6,1.13-1.27,2.23-1.95,3.33a.69.69,0,0,0,.26,1.11A3.61,3.61,0,0,1,679.28,350.62Z"/><path class="cls-7" d="M712.58,288.05c.77,0,1.54,0,2.32,0s1.89-.24,1.82,1.39c-.07,1.47-.55,1.83-2,1.74a33.37,33.37,0,0,0-11.25,1.23c-1.76.5-1.64-.58-2-1.58-.56-1.49.53-1.4,1.36-1.59A41.47,41.47,0,0,1,712.58,288.05Z"/><path class="cls-7" d="M741.28,363.18a6.16,6.16,0,0,1-1.79-1.77c-.38-.41,0-.68.26-.94a42.93,42.93,0,0,0,8-10.14c.66-1.19,1.3-.25,1.87,0s1.49.38.86,1.47a46.92,46.92,0,0,1-8.54,10.89C741.7,362.89,741.48,363,741.28,363.18Z"/><path class="cls-7" d="M700.83,351.57a9.28,9.28,0,1,1-9.13-9.33A9.3,9.3,0,0,1,700.83,351.57Zm-9.19,6.13a6.18,6.18,0,1,0-6.26-6.05A6.21,6.21,0,0,0,691.64,357.7Z"/><path class="cls-7" d="M683.35,739.58c-4.72-5.66-5.05-11.38-1-16a11.1,11.1,0,0,1,14.24-2.1c5.21,3.27,6.49,8.77,3.5,15.84a15.15,15.15,0,0,0,5.37-3.58c2.57-2.52,5.1-5.09,7.65-7.63,1.43-1.44,2.86-2.88,4.31-4.31,2.55-2.52,5.78-2.68,8-.41s2,5.45-.53,8l-16.38,16.38c-1.31,1.31-2.59,2.66-4,3.93a4.08,4.08,0,0,0-1.32,3.25c0,5.16,0,10.33,0,15.5,0,1.19-.28,1.57-1.53,1.56q-14.54-.07-29.08,0c-1.25,0-1.55-.35-1.53-1.56.07-4.41,0-8.82,0-13.23,0-7.52,4.1-13.11,11.26-15.35Zm7.33,27.65c2.73,0,5.47-.08,8.19,0,1.37.06,1.62-.43,1.6-1.68-.08-4,.06-8-.06-12a7.68,7.68,0,0,1,2.52-6.18c6.59-6.46,13.09-13,19.61-19.57a7.33,7.33,0,0,0,1.24-1.44,2.5,2.5,0,0,0-1.63-3.69c-1.24-.28-2.09.4-2.9,1.21-3.85,3.87-7.73,7.72-11.58,11.59a20.48,20.48,0,0,1-10,5.7,2,2,0,0,0-1.78,1.73c-.68,2.87-2.73,4.71-5.06,4.79s-4.35-1.49-5.27-4.3c-.35-1-.73-1.18-1.72-1A12.47,12.47,0,0,0,674,753.68c-.19,4.18,0,8.37-.08,12.55,0,.73.22,1.08,1,1a6.87,6.87,0,0,1,1.57,0c1.26.18,1.69-.23,1.66-1.58-.09-4.53,0-9.06-.06-13.59,0-1.14.18-1.63,1.48-1.62s1.37.54,1.36,1.55c0,4.53,0,9.06,0,13.59,0,1.25.22,1.74,1.59,1.68C685.22,767.15,688,767.23,690.68,767.23ZM699,731a8.36,8.36,0,1,0-8.42,8.37A8.4,8.4,0,0,0,699,731Zm-8.33,11.18a3.17,3.17,0,0,0-.69,0c-.57.13-1.46-.39-1.68.32s.48,1.35,1,1.88a2.16,2.16,0,0,0,.43.29,1.82,1.82,0,0,0,2.35-.4c.5-.48,1.15-1.14.91-1.75-.34-.84-1.31-.17-2-.34A1.26,1.26,0,0,0,690.71,742.14Z"/><path class="cls-7" d="M733.92,721c-2.68-1.78-5.14-3.29-7.45-5a8.82,8.82,0,0,0-6-1.84c-1.57.06-2.87,0-4,1.46a4.48,4.48,0,0,1-4.14,1.38,4.66,4.66,0,0,0-3.23,1c-2.76,1.92-5.58,3.74-8.54,5.71a24.34,24.34,0,0,1-.15-5.23c0-1.12-.29-1.49-1.45-1.47-3.54.08-7.08,0-10.63,0-3.8,0-6.06-2.27-6.07-6.08,0-4.35,0-8.71,0-13.07,0-3.67,2.31-5.95,6-6,7.67,0,15.33,0,23,0,1.2,0,1.69-.15,1.71-1.56a6.78,6.78,0,0,1,6.92-6.81q15.33-.08,30.67,0a6.86,6.86,0,0,1,7,7q.07,8.36,0,16.73a6.9,6.9,0,0,1-7,7c-4.94,0-9.88.1-14.81,0-1.7,0-2,.56-1.93,2S733.92,719.22,733.92,721Zm-2.8-5.25a16.8,16.8,0,0,0,0-2.4c-.26-1.65.46-2,2-2,5.75.08,11.5.05,17.24,0a4.17,4.17,0,0,0,4.49-4.45q0-8.1,0-16.19a4.12,4.12,0,0,0-4.32-4.43q-15.15,0-30.31,0a4.12,4.12,0,0,0-4.38,4.37q0,8.19,0,16.37c0,2.57,1.74,4.52,4.24,4.27a11.66,11.66,0,0,1,8.91,3C729.52,714.81,730.19,715.17,731.12,715.78Zm-27.88,2.82c1.69-1.13,3.09-2,4.38-3a6.08,6.08,0,0,1,4.66-1.42,3,3,0,0,0,2-.35c.88-.55,1.47-1,.43-2.11a6.68,6.68,0,0,1-1.75-4.95c0-3.54,0-7.09,0-10.63,0-1.09-.22-1.5-1.41-1.49-7.73,0-15.46,0-23.18,0-2.27,0-3.29,1-3.3,3.31q0,6.45,0,12.9c0,2.26,1,3.28,3.31,3.29,4,0,7.9,0,11.85,0,2.93,0,2.93,0,3,2.85Z"/><path class="cls-7" d="M739.69,742c-6.26-2.75-9.05-6.78-8.53-12.12a11.18,11.18,0,0,1,20.74-4.54c2.69,4.54,1.93,9.33-2.24,14.16.05.08.09.22.16.25,5.54,2.09,8,6.14,7.83,12-.13,5.57,0,11.14,0,16.72,0,1.15-.2,1.6-1.49,1.59-7-.06-13.94,0-20.9,0-1.06,0-1.54-.26-1.35-1.35,0-.11,0-.23,0-.35,0-3.9,0-3.9-4-3.9-3,0-5.92,0-8.88,0s-5.23-2.08-5.23-4.88a4.9,4.9,0,0,1,5.21-4.88c4,0,8,0,12,0,.92,0,1.35-.27,1.56-1.16.34-1.53.82-3,1.19-4.54A12.39,12.39,0,0,1,739.69,742Zm15.14,16c0-2.44,0-4.88,0-7.32,0-4.55-2.91-8-7.14-8.49-4.08-.5-7.68,2.1-8.88,6.42-.7,2.52-1.44,5-2,7.56-.25,1.08-.75,1.35-1.79,1.33-4.47,0-9,0-13.42,0-2,0-3,.75-2.95,2.14s.95,2,2.88,2H737c2.36,0,3.06-.5,3.81-2.74,1.31-3.91,2.62-7.81,3.89-11.73.29-.89.54-1.4,1.66-.94.93.38,1.49.57,1.06,1.78-1.44,4.1-2.75,8.25-4.16,12.37a5.31,5.31,0,0,1-5.3,4c-1.43,0-1.19.78-1.26,1.65-.09,1.08.44,1.2,1.33,1.2,5.17,0,10.35-.06,15.52,0,1.15,0,1.33-.42,1.3-1.42C754.79,763.23,754.83,760.61,754.83,758Zm-4.19-27.07a8.36,8.36,0,1,0-8.4,8.4A8.4,8.4,0,0,0,750.64,730.93Z"/><path class="cls-7" d="M735.31,700.29c5.05,0,10.1,0,15.15,0,1.12,0,1.65.14,1.64,1.47s-.51,1.38-1.54,1.37q-15.25,0-30.5,0c-1,0-1.53-.11-1.54-1.37s.5-1.48,1.63-1.47C725.2,700.32,730.25,700.29,735.31,700.29Z"/><path class="cls-7" d="M735.13,708.67c-5,0-10,0-15,0-1.12,0-1.64-.15-1.63-1.47s.52-1.38,1.54-1.37q15.26,0,30.49,0c1,0,1.54.12,1.55,1.37s-.51,1.48-1.63,1.47C745.36,708.64,740.24,708.67,735.13,708.67Z"/><path class="cls-7" d="M732.34,697.52c-4.12,0-8.25,0-12.37,0-1.17,0-1.45-.36-1.44-1.47s.26-1.38,1.36-1.38q12.63.07,25.26,0c1.11,0,1.34.35,1.36,1.39s-.29,1.48-1.45,1.46C740.82,697.48,736.58,697.52,732.34,697.52Z"/><path class="cls-7" d="M740.88,689.14c3.26,0,6.51.05,9.76,0,1.16,0,1.46.35,1.45,1.47s-.25,1.39-1.36,1.38q-9.84-.08-19.68,0c-1.1,0-1.35-.33-1.36-1.38s.27-1.5,1.44-1.47C734.38,689.19,737.63,689.14,740.88,689.14Z"/><path class="cls-7" d="M720,689.17c1.25-.3,1.36.38,1.42,1.43.07,1.28-.54,1.33-1.54,1.37s-1.32-.4-1.34-1.4S718.78,688.89,720,689.17Z"/><path class="cls-7" d="M726.89,690.54c.36,1.47-.54,1.35-1.47,1.43-1.18.09-1.26-.47-1.31-1.43-.05-1.17.37-1.43,1.48-1.44S727.23,689.45,726.89,690.54Z"/><path class="cls-7" d="M750.76,694.76c1.57-.37,1.2.73,1.3,1.56.19,1.49-.84,1.11-1.66,1.21-1.35.17-1.07-.74-1.17-1.53C749.06,694.66,749.82,694.57,750.76,694.76Z"/><path class="cls-7" d="M699.05,703.08c3.25,0,6.5,0,9.75,0,1.17,0,1.46.35,1.45,1.47s-.25,1.39-1.35,1.38q-9.85-.07-19.69,0c-1.1,0-1.35-.34-1.36-1.38s.27-1.5,1.44-1.47C692.54,703.14,695.8,703.08,699.05,703.08Z"/><path class="cls-7" d="M699,711.46c-3.31,0-6.62-.06-9.93,0-1.24,0-1.24-.58-1.24-1.48s0-1.38,1.17-1.37q10,.08,20,0c1.14,0,1.14.55,1.15,1.39s0,1.49-1.26,1.46C705.66,711.4,702.35,711.46,699,711.46Z"/><path class="cls-7" d="M701.67,700.31c-2.27,0-4.53-.07-6.8,0-1.17,0-1.45-.35-1.44-1.47s.25-1.39,1.36-1.38q7.05.09,14.1,0c1.11,0,1.35.34,1.36,1.38s-.27,1.52-1.44,1.47C706.43,700.24,704.05,700.31,701.67,700.31Z"/><path class="cls-7" d="M689.24,700.27c-1.3.32-1.31-.45-1.39-1.45-.1-1.32.61-1.28,1.57-1.35,1.18-.07,1.27.47,1.3,1.43C690.76,700.06,690.4,700.53,689.24,700.27Z"/></svg>