<svg xmlns="http://www.w3.org/2000/svg" viewBox="0 0 195.78 195.77"><defs><style>.cls-1{fill:#6c2910;}</style></defs><g id="Capa_2" data-name="Capa 2"><g id="Capa_1-2" data-name="Capa 1"><path class="cls-1" d="M25.55,138.66a48,48,0,0,1-2.42-5.37c-2.22-7.25-.67-13.66,5-18.71,1.81-1.61,2-2.92,1.06-4.87-1.07-2.16-2.57-.56-3.46-.15-2.56,1.16-3-.35-3.62-2.18s-1.09-3.48,1.55-3.9c3.49-.55,5.09-2.58,6.42-5.91,3.08-7.76,12.41-11.18,20.18-8a15.76,15.76,0,0,1,8.9,19.57c-.44,1.31-1,2.57-1.69,4.24a35.83,35.83,0,0,0,19.83-6.53c3.39-2.28,6.69-3.87,10.54-1.4s4.38,6.42,3.35,10.48c-.91,3.59.4,4.24,3.72,4.13,7.24-.23,14.51-.14,21.76,0,2.31,0,3.39-.35,3.36-3.06-.16-10.82-.1-21.64,0-32.46,0-1.75-.38-2.73-2.24-3.27a18,18,0,0,1-12.73-12.57c-.58-1.85-1.53-2.26-3.17-2.5C93.64,64.91,88,60.25,86,52.23s.47-15.11,7.32-20.18a3.69,3.69,0,0,0,1.52-3.54,15.1,15.1,0,0,1,8-13.8A18.75,18.75,0,0,0,109.45,8C116-2.67,130.21-2.68,136.8,8a18.18,18.18,0,0,0,6.63,6.66A14.4,14.4,0,0,1,150.78,24c.54,2.18,1.52,2.27,3.49,1.81a15,15,0,0,1,16.82,6.81,22.12,22.12,0,0,0,7.68,7.73,14.82,14.82,0,0,1,7.42,13,5.1,5.1,0,0,0,2.12,4.42c6.19,5,8.69,11.53,6.76,19.33s-7.22,12.67-15.27,14.11c-2.18.39-3.43,1-4.2,3.43a17.22,17.22,0,0,1-11.77,11.58c-2.3.72-2.81,1.87-2.82,4.08,0,9.66-.11,9.66,9.35,9.66,7.51,0,15,.06,22.53,0,2.09,0,2.87.48,2.86,2.73-.07,23.42-.11,46.85,0,70.27,0,3.14-1.66,2.76-3.58,2.76H127.66c-41.12,0-82.24-.05-123.36.09-3.58,0-4.33-1-4.3-4.41q.24-27.88,0-55.76c0-3.13,1-3.54,3.7-3.08a35.62,35.62,0,0,1,11.08,3.95A17.51,17.51,0,0,0,25.55,138.66Zm49,13a71.09,71.09,0,0,0-7,18.2c-.5,2.31-.27,3.92,2,5.41,4,2.65,6.54,6.49,6.16,11.54-.19,2.48,1,2.64,2.89,2.64q53.84,0,107.66,0c2.53,0,3.24-.79,3.22-3.26-.1-14.38-.13-28.77,0-43.14,0-3.36-1.05-3.26-3.4-1.94-9.92,5.56-19.77,5.38-29.81,0a19.6,19.6,0,0,0-19.07,0c-10,5.33-19.8,5.3-29.85,0a19.63,19.63,0,0,0-19.07,0c-10,5.33-19.81,5.33-29.84,0a19,19,0,0,0-18.37-.26c-10.43,5.54-20.55,6-30.8-.1-2.22-1.31-3-.83-3,1.88.1,14.51,0,29,.08,43.52,0,1.24-.66,3.24,1.6,3.12,1.92-.09,4.45,1.39,5.64-1.55a16.36,16.36,0,0,1,10.65-9.67c2.33-.76,2.09-2,1.49-3.72a64.87,64.87,0,0,0-9.54-18.15c-1-1.37-2-2.8-3.22-4.51,9.29-1,17.38.31,24.29,6.57l7-13.75c2.22,4.39,4.18,8.06,5.93,11.83.88,1.88,1.56,2.12,3.26.75C59.4,152.27,66.36,150.9,74.55,151.63Zm79.82-75.36c.11-1.37.17-2.11.22-2.86.56-7.37.57-14.5-6.83-19.06-2-1.24-.86-2.56.41-3.59s1.9-3.11,3.91-1c4.42,4.66,10.59,8.3,9.22,16.24,0,.06.15.16.5.49,1.63-.95,3.25-2.27,5.1-2.89,2.13-.72,4-5.24,6.84-.41,2.92,5-2.28,4.23-3.86,5.75-1.89,1.8-4.47,2.88-6.78,4.22-1.14.67-2.06,1.33-2,2.89,0,7.38,0,14.76,0,22.14,0,2.36,1.12,2.13,2.63,1.28,4.51-2.52,6.87-6.39,6.69-11.54-.1-2.68.13-3.75,3.39-3.16,7.4,1.34,13.18-2.14,15-8.45,2-6.65-.94-12.43-8.07-15.57C179,60,178.5,59.29,179,57.4c1.72-6.16.5-9.11-4.91-12.46a23.11,23.11,0,0,1-7.68-7.8c-4.51-7.37-12.64-7.44-17.12-.14a23.82,23.82,0,0,1-7.95,8c-5.14,3.14-6.44,6.37-4.81,12.19.5,1.79.39,2.62-1.5,3.47-7.28,3.29-10.13,8.87-8.21,15.48s7.64,10,15.31,8.55c3.15-.58,3.26.55,3.15,3-.24,5.17,2,9,6.51,11.65,1.59.93,2.84,1.32,2.79-1.36-.08-4.07-.1-8.14,0-12.21,0-1.7-.81-2.49-2.11-3.24-3.4-2-6.69-4.18-10.17-6-2.47-1.31-1.13-2.54-.31-3.9s1.33-3.17,3.63-1.6C148.28,72.83,151.08,74.31,154.37,76.27ZM119.48,50.88c.28-.6.46-.81.47-1,0-1-.08-2.05.06-3.05,1-7.14-.49-13.24-6.84-17.51-2.49-1.68-.62-2.86.57-4.12s2.13-2.53,3.86-.5a45.93,45.93,0,0,0,5.66,5.67,8.19,8.19,0,0,1,3.06,7.28c-.23,6.68-.07,13.38-.07,20.24,2.94-1.46,3.19-1.47,3.13-2.69-.32-8,4.08-12.69,10.38-16.85,7.9-5.2,7.36-13.8-.62-18.81A22.92,22.92,0,0,1,131.75,12c-4.67-7.53-12.59-7.48-17.31.1A23.73,23.73,0,0,1,106.38,20c-4.88,3-6.29,6.52-4.54,11.94.66,2,.36,2.76-1.66,3.61-6.86,2.88-9.9,8.83-8.14,15.26s7.59,10,14.86,8.79c3-.51,4-.14,3.77,3.14-.33,5.17,2.16,9,6.66,11.54,1.85,1,2.76.88,2.69-1.55-.1-3.94-.12-7.89,0-11.83.06-1.82-.77-2.73-2.22-3.56-3.42-1.95-6.72-4.13-10.17-6-2.41-1.32-1.05-2.61-.27-4s1.49-3,3.69-1.46C113.75,47.68,116.64,49.21,119.48,50.88ZM52.67,120a30.28,30.28,0,0,0-4.57,0c-3.4.53-4-1.06-3.89-4.06.07-2.45,1.63-2.39,3.16-2.92a9.41,9.41,0,0,0-2.19-18.24,8.9,8.9,0,0,0-9,4.56c-2.16,3.74-2.23,8.08.48,11.13,3.33,3.73,1.52,5.07-1.59,6.78a15,15,0,0,0-3.31,2.54,11,11,0,0,0-.72,14.91c1.36,1.65,2.55,2.33,4.81,1.15,8.7-4.59,17.52-4.48,26.3,0,1.1.55,2.15,1.2,3.58.89,9.43-2.06,19-13.2,19.36-22.78,0-1.09.47-2.39-.88-3-1.08-.51-1.93.24-2.77.82A47,47,0,0,1,52.67,120Zm23.85,18.46c3.92-.3,6.21-1.7,8.58-2.86,8.45-4.11,17-4.35,25.33,0,8,4.19,15.63,4.26,23.64.06,8.31-4.36,16.88-4.17,25.33-.09a35.43,35.43,0,0,0,8.55,3.12c7.83,1.52,14-2.8,20.61-5.56,1.95-.82.82-3.72.75-5.65-.06-1.68-1.67-1.21-2.71-1.21q-48.14,0-96.27,0c-1.15,0-2.29-.1-3,1.14C84.91,131.65,81.28,134.82,76.52,138.46Zm49.74-51.52c0,10.79,0,20.81,0,30.82,0,2,1,2.24,2.63,2.23,5.34,0,10.68,0,16,0,10.17,0,10.12,0,9.76-10.37-.06-1.84-.65-2.66-2.38-3.2a18.27,18.27,0,0,1-12.57-12.74c-.35-1.12-.7-2-2.22-2.14C133.57,91.27,130.12,89.7,126.26,86.94ZM63.79,159a8.27,8.27,0,0,0-1.66.26c-4.32,1.62-7.33,5-10.36,8.19-1.66,1.78-2.45,1.49-3.43-.57-1.24-2.58-2.2-5.36-4.28-7.8l-3.52,7c-2.15,4.29-2.14,4.29-4.79.46-2.37-3.43-5.18-6.28-9.94-7.57a75.8,75.8,0,0,1,6.54,15.66c.66,2.46,2.18,3.17,4.19,1.58,6.62-5.24,14.14-6.54,22.27-5.34,1,.15,2,.42,2.34-1.05C62,166.28,62.87,162.76,63.79,159ZM43.12,179.83c3,2.27,5.55,4.83,6.76,8.43.42,1.24,1.54,1.13,2.55,1.13,4.58,0,9.15-.1,13.72.05,2.93.09,3.48-1.6,3.26-3.86a7.25,7.25,0,0,0-2.59-4.53C61.93,176.49,49.65,174.84,43.12,179.83Zm.39,9.4c-3.88-5.26-8.51-6.54-13.82-5.95-3.94.44-7.39,1.81-9.58,5.95Z"/><path class="cls-1" d="M37.81,1.23c2.14,2.54,3.82,5,5.95,7a17.62,17.62,0,0,0,16.63,4.34c1.71-.38,3.82-1,3.1,2.18-2.25,9.93,1.63,17.07,10.08,22.13a9.24,9.24,0,0,1,1.12,1c-1.2.94-2.31,1.86-3.48,2.71-6.7,4.9-9.54,11.33-7.88,19.6.37,1.88,1,4-2.38,3.27-9.6-2.17-16.59,1.54-21.63,9.64A16.39,16.39,0,0,1,38,74.69c-1.21-1.59-2.24-3-3.35-4.38-4.8-5.93-10.88-8.52-18.53-7.09-4.12.78-4.17.69-3.45-3.36,1.45-8.09-1.31-14.46-7.93-19.24C3.61,39.82,2.48,39,1.05,38c1.57-1.19,2.87-2.15,4.15-3.14,6.28-4.9,8.94-11.18,7.42-19.13-.33-1.69-1.46-4.2,2.17-3.38,9.77,2.21,16.84-1.55,21.91-9.81A13.54,13.54,0,0,1,37.81,1.23ZM64.11,38a11.72,11.72,0,0,0-.85-1.17A24.23,24.23,0,0,1,56.57,21c-.06-1.67-1.14-1.72-2.34-1.78a22.68,22.68,0,0,1-14.75-6.33c-1.51-1.43-2.2-.74-3.34.26A23.06,23.06,0,0,1,22,19.2c-1.82.1-2.72.56-2.8,2.61a22.39,22.39,0,0,1-6.14,14.43c-1.21,1.31-1.23,2,0,3.36A22.51,22.51,0,0,1,19.23,54c.08,2,1,2.48,2.79,2.59a22.7,22.7,0,0,1,14.11,6c1.41,1.29,2.22,1.33,3.65,0a23.07,23.07,0,0,1,14.49-6.07c1.88-.09,2.27-.9,2.36-2.58a23.83,23.83,0,0,1,5.88-14.18C63,39.27,63.51,38.7,64.11,38Z"/><path class="cls-1" d="M142.75,183c-5.74.28-11.42-3.08-17-6.3-3.7-2.14-5.57-1.6-7.65,2.06-2.85,5-4.49,5.29-9.92,3.25A15.83,15.83,0,0,1,98,165.08a16.29,16.29,0,0,1,14.82-13.66c2.18-.16,3.15.93,4.2,2.5,4.09,6.1,4.12,6.06,10.81,2.75,3.75-1.85,7.37-4,11.6-4.73,11-2,23.26,4.24,27.95,14.31a2.15,2.15,0,0,1-.06,2.1C163.23,176.84,153.32,183.05,142.75,183Zm-.22-6.32c7.39-.05,12.24-2.57,16.1-7.29,1.29-1.58,1.23-2.69,0-4.28a18.45,18.45,0,0,0-21.89-5.77,86.53,86.53,0,0,0-8.51,4.25c-1.77,1-4.8,1-4.94,3.5-.15,2.88,3.12,2.93,5,3.85C133.21,173.4,137.85,176.85,142.53,176.69Zm-25.59-9.34c-.12-3.76-2.8-6-4.59-8.71-.67-1-1.86-.3-2.77.16a9.38,9.38,0,0,0,.19,17c.76.36,1.85,1.17,2.44.29C114.05,173.31,116.86,171,116.94,167.35Z"/><path class="cls-1" d="M44.28,104.22c-.35,1.85-1.33,3-3.32,3a2.72,2.72,0,0,1-2.87-2.9,2.86,2.86,0,0,1,3-3.21C43,101.05,44,102.36,44.28,104.22Z"/><path class="cls-1" d="M37.91,56.78A18.86,18.86,0,1,1,56.8,38,18.73,18.73,0,0,1,37.91,56.78Zm12.61-19a12.59,12.59,0,1,0-12.44,12.7A12.6,12.6,0,0,0,50.52,37.79Z"/><path class="cls-1" d="M151.47,163.77c-.14,2.29-1.26,3.47-3.15,3.44a2.87,2.87,0,0,1-3-3.21,2.78,2.78,0,0,1,2.91-2.89A2.92,2.92,0,0,1,151.47,163.77Z"/></g></g></svg>