<svg xmlns="http://www.w3.org/2000/svg" viewBox="0 0 134.37 135.94"><defs><style>.cls-1{fill:#6c2911;}</style></defs><g id="Capa_2" data-name="Capa 2"><g id="Capa_1-2" data-name="Capa 1"><path class="cls-1" d="M58.05,135.93H4.57c-4.26,0-4.57-.29-4.57-4.43V44.34c0-7.75,4.08-12.15,11.79-12.56,1.58-.08,1.82-.64,1.83-2,0-5.27,2.56-9,7.46-10.89a2.17,2.17,0,0,0,1.59-2.5c-.05-4.34,0-8.68,0-13C22.58.93,23.63,0,26,0q37.37,0,74.71,0c2.57,0,3.51,1,3.5,3.55,0,5.42.07,5.5,5.57,5.5,2.58,0,3.53,1,3.49,3.57-.1,5.75,0,11.51-.06,17.26A2.36,2.36,0,0,0,115,32.54c4.88,2,7.27,5.76,7.3,11,0,2.93,0,5.85,0,8.77,0,1.23,0,1.94,1.7,2.15,7.46,1,11.46,6.58,10.1,14.15-2.46,13.63-5,27.23-7.56,40.85q-1.55,8.34-3.09,16.67c-1.15,6.13-5.4,9.76-11.64,9.77Q84.93,136,58.05,135.93Zm1.7-4.55h51.51c4.29,0,6.92-1.87,7.63-5.66q5.44-29,10.73-58.11c1-5.44-2-8.67-7.55-8.67q-48.69,0-97.38,0c-4.68,0-7,1.83-7.8,6.44-3.83,21.14-7.56,42.3-11.46,63.43-.43,2.32.13,2.62,2.23,2.62C25,131.35,42.38,131.38,59.75,131.38Zm13-117.74c-11.31,0-22.62,0-33.94-.05-1.91,0-2.57.4-2.55,2.45q.15,18,0,35.92c0,2,.61,2.47,2.54,2.46q33.66-.09,67.31,0c2,0,2.73-.39,2.71-2.6q-.18-17.82,0-35.63c0-2.18-.64-2.63-2.7-2.61C95,13.69,83.83,13.64,72.7,13.64ZM22.65,23.17c-2.94,1.34-4.28,3.3-4.48,6-.09,1.31-.06,2.64,0,4,.07,2.11-.87,3.18-3,3.11-.75,0-1.51,0-2.26,0-5.81,0-8.3,2.46-8.3,8.21v61.07a1.23,1.23,0,0,0,.59-1Q8.8,84.32,12.46,64c.85-4.68,3.53-7.87,8.18-9.1,1.56-.42,2.1-1,2.05-2.66-.12-4.71,0-9.43,0-14.14ZM66.13,9.09c10.28,0,20.56,0,30.83,0,1.63,0,2.8.1,2.78-2.24s-1-2.32-2.71-2.32q-33.51.06-67,0c-2.11,0-2.88.39-2.86,2.73.11,14.8.07,29.6,0,44.41,0,1.58-.18,2.77,2.21,2.81,2.57.05,2.33-1.32,2.33-3q0-19.23,0-38.47c0-3.52.42-3.94,3.88-3.95Zm47.13,27.66c0,5.59.06,10.76,0,15.92,0,1.71.85,1.83,2.1,1.71s2.55.53,2.47-1.6c-.11-3.29,0-6.59-.06-9.88C117.63,40.15,116.27,38.15,113.26,36.75Z"/><path class="cls-1" d="M72.23,22.69q-14,0-28,0c-1.62,0-3.29-.14-3.37-2.11-.11-2.4,1.78-2.45,3.58-2.45H86.59c4.71,0,9.42,0,14.14,0,1.74,0,3.44.2,3.37,2.39-.06,2-1.67,2.18-3.31,2.17Q86.51,22.67,72.23,22.69Z"/><path class="cls-1" d="M72.79,27.21H100.5c1.67,0,3.52,0,3.59,2.16.08,2.4-1.85,2.4-3.63,2.4q-28,0-56,0c-1.67,0-3.52,0-3.59-2.16-.08-2.41,1.86-2.4,3.64-2.4Z"/><path class="cls-1" d="M72.18,40.81q-13.86,0-27.71,0c-1.67,0-3.52,0-3.6-2.16-.08-2.4,1.86-2.4,3.63-2.4q28,0,56,0c1.67,0,3.52,0,3.59,2.16.09,2.39-1.85,2.4-3.63,2.4Q86.32,40.79,72.18,40.81Z"/><path class="cls-1" d="M72.77,45.32h27.71c1.67,0,3.53,0,3.61,2.14.1,2.4-1.83,2.42-3.62,2.42q-28,0-56,0c-1.67,0-3.52,0-3.61-2.15-.1-2.4,1.84-2.42,3.62-2.41Z"/></g></g></svg>