<svg xmlns="http://www.w3.org/2000/svg" viewBox="0 0 192.08 191.88"><defs><style>.cls-1{fill:#6c2910;}</style></defs><g id="Capa_2" data-name="Capa 2"><g id="Capa_1-2" data-name="Capa 1"><path class="cls-1" d="M186.83,127c-3.16-3.5-7-6.43-10.46-9.63-1.34-1.22-2.83-1.87-4.29-.41s-1,3.15.51,4.51l7.77,7.05c5.92,5.37,7.27,11.55,4.42,18.91-.93,2.41-2.14,3.35-4.86,3.32-15.85-.15-31.71-.06-47.56-.09-1.08,0-2.22.31-3.47-.51,3.3-9.22,2.35-18.88,2.44-28.46,0-4.45-.41-4.83-5-4.84H96.45L96,116c4.23-3.84,8.36-7.79,12.72-11.47a18.17,18.17,0,0,0,6.64-14.84c-.07-5-.47-10-.91-14.94-.18-2,.09-2.9,2.42-2.88q14.41.18,28.84,0c2.33,0,2.65.88,2.4,2.9-.47,3.71-.8,7.45-1,11.18-.38,5.86.12,11.65,4.32,16.16,3.31,3.56,7.12,6.63,10.73,9.9,1.35,1.23,2.88,1.76,4.27.2s.77-3.2-.7-4.52c-2.87-2.6-5.67-5.27-8.61-7.79a11.93,11.93,0,0,1-4.27-9.19,60.57,60.57,0,0,1,.1-6.74q2.42-29.1,4.91-58.19c.6-7.09,1.17-14.18,1.75-21.27.17-2,.08-4.15-2.37-4.33a99.76,99.76,0,0,0-11.6,0A2.51,2.51,0,0,0,143.24,3a2.47,2.47,0,0,0,2.34,2.51,29.39,29.39,0,0,0,5.22.15c2.34-.17,3.09.72,2.83,3-.43,3.72-.71,7.46-.9,11.19-.1,2.05-.9,2.74-3,2.73q-18.54-.13-37.08,0c-1.88,0-2.64-.51-2.74-2.46a105.47,105.47,0,0,0-1-10.8c-.43-2.75.18-3.79,3.17-3.7,6.61.2,13.23.06,19.85.06,2,0,4-.31,4-2.83S134,0,132,0c-8.37,0-16.73.06-25.1,0-3.09,0-4.29,1.36-4,4.37q1.29,14.36,2.48,28.72c1.52,18.16,3.08,36.31,4.47,54.48.4,5.18-1,9.71-5.37,13.27-5.21,4.27-10.11,8.92-15,13.55a8.35,8.35,0,0,1-6.3,2.46c-17.85-.11-35.7-.06-53.56-.05-1,0-2,0-3,0a2.55,2.55,0,0,0-2.74,2.85,2.47,2.47,0,0,0,2.63,2.58c1.12,0,2.25,0,3.37,0q45.89,0,91.76,0c1.32,0,3.49-.64,3.8.6a16.87,16.87,0,0,1,.2,7.38c-.43,2.07-2.75,1.12-4.21,1.12q-55.42.08-110.86,0c-4.86,0-4.65,0-4.91-4.86-.18-3.41.85-4.89,4.35-4.33a20,20,0,0,0,3,0c2,0,3.59-.59,3.5-2.89-.08-2-1.58-2.63-3.41-2.63-3,0-6,.07-9,0-2.84-.09-4.12,1.13-4.06,4,.09,4.37,0,8.74,0,13.11,0,12.88,4,24.46,12.52,34,19.73,22.16,44.53,27.86,72.77,21.27,2.07-.48,3.94-1.5,5,1.51.45,1.24,2.07,1.14,3.35,1.14q37.63,0,75.28,0a3.89,3.89,0,0,0,4.08-2.56c5.85-13.89,12-27.68,17.51-41.71A19,19,0,0,0,186.83,127ZM113.49,28.28c6,0,12,0,18,0s12,.05,17.94,0c1.88,0,2.59.46,2.39,2.57-1,10.92-1.88,21.84-2.7,32.77-.14,1.9-.86,2.57-2.75,2.56q-15.13-.09-30.27,0c-1.82,0-2.38-.77-2.51-2.4-.87-11-1.76-22.09-2.73-33.13C110.61,28.38,111.83,28.27,113.49,28.28Zm-99.36,130c-1.17,1.28-1.66,0-2.12-.82a32.83,32.83,0,0,1-3.75-8.68c3.19,1.93,5,4.3,7,6.33C17,156.79,14.9,157.45,14.13,158.29ZM14,145.84c-1.94-1.69-3.15-4.5-6.78-3.58-1.51.39-1-1.86-1.21-3-.15-.94-.33-2.09,1.25-2.1.87,0,1.74,0,2.62,0H122.18c3.43,0,4.22,1.25,3,4.49-.19.48-.3,1.11-.88.85-3.57-1.62-4.78,1.63-6.76,3.24-2.28,1.85-3.91,5.75-6.48,5.57-2.21-.16-4.19-3.55-6.26-5.52-.63-.6-1.28-1.2-1.85-1.85-2.06-2.39-4.06-2.51-6.26-.1-2,2.2-4.3,4.17-6.31,6.39-1.39,1.55-2.39,1.7-3.86.06-2.16-2.41-4.57-4.6-6.84-6.91-1.74-1.77-3.44-1.78-5.18,0-2.29,2.3-4.68,4.5-6.86,6.9-1.38,1.53-2.31,1.75-3.78.07-2-2.34-4.42-4.39-6.56-6.66-1.94-2.05-3.66-2.11-5.73-.1-2.82,2.77-5.34,7.72-8.56,7.64-2.85-.08-5.64-4.75-8.33-7.52-2.14-2.21-4-2.12-6,.13a18,18,0,0,1-1.85,1.85c-2.24,1.93-3.91,5.77-6.5,5.61C18.11,151.16,16.17,147.71,14,145.84ZM123,149a26.85,26.85,0,0,1-3.56,8.53c-.46.8-1,2.08-2.13.76-.73-.85-2.85-1.47-1.13-3.14C118.22,153.09,120,150.68,123,149Zm-19.14,10.54A29.77,29.77,0,0,0,100,163.7c-2.66-2.67-5.18-4.61-6.85-7.12-1-1.56,1.41-2.55,2.43-3.6,4.07-4.25,4-4,8.24-.21C106.73,155.32,107,157.12,103.84,159.49ZM84.06,156c-.79,1.77-2.23,2.8-3.48,3.94s-2.44,3.74-3.79,2.91c-2.56-1.58-4.52-4.16-6.61-6.44-.42-.45.42-1,.79-1.46,5.17-6.45,6.6-6.49,11.91-.34C83.27,155,83.67,155.49,84.06,156Zm-26.37,4.32c-2.62,3-4.46,3-6.67-.13a12.37,12.37,0,0,0-2.37-2.37c-1.34-1.09-1.47-2-.09-3.23,1.91-1.76,3.62-3.72,5.33-5.5,1.86.64,2.67,2,3.7,3C61.74,156.1,61.5,155.93,57.69,160.28Zm-18.82-4.16c-.8.87-1.5,1.68-2.26,2.44-4.91,5-4.8,4.84-9.8.13-2.19-2.06-2-3.22.05-5.19,4.9-4.65,4.81-4.76,9.59.06C37.23,154.35,38,155.17,38.87,156.12Zm39.25,29a84.14,84.14,0,0,1-13,1.12c-17.73-.32-33.74-6.27-46.66-19.77-1.85-1.94-1.72-3.08.18-4.77,1.34-1.18,2.09-1.29,3.32,0,2.2,2.38,4.62,4.56,6.85,6.92,2,2.11,3.78,2,5.73,0,2.25-2.34,4.65-4.53,6.84-6.92,1.25-1.35,2.07-1.26,3.27.05,2.2,2.38,4.6,4.57,6.85,6.92,2,2.06,3.78,2,5.73,0,2.15-2.26,4.51-4.33,6.58-6.66,1.46-1.66,2.43-1.48,3.82.05,2.09,2.32,4.42,4.41,6.58,6.66,2,2.07,3.78,2,5.72-.08s4.37-4.13,6.3-6.4c1.69-2,2.85-1.68,4.38.1s3.32,3.39,5,5.06c4,4,4.21,4,8.34-.13,1.77-1.76,3.61-3.47,5.27-5.32,1.25-1.39,2.18-1.67,3.57-.11,1.22,1.39,2.35,2.23.52,4.2C103.74,176.36,91.89,182.46,78.12,185.09Zm90.67-.26c-.42,1.16-1.33,1.35-2.38,1.35q-34.62,0-69.24-.06c-.3,0-.6-.26-1.44-.64,6.52-3.42,11.73-7.76,19.63-7.47,17.2.64,34.43.2,51.64.2h4.16C170.85,180.87,169.54,182.75,168.79,184.83Zm10.93-25.52c-1.67,3.62-3.19,7.3-4.69,11-.58,1.42-1.29,2.18-3,2.17q-27.87-.14-55.75-.15c-.1,0-.19-.13-.66-.46a59.75,59.75,0,0,0,9.87-13.75c.75-1.53,1.85-1.76,3.31-1.76,16.35,0,32.69.06,49,0C180.56,156.3,180.71,157.14,179.72,159.31Z"/><path class="cls-1" d="M121.59,49.81c2.31,3.08,4.47,6.27,6.82,9.33,2,2.56,3.73,2.58,5.67,0,2.41-3.16,4.71-6.41,7-9.66a15,15,0,0,0,1.11-2.28,9.27,9.27,0,0,0-.75-1.83c-2.6-3.64-5.14-7.33-7.93-10.83-1.64-2.05-3.5-1.46-4.94.49-2.37,3.2-4.65,6.46-7,9.64A3.79,3.79,0,0,0,121.59,49.81Zm9.76-8.48c5.38,7.16,5.39,4.6.12,11.64C126,48.08,126,47.25,131.35,41.33Z"/><path class="cls-1" d="M117.82,41c2.16,0,2.79-1.68,2.82-3.67s-.32-4-2.72-4.15-3,1.8-3,3.7C114.91,39.07,115.38,41,117.82,41Z"/><path class="cls-1" d="M144.87,41c2.34-.1,2.77-2,2.75-4s-.61-3.86-3-3.8-2.76,2-2.78,4S142.51,41.09,144.87,41Z"/><path class="cls-1" d="M142.88,54.91c-2.41.06-2.89,2-2.76,4-.09,2.24.62,4,3,3.85,2.2-.12,2.61-2,2.6-3.85S145.36,54.84,142.88,54.91Z"/><path class="cls-1" d="M119.64,54.91c-2.43,0-2.84,1.86-2.85,3.93s.49,3.93,2.9,3.87c2.18-.05,2.75-1.78,2.63-3.83C122.45,56.94,122.08,55,119.64,54.91Z"/><path class="cls-1" d="M133.52,161.65c-2,0-4,.1-4,2.69s1.82,2.91,3.85,2.84,3.85-.36,3.81-2.89C137.14,161.94,135.38,161.65,133.52,161.65Z"/><path class="cls-1" d="M167.36,161.65c-1.92,0-4,0-4,2.65s1.77,2.89,3.82,2.9,3.86-.33,3.85-2.87C171,162,169.25,161.63,167.36,161.65Z"/><path class="cls-1" d="M150.09,161.63c-1.94,0-3.7.49-3.73,2.68,0,2.42,1.79,3,4,2.86,2,.15,3.86-.43,3.82-2.84S152.1,161.63,150.09,161.63Z"/><path class="cls-1" d="M46.17,93.86a21.05,21.05,0,0,0,7.5,3.77,31.93,31.93,0,0,0,5,1v7.62a1.92,1.92,0,0,0,1.93,1.93h3.59a1.92,1.92,0,0,0,1.93-1.93V98.57a27.52,27.52,0,0,0,8.25-2.09,18.2,18.2,0,0,0,8.15-6.72,19.46,19.46,0,0,0,2.9-10.88,19.56,19.56,0,0,0-2.35-10,19.73,19.73,0,0,0-6.85-6.8,49.52,49.52,0,0,0-11-4.83,43.15,43.15,0,0,1-8.63-3.77,12,12,0,0,1-4.42-4.33,11.52,11.52,0,0,1-1.3-5.6,13.46,13.46,0,0,1,1.3-6.07,9.18,9.18,0,0,1,4-4.08A14.7,14.7,0,0,1,63.17,32a11.91,11.91,0,0,1,5.3,1.13,11,11,0,0,1,3.9,3.2,14.23,14.23,0,0,1,2.4,4.87,21.32,21.32,0,0,1,.74,4.37,1.92,1.92,0,0,0,1.91,1.78h5.37a1.94,1.94,0,0,0,1.93-2,29.31,29.31,0,0,0-1.43-8A20.13,20.13,0,0,0,79,29.94a17.72,17.72,0,0,0-6.77-4.53A23,23,0,0,0,67,24.15V15.06a1.92,1.92,0,0,0-1.93-1.92H61.45a1.92,1.92,0,0,0-1.93,1.92v9a23.06,23.06,0,0,0-7.75,2.19,17.64,17.64,0,0,0-7.5,6.84,20.32,20.32,0,0,0-2.65,10.6,19.34,19.34,0,0,0,2.47,10.05,20.35,20.35,0,0,0,7.06,6.95A47.59,47.59,0,0,0,62,65.48a36.8,36.8,0,0,1,8.3,3.7,13.07,13.07,0,0,1,4.45,4.4A10.82,10.82,0,0,1,76.12,79a11.46,11.46,0,0,1-1.65,6.2,10.63,10.63,0,0,1-4.78,4.08,18.28,18.28,0,0,1-7.62,1.42A18.7,18.7,0,0,1,57.14,90a12.58,12.58,0,0,1-4.52-2.3,11.37,11.37,0,0,1-3.28-4.4,15.71,15.71,0,0,1-1.16-5.22,1.93,1.93,0,0,0-1.92-1.81H40.81a1.94,1.94,0,0,0-1.93,2.06,23.36,23.36,0,0,0,1.94,8.57A18.53,18.53,0,0,0,46.17,93.86Z"/></g></g></svg>