<svg xmlns="http://www.w3.org/2000/svg" viewBox="0 0 120.31 128.99"><defs><style>.cls-1{fill:#6c2911;}</style></defs><g id="Capa_2" data-name="Capa 2"><g id="Capa_1-2" data-name="Capa 1"><path class="cls-1" d="M0,70.77V16.88c0-3.84.37-4.2,4.15-4.21,2,0,4-.15,6,0,2.2.21,2.73-.68,2.58-2.7-.17-2.26,0-4.54-.06-6.8S13.51,0,15.8,0Q57.35,0,98.9,0C101.2,0,102,1.06,102,3.25c-.07,5.2.05,10.41-.07,15.61,0,1.74.42,2.42,2.2,2.8a20.26,20.26,0,0,1,16.16,19,20.5,20.5,0,0,1-14,20.49C102,62.64,102,62.64,102,67.31q0,22.53,0,45.07c0,3.44-.48,3.92-3.91,3.93-2.35,0-4.71.07-7,0-1.34-.05-1.76.44-1.72,1.74.08,2.6,0,5.2,0,7.81,0,2.21-1,3.15-3.21,3.15q-41.41-.06-82.84,0C.46,129,0,128.4,0,125.16Q0,98,0,70.77ZM17.06,57.94c0,17.12,0,34.24,0,51.35,0,1.83.27,2.62,2.42,2.62q37.89-.14,75.77,0c1.94,0,2.35-.57,2.34-2.41-.07-14,0-28,0-42,0-1.67.42-3.64-.32-4.91-.55-.94-2.68-.93-4.07-1.41C84.2,58.07,78.75,49.76,79.27,40c.47-8.69,7.13-16.41,16-18.37,1.72-.38,2.33-1,2.26-2.78-.15-3.94-.17-7.89,0-11.83C97.66,5,97,4.41,94.93,4.42q-37.64.11-75.27,0C17.55,4.41,17,5,17,7.09,17.1,24,17.06,41,17.06,57.94ZM4.35,70.68c0,17,0,34.07,0,51.1,0,2.21.54,2.8,2.77,2.79,24.08-.08,48.16,0,72.24,0,5.57,0,5.46,0,5.6-5.66,0-2.16-.62-2.6-2.67-2.59-21.73.07-43.46,0-65.19,0-4.05,0-4.32-.26-4.32-4.24V23c0-5.87,0-5.79-5.9-5.87-2,0-2.53.49-2.53,2.49C4.39,36.62,4.35,53.65,4.35,70.68ZM99.68,25.55C90.55,25.6,83.63,32.7,83.63,42c0,8.61,7.44,15.89,16.22,15.87a16.17,16.17,0,1,0-.17-32.34Z"/><path class="cls-1" d="M57.18,106.79H28.5c-.59,0-1.18,0-1.76,0-1.34-.06-2.29-.65-2.36-2.08a2,2,0,0,1,2.36-2.3c2.71.31,3-1.06,2.81-3.21s0-4.53,0-6.79c0-2.08.9-3.13,3-3.12,3.1,0,6.2,0,9.31,0,2,0,2.91.91,2.87,2.93-.05,2.76.1,5.54,0,8.3-.11,2.3,1.43,1.76,2.68,1.81s2.44.25,2.39-1.81c-.12-6.37,0-12.75,0-19.13,0-3,.62-3.64,3.7-3.66,2.69,0,5.37,0,8.06,0s3.41.58,3.42,3.39c0,6.29.11,12.58,0,18.87,0,2.21.92,2.35,2.68,2.4s2.43-.46,2.41-2.37c-.1-8.64,0-17.28,0-25.92,0-4.39.22-4.61,4.48-4.61h6.79c3.55,0,3.94.37,3.94,3.86,0,8.8,0,17.61,0,26.42,0,1.8.23,2.87,2.41,2.6,1.47-.18,2.79.46,2.83,2.13,0,1.84-1.3,2.3-2.92,2.29Q72.28,106.78,57.18,106.79ZM74.29,88v10.3c0,4.11,0,4,4.11,4.11,1.9.05,2.4-.53,2.37-2.4-.1-7.2,0-14.4,0-21.61,0-4.77,0-4.72-4.77-4.49-1.33.06-1.71.5-1.69,1.78C74.33,79.76,74.29,83.87,74.29,88ZM54.13,92.2v6c0,4.2,0,4.11,4.28,4.16,1.85,0,2.22-.66,2.19-2.34-.1-4.43,0-8.86,0-13.29,0-4.89,0-4.83-4.83-4.64-1.42,0-1.64.61-1.62,1.81C54.17,86.68,54.13,89.44,54.13,92.2ZM40.38,98.06c0-4.41,0-4.34-4.31-4.38-1.57,0-2.28.33-2.13,2s0,3.5,0,5.24c0,.72.09,1.19,1,1.37C39.33,103.21,40.38,102.42,40.38,98.06Z"/><path class="cls-1" d="M65.4,42.07A20.54,20.54,0,1,1,45.61,21.15,20.58,20.58,0,0,1,65.4,42.07ZM42.62,35.45c0-3.44,0-5.79,0-8.13,0-1.11-.1-1.69-1.53-1.4C35.34,27.1,30,32.68,29,38.71A16.18,16.18,0,0,0,55.11,54.22c1.09-.93,1-1.44-.11-2.2-1.92-1.35-3.65-3-5.67-4.17C44.06,44.8,40.81,40.87,42.62,35.45Zm18.43,6.26A16.3,16.3,0,0,0,50.61,26.58c-3.54-1.34-3.54-1.34-3.54,2.31,0,.92,0,1.84,0,2.76,0,3-.77,6.43.43,8.86s4.35,3.74,6.74,5.42c1.58,1.12,3.43,3.71,4.72,3,1.88-1.09,1.82-4.09,2.09-6.41A6.42,6.42,0,0,0,61.05,41.71Z"/><path class="cls-1" d="M57.37,13.93H38.74a12.94,12.94,0,0,1-2.49-.19,1.88,1.88,0,0,1-1.55-2,2,2,0,0,1,1.79-2.09,7.55,7.55,0,0,1,1.26-.06H77.52c1.36,0,2.3.59,2.37,2,.08,1.62-1,2.26-2.38,2.3-2.35.06-4.7,0-7.05,0Z"/><path class="cls-1" d="M40.84,69.49c4.44,0,8.87,0,13.3,0,1.65,0,3.22.18,3.21,2.23,0,1.86-1.48,2.19-3,2.19H27.46c-1.51,0-3-.23-3.07-2.15,0-2.09,1.51-2.27,3.15-2.27C32,69.51,36.41,69.49,40.84,69.49Z"/><path class="cls-1" d="M34.26,81.58c-2.42,0-4.84,0-7.26,0-1.53,0-2.68-.61-2.62-2.33s1.17-2.11,2.58-2.11q7.51,0,15,0c1.53,0,2.67.6,2.61,2.32s-1.17,2.1-2.57,2.12C39.44,81.6,36.85,81.58,34.26,81.58Z"/><path class="cls-1" d="M100.15,27.24c1.1,2.92,4.33,2.58,6,4.45,1,1.15-.16,2.94-2,3.06a40.45,40.45,0,0,1-5.28,0c-1.87-.11-1.52,1.17-1.44,2.18s-.73,2.55,1.37,2.51c1.59,0,3.19,0,4.78,0,1.94,0,3,.9,2.91,2.93,0,2.6,0,5.2,0,7.8,0,1.87-.84,2.87-2.73,2.76-1.16-.07-1.64.29-2.09,1.47a2,2,0,0,1-3.81,0,2.05,2.05,0,0,0-2.38-1.52,2.07,2.07,0,0,1-2.44-2.24c0-1.37,1-2,2.39-2.1s2.51,0,3.77,0c2.71,0,3.6-1.29,2.84-3.88-.28-1-1-.79-1.58-.8-1.59,0-3.19,0-4.78,0A2.36,2.36,0,0,1,93,41.29c0-2.77,0-5.54,0-8.31a2.11,2.11,0,0,1,.16-1c.23-.43.61-1.16.88-1.13C96.72,31.1,97.77,28.45,100.15,27.24Z"/></g></g></svg>