<svg xmlns="http://www.w3.org/2000/svg" viewBox="0 0 190.56 201.75"><defs><style>.cls-1{fill:#6c2910;}</style></defs><g id="Capa_2" data-name="Capa 2"><g id="Capa_1-2" data-name="Capa 1"><path class="cls-1" d="M120.2,119.89c2.26-2.56,3.23-4.79.94-7.46a16.3,16.3,0,0,1-1.44-2.34,2.92,2.92,0,1,1,5-3.07c1.57,2.41,3.12,4.86,4.58,7.34,10.4,17.62,20.4,35.51,33.94,51,1.35,1.56,2.56,3.43.52,5.15-2.19,1.84-3.76.26-5.22-1.49a277.84,277.84,0,0,1-29.75-43.92c-.56-1-1.25-2-2.07-3.22-2.42,3.33-3.24,6.13-1.58,10.14,6.91,16.71,13.33,33.62,20.06,50.41,1.41,3.52,3.38,6.8,5.07,10.21,2.52,5.08-.28,9.35-6,8.94-5.1-.36-10.2-.92-15.28-1.49a8.75,8.75,0,0,1-7.46-5.65,3.23,3.23,0,0,0-3.41-2.42c-14.24-.38-28.21-2.4-41.63-7.43-.2-.08-.48.07-.8.13-.39,2.65.69,5.14,1,7.72.38,3.76-1.06,6.47-4.45,7.93a7.11,7.11,0,0,1-8.88-2c-3.08-3.58-6.1-7.22-9.31-10.68s-4-7.35-1.43-11.47c1.41-2.29.89-3.47-1.27-5C19.81,149,4.62,118.21,3.3,80.13a7.89,7.89,0,0,0-1.55-5,7.25,7.25,0,0,1,0-9.46,7.55,7.55,0,0,1,9.08-2.82c4.6,1.55,9.32,2.82,13.74,4.76,6.85,3,13.2.72,19.32-1.67,4.71-1.84,8.93-5,13.34-7.55.8-.47,2.25-.64,1.72-2.14a2.42,2.42,0,0,0-2.36-1.77,1.83,1.83,0,0,1-.78-.09c-4.68-2.43-8.7-2.79-13.68.63s-9.09-1.28-12.78-4.27c-3.05-2.47-3.46-6-2.44-9.74,1.32-4.83,3.11-9.29,8.9-10.29.9-.16,1-1.07,1.47-1.7,3.34-4.88,8.13-8.19,12.92-11.34,3.36-2.21,7.52-1.1,10.22,2.25,3.29,4.08,6.46,8.28,9.44,12.59A13.5,13.5,0,0,1,72,43c-.79,4.19.2,5.35,4.23,5.05a14.53,14.53,0,0,1,11.88,4.1c1.34,1.33,2.11,1.64,3.11-.31A20.56,20.56,0,0,1,105,40.89c3-.76,2.69-2.89,1.1-4.38-4.23-3.93-5.65-8.71-5.2-14.23.2-2.37-.59-3.28-3-3.17A15.67,15.67,0,0,1,86.63,15c-1.56-1.33-2.53-2.93-1.12-4.75s3.21-1.35,4.79.06a11.3,11.3,0,0,0,4.41,2.49c4.43,1.3,5.4.84,7-3.47A14.28,14.28,0,0,1,114.61,0a14.51,14.51,0,0,1,13.65,8.91c.62,1.46,0,3.81,2,4.28a9.8,9.8,0,0,0,6.89-1,13,13,0,0,0,2.54-1.82c1.58-1.41,3.3-2,4.79-.2s.53,3.43-1,4.79A14.53,14.53,0,0,1,132.8,19.1c-2.64-.13-3.84.54-3.59,3.44A16.06,16.06,0,0,1,124.1,36.4c-2.09,2-1.47,3.52,1.45,4.37,7.63,2.22,11.23,7,11.67,14.83.53,9.31,1.11,18.61,1.63,27.92.1,1.73.29,3.35,1.6,4.7,6.86,7.16,11.28,15.77,14.37,25.06,5.73,17.22,14.93,32.58,24.94,47.55a137.35,137.35,0,0,1,9.71,16.64c1.75,3.62,1.43,6.82-1.18,9.83-3.26,3.77-6.48,7.59-9.82,11.29-2.93,3.26-6.2,4-9.5,2.27s-4.59-4.82-3.86-9a26.5,26.5,0,0,0,.55-3.5c.33-7.67,3.16-13.56,11.05-16.05,2.12-.67,2.49-2,.93-3.78a9.82,9.82,0,0,1-.63-1,243.18,243.18,0,0,1-30.88-59.91c-2-5.8-5.85-10.5-9.79-15.11a3.46,3.46,0,0,0-3.41-1.33c-7,.85-14.08,1.6-21.12,2.4-1.28.15-2.74,0-1.78,2.19C113.45,103.68,116.73,111.64,120.2,119.89ZM21.45,84.48A5.51,5.51,0,0,0,21.37,86c1,4.2,1.86,8.46,3.13,12.58,8,26.19,22.21,47.71,47.09,60.83,18.85,9.94,39.17,12,60,10.71.84-.05,2.13.14,1.66-1.37-.39-1.29-.32-3-2.15-3.36a14.88,14.88,0,0,0-2.75,0,160.39,160.39,0,0,1-22-.67c-30.91-3.7-53.93-19-68.64-46.54-1-2-2.08-4.08.51-5.4s3.74.74,4.79,2.69c17.78,33.18,46.85,45.14,82.85,44,3.87-.12,4-.64,2.42-4.17-.89-2-2.39-1.65-3.9-1.67-33.58-.47-58.63-15.58-75.82-44.16a100.6,100.6,0,0,1-9.5-20.69c-1-3.18-3.14-1.5-4.77-1.34-2.3.24-1.06,2-.78,3,.9,3.42,1.88,6.83,3,10.17.71,2.09.45,3.77-1.67,4.52-2.28.81-3.41-.82-4-2.7a112.75,112.75,0,0,1-3.63-12.85C26.62,86.16,24.82,84.77,21.45,84.48Zm99.36,52.23c-5.69-13.52-11.11-26.29-16.39-39.12-.85-2-1.76-2.12-3.51-1.33-3.34,1.52-6.77,2.85-10.13,4.31-3.76,1.62-7.21,1.21-10.18-1.64s-3.24-6.23-1.36-10.51c.34-.76,1.46-1.78,0-2.14-7.32-1.79-14.08-6.74-22.3-3.66-2.26.85-1.63,1.78-1.09,3.17,4.58,11.88,10.8,22.75,19.89,31.78C88,129.77,103,135.72,120.81,136.71ZM9.58,79.92c0,71.8,66.36,116.47,129.71,104.09-.75-2-1.62-3.9-2.18-5.9s-1.82-2.46-3.8-2.23a120.57,120.57,0,0,1-26.72-.17C80.5,172.9,58.14,162.66,41,142.35,27,125.8,19.07,106.4,15.25,85.29,14.6,81.7,13,80.35,9.58,79.92Zm38.9-9.59c3.07,2.82,6.23,4.31,9.64,4.43a50.79,50.79,0,0,1,18.94,4.69c7.2,3.21,13.29,2.46,19.58-2.13,2.48-1.81,2.69-3,1.14-5.17A133.81,133.81,0,0,0,83.48,56,7.33,7.33,0,0,0,74,54.92C65.84,60.35,57.28,65.14,48.48,70.33Zm78.57-18.5c-.1-3-1.23-5-4-5.4-3.09-.46-5.06,1-5.7,4.07-1.45,6.92-3,13.83-4.22,20.8A7.42,7.42,0,0,1,109,77c-7.46,4.12-14.81,8.42-22.23,12.6-1.72,1-3.34,2-2.39,4.25s2.9,1.7,4.69,1l24.29-10.15a10.85,10.85,0,0,0,6.41-7.48c1.48-5.16,3-10.31,4.51-15.46C125.25,58.31,126.19,54.91,127.05,51.83Zm-8.24,95.65a23.25,23.25,0,0,0,2.75.19c1.08,0,2.72.79,3.06-.68a4.16,4.16,0,0,0-1.55-3.83c-.59-.49-1.73-.36-2.63-.47-3.64-.43-7.32-.62-10.92-1.28-24.8-4.55-41.89-19.23-53.56-41a90.39,90.39,0,0,1-6.2-14c-.89-2.7-2.56-1.57-4.07-1.28-2.47.47-.87,2.09-.56,3a77.88,77.88,0,0,0,3.09,7.65C62.13,126.18,84.57,144.91,118.81,147.48ZM115.1,19.17c-2,0-3.93,0-5.89,0-1.06,0-2.31-.05-2.39,1.38-.22,4.06-.67,8.36,3.1,11.18,2.12,1.58,3.24,3.26,2.91,5.89-.21,1.67.21,2.7,2.28,2.65,1.81,0,2.33-.87,2.13-2.43-.37-2.77.79-4.57,3-6.23,2.64-2,4.36-8.67,2.82-11.19s-4.53-.79-6.81-1.25A5.17,5.17,0,0,0,115.1,19.17ZM48.19,78.51l.19-1c-3.25-.68-4.43-5.61-8.65-4-7.26,2.7-14,1.26-20.83-1.64-2.75-1.18-5.66-2-8.52-2.94-1.47-.47-3.28-1.23-4,.87S7.45,72.39,8.93,73c6.72,2.57,13.44,5.11,20.15,7.69a10.79,10.79,0,0,0,6.17.58C39.57,80.36,43.87,79.42,48.19,78.51Zm8.67-34.76c-1,3.26-.52,5.37,3.56,5.16,1.4-.07,1.93,1.61,2.68,2.66s1.34,2.56,3.29,1.22c1.72-1.18,1.48-2.23.4-3.49a5.56,5.56,0,0,1-1-6.18c1.16-3,.25-5.86-1.55-8.53-2.92-4.3-2.93-4.29-7-1.2A3.15,3.15,0,0,0,56,36.76C56.35,39.09,56.59,41.43,56.86,43.75ZM171,193c0,1.07-.25,2.1.94,2.46a1.93,1.93,0,0,0,2.09-.74q4.91-5.62,9.81-11.28c1.45-1.67.47-3.22-.37-4.69-.47-.83-.55-2.14-1.95-2.17-1.06,0-8.46,4.75-8.65,5.75C172.13,185.92,171.55,189.54,171,193ZM50.69,44.58c-.15-2.78.15-4.6-.39-6.12C48.48,33.3,50.26,30,55,27.73c1-.47,3.61-.88,1.69-3.24-1.46-1.79-3-2.45-5-.81-2.52,2.08-5.14,4.05-7.57,6.24-3,2.71-3,6-.14,8.86C45.79,40.57,47.85,42.15,50.69,44.58Zm71.18,41.79c3.39-.39,6.35-.75,9.31-1.06,1.19-.13,1.95-.5,1.85-1.92-.53-7.7-1-15.41-1.58-24.14C127.69,68.72,126.92,78,121.87,86.37ZM70.65,193c-1.09-6.13-.48-13.26-8.83-15.1-1.09-.25-2.17-2.28-3.26-.39-.84,1.45-2.65,3.07-1.09,5,3.33,4,6.83,8,10.28,11.92.52.59,1.2,1.1,2.06.59A1.69,1.69,0,0,0,70.65,193ZM114.8,13.32c2,0,3.94-.08,5.9,0,2.48.13,2.69-1,1.69-2.83a8.27,8.27,0,0,0-14.47-.44c-1.22,2-1.32,3.47,1.76,3.27C111.38,13.23,113.09,13.32,114.8,13.32Zm-71,33.42c-2.71-2.76-6.25-4.83-7.46-8.84-.24-.79-.74-.91-1.47-.45-1.65,1-2.8,7.55-1.53,8.9C37.29,50.55,39.22,50.64,43.83,46.74ZM144.46,195.65c-1-4.92-3.16-6.21-7.17-5.05-2.47.71-5.17.62-7.75,1-.82.11-2.14-.35-2.21.93,0,1,1,1.52,2,1.62C134.28,194.65,139.27,195.13,144.46,195.65ZM100.85,65.43c.38-5.68-.69-10.91.8-16.22C93.52,54.32,93.23,59,100.85,65.43Zm11.19-19c-6.23,2.28-5.86,10.61-4.27,21.16C109.23,60.33,110.61,53.49,112,46.39Z"/><path class="cls-1" d="M165.39,46c-.29,2-1.46,3.06-3.47,2.91-2.24-.17-3.5.38-3.28,3,.17,2.08-.71,3.79-3,3.67s-3-1.91-2.76-4-.65-2.85-2.69-2.66-3.85-.44-3.89-2.8c0-2.66,2-3.13,4.11-3,1.89.13,2.63-.64,2.47-2.51-.19-2.19.42-4.16,3-4.14,2.31,0,3,1.88,2.83,3.91-.19,2.43,1.1,2.88,3.12,2.75A3.1,3.1,0,0,1,165.39,46Z"/><path class="cls-1" d="M172.29,57.56c1.88.1,3,1.11,3.05,2.89a2.61,2.61,0,0,1-2.55,2.87,2.68,2.68,0,0,1-3.2-2.6C169.44,58.91,170.6,57.92,172.29,57.56Z"/></g></g></svg>