<svg id="Capa_1" data-name="Capa 1" xmlns="http://www.w3.org/2000/svg" viewBox="0 0 82.54 59.26"><defs><style>.cls-1{fill:#c6875e;}</style></defs><path class="cls-1" d="M67.49,42.11c0-3.23,0-6.46,0-9.7,0-.93-.22-1.38-1.23-1.27a12.17,12.17,0,0,1-1.91,0c-1-.06-1.85,0-1.73,1.44.09.95-.76,1.26-1.55,1.12-1.85-.34-2.75.44-2.94,2.23a1.41,1.41,0,0,1-.24.58c-1,1.44-1.1,2.68.54,3.82.86.6.66,1.46-.07,2.18-1,1-2,2-3,3s-1.78,1-2.53,0A2.06,2.06,0,0,0,49.5,45a1.94,1.94,0,0,1-.72.32c-1.84.3-2.72,1.23-2.38,3.2C46.57,49.48,46,50,45,50c-1.59,0-3.18,0-4.77,0-1.08,0-1.68-.51-1.51-1.53.31-1.92-.49-2.85-2.34-3.06a.94.94,0,0,1-.44-.18c-1.49-1.07-2.78-1.09-3.94.57a1.18,1.18,0,0,1-1.94,0c-1.17-1.15-2.32-2.31-3.48-3.48a1.28,1.28,0,0,1,.23-2.16c1.34-1,1.61-2.06.58-3.41a1.51,1.51,0,0,1-.32-.72c-.24-1.92-1.27-2.67-3.2-2.35-1,.16-1.51-.48-1.48-1.42s-.32-1.13-1.19-1.15c-3.46-.06-3.46-.09-3.46,3.34V51.16c0,2.43-.14,2.57-2.64,2.57-.37,0-.74,0-1.11,0a3.11,3.11,0,0,0-3.28,1.45,4.11,4.11,0,0,1-6.29.35,4.34,4.34,0,0,1,.26-6.36,4.42,4.42,0,0,1,6.44.88,3.65,3.65,0,0,0,3.67,1.15c.51-.16.46-.51.46-.86,0-6.1,0-12.19,0-18.29,0-.7-.28-.91-.94-.9-1.39,0-2.6-.14-3.61,1.44-1.37,2.16-4.47,2.16-6.27.38a4.31,4.31,0,0,1,.23-6.35,4.4,4.4,0,0,1,6.44.84,3.68,3.68,0,0,0,3.66,1.18c.51-.16.48-.5.48-.86,0-6.09,0-12.19,0-18.28,0-.69-.24-.94-.92-.92-1.38,0-2.61-.17-3.62,1.43-1.38,2.17-4.43,2.17-6.26.37A4.31,4.31,0,1,1,11,4.8a2.5,2.5,0,0,0,2.53,1.29c4.56,0,4.24-.51,4.23,4.29,0,5.62,0,11.24,0,16.86,0,1.08.27,1.58,1.4,1.42a6,6,0,0,1,1.27,0c1.18.09,2.21.17,2.07-1.6-.08-.93.84-1.19,1.62-1.06,1.75.3,2.64-.43,2.86-2.13a1.09,1.09,0,0,1,.15-.45c1-1.56,1.33-3-.54-4.22-.76-.5-.53-1.3.09-1.92,1-1.05,2.12-2.07,3.13-3.16s1.77-1,2.52,0c1,1.33,2,1.5,3.29.53a1.33,1.33,0,0,1,.58-.26c1.88-.36,3-1.24,2.57-3.4-.17-.89.51-1.35,1.38-1.36,1.64,0,3.28,0,4.93,0a1.29,1.29,0,0,1,1.39,1.67c-.34,1.84.44,2.75,2.2,3a1.05,1.05,0,0,1,.44.18c1.51,1,2.86,1.28,4.09-.53.55-.81,1.39-.55,2,.11,1,1,2,2.06,3.05,3s.95,1.86-.1,2.65-1.45,1.83-.52,3a1.81,1.81,0,0,1,.32.72c.37,1.87,1.24,3,3.41,2.56.88-.17,1.4.48,1.32,1.37-.1,1.08.45,1.17,1.32,1.18,3.5,0,3.5.07,3.5-3.45,0-5.61,0-11.23,0-16.85,0-2.06.23-2.28,2.28-2.29.58,0,1.16,0,1.74,0a2.64,2.64,0,0,0,2.87-1.32,4,4,0,0,1,4.79-1.51,4.37,4.37,0,0,1,2.88,4.32,4.28,4.28,0,0,1-3,3.88,4.39,4.39,0,0,1-4.92-1.69,3.65,3.65,0,0,0-3.67-1.17c-.5.16-.47.5-.47.86,0,6.1,0,12.19,0,18.29,0,.69.25.93.92.91,1.39,0,2.61.16,3.62-1.44,1.38-2.16,4.44-2.16,6.26-.36a4.29,4.29,0,0,1-.22,6.34,4.42,4.42,0,0,1-6.44-.86,3.65,3.65,0,0,0-3.67-1.16c-.5.16-.46.51-.46.87,0,6.09,0,12.19,0,18.28,0,.71.27.92.94.91,1.39,0,2.6.13,3.61-1.45,1.37-2.16,4.47-2.16,6.27-.38a4.33,4.33,0,0,1-.23,6.36c-1.88,1.61-5,1.36-6.29-.76a2.57,2.57,0,0,0-2.7-1.28c-4.34,0-4.1.45-4.08-4.14Zm-11-23.83-2-1.57c-.61-.46-.89.14-1.14.46-1,1.31-2.1,1.52-3.5.44a8.84,8.84,0,0,0-4-1.57c-1.45-.23-2-.95-1.89-2.36.12-1.06-.07-1.62-1.4-1.61s-1.58.49-1.43,1.59c.21,1.51-.43,2.2-2,2.38a8.13,8.13,0,0,0-3.93,1.62c-1.28,1-2.29.9-3.22-.38-.7-1-1.22-.72-2,0s-.88,1.3,0,2a1.94,1.94,0,0,1,.43,3.11,9,9,0,0,0-1.66,4.08c-.24,1.55-1,2.12-2.49,1.91-1.23-.18-1.49.36-1.5,1.51s.51,1.44,1.51,1.33c1.46-.17,2.25.35,2.43,1.95a8.1,8.1,0,0,0,1.59,3.94c1,1.32,1,2.38-.37,3.35s-.19,1.51.32,2.22c.74,1,1.24.36,1.71-.21.93-1.13,1.86-1.36,3.12-.41a9.08,9.08,0,0,0,4.09,1.66c1.54.23,2.12,1,1.91,2.49-.18,1.21.34,1.49,1.51,1.5s1.44-.51,1.32-1.51c-.17-1.46.35-2.25,2-2.43A8.41,8.41,0,0,0,50,42.1c1.22-.92,2.22-.89,3.11.35.74,1,1.28.78,2.1,0s1-1.37,0-2.1a1.9,1.9,0,0,1-.42-3A11.17,11.17,0,0,0,56.5,33a1.79,1.79,0,0,1,2.18-1.72c1.1.12,1.6-.14,1.59-1.42s-.57-1.55-1.64-1.41a1.76,1.76,0,0,1-2.26-1.75,10,10,0,0,0-1.86-4.51,1.7,1.7,0,0,1,.31-2.62C55.23,19.18,55.67,18.88,56.46,18.28ZM77.74,9c1.11-.08,1.79-.62,1.8-1.77a1.62,1.62,0,0,0-1.71-1.82A1.59,1.59,0,0,0,76,7.07,1.7,1.7,0,0,0,77.74,9ZM5.65,7.3A1.69,1.69,0,0,0,7.4,9.14,1.61,1.61,0,0,0,9.25,7.46,1.72,1.72,0,0,0,7.44,5.52,1.67,1.67,0,0,0,5.65,7.3ZM9.26,29.85a1.73,1.73,0,0,0-1.9-1.76A1.64,1.64,0,0,0,5.67,30a1.66,1.66,0,0,0,1.82,1.76A1.63,1.63,0,0,0,9.26,29.85ZM76,29.94a1.68,1.68,0,0,0,1.88,1.77,1.65,1.65,0,0,0,1.71-1.86,1.66,1.66,0,0,0-1.81-1.77A1.63,1.63,0,0,0,76,29.94Zm0,22.37c0,1.26.67,2,1.84,2a1.82,1.82,0,1,0-1.84-2ZM7.48,54.43c1-.11,1.76-.51,1.77-1.7a1.69,1.69,0,0,0-1.81-1.91,1.59,1.59,0,0,0-1.77,1.76C5.66,53.7,6.29,54.29,7.48,54.43Z"/><path class="cls-1" d="M52.47,30a9.87,9.87,0,1,1-9.81-10A9.9,9.9,0,0,1,52.47,30Zm-9.8,7.26A7.36,7.36,0,1,0,35.25,30,7.3,7.3,0,0,0,42.67,37.26Z"/></svg>