<svg xmlns="http://www.w3.org/2000/svg" viewBox="0 0 64.24 65.53"><defs><style>.cls-1{fill:#c6875e;}</style></defs><g id="Capa_2" data-name="Capa 2"><g id="Capa_1-2" data-name="Capa 1"><path class="cls-1" d="M47.37,54.45A7,7,0,0,1,45.05,50c0-.22,0-.47-.34-.48s-.42.25-.42.53c0,1,0,2,0,3a1.17,1.17,0,0,1-.73,1.27,1.15,1.15,0,0,1-1.28-.45c-1.16-1.21-2.35-2.39-3.46-3.64a2.34,2.34,0,0,0-2-.81c-3,0-6,0-9,0-2.44,0-3.79-1.31-3.81-3.73,0-3.88,0-7.75,0-11.63,0-2.4,1.42-3.72,3.83-3.72q8.52,0,17,0c2.44,0,3.81,1.39,3.82,3.87,0,2.73,0,5.46,0,8.19,0,.77.12.95,1,.73a6.47,6.47,0,0,1,6.61,10.58c-.71.8-.27.9.35,1.21a11.67,11.67,0,0,1,6.51,8.47c.34,1.63,0,2.09-1.69,2.09h-20c-1.63,0-2-.41-1.65-2C40.68,59.45,42.81,56.83,47.37,54.45Zm-5.21-3.83c0-.79,0-1.27,0-1.75,0-1.06.48-1.51,1.51-1.53.78,0,1.71.34,2.07-.84.24-.77.95-1.3.93-2.26-.07-3.3,0-6.6,0-9.9,0-1.39-.44-1.82-1.81-1.83H28.05c-1.49,0-1.85.37-1.86,1.91,0,3.69,0,7.39,0,11.09,0,1.51.36,1.83,1.92,1.84,2.38,0,4.77.15,7.13,0,2.57-.22,4.66.32,6.13,2.57A6.18,6.18,0,0,0,42.16,50.62Zm.06,12.79H60.3c.94,0,.54-.55.4-1a9.73,9.73,0,0,0-11-6.36C45.92,56.8,42.68,60,42.22,63.41ZM55.9,49.46A4.38,4.38,0,0,0,51.64,45a4.4,4.4,0,1,0-.13,8.79A4.38,4.38,0,0,0,55.9,49.46Z"/><path class="cls-1" d="M7.57,22.81a6.64,6.64,0,0,1-2.32-5.65,6.46,6.46,0,0,1,8-5.72c.89.2,1.05,0,1-.81-.05-2.24,0-4.49,0-6.73C14.34,1.33,15.68,0,18.25,0h16.9A3.48,3.48,0,0,1,39,3.85q0,5.74,0,11.49c0,2.4-1.36,3.73-3.79,3.75-3,0-6,0-9,0a2.46,2.46,0,0,0-2.05.89c-1.06,1.19-2.18,2.31-3.28,3.45-.41.43-.84.82-1.49.52s-.63-.8-.63-1.34c0-.93,0-1.85,0-2.77,0-.27,0-.58-.3-.66s-.45.23-.52.47a7.54,7.54,0,0,1-2,3.15c.49.26.9.46,1.3.68a11.53,11.53,0,0,1,6.2,8.69c.21,1.33-.12,1.68-1.46,1.68H1.47c-1.3,0-1.61-.41-1.42-1.71C.65,28,3,25.11,7.57,22.81ZM21,20.29c.77-.82,1.37-1.35,1.84-2A3.49,3.49,0,0,1,26,17c3,.09,6.07,0,9.11,0,1.11,0,1.74-.43,1.74-1.62q0-5.8,0-11.61a1.43,1.43,0,0,0-1.62-1.62H18.11a1.47,1.47,0,0,0-1.67,1.7c0,2,0,4,0,5.94s-.2,3.68,1.16,5.22A2.35,2.35,0,0,1,18,16.2c.08.62.38.76,1,.79,1.79.09,1.87.2,1.91,2C20.92,19.33,21,19.63,21,20.29ZM2.42,31.72q9,0,18.06,0c1.07,0,.48-.71.35-1.09a9.69,9.69,0,0,0-10.68-6.26C6.27,25,2.88,28.2,2.42,31.72ZM16.09,17.9a4.33,4.33,0,0,0-4.17-4.53,4.4,4.4,0,0,0-4.59,4.27,4.46,4.46,0,0,0,4.27,4.49A4.38,4.38,0,0,0,16.09,17.9Z"/><path class="cls-1" d="M62.08,41.81c.87-.36,1.58-.66,2,.21s-.21,1.28-.83,1.67c-.82.51-1.62,1.05-2.45,1.54-1.09.64-1.59.47-2-.68-.32-.87-.58-1.76-.87-2.63s-.6-1.52.33-2,1.35.27,1.73,1.24a25.84,25.84,0,0,0-1.05-17.77A26.12,26.12,0,0,0,42.59,8.51a6.84,6.84,0,0,1-1-.35,1,1,0,0,1-.48-1.24.92.92,0,0,1,1-.68,5.22,5.22,0,0,1,1.15.28,28.58,28.58,0,0,1,19.11,34C62.3,40.86,62.22,41.24,62.08,41.81Z"/><path class="cls-1" d="M6.78,40.59c-.37,0-.39.41-.64.56a1,1,0,0,1-1.23,0,1,1,0,0,1-.37-1.27c.61-1.17,1.19-2.36,1.87-3.48.47-.79,1.16-.69,1.79-.15s1.38,1.23,2.07,1.85,1.31,1,.83,1.85-1.23.51-2,.18a6.58,6.58,0,0,0,.61,2.52A26.37,26.37,0,0,0,36.81,60.05c.52,0,1.07-.14,1.49.29a1,1,0,0,1,.26,1.08c-.24.6-.74.68-1.29.73a27.77,27.77,0,0,1-18.76-4.86,27.78,27.78,0,0,1-11.3-15.6c-.1-.34-.21-.68-.32-1C6.88,40.65,6.83,40.63,6.78,40.59Z"/><path class="cls-1" d="M36.45,34.58c1.89,0,3.78,0,5.66,0,.73,0,1.4.11,1.42,1s-.65,1.13-1.43,1.13H30.76c-.78,0-1.5-.18-1.49-1.09s.73-1,1.51-1C32.67,34.59,34.56,34.58,36.45,34.58Z"/><path class="cls-1" d="M36.38,41H30.72c-.73,0-1.41-.14-1.46-1s.65-1.15,1.43-1.15H42.16c.72,0,1.36.2,1.37,1.07S42.91,41,42.18,41Z"/><path class="cls-1" d="M36.46,45.43H30.79c-.77,0-1.5-.15-1.52-1.06S30,43.3,30.74,43.3c3.78,0,7.56,0,11.34,0,.77,0,1.48.12,1.45,1.08s-.77,1-1.53,1Z"/><path class="cls-1" d="M25.26,15.33a2.59,2.59,0,0,1-1.89-.81c-1.13-1.11-2.26-2.21-3.35-3.36a2.62,2.62,0,0,1-.14-3.78,2.68,2.68,0,0,1,3.89.09c1.56,1.43,1.56,1.42,3,0,.9-.91,1.78-1.83,2.69-2.72,1.27-1.23,2.76-1.3,3.87-.23a2.57,2.57,0,0,1-.08,3.87c-2,2.06-4,4.07-6,6.1A2.68,2.68,0,0,1,25.26,15.33Zm6.81-8.91c-.1-.16-.15-.35-.28-.44-.41-.28-.65.08-.88.31-1.49,1.5-3,3-4.45,4.5a1.4,1.4,0,0,1-2.42,0c-.49-.56-1.05-1.07-1.58-1.59-.28-.26-.57-.69-1-.3s0,.71.24,1c1,1,1.95,1.91,2.88,2.9.55.58.93.43,1.41-.06,1.84-1.89,3.7-3.76,5.55-5.64A6,6,0,0,0,32.07,6.42Z"/></g></g></svg>