<svg xmlns="http://www.w3.org/2000/svg" viewBox="0 0 138.79 138.97"><defs><style>.cls-1{fill:#6c2910;stroke:#6c2910;stroke-miterlimit:10;}</style></defs><g id="Capa_2" data-name="Capa 2"><g id="Capa_1-2" data-name="Capa 1"><path class="cls-1" d="M76.49,76.74c-3.27-2.1-6.26-3.91-9.12-5.9-1.32-.93-2.07-.71-3.15.38-6.94,7-14,13.92-20.92,21-1.81,1.86-3.06,2-4.79,0S35,88.62,33.2,86.87a1.8,1.8,0,0,1,0-3Q46.08,71.07,58.94,58.21c1.17-1.17,2.15-1,3.21.14,1.63,1.67,3.33,3.27,4.94,5,1,1.09,2.79,2,1.24,4-.46.61.37.87.76,1.13,1.57,1,3.22,2,4.72,3.1,2.89,2.16,5.54,2.4,9.17,1.07,5-1.83,10-3.25,14.12-6.77.81-.68,1.87-1.06,1-2.48-.42-.7.26-1.35.77-1.86,2-2,4.09-4,6.09-6.1,1.15-1.18,2.09-1,3.19.1q14.55,14.57,29.18,29.09c1.37,1.35,1.19,2.36-.11,3.58a60.84,60.84,0,0,0-4.94,5c-1.68,1.94-2.93,1.94-4.78.06-8.12-8.26-16.41-16.35-24.53-24.6-1.46-1.49-2.39-1.79-4.14-.42-3.88,3-7.9,5.79-13,6.55-3,.44-5.42,2.24-7.55,4.42C75,82.46,71.71,85.77,68.33,89c-1.61,1.54-1.16,2.54.46,3.57a7.83,7.83,0,0,0,10.06-1.34,5.89,5.89,0,0,1,5.61-2.07,14.41,14.41,0,0,0,11.05-3.33c1.47-1.17,2.87-2.43,4.31-3.65.81-.68,1.66-1.23,2.56-.18s.17,1.62-.48,2.31c-1,1.09-3.3,1.89-3,3.1.29,1.41,2.09,2.54,3.29,3.74,3.6,3.62,7.3,7.17,10.82,10.88,1.2,1.25,2.09,1.25,3.37.3a23.57,23.57,0,0,0,4.38-4c.62-.75,1.41-1.3,2.3-.56s.61,1.75-.11,2.57a12.93,12.93,0,0,1-1.47,1.57c-2.57,2-5.25,3.62-3.78,8,.79,2.33-1.26,4.8-3.85,5.81-1.37.54-1.85,1.07-1.74,2.67.29,4.54-2.76,7.53-7.29,7.2a2.05,2.05,0,0,0-2.52,1.54,6.42,6.42,0,0,1-9.11,3.48c-1.51-.73-1.83-.29-2.47.93a6.19,6.19,0,0,1-6.46,3.48A3.67,3.67,0,0,0,81,136.3c-4.07,3.77-9.55,2.47-11.42-2.74-.36-1-.56-1.35-1.76-1.3a6.61,6.61,0,0,1-7.22-5.49c-.29-1.3-.67-1.92-2.08-2.16a6.1,6.1,0,0,1-5.36-5.28,2.24,2.24,0,0,0-2.06-2.18c-5.88-1.33-7.64-7.51-3.25-11.73,2-1.89,2.33-3.26.2-5a5.7,5.7,0,0,1-.65-.86c-.62-.79-.91-1.67,0-2.35a1.5,1.5,0,0,1,2.3.57c1.42,2.33,3.08,3.28,6.09,2.77s5.66,2,6.39,5.38a2.13,2.13,0,0,0,2.12,2.05,6.32,6.32,0,0,1,5.52,5.49c.22,1.26.56,1.71,1.92,1.91,3.43.48,5.51,2.83,5.76,6.4.08,1.21.41,1.67,1.57,2a6.28,6.28,0,0,1,5.1,6.68c-.06,2.27,1.13,1.87,2.33,1.33,2.29-1,2.71-4.09.84-6.17-1.43-1.6-3-3.07-4.54-4.6-.73-.73-1.44-1.53-.46-2.51s1.8-.3,2.53.43c2.61,2.59,5.2,5.22,7.83,7.79,2.06,2,4.32,2.24,5.94.7s1.49-4-.58-6.14-4.45-4.45-6.67-6.67c-.79-.79-1.67-1.71-.62-2.73s1.94-.11,2.73.68c2.85,2.85,5.7,5.72,8.59,8.54,2.2,2.15,4.45,2.31,6.11.53s1.39-3.77-.71-5.91c-2.58-2.63-5.22-5.2-7.81-7.81-.75-.76-1.75-1.58-.65-2.71s1.94-.17,2.71.59c2.11,2.08,4.16,4.22,6.31,6.26,1.94,1.84,4.15,1.89,5.73.27s1.41-3.86-.45-5.73c-5.37-5.42-10.82-10.77-16.19-16.19A1.79,1.79,0,0,0,94.6,90,17.67,17.67,0,0,1,84,92.11c-1.62-.18-2.43.75-3.42,1.66a10.76,10.76,0,0,1-14,.78c-2.86-2.18-3.09-4.72-.57-7.28C69.38,83.75,72.9,80.3,76.49,76.74Zm58.06,9.35c-.45-.48-.92-1-1.42-1.5L109.72,61.24c-3.2-3.19-3.13-3.11-6.34-.11-1.49,1.4-1.62,2.22-.06,3.74,7.82,7.63,15.52,15.4,23.26,23.12,3.33,3.32,3.34,3.33,6.7-.14C133.75,87.36,134.45,87,134.55,86.09Zm-94.08,4a3.78,3.78,0,0,0,2.21-1.53Q52.51,78.76,62.32,69c3.15-3.14,3.07-3.07,0-6.37-1.34-1.43-2.07-1.55-3.53-.06-6.83,7-13.82,13.84-20.71,20.78-.68.69-2.28,1.34-1.6,2.38A32.38,32.38,0,0,0,40.47,90.06Zm26.05,39.26c3-.07,8-4.95,8-7.21a3.62,3.62,0,0,0-2.06-3.51,3.4,3.4,0,0,0-4,.39,48.5,48.5,0,0,0-4.19,4.17,3.48,3.48,0,0,0-.43,4A3.4,3.4,0,0,0,66.52,129.32Zm.36-14.64a3.38,3.38,0,0,0-1.78-3.35,3.57,3.57,0,0,0-4.26.3,43,43,0,0,0-4.17,4.15,3.19,3.19,0,0,0-.2,4,3.75,3.75,0,0,0,3.53,2C62.19,121.68,66.82,116.91,66.88,114.68Zm-14.66-.41c2.49,0,7.1-4.69,7.08-7.17a3.44,3.44,0,0,0-2-3.27,3.39,3.39,0,0,0-3.8.19A21.24,21.24,0,0,0,49,108.57a3.41,3.41,0,0,0-.1,3.81A3.48,3.48,0,0,0,52.22,114.27Zm25.37,12.25c-2.33,0-5.32,2.81-5.35,5.12a3.8,3.8,0,0,0,3.7,3.82c2.3.06,5.3-2.84,5.33-5.16A3.69,3.69,0,0,0,77.59,126.52Z"/><path class="cls-1" d="M17.27,133.52c2-1.76,3.48-2.94,4.82-4.25s2.26-1.11,3.45,0,2.78,2.45,4.49,4v-15c-3.56,1.48-7.06,1.93-10.61.67a13,13,0,1,1,10.21-23.9c6.69,3.38,9.41,11.9,5.29,18.15-2.81,4.26-1.11,8.68-1.59,13-.12,1,.86.94,1.56,1,2.24,0,4.49,0,6.73,0,1.05,0,2.09.2,2.07,1.55s-1.08,1.48-2.12,1.49c-2.15,0-4.31.08-6.46,0-1.4-.06-2,.42-1.86,1.84.09,1.16,0,2.33,0,3.5,0,1,.07,2-1.05,2.55s-1.67-.38-2.32-.94c-1.63-1.41-3.29-2.8-4.81-4.31-1-1-1.7-.9-2.66,0-1.68,1.63-3.47,3.13-5.22,4.67a1.7,1.7,0,0,1-2,.53c-.78-.36-.81-1.08-.88-1.82-.17-1.94.88-4.5-.52-5.65-1.16-.95-3.61-.26-5.47-.46a8.45,8.45,0,0,1-7.86-8.7Q.47,74.1.53,26.69c0-5.07,3.49-8.55,8.63-8.79a58,58,0,0,1,6.46,0c1.84.13,2.23-.62,2.21-2.31,0-3.85,0-3.91,4-4.07,1.36,0,1.93-.43,1.87-1.86-.09-2.24,0-4.49,0-6.73C23.56,1.23,24.21.49,26,.5Q42.4.56,58.83.5c1.75,0,2.44.77,2.42,2.43,0,2.06.11,4.14,0,6.19-.12,1.88.52,2.67,2.41,2.4,2.6-.37,3.73.79,3.3,3.36s.8,3.24,3.15,3a42,42,0,0,1,5.38,0c5.2.2,8.7,3.47,8.79,8.62.15,8.62.06,17.24.05,25.86,0,1.1,0,2.43-1.48,2.4-1.64,0-1.49-1.48-1.49-2.64q0-12.26,0-24.51c0-4.71-2-6.65-6.74-6.68-.81,0-1.62,0-2.42,0-1.53,0-3.28-.39-4.51.22-1.58.78-.54,2.74-.7,4.17-.22,2-1.62,1.83-3,1.84H40c-6.28,0-12.57-.09-18.85,0-2.55.05-3.8-.75-3.37-3.38.39-2.37-.5-3.21-2.9-2.94-2,.22-4,0-5.92.06a5.32,5.32,0,0,0-5.42,4.95,21.76,21.76,0,0,0-.1,2.68v91c0,6.27,3.84,9.15,9.91,7.58,1.37-.36.94-1.32,1-2.12.1-1.15-.16-2.62,1.59-2.51,1.48.09,1.31,1.44,1.31,2.51C17.28,127.66,17.27,130.23,17.27,133.52Zm25.53-119c-4.94,0-9.87,0-14.81,0-2.3,0-5.3-1-6.72.47s-.21,4.46-.47,6.76c-.23,2.1.64,2.5,2.58,2.48,11.13-.08,22.25,0,33.38-.05,2.31,0,5.4,1,6.75-.4,1.58-1.63.27-4.77.54-7.24.19-1.73-.55-2.1-2.14-2.08C55.54,14.57,49.17,14.52,42.8,14.52Zm-.27-11H32c-5.59,0-5.49,0-5.56,5.48,0,2,.57,2.61,2.58,2.59,7.81-.11,15.61,0,23.42,0,5.85,0,5.78,0,5.77-5.74C58.24,4,57.78,3.4,56,3.44,51.51,3.54,47,3.47,42.53,3.47ZM13.76,106.79a10.08,10.08,0,0,0,10.16,10,10.08,10.08,0,0,0-.13-20.15A10,10,0,0,0,13.76,106.79Z"/><path class="cls-1" d="M95.31,28.21a32.45,32.45,0,0,0,0-4.3c-1.1-8,1.31-15,5.72-21.47.54-.8.81-1.94,2.06-1.84,1,.08,1.33,1.08,1.8,1.83a1.34,1.34,0,0,0,.13.23,31.19,31.19,0,0,1,5.72,21.49c-.52,5.61-.07,11.3-.11,17,0,5.25-3,8.52-7.62,8.53s-7.64-3.35-7.67-8.49C95.29,36.83,95.31,32.52,95.31,28.21Zm12.38-1.86v-4.3c0-7.34,0-7.29-7.33-7.12-1.65,0-2.17.53-2.14,2.16.08,4.48,0,9,0,13.45,0,7.52,0,7.48,7.66,7.12,1.42-.07,1.84-.53,1.81-1.89C107.64,32.63,107.69,29.49,107.69,26.35ZM103,40.52a19.35,19.35,0,0,1-2.41,0C98,40.2,98,41.62,98.54,43.44a4.64,4.64,0,0,0,8.43,1,3.54,3.54,0,0,0,.57-3.31c-.5-1.12-1.75-.44-2.66-.57A13,13,0,0,0,103,40.52Zm3.64-28.61c-1.36-2.45-2.45-4.4-3.74-6.71-1.09,2-1.9,3.6-2.78,5.13-.61,1.07-.56,1.63.86,1.59C102.68,11.87,104.37,11.91,106.65,11.91Z"/><path class="cls-1" d="M51.48,51.65c-6.37,0-12.73,0-19.1,0-1.14,0-2.65.22-2.72-1.41-.08-1.87,1.55-1.62,2.76-1.63H71.15c1.13,0,2.64-.25,2.71,1.41.08,1.9-1.54,1.62-2.75,1.63C64.56,51.66,58,51.65,51.48,51.65Z"/><path class="cls-1" d="M51.66,40c-6.44,0-12.89,0-19.34,0-1.1,0-2.63.31-2.67-1.41s1.48-1.46,2.61-1.46q19.47,0,38.94,0c1.12,0,2.63-.29,2.67,1.41S72.38,40,71.27,40C64.73,40,58.2,40,51.66,40Z"/><path class="cls-1" d="M22.33,74.76c-2.6,0-5.19,0-7.79,0-1,0-2.13-.08-2.2-1.41-.07-1.52,1.11-1.62,2.24-1.63H30.44c1.08,0,2.08.27,2.07,1.54s-1,1.51-2.11,1.51Z"/><path class="cls-1" d="M38.15,63.1H31.71c-1.05,0-2.1-.12-2.08-1.47,0-1.17.93-1.39,1.9-1.39H45c1,0,1.85.32,1.82,1.47s-.94,1.39-1.92,1.38Z"/><path class="cls-1" d="M19.46,83.35h4.82c1,0,2.1.15,2.06,1.51,0,1.15-.93,1.37-1.91,1.37q-5.1,0-10.18,0c-1,0-1.87-.2-1.92-1.37-.05-1.38,1-1.5,2-1.51Z"/><path class="cls-1" d="M49.47,128.77a1.86,1.86,0,1,1,1.89,1.81A1.71,1.71,0,0,1,49.47,128.77Z"/><path class="cls-1" d="M84.64,63a1.86,1.86,0,0,1-3.71.06A1.86,1.86,0,0,1,84.64,63Z"/><path class="cls-1" d="M23.84,112a5.32,5.32,0,1,1,5.23-5.37A5.32,5.32,0,0,1,23.84,112Zm-.23-7.6a2.15,2.15,0,0,0-2.09,2.37A2.07,2.07,0,0,0,23.73,109,2,2,0,0,0,26,106.9C26.11,105.47,25.35,104.56,23.61,104.43Z"/></g></g></svg>