<svg xmlns="http://www.w3.org/2000/svg" xmlns:xlink="http://www.w3.org/1999/xlink" viewBox="0 0 1052.14 2006.07"><defs><style>.cls-1{isolation:isolate;}.cls-2{fill:#9c956f;}.cls-10,.cls-3,.cls-7{mix-blend-mode:multiply;}.cls-3{opacity:0.2;}.cls-4{fill:#fff;}.cls-5{fill:url(#Degradado_sin_nombre_22);}.cls-6{fill:#6c2911;}.cls-7{opacity:0.1;}.cls-8{fill:#c6875e;}.cls-9{fill:url(#Degradado_sin_nombre_22-2);}.cls-10{opacity:0.08;}.cls-11{fill:url(#Degradado_sin_nombre_22-3);}.cls-12{fill:url(#Degradado_sin_nombre_22-4);}.cls-13{fill:url(#Degradado_sin_nombre_22-5);}.cls-14{fill:url(#Degradado_sin_nombre_22-6);}</style><radialGradient id="Degradado_sin_nombre_22" cx="197.03" cy="173.76" r="173.76" gradientTransform="translate(168.29 -76.14) rotate(45) scale(1 0.9)" gradientUnits="userSpaceOnUse"><stop offset="0" stop-opacity="0.84"/><stop offset="1" stop-opacity="0"/></radialGradient><radialGradient id="Degradado_sin_nombre_22-2" cx="-12208.47" cy="505.46" r="173.76" gradientTransform="matrix(-1, 0, 0, 0.9, -11353.37, 50.55)" xlink:href="#Degradado_sin_nombre_22"/><radialGradient id="Degradado_sin_nombre_22-3" cx="197.03" cy="837.18" r="173.76" gradientTransform="translate(590.49 165.08) rotate(45) scale(1 0.9)" xlink:href="#Degradado_sin_nombre_22"/><radialGradient id="Degradado_sin_nombre_22-4" cx="-12208.47" cy="1168.88" r="173.76" gradientTransform="matrix(-1, 0, 0, 0.9, -11353.37, 116.89)" xlink:href="#Degradado_sin_nombre_22"/><radialGradient id="Degradado_sin_nombre_22-5" cx="197.03" cy="1500.61" r="173.76" gradientTransform="translate(1012.69 406.3) rotate(45) scale(1 0.9)" xlink:href="#Degradado_sin_nombre_22"/><radialGradient id="Degradado_sin_nombre_22-6" cx="-12208.47" cy="1832.3" r="173.76" gradientTransform="matrix(-1, 0, 0, 0.9, -11353.37, 183.23)" xlink:href="#Degradado_sin_nombre_22"/></defs><g class="cls-1"><g id="Capa_2" data-name="Capa 2"><g id="Capa_1-2" data-name="Capa 1"><rect class="cls-2" x="161.39" y="47.27" width="707.88" height="251.7"/><polygon class="cls-2" points="864.64 331.7 864.64 6.19 1052.14 168.94 864.64 331.7"/><polygon class="cls-3" points="1052.14 168.94 161.39 173.11 161.39 298.97 864.64 298.97 864.64 331.7 1052.14 168.94"/><path class="cls-4" d="M366.48,110.55v15.64h-3V110.55Zm1.72,15.64h-3.38l0-2.32h3.35a4,4,0,0,0,2.28-.61,3.67,3.67,0,0,0,1.4-1.75,7.09,7.09,0,0,0,.47-2.75V118a8.41,8.41,0,0,0-.26-2.18,4.56,4.56,0,0,0-.79-1.59,3.36,3.36,0,0,0-1.29-1,4.37,4.37,0,0,0-1.75-.33h-3.5v-2.33h3.5a7.51,7.51,0,0,1,2.86.52,6.46,6.46,0,0,1,2.25,1.51,6.81,6.81,0,0,1,1.46,2.35,8.67,8.67,0,0,1,.51,3v.78a8.67,8.67,0,0,1-.51,3,6.72,6.72,0,0,1-1.46,2.35,6.48,6.48,0,0,1-2.26,1.5A7.81,7.81,0,0,1,368.2,126.19Z"/><path class="cls-4" d="M383.85,112.92l-4.46,13.27h-3.13l5.85-15.64h2Zm3.52,7.46v2.33H379v-2.33Zm.21,5.81-4.48-13.27-.27-2.37h2l5.87,15.64Z"/><path class="cls-4" d="M402.5,110.55v2.33H389.9v-2.33Zm-4.86,0v15.64H394.7V110.55Z"/><path class="cls-4" d="M416.82,118v.8a9.85,9.85,0,0,1-.48,3.19,6.83,6.83,0,0,1-1.34,2.4,6,6,0,0,1-2.07,1.52,7.11,7.11,0,0,1-5.34,0,6.15,6.15,0,0,1-2.09-1.52,7,7,0,0,1-1.36-2.4,9.85,9.85,0,0,1-.48-3.19V118a9.85,9.85,0,0,1,.48-3.19,7,7,0,0,1,1.35-2.4,5.89,5.89,0,0,1,2.08-1.52,7,7,0,0,1,5.34,0,5.86,5.86,0,0,1,2.07,1.52,6.87,6.87,0,0,1,1.36,2.4A9.85,9.85,0,0,1,416.82,118Zm-3,.8V118a9.46,9.46,0,0,0-.24-2.25,4.65,4.65,0,0,0-.7-1.64,3,3,0,0,0-1.13-1,3.47,3.47,0,0,0-1.53-.33,3.37,3.37,0,0,0-1.52.33,3.16,3.16,0,0,0-1.12,1,5,5,0,0,0-.71,1.64,9.46,9.46,0,0,0-.24,2.25v.82a9.46,9.46,0,0,0,.24,2.25,5.2,5.2,0,0,0,.71,1.65,3,3,0,0,0,1.14,1,3.24,3.24,0,0,0,1.52.35,3.29,3.29,0,0,0,1.53-.35,2.91,2.91,0,0,0,1.12-1,4.77,4.77,0,0,0,.69-1.65A9.46,9.46,0,0,0,413.83,118.77Z"/><path class="cls-4" d="M427.5,122.13a2.3,2.3,0,0,0-.13-.81,1.65,1.65,0,0,0-.48-.66,4.29,4.29,0,0,0-1-.58,15.26,15.26,0,0,0-1.62-.6,15.73,15.73,0,0,1-2-.77,7.7,7.7,0,0,1-1.66-1,4.29,4.29,0,0,1-1.11-1.31,3.94,3.94,0,0,1,0-3.5,3.92,3.92,0,0,1,1.17-1.37,5.83,5.83,0,0,1,1.8-.89,8.25,8.25,0,0,1,2.3-.31,6.58,6.58,0,0,1,3,.64,4.85,4.85,0,0,1,2,1.71,4.4,4.4,0,0,1,.7,2.44H427.5a2.73,2.73,0,0,0-.3-1.29,2.2,2.2,0,0,0-.93-.88,3.36,3.36,0,0,0-1.55-.32,3.66,3.66,0,0,0-1.5.27,2,2,0,0,0-.89.73,1.84,1.84,0,0,0-.29,1,1.43,1.43,0,0,0,.2.77,2.26,2.26,0,0,0,.61.63,5.08,5.08,0,0,0,1,.55,13.23,13.23,0,0,0,1.41.5,14.89,14.89,0,0,1,2.26.86,6.42,6.42,0,0,1,1.62,1.07,4,4,0,0,1,1,1.36,4.19,4.19,0,0,1,.33,1.7,3.92,3.92,0,0,1-.4,1.81,3.68,3.68,0,0,1-1.14,1.35,5,5,0,0,1-1.77.85,8.42,8.42,0,0,1-2.32.29,8.59,8.59,0,0,1-2.25-.3,6.85,6.85,0,0,1-2-.93,4.43,4.43,0,0,1-2-3.8h3a2.88,2.88,0,0,0,.25,1.27,2.27,2.27,0,0,0,.68.85,3.15,3.15,0,0,0,1.05.47,5.39,5.39,0,0,0,1.3.15,3.77,3.77,0,0,0,1.49-.25,2,2,0,0,0,.88-.7A1.82,1.82,0,0,0,427.5,122.13Z"/><path class="cls-4" d="M450.42,118.1v6.09a5.39,5.39,0,0,1-1.08,1,7.18,7.18,0,0,1-1.92.88,9.69,9.69,0,0,1-2.9.37,7.1,7.1,0,0,1-2.73-.5,5.92,5.92,0,0,1-2.13-1.46,6.75,6.75,0,0,1-1.37-2.37,9.77,9.77,0,0,1-.48-3.19v-1a10.41,10.41,0,0,1,.45-3.19,6.66,6.66,0,0,1,1.31-2.36,5.49,5.49,0,0,1,2.06-1.47,6.73,6.73,0,0,1,2.67-.51,7.17,7.17,0,0,1,3.28.66,4.71,4.71,0,0,1,2,1.8,6.49,6.49,0,0,1,.86,2.62h-2.88a4,4,0,0,0-.48-1.43,2.46,2.46,0,0,0-1-1,3.55,3.55,0,0,0-1.68-.35,3.33,3.33,0,0,0-1.54.35,3,3,0,0,0-1.11,1,4.83,4.83,0,0,0-.69,1.62,9.74,9.74,0,0,0-.23,2.21v1a8.81,8.81,0,0,0,.26,2.23,4.63,4.63,0,0,0,.75,1.63,3.08,3.08,0,0,0,1.21,1,3.8,3.8,0,0,0,1.65.34,6,6,0,0,0,1.39-.14,3.66,3.66,0,0,0,.89-.35,2.59,2.59,0,0,0,.51-.4v-2.93h-3.1V118.1Z"/><path class="cls-4" d="M456.16,110.55v15.64h-3V110.55Zm7.39,0v2.33h-8.29v-2.33ZM462.49,117v2.27h-7.23V117Zm1.09,6.87v2.32h-8.32v-2.32Z"/><path class="cls-4" d="M478.19,110.55v15.64h-3l-6.65-10.85v10.85h-2.95V110.55h2.95l6.67,10.86V110.55Z"/><path class="cls-4" d="M484.14,110.55v15.64h-3V110.55Zm7.38,0v2.33h-8.29v-2.33Zm-1,6.45v2.27h-7.24V117Zm1.08,6.87v2.32h-8.32v-2.32Z"/><path class="cls-4" d="M493.59,110.55h5.68a8,8,0,0,1,3.06.53,4.24,4.24,0,0,1,2,1.59,4.65,4.65,0,0,1,.69,2.59,4.93,4.93,0,0,1-.43,2.11,4.17,4.17,0,0,1-1.21,1.49,6.1,6.1,0,0,1-1.83,1l-.93.47h-5l0-2.33h3.74a3.26,3.26,0,0,0,1.52-.32,2.25,2.25,0,0,0,.91-.9,2.74,2.74,0,0,0,.3-1.3,2.86,2.86,0,0,0-.3-1.35,2,2,0,0,0-.91-.89,3.37,3.37,0,0,0-1.55-.31h-2.72v13.31h-3Zm8.83,15.64-3.62-7h3.13l3.66,6.87v.15Z"/><path class="cls-4" d="M513.79,112.92l-4.46,13.27H506.2l5.85-15.64h2Zm3.52,7.46v2.33h-8.39v-2.33Zm.2,5.81L513,112.92l-.26-2.37h2l5.88,15.64Z"/><path class="cls-4" d="M525.21,110.55v15.64h-3V110.55Zm7,13.32v2.32h-7.87v-2.32Z"/><path class="cls-4" d="M537.1,110.55v15.64h-3V110.55Zm7.38,0v2.33h-8.29v-2.33ZM543.42,117v2.27h-7.23V117Zm1.09,6.87v2.32h-8.32v-2.32Z"/><path class="cls-4" d="M554.73,122.13a2.3,2.3,0,0,0-.13-.81,1.65,1.65,0,0,0-.48-.66,4.29,4.29,0,0,0-1-.58,15.26,15.26,0,0,0-1.62-.6,15.73,15.73,0,0,1-2-.77,7.7,7.7,0,0,1-1.66-1,4.29,4.29,0,0,1-1.11-1.31,3.94,3.94,0,0,1,0-3.5,3.92,3.92,0,0,1,1.17-1.37,5.83,5.83,0,0,1,1.8-.89,8.25,8.25,0,0,1,2.3-.31,6.58,6.58,0,0,1,3,.64,4.85,4.85,0,0,1,2,1.71,4.4,4.4,0,0,1,.7,2.44h-2.95a2.73,2.73,0,0,0-.3-1.29,2.24,2.24,0,0,0-.92-.88,3.44,3.44,0,0,0-1.56-.32,3.66,3.66,0,0,0-1.5.27,2,2,0,0,0-.89.73,1.93,1.93,0,0,0-.29,1,1.52,1.52,0,0,0,.2.77,2.26,2.26,0,0,0,.61.63,5.08,5.08,0,0,0,1,.55,13.23,13.23,0,0,0,1.41.5,14.89,14.89,0,0,1,2.26.86,6.42,6.42,0,0,1,1.62,1.07,4,4,0,0,1,1,1.36,4.19,4.19,0,0,1,.33,1.7,3.92,3.92,0,0,1-.4,1.81,3.68,3.68,0,0,1-1.14,1.35,5,5,0,0,1-1.77.85,8.42,8.42,0,0,1-2.32.29,8.59,8.59,0,0,1-2.25-.3,6.85,6.85,0,0,1-2-.93,4.52,4.52,0,0,1-1.44-1.57,4.41,4.41,0,0,1-.54-2.23h3a3,3,0,0,0,.24,1.27,2.27,2.27,0,0,0,.68.85,3.15,3.15,0,0,0,1,.47,5.39,5.39,0,0,0,1.3.15,3.77,3.77,0,0,0,1.49-.25,2,2,0,0,0,.88-.7A1.82,1.82,0,0,0,554.73,122.13Z"/><path class="cls-4" d="M568.4,110.55v15.64h-2.95V110.55Zm1.72,15.64h-3.38l0-2.32h3.35a4.05,4.05,0,0,0,2.29-.61,3.71,3.71,0,0,0,1.39-1.75,7.09,7.09,0,0,0,.48-2.75V118a8,8,0,0,0-.27-2.18,4.56,4.56,0,0,0-.79-1.59,3.36,3.36,0,0,0-1.29-1,4.37,4.37,0,0,0-1.75-.33h-3.5v-2.33h3.5a7.6,7.6,0,0,1,2.87.52,6.52,6.52,0,0,1,2.24,1.51,6.81,6.81,0,0,1,1.46,2.35,8.67,8.67,0,0,1,.51,3v.78a8.67,8.67,0,0,1-.51,3,6.72,6.72,0,0,1-1.46,2.35,6.48,6.48,0,0,1-2.26,1.5A7.81,7.81,0,0,1,570.12,126.19Z"/><path class="cls-4" d="M582.73,110.55v15.64h-3V110.55Zm7.38,0v2.33h-8.28v-2.33ZM589.06,117v2.27h-7.23V117Zm1.08,6.87v2.32h-8.31v-2.32Z"/><path class="cls-4" d="M595.14,110.55v15.64h-3V110.55Zm7,13.32v2.32h-7.87v-2.32Z"/><path class="cls-4" d="M609.54,110.55h5.68a8.11,8.11,0,0,1,3.07.53,4.26,4.26,0,0,1,2,1.59,4.65,4.65,0,0,1,.69,2.59,4.79,4.79,0,0,1-.43,2.11,4.17,4.17,0,0,1-1.21,1.49,6.1,6.1,0,0,1-1.83,1l-.92.47h-5l0-2.33h3.75a3.22,3.22,0,0,0,1.51-.32,2.25,2.25,0,0,0,.91-.9,2.74,2.74,0,0,0,.3-1.3,2.86,2.86,0,0,0-.3-1.35,2,2,0,0,0-.91-.89,3.37,3.37,0,0,0-1.55-.31H612.5v13.31h-3Zm8.83,15.64-3.62-7h3.13l3.66,6.87v.15Z"/><path class="cls-4" d="M626.47,110.55v15.64h-3V110.55Zm7.38,0v2.33h-8.28v-2.33ZM632.8,117v2.27h-7.23V117Zm1.08,6.87v2.32h-8.31v-2.32Z"/><path class="cls-4" d="M645.08,121H648a6.07,6.07,0,0,1-.87,2.78,5.18,5.18,0,0,1-2.09,1.89,7.07,7.07,0,0,1-3.26.69,6.46,6.46,0,0,1-2.65-.52,5.68,5.68,0,0,1-2-1.49,6.93,6.93,0,0,1-1.27-2.34,10.18,10.18,0,0,1-.44-3.08v-1.19a9.94,9.94,0,0,1,.45-3.09,6.57,6.57,0,0,1,1.3-2.34,5.69,5.69,0,0,1,2-1.5,6.48,6.48,0,0,1,2.66-.53,6.91,6.91,0,0,1,3.23.7,5.23,5.23,0,0,1,2,1.93,6.63,6.63,0,0,1,.88,2.82h-2.95a4.7,4.7,0,0,0-.43-1.68,2.28,2.28,0,0,0-1-1,3.73,3.73,0,0,0-1.77-.36,3.26,3.26,0,0,0-1.51.33,2.62,2.62,0,0,0-1.08,1,4.64,4.64,0,0,0-.65,1.59,10.2,10.2,0,0,0-.21,2.2V119a10.71,10.71,0,0,0,.19,2.14,4.94,4.94,0,0,0,.6,1.6,2.82,2.82,0,0,0,1.06,1,3.32,3.32,0,0,0,1.53.34,4.1,4.1,0,0,0,1.77-.34,2.41,2.41,0,0,0,1-1A4.52,4.52,0,0,0,645.08,121Z"/><path class="cls-4" d="M663,118v.8a9.86,9.86,0,0,1-.47,3.19,6.83,6.83,0,0,1-1.34,2.4,5.92,5.92,0,0,1-2.08,1.52,7.09,7.09,0,0,1-5.33,0,6.15,6.15,0,0,1-2.09-1.52,6.87,6.87,0,0,1-1.36-2.4,9.58,9.58,0,0,1-.49-3.19V118a9.58,9.58,0,0,1,.49-3.19,7,7,0,0,1,1.35-2.4,5.8,5.8,0,0,1,2.08-1.52,7,7,0,0,1,5.33,0,5.8,5.8,0,0,1,2.08,1.52,7,7,0,0,1,1.36,2.4A10.14,10.14,0,0,1,663,118Zm-3,.8V118a9.46,9.46,0,0,0-.24-2.25,4.84,4.84,0,0,0-.7-1.64,3.06,3.06,0,0,0-1.14-1,3.43,3.43,0,0,0-1.52-.33,3.34,3.34,0,0,0-1.52.33,3.08,3.08,0,0,0-1.12,1,4.84,4.84,0,0,0-.71,1.64,9.46,9.46,0,0,0-.24,2.25v.82A9.46,9.46,0,0,0,653,121a5,5,0,0,0,.71,1.65,3,3,0,0,0,1.13,1,3.52,3.52,0,0,0,3.06,0,3,3,0,0,0,1.12-1,5.19,5.19,0,0,0,.69-1.65A9.46,9.46,0,0,0,660,118.77Z"/><path class="cls-4" d="M665.48,110.55h5.68a8,8,0,0,1,3.06.53,4.29,4.29,0,0,1,2,1.59,4.73,4.73,0,0,1,.68,2.59,4.79,4.79,0,0,1-.43,2.11,4.15,4.15,0,0,1-1.2,1.49,6,6,0,0,1-1.84,1l-.92.47h-5l0-2.33h3.75a3.29,3.29,0,0,0,1.52-.32,2.17,2.17,0,0,0,.9-.9,2.63,2.63,0,0,0,.31-1.3,2.86,2.86,0,0,0-.3-1.35,2.06,2.06,0,0,0-.91-.89,3.4,3.4,0,0,0-1.55-.31h-2.73v13.31h-2.95Zm8.83,15.64-3.62-7h3.12l3.66,6.87v.15Z"/><path class="cls-4" d="M679.45,110.55h5.68a8.11,8.11,0,0,1,3.07.53,4.26,4.26,0,0,1,2,1.59,4.65,4.65,0,0,1,.69,2.59,4.79,4.79,0,0,1-.43,2.11,4.17,4.17,0,0,1-1.21,1.49,6.1,6.1,0,0,1-1.83,1l-.92.47h-5l0-2.33h3.75a3.22,3.22,0,0,0,1.51-.32,2.25,2.25,0,0,0,.91-.9,3.08,3.08,0,0,0,0-2.65,2,2,0,0,0-.91-.89,3.37,3.37,0,0,0-1.55-.31h-2.72v13.31h-3Zm8.83,15.64-3.62-7h3.13l3.66,6.87v.15Z"/><path class="cls-4" d="M696.57,110.55v15.64h-3V110.55Z"/><path class="cls-4" d="M702.71,110.55v15.64h-3V110.55Zm1.72,15.64h-3.38l0-2.32h3.35a4.05,4.05,0,0,0,2.29-.61,3.71,3.71,0,0,0,1.39-1.75,7.09,7.09,0,0,0,.47-2.75V118a8.41,8.41,0,0,0-.26-2.18,4.56,4.56,0,0,0-.79-1.59,3.36,3.36,0,0,0-1.29-1,4.37,4.37,0,0,0-1.75-.33H701v-2.33h3.5a7.51,7.51,0,0,1,2.86.52,6.46,6.46,0,0,1,2.25,1.51,6.81,6.81,0,0,1,1.46,2.35,8.67,8.67,0,0,1,.51,3v.78a8.67,8.67,0,0,1-.51,3,6.72,6.72,0,0,1-1.46,2.35,6.48,6.48,0,0,1-2.26,1.5A7.77,7.77,0,0,1,704.43,126.19Z"/><path class="cls-4" d="M726.75,118v.8a10.14,10.14,0,0,1-.47,3.19,7,7,0,0,1-1.35,2.4,6,6,0,0,1-2.07,1.52,7.09,7.09,0,0,1-5.33,0,6.05,6.05,0,0,1-2.09-1.52,7,7,0,0,1-1.37-2.4,9.85,9.85,0,0,1-.48-3.19V118a9.85,9.85,0,0,1,.48-3.19,7.19,7.19,0,0,1,1.36-2.4,5.8,5.8,0,0,1,2.08-1.52,7,7,0,0,1,5.33,0,6,6,0,0,1,2.08,1.52,7,7,0,0,1,1.35,2.4A9.85,9.85,0,0,1,726.75,118Zm-3,.8V118a10.05,10.05,0,0,0-.23-2.25,4.84,4.84,0,0,0-.7-1.64,3.14,3.14,0,0,0-1.14-1,3.44,3.44,0,0,0-1.53-.33,3.4,3.4,0,0,0-1.52.33,3.16,3.16,0,0,0-1.12,1,4.84,4.84,0,0,0-.7,1.64,9.46,9.46,0,0,0-.24,2.25v.82a9.46,9.46,0,0,0,.24,2.25,5,5,0,0,0,.71,1.65,3,3,0,0,0,1.13,1,3.5,3.5,0,0,0,3.05,0,2.84,2.84,0,0,0,1.12-1,5,5,0,0,0,.7-1.65A10.05,10.05,0,0,0,723.76,118.77Z"/><circle class="cls-5" cx="197.03" cy="173.76" r="173.76" transform="translate(-65.16 190.22) rotate(-45)"/><circle class="cls-4" cx="157.93" cy="173.76" r="149.29" transform="translate(-76.61 162.57) rotate(-45)"/><path class="cls-2" d="M157.93,33.11c77.56,0,140.65,63.1,140.65,140.65S235.49,314.41,157.93,314.41,17.28,251.32,17.28,173.76,80.38,33.11,157.93,33.11m0-17.28A157.94,157.94,0,1,0,315.87,173.76,157.93,157.93,0,0,0,157.93,15.83Z"/><circle class="cls-6" cx="157.93" cy="173.76" r="117.75"/><path class="cls-7" d="M0,173.11c0,.22,0,.43,0,.65a157.94,157.94,0,1,0,315.87,0c0-.22,0-.43,0-.65Z"/><rect class="cls-8" x="182.86" y="378.97" width="707.88" height="251.7"/><polygon class="cls-8" points="187.5 663.39 187.5 337.89 0 500.64 187.5 663.39"/><circle class="cls-9" cx="855.1" cy="505.46" r="173.76"/><polygon class="cls-7" points="0 500.64 890.68 504.84 890.68 630.7 187.43 630.7 187.43 663.42 0 500.64"/><circle class="cls-4" cx="894.2" cy="505.46" r="149.29" transform="translate(-95.51 780.34) rotate(-45)"/><path class="cls-8" d="M894.2,364.81c77.56,0,140.65,63.09,140.65,140.65S971.76,646.11,894.2,646.11,753.55,583,753.55,505.46s63.1-140.65,140.65-140.65m0-17.28a157.93,157.93,0,1,0,157.94,157.93A157.93,157.93,0,0,0,894.2,347.53Z"/><circle class="cls-6" cx="894.2" cy="505.46" r="117.75"/><path class="cls-10" d="M1052.12,504.84c0,.22,0,.43,0,.65a157.94,157.94,0,0,1-315.87,0c0-.22,0-.43,0-.65Z"/><path class="cls-6" d="M421.91,449.67v.8a10,10,0,0,1-.47,3.19,6.83,6.83,0,0,1-1.34,2.4,5.78,5.78,0,0,1-2.08,1.51,7,7,0,0,1-5.33,0,5.9,5.9,0,0,1-2.09-1.51,6.87,6.87,0,0,1-1.36-2.4,9.94,9.94,0,0,1-.49-3.19v-.8a9.8,9.8,0,0,1,.49-3.19,7,7,0,0,1,1.35-2.4,5.83,5.83,0,0,1,2.08-1.53,7.09,7.09,0,0,1,5.33,0,5.92,5.92,0,0,1,2.08,1.53,6.87,6.87,0,0,1,1.36,2.4A10.1,10.1,0,0,1,421.91,449.67Zm-3,.8v-.83a9.46,9.46,0,0,0-.24-2.25,4.87,4.87,0,0,0-.7-1.63,3,3,0,0,0-1.14-1,3.43,3.43,0,0,0-1.52-.34,3.37,3.37,0,0,0-1.52.34,3,3,0,0,0-1.12,1,4.87,4.87,0,0,0-.71,1.63,9.46,9.46,0,0,0-.24,2.25v.83a9.46,9.46,0,0,0,.24,2.25,5,5,0,0,0,.71,1.65,3.19,3.19,0,0,0,1.13,1,3.61,3.61,0,0,0,3.06,0,3.16,3.16,0,0,0,1.12-1,5.19,5.19,0,0,0,.69-1.65A9.46,9.46,0,0,0,418.93,450.47Z"/><path class="cls-6" d="M430.41,450.91h-4l0-2.08h3.43a3.7,3.7,0,0,0,1.47-.25,1.91,1.91,0,0,0,.9-.72,2.09,2.09,0,0,0,.3-1.15,2.32,2.32,0,0,0-.28-1.22,1.67,1.67,0,0,0-.89-.7,4.66,4.66,0,0,0-1.52-.22h-2.43v13.31h-2.95V442.24h5.38a10.08,10.08,0,0,1,2.38.26,4.9,4.9,0,0,1,1.78.77,3.62,3.62,0,0,1,1.11,1.32,4.47,4.47,0,0,1,.38,1.9,3.58,3.58,0,0,1-.45,1.77,3.33,3.33,0,0,1-1.36,1.32,5.36,5.36,0,0,1-2.33.58Zm-.13,7h-4.74l1.24-2.32h3.5a3.17,3.17,0,0,0,1.46-.29,2,2,0,0,0,.86-.8,2.36,2.36,0,0,0,.28-1.17,2.94,2.94,0,0,0-.25-1.27,1.78,1.78,0,0,0-.8-.83,3,3,0,0,0-1.42-.29h-3.07l0-2.08h3.91l.68.8a4.23,4.23,0,0,1,2.2.54,3.35,3.35,0,0,1,1.27,1.35,4,4,0,0,1,.4,1.79,4.54,4.54,0,0,1-.65,2.52,4,4,0,0,1-1.89,1.54A7.84,7.84,0,0,1,430.28,457.88Z"/><path class="cls-6" d="M446.57,453.82a2.29,2.29,0,0,0-.14-.81,1.55,1.55,0,0,0-.48-.65,4.08,4.08,0,0,0-1-.58,15.26,15.26,0,0,0-1.62-.6,19.31,19.31,0,0,1-2-.77,8.12,8.12,0,0,1-1.66-1,4.35,4.35,0,0,1-1.11-1.32,3.68,3.68,0,0,1-.4-1.73,3.76,3.76,0,0,1,.42-1.77,4.09,4.09,0,0,1,1.17-1.36,5.61,5.61,0,0,1,1.8-.89,7.9,7.9,0,0,1,2.3-.31,6.71,6.71,0,0,1,3,.63,4.88,4.88,0,0,1,2,1.72,4.38,4.38,0,0,1,.7,2.44h-2.94a2.57,2.57,0,0,0-.31-1.29,2.12,2.12,0,0,0-.92-.88,3.31,3.31,0,0,0-1.56-.32,3.76,3.76,0,0,0-1.49.26,2,2,0,0,0-.9.74,1.9,1.9,0,0,0-.29,1,1.55,1.55,0,0,0,.2.77,2.3,2.3,0,0,0,.62.63,5,5,0,0,0,1,.55c.4.17.88.33,1.41.5a13.55,13.55,0,0,1,2.26.86,6.67,6.67,0,0,1,1.63,1.07,4.07,4.07,0,0,1,1,1.35,4.21,4.21,0,0,1,.33,1.71,4,4,0,0,1-.4,1.81A3.75,3.75,0,0,1,448,457a5.55,5.55,0,0,1-1.78.85,8.77,8.77,0,0,1-2.32.29,8.2,8.2,0,0,1-2.25-.31,6.58,6.58,0,0,1-2-.92,4.71,4.71,0,0,1-1.44-1.57,4.44,4.44,0,0,1-.54-2.23h3a3,3,0,0,0,.24,1.26,2.2,2.2,0,0,0,.68.85,3,3,0,0,0,1.05.48,5.39,5.39,0,0,0,1.3.15,3.77,3.77,0,0,0,1.49-.25,1.91,1.91,0,0,0,.88-.71A1.81,1.81,0,0,0,446.57,453.82Z"/><path class="cls-6" d="M454.76,442.24v15.64h-2.95V442.24Zm7.38,0v2.33h-8.28v-2.33Zm-1.05,6.46V451h-7.23V448.7Zm1.09,6.86v2.32h-8.32v-2.32Z"/><path class="cls-6" d="M464.22,442.24h5.68a7.83,7.83,0,0,1,3.06.54,4.29,4.29,0,0,1,2,1.59,5.3,5.3,0,0,1,.25,4.69,4,4,0,0,1-1.21,1.5,5.85,5.85,0,0,1-1.83.94l-.92.48h-5l0-2.34h3.75a3.17,3.17,0,0,0,1.52-.32,2.09,2.09,0,0,0,.9-.89,2.63,2.63,0,0,0,.31-1.3,2.93,2.93,0,0,0-.3-1.36,2,2,0,0,0-.91-.88,3.39,3.39,0,0,0-1.55-.32h-2.73v13.31h-2.95Zm8.83,15.64-3.62-7h3.12l3.67,6.86v.15Z"/><path class="cls-6" d="M479.89,442.24l3.88,12.58.56,3.06h-2.21l-5.5-15.64Zm3.6,12.58,3.9-12.58h3.27l-5.52,15.64H483Z"/><path class="cls-6" d="M497.69,444.62l-4.46,13.26H490.1L496,442.24h2Zm3.52,7.45v2.33h-8.39v-2.33Zm.21,5.81-4.48-13.26-.27-2.38h2l5.87,15.64Z"/><path class="cls-6" d="M515.19,452.74h2.95a6,6,0,0,1-.87,2.77,5.2,5.2,0,0,1-2.09,1.9,7.07,7.07,0,0,1-3.26.69,6.46,6.46,0,0,1-2.65-.52,5.67,5.67,0,0,1-2-1.49,6.74,6.74,0,0,1-1.28-2.35,10.11,10.11,0,0,1-.44-3.07v-1.2a9.87,9.87,0,0,1,.45-3.08,6.61,6.61,0,0,1,1.3-2.35,5.69,5.69,0,0,1,2-1.5A6.51,6.51,0,0,1,512,442a6.79,6.79,0,0,1,3.23.7,5.16,5.16,0,0,1,2,1.93,6.59,6.59,0,0,1,.88,2.81H515.2a4.64,4.64,0,0,0-.43-1.67,2.28,2.28,0,0,0-1-1.05,3.73,3.73,0,0,0-1.77-.36,3.39,3.39,0,0,0-1.51.32,2.72,2.72,0,0,0-1.08,1,4.64,4.64,0,0,0-.65,1.59,10.17,10.17,0,0,0-.21,2.19v1.22a10.61,10.61,0,0,0,.19,2.13,4.86,4.86,0,0,0,.6,1.6,2.82,2.82,0,0,0,1.06,1,3.2,3.2,0,0,0,1.53.35,4,4,0,0,0,1.77-.35,2.36,2.36,0,0,0,1-1A4.41,4.41,0,0,0,515.19,452.74Z"/><path class="cls-6" d="M523.57,442.24v15.64h-3V442.24Z"/><path class="cls-6" d="M539.41,449.67v.8a10.23,10.23,0,0,1-.47,3.19,7,7,0,0,1-1.34,2.4,5.86,5.86,0,0,1-2.08,1.51,7,7,0,0,1-5.33,0,5.9,5.9,0,0,1-2.09-1.51,6.87,6.87,0,0,1-1.36-2.4,9.67,9.67,0,0,1-.49-3.19v-.8a9.54,9.54,0,0,1,.49-3.19,7,7,0,0,1,1.35-2.4,5.83,5.83,0,0,1,2.08-1.53,7.09,7.09,0,0,1,5.33,0,5.92,5.92,0,0,1,2.08,1.53,7,7,0,0,1,1.35,2.4A9.81,9.81,0,0,1,539.41,449.67Zm-3,.8v-.83a9.46,9.46,0,0,0-.24-2.25,4.87,4.87,0,0,0-.7-1.63,3,3,0,0,0-1.14-1,3.43,3.43,0,0,0-1.52-.34,3.34,3.34,0,0,0-1.52.34,3.1,3.1,0,0,0-1.13,1,5.08,5.08,0,0,0-.7,1.63,9.46,9.46,0,0,0-.24,2.25v.83a9.46,9.46,0,0,0,.24,2.25,5,5,0,0,0,.71,1.65,3.19,3.19,0,0,0,1.13,1,3.28,3.28,0,0,0,1.53.34,3.24,3.24,0,0,0,1.52-.34,3.11,3.11,0,0,0,1.13-1,5.19,5.19,0,0,0,.69-1.65A9.46,9.46,0,0,0,536.43,450.47Z"/><path class="cls-6" d="M554.48,442.24v15.64h-3L544.87,447v10.85h-3V442.24h3l6.67,10.86V442.24Z"/><path class="cls-6" d="M560.43,442.24v15.64h-2.95V442.24Zm7.38,0v2.33h-8.28v-2.33Zm-1,6.46V451h-7.23V448.7Zm1.09,6.86v2.32h-8.32v-2.32Z"/><path class="cls-6" d="M578.07,453.82a2.3,2.3,0,0,0-.13-.81,1.55,1.55,0,0,0-.48-.65,4.29,4.29,0,0,0-1-.58,15.26,15.26,0,0,0-1.62-.6,19.31,19.31,0,0,1-2-.77,8.12,8.12,0,0,1-1.66-1,4.08,4.08,0,0,1-1.11-1.32,3.56,3.56,0,0,1-.4-1.73,3.88,3.88,0,0,1,.41-1.77,4.12,4.12,0,0,1,1.18-1.36,5.61,5.61,0,0,1,1.8-.89,7.88,7.88,0,0,1,2.29-.31,6.76,6.76,0,0,1,3,.63,5,5,0,0,1,2,1.72,4.46,4.46,0,0,1,.7,2.44h-2.95a2.67,2.67,0,0,0-.3-1.29,2.2,2.2,0,0,0-.93-.88,3.27,3.27,0,0,0-1.55-.32,3.84,3.84,0,0,0-1.5.26,2,2,0,0,0-.89.74,1.83,1.83,0,0,0-.3,1,1.46,1.46,0,0,0,.21.77,2.25,2.25,0,0,0,.61.63,4.81,4.81,0,0,0,1,.55c.4.17.87.33,1.41.5a13.9,13.9,0,0,1,2.26.86,6.42,6.42,0,0,1,1.62,1.07,4,4,0,0,1,1,1.35,4.21,4.21,0,0,1,.33,1.71,4.08,4.08,0,0,1-.4,1.81A3.68,3.68,0,0,1,579.5,457a5.45,5.45,0,0,1-1.78.85,8.69,8.69,0,0,1-2.31.29,8.2,8.2,0,0,1-2.25-.31,6.75,6.75,0,0,1-2-.92,4.71,4.71,0,0,1-1.44-1.57,4.54,4.54,0,0,1-.53-2.23h3a3,3,0,0,0,.24,1.26,2.22,2.22,0,0,0,.69.85,3,3,0,0,0,1.05.48,5.33,5.33,0,0,0,1.3.15,3.77,3.77,0,0,0,1.49-.25,1.91,1.91,0,0,0,.88-.71A1.88,1.88,0,0,0,578.07,453.82Z"/><path class="cls-6" d="M591.74,442.24v15.64h-3V442.24Zm1.72,15.64h-3.38l0-2.32h3.36a4.1,4.1,0,0,0,2.28-.6,3.78,3.78,0,0,0,1.4-1.75,7.13,7.13,0,0,0,.47-2.75v-.8a8,8,0,0,0-.27-2.19,4.39,4.39,0,0,0-.79-1.59,3.23,3.23,0,0,0-1.28-1,4.2,4.2,0,0,0-1.75-.34H590v-2.33h3.5a7.55,7.55,0,0,1,2.86.53,6.42,6.42,0,0,1,2.25,1.51,6.72,6.72,0,0,1,1.46,2.35,8.59,8.59,0,0,1,.51,3.05v.78a8.71,8.71,0,0,1-.51,3.05,6.68,6.68,0,0,1-1.46,2.34,6.46,6.46,0,0,1-2.26,1.51A7.81,7.81,0,0,1,593.46,457.88Z"/><path class="cls-6" d="M606.07,442.24v15.64h-3V442.24Zm7.38,0v2.33h-8.29v-2.33Zm-1.06,6.46V451h-7.23V448.7Zm1.09,6.86v2.32h-8.32v-2.32Z"/><path class="cls-6" d="M618.47,442.24v15.64h-3V442.24Zm7,13.32v2.32h-7.87v-2.32Z"/><path class="cls-6" d="M645.08,449.79v6.1a5.09,5.09,0,0,1-1.08.95,7.25,7.25,0,0,1-1.91.89,9.76,9.76,0,0,1-2.91.37,7.24,7.24,0,0,1-2.72-.5,5.66,5.66,0,0,1-2.13-1.47,6.63,6.63,0,0,1-1.38-2.36,9.81,9.81,0,0,1-.48-3.19v-1a10.06,10.06,0,0,1,.46-3.19,6.64,6.64,0,0,1,1.31-2.37,5.68,5.68,0,0,1,2-1.47A6.77,6.77,0,0,1,639,442a7.26,7.26,0,0,1,3.27.65,4.78,4.78,0,0,1,2,1.8,6.43,6.43,0,0,1,.86,2.63h-2.88a3.89,3.89,0,0,0-.47-1.43,2.46,2.46,0,0,0-1-1,3.5,3.5,0,0,0-1.69-.35,3.25,3.25,0,0,0-1.53.34,3.06,3.06,0,0,0-1.12,1,4.8,4.8,0,0,0-.68,1.62,9.84,9.84,0,0,0-.23,2.22v1.05a8.38,8.38,0,0,0,.26,2.23,4.81,4.81,0,0,0,.74,1.63,3.19,3.19,0,0,0,1.22,1,3.77,3.77,0,0,0,1.65.34,5.47,5.47,0,0,0,1.39-.15,3,3,0,0,0,.88-.35,2.69,2.69,0,0,0,.52-.39V452H639v-2.16Z"/><path class="cls-6" d="M656.58,442.24h2.95v10.39a5.54,5.54,0,0,1-.77,3,4.83,4.83,0,0,1-2.11,1.84,7.16,7.16,0,0,1-3,.62,7.3,7.3,0,0,1-3.06-.62,4.7,4.7,0,0,1-2.1-1.84,5.54,5.54,0,0,1-.77-3V442.24h3v10.39a3.88,3.88,0,0,0,.36,1.79,2.36,2.36,0,0,0,1,1,3.86,3.86,0,0,0,3.17,0,2.22,2.22,0,0,0,1-1,3.88,3.88,0,0,0,.36-1.79Z"/><path class="cls-6" d="M665.47,442.24v15.64h-3V442.24Zm-2.87-1,2.11-3.27h3.13l-2.93,3.27Z"/><path class="cls-6" d="M675.06,444.62l-4.45,13.26h-3.13l5.84-15.64h2Zm3.53,7.45v2.33H670.2v-2.33Zm.2,5.81-4.48-13.26-.27-2.38h2l5.88,15.64Z"/><rect class="cls-2" x="161.39" y="710.7" width="707.88" height="251.7"/><polygon class="cls-2" points="864.64 995.12 864.64 669.62 1052.14 832.37 864.64 995.12"/><polygon class="cls-3" points="1052.14 832.37 161.39 836.53 161.39 962.39 864.64 962.39 864.64 995.12 1052.14 832.37"/><path class="cls-4" d="M355.4,774h5.69a7.83,7.83,0,0,1,3.06.54,4.16,4.16,0,0,1,2,1.59,4.68,4.68,0,0,1,.68,2.58,4.76,4.76,0,0,1-.43,2.11,4.07,4.07,0,0,1-1.21,1.49,6.1,6.1,0,0,1-1.83,1l-.92.47h-5l0-2.33h3.75a3.22,3.22,0,0,0,1.51-.32,2.12,2.12,0,0,0,.91-.89,2.66,2.66,0,0,0,.31-1.3,2.87,2.87,0,0,0-.3-1.36,2,2,0,0,0-.92-.89,3.32,3.32,0,0,0-1.54-.31h-2.73v13.31h-3Zm8.83,15.64-3.61-7,3.12,0,3.66,6.87v.15Z"/><path class="cls-4" d="M372.33,774v15.64h-2.95V774Zm7.39,0v2.33h-8.29V774Zm-1.06,6.46v2.26h-7.23v-2.26Zm1.09,6.86v2.32h-8.32v-2.32Z"/><path class="cls-4" d="M393.57,774v2.33H381V774Zm-4.85,0v15.64h-3V774Z"/><path class="cls-4" d="M395.53,774h5.68a7.83,7.83,0,0,1,3.06.54,4.16,4.16,0,0,1,2,1.59,4.59,4.59,0,0,1,.68,2.58,4.76,4.76,0,0,1-.43,2.11,4.15,4.15,0,0,1-1.2,1.49,6.1,6.1,0,0,1-1.83,1l-.93.47h-5l0-2.33h3.75a3.26,3.26,0,0,0,1.52-.32,2.15,2.15,0,0,0,.9-.89,2.66,2.66,0,0,0,.31-1.3,2.87,2.87,0,0,0-.3-1.36,2.06,2.06,0,0,0-.91-.89,3.4,3.4,0,0,0-1.55-.31h-2.73v13.31h-3Zm8.83,15.64-3.62-7,3.12,0,3.67,6.87v.15Z"/><path class="cls-4" d="M422.17,781.39v.81a10.12,10.12,0,0,1-.47,3.18,7,7,0,0,1-1.35,2.4,5.86,5.86,0,0,1-2.07,1.52,7.09,7.09,0,0,1-5.33,0,5.84,5.84,0,0,1-2.09-1.52,6.88,6.88,0,0,1-1.37-2.4,9.83,9.83,0,0,1-.48-3.18v-.81a9.85,9.85,0,0,1,.48-3.19,7,7,0,0,1,1.36-2.4,5.86,5.86,0,0,1,2.07-1.52,7,7,0,0,1,5.34,0,6,6,0,0,1,2.08,1.52,7,7,0,0,1,1.35,2.4A9.85,9.85,0,0,1,422.17,781.39Zm-3,.81v-.83a10.05,10.05,0,0,0-.23-2.25,5.14,5.14,0,0,0-.7-1.64,3,3,0,0,0-1.14-1,3.31,3.31,0,0,0-1.53-.34,3.24,3.24,0,0,0-1.52.34,3,3,0,0,0-1.12,1,4.92,4.92,0,0,0-.7,1.64,9.43,9.43,0,0,0-.25,2.25v.83a9.41,9.41,0,0,0,.25,2.24,4.79,4.79,0,0,0,.71,1.65,3.05,3.05,0,0,0,1.13,1,3.59,3.59,0,0,0,3.05,0,3,3,0,0,0,1.12-1,5,5,0,0,0,.7-1.65A10,10,0,0,0,419.18,782.2Z"/><path class="cls-4" d="M430.66,776.34l-4.45,13.27h-3.13L428.92,774h2Zm3.53,7.46v2.33H425.8V783.8Zm.2,5.81-4.48-13.27-.27-2.37h2l5.88,15.64Z"/><path class="cls-4" d="M442.08,774v15.64h-2.95V774Zm7,13.32v2.32h-7.86v-2.32Z"/><path class="cls-4" d="M454.17,774v15.64h-2.95V774Z"/><path class="cls-4" d="M457.35,774h2.5l.45,10.82v4.82h-2.95Zm1.29,0h2.55l4.28,11.77L469.73,774h2.57l-5.81,15.64h-2.05Zm12.44,0h2.51v15.64h-2.95v-4.82Z"/><path class="cls-4" d="M479.55,774v15.64H476.6V774Zm7.38,0v2.33h-8.28V774Zm-1.05,6.46v2.26h-7.23v-2.26Zm1.09,6.86v2.32h-8.32v-2.32Z"/><path class="cls-4" d="M501.57,774v15.64h-3L492,778.76v10.85H489V774H492l6.67,10.86V774Z"/><path class="cls-4" d="M515.83,774v2.33h-12.6V774ZM511,774v15.64H508V774Z"/><path class="cls-4" d="M523.15,776.34l-4.45,13.27h-3.13L521.41,774h2Zm3.53,7.46v2.33h-8.39V783.8Zm.2,5.81-4.48-13.27-.27-2.37h2L530,789.61Z"/><path class="cls-4" d="M540.65,784.46h3a6.07,6.07,0,0,1-.87,2.78,5.16,5.16,0,0,1-2.1,1.9,7.16,7.16,0,0,1-3.25.68,6.43,6.43,0,0,1-2.65-.52,5.56,5.56,0,0,1-2-1.49,6.76,6.76,0,0,1-1.27-2.34,9.83,9.83,0,0,1-.44-3.08V781.2a9.83,9.83,0,0,1,.45-3.08,6.76,6.76,0,0,1,1.29-2.35,5.78,5.78,0,0,1,2-1.5,6.55,6.55,0,0,1,2.66-.53,6.83,6.83,0,0,1,3.24.71,5.16,5.16,0,0,1,2,1.93,6.68,6.68,0,0,1,.88,2.81h-3a4.5,4.5,0,0,0-.42-1.68,2.36,2.36,0,0,0-1-1,3.78,3.78,0,0,0-1.78-.36,3.32,3.32,0,0,0-1.51.32,2.75,2.75,0,0,0-1.08,1,4.81,4.81,0,0,0-.64,1.59,10.22,10.22,0,0,0-.22,2.2v1.21a10.6,10.6,0,0,0,.2,2.14,4.94,4.94,0,0,0,.6,1.6,2.72,2.72,0,0,0,1.05,1,3.21,3.21,0,0,0,1.54.34,4,4,0,0,0,1.77-.34,2.41,2.41,0,0,0,1-1A4.28,4.28,0,0,0,540.65,784.46Z"/><path class="cls-4" d="M549,774v15.64h-2.95V774Z"/><path class="cls-4" d="M564.88,781.39v.81a9.83,9.83,0,0,1-.48,3.18,6.83,6.83,0,0,1-1.34,2.4A5.86,5.86,0,0,1,561,789.3a7.09,7.09,0,0,1-5.33,0,5.84,5.84,0,0,1-2.09-1.52,6.88,6.88,0,0,1-1.37-2.4,9.83,9.83,0,0,1-.48-3.18v-.81a9.85,9.85,0,0,1,.48-3.19,7,7,0,0,1,1.35-2.4,5.89,5.89,0,0,1,2.08-1.52,7,7,0,0,1,5.34,0,6,6,0,0,1,2.08,1.52,7,7,0,0,1,1.35,2.4A9.85,9.85,0,0,1,564.88,781.39Zm-3,.81v-.83a9.46,9.46,0,0,0-.24-2.25,4.92,4.92,0,0,0-.69-1.64,3,3,0,0,0-1.14-1,3.31,3.31,0,0,0-1.53-.34,3.24,3.24,0,0,0-1.52.34,3,3,0,0,0-1.12,1,4.92,4.92,0,0,0-.7,1.64,9.46,9.46,0,0,0-.24,2.25v.83a9.44,9.44,0,0,0,.24,2.24,4.79,4.79,0,0,0,.71,1.65,3.05,3.05,0,0,0,1.13,1,3.24,3.24,0,0,0,1.52.34,3.28,3.28,0,0,0,1.53-.34,3,3,0,0,0,1.12-1,4.77,4.77,0,0,0,.69-1.65A9.44,9.44,0,0,0,561.89,782.2Zm-5-9.17,2.1-3.26h3.14L559.23,773Z"/><path class="cls-4" d="M580,774v15.64h-3l-6.65-10.85v10.85h-3V774h3L577,784.83V774Z"/><path class="cls-4" d="M591.37,774v15.64h-3V774Zm1.72,15.64h-3.38l0-2.32h3.36a4.05,4.05,0,0,0,2.29-.61,3.71,3.71,0,0,0,1.39-1.75,7.08,7.08,0,0,0,.47-2.74v-.81a8,8,0,0,0-.27-2.18,4.38,4.38,0,0,0-.78-1.59,3.36,3.36,0,0,0-1.29-1,4.37,4.37,0,0,0-1.75-.33h-3.5V774h3.5a7.32,7.32,0,0,1,2.86.53,6.33,6.33,0,0,1,2.25,1.51,6.68,6.68,0,0,1,1.46,2.34,8.67,8.67,0,0,1,.51,3v.79a8.66,8.66,0,0,1-.51,3,6.63,6.63,0,0,1-1.46,2.35,6.48,6.48,0,0,1-2.26,1.5A7.81,7.81,0,0,1,593.09,789.61Z"/><path class="cls-4" d="M605.7,774v15.64h-3V774Zm7.38,0v2.33H604.8V774ZM612,780.43v2.26H604.8v-2.26Zm1.08,6.86v2.32H604.8v-2.32Z"/><path class="cls-4" d="M622.52,774l3.88,12.58.56,3.06h-2.21L619.25,774Zm3.6,12.58L630,774h3.28l-5.53,15.64h-2.18Z"/><path class="cls-4" d="M638.05,774v15.64H635.1V774Z"/><path class="cls-4" d="M649.42,785.55a2.29,2.29,0,0,0-.14-.81,1.65,1.65,0,0,0-.48-.66,4.43,4.43,0,0,0-1-.58,13.27,13.27,0,0,0-1.61-.59,17.34,17.34,0,0,1-2-.78,7.47,7.47,0,0,1-1.66-1,4.1,4.1,0,0,1-1.12-1.31,4,4,0,0,1,0-3.5,4.15,4.15,0,0,1,1.18-1.37,5.4,5.4,0,0,1,1.8-.88,7.82,7.82,0,0,1,2.29-.32,6.71,6.71,0,0,1,3,.64,4.74,4.74,0,0,1,2,1.72,4.35,4.35,0,0,1,.7,2.44h-2.94a2.57,2.57,0,0,0-.31-1.29,2.07,2.07,0,0,0-.92-.88,3.26,3.26,0,0,0-1.55-.33,3.66,3.66,0,0,0-1.5.27,1.93,1.93,0,0,0-.89.73,1.85,1.85,0,0,0-.3,1,1.5,1.5,0,0,0,.2.77,2.19,2.19,0,0,0,.62.64,5.53,5.53,0,0,0,1,.54,14.32,14.32,0,0,0,1.42.5,16.51,16.51,0,0,1,2.26.86,7.14,7.14,0,0,1,1.62,1.08,4.1,4.1,0,0,1,1,1.35,4.38,4.38,0,0,1,.32,1.71,3.77,3.77,0,0,1-1.53,3.16,5.33,5.33,0,0,1-1.78.84,8.32,8.32,0,0,1-2.32.29,8.7,8.7,0,0,1-2.25-.3,6.6,6.6,0,0,1-2-.93,4.68,4.68,0,0,1-1.44-1.56,4.46,4.46,0,0,1-.54-2.23h3a3,3,0,0,0,.24,1.26,2.13,2.13,0,0,0,.69.85,2.82,2.82,0,0,0,1.05.48,5.31,5.31,0,0,0,1.29.15,3.72,3.72,0,0,0,1.49-.26,1.84,1.84,0,0,0,.88-.7A1.81,1.81,0,0,0,649.42,785.55Z"/><path class="cls-4" d="M657.81,774v15.64h-3V774Z"/><path class="cls-4" d="M672.25,774v2.33H659.64V774Zm-4.86,0v15.64h-2.94V774Z"/><path class="cls-4" d="M679.57,776.34l-4.46,13.27H672L677.83,774h2Zm3.53,7.46v2.33h-8.39V783.8Zm.2,5.81-4.48-13.27-.27-2.37h2l5.88,15.64Z"/><path class="cls-4" d="M700.61,774v15.64h-3L691,778.76v10.85h-3V774h3l6.67,10.86V774Z"/><path class="cls-4" d="M714.86,774v2.33h-12.6V774ZM710,774v15.64h-2.94V774Z"/><path class="cls-4" d="M719.77,774v15.64h-3V774Zm7.38,0v2.33h-8.28V774Zm-1,6.46v2.26h-7.23v-2.26Zm1.08,6.86v2.32h-8.31v-2.32Z"/><path class="cls-4" d="M737.41,785.55a2.29,2.29,0,0,0-.14-.81,1.65,1.65,0,0,0-.48-.66,4.43,4.43,0,0,0-1-.58,13.94,13.94,0,0,0-1.61-.59,18.21,18.21,0,0,1-2.05-.78,7.39,7.39,0,0,1-1.65-1,4.1,4.1,0,0,1-1.12-1.31,4,4,0,0,1,0-3.5,4.15,4.15,0,0,1,1.18-1.37,5.4,5.4,0,0,1,1.8-.88,7.82,7.82,0,0,1,2.29-.32,6.71,6.71,0,0,1,3,.64,4.74,4.74,0,0,1,2,1.72,4.35,4.35,0,0,1,.7,2.44h-2.94a2.57,2.57,0,0,0-.31-1.29,2.07,2.07,0,0,0-.92-.88,3.26,3.26,0,0,0-1.55-.33,3.59,3.59,0,0,0-1.5.27,1.93,1.93,0,0,0-.89.73,1.85,1.85,0,0,0-.3,1,1.5,1.5,0,0,0,.2.77,2.19,2.19,0,0,0,.62.64,5.53,5.53,0,0,0,1,.54c.41.17.88.34,1.41.5a16.19,16.19,0,0,1,2.27.86,7.14,7.14,0,0,1,1.62,1.08,4.1,4.1,0,0,1,1,1.35,4.38,4.38,0,0,1,.32,1.71,3.84,3.84,0,0,1-1.53,3.16,5.33,5.33,0,0,1-1.78.84,8.32,8.32,0,0,1-2.32.29,8.59,8.59,0,0,1-2.25-.3,6.6,6.6,0,0,1-2-.93A4.68,4.68,0,0,1,729,787a4.46,4.46,0,0,1-.54-2.23h3a3,3,0,0,0,.24,1.26,2.13,2.13,0,0,0,.69.85,2.85,2.85,0,0,0,1,.48,5.39,5.39,0,0,0,1.3.15,3.72,3.72,0,0,0,1.49-.26,1.84,1.84,0,0,0,.88-.7A1.81,1.81,0,0,0,737.41,785.55Z"/><path class="cls-4" d="M749.94,774l3.44,7.29,3.46-7.29h3.24l-5.2,9.91v5.73h-3v-5.73L746.68,774Z"/><path class="cls-4" d="M776.26,784.46h3a6.07,6.07,0,0,1-.87,2.78,5.23,5.23,0,0,1-2.1,1.9,7.16,7.16,0,0,1-3.25.68,6.43,6.43,0,0,1-2.65-.52,5.4,5.4,0,0,1-2-1.49,6.76,6.76,0,0,1-1.27-2.34,9.83,9.83,0,0,1-.44-3.08V781.2a9.83,9.83,0,0,1,.45-3.08,6.76,6.76,0,0,1,1.29-2.35,5.69,5.69,0,0,1,2-1.5,6.51,6.51,0,0,1,2.66-.53,6.83,6.83,0,0,1,3.24.71,5.16,5.16,0,0,1,2.05,1.93,6.68,6.68,0,0,1,.88,2.81h-3a4.7,4.7,0,0,0-.42-1.68,2.36,2.36,0,0,0-1-1,3.78,3.78,0,0,0-1.78-.36,3.29,3.29,0,0,0-1.51.32,2.75,2.75,0,0,0-1.08,1,4.81,4.81,0,0,0-.64,1.59,9.63,9.63,0,0,0-.22,2.2v1.21a10.6,10.6,0,0,0,.2,2.14,4.72,4.72,0,0,0,.6,1.6,2.72,2.72,0,0,0,1.05,1,3.21,3.21,0,0,0,1.54.34,3.89,3.89,0,0,0,1.76-.34,2.39,2.39,0,0,0,1-1A4.28,4.28,0,0,0,776.26,784.46Z"/><path class="cls-4" d="M794.16,781.39v.81a10.12,10.12,0,0,1-.47,3.18,7,7,0,0,1-1.35,2.4,5.86,5.86,0,0,1-2.07,1.52,7.09,7.09,0,0,1-5.33,0,5.84,5.84,0,0,1-2.09-1.52,6.88,6.88,0,0,1-1.37-2.4,9.83,9.83,0,0,1-.48-3.18v-.81a9.85,9.85,0,0,1,.48-3.19,7,7,0,0,1,1.36-2.4,5.8,5.8,0,0,1,2.08-1.52,6.57,6.57,0,0,1,2.65-.53,6.64,6.64,0,0,1,2.68.53,6,6,0,0,1,2.08,1.52,7,7,0,0,1,1.35,2.4A9.85,9.85,0,0,1,794.16,781.39Zm-3,.81v-.83a10.05,10.05,0,0,0-.23-2.25,4.92,4.92,0,0,0-.7-1.64,3,3,0,0,0-1.14-1,3.31,3.31,0,0,0-1.53-.34,3.24,3.24,0,0,0-1.52.34,3,3,0,0,0-1.12,1,4.92,4.92,0,0,0-.7,1.64,9.46,9.46,0,0,0-.24,2.25v.83a9.44,9.44,0,0,0,.24,2.24,5,5,0,0,0,.71,1.65,3.13,3.13,0,0,0,1.13,1,3.59,3.59,0,0,0,3,0,3,3,0,0,0,1.12-1,5,5,0,0,0,.7-1.65A10,10,0,0,0,791.17,782.2Z"/><path class="cls-4" d="M796.66,774h2.5l.46,10.82v4.82h-3Zm1.29,0h2.56l4.27,11.77L809.05,774h2.57l-5.82,15.64h-2Zm12.44,0h2.51v15.64H810v-4.82Z"/><path class="cls-4" d="M824.61,774h3v10.39a5.48,5.48,0,0,1-.78,3,4.82,4.82,0,0,1-2.1,1.84,7.16,7.16,0,0,1-3,.61,7.24,7.24,0,0,1-3.06-.61,4.79,4.79,0,0,1-2.11-1.84,5.56,5.56,0,0,1-.76-3V774h2.95v10.39a3.77,3.77,0,0,0,.37,1.79,2.26,2.26,0,0,0,1,1,3.95,3.95,0,0,0,3.16,0,2.29,2.29,0,0,0,1-1,4,4,0,0,0,.35-1.79Z"/><path class="cls-4" d="M842.93,774v15.64h-3l-6.65-10.85v10.85h-2.95V774h2.95L840,784.83V774Z"/><path class="cls-4" d="M849.07,774v15.64h-3V774Z"/><path class="cls-4" d="M855.21,774v15.64h-3V774Zm1.72,15.64h-3.38l0-2.32h3.36a4,4,0,0,0,2.28-.61,3.67,3.67,0,0,0,1.4-1.75,7.08,7.08,0,0,0,.47-2.74v-.81a8,8,0,0,0-.27-2.18,4.39,4.39,0,0,0-.79-1.59,3.26,3.26,0,0,0-1.28-1,4.37,4.37,0,0,0-1.75-.33h-3.5V774H857a7.32,7.32,0,0,1,2.86.53A6.42,6.42,0,0,1,862.1,776a6.68,6.68,0,0,1,1.46,2.34,8.67,8.67,0,0,1,.51,3v.79a8.66,8.66,0,0,1-.51,3,6.44,6.44,0,0,1-3.72,3.85A7.81,7.81,0,0,1,856.93,789.61Z"/><path class="cls-4" d="M872.58,776.34l-4.46,13.27H865L870.84,774h2Zm3.52,7.46v2.33h-8.39V783.8Zm.2,5.81-4.48-13.27-.26-2.37h2l5.88,15.64Z"/><path class="cls-4" d="M884,774v15.64h-3V774Zm1.72,15.64h-3.38l0-2.32h3.36a4,4,0,0,0,2.28-.61,3.73,3.73,0,0,0,1.4-1.75,7.27,7.27,0,0,0,.47-2.74v-.81a8,8,0,0,0-.27-2.18,4.39,4.39,0,0,0-.79-1.59,3.26,3.26,0,0,0-1.28-1,4.37,4.37,0,0,0-1.75-.33h-3.5V774h3.5a7.36,7.36,0,0,1,2.86.53,6.51,6.51,0,0,1,2.25,1.51,6.68,6.68,0,0,1,1.46,2.34,8.67,8.67,0,0,1,.51,3v.79a8.66,8.66,0,0,1-.51,3,6.44,6.44,0,0,1-3.72,3.85A7.81,7.81,0,0,1,885.72,789.61Z"/><circle class="cls-11" cx="197.03" cy="837.18" r="173.76" transform="translate(-534.27 384.53) rotate(-45)"/><circle class="cls-4" cx="157.93" cy="837.18" r="149.29" transform="translate(-545.72 356.88) rotate(-45)"/><path class="cls-2" d="M157.93,696.54c77.56,0,140.65,63.09,140.65,140.64S235.49,977.83,157.93,977.83,17.28,914.74,17.28,837.18s63.1-140.64,140.65-140.64m0-17.29A157.94,157.94,0,1,0,315.87,837.18,157.93,157.93,0,0,0,157.93,679.25Z"/><circle class="cls-6" cx="157.93" cy="837.18" r="117.75"/><path class="cls-7" d="M0,836.53c0,.22,0,.44,0,.65a157.94,157.94,0,1,0,315.87,0c0-.21,0-.43,0-.65Z"/><rect class="cls-8" x="182.86" y="1042.39" width="707.88" height="251.7"/><polygon class="cls-8" points="187.5 1326.81 187.5 1001.31 0 1164.06 187.5 1326.81"/><circle class="cls-12" cx="855.1" cy="1168.88" r="173.76"/><polygon class="cls-7" points="0 1164.06 890.68 1168.26 890.68 1294.12 187.43 1294.12 187.43 1326.84 0 1164.06"/><circle class="cls-4" cx="894.2" cy="1168.88" r="149.29" transform="translate(-564.62 974.65) rotate(-45)"/><path class="cls-8" d="M894.2,1028.23c77.56,0,140.65,63.1,140.65,140.65s-63.09,140.65-140.65,140.65-140.65-63.09-140.65-140.65,63.1-140.65,140.65-140.65m0-17.28a157.93,157.93,0,1,0,157.94,157.93A157.93,157.93,0,0,0,894.2,1011Z"/><circle class="cls-6" cx="894.2" cy="1168.88" r="117.75"/><path class="cls-10" d="M1052.12,1168.26c0,.22,0,.43,0,.65a157.94,157.94,0,0,1-315.87,0c0-.22,0-.43,0-.65Z"/><path class="cls-6" d="M417,1105.67v15.64h-2.95v-15.64Zm7.43,6.45v2.32H416.2v-2.32Zm2.19-6.45v15.64h-3v-15.64Z"/><path class="cls-6" d="M436,1108l-4.46,13.27h-3.12l5.84-15.64h2Zm3.52,7.45v2.34h-8.39v-2.34Zm.21,5.82L435.29,1108l-.27-2.37h2l5.87,15.64Z"/><path class="cls-6" d="M447.46,1105.67v15.64h-3v-15.64Zm7,13.32v2.32h-7.86V1119Z"/><path class="cls-6" d="M459.35,1105.67v15.64h-3v-15.64Zm7,13.32v2.32h-7.86V1119Z"/><path class="cls-6" d="M474.71,1108l-4.46,13.27h-3.12l5.84-15.64h2Zm3.52,7.45v2.34h-8.39v-2.34Zm.21,5.82L474,1108l-.27-2.37h2l5.88,15.64Z"/><path class="cls-6" d="M494.1,1107.39l-9.56,13.92h-2v-1.78l9.6-13.86h2Zm-1.05-1.72V1108H482.54v-2.33ZM494.3,1119v2.32h-11V1119Z"/><path class="cls-6" d="M508.41,1113.22v6.09a5.09,5.09,0,0,1-1.08,1,6.88,6.88,0,0,1-1.92.89,9.69,9.69,0,0,1-2.9.37,7.33,7.33,0,0,1-2.73-.5,5.7,5.7,0,0,1-2.12-1.47,6.49,6.49,0,0,1-1.38-2.36,9.77,9.77,0,0,1-.48-3.19v-1a10.37,10.37,0,0,1,.45-3.19,6.82,6.82,0,0,1,1.31-2.36,5.63,5.63,0,0,1,2.06-1.48,7,7,0,0,1,2.68-.5,7.29,7.29,0,0,1,3.27.65,4.85,4.85,0,0,1,2,1.8,6.59,6.59,0,0,1,.86,2.63h-2.88a4.15,4.15,0,0,0-.47-1.43,2.49,2.49,0,0,0-1-1,3.55,3.55,0,0,0-1.68-.35,3.25,3.25,0,0,0-1.53.34,3.06,3.06,0,0,0-1.12,1,4.77,4.77,0,0,0-.68,1.63,9.21,9.21,0,0,0-.23,2.21v1a8.84,8.84,0,0,0,.25,2.23,4.63,4.63,0,0,0,.75,1.63,3.15,3.15,0,0,0,1.21,1,3.84,3.84,0,0,0,1.65.34,6,6,0,0,0,1.39-.14,3.66,3.66,0,0,0,.89-.35,3,3,0,0,0,.52-.4v-2.93h-3.11v-2.16Z"/><path class="cls-6" d="M523.87,1113.09v.8a9.85,9.85,0,0,1-.48,3.19,6.83,6.83,0,0,1-1.34,2.4A5.83,5.83,0,0,1,520,1121a7,7,0,0,1-5.34,0,5.86,5.86,0,0,1-2.08-1.51,6.88,6.88,0,0,1-1.37-2.4,9.85,9.85,0,0,1-.48-3.19v-.8a9.85,9.85,0,0,1,.48-3.19,7,7,0,0,1,1.36-2.4,5.74,5.74,0,0,1,2.07-1.52,7,7,0,0,1,5.34,0,5.86,5.86,0,0,1,2.08,1.52,7,7,0,0,1,1.35,2.4A9.85,9.85,0,0,1,523.87,1113.09Zm-3,.8v-.82a9.35,9.35,0,0,0-.24-2.25,4.83,4.83,0,0,0-.69-1.64,3,3,0,0,0-1.14-1,3.44,3.44,0,0,0-1.53-.33,3.37,3.37,0,0,0-1.52.33,3.07,3.07,0,0,0-1.12,1,4.84,4.84,0,0,0-.7,1.64,9.31,9.31,0,0,0-.25,2.25v.82a9.43,9.43,0,0,0,.25,2.25,5,5,0,0,0,.7,1.65,3.13,3.13,0,0,0,1.14,1,3.24,3.24,0,0,0,1.52.35,3.29,3.29,0,0,0,1.53-.35,3,3,0,0,0,1.12-1,4.77,4.77,0,0,0,.69-1.65A9.46,9.46,0,0,0,520.88,1113.89Z"/><path class="cls-6" d="M534.56,1117.25a2.31,2.31,0,0,0-.14-.82,1.62,1.62,0,0,0-.48-.65,4.08,4.08,0,0,0-1-.58,15.26,15.26,0,0,0-1.62-.6,17.34,17.34,0,0,1-2-.77,8.12,8.12,0,0,1-1.66-1,4.35,4.35,0,0,1-1.11-1.32,3.65,3.65,0,0,1-.4-1.73,3.69,3.69,0,0,1,.42-1.76,4,4,0,0,1,1.17-1.37,5.61,5.61,0,0,1,1.8-.89,7.9,7.9,0,0,1,2.3-.31,6.71,6.71,0,0,1,3,.63,4.88,4.88,0,0,1,2,1.72,4.4,4.4,0,0,1,.7,2.44h-2.94a2.67,2.67,0,0,0-.31-1.29,2.18,2.18,0,0,0-.92-.88,3.44,3.44,0,0,0-1.56-.32,3.58,3.58,0,0,0-1.49.27,2,2,0,0,0-.9.73,1.93,1.93,0,0,0-.29,1,1.52,1.52,0,0,0,.2.77,2.4,2.4,0,0,0,.61.63,5.08,5.08,0,0,0,1,.55c.4.17.88.33,1.41.5a14.49,14.49,0,0,1,2.26.86,6.67,6.67,0,0,1,1.63,1.07,4,4,0,0,1,1,1.36,4.19,4.19,0,0,1,.33,1.7,3.92,3.92,0,0,1-.4,1.81,3.68,3.68,0,0,1-1.14,1.35,5.2,5.2,0,0,1-1.77.85,8.77,8.77,0,0,1-2.32.29,8.2,8.2,0,0,1-2.25-.31,6.58,6.58,0,0,1-2-.92,4.61,4.61,0,0,1-1.44-1.57,4.41,4.41,0,0,1-.54-2.23h3a3,3,0,0,0,.24,1.27,2.1,2.1,0,0,0,.69.84,2.85,2.85,0,0,0,1,.48,5.39,5.39,0,0,0,1.3.15,3.77,3.77,0,0,0,1.49-.25,2,2,0,0,0,.88-.7A1.83,1.83,0,0,0,534.56,1117.25Z"/><path class="cls-6" d="M545.27,1105.67H551a7.83,7.83,0,0,1,3.06.53,4.29,4.29,0,0,1,2,1.59,4.71,4.71,0,0,1,.68,2.59,4.79,4.79,0,0,1-.43,2.11A4.15,4.15,0,0,1,555,1114a6.16,6.16,0,0,1-1.84,1l-.92.47h-5l0-2.33H551a3.17,3.17,0,0,0,1.52-.33,2.09,2.09,0,0,0,.9-.89,2.63,2.63,0,0,0,.31-1.3,2.93,2.93,0,0,0-.3-1.36,2.09,2.09,0,0,0-.91-.88A3.4,3.4,0,0,0,551,1108h-2.73v13.31h-3Zm8.83,15.64-3.62-7h3.12l3.66,6.87v.15Z"/><path class="cls-6" d="M562.2,1105.67v15.64h-3v-15.64Zm7.38,0V1108h-8.29v-2.33Zm-1.06,6.45v2.27h-7.23v-2.27Zm1.09,6.87v2.32h-8.32V1119Z"/><path class="cls-6" d="M574.6,1105.67v15.64h-3v-15.64Zm7,13.32v2.32h-7.86V1119Z"/><path class="cls-6" d="M586.49,1105.67v15.64h-3v-15.64Zm7.38,0V1108h-8.28v-2.33Zm-1,6.45v2.27h-7.23v-2.27Zm1.09,6.87v2.32h-8.32V1119Z"/><path class="cls-6" d="M597.85,1105.67l3.88,12.57.56,3.07h-2.21l-5.5-15.64Zm3.6,12.57,3.9-12.57h3.27l-5.52,15.64h-2.18Z"/><path class="cls-6" d="M615.65,1108l-4.46,13.27h-3.13l5.85-15.64h2Zm3.52,7.45v2.34h-8.39v-2.34Zm.21,5.82L614.9,1108l-.27-2.37h2l5.87,15.64Z"/><path class="cls-6" d="M636.68,1105.67v15.64h-3l-6.65-10.85v10.85h-3v-15.64h3l6.67,10.86v-10.86Z"/><path class="cls-6" d="M650.94,1105.67V1108h-12.6v-2.33Zm-4.86,0v15.64h-2.94v-15.64Z"/><path class="cls-6" d="M655.85,1105.67v15.64h-3v-15.64Zm7.38,0V1108h-8.29v-2.33Zm-1.06,6.45v2.27h-7.23v-2.27Zm1.09,6.87v2.32h-8.32V1119Z"/><path class="cls-6" d="M673.48,1117.25a2.31,2.31,0,0,0-.13-.82,1.62,1.62,0,0,0-.48-.65,4.29,4.29,0,0,0-1-.58,15.26,15.26,0,0,0-1.62-.6,17.34,17.34,0,0,1-2-.77,8.12,8.12,0,0,1-1.66-1,4.21,4.21,0,0,1-1.11-1.32,3.65,3.65,0,0,1-.4-1.73,3.69,3.69,0,0,1,.42-1.76,3.92,3.92,0,0,1,1.17-1.37,5.61,5.61,0,0,1,1.8-.89,7.9,7.9,0,0,1,2.3-.31,6.71,6.71,0,0,1,3,.63,5,5,0,0,1,2,1.72,4.4,4.4,0,0,1,.7,2.44h-2.95a2.67,2.67,0,0,0-.3-1.29,2.2,2.2,0,0,0-.93-.88,3.36,3.36,0,0,0-1.55-.32,3.66,3.66,0,0,0-1.5.27,2,2,0,0,0-.89.73,1.93,1.93,0,0,0-.29,1,1.43,1.43,0,0,0,.2.77,2.4,2.4,0,0,0,.61.63,5.08,5.08,0,0,0,1,.55c.4.17.87.33,1.41.5a14.89,14.89,0,0,1,2.26.86,6.42,6.42,0,0,1,1.62,1.07,3.9,3.9,0,0,1,1,1.36,4.19,4.19,0,0,1,.33,1.7,3.92,3.92,0,0,1-.4,1.81,3.68,3.68,0,0,1-1.14,1.35,5.17,5.17,0,0,1-1.78.85,8.69,8.69,0,0,1-2.31.29,8.2,8.2,0,0,1-2.25-.31,6.58,6.58,0,0,1-2-.92,4.43,4.43,0,0,1-2-3.8h3a3,3,0,0,0,.25,1.27,2.16,2.16,0,0,0,.68.84,3,3,0,0,0,1,.48,5.33,5.33,0,0,0,1.3.15,3.77,3.77,0,0,0,1.49-.25,2,2,0,0,0,.88-.7A1.82,1.82,0,0,0,673.48,1117.25Z"/><rect class="cls-2" x="161.39" y="1374.12" width="707.88" height="251.7"/><polygon class="cls-2" points="864.64 1658.54 864.64 1333.04 1052.14 1495.79 864.64 1658.54"/><polygon class="cls-3" points="1052.14 1495.79 161.39 1499.95 161.39 1625.81 864.64 1625.81 864.64 1658.54 1052.14 1495.79"/><path class="cls-4" d="M426.7,1439.76,422.24,1453h-3.13l5.85-15.64h2Zm3.52,7.46v2.33h-8.39v-2.33Zm.2,5.81L426,1439.76l-.27-2.37h2l5.87,15.64Z"/><path class="cls-4" d="M444.2,1447.89h2.95a6,6,0,0,1-.87,2.77,5.2,5.2,0,0,1-2.09,1.9,7.07,7.07,0,0,1-3.26.69,6.63,6.63,0,0,1-2.65-.52,5.71,5.71,0,0,1-2-1.5,6.76,6.76,0,0,1-1.27-2.34,10.14,10.14,0,0,1-.44-3.08v-1.19a9.83,9.83,0,0,1,.45-3.08,6.61,6.61,0,0,1,1.3-2.35,5.69,5.69,0,0,1,2-1.5,6.46,6.46,0,0,1,2.65-.52,6.81,6.81,0,0,1,3.24.7,5.16,5.16,0,0,1,2,1.93,6.54,6.54,0,0,1,.88,2.81h-3a4.59,4.59,0,0,0-.43-1.67,2.28,2.28,0,0,0-1-1,3.78,3.78,0,0,0-1.78-.36,3.38,3.38,0,0,0-1.5.32,2.77,2.77,0,0,0-1.08,1,4.61,4.61,0,0,0-.65,1.59,10.33,10.33,0,0,0-.21,2.2v1.21a10.64,10.64,0,0,0,.19,2.14,4.94,4.94,0,0,0,.6,1.6,2.79,2.79,0,0,0,1.05,1,3.24,3.24,0,0,0,1.54.34,4,4,0,0,0,1.77-.34,2.41,2.41,0,0,0,1-1A4.41,4.41,0,0,0,444.2,1447.89Z"/><path class="cls-4" d="M458.58,1447.89h2.95a5.91,5.91,0,0,1-.87,2.77,5.2,5.2,0,0,1-2.09,1.9,7.07,7.07,0,0,1-3.26.69,6.54,6.54,0,0,1-2.64-.52,5.53,5.53,0,0,1-2-1.5,6.78,6.78,0,0,1-1.28-2.34,10.14,10.14,0,0,1-.44-3.08v-1.19a9.83,9.83,0,0,1,.45-3.08,6.94,6.94,0,0,1,1.3-2.35,5.69,5.69,0,0,1,2-1.5,6.51,6.51,0,0,1,2.66-.52,6.79,6.79,0,0,1,3.23.7,5.09,5.09,0,0,1,2.05,1.93,6.69,6.69,0,0,1,.89,2.81h-3a4.8,4.8,0,0,0-.42-1.67,2.39,2.39,0,0,0-1-1,3.78,3.78,0,0,0-1.78-.36,3.39,3.39,0,0,0-1.51.32,2.92,2.92,0,0,0-1.08,1,4.81,4.81,0,0,0-.65,1.59,10.33,10.33,0,0,0-.21,2.2v1.21a10.64,10.64,0,0,0,.19,2.14,4.94,4.94,0,0,0,.6,1.6,2.82,2.82,0,0,0,1.06,1,3.2,3.2,0,0,0,1.53.34,3.9,3.9,0,0,0,1.77-.34,2.36,2.36,0,0,0,1-1A4.23,4.23,0,0,0,458.58,1447.89Z"/><path class="cls-4" d="M467,1437.39V1453h-3v-15.64Z"/><path class="cls-4" d="M482.8,1444.81v.81a9.84,9.84,0,0,1-.47,3.18,6.79,6.79,0,0,1-1.34,2.41,5.9,5.9,0,0,1-2.08,1.51,7,7,0,0,1-5.33,0,6.12,6.12,0,0,1-2.09-1.51,6.82,6.82,0,0,1-1.36-2.41,9.56,9.56,0,0,1-.49-3.18v-.81a9.63,9.63,0,0,1,.49-3.19,7,7,0,0,1,1.35-2.4,5.8,5.8,0,0,1,2.08-1.52,7.09,7.09,0,0,1,5.33,0,5.8,5.8,0,0,1,2.08,1.52,7,7,0,0,1,1.36,2.4A10.19,10.19,0,0,1,482.8,1444.81Zm-3,.81v-.83a9.46,9.46,0,0,0-.24-2.25,4.92,4.92,0,0,0-.7-1.64,3,3,0,0,0-1.14-1,3.3,3.3,0,0,0-1.52-.34,3.21,3.21,0,0,0-1.52.34,3,3,0,0,0-1.12,1,4.93,4.93,0,0,0-.71,1.64,9.46,9.46,0,0,0-.24,2.25v.83a9.44,9.44,0,0,0,.24,2.24,4.81,4.81,0,0,0,.71,1.65,3.08,3.08,0,0,0,1.14,1,3.24,3.24,0,0,0,1.52.34,3.31,3.31,0,0,0,1.53-.34,3.1,3.1,0,0,0,1.12-1,5,5,0,0,0,.69-1.65A9.44,9.44,0,0,0,479.82,1445.62Z"/><path class="cls-4" d="M497.88,1437.39V1453h-3l-6.65-10.85V1453h-2.95v-15.64h2.95l6.67,10.86v-10.86Z"/><path class="cls-4" d="M503.83,1437.39V1453h-3v-15.64Zm7.38,0v2.33h-8.29v-2.33Zm-1.06,6.46v2.26h-7.23v-2.26Zm1.09,6.86V1453h-8.32v-2.32Z"/><path class="cls-4" d="M521.47,1449a2.29,2.29,0,0,0-.14-.81,1.55,1.55,0,0,0-.48-.65,4,4,0,0,0-1-.58,15.26,15.26,0,0,0-1.62-.6,17.34,17.34,0,0,1-2-.78,7.68,7.68,0,0,1-1.66-1,4.35,4.35,0,0,1-1.11-1.32,3.94,3.94,0,0,1,0-3.5,4,4,0,0,1,1.17-1.37,5.81,5.81,0,0,1,1.8-.88,7.88,7.88,0,0,1,2.29-.31,6.76,6.76,0,0,1,3,.63,4.88,4.88,0,0,1,2,1.72,4.35,4.35,0,0,1,.7,2.44h-2.94a2.67,2.67,0,0,0-.31-1.29,2.14,2.14,0,0,0-.93-.88,3.26,3.26,0,0,0-1.55-.33,3.66,3.66,0,0,0-1.5.27,2.11,2.11,0,0,0-.89.73,1.88,1.88,0,0,0-.29,1,1.39,1.39,0,0,0,.2.76,2.28,2.28,0,0,0,.61.64,5.08,5.08,0,0,0,1,.54,13.23,13.23,0,0,0,1.41.5,16,16,0,0,1,2.26.86,6.72,6.72,0,0,1,1.62,1.08,4,4,0,0,1,1,1.35,4.21,4.21,0,0,1,.33,1.71,3.91,3.91,0,0,1-.4,1.8,3.71,3.71,0,0,1-1.14,1.36,5.39,5.39,0,0,1-1.77.85,8.82,8.82,0,0,1-2.32.29,8.6,8.6,0,0,1-2.25-.31,6.58,6.58,0,0,1-2-.92,4.6,4.6,0,0,1-1.44-1.57,4.46,4.46,0,0,1-.54-2.23h3a2.86,2.86,0,0,0,.25,1.26,2.2,2.2,0,0,0,.68.85,3,3,0,0,0,1,.48,5.33,5.33,0,0,0,1.3.15,4,4,0,0,0,1.49-.25,2,2,0,0,0,.88-.71A1.81,1.81,0,0,0,521.47,1449Z"/><path class="cls-4" d="M535.13,1437.39V1453h-3v-15.64Zm1.72,15.64h-3.38l0-2.32h3.35a4,4,0,0,0,2.28-.61,3.62,3.62,0,0,0,1.4-1.75,7,7,0,0,0,.47-2.74v-.81a8.41,8.41,0,0,0-.26-2.18A4.56,4.56,0,0,0,540,1441a3.46,3.46,0,0,0-1.29-1,4.37,4.37,0,0,0-1.75-.33h-3.5v-2.33h3.5a7.51,7.51,0,0,1,2.86.53,6.33,6.33,0,0,1,2.25,1.51,6.68,6.68,0,0,1,1.46,2.34,8.67,8.67,0,0,1,.51,3v.79a8.62,8.62,0,0,1-.51,3,6.49,6.49,0,0,1-3.72,3.86A7.81,7.81,0,0,1,536.85,1453Z"/><path class="cls-4" d="M549.46,1437.39V1453h-3v-15.64Zm7.38,0v2.33h-8.28v-2.33Zm-1.05,6.46v2.26h-7.23v-2.26Zm1.08,6.86V1453h-8.31v-2.32Z"/><path class="cls-4" d="M564.38,1437.39h2.5l.45,10.82V1453h-3Zm1.29,0h2.55l4.28,11.77,4.27-11.77h2.56L573.52,1453h-2Zm12.44,0h2.51V1453h-3v-4.82Z"/><path class="cls-4" d="M586.58,1437.39V1453h-3v-15.64Zm7.38,0v2.33h-8.28v-2.33Zm-1.05,6.46v2.26h-7.23v-2.26Zm1.09,6.86V1453h-8.32v-2.32Z"/><path class="cls-4" d="M602.42,1448.28v-10.89h3v10.89a5,5,0,0,1-.67,2.67,4.62,4.62,0,0,1-1.85,1.71,5.82,5.82,0,0,1-2.64.59,6.69,6.69,0,0,1-2.69-.51,4,4,0,0,1-1.83-1.57,4.94,4.94,0,0,1-.66-2.67h3a3.18,3.18,0,0,0,.27,1.42,1.69,1.69,0,0,0,.77.77,2.67,2.67,0,0,0,1.18.24,2.2,2.2,0,0,0,1.15-.31,2,2,0,0,0,.78-.9A3.42,3.42,0,0,0,602.42,1448.28Z"/><path class="cls-4" d="M621,1444.81v.81a10.12,10.12,0,0,1-.47,3.18,7,7,0,0,1-1.35,2.41,6,6,0,0,1-2.07,1.51,7,7,0,0,1-5.33,0,5.94,5.94,0,0,1-2.09-1.51,7,7,0,0,1-1.37-2.41,9.83,9.83,0,0,1-.48-3.18v-.81a9.9,9.9,0,0,1,.48-3.19,7.19,7.19,0,0,1,1.36-2.4,5.8,5.8,0,0,1,2.08-1.52,6.56,6.56,0,0,1,2.65-.52,6.64,6.64,0,0,1,2.68.52,6,6,0,0,1,2.08,1.52,7,7,0,0,1,1.35,2.4A9.9,9.9,0,0,1,621,1444.81Zm-3,.81v-.83a10.05,10.05,0,0,0-.23-2.25,4.92,4.92,0,0,0-.7-1.64,3,3,0,0,0-1.14-1,3.31,3.31,0,0,0-1.53-.34,3.24,3.24,0,0,0-1.52.34,3,3,0,0,0-1.12,1,4.92,4.92,0,0,0-.7,1.64,9.46,9.46,0,0,0-.24,2.25v.83a9.44,9.44,0,0,0,.24,2.24,4.81,4.81,0,0,0,.71,1.65,3.13,3.13,0,0,0,1.13,1,3.59,3.59,0,0,0,3,0,3,3,0,0,0,1.12-1,4.81,4.81,0,0,0,.7-1.65A10,10,0,0,0,618,1445.62Z"/><path class="cls-4" d="M623.46,1437.39h5.68a7.91,7.91,0,0,1,3.07.54,4.26,4.26,0,0,1,2,1.59,4.61,4.61,0,0,1,.69,2.59,4.71,4.71,0,0,1-.43,2.1,4.21,4.21,0,0,1-1.21,1.5,6.08,6.08,0,0,1-1.83.94l-.92.47h-5l0-2.33h3.75a3.22,3.22,0,0,0,1.51-.32,2.17,2.17,0,0,0,.91-.89,2.74,2.74,0,0,0,.3-1.3,2.9,2.9,0,0,0-.3-1.36,2.06,2.06,0,0,0-.91-.89,3.5,3.5,0,0,0-1.55-.31h-2.72V1453h-3Zm8.83,15.64-3.62-7h3.13l3.66,6.86v.15Z"/><path class="cls-4" d="M643.66,1439.76,639.2,1453h-3.13l5.85-15.64h2Zm3.52,7.46v2.33h-8.39v-2.33Zm.2,5.81-4.48-13.27-.26-2.37h2l5.88,15.64Z"/><path class="cls-4" d="M663.61,1447.33h-4V1445h4a3.39,3.39,0,0,0,1.6-.33,2.08,2.08,0,0,0,.91-.9,3,3,0,0,0,.29-1.32,3.16,3.16,0,0,0-.29-1.34,2.33,2.33,0,0,0-.91-1,3,3,0,0,0-1.6-.39h-3.07V1453h-2.95v-15.64h6a7,7,0,0,1,3.12.65,4.6,4.6,0,0,1,2,1.8,4.92,4.92,0,0,1,.68,2.6,4.79,4.79,0,0,1-.68,2.61,4.43,4.43,0,0,1-2,1.69A7.58,7.58,0,0,1,663.61,1447.33Z"/><path class="cls-4" d="M671.71,1437.39h5.68a7.83,7.83,0,0,1,3.06.54,4.21,4.21,0,0,1,2,1.59,4.61,4.61,0,0,1,.69,2.59,4.71,4.71,0,0,1-.43,2.1,4.1,4.1,0,0,1-1.21,1.5,6.08,6.08,0,0,1-1.83.94l-.92.47h-5l0-2.33h3.75a3.22,3.22,0,0,0,1.51-.32,2.06,2.06,0,0,0,.91-.89,2.63,2.63,0,0,0,.31-1.3,2.9,2.9,0,0,0-.3-1.36,2.09,2.09,0,0,0-.92-.89,3.46,3.46,0,0,0-1.54-.31h-2.73V1453h-2.95Zm8.83,15.64-3.63-7H680l3.66,6.86v.15Z"/><path class="cls-4" d="M698.35,1444.81v.81a9.83,9.83,0,0,1-.48,3.18,6.79,6.79,0,0,1-1.34,2.41,6,6,0,0,1-2.07,1.51,7,7,0,0,1-5.34,0,6.12,6.12,0,0,1-2.09-1.51,7,7,0,0,1-1.36-2.41,9.83,9.83,0,0,1-.48-3.18v-.81a9.9,9.9,0,0,1,.48-3.19,7,7,0,0,1,1.35-2.4,5.89,5.89,0,0,1,2.08-1.52,7.11,7.11,0,0,1,5.34,0,5.86,5.86,0,0,1,2.07,1.52,6.87,6.87,0,0,1,1.36,2.4A9.9,9.9,0,0,1,698.35,1444.81Zm-3,.81v-.83a9.46,9.46,0,0,0-.24-2.25,4.73,4.73,0,0,0-.7-1.64,2.92,2.92,0,0,0-1.13-1,3.34,3.34,0,0,0-1.53-.34,3.24,3.24,0,0,0-1.52.34,3,3,0,0,0-1.12,1,5.14,5.14,0,0,0-.71,1.64,9.46,9.46,0,0,0-.24,2.25v.83a9.44,9.44,0,0,0,.24,2.24,5,5,0,0,0,.71,1.65,3.08,3.08,0,0,0,1.14,1,3.24,3.24,0,0,0,1.52.34,3.31,3.31,0,0,0,1.53-.34,3,3,0,0,0,1.12-1,4.8,4.8,0,0,0,.69-1.65A9.44,9.44,0,0,0,695.36,1445.62Z"/><path class="cls-4" d="M706.86,1447.33h-4V1445h4a3.41,3.41,0,0,0,1.61-.33,2.14,2.14,0,0,0,.91-.9,3,3,0,0,0,.29-1.32,3.16,3.16,0,0,0-.29-1.34,2.39,2.39,0,0,0-.91-1,3,3,0,0,0-1.61-.39H703.8V1453h-2.95v-15.64h6a6.92,6.92,0,0,1,3.12.65,4.57,4.57,0,0,1,2,1.8,4.92,4.92,0,0,1,.68,2.6,4.79,4.79,0,0,1-.68,2.61,4.41,4.41,0,0,1-2,1.69A7.52,7.52,0,0,1,706.86,1447.33Z"/><path class="cls-4" d="M723.66,1437.39h3v10.39a5.56,5.56,0,0,1-.77,3,4.9,4.9,0,0,1-2.11,1.84,7.16,7.16,0,0,1-3,.62,7.24,7.24,0,0,1-3.06-.62,4.79,4.79,0,0,1-2.11-1.84,5.65,5.65,0,0,1-.76-3v-10.39h3v10.39a3.9,3.9,0,0,0,.37,1.79,2.31,2.31,0,0,0,1,1,3.86,3.86,0,0,0,3.17,0,2.27,2.27,0,0,0,1-1,3.91,3.91,0,0,0,.35-1.79Z"/><path class="cls-4" d="M732.37,1437.39V1453h-3v-15.64Zm7.38,0v2.33h-8.29v-2.33Zm-1.06,6.46v2.26h-7.23v-2.26Zm1.09,6.86V1453h-8.32v-2.32Z"/><path class="cls-4" d="M750,1449a2.3,2.3,0,0,0-.13-.81,1.55,1.55,0,0,0-.48-.65,4,4,0,0,0-1-.58,15.26,15.26,0,0,0-1.62-.6,17.34,17.34,0,0,1-2-.78,7.68,7.68,0,0,1-1.66-1,4.21,4.21,0,0,1-1.11-1.32,3.94,3.94,0,0,1,0-3.5,4,4,0,0,1,1.17-1.37,5.81,5.81,0,0,1,1.8-.88,7.9,7.9,0,0,1,2.3-.31,6.71,6.71,0,0,1,3,.63,4.88,4.88,0,0,1,2,1.72,4.35,4.35,0,0,1,.7,2.44h-3a2.67,2.67,0,0,0-.3-1.29,2.14,2.14,0,0,0-.93-.88,3.24,3.24,0,0,0-1.55-.33,3.66,3.66,0,0,0-1.5.27,2.11,2.11,0,0,0-.89.73,1.88,1.88,0,0,0-.29,1,1.39,1.39,0,0,0,.2.76,2.28,2.28,0,0,0,.61.64,5.08,5.08,0,0,0,1,.54,13.23,13.23,0,0,0,1.41.5,16,16,0,0,1,2.26.86,6.72,6.72,0,0,1,1.62,1.08,4,4,0,0,1,1,1.35A4.21,4.21,0,0,1,753,1449a3.91,3.91,0,0,1-.4,1.8,3.71,3.71,0,0,1-1.14,1.36,5.39,5.39,0,0,1-1.77.85,8.82,8.82,0,0,1-2.32.29,8.6,8.6,0,0,1-2.25-.31,6.58,6.58,0,0,1-2-.92,4.6,4.6,0,0,1-1.44-1.57,4.46,4.46,0,0,1-.54-2.23h3a2.86,2.86,0,0,0,.25,1.26,2.2,2.2,0,0,0,.68.85,3,3,0,0,0,1,.48,5.39,5.39,0,0,0,1.3.15,4,4,0,0,0,1.49-.25,2,2,0,0,0,.88-.71A1.8,1.8,0,0,0,750,1449Z"/><path class="cls-4" d="M766.82,1437.39v2.33h-12.6v-2.33Zm-4.86,0V1453H759v-15.64Z"/><path class="cls-4" d="M774.14,1439.76,769.68,1453h-3.12l5.84-15.64h2Zm3.53,7.46v2.33h-8.39v-2.33Zm.2,5.81-4.48-13.27-.27-2.37h2L781,1453Z"/><path class="cls-4" d="M790.79,1449a2.3,2.3,0,0,0-.13-.81,1.55,1.55,0,0,0-.48-.65,4,4,0,0,0-1-.58,15.26,15.26,0,0,0-1.62-.6,17.34,17.34,0,0,1-2-.78,7.68,7.68,0,0,1-1.66-1,4.08,4.08,0,0,1-1.11-1.32,3.59,3.59,0,0,1-.4-1.73,3.85,3.85,0,0,1,.41-1.77,4.15,4.15,0,0,1,1.18-1.37,5.81,5.81,0,0,1,1.8-.88,7.88,7.88,0,0,1,2.29-.31,6.76,6.76,0,0,1,3,.63,4.88,4.88,0,0,1,2,1.72,4.43,4.43,0,0,1,.7,2.44h-3a2.67,2.67,0,0,0-.3-1.29,2.2,2.2,0,0,0-.93-.88,3.26,3.26,0,0,0-1.55-.33,3.66,3.66,0,0,0-1.5.27,2,2,0,0,0-.89.73,1.89,1.89,0,0,0-.3,1,1.4,1.4,0,0,0,.21.76,2.15,2.15,0,0,0,.61.64,4.82,4.82,0,0,0,1,.54,13.23,13.23,0,0,0,1.41.5,16,16,0,0,1,2.26.86,6.72,6.72,0,0,1,1.62,1.08,4.1,4.1,0,0,1,1,1.35,4.21,4.21,0,0,1,.33,1.71,3.91,3.91,0,0,1-.4,1.8,3.81,3.81,0,0,1-1.14,1.36,5.45,5.45,0,0,1-1.78.85,8.69,8.69,0,0,1-2.31.29,8.6,8.6,0,0,1-2.25-.31,6.75,6.75,0,0,1-2-.92,4.8,4.8,0,0,1-1.44-1.57,4.57,4.57,0,0,1-.53-2.23h3a3,3,0,0,0,.24,1.26,2.22,2.22,0,0,0,.69.85,3,3,0,0,0,1.05.48,5.33,5.33,0,0,0,1.3.15,4,4,0,0,0,1.49-.25,2,2,0,0,0,.88-.71A1.88,1.88,0,0,0,790.79,1449Z"/><circle class="cls-13" cx="197.03" cy="1500.61" r="173.76" transform="translate(-1003.38 578.84) rotate(-45)"/><circle class="cls-4" cx="157.93" cy="1500.61" r="149.29" transform="translate(-1014.83 551.19) rotate(-45)"/><path class="cls-2" d="M157.93,1360c77.56,0,140.65,63.09,140.65,140.65s-63.09,140.65-140.65,140.65-140.65-63.1-140.65-140.65S80.38,1360,157.93,1360m0-17.29a157.94,157.94,0,1,0,157.94,157.94,157.94,157.94,0,0,0-157.94-157.94Z"/><circle class="cls-6" cx="157.93" cy="1500.61" r="117.75"/><path class="cls-7" d="M0,1500c0,.22,0,.44,0,.66a157.94,157.94,0,0,0,315.87,0c0-.22,0-.44,0-.66Z"/><rect class="cls-8" x="182.86" y="1705.81" width="707.88" height="251.7"/><polygon class="cls-8" points="187.5 1990.24 187.5 1664.73 0 1827.48 187.5 1990.24"/><circle class="cls-14" cx="855.1" cy="1832.3" r="173.76"/><polygon class="cls-7" points="0 1827.48 890.68 1831.68 890.68 1957.54 187.43 1957.54 187.43 1990.27 0 1827.48"/><circle class="cls-4" cx="894.2" cy="1832.3" r="149.29" transform="translate(-1033.73 1168.97) rotate(-45)"/><path class="cls-8" d="M894.2,1691.65c77.56,0,140.65,63.1,140.65,140.65S971.76,1973,894.2,1973s-140.65-63.09-140.65-140.65,63.1-140.65,140.65-140.65m0-17.28a157.94,157.94,0,1,0,157.94,157.93A157.93,157.93,0,0,0,894.2,1674.37Z"/><circle class="cls-6" cx="894.2" cy="1832.3" r="117.75"/><path class="cls-10" d="M1052.12,1831.68c0,.22,0,.43,0,.65a157.94,157.94,0,1,1-315.87,0c0-.22,0-.43,0-.65Z"/><path class="cls-6" d="M510.15,1771.46l-4.46,13.27h-3.12l5.84-15.64h2Zm3.52,7.46v2.33h-8.39v-2.33Zm.21,5.81-4.48-13.27-.27-2.37h2l5.87,15.64Z"/><path class="cls-6" d="M531.18,1769.09v15.64h-3l-6.65-10.85v10.85h-3v-15.64h3l6.67,10.86v-10.86Z"/><path class="cls-6" d="M537.13,1769.09v15.64h-3v-15.64Zm7.38,0v2.33h-8.28v-2.33Zm-1,6.45v2.27h-7.23v-2.27Zm1.09,6.87v2.32h-8.32v-2.32Z"/><path class="cls-6" d="M548.94,1769.09l3.13,5.57,3.13-5.57h3.4l-4.64,7.75,4.76,7.89h-3.43l-3.22-5.68-3.22,5.68h-3.43l4.76-7.89-4.65-7.75Z"/><path class="cls-6" d="M572.92,1776.51v.81a9.83,9.83,0,0,1-.48,3.18,6.83,6.83,0,0,1-1.34,2.4,5.86,5.86,0,0,1-2.07,1.52,7.11,7.11,0,0,1-5.34,0,6,6,0,0,1-2.09-1.52,7,7,0,0,1-1.36-2.4,9.83,9.83,0,0,1-.48-3.18v-.81a9.85,9.85,0,0,1,.48-3.19,7,7,0,0,1,1.35-2.4,5.89,5.89,0,0,1,2.08-1.52,7,7,0,0,1,5.34,0,5.86,5.86,0,0,1,2.07,1.52,6.87,6.87,0,0,1,1.36,2.4A9.85,9.85,0,0,1,572.92,1776.51Zm-3,.81v-.83a9.46,9.46,0,0,0-.24-2.25,4.83,4.83,0,0,0-.69-1.64,3.14,3.14,0,0,0-1.14-1,3.44,3.44,0,0,0-1.53-.33,3.37,3.37,0,0,0-1.52.33,3.16,3.16,0,0,0-1.12,1,5,5,0,0,0-.71,1.64,9.46,9.46,0,0,0-.24,2.25v.83a9.44,9.44,0,0,0,.24,2.24,5.2,5.2,0,0,0,.71,1.65,3,3,0,0,0,1.14,1,3.24,3.24,0,0,0,1.52.35,3.29,3.29,0,0,0,1.53-.35,2.91,2.91,0,0,0,1.12-1,5,5,0,0,0,.69-1.65A9.44,9.44,0,0,0,569.93,1777.32Z"/><path class="cls-6" d="M583.6,1780.67a2.3,2.3,0,0,0-.13-.81,1.65,1.65,0,0,0-.48-.66,4.29,4.29,0,0,0-1-.58,15.26,15.26,0,0,0-1.62-.6,15.73,15.73,0,0,1-2-.77,7.7,7.7,0,0,1-1.66-1,4.29,4.29,0,0,1-1.11-1.31,3.6,3.6,0,0,1-.4-1.74,3.72,3.72,0,0,1,.42-1.76,3.92,3.92,0,0,1,1.17-1.37,5.83,5.83,0,0,1,1.8-.89,8.25,8.25,0,0,1,2.3-.31,6.58,6.58,0,0,1,3,.64,4.85,4.85,0,0,1,2,1.71,4.48,4.48,0,0,1,.7,2.44H583.6a2.73,2.73,0,0,0-.3-1.29,2.24,2.24,0,0,0-.92-.88,3.44,3.44,0,0,0-1.56-.32,3.66,3.66,0,0,0-1.5.27,2,2,0,0,0-.89.73,1.84,1.84,0,0,0-.29,1,1.52,1.52,0,0,0,.2.77,2.26,2.26,0,0,0,.61.63,4.81,4.81,0,0,0,1,.55,13.23,13.23,0,0,0,1.41.5,14.89,14.89,0,0,1,2.26.86,6.7,6.7,0,0,1,1.62,1.07,4.09,4.09,0,0,1,1,1.36,4.21,4.21,0,0,1,.33,1.71,3.91,3.91,0,0,1-.4,1.8,3.68,3.68,0,0,1-1.14,1.35,5,5,0,0,1-1.77.85,8.42,8.42,0,0,1-2.32.29,8.59,8.59,0,0,1-2.25-.3,6.85,6.85,0,0,1-2-.93,4.43,4.43,0,0,1-2-3.79h3a2.86,2.86,0,0,0,.25,1.26,2.27,2.27,0,0,0,.68.85,3.15,3.15,0,0,0,1,.47,5.33,5.33,0,0,0,1.3.15,3.77,3.77,0,0,0,1.49-.25,2,2,0,0,0,.88-.7A1.82,1.82,0,0,0,583.6,1780.67Z"/></g></g></g></svg>