<svg id="Capa_1" data-name="Capa 1" xmlns="http://www.w3.org/2000/svg" viewBox="0 0 82.54 59.26"><defs><style>.cls-1{fill:#c6875e;}</style></defs><path class="cls-1" d="M37.9,35.85C31,37.09,25.32,35.37,21.24,30a13.29,13.29,0,0,1,.33-16.51,16,16,0,0,1,17-5.09,14.42,14.42,0,0,1,10.6,13.39,14,14,0,0,1-1.31,6.05c-.18.39-.88.94-.33,1.22s1.46.8,2.35-.1a8.38,8.38,0,0,1,5.86-2.39,9.06,9.06,0,0,1,7.35,2.87,2.26,2.26,0,0,0,2.14.8A7.14,7.14,0,0,1,73.15,36a6.77,6.77,0,0,1-5.56,7.56,37,37,0,0,1-7.52.15,1,1,0,0,1-1-1.15c0-.75.59-1.05,1.32-1.06,1.62,0,3.24,0,4.86,0a7.54,7.54,0,0,0,2.17-.2,4.45,4.45,0,0,0,3.18-5.59,4.81,4.81,0,0,0-6.06-3A1.88,1.88,0,0,1,62,31.79a7,7,0,0,0-11-.56,1.94,1.94,0,0,1-2.76.56,5.42,5.42,0,0,0-6,.78A4.82,4.82,0,0,0,40.67,38a5.33,5.33,0,0,0,4.83,3.41c1.49.08,3,0,4.5,0,.84,0,1.61.17,1.63,1.12s-.72,1.16-1.58,1.16c-1.46,0-2.92,0-4.38,0-4.38-.16-7.57-3.18-7.74-7.26C37.92,36.3,37.91,36.11,37.9,35.85Zm8.84-13.62c0-7.47-6.62-13-14.48-12.08-5.16.59-8.76,3.33-10.49,7.86s-.71,9,3.08,12.49S33,34.73,38,33.39a1.92,1.92,0,0,0,1.16-.9,6.15,6.15,0,0,1,3.53-2.82,4.47,4.47,0,0,0,3-2.92A10.25,10.25,0,0,0,46.74,22.23Z"/><path class="cls-1" d="M69.1,53.85a1.29,1.29,0,0,1-.54,1l-3.51,3.26c-.57.54-1.22.8-1.9.2s-.47-1.21.13-1.76c1.22-1.14,2.44-2.29,3.67-3.42a1.31,1.31,0,0,1,1.55-.27A1,1,0,0,1,69.1,53.85Z"/><path class="cls-1" d="M52.11,47.29a1.27,1.27,0,0,1-.52,1l-3.76,3.51c-.59.54-1.25.77-1.9.17s-.44-1.22.16-1.77l3.85-3.58a1.28,1.28,0,0,1,1.53-.31A1,1,0,0,1,52.11,47.29Z"/><path class="cls-1" d="M64.64,47.23a1.36,1.36,0,0,1-.51,1L60.28,51.8a1.23,1.23,0,0,1-1.89.12c-.57-.57-.41-1.18.15-1.7l3.93-3.66a1.27,1.27,0,0,1,1.44-.3A1.2,1.2,0,0,1,64.64,47.23Z"/><path class="cls-1" d="M55,53.93c0,.27-.23.56-.52.83l-3.59,3.35c-.59.55-1.26.76-1.9.14s-.39-1.23.2-1.77l3.59-3.35a1.35,1.35,0,0,1,1.53-.33A1.12,1.12,0,0,1,55,53.93Z"/><path class="cls-1" d="M40.82,53.81a1.48,1.48,0,0,1-.57,1c-1.17,1.09-2.34,2.17-3.5,3.27-.58.54-1.23.83-1.9.22S34.41,57,35,56.44l3.59-3.34a1.31,1.31,0,0,1,1.55-.27A1.09,1.09,0,0,1,40.82,53.81Z"/><path class="cls-1" d="M20.62,10.75a1.47,1.47,0,0,1-1-.38c-.66-.61-1.33-1.21-2-1.84a1,1,0,0,1,0-1.6,1.17,1.17,0,0,1,1.72,0c.7.61,1.38,1.26,2.05,1.91a1,1,0,0,1,.24,1.24A1.26,1.26,0,0,1,20.62,10.75Z"/><path class="cls-1" d="M35.07,3.13c0,.45,0,.9,0,1.35a1.19,1.19,0,0,1-2.36.16,19,19,0,0,1,0-3A1.08,1.08,0,0,1,34,.66a1.07,1.07,0,0,1,1.09,1.12C35.08,2.23,35.07,2.68,35.07,3.13Z"/><path class="cls-1" d="M13.49,23.11c-.48,0-1,0-1.45,0a1.05,1.05,0,0,1-1.1-1,1,1,0,0,1,1-1.19,23.5,23.5,0,0,1,3.25,0,1.06,1.06,0,0,1,1.05,1.17,1.09,1.09,0,0,1-1.19,1c-.53,0-1.05,0-1.57,0Z"/><path class="cls-1" d="M47.24,10.75a1.11,1.11,0,0,1-1.07-1.68,12,12,0,0,1,2.46-2.31,1.11,1.11,0,0,1,1.43.11.9.9,0,0,1,.28,1.23,9.49,9.49,0,0,1-2.8,2.58A1.28,1.28,0,0,1,47.24,10.75Z"/><path class="cls-1" d="M54.05,23.1a14,14,0,0,1-1.45,0,1,1,0,0,1-1.07-1,1,1,0,0,1,.94-1.14,13.73,13.73,0,0,1,3.39,0,1,1,0,0,1,1,1.13,1.05,1.05,0,0,1-1.06,1.05C55.19,23.13,54.62,23.1,54.05,23.1Z"/><path class="cls-1" d="M21.78,34.35a1.39,1.39,0,0,1-.44.93c-.63.58-1.25,1.17-1.89,1.74a1.23,1.23,0,0,1-1.81.06,1,1,0,0,1,.05-1.6c.67-.65,1.35-1.29,2.06-1.91a1.17,1.17,0,0,1,1.34-.18A1.19,1.19,0,0,1,21.78,34.35Z"/><path class="cls-1" d="M35.07,40.91c0,.45,0,.91,0,1.36a1.09,1.09,0,0,1-1.15,1.09,1.07,1.07,0,0,1-1.2-.91,10.46,10.46,0,0,1,0-3.16A1.07,1.07,0,0,1,34,38.43a1,1,0,0,1,1.09,1c0,.49,0,1,0,1.47Z"/><path class="cls-1" d="M56.51,42.63a1.18,1.18,0,1,1-1.16-1.1A1.07,1.07,0,0,1,56.51,42.63Z"/><path class="cls-1" d="M24.25,21.4a8.74,8.74,0,0,1,3.89-6.62c.65-.46,1.35-.64,1.93,0s.24,1.32-.46,1.81a6.38,6.38,0,0,0-2.91,5c-.05.82-.26,1.57-1.36,1.5S24.21,22.2,24.25,21.4Z"/><path class="cls-1" d="M33.93,13.05c.73.07,1.16.45,1.12,1.18a1.08,1.08,0,0,1-1.2,1,1.09,1.09,0,0,1-1.23-1.13C32.64,13.44,33.12,13.06,33.93,13.05Z"/></svg>