<svg xmlns="http://www.w3.org/2000/svg" viewBox="0 0 57.84 55.99"><defs><style>.cls-1{fill:#c6875e;}</style></defs><g id="Capa_2" data-name="Capa 2"><g id="Capa_1-2" data-name="Capa 1"><path class="cls-1" d="M28.88,56H1.68C.13,56,0,55.89,0,54.31S0,51.45,0,50c0-.67,0-1.42.87-1.4s.83.81.83,1.45c0,1.09,0,2.18,0,3.27,0,.64.12,1,.86.95,2.71,0,5.42,0,8.13,0,.65,0,.82-.25.81-.86,0-2,0-3.91,0-5.87a1.71,1.71,0,0,0-.39-1.13c-.72-.92-1.41-1.86-2.11-2.79-.38-.51-.92-1.08-.21-1.65s1.15.07,1.53.58c1,1.35,2.06,2.69,3.05,4.06a2.26,2.26,0,0,0,2.09,1.06c2.06,0,4.13,0,6.2,0,1.21,0,1.83-.53,1.85-1.5s-.62-1.57-1.78-1.59c-1.7,0-3.39,0-5.08,0a1.65,1.65,0,0,1-1.51-.77c-1.31-1.79-2.68-3.54-4-5.32-.55-.73-1.07-1-2-.47a5,5,0,0,1-4.76.2c-1.57-.67-2.58-.08-2.66,1.67s0,3.23,0,4.85a6.77,6.77,0,0,1-.05,1,.75.75,0,0,1-.78.67.75.75,0,0,1-.84-.74A52.53,52.53,0,0,1,.15,39,3.54,3.54,0,0,1,1.63,36.7c.23-.17.56-.3.31-.7-1-1.58-.73-3.34-.75-5.06,0-.82,0-1.65,0-2.48A3.38,3.38,0,0,1,4.61,25C6,25,7.32,25,8.67,25A3.3,3.3,0,0,1,12,28.39c0,1.69,0,3.39,0,5.08a1.34,1.34,0,0,1-.06.67c-1.09,1.66,0,2.72,1,3.88a48,48,0,0,1,2.92,3.88,1.94,1.94,0,0,0,2.05,1,6.09,6.09,0,0,1,1.35,0c.54,0,.76-.17.74-.71s0-1,0-1.46c-.27-2.42.92-3.94,3-4.93.58-.28.75-.52.61-1.26a24.12,24.12,0,0,1-.11-6.63A3.12,3.12,0,0,1,26.56,25c2.18-.06,4.36,0,6.54,0,.67,0,1.1.26,1.08,1-.1,2.93.25,5.87-.21,8.79-.07.45.1.59.45.74a11.63,11.63,0,0,1,1.29.71,4.45,4.45,0,0,1,2.21,4.36c-.1,2.3,0,2.28,2.27,2.31a1.83,1.83,0,0,0,1.69-.8,47,47,0,0,1,4.47-5.65c.21-.19.26-.36.14-.58-.9-1.53-.6-3.22-.64-4.86,0-.9,0-1.81,0-2.71A3.29,3.29,0,0,1,49.07,25c1.43-.06,2.86-.05,4.29,0a3.12,3.12,0,0,1,3.21,2.76,26.27,26.27,0,0,1,0,6.63,4.26,4.26,0,0,0,.63,3.26,3.94,3.94,0,0,1,.69,2.23q0,2.66,0,5.31c0,.62-.11,1.2-.85,1.2s-.86-.6-.86-1.21c0-1.66,0-3.31,0-5a2.51,2.51,0,0,0-.53-1.79,1.3,1.3,0,0,0-1.84-.4A5,5,0,0,1,48.6,38a1.21,1.21,0,0,0-1.82.4c-1.31,1.75-2.67,3.46-3.92,5.24a2.09,2.09,0,0,1-2,1c-1.54,0-3.08,0-4.62,0-1.25,0-1.93.59-1.92,1.58s.65,1.52,1.94,1.52c2,0,4.07,0,6.1,0a2.28,2.28,0,0,0,2.09-1c1-1.4,2.07-2.77,3.12-4.15C48,42,48.37,41.44,49,42s.31,1.13-.13,1.56c-2.26,2.17-2.85,4.8-2.61,7.86.22,2.88.05,2.9,3,2.9h5.3c1.54,0,1.54,0,1.54-1.48,0-1,0-2,0-3,0-.58.15-1.12.82-1.13s.89.54.88,1.17c0,1.58,0,3.16,0,4.74,0,1.31-.17,1.47-1.53,1.47Zm.17-6.59c-4.93,0-9.86,0-14.79,0-.83,0-1.16.21-1.08,1.07a15.05,15.05,0,0,1,0,2.6c-.11,1,.27,1.25,1.25,1.25,6.48,0,13,0,19.42,0,3.27,0,6.55,0,9.82,0,.78,0,1.08-.22,1-1a19,19,0,0,1,0-2.82c.07-.87-.26-1.07-1.09-1.07C38.76,49.42,33.9,49.4,29.05,49.4Zm3.77-1.79c-.49-3,.13-4,2.91-4.72.18-.06.33-.07.42-.29a4.58,4.58,0,0,0-2.06-5.37,1.36,1.36,0,0,0-1.86.17,5.26,5.26,0,0,1-6.48.36c-1.37-.94-1.61-.91-3,.07a2.58,2.58,0,0,0-1.1,2.54,9.26,9.26,0,0,1,0,1.58c0,.62.07,1,.82,1a2.68,2.68,0,0,1,2,1.12A3.42,3.42,0,0,1,25,47.61Zm-4-16.9H27.7c-2.75,0-2.75,0-2.61,2.73a3.69,3.69,0,0,0,7.28.73,14.24,14.24,0,0,0,.15-2.69c0-.59-.17-.8-.76-.78C30.78,30.74,29.8,30.71,28.83,30.71Zm-22.16-4c-.6,0-1.2,0-1.8,0a1.74,1.74,0,0,0-1.94,2c0,.94,0,1.88,0,2.82,0,1.44.42,1.77,1.83,1.44a2.21,2.21,0,0,0,1.54-1.2A5.58,5.58,0,0,0,6.77,30c.2-1.37.56-1.56,1.72-.9a6.32,6.32,0,0,0,1,.43c.56.17.82,0,.84-.65a1.89,1.89,0,0,0-2-2.17C7.8,26.66,7.23,26.67,6.67,26.67Zm44.58,0a18.75,18.75,0,0,0-2.25,0,1.58,1.58,0,0,0-1.42,1.4c-.08.46-.32,1.08.18,1.34s1.08-.09,1.58-.37c1.24-.7,1.54-.54,1.77.93a4.34,4.34,0,0,0,.68,2,2.37,2.37,0,0,0,2.63.86c1-.24.35-1.14.52-1.72a2.9,2.9,0,0,0,0-.78C55,26.68,54.94,26.67,51.25,26.7ZM3.18,34.57A3.58,3.58,0,0,0,6.34,37,3.55,3.55,0,0,0,9.7,35.34a5.14,5.14,0,0,0,.61-3.69c-.09-.85-1-.29-1.49-.58s-.53,0-.63.37C7.49,33.88,5.8,34.84,3.18,34.57Zm51.41,0c-3,0-3.9-.59-4.89-3.11-.13-.34-.24-.69-.67-.43s-1.43-.33-1.5.71a7.54,7.54,0,0,0,.14,2.46A3.76,3.76,0,0,0,51.12,37,3.51,3.51,0,0,0,54.59,34.62ZM28.7,29h3.15c1,0,.63-.74.65-1.22s.28-1.12-.64-1.1c-1.68,0-3.37,0-5.06,0a1.64,1.64,0,0,0-1.7,1.48c-.1.53,0,.86.68.83C26.75,29,27.73,29,28.7,29Z" transform="translate(0)"/><path class="cls-1" d="M42.9,23.88a10.46,10.46,0,0,0,0-1.12c-.09-.92.27-1.35,1.22-1.5a2.19,2.19,0,0,0,2-2.34c0-2.67,0-5.35,0-8a2.31,2.31,0,0,0-2.38-2.47c-4.55,0-9.1,0-13.65,0-.67,0-.71.34-.7.85,0,1.58,0,3.16,0,4.74,0,3.48-1.65,5.34-5.12,5.8l-.49.1A2.15,2.15,0,0,0,26,21.32c1.47,0,2.94,0,4.41,0,.62,0,1.3,0,1.26.89s-.63.82-1.24.81c-1.5,0-3,0-4.51,0a3.85,3.85,0,0,1-3.72-2.45,1.15,1.15,0,0,0-1.26-.8q-5,0-10,0a1.71,1.71,0,0,0-1.39.57c-1,1-2,2-3,3-.31.3-.62.56-1.1.39s-.59-.62-.58-1.1a5.42,5.42,0,0,1,0-.57c.16-1.43,0-2.49-1.7-3.12A4.29,4.29,0,0,1,.51,14.8C.46,11.53.45,8.26.51,5a5.06,5.06,0,0,1,5-5Q14.89,0,24.26,0a5.05,5.05,0,0,1,5.08,5.34c0,1.17.32,1.42,1.43,1.4,4.18-.07,8.35,0,12.53,0,2.86,0,4.5,1.62,4.53,4.45,0,2.44,0,4.89,0,7.33a4.14,4.14,0,0,1-2.71,4.26.73.73,0,0,0-.56.83,2.58,2.58,0,0,1,0,.68c-.18.91.56,2.22-.52,2.68s-1.58-1-2.34-1.56a9.26,9.26,0,0,1-1.6-1.59,2.13,2.13,0,0,0-2-.79c-1.05.06-2.11,0-3.16,0-.59,0-1.08-.15-1.09-.84s.5-.85,1.07-.86c1.47,0,2.94,0,4.4,0a1.68,1.68,0,0,1,1.27.62c.65.71,1.32,1.41,2,2.12ZM6.46,20.76l.35,0c.52-.57,1.07-1.12,1.55-1.72a2.81,2.81,0,0,1,2.47-1c4.32.05,8.65,0,13,0,2.44,0,3.81-1.32,3.82-3.72q0-4.47,0-8.92A3.37,3.37,0,0,0,24,1.74c-1.95,0-3.91,0-5.87,0-4.1,0-8.2,0-12.3,0C3.77,1.76,2.3,3,2.26,4.89c-.08,3.35-.06,6.7,0,10.05a2.71,2.71,0,0,0,2.06,2.8C6.11,18.06,6.9,18.82,6.46,20.76Z" transform="translate(0)"/><path class="cls-1" d="M15,4.58c2.29,0,4.58,0,6.87,0,.7,0,1.72-.27,1.71.89s-1,.82-1.65.82q-7,0-14,0c-.68,0-1.62.19-1.59-.89S7.3,4.6,8,4.59C10.3,4.57,12.63,4.58,15,4.58Z" transform="translate(0)"/><path class="cls-1" d="M14.93,9h7.32c.63,0,1.3,0,1.3.86s-.68.86-1.3.86H7.6c-.62,0-1.3,0-1.3-.86S7,9,7.61,9Z" transform="translate(0)"/><path class="cls-1" d="M11,13.52h3.6c.61,0,1.11.18,1.11.83s-.49.84-1.09.84H7.33c-.6,0-1.06-.19-1-.88s.47-.79,1-.79Z" transform="translate(0)"/></g></g></svg>