<svg xmlns="http://www.w3.org/2000/svg" viewBox="0 0 130.85 147.62"><defs><style>.cls-1{fill:#6c2911;}</style></defs><g id="Capa_2" data-name="Capa 2"><g id="Capa_1-2" data-name="Capa 1"><path class="cls-1" d="M56.05,92.41C52.83,94.26,50,96,47,97.6c-2.42,1.32-3.81.59-3.67-2.17.13-2.57-.29-4.05-3.22-4.56-1.79-.3-2.59-2.22-2.6-4.11,0-5.53-.12-11.07,0-16.6.08-3.12,1.89-4.58,5.23-4.79,2.11-.14,4.81.93,6.18-.54s.37-4.1.44-6.23C49.5,54.7,51.09,53,55,53q12.77-.06,25.51,0c4.16,0,5.8,1.66,5.83,5.74,0,4.51.08,9,0,13.52,0,1.77.34,2.5,2.31,2.62,3.23.19,4.63,1.72,4.69,4.9.11,5.33,0,10.65,0,16,0,2.58-1.22,4.54-3.76,4.87-2.07.28-2.06,1.3-2.06,2.83,0,4.66-.89,5.13-5,2.79A19.14,19.14,0,0,1,80.47,105c-4.61-3.51-9.76-4.52-15.52-4.24C57.3,101.12,56.81,100.41,56.05,92.41Zm.15-23c-4,0-8,.14-12,0-2.39-.12-2.95.76-2.86,3,.17,4,.15,8,0,12-.09,2.23.3,3.51,2.94,3.18,1.83-.24,3,.71,2.83,2.68-.23,2.59.89,2.63,2.52,1.33,4.69-3.73,10.06-4.65,15.85-4.07.91.09,1.85-.07,2.76,0,1.8.19,2.27-.67,2.24-2.33-.08-4.5-.09-9,0-13.51,0-1.79-.67-2.27-2.35-2.24C64.18,69.48,60.19,69.42,56.2,69.42ZM83.64,102c-.48-3.7.75-5.66,4.61-5.22,1.34.16,1.16-1.14,1.17-2,0-3,0-5.94,0-8.9,0-7.09,0-7.14-6.94-7.06-2.53,0-5.72-1.09-7.41.47s-.35,4.65-.52,7.07c-.24,3.33-1.88,5-5.23,5.21-1.94.09-3.89.07-5.83,0s-3.29-.15-3.25,2.58c0,2.56,1.15,2.89,3.17,2.72,6.77-.57,13.26,0,18.77,4.61A6,6,0,0,0,83.64,102ZM67.93,57C65,57,62,57,59,57c-6.6.13-5.6-1.19-5.81,5.88-.07,2.19.88,2.53,2.73,2.49q6.59-.14,13.19,0c3.55.07,5.23,1.8,5.41,5.3.21,4.08.21,4.08,4.44,4.07.3,0,.61,0,.92,0,1.93.22,2.73-.46,2.65-2.57-.16-4.29-.11-8.59,0-12.88,0-1.75-.63-2.35-2.33-2.32C76.12,57.08,72,57,67.93,57Z"/><path class="cls-1" d="M109,128.38c-6,0-12.07-.07-18.1,0-2.61,0-3.71-.91-3.61-3.6.14-3.88,0-7.77.06-11.66.19-7,4.77-11.72,11.79-11.92,6.64-.18,13.3-.19,19.94,0,7,.21,11.53,5,11.68,12,.07,3.78-.11,7.57.06,11.35.12,2.79-.9,3.86-3.71,3.8C121.1,128.29,115.06,128.38,109,128.38Zm.39-23.21c-3.48,0-7-.08-10.45,0a7.64,7.64,0,0,0-7.64,7.32c-.17,3.37,0,6.76,0,10.13,0,.86,0,1.48,1.2,1.71,4.48.88,5.77,0,5.92-4.45,0-.31,0-.62,0-.92.08-1.26.52-2.26,2-2.21s1.82,1,1.94,2.29c.15,1.69-.84,4,.53,4.91s3.55.3,5.38.36c.72,0,1.43,0,2.15,0,5.06,0,5.06,0,5.45-5.14,0-.21,0-.41,0-.62a1.83,1.83,0,0,1,2-1.9,1.8,1.8,0,0,1,1.86,2,29.15,29.15,0,0,1,0,3.37c-.14,1.7.45,2.5,2.24,2.31a12.13,12.13,0,0,1,2.76,0c1.79.2,2.3-.57,2.23-2.28-.12-2.86,0-5.73,0-8.6-.1-5.07-3.24-8.22-8.27-8.3C115.55,105.12,112.48,105.16,109.41,105.17Z"/><path class="cls-1" d="M21.67,128.38c-6,0-12.07-.07-18.11,0-2.65,0-3.66-1-3.55-3.64.15-4,0-8,.07-12,.19-6.36,4.55-11.2,10.89-11.47,7.25-.3,14.53-.3,21.78,0,6,.28,10.38,5,10.66,11,.2,4.19,0,8.39.12,12.58.08,2.53-1,3.47-3.45,3.44C33.94,128.33,27.8,128.38,21.67,128.38Zm.09-23.21c-3.38,0-6.76-.08-10.13,0A7.64,7.64,0,0,0,4,112.52c-.18,3.37,0,6.76-.06,10.14,0,.87.11,1.47,1.24,1.69,4.58.89,5.83,0,5.93-4.43,0-.31,0-.62,0-.93,0-1.27.43-2.3,1.85-2.31,1.58,0,1.95,1.08,2,2.48.36,5.17.39,5.17,5.71,5.17.61,0,1.23,0,1.84,0,1.83,0,4.05.49,5.4-.34s.39-3.22.54-4.91c.11-1.26.49-2.24,1.91-2.3s1.95.9,2,2.17,0,2.46.05,3.69c0,.71,0,1.35.95,1.67,3.77,1.3,6.16-.26,6.16-4.09,0-2.36.06-4.72,0-7.07a7.77,7.77,0,0,0-8-8C28.32,105.11,25,105.17,21.76,105.17Z"/><path class="cls-1" d="M65.36,51.21c-6.15,0-12.31-.07-18.46,0-2.41,0-3.29-.92-3.23-3.28.1-4-.05-8,.06-12,.18-6.77,4.9-11.69,11.61-11.86s13.53-.19,20.29,0c6.57.19,11.27,5.07,11.47,11.67.13,4.1,0,8.21.07,12.3.07,2.48-1.06,3.18-3.36,3.15C77.66,51.14,71.51,51.21,65.36,51.21Zm0-23.11v0c-3.07,0-6.15,0-9.22,0-5.52.12-8.5,3.15-8.56,8.63a63.86,63.86,0,0,1-.07,7.06c-.38,3.1.86,3.68,3.72,3.65s4-.74,3.52-3.58a11.89,11.89,0,0,1,0-2.15c0-1.19.62-2.05,1.8-2.07s1.91.85,2.09,2.17c.25,1.82-1,4.33.82,5.3,1.54.81,3.81.21,5.75.23h1.23c5.31,0,5.31,0,5.7-5.19,0-.2,0-.41,0-.61a1.93,1.93,0,0,1,1.93-2,1.79,1.79,0,0,1,1.9,2,32.3,32.3,0,0,1,0,3.68c-.09,1.54.39,2.33,2.07,2.16a15.75,15.75,0,0,1,3.07,0c1.64.17,2.12-.52,2.07-2.1-.1-3,0-5.95,0-8.92-.1-4.94-3.09-8.05-8-8.22C71.94,28,68.66,28.1,65.38,28.1Z"/><path class="cls-1" d="M65.83,130.3l-1.37-1.48c-.75-.82-1.75-1.56-1.22-2.89s1.74-1.25,2.87-1.27c5.63-.09,11.26-.14,16.89-.28,2.34-.06,3.36.9,3.3,3.28-.13,5.64-.14,11.27-.21,16.9,0,1.14-.06,2.34-1.3,2.88s-2.21-.31-2.88-1.19c-1.72-2.26-3.47-2.48-6.26-1.5-15.09,5.34-30.72-6-31-22.2,0-1.19,0-2.3,1.39-2.73s2.07.46,2.76,1.4a27.54,27.54,0,0,0,6.85,7C58.58,130.17,61.75,131.36,65.83,130.3Zm-15.37-.89c-.36.76.13,1.27.37,1.78,4.62,9.74,15.65,13.63,25.71,9,1.79-.82,3.44-2,5.67.68,0-4.19,0-7.43,0-10.67,0-1.3-.47-1.82-1.79-1.8-3.25.06-6.51,0-9.87,0,1.5,3.71,1.14,4.42-2.6,5.55a16,16,0,0,1-11.1-.51C54.5,132.51,52.58,130.84,50.46,129.41Z"/><path class="cls-1" d="M111.22,52.82c-1.35,1.4-.66,4.12-2.92,4.2-2.44.08-2.74-2.46-3.71-4-2.55-4.07-4.85-8.29-7.39-12.37-1.28-2.06-.87-3.29,1.2-4.41,4.94-2.69,9.81-5.51,14.71-8.26,1-.54,2-1.28,3.09-.37a2.3,2.3,0,0,1,.47,3.06c-1.25,2.74-.29,4.4,2,6.35,11.86,10.14,10.29,28.66-4,37.92-.89.58-1.8,1-2.8.22s-.83-1.91-.33-3a27.31,27.31,0,0,0,2.74-10.3A11.88,11.88,0,0,0,111.22,52.82ZM112,33.09c-3.82,2.15-6.73,3.81-9.67,5.44-.8.44-1.32.84-.69,1.87,1.84,3,3.61,6,5.52,9.25,1.85-3.33,2.57-3.51,5-1.46a16.31,16.31,0,0,1,5.73,9.51c.59,2.84.14,5.62-.19,9a24.64,24.64,0,0,0,1.68-2c5.87-8.84,3.58-20.19-5.37-26.49C112.51,37.18,110.76,36.34,112,33.09Z"/><path class="cls-1" d="M21.77,50.08c1-.52,1.55-.78,2.07-1.08a2.33,2.33,0,0,1,2.86-.08,2.3,2.3,0,0,1,.51,2.56c-1.46,5.75-3,11.5-4.42,17.25-.48,1.9-1.68,2.43-3.47,1.93C13.71,69.09,8.09,67.5,2.47,66c-1-.29-2-.63-2.21-1.82a2.07,2.07,0,0,1,1.55-2.37C5,60.65,5.38,58.47,5.15,55.38c-1.05-14.19,11.46-27,29.17-23.73,1.2.22,2.57.46,2.68,2s-1.22,2-2.36,2.43a27,27,0,0,0-8.72,5.06C23.46,43.43,21.62,46,21.77,50.08Zm5.42-14.86C14.54,36.76,7.37,46.23,9.38,58c.36,2.07.41,3.84-1.76,5.28,3.66,1,6.91,1.91,10.14,2.87,1,.3,1.57.16,1.83-.88.85-3.4,1.71-6.8,2.62-10.4-3.6.93-4.34.51-4.61-2.61A18.5,18.5,0,0,1,17.76,48C18.61,42.43,22.15,38.7,27.19,35.22Z"/><path class="cls-1" d="M119.68,87.89A10.6,10.6,0,1,1,109.07,77,10.59,10.59,0,0,1,119.68,87.89ZM109.26,81.1a6.65,6.65,0,0,0-6.9,6.38,6.72,6.72,0,1,0,6.9-6.38Z"/><path class="cls-1" d="M32.37,87.78A10.61,10.61,0,1,1,22,77,10.6,10.6,0,0,1,32.37,87.78Zm-3.89.1a6.72,6.72,0,0,0-13.43-.43,6.72,6.72,0,1,0,13.43.43Z"/><path class="cls-1" d="M76,10.56a10.6,10.6,0,1,1-21.2.2,10.6,10.6,0,1,1,21.2-.2ZM65.46,17.31a6.69,6.69,0,0,0,6.69-6.61,6.73,6.73,0,1,0-13.45.08A6.65,6.65,0,0,0,65.46,17.31Z"/><path class="cls-1" d="M50.51,78.32a2.65,2.65,0,0,1-2.39,2.73,2.63,2.63,0,1,1-.29-5.24C49.36,75.77,50.2,76.82,50.51,78.32Z"/><path class="cls-1" d="M64.35,81.14c-1.57-.16-2.63-.83-2.77-2.41A2.43,2.43,0,0,1,64,75.82a2.39,2.39,0,0,1,2.69,2.33C66.87,79.91,65.82,80.73,64.35,81.14Z"/><path class="cls-1" d="M58.65,78.56A2.61,2.61,0,0,1,56,81.07a2.47,2.47,0,0,1-2.65-2.75A2.45,2.45,0,0,1,56,75.81,2.62,2.62,0,0,1,58.65,78.56Z"/></g></g></svg>