<svg id="Capa_1" data-name="Capa 1" xmlns="http://www.w3.org/2000/svg" viewBox="0 0 242.07 263.6"><defs><style>.cls-1{fill:#6c2910;}.cls-2{fill:#fff;}</style></defs><circle class="cls-1" cx="113.89" cy="233.58" r="28.85"/><path class="cls-2" d="M120.87,239.19v3.54H107v-3l6.37-6.69a18.55,18.55,0,0,0,1.36-1.74,7,7,0,0,0,.76-1.39,3.23,3.23,0,0,0,.24-1.13,3.6,3.6,0,0,0-.26-1.44,1.87,1.87,0,0,0-.73-.88,2.21,2.21,0,0,0-1.19-.3,2,2,0,0,0-1.24.41,2.7,2.7,0,0,0-.82,1.12,4,4,0,0,0-.3,1.59h-4.6a6.35,6.35,0,0,1,.9-3.33,6.55,6.55,0,0,1,2.48-2.42,7.36,7.36,0,0,1,3.69-.9,8.68,8.68,0,0,1,3.67.68,4.85,4.85,0,0,1,2.24,2,6.49,6.49,0,0,1,.43,5.09,8.47,8.47,0,0,1-.94,1.88,15.84,15.84,0,0,1-1.49,1.91c-.59.66-1.25,1.35-2,2.09l-2.56,2.95Z"/><path class="cls-1" d="M59.8,120.56c.91-2.47-.48-2.9-2.28-3.52-8.58-2.9-14-11.85-13.41-22,.51-9.44,6.7-17.39,15.09-19.37a5.51,5.51,0,0,1,2-.34c3.79.65,4.46-1.08,4.34-4.55-.28-8.22-.14-16.45-.06-24.67,0-2-.24-3.28-2.64-2.86-2.16.38-2.78-.52-2.81-2.7s.86-2.7,2.89-2.69c14,.08,28,0,42,.11,2.69,0,3.43-.77,3.25-3.34-.22-3,.08-6-.1-9-.14-2.38.41-3.62,3.09-3.9,3.4-.37,6.74-1.37,10.13-1.92,2-.33,3.1-1,2.89-3.38-.25-2.75.11-5.56-.11-8.32C123.84,5.57,125.45,6,127,5.9c1.81-.15,2.62.38,2.49,2.36a71.69,71.69,0,0,0,0,7.33c0,.88-.67,2.72,1.29,2.2,1.43-.37,3.95.57,4-2.31,0-4.22.16-8.45-.05-12.66-.12-2.57,1.41-2.14,3-2.26,1.81-.14,2.59.37,2.51,2.35-.15,3.55-.1,7.12,0,10.67,0,.76-.69,2.52,1,2.12,1.46-.36,3.92.59,4.23-2.08a22.68,22.68,0,0,0,0-4.66c-.18-2.12.22-3.12,2.78-3.14,2.79,0,2.65,1.38,2.63,3.28,0,4.84,0,4.82,4.61,3.87,3.68-.77,7.37-1.47,11.37-2.26V17.9c0,16.34,0,32.67,0,49,0,2.11.22,3.16,2.79,3.13s2.65-1.07,2.59-3c-.1-3.44.08-6.89-.07-10.33-.09-2.09.44-3.19,2.72-2.78s2.88-.71,2.69-2.79c-.15-1.55,0-3.12,0-4.67-.08-1.86-.25-3.28,2.58-3.33,3,0,2.9,1.44,2.8,3.45-.07,1.22.11,2.46,0,3.67-.34,2.71.3,4.3,3.48,3.69,1.8-.35,1.91.84,1.89,2.21,0,3.78.07,7.56,0,11.34-.06,1.83.45,2.78,2.39,2.42,2.64-.48,3.3.78,3,3.15-.15,1.2.09,2.46-.05,3.66-.31,2.77.26,4.42,3.62,3.92,2.54-.37,1.7,1.78,1.71,3,0,15.56,0,31.11,0,46.67,0,9.11.07,18.23-.05,27.34,0,2.22.4,3.43,2.86,3s2.46,1.08,2.59,2.92c.15,2.28-.91,2.47-2.75,2.47q-80-.06-160,0c-2.24,0-2.78-.7-2.76-2.82s.51-2.94,2.61-2.6a4.56,4.56,0,0,0,1.33,0c2.23-.29,5.74,1.16,6.44-.75,1.05-2.83.32-6.34.28-9.56,0-1-1.1-.94-1.75-1.27-10.2-5.2-12-20.55-3.3-28C48.73,117.18,53,117,59.8,120.56Zm53.64-37.27V116c0,7.22,0,14.45,0,21.67,0,1.09-.52,2.5,1.73,2.06,6.6-1.29,12.25.67,17,5.35,2.45,2.39,4.68-.58,7.09-.55,1.42,0,.74-1.81.74-2.78.05-13.89,0-27.79,0-41.68,0-5.66,0-11.33,0-17,0-1-.48-2.66,1.33-2.35,4.41.75,4.15-2,4-4.88-.07-1.22.09-2.46,0-3.67-.19-1.81.6-2.27,2.29-2.22,3.67.1,7.34-.09,11,.08,2.19.1,2.79-.6,2.78-2.78q-.14-23.67,0-47.34c0-2.45-.72-2.55-2.84-2.11q-21,4.33-42.13,8.36c-2.38.45-3.16,1.32-3.14,3.83C113.5,47.73,113.44,65.51,113.44,83.29ZM88.18,85.91c1.19,1.1,1.82,1.66,2.43,2.25,12.37,12,6.82,33.42-7.48,37.13-1.89.49-1.79,1.7-1.68,3a8,8,0,0,1-2.18,6.63C75,139.6,71,144.51,66.85,149.31a5,5,0,0,0-1.46,3.2c-.39,8.19-.43,8.09,7.72,8.19,2.47,0,3-.58,3.07-3.11.14-9.74,10.39-15.77,19.15-11.62,2.22,1.05,3.67,4.46,5.86,3.72s3.25-3.65,5-5.45c1-1.05,1.95-1.84,1.95-3.57q-.09-47.5,0-95c0-1.95-.63-2.41-2.47-2.4-10.78.08-21.56.1-32.34,0-2.09,0-2.61.61-2.59,2.63.1,9.45,0,18.89,0,28.34,0,2.19,5.3,9,7.46,9,2.91,0,5.57,1,8.27,1.75.77-1.72-1.07-4.87,2.83-4.36,1.37.17,2.77-.39,2.87,2C92.3,85.21,91.7,86.56,88.18,85.91ZM190.8,160.63c-4.23-4.43-8.44-6.09-13.52-4.94-1.75.4-2.58.14-3.18-1.66-1.86-5.63-5.88-8.88-11.76-9.3s-10.1,2.24-12.8,7.32c-1,2-1.69,2.35-3.52.67-4.06-3.75-7.72-3.66-12.05.18-1.53,1.35-2.21,1.26-3.12-.52-2.77-5.36-7.23-8.18-13.27-7.62s-9.91,4-11.72,9.83c-.2.64-.44,2.12-1.13,1.7-2.83-1.73-6.91.67-9.18-3.21-1.56-2.67-4.53-3.55-7.62-2.93A7.77,7.77,0,0,0,81.71,156c-1,3.54-.16,4.65,3.47,4.65H190.8Zm2.45-5.91a4,4,0,0,0,.17-.84c0-21.88,0-43.76.08-65.64,0-2.49-1.3-2.28-2.91-2.28-14,0-28,.09-42-.06-2.77,0-3.21.9-3.2,3.37.1,17.78,0,35.55,0,53.32,0,.67,0,1.34,0,2,.11,1.71.89,1.87,2.11.85,2-1.65,3.34-3.29,3.29-6.34-.24-14.77,0-29.55-.16-44.32,0-2.6.38-3.64,3.35-3.58,10.32.21,20.66.16,31,0,2.47,0,3.17.57,3.15,3.1-.12,17.11,0,34.22-.13,51.32C188,149.8,188.1,153.43,193.25,154.72ZM65.43,102.94c0,2.11,0,4.22,0,6.33,0,3.07.42,3.28,3.11,1.74,6.33-3.63,9.21-12.79,6.46-20.57-2.09-5.92-6.85-9.75-12.15-9.79s-10.34,3.89-12.41,9.91c-2.69,7.82.28,17,6.63,20.52,1.93,1.09,3.18,1.48,3-1.62-.18-4.43,0-8.87-.07-13.31,0-1.41.19-2.14,1.93-2.27,2.72-.22,3.86.54,3.49,3.41A46.28,46.28,0,0,0,65.43,102.94Zm117.34,20.35V104.64c0-8.22,0-8.13-8.11-8.06-2.1,0-2.59.65-2.58,2.65.08,13.77,0,27.54,0,41.31,0,1.11,0,2.13,1,3a15.62,15.62,0,0,1,4.5,5.29c1,1.93,2.73,1.23,4.11,1.15,1.72-.1.95-1.73,1-2.65C182.8,139.28,182.77,131.29,182.77,123.29Zm-26.43,16.64c2.64-.54,5.24-1.12,7.7-.41,2.77.8,2.78-.48,2.76-2.56-.07-10.77,0-21.55,0-32.32,0-8.22,0-8.13-8.12-8.06-2.11,0-2.58.66-2.57,2.66.08,12.88,0,25.77,0,38.65A20.2,20.2,0,0,0,156.34,139.93ZM70.09,116.49c5.49,5.47,12.49,5.41,17.49.08,6-6.41,6-17.65-.08-24A10.63,10.63,0,0,0,80.36,89C83.06,100.59,80.36,109.88,70.09,116.49Zm-10,17.63c.06-5.93-3.63-10.86-8.08-10.79s-7.89,4.88-7.89,10.65,3.59,10.58,7.92,10.63S60,139.9,60.06,134.12Zm109-53.51c5.54,0,11.09-.12,16.62.06,2.31.07,2.47-1,2.43-2.78,0-1.6-.05-2.66-2.22-2.64q-16.47.16-32.93,0c-2.13,0-2.25,1-2.25,2.6s0,2.9,2.38,2.82C158.45,80.48,163.77,80.61,169.1,80.61ZM65.6,120v22.53c3.56-4.16,6.86-7.7,9.76-11.55,1.19-1.58,1.93-4.4-.5-5.35A28.85,28.85,0,0,1,65.6,120Zm-5.53,27.63c-1.88,1.46-5.16.66-5.29,3.65-.1,2.54.06,5.09,0,7.63-.09,2.27,1.51,1.7,2.71,1.73s2.72.42,2.65-1.8C60,155.09,60.07,151.35,60.07,147.61Zm122.7-82.68c0-.66,0-1.32,0-2,0-1.88.65-3.85-2.75-3.79-3.2.07-2.53,1.88-2.56,3.65,0,1.43.1,2.88,0,4.3-.17,2,.23,3,2.61,2.92,2.13-.06,3-.59,2.74-2.78A16.31,16.31,0,0,1,182.77,64.93Z"/><path class="cls-1" d="M134.78,43.82c-.32,2.89,1.55,7.58-.73,9.57-2,1.73-6.54.53-10,.56-5.32,0-5.33,0-5.32-5.45,0-4.55.06-9.1,0-13.65,0-1.71.46-2.34,2.24-2.29,3.88.12,7.77.13,11.65,0,1.84-.06,2.26.67,2.2,2.33C134.7,37.66,134.78,40.44,134.78,43.82Zm-5.36-.41a21,21,0,0,1,0-3c.3-2.15-.7-2.51-2.63-2.56-2.18-.05-3,.62-2.74,2.79a25.69,25.69,0,0,1,0,5c-.21,2.18.33,3.07,2.8,3.07s2.74-1.07,2.56-3A22.44,22.44,0,0,1,129.42,43.41Z"/><path class="cls-1" d="M140.1,42.76c.31-2.88-1.54-7.56.7-9.56,1.95-1.74,6.53-.57,9.95-.59,5.37,0,5.37,0,5.37,5.4,0,4.44-.09,8.89,0,13.32.06,2-.38,2.78-2.54,2.68-3.77-.18-7.55-.14-11.32,0-1.79.06-2.31-.57-2.24-2.28C140.18,48.94,140.1,46.16,140.1,42.76Zm10.66.42a16.31,16.31,0,0,1,0-2.32c.34-2.28-.48-3-2.86-3-2.15,0-2.65.77-2.5,2.7a31.15,31.15,0,0,1,0,5.29c-.19,2.11.48,2.81,2.7,2.83s2.91-.82,2.66-2.87A23.24,23.24,0,0,1,150.76,43.18Z"/><path class="cls-1" d="M134.56,70.26c0,3.32,1.3,7.75-.34,9.64-1.9,2.2-6.45.63-9.84.7-5.62.12-5.63,0-5.62-5.46,0-4.55.07-9.11,0-13.66,0-1.77.56-2.29,2.28-2.24,3.77.11,7.56.17,11.32,0,2.22-.11,2.58.83,2.49,2.72-.12,2.77,0,5.55,0,8.32Zm-5.14,0c0-.67,0-1.33,0-2,0-1.91.61-3.85-2.77-3.76-3.2.08-2.5,1.92-2.53,3.67,0,1.43.09,2.88,0,4.3-.18,2,.3,2.93,2.63,2.89,2.18,0,3-.64,2.72-2.8A17.79,17.79,0,0,1,129.42,70.25Z"/><path class="cls-1" d="M134.78,97c0,2.66-.12,5.33,0,8,.11,2-.63,2.45-2.47,2.39-3.77-.12-7.55-.11-11.32,0-1.7,0-2.34-.42-2.31-2.22q.15-8.49,0-17c0-1.81.61-2.27,2.3-2.23,3.78.11,7.55.12,11.32,0,1.84-.06,2.58.44,2.48,2.39C134.67,91.18,134.78,94.07,134.78,97Zm-5.36-.46a21.27,21.27,0,0,1,0-2.65c.28-2-.51-2.63-2.55-2.62s-3.06.43-2.82,2.72a26.72,26.72,0,0,1,0,5.29c-.21,2.16.56,2.76,2.73,2.8,2.34,0,2.85-.89,2.63-2.9A23.24,23.24,0,0,1,129.42,96.5Z"/><path class="cls-1" d="M134.78,123.27c0,2.89-.07,5.78,0,8.66.05,1.61-.53,2.11-2.1,2.08-4-.09-8-.1-12,0-1.72,0-2-.72-2-2.19.06-5.66.09-11.32,0-17,0-1.77.54-2.3,2.28-2.25,3.77.11,7.55.17,11.31,0,2.22-.11,2.6.81,2.5,2.71C134.68,117.94,134.78,120.61,134.78,123.27Zm-5.36,0c0-.44,0-.89,0-1.33-.11-1.88.89-4.13-2.78-4.08s-2.35,2.32-2.51,4c-.11,1.21.05,2.43,0,3.64-.13,1.93-.1,3.26,2.63,3.24s2.93-1.11,2.71-3.16A19.76,19.76,0,0,1,129.42,123.26Z"/><path class="cls-1" d="M78.68,48.67c2.25-.51,2.8.46,2.83,2.63S80.73,54,78.65,54s-2.71-.51-2.64-2.61S76.23,48.07,78.68,48.67Z"/><path class="cls-1" d="M89.42,53.89c-2.35.56-2.66-.65-2.75-2.69-.11-2.41,1-2.6,2.92-2.67,2.14-.07,2.58.7,2.58,2.67S91.76,54.44,89.42,53.89Z"/><path class="cls-1" d="M100.13,48.67c2.4-.58,2.61.72,2.72,2.72.13,2.46-1,2.55-2.95,2.64-2.18.1-2.53-.77-2.55-2.7C97.33,49.21,97.83,48.13,100.13,48.67Z"/><path class="cls-1" d="M81.38,62.33c.67,2.83-1.42,2.13-3,2.33-2.85.35-2.12-1.62-2.32-3.18-.33-2.59,1.42-2,2.92-2.24C81.58,58.9,81.63,60.42,81.38,62.33Z"/><path class="cls-1" d="M92,62.1c.63,2.59-1,2.46-2.83,2.59-2.22.15-2.47-.82-2.53-2.71-.08-2.2.64-2.76,2.8-2.79S92.49,60,92,62.1Z"/><path class="cls-1" d="M100.26,64.56c-2.13.46-3-.23-2.92-2.55,0-2.13.55-2.89,2.78-2.81,1.86.08,2.88.29,2.71,2.53C102.69,63.53,102.86,65.21,100.26,64.56Z"/><path class="cls-1" d="M100.21,75.23c-2.19.49-2.87-.36-2.88-2.59s.69-2.81,2.83-2.77c2,0,2.79.41,2.67,2.57C102.73,74.33,102.73,75.85,100.21,75.23Z"/><path class="cls-1" d="M102.66,83.24c.67,2.71-.9,2.63-2.76,2.79-2.6.23-2.4-1.23-2.54-3-.18-2.3,1-2.41,2.76-2.45C102.29,80.5,103.4,81,102.66,83.24Z"/><path class="cls-1" d="M81.37,72.77c.64,2.58-1,2.46-2.83,2.58-2.22.16-2.47-.81-2.53-2.7-.08-2.2.64-2.76,2.8-2.79S81.82,70.64,81.37,72.77Z"/><path class="cls-1" d="M92,72.65c.57,2.4-.73,2.61-2.73,2.72-2.45.14-2.54-1-2.63-2.94-.1-2.19.76-2.53,2.69-2.55C91.49,69.85,92.57,70.36,92,72.65Z"/></svg>