<svg id="Capa_1" data-name="Capa 1" xmlns="http://www.w3.org/2000/svg" viewBox="0 0 242.07 263.6"><defs><style>.cls-1{fill:#6c2910;}.cls-2{fill:#fff;}</style></defs><circle class="cls-1" cx="122.85" cy="229.94" r="28.85"/><path class="cls-2" d="M126.15,218.27v19.82h-4.59V223.45L117,224.77v-3.49l8.69-3Z"/><path class="cls-1" d="M179.77,80.34c-2.74-.41-5.48-.83-8.22-1.21-1.9-.26-3.85-.63-3.58-3.1.29-2.78,2.52-2.48,4.46-2.24,4.43.54,8.89,1,13.27,1.8a15.5,15.5,0,0,0,10.81-1.46c3.91-2.13,8-3.92,12-5.91,1.78-.88,3.56-1.44,4.68.71s-.44,3.28-2.17,4.18a288.63,288.63,0,0,1-32.45,14.22,2.33,2.33,0,0,0-1.5,1.34c3.43,0,6.86.12,10.29,0,3-.13,5,.9,6.34,3.7,2,4.24,4.38,8.32,6.54,12.5s.87,6.53-3.6,6.38c-3.21-.11-4.12.82-4,4,.25,7.24.16,14.49,0,21.74,0,2.24.68,3.13,2.88,3.64,5,1.17,10,2.71,15,4.06,1.81.48,3.35,1.29,2.89,3.41-.52,2.36-2.41,2.37-4.33,1.86-12-3.2-24-6.56-36.12-9.14a534.7,534.7,0,0,0-133.2-10.75c-2.77.11-5.55.18-8.33.29-1.81.07-3.19-.6-3.32-2.51s1.23-2.72,3-2.85a24.34,24.34,0,0,1,4.33-.27c6.11.69,9.84-2.87,13.22-7-4.55-3.75-9.66-2.16-14.62-1.79-1,.07-1.92.3-2.88.31-1.64,0-2.89-.68-3.08-2.4a2.6,2.6,0,0,1,2.51-3,48.2,48.2,0,0,1,7.56-.77c5.69.07,9.25-3.54,12.94-7,1.23-1.15.75-1.76-.63-2.16a18.44,18.44,0,0,1-2.74-.94C44.68,98.5,44,94.82,46.85,93,54.2,88.41,58,81.57,60.06,73.46c.52-2,1.75-3.43,4.07-3.43s3.49,1.32,4.05,3.41c2.16,8,5.8,15,13.23,19.56,2.91,1.79,2.31,5.46-.82,6.94-1.4.66-2.92,1.08-4.4,1.61,1.47,3.06,3.64,3.64,6.86,3,7.57-1.51,15.21-2.69,22.85-3.79a5.3,5.3,0,0,0,4.37-3.12c5.6-10.29,2.55-8.87,15-9,7.24-.05,14.52-.47,21.73.1C158.89,89.71,169.06,84.54,179.77,80.34Zm-26.41,31c-10.25,0-20.49.07-30.74,0-2.4,0-3.5.47-3.31,3.14a81.49,81.49,0,0,1,0,9.76c-.1,2.1.52,3,2.73,3.2A476.12,476.12,0,0,1,184.69,138c2.2.52,2.73-.07,2.7-2.19-.08-7.11-.14-14.23,0-21.34.06-2.61-.87-3.22-3.31-3.2C173.86,111.38,163.61,111.31,153.36,111.31Zm-41.19-5.58c27.1,0,53.52,0,79.94,0,2.29,0,2-.93,1.19-2.37-1.33-2.44-2.67-4.87-3.85-7.38-.74-1.56-1.82-1.93-3.44-1.92q-32.77.06-65.53,0c-1.24,0-2.3,0-3,1.4C115.93,98.73,114.19,101.88,112.17,105.73ZM75.46,95.5c-5.4-4.19-8.72-9.66-11.35-16.45-2.55,6.94-6,12.28-11.34,16.58,7.91,2.6,8.39,4.35,3,10.35-1.77,2-3.93,3.6-6.33,5.76,1.45.38,1.92.49,2.38.63,5,1.48,5.61,3.38,2.41,7.42-1.06,1.34-2.16,2.66-3.48,4.3H77.63c-1.94-2.65-4.67-4.37-5.27-7.2-.92-4.43,3.54-3.79,5.08-4.72-1.61-2-3.13-4-4.78-5.91C67.21,100,67.51,98.55,75.46,95.5Zm3.72,22.1c3.33,3,5.5,6.65,9.89,7,7.45.63,14.93,1,22.38,1.6,2.1.18,2.47-.65,2.43-2.41a83.76,83.76,0,0,1,0-8.68c.24-2.93-.59-4.22-3.73-3.87-2.32.26-4.5-.35-4.7-3.23-.13-1.76-1-1.5-2.16-1.3-5.23.89-10.47,1.73-15.7,2.6-.77.13-2.13,0-1.89,1.12C86.84,115.55,82.76,116,79.18,117.6Z"/><path class="cls-1" d="M145.32,49.11h-62a15.87,15.87,0,0,1-3.59-.21,2.43,2.43,0,0,1-2-2.69,2.32,2.32,0,0,1,1.87-2.37,17.93,17.93,0,0,1,3.59-.27c11.23,0,22.46,0,33.69,0,2,0,3.58-.1,3.26-2.82-.22-1.94.61-4-2.86-4-5,0-7.5-3.94-5.92-8.75,1.88-5.72,4-11.38,6-17.06.94-2.65,2.74-4.36,5.61-4.34s4.63,1.77,5.55,4.41c2,5.68,4.09,11.34,6,17.07,1.57,4.8-1,8.66-6,8.67-3.58,0-2.54,2.2-2.77,4.06-.29,2.38.91,2.78,3,2.75q9.78-.15,19.57,0c2.11,0,3.14-.5,2.92-2.82-.19-1.94.62-4-2.85-4-5.07,0-7.62-3.87-6-8.64,1.89-5.72,4-11.36,6-17.07.92-2.7,2.67-4.41,5.51-4.44,3,0,4.78,1.81,5.74,4.64,1.85,5.48,3.88,10.9,5.72,16.38,1.79,5.33-.54,9-6.11,9.15-3.31.07-2.43,2.09-2.62,3.87-.23,2.19.62,3,2.85,2.92,6.64-.11,13.29-.13,19.93,0,2.43,0,2.88-1.08,2.68-3.07-.17-1.62.73-3.58-2.38-3.72-5.8-.27-8-3.88-6.18-9.39s3.75-10.7,5.6-16c.95-2.76,2.63-4.73,5.69-4.74s4.76,1.88,5.71,4.68c1.87,5.47,3.89,10.9,5.74,16.38,1.77,5.23-.64,9-6.16,9.1-3.4.06-2.3,2.18-2.53,3.88-.28,2.15.44,3,2.76,2.93,6.27-.14,12.56-.05,18.84,0,2.13,0,4.51.05,4.39,3-.12,2.58-2.35,2.61-4.37,2.61Zm8.56-37.37c-2.24,6.29-4.2,11.79-6.15,17.29-.61,1.71,0,2.49,1.8,2.46,2.89,0,5.79,0,8.68,0,1.64,0,2.53-.41,1.82-2.34C158,23.63,156.11,18.07,153.88,11.74Zm30.88,0c-2.31,6.52-4.35,12.23-6.35,17.94-.59,1.7.67,1.78,1.78,1.8,2.88,0,5.77,0,8.65,0,2.29,0,2.65-.88,1.91-2.89C188.8,23.34,187,18,184.76,11.73ZM123,11.85c-1.44,3.94-2.51,6.81-3.53,9.69-3.83,10.86-3.83,10.86,7.7,10,.36,0,.72,0,1.08-.07,1.09-.16,1.42-.81,1.07-1.8C127.35,24,125.36,18.46,123,11.85Z"/><path class="cls-1" d="M120.85,162.79H34.3c-1,0-1.93,0-2.9,0-1.74-.07-3.2-.72-3.26-2.65-.06-2.14,1.46-2.85,3.37-2.9.85,0,1.69,0,2.54,0q86.73,0,173.46,0c2.33,0,5.93-1,5.86,2.81s-3.65,2.69-6,2.7Q164.13,162.83,120.85,162.79Z"/><path class="cls-1" d="M32.5,55c11,1.45,22.56,3,34.15,4.54q42.15,5.66,84.28,11.34c2.15.29,4.31.53,6.46.85,1.83.27,3.42,1.06,3.08,3.21s-1.93,2.54-3.85,2.28Q137.44,74.6,118.25,72q-42-5.65-83.92-11.28c-1.07-.15-2.14-.33-3.22-.48-1.73-.24-3.14-1-3-2.94C28.34,55.15,30,54.71,32.5,55Z"/><path class="cls-1" d="M49.18,49.11c-5.65,0-11.31,0-17,0-2.09,0-4.12-.3-4.06-2.9.06-2.38,2-2.66,4-2.66H66.41c1.92,0,3.86.29,3.86,2.74,0,2.67-2.07,2.82-4.12,2.82Z"/><path class="cls-1" d="M133.24,120.17a14.79,14.79,0,0,1-2.84-.2,2.46,2.46,0,0,1-2.1-2.89c.61-2.91,3.07-2.51,5.19-2.5s4.31-.31,4.73,2.55a2.45,2.45,0,0,1-2.13,2.85A16.72,16.72,0,0,1,133.24,120.17Z"/><path class="cls-1" d="M153.25,120.1a17,17,0,0,1-2.14,0c-1.8-.21-3.05-1.21-2.71-3.06.56-3,3.13-2.39,5.2-2.44s4.37-.15,4.71,2.61c.22,1.84-1.11,2.77-2.91,2.91C154.69,120.15,154,120.11,153.25,120.1Z"/><path class="cls-1" d="M173.25,120.16a16.24,16.24,0,0,1-2.52-.14c-1.64-.35-2.58-1.43-2.23-3.12.54-2.6,2.72-2.34,4.62-2.31,2.09,0,4.64-.55,5.15,2.54a2.42,2.42,0,0,1-2.14,2.86A19.63,19.63,0,0,1,173.25,120.16Z"/></svg>