<svg id="Capa_1" data-name="Capa 1" xmlns="http://www.w3.org/2000/svg" viewBox="0 0 242.07 263.6"><defs><style>.cls-1{fill:#6c2910;}.cls-2{fill:#fff;}</style></defs><circle class="cls-1" cx="114.68" cy="234.49" r="28.85"/><path class="cls-2" d="M112,235.22v-2.28h3a10.43,10.43,0,0,1,2.71.33,6.15,6.15,0,0,1,2.11,1,4.4,4.4,0,0,1,1.36,1.61,4.85,4.85,0,0,1,.48,2.2,5.42,5.42,0,0,1-.56,2.48,5.19,5.19,0,0,1-1.57,1.83,7.24,7.24,0,0,1-2.35,1.14,10.49,10.49,0,0,1-2.93.39,9.14,9.14,0,0,1-2.47-.34,7.15,7.15,0,0,1-2.26-1,5.35,5.35,0,0,1-1.64-1.8,5.16,5.16,0,0,1-.62-2.62h4.6a1.92,1.92,0,0,0,.35,1.14,2.45,2.45,0,0,0,.93.81,2.72,2.72,0,0,0,1.26.3,3.06,3.06,0,0,0,1.44-.32,2.22,2.22,0,0,0,.9-.87,2.35,2.35,0,0,0,.32-1.21,3.2,3.2,0,0,0-.34-1.6,1.94,1.94,0,0,0-1-.87,3.89,3.89,0,0,0-1.52-.28Zm0-3.41h2.23a2.83,2.83,0,0,0,1.41-.31,1.87,1.87,0,0,0,.82-.87,3.08,3.08,0,0,0,.27-1.34,2.37,2.37,0,0,0-.25-1.1,1.88,1.88,0,0,0-.77-.81,2.48,2.48,0,0,0-1.32-.31,2.66,2.66,0,0,0-1.06.23,2.25,2.25,0,0,0-.85.63,1.52,1.52,0,0,0-.33,1h-4.6a4.59,4.59,0,0,1,.93-2.89,6,6,0,0,1,2.46-1.85,8.41,8.41,0,0,1,3.3-.65,9.87,9.87,0,0,1,3.71.65,5.5,5.5,0,0,1,2.48,1.91,5.24,5.24,0,0,1,.89,3.11,4,4,0,0,1-.48,1.91,4.86,4.86,0,0,1-1.33,1.58,6.43,6.43,0,0,1-2,1.07,7.73,7.73,0,0,1-2.51.39h-3Z"/><path class="cls-1" d="M87.06,162.73c-1-2.58-1.83-4.61-2.47-6.71-2.71-8.89,0-16.16,7.88-21.11,2.29-1.45,5.91-2.12,6.61-4.43.78-2.57-3.22-3.32-4.73-5.3-2.75-3.59-3.45-7.31-1.83-11.49a3.06,3.06,0,0,1,2.69-2.23,2.7,2.7,0,0,1,3,1.71c1.64,4,5.09,5.66,8.85,6.7,4.17,1.15,8.44,1.91,12.65,2.9a28.21,28.21,0,0,1,4.25,1.3c5.29,2.19,6.06,6.08,2,10.05-2.87,2.78-6.42,4.6-9.82,6.64-4,2.39-4.38,4.29-1.16,7.6a57.61,57.61,0,0,0,22.94,14c4,1.38,8.83.37,13.28.31,2,0,.94-1.29.55-2a28.41,28.41,0,0,0-7.12-8.49c-1.74-1.44-3.42-3-1.58-5.22s3.75-.93,5.46.52a35.57,35.57,0,0,1,6.77,7.36c1,1.56,1.73,1.81,2.85.1a17,17,0,0,1,4.76-4.64c1.66-1.14,3.29-1.2,4.54.56s.57,3.08-.88,4.2a18,18,0,0,0-4.9,5.51c-.85,1.53-.54,2.22,1.33,2.2,4.71-.06,9.42-.08,14.13,0,1.93,0,2.21-.95,2.19-2.54-.05-5.58-.09-11.15,0-16.73,0-2-.85-2.58-2.59-2.75a25.89,25.89,0,0,1-4-.76c-13.16-3.47-18.08-11.5-15-24.68,3.42-14.58,7-29.12,12.55-43.08a68.75,68.75,0,0,1,4.49-9.36c4.73-8.08,10.22-8.1,15-.17,3.63,6,5.88,12.53,8,19.12,3.51,10.71,5.89,21.73,9,32.55,4,14.11-3,23.69-16.87,26-4,.67-5,2.09-4.74,5.85a102.52,102.52,0,0,1,0,13c-.13,2.71.6,3.73,3.48,3.6,5.07-.23,10.16,0,15.23-.08,2.1,0,4,.52,4,2.82.06,2.49-1.81,3.24-4.08,3.23-8.3,0-16.6,0-24.9,0H45.53c-1.12,0-2.24,0-3.35,0-2-.14-3.37-1.19-3.23-3.27.13-1.87,1.49-2.72,3.37-2.71,3.59,0,7.19-.08,10.78,0,2,.07,3.08-.48,2.82-2.68a22.55,22.55,0,0,1,0-2.6c0-2.85.71-6-.25-8.47-1.1-2.86-4.94-1.89-7.46-3-6.93-3-10.52-9.09-8.89-16.39C42,117.44,45,105.3,49.78,93.69a41.57,41.57,0,0,1,3.16-6.29c3.81-6.11,8.45-6,12.24.16a43.58,43.58,0,0,1,3.15,6.3c4.7,11.63,7.82,23.74,10.4,36,1.84,8.73-3.24,15.37-13.08,17.33-3,.59-4,1.64-3.69,4.55.42,3.52-1.52,8,.83,10.36,2.17,2.13,6.61.54,10.05.63C77.41,162.82,82,162.73,87.06,162.73Zm98.2-44.91c0,4.83,0,9.65,0,14.48,0,1-.46,2.23,1.33,2.51,6.58,1.05,15.1-5.63,15.24-12.28a26.59,26.59,0,0,0-1.07-6.56c-3.82-15.86-7.61-31.75-14.3-46.74-1-2.2-1.81-5.57-4.19-5.67-2.57-.11-2.95,3.48-4.22,5.5a9.18,9.18,0,0,0-.62,1.35c-6.69,15.92-10.69,32.64-14.54,49.39A10.58,10.58,0,0,0,167.05,131c2.6,2,5.79,2.69,8.89,3.55,2.64.73,3.38-.17,3.34-2.87-.15-9.4,0-18.81-.07-28.22,0-2.18.42-4.2,3-4.26s3.09,1.91,3.07,4.13C185.21,108.16,185.25,113,185.26,117.82ZM58.94,89.43a24.08,24.08,0,0,0-3.87,7.22c-4.19,10.6-6.89,21.65-9.54,32.7-1.56,6.48,1.11,10.44,7.64,11.91,2.19.5,2.81-.14,2.77-2.33-.11-6.43,0-12.86,0-19.29,0-2.41.28-4.86,3.27-4.77C62,115,62,117.42,62,119.62c0,6.43,0,12.86,0,19.29,0,1.09-.52,2.55,1.63,2.55,5.93,0,10.39-5.14,9.06-11-2.58-11.33-5.4-22.6-9.62-33.46C62.08,94.43,61.15,91.73,58.94,89.43Zm64.82,73.27c-5.29-3.55-9.82-6.28-13.34-10.27-5.72-6.49-4.83-12.43,2.54-16.89,2.83-1.71,5.87-3.12,8.55-5.82-5.52-2.11-11.06-2.38-16.54-4,2.09,4.92,1.53,7.17-2.52,10.17a60.84,60.84,0,0,1-5.68,3.49,14,14,0,0,0-2.63,22.48,2.59,2.59,0,0,0,1.58.76C104.69,162.71,113.67,162.7,123.76,162.7Z"/><path class="cls-1" d="M135.23,86c-1.12,4.87-2.07,9.18-3.1,13.48-.34,1.41.22,1.76,1.48,1.74,2.1,0,4.21.08,6.31,0a3.59,3.59,0,0,1,4.16,3.29Q146,115,148,125.61c.4,2.15.17,4.19-2.46,4.51-2.34.29-3.14-1.49-3.51-3.49-1-5.47-2.1-10.93-3-16.43-.36-2.15-1.08-3.32-3.54-3a45.8,45.8,0,0,1-6.31,0c-3.65-.09-4.7-1.36-3.95-4.87.87-4.06,1.83-8.11,3-13.15l-16.81,14.94c-.83.74-1.65,1.5-2.52,2.19-1.47,1.17-3,1.29-4.3-.17a2.86,2.86,0,0,1,.31-4.3c2.06-2,4.16-3.89,6.37-5.69,1.48-1.22,1.86-2-.1-3.16-3.69-2.26-7.28-4.7-10.78-7.25-1.71-1.25-2.73-.81-4.08.51-4.69,4.6-9.49,9.07-14.25,13.59-1.63,1.54-3.4,3.55-5.65,1.3s-.37-4,1.31-5.58c5.67-5.36,11.4-10.66,17-16.14,2.19-2.16,4-2.19,6.48-.46,4.84,3.43,9.89,6.57,14.76,10,1.52,1.07,2.46.95,3.77-.27,3.54-3.28,7.24-6.39,10.79-9.67,1.87-1.71,3.53-1.86,5.56-.23,6.74,5.45,13.56,10.8,20.35,16.19,1.71,1.35,3,3,1.24,5s-3.49,1-5.18-.35C146.85,95.14,141.25,90.72,135.23,86Z"/><path class="cls-1" d="M153.13,69.21c-3.1,0-6.2,0-9.29,0-6.28-.11-11.19-4.15-12.12-9.93A11.7,11.7,0,0,1,140,46.05a4.43,4.43,0,0,0,3.26-3.37c2.51-7.9,8-12.82,16.09-14.18,8.44-1.41,15.42,1.56,20.31,8.65,1.2,1.73,2.21,2,4.18,1.75,11.16-1.35,19.71,8.25,17,18.86-.56,2.15-1.34,4.29-4.14,3.58-2.61-.65-2.39-2.75-1.82-4.82a8.75,8.75,0,0,0-3-9.68,8.38,8.38,0,0,0-9.72-1.15c-3.38,1.74-4.83.5-6.13-2.66a13.84,13.84,0,0,0-13.8-8.77,14.22,14.22,0,0,0-12.93,9.53,19.85,19.85,0,0,0-.87,4.35c-.29,2.33-1.31,3.48-3.86,3.46-4.45,0-7,2.29-6.91,5.88.1,3.39,2.78,5.68,6.9,5.72q9.1.09,18.21,0c2.21,0,4.21.39,4.22,3s-2,3.09-4.19,3C159.57,69.17,156.35,69.21,153.13,69.21Z"/><path class="cls-1" d="M55.73,37A20.41,20.41,0,1,1,75.94,57.34,20.39,20.39,0,0,1,55.73,37Zm6-.18a14.37,14.37,0,1,0,28.73.13,14.37,14.37,0,0,0-28.73-.13Z"/><path class="cls-1" d="M45,33.91c2,.29,5.58-.93,5.55,3.05s-3.5,2.86-5.93,3c-.49,0-1,0-1.47,0-2.14,0-4.22-.37-4.32-2.91-.1-2.82,2.07-3.25,4.36-3.21Z"/><path class="cls-1" d="M107.53,33.91h2.21c1.93,0,3.52.7,3.62,2.83.1,2.32-1.47,3.21-3.58,3.26-1.48,0-3,0-4.43,0-2.09,0-3.79-.76-3.81-3s1.68-3.06,3.78-3.05C106.05,33.92,106.79,33.91,107.53,33.91Z"/><path class="cls-1" d="M79,5.78c0,1,.06,2,0,2.94a2.69,2.69,0,0,1-2.86,2.74,2.74,2.74,0,0,1-3-2.62A46.11,46.11,0,0,1,73.05,3c.06-2,1.13-3.39,3.16-3.33s2.88,1.59,2.86,3.57c0,.86,0,1.72,0,2.58Z"/><path class="cls-1" d="M79.07,68.56c-.21,2,.87,5.6-3,5.6s-3-3.44-3.08-5.94c0-.73,0-1.47,0-2.21.06-2.11.89-3.69,3.23-3.6,2.17.07,2.82,1.64,2.81,3.58Z"/><path class="cls-1" d="M100.44,9.73a2.81,2.81,0,0,1,2.39,4.45,25,25,0,0,1-5.19,5.19c-1.87,1.38-4.52-.24-4.52-2.49C93.12,15,98.52,9.69,100.44,9.73Z"/><path class="cls-1" d="M103.36,61.45c-.34,1.94-1.71,3.39-3.78,2.51a12.23,12.23,0,0,1-6.15-6.1c-1-2.13.5-3.55,2.66-3.83C98,53.79,103.35,59.25,103.36,61.45Z"/><path class="cls-1" d="M51.84,9.73c2,0,7.19,5.23,7.15,7.2a2.84,2.84,0,0,1-4.46,2.41,24.09,24.09,0,0,1-5.15-5.18A2.82,2.82,0,0,1,51.84,9.73Z"/><path class="cls-1" d="M59,56.85c-.05,2-5.06,7.16-6.89,7.29-2.18.16-4-1.94-2.93-3.88a12.6,12.6,0,0,1,6.18-6C57.43,53.4,58.74,54.83,59,56.85Z"/></svg>