<svg id="Capa_1" data-name="Capa 1" xmlns="http://www.w3.org/2000/svg" viewBox="0 0 249.48 199.01"><defs><style>.cls-1{fill:#c5875e;}</style></defs><path class="cls-1" d="M64.82,99.63v86a21.7,21.7,0,0,1-.08,3.33c-.39,2.53-1.91,4.05-4.51,4A4.19,4.19,0,0,1,56,189.06a20.53,20.53,0,0,1-.08-3.33V13.38c0-.86,0-1.73,0-2.59.18-2.74,1.61-4.48,4.39-4.52S64.56,8,64.79,10.68c.09,1.11,0,2.23,0,3.34Z"/><path class="cls-1" d="M186.37,99.22V11.38c0-3,1.37-5.13,4.55-5.1,3,0,4.31,2,4.36,4.92,0,.74,0,1.48,0,2.22V185.77c0,.74,0,1.48,0,2.22-.05,2.89-1.38,4.89-4.36,4.92-3.18,0-4.54-2-4.55-5.1V99.22Z"/><path class="cls-1" d="M130,28.37c0,2.1.16,4.21,0,6.29a4.1,4.1,0,0,1-4.41,4.08,4.05,4.05,0,0,1-4.34-4.14c-.18-4.07-.16-8.15,0-12.22a4.07,4.07,0,0,1,4.24-4.25c2.78-.08,4.35,1.58,4.56,4.31.15,2,0,3.95,0,5.93Z"/><path class="cls-1" d="M130,63.9c0,2.1.15,4.22,0,6.3a4.11,4.11,0,0,1-4.37,4.12,4,4,0,0,1-4.38-4.09,123,123,0,0,1,0-12.59c.14-2.53,1.92-4,4.51-3.94A4.06,4.06,0,0,1,130,57.61,57.35,57.35,0,0,1,130,63.9Z"/><path class="cls-1" d="M130,99.61c0,1.85.05,3.71,0,5.56-.1,2.9-1.57,4.77-4.54,4.72-2.76,0-4.26-1.83-4.32-4.57q-.14-5.75,0-11.48c.07-2.74,1.58-4.52,4.35-4.54,3,0,4.42,1.86,4.51,4.75C130.09,95.91,130,97.76,130,99.61Z"/><path class="cls-1" d="M130,135.16c0,2,.11,4,0,5.93-.19,2.73-1.71,4.42-4.49,4.39a4.06,4.06,0,0,1-4.31-4.18q-.24-6.11,0-12.22a4.07,4.07,0,0,1,4.28-4.21c2.78,0,4.32,1.64,4.51,4.37C130.14,131.2,130,133.19,130,135.16Z"/><path class="cls-1" d="M130,171c0,1.85.07,3.71,0,5.55-.13,2.73-1.57,4.51-4.35,4.55s-4.39-1.65-4.48-4.38q-.21-5.93,0-11.86c.1-2.73,1.74-4.42,4.51-4.36s4.2,1.84,4.32,4.57C130.11,167,130,169,130,171Z"/></svg>