<svg id="Capa_1" data-name="Capa 1" xmlns="http://www.w3.org/2000/svg" viewBox="0 0 249.48 199.01"><defs><style>.cls-1{fill:#9c956f;}.cls-2{fill:#facb74;}.cls-3{fill:#d8d29b;}.cls-4{fill:#d1bbb4;}.cls-5{fill:#6c2911;}.cls-6{fill:#c6875e;}.cls-7{fill:#588f28;}.cls-8{fill:#ce7342;}.cls-9{fill:#3b0f06;}.cls-10{fill:#38864e;}.cls-11{fill:#07591f;}.cls-12{fill:#522e0d;}.cls-13{fill:#d5a069;}.cls-14{fill:#5f3824;}.cls-15{fill:#482d24;}</style></defs><path class="cls-1" d="M130.7,176.15c2.26-.25,4.54-.42,6.79-.76a68.11,68.11,0,0,0,27-10.22c.43-.28.86-.58,1.3-.86a2.2,2.2,0,0,1,3.18.43,2.25,2.25,0,0,1-.65,3.28,61.11,61.11,0,0,1-6.59,4.07A70.22,70.22,0,0,1,138.45,180a73,73,0,0,1-22.81-.22,70.54,70.54,0,0,1-25.49-9.55c-1.58-1-3.11-2-4.65-3.06a2.43,2.43,0,0,1-1.13-2.9c.43-1.46,2.06-1.91,3.49-1,2.77,1.83,5.57,3.61,8.51,5.16a68.62,68.62,0,0,0,19.74,6.68c2.8.52,5.65.56,8.45,1l-.09.08-.08.11C126.49,176.17,128.61,176.54,130.7,176.15Z"/><path class="cls-1" d="M52.19,109.36c1-20.35,8.44-37.7,24.19-51A61.61,61.61,0,0,1,100.6,45.68a2.79,2.79,0,0,1,2.81.32,2.19,2.19,0,0,1-1,3.75,74.94,74.94,0,0,0-11.3,4.41A60,60,0,0,0,67.91,74.48a66.1,66.1,0,0,0-10.16,25,60.75,60.75,0,0,0-1.15,11.18c0,1.86-.75,2.69-2.25,2.66s-2.15-.93-2.16-2.75Z"/><path class="cls-2" d="M221,135c-.33.43-.8.25-1.21.25l-58.7,0c-.49,0-1.11.2-1.4-.39s.11-1.09.42-1.53a15.18,15.18,0,0,1,3.93-3.9,3.77,3.77,0,0,0,1.19-1.16,36.67,36.67,0,0,1,11.86-3.39,25.59,25.59,0,0,0,8-2.5c1.7-.83,3.39-1.7,5.09-2.53a4.17,4.17,0,0,1,2.33-.65l.21,0a1.57,1.57,0,0,1,.44,1.3,52.55,52.55,0,0,1-.39,7.73,2.14,2.14,0,0,1-1.08,1.06c-3.08,1.94-6.39,3.42-9.62,5a5.34,5.34,0,0,1-2.23.5c.93,0,1.84-.22,2.78-.21h35.71c.69,0,1.38,0,2.07.08A1,1,0,0,1,221,135Z"/><path class="cls-1" d="M185.56,78.42a60.79,60.79,0,0,0-8.63-11.49,68.33,68.33,0,0,0-16.52-12.55c-.73-.4-1.46-.83-1.66-1.71a2.16,2.16,0,0,1,3.15-2.5,65.79,65.79,0,0,1,12.55,8.17A64.14,64.14,0,0,1,188.86,75c.18.29.38.56.62.93.35-.81.63-1.53,1-2.22a1.9,1.9,0,0,1,2.33-1.16A1.72,1.72,0,0,1,194,74.79c-.64,2.85-1.35,5.7-2.14,8.51a1.91,1.91,0,0,1-2.55,1.17c-2.87-1-5.72-2.15-8.56-3.27a1.69,1.69,0,0,1-1-2.21,1.65,1.65,0,0,1,2.05-1.32C182.94,77.84,184.11,78.13,185.56,78.42Z"/><path class="cls-2" d="M44.48,130.36c.59-.15.44-.64.44-1,0-1.31,0-2.62,0-3.93a27.47,27.47,0,0,1,3.42-4,7.73,7.73,0,0,1,2.32-2.16c1.39.52,2.17,1.76,3.13,2.76a17.25,17.25,0,0,0,2.82,2.78,1.35,1.35,0,0,1,.59,1,51.9,51.9,0,0,1,0,6.6c-.84,2.19-.84,2.19,1.58,2.19,4.53,0,9.06,0,13.59,0a2.84,2.84,0,0,1,2,.38,17.51,17.51,0,0,1,.12,6.65c-1,1.16-2.3.75-3.53.75a1.49,1.49,0,0,1-.43-1.28c0-.55,0-1.11,0-1.66s-.15-1.29-.93-1.3-.8.71-.86,1.3c-.11,1,.22,2-.33,2.88a1.76,1.76,0,0,1-1.25.18c-4.58-.42-9-1.67-13.43-2.73a2,2,0,0,1-1-.53,2.54,2.54,0,0,1-.3-1.48c0-.6,0-1.21,0-1.8-.1-1.12-.67-1.79-1.47-1.79s-1.26.62-1.37,1.83c-.09.95.32,2-.49,2.81a6.67,6.67,0,0,1-4-.07,1.69,1.69,0,0,1-.38-1.19C44.5,135.12,44.54,132.74,44.48,130.36Z"/><path class="cls-3" d="M70.88,142.2c1.08-.42,2.28,0,3.35-.5,1.33-.7,2.84-.55,4.24-.88,1.24-.3,2.48-.54,3.72-.77a17.13,17.13,0,0,1,4.21-.61,19.35,19.35,0,0,1,8.9.89,2.75,2.75,0,0,1,1.53,1.09,2.16,2.16,0,0,1,1.47,1.49c.15.43.18,1-.5,1.08a3,3,0,0,0-1.16-.09h-62a3.24,3.24,0,0,0-1,.07,2.75,2.75,0,0,1,1.18-3.56c.37-.21.77-.36,1.15-.54a1.69,1.69,0,0,1,1-.51,34.46,34.46,0,0,1,7.29-1,1.13,1.13,0,0,1,.73.2h4.13a3.79,3.79,0,0,1,3.61.5c5.14,1.25,10.24,2.68,15.54,3.12A2.37,2.37,0,0,1,70.88,142.2Z"/><path class="cls-2" d="M221,135h-.52c-1.78-.65-2.79-2.26-4.19-3.37-1.88-1.51-3.68-3.12-5.67-4.49-4-2.77-8.29-3.36-12.83-1.29-.53.24-1.11.83-1.72.08a3.82,3.82,0,0,1-.37-1.88,38.63,38.63,0,0,0-.21-5,1.64,1.64,0,0,1,.41-1.67c1.26-.64,2.51-1.32,3.8-1.92,4.28-2,8.12-1.22,11.59,1.86a30.58,30.58,0,0,1,9.22,14.83C220.74,133,221.57,133.88,221,135Z"/><path class="cls-1" d="M193.2,99.42a44,44,0,0,0-5.85,7.52c-.2.33-.42.65-.63,1-.5.75-.83.42-1-.21a7.18,7.18,0,0,1,1.11-6,12.87,12.87,0,0,1,3-3,29.47,29.47,0,0,0-7.82,2.87c-.32.16-.66.62-1,.29s-.08-.84.1-1.2a8.87,8.87,0,0,1,7.6-5c.54,0,1.09,0,1.89,0A29.14,29.14,0,0,0,186.81,93c-.42-.3-.88-.54-1.3-.84s-1.18-.49-1-1,1-.53,1.57-.53a9.3,9.3,0,0,1,7.05,3.3c.51-.49.41-1.15.6-1.7a7.84,7.84,0,0,1,7.14-5.47.86.86,0,0,1,.92.34c.14.31-.21.54-.4.76-1.33,1.47-2.66,2.92-3.95,4.49a11.09,11.09,0,0,1,5.32-.47A7.29,7.29,0,0,1,207,94.19c.24.26.67.57.43,1s-.64.18-1,.14a22.49,22.49,0,0,0-7.09.26,5.77,5.77,0,0,0-1.47.49,15,15,0,0,1,3.67,1.25,6.72,6.72,0,0,1,3.59,4.79c.07.39.3.93-.13,1.19s-.72-.17-1-.38a34.54,34.54,0,0,0-5.39-3.07c-1.15-.48-2.32-.9-3.49-1.34C194.07,98,193.65,98.75,193.2,99.42Z"/><path class="cls-4" d="M86.37,139.6l-4,.78c-.63-.53-.4-1.27-.44-1.93s0-1.29-.06-1.93-.39-1.26-1.17-1.31a1.39,1.39,0,0,0-1.5,1.15,12.08,12.08,0,0,0-.14,2.82c0,.67.13,1.39-.36,2a23.53,23.53,0,0,1-4.43.54l0-6.79a1.34,1.34,0,0,0-.37-1.6c-2-1.71-3.46-3.95-5.78-5.28a.58.58,0,0,1-.22-.45c.18-.78-.19-1.62.27-2.36a1.34,1.34,0,0,1,.65-.2,32.71,32.71,0,0,1,3.57,0,1.61,1.61,0,0,1,1.4.43c.42.36.91.2,1.37.2,3.37,0,6.74.05,10.1,0,1,0,1.25.32,1.23,1.27,0,2.35,0,4.71,0,7.07a11.25,11.25,0,0,1,.13,5.5Z"/><path class="cls-5" d="M192.46,119.14c-4.22,1.68-8,4.43-12.47,5.47-2.62.6-5.3,1-7.94,1.54a28.14,28.14,0,0,0-5.85,2c-.3.13-.62.61-1,.1a33.31,33.31,0,0,1,9.74-10.72C181.06,113.32,187.06,114.22,192.46,119.14Z"/><path class="cls-6" d="M73.72,125.4l-5.18-.09a11.59,11.59,0,0,0-2.5-2.86c-.72-.69-.89-1.3-.07-2a4.12,4.12,0,0,1,3.94-1.84c3,.16,6,0,9,0a2.59,2.59,0,0,1,1.79.58c1.92,1.58,3.87,3.15,5.81,4.71.34.28.78.52.58,1s-.72.38-1.13.38Z"/><path class="cls-6" d="M66,120.46c-.52.79-.26,1.32.42,1.91s1.48,1.63,2.27,2.39c.38.37-.08.37-.12.55l-.49.11a2.13,2.13,0,0,1-1.59.38q-3.94,0-7.89,0a2.22,2.22,0,0,1-1.7-.45c-1.94-1.19-3.18-3.11-4.83-4.6-.48-.44-.94-.89-1.41-1.33s-1.18-.58-1.1-1.4c.28-.59.82-.37,1.26-.37,3.32,0,6.63.1,10,.11a2.37,2.37,0,0,1,2,.87c.51.63,1.19,1.13,1.7,1.77S65.44,121.07,66,120.46Z"/><path class="cls-5" d="M155.09,61.61c.36.51.63,1-.25,1.26a3.72,3.72,0,0,0-1.41-.09H111.19a3.82,3.82,0,0,1-1.54-.11c-.39-.4-.26-.75.11-1.08a5.66,5.66,0,0,1,2.52-.35q10,0,20,0c1.11.12,1.57-.38,1.47-1.49a20,20,0,0,1,0-2.05,3.81,3.81,0,0,1,1.76-3.37A3.63,3.63,0,0,1,141,57.86c-.05.55,0,1.11,0,1.67,0,1.61,0,1.61,1.66,1.71,3.27,0,6.54,0,9.81,0A7.38,7.38,0,0,1,155.09,61.61Z"/><path class="cls-4" d="M155.09,61.61l-12.63-.09c-.32-.36-.39-.71.09-1a7.6,7.6,0,0,0,3.31.4c1.85,0,3.71,0,5.57,0,1,0,1.45-.42,1.45-1.46,0-5,0-9.93,0-14.9,0-1.32-.17-1.45-1.68-1.45-5.35,0-10.71,0-16.07,0-3.58,0-7.15-.4-10.74-.27-1.94.08-2,.09-2,2.08,0,3.15,0,6.3,0,9.46,0,.63.11,1.31-.47,1.8-.83-.23-.75-1-.83-1.56a34.94,34.94,0,0,0-.73-4.31,35.93,35.93,0,0,1,.05-6.8,35.78,35.78,0,0,0,.1-3.59,3,3,0,0,1,.31-1.62.94.94,0,0,1,1.17-.11,2.25,2.25,0,0,1,.35,1.67c0,.64.46.76,1,.81s1,0,1.55,0h27.84c.75,0,1.57-.19,2.19.47-.51.31-.54.78-.53,1.32,0,5.89,0,11.78,0,17.67A1.41,1.41,0,0,0,155.09,61.61Z"/><path class="cls-5" d="M154.66,41.18h-32c-1,0-1.38-.38-.94-1.35a2.79,2.79,0,0,1,2.1-.42h25.75a4.7,4.7,0,0,0,.65,0c.49-.06,1.16.24,1.42-.28s-.39-.79-.59-1.21c-.91-1.92-2.41-2.41-4.51-2.38-7.59.12-15.18.05-22.77,0a3.58,3.58,0,0,1-2.25-.38.9.9,0,0,1-.29-.86.61.61,0,0,1,.47-.47c3,0,6-.06,9-.07,6.12,0,12.24,0,18.36,0a2,2,0,0,1,1.91,1c1.12,1.63,2.3,3.22,3.45,4.82C154.87,40.08,155.24,40.59,154.66,41.18Z"/><path class="cls-6" d="M193.2,99.42c0-.62.09-1.22.75-1.46a.85.85,0,0,1,1.13.54l.69,16.48c0,.77.06,1.54.1,2.32.16,3,.09,5.91.46,8.85-1.08,1.07-2.21,2.07-3.86,2.07-.06-3,.45-6.06.2-9.1.11-4.64.21-9.28.33-13.93a5.6,5.6,0,0,1,.18-1.91c.31.32.09.73.2,1.14-.12-1.69.13-3.34-.14-5Z"/><path class="cls-1" d="M44.94,138.59c-3,.3-6,.75-9,1.28-1.63-2.56-1-4.82,1.63-6.21.55-.29,1.12-.55,1.29-1.19.43-1.67,1.67-2.2,3.21-2.23.82,0,1.64.07,2.45.12.61.22.46.74.46,1.19C44.94,133.9,44.94,136.24,44.94,138.59Z"/><path class="cls-1" d="M96.83,141.42a17.59,17.59,0,0,0-9.52-1.69c-.34,0-.67.23-.94-.13l.06,0a31.32,31.32,0,0,0,.11-4.44,2,2,0,0,1,.38-1.42,2.49,2.49,0,0,1,3.23-.65,1.59,1.59,0,0,0,1.08.2A2.91,2.91,0,0,1,95,135.56a3.61,3.61,0,0,0,1.18,1.86C97.55,138.5,97.34,140,96.83,141.42Z"/><path class="cls-5" d="M110.3,28.47c-.52-.11-1.18,0-1.29-.79s.41-1,.9-1.26c1.62-1,3.23-2,4.87-2.91A1.32,1.32,0,0,0,115.5,22c0-.58-.1-1-.84-1-.34,0-.51-.26-.49-.62s.07-.58.38-.57c.77,0,.78-.45.79-1a.6.6,0,0,1,.66-.64c.45,0,.56.3.57.69,0,0,0,.09,0,.12-.27.89.86.66,1,1.26.21.87-1,.54-1,1.28s0,1.28.77,1.73c1.66.91,3.21,2,4.82,3,.59.37,1.3.66,1.08,1.53s-1,.45-1.54.61a1.72,1.72,0,0,1-1.16.35c-3,.08-6.07.08-9.11,0A1.75,1.75,0,0,1,110.3,28.47Z"/><path class="cls-4" d="M120.64,50.46c.7,1.84.61,3.82,1,5.71.71.92.36,2,.4,3,.07,1.69.08,1.75,1.76,1.76h6.34c1.62,0,1.68-.07,1.71-1.66A6.93,6.93,0,0,1,132,58c.09-.36.09-.82.66-.79a5,5,0,0,1-.1,4.31l-14.22.07h-8.53c.51-.32.51-.82.51-1.35,0-2.58-.09-5.17,0-7.75.17-3.44,0-6.87,0-10.3,0-1.28.13-2.57.2-3.86a.79.79,0,0,1,1.15,0A3.56,3.56,0,0,1,112,40.4q0,8.94,0,17.87c0,2.65,0,2.65,2.58,2.65h3.76c1.63,0,1.84-.21,1.86-1.89,0-2.25,0-4.49,0-6.74C120.22,51.66,120.11,51,120.64,50.46Z"/><path class="cls-5" d="M111.37,38.32H110.3c-.56-.06-1.28,0-1.28-.81s.76-.71,1.3-.8a1.57,1.57,0,0,1,1.16-.36c3.27-.09,6.55-.08,9.82,0a2.59,2.59,0,0,1,.88.08c.6.22,1.15.56.93,1.29a.9.9,0,0,1-1.4.59h-1A22.86,22.86,0,0,1,111.37,38.32Z"/><path class="cls-7" d="M33.56,144c.42-.34.91-.19,1.37-.19h61.5c.46,0,1-.16,1.37.21q-7.77,0-15.55,0h-47C34.68,144,34.12,144,33.56,144Z"/><path class="cls-8" d="M49.53,118c.37.47.74.93,1.1,1.4-2,1.94-3.6,4.18-5.71,6-1.2-.44-1.34-.78-.56-1.67C46.06,121.8,47.81,119.92,49.53,118Z"/><path class="cls-9" d="M109.65,62.66h44.22c.34,0,.7-.09,1,.22q-13.2,0-26.39,0-8.73,0-17.47,0C110.54,62.89,110,63.11,109.65,62.66Z"/><path class="cls-4" d="M111.56,36.71h-1c0-2.75,0-5.49,0-8.24h1.06a24.89,24.89,0,0,1,.5,7.7C112.05,36.42,111.79,36.58,111.56,36.71Z"/><path class="cls-4" d="M120.89,28.45h1v5.41l-.22.27c-.49.57.15,1.14,0,1.71-.08.29-.13.61-.49.68a.5.5,0,0,1-.61-.5C120.5,33.5,120.06,31,120.89,28.45Z"/><path class="cls-10" d="M130.7,176.15l.49.11v.09h-7.4c.16-.3.52-.06.76-.2Z"/><path class="cls-11" d="M86.92,133.77c-.49,1.45-.14,2.94-.25,4.41,0,.49.18,1-.24,1.45v-5.69Z"/><path class="cls-12" d="M193.24,99.45c.58,1.78,0,3.6.09,5.41l-.15-1.58Z"/><path class="cls-1" d="M192.47,128.22c1.4-.49,2.53-1.47,3.86-2.07a13.58,13.58,0,0,1,6.85-2,13.26,13.26,0,0,1,7.55,2.6,87.46,87.46,0,0,1,9.72,8.2H179.23A87,87,0,0,0,192.47,128.22Z"/><path class="cls-6" d="M68,127.71A5.43,5.43,0,0,1,70,129.15c1.43,1.43,2.89,2.84,4.36,4.22.69.65.71,1.14-.2,1.54-5.52,0-11,0-16.54,0-.61,0-1.4.34-1.77-.39s.38-1.06.68-1.55c.11-.18.21-.37.32-.56a12.93,12.93,0,0,1,2.86-3.79,2.88,2.88,0,0,1,1.29-.83A12.63,12.63,0,0,1,68,127.71Z"/><path class="cls-13" d="M68,127.71c-1.68,0-3.36,0-5,0-2.48,0-3.64,1.82-5,3.45a5.25,5.25,0,0,1-1.12,1.23c0-2.35,0-4.7,0-7.05l11.18.07A2.89,2.89,0,0,1,68,127.71Z"/><path class="cls-5" d="M52.68,139.08l-3.61-.5c0-1,0-2.06,0-3.09a1.64,1.64,0,0,1,1.69-1.86,1.7,1.7,0,0,1,1.87,1.72C52.75,136.59,52.67,137.84,52.68,139.08Z"/><path class="cls-5" d="M49.13,128.48c0-.48,0-1,0-1.43a1.4,1.4,0,0,1,1.47-1.47,1.38,1.38,0,0,1,1.5,1.44c.07.94,0,1.9,0,2.84,0,.68-.26.95-.92.9a4.51,4.51,0,0,0-.9,0c-1,.13-1.34-.3-1.21-1.25a8.85,8.85,0,0,0,0-1Z"/><path class="cls-5" d="M70.88,142.2H68.22c0-1.08,0-2.16,0-3.23,0-.87.31-1.44,1.26-1.42A1.26,1.26,0,0,1,70.83,139C70.86,140,70.87,141.12,70.88,142.2Z"/><path class="cls-5" d="M64.19,138.7c.09.68,0,1.2-1.12,1.19s-1-.61-1-1.32,0-1.63,1.13-1.6S64.17,137.83,64.19,138.7Z"/><path class="cls-5" d="M78.66,141.16c0-1.46,0-2.93,0-4.4a1.9,1.9,0,0,1,1.84-2.06,1.85,1.85,0,0,1,1.82,2.06c0,1.2,0,2.41,0,3.62Z"/><path class="cls-5" d="M80.46,129.41c-.29.38.61,1.38-.71,1.42-.78,0-1.24-.11-1.1-1a6.29,6.29,0,0,0,0-1.15c0-.62.13-1.15.85-1.17s1,.51.95,1.19C80.45,128.89,80.46,129.1,80.46,129.41Z"/><path class="cls-5" d="M84.13,129.53v.9c0,.59-.42.54-.8.53s-.82.09-.81-.52,0-1,0-1.53.12-1.16.87-1.12.79.53.75,1.1C84.12,129.1,84.13,129.32,84.13,129.53Z"/><path class="cls-6" d="M142.46,60.58v.94c-1.85.15-1.85.15-1.85-1.67,0-.78,0-1.55,0-2.33a3.15,3.15,0,0,0-4.36-3.16l-.61.21c-.6-.13-1.24-.2-1.31-1a3.84,3.84,0,0,1,3.84-1.27,5.23,5.23,0,0,1,4.6,5.38C142.77,58.64,143,59.66,142.46,60.58Z"/><path class="cls-6" d="M134.28,53.81a2.41,2.41,0,0,1,1.36.76,3.59,3.59,0,0,0-1.53,3.35c0,.73-.07,1.48,0,2.2.17,1.36-.44,1.68-1.62,1.38,0-1.43,0-2.86,0-4.29A2.75,2.75,0,0,1,134.28,53.81Z"/><path class="cls-2" d="M134.28,53.81a4.39,4.39,0,0,0-1.78,3.4,8.72,8.72,0,0,0-.17,3.18c0,.73-.28,1-1,1q-4.32,0-8.64,0c-.81,0-1.06-.28-1-1.05,0-1.38,0-2.75,0-4.13.41-.39.25-.89.25-1.35,0-3.62,0-7.24,0-10.87,0-1.19.36-1.59,1.56-1.54,9.56.36,19.13.27,28.69.26.94,0,1.16.33,1.15,1.2q0,8.16,0,16.3c0,.9-.25,1.21-1.16,1.19-2.81,0-5.61,0-8.41,0a1.14,1.14,0,0,1-1.28-.78c0-1-.05-2,0-3a4.61,4.61,0,0,0-2.74-4.46A4.67,4.67,0,0,0,134.28,53.81Z"/><path class="cls-2" d="M111.57,38.32h9.31c.14,4.05-.45,8.08-.24,12.13,0,3,0,6,0,9,0,1.7-.16,1.83-1.85,1.83-2,0-4-.06-5.94,0-1,0-1.31-.32-1.3-1.32C111.58,52.8,111.57,45.56,111.57,38.32Z"/><path class="cls-6" d="M121.9,38.32c.58,0,1.23-.15,1.18-.84s-.78-.74-1.38-.75a2.18,2.18,0,0,1,0-1.82,1.89,1.89,0,0,0,1.23.26c8.5,0,17,0,25.51,0a2.2,2.2,0,0,1,2.21,1.15c.68,1.13,1.51,2.18,2.48,3.55H122Z"/><path class="cls-2" d="M121.74,34.91c0,.6,0,1.21,0,1.82l-10.14,0a4.41,4.41,0,0,0,.21-2.77,41.91,41.91,0,0,1-.21-5.48h9.33v7.84c.87-.6.11-1.58.83-2.15Z"/><path class="cls-6" d="M112.09,27.07l1.11-.69c3.43-2.21,3.69-2.18,7,.69Z"/><path class="cls-5" d="M130.05,47.45c-.15.53.39,1.54-.27,1.78a8.48,8.48,0,0,1-2.81.07.32.32,0,0,1-.31-.35,12,12,0,0,1,.11-3.33,1.55,1.55,0,0,1,1.88-1,1.46,1.46,0,0,1,1.41,1.56C130,46.56,130.05,47,130.05,47.45Z"/><path class="cls-5" d="M139.61,47.5c-.13.51.34,1.43-.2,1.71-.82.42-1.85.14-2.79.1-.43,0-.36-.4-.36-.69,0-.82,0-1.63,0-2.45a1.52,1.52,0,0,1,1.64-1.61,1.55,1.55,0,0,1,1.71,1.68C139.62,46.62,139.61,47,139.61,47.5Z"/><path class="cls-5" d="M145.79,47.34c0-2,.45-2.78,1.67-2.76s1.76.86,1.72,2.77c0,.63.33,1.54-.19,1.82-.81.44-1.84.17-2.78.13-.43,0-.42-.36-.42-.66Z"/><path class="cls-5" d="M118.06,44.4c0,2.18,0,2.18-2.16,2.18-1.86,0-1.86,0-1.89-1.82,0-.6-.05-1.21,0-1.81a2,2,0,1,1,4.06,0C118.08,43.45,118.06,43.93,118.06,44.4Z"/><path class="cls-14" d="M118.37,33.19c0,2.43,0,2.44-2.42,2.43-1.93,0-1.66.2-1.7-1.74,0-.69-.06-1.38,0-2.07a2.06,2.06,0,0,1,2.14-2.1,2,2,0,0,1,2,2.19C118.38,32.33,118.37,32.76,118.37,33.19Z"/><path class="cls-15" d="M169.46,141.27l2.38,7.69.34,1.88h-1.35l-3.36-9.57Zm2.21,7.69,2.38-7.69h2l-3.38,9.57h-1.34Z"/><path class="cls-15" d="M180.77,146.51v1h-1.1a3,3,0,0,0-.71.08,1.21,1.21,0,0,0-.51.24.91.91,0,0,0-.29.36,1.13,1.13,0,0,0-.1.49.94.94,0,0,0,.12.47.86.86,0,0,0,.35.33,1.2,1.2,0,0,0,.55.12,1.59,1.59,0,0,0,1.34-.64,1.06,1.06,0,0,0,.2-.51l.5.75a2.49,2.49,0,0,1-.28.57,2.46,2.46,0,0,1-.47.56,2.32,2.32,0,0,1-.7.44,2.46,2.46,0,0,1-.94.17,2.66,2.66,0,0,1-1.24-.28,2.16,2.16,0,0,1-.86-.75,2,2,0,0,1-.31-1.09,2.26,2.26,0,0,1,.21-1,1.91,1.91,0,0,1,.62-.74,3,3,0,0,1,1-.45,6,6,0,0,1,1.41-.15Zm-.25,2.82v-3.28a1.51,1.51,0,0,0-.12-.63A.94.94,0,0,0,180,145a1.39,1.39,0,0,0-.65-.14,1.44,1.44,0,0,0-.61.12.94.94,0,0,0-.4.33.88.88,0,0,0-.14.49h-1.74a1.8,1.8,0,0,1,.21-.84,2.35,2.35,0,0,1,.6-.71,3.11,3.11,0,0,1,.94-.49,4,4,0,0,1,1.24-.18,3.62,3.62,0,0,1,1.44.28,2.24,2.24,0,0,1,1,.82,2.43,2.43,0,0,1,.36,1.37v3.1a5.71,5.71,0,0,0,.07.91,2.84,2.84,0,0,0,.21.66v.11h-1.77a2.61,2.61,0,0,1-.19-.69A5.79,5.79,0,0,1,180.52,149.33Z"/><path class="cls-15" d="M185.68,140.74v10.1h-1.74v-10.1Z"/><path class="cls-15" d="M189.17,140.74v10.1h-1.74v-10.1Z"/><path class="cls-15" d="M194,151a3.9,3.9,0,0,1-1.45-.26,3.1,3.1,0,0,1-1.09-.74,3.21,3.21,0,0,1-.69-1.1,3.68,3.68,0,0,1-.24-1.35v-.26a4.66,4.66,0,0,1,.23-1.49,3.4,3.4,0,0,1,.67-1.16,2.86,2.86,0,0,1,1-.75,3.5,3.5,0,0,1,2.67,0,2.57,2.57,0,0,1,1,.71,3,3,0,0,1,.58,1.1,4.87,4.87,0,0,1,.2,1.42v.73h-5.57v-1.2h3.86v-.13a2.06,2.06,0,0,0-.16-.76,1.19,1.19,0,0,0-.44-.55,1.39,1.39,0,0,0-.79-.21,1.31,1.31,0,0,0-.67.17,1.32,1.32,0,0,0-.47.47,2.27,2.27,0,0,0-.28.73,4.45,4.45,0,0,0-.09.93v.26a2.73,2.73,0,0,0,.12.83,1.75,1.75,0,0,0,.36.66,1.69,1.69,0,0,0,.58.44,1.86,1.86,0,0,0,.77.15,2.31,2.31,0,0,0,1-.21,2.22,2.22,0,0,0,.77-.64l.87.91a2.71,2.71,0,0,1-.6.63,2.92,2.92,0,0,1-.91.49A3.53,3.53,0,0,1,194,151Z"/><path class="cls-15" d="M201.11,147.37v-.14a5.65,5.65,0,0,1,.19-1.48,3.51,3.51,0,0,1,.55-1.15,2.41,2.41,0,0,1,.88-.74,2.46,2.46,0,0,1,1.17-.27,2.34,2.34,0,0,1,1.12.26,2.43,2.43,0,0,1,.81.73,3.76,3.76,0,0,1,.54,1.12,7.42,7.42,0,0,1,.3,1.42v.38a7,7,0,0,1-.3,1.38,3.7,3.7,0,0,1-.54,1.11,2.44,2.44,0,0,1-.82.72,2.34,2.34,0,0,1-1.12.26,2.49,2.49,0,0,1-1.17-.27,2.52,2.52,0,0,1-.87-.76,3.56,3.56,0,0,1-.55-1.14A5.43,5.43,0,0,1,201.11,147.37Zm1.75-.14v.14a4,4,0,0,0,.08.86,2.07,2.07,0,0,0,.25.7,1.25,1.25,0,0,0,.46.48,1.29,1.29,0,0,0,.68.17,1.39,1.39,0,0,0,.84-.23,1.45,1.45,0,0,0,.52-.62,3,3,0,0,0,.24-.9v-1a3.37,3.37,0,0,0-.14-.73,1.88,1.88,0,0,0-.3-.58,1.5,1.5,0,0,0-.48-.38,1.54,1.54,0,0,0-.67-.14,1.23,1.23,0,0,0-.68.18,1.33,1.33,0,0,0-.46.48,2.28,2.28,0,0,0-.26.72A4.06,4.06,0,0,0,202.86,147.23Zm2.82,2.1v-8.59h1.75v10.1h-1.58Z"/><path class="cls-15" d="M212.19,151a3.9,3.9,0,0,1-1.45-.26,3.14,3.14,0,0,1-1.1-.74,3.21,3.21,0,0,1-.69-1.1,3.68,3.68,0,0,1-.24-1.35v-.26a4.39,4.39,0,0,1,.24-1.49,3.4,3.4,0,0,1,.67-1.16,2.78,2.78,0,0,1,1-.75,3.19,3.19,0,0,1,1.33-.27,3.3,3.3,0,0,1,1.34.26,2.62,2.62,0,0,1,1,.71,3.22,3.22,0,0,1,.59,1.1,4.88,4.88,0,0,1,.19,1.42v.73H209.5v-1.2h3.86v-.13a2.06,2.06,0,0,0-.15-.76,1.28,1.28,0,0,0-.45-.55A1.33,1.33,0,0,0,212,145a1.37,1.37,0,0,0-.68.17,1.41,1.41,0,0,0-.47.47,2.52,2.52,0,0,0-.28.73,4.45,4.45,0,0,0-.09.93v.26a2.73,2.73,0,0,0,.12.83,1.75,1.75,0,0,0,.36.66,1.79,1.79,0,0,0,.58.44,1.89,1.89,0,0,0,.77.15,2.25,2.25,0,0,0,1-.21,2.16,2.16,0,0,0,.78-.64l.87.91a2.94,2.94,0,0,1-.6.63,3,3,0,0,1-.91.49A3.61,3.61,0,0,1,212.19,151Z"/><path class="cls-15" d="M176.5,157.78h1.81a3.78,3.78,0,0,1-.53,1.7,3.19,3.19,0,0,1-1.28,1.16,4.38,4.38,0,0,1-2,.42,3.84,3.84,0,0,1-1.62-.32,3.4,3.4,0,0,1-1.22-.91,4.11,4.11,0,0,1-.78-1.43,6.14,6.14,0,0,1-.27-1.88v-.73a6.16,6.16,0,0,1,.27-1.89,4.2,4.2,0,0,1,.8-1.44,3.42,3.42,0,0,1,1.24-.91,3.84,3.84,0,0,1,1.62-.33,4.14,4.14,0,0,1,2,.44,3.17,3.17,0,0,1,1.26,1.17,4,4,0,0,1,.54,1.73h-1.81a2.93,2.93,0,0,0-.26-1,1.42,1.42,0,0,0-.62-.64,2.24,2.24,0,0,0-1.09-.22,2.08,2.08,0,0,0-.92.2,1.77,1.77,0,0,0-.66.59,2.6,2.6,0,0,0-.39,1,5.93,5.93,0,0,0-.14,1.34v.75a6.39,6.39,0,0,0,.12,1.3,2.82,2.82,0,0,0,.37,1,1.65,1.65,0,0,0,.65.61,1.94,1.94,0,0,0,.93.21,2.43,2.43,0,0,0,1.09-.21,1.43,1.43,0,0,0,.63-.61A2.67,2.67,0,0,0,176.5,157.78Z"/><path class="cls-15" d="M179.26,157.45v-.14a4.44,4.44,0,0,1,.23-1.44,3.25,3.25,0,0,1,.65-1.15,3,3,0,0,1,1-.76,3.48,3.48,0,0,1,1.41-.27A3.53,3.53,0,0,1,184,154a3,3,0,0,1,1.05.76,3.41,3.41,0,0,1,.65,1.15,4.44,4.44,0,0,1,.22,1.44v.14a4.38,4.38,0,0,1-.22,1.43,3.31,3.31,0,0,1-.65,1.15,2.87,2.87,0,0,1-1.05.76,3.82,3.82,0,0,1-2.82,0,2.79,2.79,0,0,1-1.05-.76,3.16,3.16,0,0,1-.65-1.15A4.38,4.38,0,0,1,179.26,157.45Zm1.74-.14v.14a4,4,0,0,0,.09.87,2.57,2.57,0,0,0,.28.72,1.28,1.28,0,0,0,.5.48,1.41,1.41,0,0,0,.73.18,1.37,1.37,0,0,0,.72-.18,1.28,1.28,0,0,0,.5-.48,2.31,2.31,0,0,0,.29-.72,4,4,0,0,0,.09-.87v-.14a3.91,3.91,0,0,0-.09-.86,2.31,2.31,0,0,0-.29-.72,1.46,1.46,0,0,0-.5-.49,1.41,1.41,0,0,0-.73-.18,1.38,1.38,0,0,0-1.22.67,2.57,2.57,0,0,0-.28.72A3.91,3.91,0,0,0,181,157.31Z"/><path class="cls-15" d="M190.11,159.7a1.38,1.38,0,0,0,.65-.15,1.13,1.13,0,0,0,.65-1h1.64a2.28,2.28,0,0,1-.41,1.3,2.76,2.76,0,0,1-1,.9,3.24,3.24,0,0,1-1.47.33,3.54,3.54,0,0,1-1.43-.27,2.81,2.81,0,0,1-1-.77,3.41,3.41,0,0,1-.6-1.15,4.76,4.76,0,0,1-.2-1.39v-.21a4.81,4.81,0,0,1,.2-1.39,3.41,3.41,0,0,1,.6-1.15,2.93,2.93,0,0,1,1-.77,3.51,3.51,0,0,1,1.43-.27,3.29,3.29,0,0,1,1.51.33,2.56,2.56,0,0,1,1,.95,2.91,2.91,0,0,1,.38,1.44h-1.64a1.4,1.4,0,0,0-.17-.68,1.22,1.22,0,0,0-.44-.49,1.34,1.34,0,0,0-.71-.18,1.39,1.39,0,0,0-.73.18,1.21,1.21,0,0,0-.45.5,2.69,2.69,0,0,0-.23.71,5.46,5.46,0,0,0-.06.82v.21a5.49,5.49,0,0,0,.06.83,2.57,2.57,0,0,0,.23.71,1.25,1.25,0,0,0,.45.49A1.41,1.41,0,0,0,190.11,159.7Z"/><path class="cls-15" d="M193.9,157.45v-.14a4.44,4.44,0,0,1,.22-1.44,3.41,3.41,0,0,1,.65-1.15,3.08,3.08,0,0,1,1-.76,3.46,3.46,0,0,1,1.4-.27,3.58,3.58,0,0,1,1.43.27,3.08,3.08,0,0,1,1,.76,3.41,3.41,0,0,1,.65,1.15,4.72,4.72,0,0,1,.22,1.44v.14a4.66,4.66,0,0,1-.22,1.43,3.31,3.31,0,0,1-.65,1.15,3,3,0,0,1-1,.76,3.48,3.48,0,0,1-1.41.27,3.56,3.56,0,0,1-1.42-.27,3,3,0,0,1-1-.76,3.31,3.31,0,0,1-.65-1.15A4.38,4.38,0,0,1,193.9,157.45Zm1.73-.14v.14a3.46,3.46,0,0,0,.1.87,2.3,2.3,0,0,0,.28.72,1.32,1.32,0,0,0,.49.48,1.45,1.45,0,0,0,.74.18,1.37,1.37,0,0,0,.72-.18,1.35,1.35,0,0,0,.5-.48,2.3,2.3,0,0,0,.28-.72,4,4,0,0,0,.09-.87v-.14a3.91,3.91,0,0,0-.09-.86,2.3,2.3,0,0,0-.28-.72,1.38,1.38,0,0,0-1.24-.67,1.37,1.37,0,0,0-.72.18,1.44,1.44,0,0,0-.49.49,2.3,2.3,0,0,0-.28.72A3.38,3.38,0,0,0,195.63,157.31Z"/><path class="cls-15" d="M203.56,155.27v5.66h-1.74v-7.11h1.65Zm2.16-1.5,0,1.62-.33,0H205a1.87,1.87,0,0,0-.7.11,1.21,1.21,0,0,0-.5.31,1.28,1.28,0,0,0-.31.5,2.16,2.16,0,0,0-.12.66l-.37,0a4.94,4.94,0,0,1,.14-1.25,3.34,3.34,0,0,1,.4-1,1.84,1.84,0,0,1,.66-.67,1.72,1.72,0,0,1,.91-.24l.32,0Z"/><path class="cls-15" d="M210.57,156.6v1h-1.1a3.11,3.11,0,0,0-.72.08,1.55,1.55,0,0,0-.5.24,1.07,1.07,0,0,0-.3.37,1.21,1.21,0,0,0-.1.48.9.9,0,0,0,.48.81,1.2,1.2,0,0,0,.55.12,1.58,1.58,0,0,0,.8-.19,1.42,1.42,0,0,0,.53-.46,1,1,0,0,0,.21-.51l.5.75a3,3,0,0,1-.28.57,2.74,2.74,0,0,1-.47.57,2.58,2.58,0,0,1-.7.43,2.34,2.34,0,0,1-.95.17,2.71,2.71,0,0,1-1.23-.27,2.27,2.27,0,0,1-.86-.76,1.94,1.94,0,0,1-.32-1.09,2.26,2.26,0,0,1,.21-1,1.91,1.91,0,0,1,.63-.73,3.06,3.06,0,0,1,1-.46,6,6,0,0,1,1.41-.15Zm-.25,2.82v-3.28a1.46,1.46,0,0,0-.12-.62.94.94,0,0,0-.38-.41,1.28,1.28,0,0,0-.65-.15,1.41,1.41,0,0,0-.61.12.88.88,0,0,0-.4.33.93.93,0,0,0-.14.49h-1.74a1.73,1.73,0,0,1,.21-.83,2.13,2.13,0,0,1,.6-.71,3,3,0,0,1,.94-.49,4,4,0,0,1,1.23-.18,3.71,3.71,0,0,1,1.45.27,2.3,2.3,0,0,1,1,.82,2.43,2.43,0,0,1,.36,1.37v3.11a4.88,4.88,0,0,0,.07.91,2.26,2.26,0,0,0,.21.65v.11h-1.77a2.64,2.64,0,0,1-.19-.68A4.73,4.73,0,0,1,210.32,159.42Z"/><path class="cls-15" d="M40.12,149.28v9.56h-1.8v-9.56Zm4.37,0v1.42H39.65v-1.42ZM44,153.41v1.42H39.65v-1.42Z"/><path class="cls-15" d="M45.56,149.87a.84.84,0,0,1,.27-.64,1.13,1.13,0,0,1,1.44,0,.89.89,0,0,1,0,1.28,1.13,1.13,0,0,1-1.44,0A.84.84,0,0,1,45.56,149.87Zm1.86,1.86v7.11H45.68v-7.11Z"/><path class="cls-15" d="M50.92,148.75v10.09H49.18V148.75Z"/><path class="cls-15" d="M56.74,154.51v1h-1.1a2.5,2.5,0,0,0-.71.09,1.34,1.34,0,0,0-.51.23,1.17,1.17,0,0,0-.3.37,1.24,1.24,0,0,0-.09.48,1,1,0,0,0,.12.48.86.86,0,0,0,.35.33,1.2,1.2,0,0,0,.55.12,1.58,1.58,0,0,0,.8-.19,1.4,1.4,0,0,0,.53-.45,1,1,0,0,0,.21-.52l.5.75a3.37,3.37,0,0,1-.28.58,2.46,2.46,0,0,1-.47.56,2.23,2.23,0,0,1-.7.43,2.32,2.32,0,0,1-.94.18,2.76,2.76,0,0,1-1.24-.28,2.19,2.19,0,0,1-.86-.76,1.94,1.94,0,0,1-.32-1.09,2.29,2.29,0,0,1,.21-1,1.91,1.91,0,0,1,.63-.73,2.87,2.87,0,0,1,1-.45,5.47,5.47,0,0,1,1.41-.16Zm-.25,2.82v-3.28a1.46,1.46,0,0,0-.12-.62A.94.94,0,0,0,56,153a1.28,1.28,0,0,0-.65-.14,1.41,1.41,0,0,0-.61.12.82.82,0,0,0-.4.33.88.88,0,0,0-.14.49H52.45a1.74,1.74,0,0,1,.21-.84,2.23,2.23,0,0,1,.6-.71,3,3,0,0,1,.94-.49,4,4,0,0,1,1.24-.18,3.7,3.7,0,0,1,1.44.27,2.37,2.37,0,0,1,1,.82,2.46,2.46,0,0,1,.36,1.38v3.1a4.81,4.81,0,0,0,.07.91,2.61,2.61,0,0,0,.21.65v.11H56.75a2.53,2.53,0,0,1-.19-.68A5.93,5.93,0,0,1,56.49,157.33Z"/><path class="cls-15" d="M61.51,153.25v5.59H59.77v-7.11H61.4ZM61.23,155h-.51a4.38,4.38,0,0,1,.21-1.4,3.52,3.52,0,0,1,.57-1.09,2.74,2.74,0,0,1,.89-.7,2.64,2.64,0,0,1,1.14-.24,2.75,2.75,0,0,1,.93.15,1.75,1.75,0,0,1,.71.46,2.09,2.09,0,0,1,.46.82,4.13,4.13,0,0,1,.16,1.25v4.56H64v-4.57a1.68,1.68,0,0,0-.14-.77.82.82,0,0,0-.4-.4,1.62,1.62,0,0,0-.66-.12,1.38,1.38,0,0,0-1.2.61,2.05,2.05,0,0,0-.3.65A2.85,2.85,0,0,0,61.23,155Z"/><path class="cls-15" d="M67,155.37v-.13a5.33,5.33,0,0,1,.19-1.49,3.36,3.36,0,0,1,.55-1.14,2.54,2.54,0,0,1,.88-.75,2.58,2.58,0,0,1,1.17-.26,2.33,2.33,0,0,1,1.11.26,2.37,2.37,0,0,1,.82.73,4.17,4.17,0,0,1,.54,1.12,9.08,9.08,0,0,1,.3,1.42v.37a8.68,8.68,0,0,1-.3,1.39,4.18,4.18,0,0,1-.54,1.1,2.27,2.27,0,0,1-1.94,1,2.46,2.46,0,0,1-1.17-.27,2.57,2.57,0,0,1-.88-.76,3.64,3.64,0,0,1-.54-1.14A5.07,5.07,0,0,1,67,155.37Zm1.74-.13v.13a4.57,4.57,0,0,0,.08.86,2.14,2.14,0,0,0,.26.71,1.41,1.41,0,0,0,.46.48,1.29,1.29,0,0,0,.68.17,1.46,1.46,0,0,0,.84-.23,1.59,1.59,0,0,0,.52-.62,2.84,2.84,0,0,0,.23-.9v-1a3.27,3.27,0,0,0-.13-.73,2,2,0,0,0-.3-.58,1.37,1.37,0,0,0-.48-.38,1.54,1.54,0,0,0-.67-.14,1.21,1.21,0,0,0-.68.18,1.28,1.28,0,0,0-.47.48,2.34,2.34,0,0,0-.25.72A4,4,0,0,0,68.76,155.24Zm2.83,2.09v-8.58h1.75v10.09H71.76Z"/><path class="cls-15" d="M74.88,149.87a.84.84,0,0,1,.27-.64,1.13,1.13,0,0,1,1.44,0,.92.92,0,0,1,0,1.28,1.13,1.13,0,0,1-1.44,0A.84.84,0,0,1,74.88,149.87Zm1.86,1.86v7.11H75v-7.11Z"/><path class="cls-15" d="M82.56,154.51v1h-1.1a2.5,2.5,0,0,0-.71.09,1.34,1.34,0,0,0-.51.23,1,1,0,0,0-.29.37,1.09,1.09,0,0,0-.1.48,1,1,0,0,0,.12.48.86.86,0,0,0,.35.33,1.2,1.2,0,0,0,.55.12,1.55,1.55,0,0,0,.8-.19,1.51,1.51,0,0,0,.54-.45,1.06,1.06,0,0,0,.2-.52l.5.75a2.76,2.76,0,0,1-.28.58,2.46,2.46,0,0,1-.47.56,2.12,2.12,0,0,1-.7.43,2.28,2.28,0,0,1-.94.18,2.79,2.79,0,0,1-1.24-.28,2.19,2.19,0,0,1-.86-.76,1.93,1.93,0,0,1-.31-1.09,2.29,2.29,0,0,1,.21-1,1.88,1.88,0,0,1,.62-.73,3,3,0,0,1,1-.45,5.47,5.47,0,0,1,1.41-.16Zm-.25,2.82v-3.28a1.46,1.46,0,0,0-.12-.62.89.89,0,0,0-.38-.41,1.28,1.28,0,0,0-.65-.14,1.44,1.44,0,0,0-.61.12.82.82,0,0,0-.4.33.88.88,0,0,0-.14.49H78.27a1.74,1.74,0,0,1,.21-.84,2.23,2.23,0,0,1,.6-.71,3.11,3.11,0,0,1,.94-.49,4,4,0,0,1,1.24-.18,3.63,3.63,0,0,1,1.44.27,2.37,2.37,0,0,1,1,.82,2.46,2.46,0,0,1,.36,1.38v3.1a5.81,5.81,0,0,0,.07.91,2.61,2.61,0,0,0,.21.65v.11H82.57a2.53,2.53,0,0,1-.19-.68A5.93,5.93,0,0,1,82.31,157.33Z"/><path class="cls-15" d="M115.05,74.16a1.26,1.26,0,0,0-.09-.49.91.91,0,0,0-.29-.4,2.49,2.49,0,0,0-.6-.36,7.67,7.67,0,0,0-1-.36,10.16,10.16,0,0,1-1.25-.48,4.76,4.76,0,0,1-1-.61,2.44,2.44,0,0,1-.68-.8,2.17,2.17,0,0,1-.25-1.07,2.26,2.26,0,0,1,.26-1.07,2.22,2.22,0,0,1,.72-.84,3.14,3.14,0,0,1,1.1-.54,4.74,4.74,0,0,1,1.4-.19,4.2,4.2,0,0,1,1.84.38,3,3,0,0,1,1.21,1.06,2.73,2.73,0,0,1,.43,1.49h-1.8a1.68,1.68,0,0,0-.19-.79,1.35,1.35,0,0,0-.57-.54,2.06,2.06,0,0,0-1-.2,2.17,2.17,0,0,0-.91.17,1.24,1.24,0,0,0-.55.44,1.16,1.16,0,0,0-.18.63.81.81,0,0,0,.13.47,1.23,1.23,0,0,0,.37.39,3.52,3.52,0,0,0,.62.34c.25.1.54.2.86.3a9.9,9.9,0,0,1,1.39.53,3.88,3.88,0,0,1,1,.66,2.48,2.48,0,0,1,.6.82,2.69,2.69,0,0,1,.2,1.05,2.3,2.3,0,0,1-.94,1.93,3.24,3.24,0,0,1-1.09.52,5.13,5.13,0,0,1-1.41.18,4.94,4.94,0,0,1-1.38-.19,3.94,3.94,0,0,1-1.23-.56,2.88,2.88,0,0,1-.88-1,2.75,2.75,0,0,1-.33-1.37h1.81a1.79,1.79,0,0,0,.15.77A1.28,1.28,0,0,0,112,75a1.8,1.8,0,0,0,.64.3,3.38,3.38,0,0,0,.8.09,2.21,2.21,0,0,0,.91-.16,1.14,1.14,0,0,0,.53-.43A1.12,1.12,0,0,0,115.05,74.16Z"/><path class="cls-15" d="M122.28,72.32v1H121.2a2.6,2.6,0,0,0-.72.08,1.27,1.27,0,0,0-.51.24.91.91,0,0,0-.29.36,1.13,1.13,0,0,0-.1.49.94.94,0,0,0,.12.47.83.83,0,0,0,.36.33,1.15,1.15,0,0,0,.55.12,1.56,1.56,0,0,0,1.33-.64,1,1,0,0,0,.2-.51l.5.75a2.9,2.9,0,0,1-.27.57,2.51,2.51,0,0,1-.48.56,2.4,2.4,0,0,1-.69.44,2.55,2.55,0,0,1-1,.17A2.66,2.66,0,0,1,119,76.5a2.16,2.16,0,0,1-.86-.75,2,2,0,0,1-.31-1.09,2.26,2.26,0,0,1,.21-1,2,2,0,0,1,.62-.74,3,3,0,0,1,1-.45,6,6,0,0,1,1.41-.15ZM122,75.13V71.86a1.36,1.36,0,0,0-.13-.63.94.94,0,0,0-.38-.41,1.39,1.39,0,0,0-.65-.14,1.48,1.48,0,0,0-.61.12.91.91,0,0,0-.39.33.81.81,0,0,0-.14.49H118a1.8,1.8,0,0,1,.21-.84,2.35,2.35,0,0,1,.6-.71,2.89,2.89,0,0,1,.94-.49A3.88,3.88,0,0,1,121,69.4a3.62,3.62,0,0,1,1.44.28,2.13,2.13,0,0,1,1,.82,2.43,2.43,0,0,1,.37,1.37V75a4.74,4.74,0,0,0,.07.91,2.44,2.44,0,0,0,.2.66v.11h-1.77a3.06,3.06,0,0,1-.19-.69A5.79,5.79,0,0,1,122,75.13Z"/><path class="cls-15" d="M127.19,66.55v10.1h-1.74V66.55Z"/><path class="cls-15" d="M132,76.78a3.71,3.71,0,0,1-1.45-.27,3,3,0,0,1-1.1-.73,3.21,3.21,0,0,1-.69-1.1,3.68,3.68,0,0,1-.24-1.35v-.26a4.39,4.39,0,0,1,.24-1.49,3.4,3.4,0,0,1,.67-1.16,2.86,2.86,0,0,1,1-.75,3.23,3.23,0,0,1,1.33-.27,3.3,3.3,0,0,1,1.34.26,2.62,2.62,0,0,1,1,.71,3.06,3.06,0,0,1,.59,1.1,4.87,4.87,0,0,1,.2,1.42v.73h-5.58v-1.2h3.87v-.13a2.06,2.06,0,0,0-.16-.76,1.28,1.28,0,0,0-.45-.55,1.33,1.33,0,0,0-.78-.21,1.31,1.31,0,0,0-.67.17,1.43,1.43,0,0,0-.48.47,2.85,2.85,0,0,0-.28.73,4.45,4.45,0,0,0-.09.93v.26a2.73,2.73,0,0,0,.12.83,1.85,1.85,0,0,0,.94,1.1,1.94,1.94,0,0,0,.78.15,2.24,2.24,0,0,0,1-.21,2.27,2.27,0,0,0,.78-.64l.87.91a2.94,2.94,0,0,1-.6.63,3,3,0,0,1-.91.49A3.61,3.61,0,0,1,132,76.78Z"/><path class="cls-15" d="M137.79,71.05v5.6h-1.73V69.54h1.63Zm-.28,1.78H137a5.08,5.08,0,0,1,.21-1.4,3.44,3.44,0,0,1,.58-1.09,2.55,2.55,0,0,1,.88-.69,2.82,2.82,0,0,1,2.07-.1,1.72,1.72,0,0,1,.71.46,2,2,0,0,1,.46.82,4.13,4.13,0,0,1,.17,1.26v4.56h-1.75V72.07a1.83,1.83,0,0,0-.14-.77.88.88,0,0,0-.41-.4,1.6,1.6,0,0,0-.65-.12,1.39,1.39,0,0,0-.7.17,1.32,1.32,0,0,0-.5.44,2,2,0,0,0-.31.65A2.9,2.9,0,0,0,137.51,72.83Z"/><path class="cls-15" d="M147,69.54v1.24H142.9V69.54Zm-3-1.75h1.74V74.6a1,1,0,0,0,.09.48.41.41,0,0,0,.25.23,1.27,1.27,0,0,0,.41.06,1.51,1.51,0,0,0,.31,0l.25,0v1.3a2.7,2.7,0,0,1-.49.12,3.67,3.67,0,0,1-.61,0,2.56,2.56,0,0,1-1-.2,1.47,1.47,0,0,1-.68-.65,2.56,2.56,0,0,1-.24-1.2Z"/><path class="cls-15" d="M147.69,73.16V73a4.46,4.46,0,0,1,.22-1.45,3.36,3.36,0,0,1,.65-1.14,3,3,0,0,1,1.05-.76,3.46,3.46,0,0,1,1.4-.28,3.58,3.58,0,0,1,1.43.28,2.83,2.83,0,0,1,1,.76,3.22,3.22,0,0,1,.66,1.14,4.74,4.74,0,0,1,.22,1.45v.13a4.72,4.72,0,0,1-.22,1.44,3.36,3.36,0,0,1-.66,1.15,2.83,2.83,0,0,1-1,.76,3.48,3.48,0,0,1-1.41.27,3.56,3.56,0,0,1-1.42-.27,3,3,0,0,1-1.05-.76,3.51,3.51,0,0,1-.65-1.15A4.44,4.44,0,0,1,147.69,73.16Zm1.73-.13v.13a3.54,3.54,0,0,0,.1.88,2.15,2.15,0,0,0,.28.71,1.35,1.35,0,0,0,.49.49,1.56,1.56,0,0,0,.74.17,1.34,1.34,0,0,0,1.22-.66,2.15,2.15,0,0,0,.28-.71,4.1,4.1,0,0,0,.09-.88V73a4,4,0,0,0-.09-.87,2.3,2.3,0,0,0-.28-.72,1.56,1.56,0,0,0-.5-.49,1.45,1.45,0,0,0-.74-.18,1.37,1.37,0,0,0-.72.18,1.44,1.44,0,0,0-.49.49,2.3,2.3,0,0,0-.28.72A3.46,3.46,0,0,0,149.42,73Z"/></svg>