<svg id="Capa_1" data-name="Capa 1" xmlns="http://www.w3.org/2000/svg" viewBox="0 0 249.48 199.01"><defs><style>.cls-1{fill:#c5875e;stroke:#c5875e;stroke-miterlimit:10;}</style></defs><path class="cls-1" d="M192.78,48c-.23,4.49-.43,9-.72,13.45a8.6,8.6,0,0,0,.68,4c7.69,19.07,13.77,38.55,15.4,59.2a136.55,136.55,0,0,1,.24,14.16c0,1.73-.3,3.29-2.72,2.94-1.36-.2-2.69-1.64-4.12-.16a8.7,8.7,0,0,0-2.62,5.85c-.14,3.46,1.35,5.24,4.75,5.84,1,.18,2.05.29,3.06.53,2.35.55,4.51,1.49,4.79,4.25a5.75,5.75,0,0,1-3.66,6.07,34.11,34.11,0,0,1-12.75,2.73,197.66,197.66,0,0,1-28-.86c-2.38-.21-3.16.28-3.26,2.78-.24,5.63,0,11.3-1.09,16.88-.67,3.6-1.75,4.09-4.83,2.09-2.76-1.79-4.69-4.42-6.66-7-1.25-1.6-2.35-1.76-4-.63a76.09,76.09,0,0,0-8.23,6.28c-.76.68-1.56,1.56-2.71.94s-.82-1.61-.75-2.7c.34-5.52.43-11,.76-16.56.15-2.54-1.57-2.06-3-2.1-13.36-.42-26.71-.74-40.06-1.24-16.57-.62-33.14-1.36-49.71-2.1a10.46,10.46,0,0,1-3.67-.8,4.31,4.31,0,0,1-2.88-4.31c.11-2.06,1.41-3.29,3.28-4a8.1,8.1,0,0,1,4.08-.5c2.52.35,3.84-.82,4.68-3,.94-2.52,1.22-4.95-.74-7.11-.78-.87-1.93-1.69-3-1.29-4.31,1.56-3.76-1.25-3.52-3.75,2.4-24.3,5.49-48.47,13.68-71.68a83.17,83.17,0,0,0,2.81-10.66c.59-2.79,2.18-4,4.85-3.79a40.18,40.18,0,0,1,7.55.74c2.94.75,4-.41,5-3C80.2,37.79,86,26.64,91.44,15.37,92.21,13.81,93,12.09,95,12.1s2.56,1.75,3.37,3.1a225.16,225.16,0,0,1,18.87,39.47c1.49,4.14,8.12,6.73,12,4.77a28,28,0,0,1,9.09-3.12c2.28-.29,2.5-1.37,2.21-3.26C139.47,46,138.42,39,136.86,32c-1-4.53-.81-4.84,3.91-5.21,3.21-.25,6.44-.32,9.65-.57,2.83-.21,4,1.1,4.05,3.83,0,3,.17,6,.14,9,0,1.89.27,3,2.65,2.82s2.94-.91,2.85-3.11a49,49,0,0,0-1.06-8.56c-.46-2.05.09-3.17,2.22-3.28,3.21-.16,6.44-.3,9.66-.36,2.34,0,3.32,1.33,3.15,3.55-.2,2.64-.47,5.28-.73,7.91-.12,1.22-.25,2.31,1.57,2.29,1.44,0,2.45-.14,2.44-2,0-3.22.22-6.46-.41-9.65-.48-2.45.52-3.47,2.93-3.36s4.83.2,7.25.3c3.08.12,4.49,1.8,4.73,4.8C192.31,36.26,192.79,42.11,192.78,48Zm-67.27,68.25v-1.14c14.63,0,29.25,0,43.88,0,3.67,0,4.88-2,3.32-5.39-1.36-2.93-3.93-4-7-4.37s-6.15.54-9.14,1.46c-3.49,1.08-4.15.58-4-3,.06-1.84.24-3.67.35-5.51a19.35,19.35,0,0,0-1.42-9.13c-2.69-6.07-8.88-7.08-13.36-2.19a40.78,40.78,0,0,0-2.35,3.39c-.94,1.27-.75,4-3.15,3.39-2.2-.53-1.3-2.87-1.59-4.47-.06-.33,0-.69-.09-1-1.17-7.67-4.43-13.83-12.35-16.35a11,11,0,0,0-13.59,5.87c-1.91,4.47-1.88,4.43-5.06.91-2.28-2.51-5-4.13-8.56-3.25S86.58,79,85.81,82.2c-1,3.88.25,7.52,1.41,11.14,1.41,4.42,1.35,4.53-3.44,4.46-6.45-.11-9.71,3.93-8.18,10.21.62,2.56-.52,3.26-2.72,2.68a10.46,10.46,0,0,0-6.12.16c-1.06.35-2.59.54-2.53,1.88s1.54,1.49,2.67,1.74a84.91,84.91,0,0,0,17.84,1.73C98.33,116.34,111.92,116.25,125.51,116.25Zm63.61-64.37c-.06-6,.18-12-.53-17.94-.62-5.2-.53-5.14-5.71-5.06-1.65,0-2.24.47-2.16,2.16.12,2.87.06,5.76,0,8.63,0,1.85-.53,3.73-2.61,3.9-2.68.22-5.54.93-8-.65-.43-.28-.43-1.5-.38-2.27.18-2.64.53-5.27.67-7.91,0-.9.77-2.44-.71-2.59a18.74,18.74,0,0,0-6.16.33c-1.29.31-.39,1.78-.35,2.73.11,2.3.36,4.6.37,6.89,0,4-.73,4.73-4.79,5.07-7.36.62-7.45.53-7.61-7,0-.24,0-.47,0-.7-.16-8.35-.16-8.31-8.58-7.36-1.74.2-2.47.61-2,2.54.66,2.56,1.07,5.18,1.52,7.79a252.66,252.66,0,0,1,3.77,36.72c0,1.24-.5,2.9,1.35,3.53,4.43,1.49,6.91,4.79,8.29,9a2.26,2.26,0,0,0,2.45,1.8c8.17.27,16.34.64,24.52.23,2.1-.11,2.75-.91,3-2.79C187.14,76.66,188.81,64.34,189.12,51.88Zm-69,91.43c0-6.95,0-13.28,0-19.62,0-4.44.06-4.41-4.43-4.39-13.7,0-27.41,1.21-41.1-.17a83.21,83.21,0,0,1-9.53-1.51c-2.38-.52-4.26-2-4.52-4.61s1.62-4.11,3.87-5.06a13.09,13.09,0,0,1,5-1.15c1.39,0,1.91-.36,2.07-1.92.62-5.92,3.58-9,9.32-10.42.9-.22,3.32.62,2.39-1.58-.82-1.95.81-5.61-3.43-5.61-4,0-8.06-.34-12.09-.32-2.93,0-3.67-1.24-2.91-3.87,1.86-6.4,3.53-12.87,5.53-19.23,2.58-8.19,2.68-8.09-6-8.56-1.78-.1-2.43.44-2.81,2.07A88,88,0,0,1,58.92,67C51.07,89.12,48,112.13,45.54,135.28c-.2,1.88.23,2.24,2,1.59,18.53-6.89,37-5.48,55.56.14C108.68,138.71,114,141.15,120.13,143.31Zm71.09-70.57c-.9,6.26-1.87,12.51-2.66,18.78-.32,2.55-1.55,3.57-4.07,3.63-7.48.2-15,.54-22.45,0-5.41-.39-5.28-.31-5.73,5.09-.22,2.51.38,2.92,2.73,2.28,4.83-1.31,9.6-1.26,13.86,1.9a9.42,9.42,0,0,1,3.55,10.11c-1.28,3.91-4.45,4.2-7.83,4.07-.46,0-.92,0-1.39,0q-20.21.27-40.42.58c-1.23,0-3.06-.65-3.08,1.62,0,7.18,0,14.36,0,21.85,1.79-1.09,3.32-2.07,4.9-2.95,17.17-9.58,35.5-10.3,54.34-7.16,7.35,1.22,14.51,3.26,22,5.2C205.61,114.79,199.62,93.56,191.22,72.74ZM50.6,139.46c3,5.1,3.56,6.79,2.18,10.45-1.05,2.77-.41,3.14,2.28,3.15,20.27.05,40.51.82,60.75,1.75,1.38.06,3.58,1.13,3.66-1.6.07-2.47,2-5.38-1.88-7C107.7,142,97.65,138.47,87,136.82,74.68,134.9,62.54,135.36,50.6,139.46ZM117.79,68a10.39,10.39,0,0,0-.21-1.42c-1.06-3.28-2.33-6.5-3.18-9.83s-2.63-5.35-6.05-6.15c-2.77-.64-5.58-3.29-8-2.43s-3.09,4.58-4.56,7c-2.52,4.21-4.8,4.68-8.54,1.47-2.6-2.22-5.07-4.59-7.78-7.06C74.87,60,71.79,70.63,68.9,81.28c-.47,1.74.24,2.24,1.86,2.25,2.88,0,5.77.07,8.63.31,1.84.15,2.63-.45,3-2.28,1.71-9.08,10.73-13.06,18.34-7,.77.62,1.34,1.16,2.18-.06C106.4,69.36,111.39,67.31,117.79,68Zm62.52,85.13v-.61c4.49,0,9,0,13.47,0,1.65,0,2.74-.17,2.05-2.26a9.75,9.75,0,0,1,1.35-8.58c1.12-1.79.65-2.17-1.2-2.64a136.9,136.9,0,0,0-25.47-4.42c-15.53-1-30.3,1.54-43.56,10.27-2.84,1.87-5.29,7.23-3.78,9.29s4.24.5,6.41.8c.78.11,1.61-.17,2.41-.11,3.58.29,5-.95,4.62-4.87-.49-4.49.77-5.77,5.39-6.08,5.16-.35,10.36-.45,15.53-.41,6.86,0,7.73-1.08,6.89,7-.2,1.93.39,2.68,2.42,2.62C171.33,153,175.82,153.09,180.31,153.09ZM140,180.88c2-1.33,4.18-2.62,6.2-4.13,2.8-2.1,5-1.5,7.13,1,1.82,2.13,3.26,4.68,5.83,6.16a2.48,2.48,0,0,0,.25-.47c1.49-11.56,1.06-23.2,1.55-34.81.08-1.71-1.15-1.71-2.35-1.69-5.18.09-10.36.26-15.54.25-2.6,0-3.33,1.09-3.12,3.6.24,2.86,0,5.75,0,8.63ZM94.85,16.19c-3.42,7.12-6.57,13.61-9.65,20.14-4.83,10.22-4.81,10.23,4,17.39a2.73,2.73,0,0,1,.25.23c1.48,1.49,2.47,1.09,3.37-.68,1.26-2.45,2.75-4.78,4-7.22,1.1-2.12,2.48-2.63,4.78-1.76,2.8,1.06,5.52,2.53,9,2.91A206.59,206.59,0,0,0,94.85,16.19Zm.93,145.21c8.31.24,23.16.66,38,1.12,1.73.06,2.76-.1,2.79-2.3,0-2.43-1.27-2.2-2.86-2.06a148.55,148.55,0,0,1-19.68.06c-23.13-1-46.27-1.89-69.43-1.71-1.37,0-3.67-.58-3.67,1.29,0,1.67,2.31,1.38,3.75,1.44C59.55,159.89,74.39,160.5,95.78,161.4Zm88.14-4.81c-5.53,0-11,0-16.57,0-1.91,0-3.23,0-3.22,2.64,0,2.33.62,3.21,3,3.36a247.9,247.9,0,0,0,27.25.82,39,39,0,0,0,11.16-2c1.25-.43,2.48-1.11,2.37-2.59s-1.54-1.46-2.66-1.66A71.53,71.53,0,0,0,183.92,156.59ZM134.33,86c2.18-3.27,6.6-3.73,7.73-6.34,1.23-2.86.1-6.75,0-10.19q0-1-.12-2.07c-.8-9-1.27-9.29-9.66-5.59-4.22,1.86-6.39,8.57-3.6,12.29A33.36,33.36,0,0,1,134.33,86ZM120.28,62.21c.77,5.35,1.32,6.51,3.6,7.67C125,63.58,125,63.58,120.28,62.21Z"/></svg>