<svg id="Capa_1" data-name="Capa 1" xmlns="http://www.w3.org/2000/svg" viewBox="0 0 249.48 199.01"><defs><style>.cls-1{fill:#c5875e;stroke:#c5875e;stroke-miterlimit:10;}</style></defs><path class="cls-1" d="M95.86,88.37c5.61,1.54,9-.91,11.49-5.1,1.6-2.72,3.63-4.07,6.91-3.69,1.36.15,3.73.94,3.75-1.73,0-2.5,1.25-5.57-2.17-7.06-.81-.35-1.75-.44-2.54-.83-2.21-1.12-6.17-1.15-6.3-3.46A9.61,9.61,0,0,1,112.08,58c4.11-2,5.29-4.68,4.76-8.81-.26-2,.75-3.09,2.86-2.95.3,0,.6,0,.9,0,9.48,0,7.75-.42,7.88,7.43.06,3.89.16,7.78,0,11.66-.16,3,.65,4.36,3.93,4.21,4.78-.24,9.57-.16,14.35,0,2.59.08,3.89-.61,3.67-3.49s.06-5.69-.09-8.52c-.25-4.82-3.68-7.05-8-4.86s-4.86-2.17-7-3.62c-2.37-1.62-.31-3.21.79-4.39,3.19-3.39,5.17-6.95,2.83-11.66a2.5,2.5,0,0,1,.73-3.22c1.32-1.14.83-2.21.2-3.55-2.19-4.7.88-9.09,6-9.29,3.65-.14,4.26,1.62,4.13,4.64-.09,1.89-.87,4.24,2.71,4.35s3.34-2.21,3.12-4.39C155.52,18,157,16.85,160.5,17c9.66.27,8.29-.93,8.38,8.39.05,5.67.07,11.36,0,17,0,2.36.15,4.22,3.24,3.93,2.06-.19,2.47,1.15,2.44,2.86s0,3.59,0,5.38.05,3.33,2.49,3.31,2.12-1.6,2.14-3.1a25.08,25.08,0,0,1,0-3.13c.26-1.78-1.08-4.38,1.46-5.07,2.19-.6,5-1.21,6.84.58,1.54,1.54,3.67,3.4,2.69,6.2-1.28,3.68-1.14,6.12,3.81,6,3.05-.09,1.58,2.23,1.74,3.88.62,6.23-1.26,12.57.9,18.71.41,1.16.83,2.39,2,2.79,3.8,1.26,7.34,2.68,7.6,7.5a.88.88,0,0,0,.52.68c6.11,1.26,4.26,6.09,4.39,9.93.13,4,0,8.07,0,12.11.05,2.34-1,5.3,2.72,6,.14,0,.37.17.36.24-.73,5.64,2.76,10.74,2.13,16.36-.07.67-.56,1.19-1.18,1-.45-.13-1.13-.77-1.1-1.15.21-3-1.45-3.26-3.88-3.25q-60.54.08-121.07,0c-3.51,0-3.87,1.31-3.48,4.24,1.12,8.51,1,8.52,9.74,8.52q57.62,0,115.24.07c1.87,0,5.43-1.13,5.36,1.07-.09,2.78-3.65,1.4-5.6,1.4-39.46.1-78.92.05-118.39.14-1.72,0-4.83-1.67-4.71,2.55.09,3.43,1.14,4.91,5,4.85,14-.24,28.1-.1,42.15-.09,1.19,0,2.39,0,3.58.09.83,0,1.41.48,1.28,1.41a1.19,1.19,0,0,1-1.28,1c-1.19.06-2.39.08-3.58.09-13.9,0-27.81.09-41.7-.06-3.41,0-4.8.49-4.06,4.42,1.22,6.46.94,6.37-5.86,6.61-2,.08-5.35-1.74-6,1.85-.52,3-1.27,6.63,3.11,8.2,1.13.41,2.06,1.72,2.79,2.81,1.08,1.61,2.16,3.54,1.38,5.43-.88,2.17-3.16,1.15-4.81,1.17-10.32.08-20.63-.06-30.94.1-3.09.05-4.34-.88-4.17-4.06.21-4,0-8.07.13-12.1.11-2.61-.6-4-3.47-3.62-3.76.57-4.09-1.5-3.81-4.53,2-22.31,4-44.63,6-66.95.44-5.06,1-10.12,1.34-15.18a19.08,19.08,0,0,1,4.95-11.74,6.29,6.29,0,0,0-1.07-9.13c-4.66-3.56-5.16-5.34-2.93-11.08A5.55,5.55,0,0,0,45.88,49c-.44-6.12,3-9.92,8.12-12.12,5.34-2.27,10.67-3.2,16.14.6,6,4.2,10.24,9,9.67,16.87-.21,2.87,2.22,1.25,3.27,1C94.1,53,102,44,101.65,32.67c-.16-5.9,1.86-8.56,7-10.32,4.37-1.48,8.48-3.7,12.71-5.56,1-.46,2.17-1.44,3.26-.32.84.86.28,2,0,3-4.39,16.11-11.1,30.66-26.42,39.43-1,.58-2.38,1-1.25,2.62,2,2.94,1.27,6,.33,9-.66,2.15-.86,4,1.48,5.4,1.82,1.07,1.53,2.65.75,4.3C98.27,82.88,97.11,85.58,95.86,88.37Zm68.64-4c0,10.75.05,21.5,0,32.26,0,2.43.28,3.85,3.31,3.82,12.54-.14,25.09-.11,37.64,0,2.57,0,3.33-.93,3.27-3.4-.14-5.83,0-11.65-.06-17.48,0-1.13.47-2.76-1-3.16-3.07-.85-4.18-3-4.6-5.82-.2-1.34-1.41-1.75-2.52-2.27-6.7-3.17-7.78-6.73-7.47-14.47.17-4.15,3-10.46-4.4-12.48-.5-.13-.79-1.18-1.1-1.84a8.38,8.38,0,0,1-.3-6.08c.68-2.42-.45-4.11-2.93-4.47-2.88-.42-2.48,1.81-2.52,3.56s0,3.29,0,4.93c0,1.18,0,2.32-1.49,2.91-4.82,2-8.36-.31-8.38-5.46a16.72,16.72,0,0,1,0-2.24c.37-2.85-.67-3.91-3.68-3.87-2.86,0-3.87.77-3.83,3.76C164.6,63.16,164.5,73.77,164.5,84.38ZM45.23,104.51c.27,1.66-1.18,3.95,1.59,5.23a76,76,0,0,0,24.85,7c1.33.12,2.21.08,2.46-1.66s-1.46-5.23,1.09-5.29,1.08,3.45,1.46,5.36c.28,1.44.89,2.16,2.35,2s1.48-1.25,1.38-2.31c-.3-3.12-.84-6.23-.92-9.35-.07-2.56-1.15-3.76-3.58-4.24-3.51-.69-7-1.42-10.45-2.44-1.32-.39-4.1.14-3.49-2.27.42-1.65,2.57-.57,4-.26q7.85,1.82,15.67,3.71c3.4.82,5.85-.32,7.35-3.47,1.28-2.69,2.54-5.4,3.81-8.1,5-10.76,5-10.76-4.51-17.75a2.39,2.39,0,0,1-.35-.28c-1.58-1.62-2.44-1-3.13.86-1.75,4.6-3.59,9.17-5.34,13.76-.62,1.62-1.2,3.18-3.41,2.64q-5-1.22-10-2.51c-.72-.19-1.54-.61-1.36-1.47.22-1.06,1.12-1.23,2.12-1,2.6.67,5.22,1.24,7.8,2,1.53.45,2.15-.27,2.71-1.5a6.8,6.8,0,0,0-.14-6c-.74-1.5-1.69-.14-2.58.15-4.43,1.47-7.88-.2-10.63-3.63-1.31-1.65-1.82-4.12-5-2.7-2,.9-4.62-.45-6.66,1.65a16.74,16.74,0,0,0-5.1,10.2C46.44,90,45.88,97.14,45.23,104.51Zm80.63-19.94V72.92c0-7,0-14,0-21.05,0-2-.6-3.2-2.81-3-1.47.16-3.9-.66-3.5,2,.73,4.9-1.63,7.31-5.78,9.1a5.91,5.91,0,0,0-3.36,5c0,1.94,2.63,2,4.2,2.57,5.93,2.21,6.06,2.55,6.17,10.07,0,3.31-.63,5.23-4.41,4.59-3.45-.58-5.92.65-7.79,3.72-2.1,3.45-5,5.85-9.5,5.43-3.69-.34-6.12,1.38-7.25,5.09-.81,2.62-2.35,5.49-5.16,5.72-5.89.48-4.73,4-4.08,7.64a55.07,55.07,0,0,1,.81,7.11c.13,2.6,1.19,3.52,3.89,3.49q17.24-.21,34.49,0c3.1,0,4.17-.94,4.12-4.08C125.76,105.78,125.86,95.18,125.86,84.57Zm22.63,38.53c-19.87,0-39.73,0-59.6.06-1.65,0-4.71-1.45-4.39,2.4.24,2.9-.62,6.13,4.59,6.1,39.58-.2,79.16-.14,118.74,0,3.17,0,4.43-.66,4.48-4.17.06-3.74-1.36-4.42-4.67-4.4C187.92,123.16,168.21,123.1,148.49,123.1ZM49.1,167.58c2.24,0,4.49-.12,6.72,0,2,.14,3-.72,3.62-2.49q6.66-17.55,13.46-35c.95-2.43.14-2.93-2.19-3.21A69,69,0,0,1,48,120.59c-3.94-2-4.31-.43-4.56,3-.84,11.45-1.86,22.89-2.91,34.32C39.61,167.58,39.54,167.57,49.1,167.58ZM151.22,80.09c.12-.52.26-1.08.36-1.64.2-1.11-.18-2.93,1.36-2.84,1.73.1,1.35,2,1.35,3.25,0,4.13.82,8.42-2.35,12-.83.92-.7,1.83.29,2.7,3.25,2.86,3.55,6.67,3.45,10.67-.12,4.18,0,8.37-.05,12.55,0,2.18.18,3.72,3,3.73,2.65,0,3.27-1.12,3.26-3.52-.07-13.75-.1-27.49,0-41.24,0-2.75-.9-3.63-3.61-3.59-8.81.13-17.63.11-26.44,0-2.42,0-3.45.6-3.43,3.25.1,13.89.06,27.79,0,41.68,0,2,.22,3.39,2.84,3.39s2.93-1.22,2.89-3.33c-.08-5.07-.1-10.16,0-15.24.15-7,4.84-11.71,11.74-11.1,3.4.3,4.05-1.87,5.16-3.79,1.24-2.14-.63-3.12-1.91-4.38-1.12-1.1-4.11-1.63-2.74-3.67,1.19-1.79,2.65,1,4.17,1.19A3.69,3.69,0,0,0,151.22,80.09Zm15-46.73c0-3.28-.14-6.56,0-9.83.16-2.86-.81-4-3.8-4-2.78,0-4.19.71-4,3.77.1,1.55.79,3.83-.83,4.56-2.73,1.24-5.92.84-8.77.29-2.61-.5-1.24-3.2-1.55-4.94-.22-1.25.39-2.85-1.33-3.42a2.32,2.32,0,0,0-2.83.74c-.8,1.19-2.11,2.41-1.14,4,1.48,2.4,2.7,4.64-.08,7-.34.29-.15,1.44.07,2.1,1.37,4.21.68,7.84-2.56,11-.89.88-2.61,1.9-1.12,3.73,1.18,1.47,2.37,1.56,4.26,1.09,6-1.5,10.14,1.93,10.3,8.23a58.8,58.8,0,0,1,0,7.15c-.33,3.41.75,4.78,4.41,4.68,3.29-.1,4.91-.7,4.66-4.48-.33-5-.12-10.13-.05-15.2,0-1.23-.59-3.24,1.16-3.4,4-.38,3.11-3.2,3.17-5.57C166.31,38.44,166.26,35.9,166.26,33.36ZM71,64c-5.76.18-10.49-2.45-12.07-6.53s0-8,4.64-12a46.85,46.85,0,0,0,3.85-3.74c1.11-1.23,1-2.3-.58-3.23-5.56-3.23-17.06,1.6-18.08,7.82-.47,2.86-.16,5.75-1.7,8.53a3.6,3.6,0,0,0,1.83,5c2.64,1,3.76,2.42,4.19,5.29a4.24,4.24,0,0,0,6.62,2.88c3.25-2.41,4.47-1.75,5.17,1.91a6.24,6.24,0,0,0,1.53,2.69c1.77,2,4,3.35,6.72,2.48,1.9-.59,3.36-7,2.47-9.91C74.59,61.85,72.29,64.54,71,64ZM153,109.51c0-2.53.05-5.06,0-7.59-.14-5-3.31-8.48-7.78-8.69s-8.25,3.43-8.42,8.54c-.16,4.46.27,9-.13,13.38s1.32,5.45,5.5,5.35C153,120.25,153,120.44,153,109.51ZM77.09,59.71c18,5,43.79-19.18,43.85-39.79-4,1.79-7.92,3.71-12,5.23-3.33,1.26-4.64,3.05-4.62,6.87,0,12.49-6.88,21.55-18.79,25.38C83.21,58.16,80.78,58.71,77.09,59.71Zm-.32,87.63v13.88c0,6.93,0,6.82,6.88,6.53,2.41-.1,3-.85,2.71-3.21-1.45-11.24-2.75-22.51-4.07-33.77-.21-1.79,0-3.58-2.8-3.56-3.11,0-2.7,2.09-2.71,4C76.76,136.59,76.77,142,76.77,147.34Zm.38-95.11a13.26,13.26,0,0,0-1.79-6.4c-2.64-4.35-3.77-4.49-7.34-.94-1.37,1.37-2.9,2.58-4.31,3.91-2.09,2-3.26,4.37-2.35,7.24s3,4.28,5.88,4.89C73.85,62.35,77.27,59.35,77.15,52.23Zm-3,83.72c-1,1.35-1.26,1.66-1.45,2-6.83,12.25-3.94,25.61-4.41,38.58-.08,2.3,1.74,1.92,3.18,2,1.84.13,2.71-.54,2.7-2.52C74.12,163.06,74.15,150.09,74.15,136Zm-8.64,23.88-1-.37c-.92,2.32-2,4.58-2.73,7-.79,2.56-1.92,4.13-5,3.8a52,52,0,0,0-7.59,0c-3.7.15-1.87,3-2.13,4.75s-.46,3.65,2.43,3.6c4.61-.08,9.24-.05,13.84.17,2.08.1,2.17-1,2.17-2.46Q65.52,168,65.51,159.83Zm-20.62-47.9c-.47,2-1.46,3.66,1,4.81,10.46,5,21.41,8,33.09,7.88,1.53,0,2.57-.29,2.4-2.22-.14-1.56-.54-2.49-2.33-2.52-2.53,0-5-.21-7.57-.44C62.19,118.58,53.46,115.75,44.89,111.93Zm13,75.37v-.07c2.39,0,4.78.09,7.16,0,1.23-.06,3,.74,3.5-1s-1.07-2.65-2.25-3.56a7.56,7.56,0,0,0-4.63-1.43c-3.88-.07-7.76,0-11.64-.09-2.41-.08-3,1-3,3.23-.06,2.53,1.15,3,3.28,2.93C52.81,187.22,55.35,187.3,57.89,187.3ZM95.61,66.15c-.07-3-1.86-4.86-4.44-4.76A4,4,0,0,0,87,65.19c-.13,1,5.71,6.5,6.53,6C95.66,70.08,95,67.69,95.61,66.15ZM70,181.42c2.46,6.17,3.47,6.67,9.35,5.91,2.59-.34,2.16-1.53,1.13-2.94C77.83,180.82,74.11,181,70,181.42Zm10.12-106c.48-1,1-1.91,1.34-2.85.83-2.07,1.75-4.11,2.38-6.24.26-.91,1.38-2.55-.61-2.84-1.51-.22-3.34-.78-4.63.58C77.49,65.23,78.67,73.72,80.07,75.46Z"/><path class="cls-1" d="M183.36,77.18c-.5,1.47,1.18,4.29-1.39,4.77-3.08.58-7.48,1.82-9.25-.63-2-2.78-1.52-7.17.26-10.6a5,5,0,0,1,6.11-2.48c3.61,1.08,4.49,4,4.27,7.37C183.34,76.06,183.36,76.5,183.36,77.18ZM180.75,76c.08-2.66-.16-5.21-3.15-5.15s-3,2.69-3.08,5,.11,3.93,3.23,3.93C181,79.74,180.87,77.83,180.75,76Z"/><path class="cls-1" d="M200.73,103.22c-.61,1.45,1.29,4.46-1.7,4.91s-7.29,1.69-8.8-.73c-1.79-2.88-1.52-7.25.32-10.66a4.88,4.88,0,0,1,6.16-2.28c3.72,1.2,4.14,4.25,4,7.54C200.72,102.3,200.73,102.6,200.73,103.22Zm-2.66-.75c0-2.55.31-5.32-2.78-5.48s-3.13,2.49-3.14,4.81c0,2.12-.36,4.11,3,4C198.1,105.78,198.26,104.29,198.07,102.47Z"/><path class="cls-1" d="M183.36,103.32c-.53,1.47,1.21,4.32-1.46,4.75-3.11.5-7.59,1.86-9.28-.74-1.83-2.84-1.57-7.29.52-10.67a4.94,4.94,0,0,1,6.26-2.14c3.63,1.34,4.16,4.33,4,7.68C183.35,102.5,183.36,102.8,183.36,103.32Zm-2.61-.81c.06-2.69.12-5.55-3.16-5.54-2.94,0-3,2.67-3.07,5s.13,3.93,3.23,3.87C180.53,105.79,181.06,104.56,180.75,102.51Z"/><path class="cls-1" d="M112.67,108.36c-4.71,1.35-4.77-2-4.64-5.85.2-5.63,2-8.44,5.78-8.35s5.65,3,5.64,9C119.43,108.38,119.43,108.38,112.67,108.36Zm-2-6.34c.18,1.38-1,3.82,2.64,3.82,2.81,0,3.66-1,3.45-3.64-.19-2.37.12-5.25-3.25-5.22C110.87,97,110.55,99.35,110.72,102Z"/></svg>