<svg id="Capa_1" data-name="Capa 1" xmlns="http://www.w3.org/2000/svg" viewBox="0 0 249.48 199.01"><defs><style>.cls-1{fill:#c5875e;}</style></defs><path class="cls-1" d="M124.69,147.55a45.23,45.23,0,0,1-45-45.45c-.06-25.6,20-46,45.2-46,24.85.05,44.83,20.36,44.86,45.62C169.74,127.15,149.69,147.56,124.69,147.55Zm0-5.64c21.55,0,39.34-18,39.44-39.86s-17.64-40.18-39.36-40.29-39.59,18-39.6,40S103,141.93,124.71,141.91Z"/><path class="cls-1" d="M129.14,50.35c-3.18-.38-4.71-2.16-4.4-5,.38-3.48-1.19-3.68-4-3.44C101.16,43.6,86,52.72,75,69.27c-2.56,3.88-5.6,5.29-9.47,4.48A8.47,8.47,0,0,1,59,66.61a8.34,8.34,0,0,1,1.38-6Q79.3,30.94,113.69,25.39c1.63-.26,3.27-.46,4.92-.59s3.76.35,5.21-.36c1.82-.9.51-3.21.91-4.86.71-3,3.9-4.66,6.4-2.87,5.92,4.26,11.72,8.71,17.4,13.29,2.12,1.72,2.27,4.43.17,6.15C143,40.85,137,45.24,131.08,49.7A5.62,5.62,0,0,1,129.14,50.35Zm1.71-26.8c-1.36,6.55-1.37,6.47-7.94,6.78C99.17,31.44,80.32,41.74,66.54,61.45a16.61,16.61,0,0,0-1.72,2.85A2.65,2.65,0,0,0,66,67.78a2.4,2.4,0,0,0,3.3-.4,23.08,23.08,0,0,0,1.93-2.7c13-18.39,30.56-28.07,52.9-28.59,5.84-.14,5.84-.06,6.44,6,0,.14.27.25.61.54l12.32-9.44Z"/><path class="cls-1" d="M160.65,35a10.24,10.24,0,0,1,5.22,1.86C187.4,51.56,199.11,72,200.59,98.32c.15,2.63.58,3.93,3.43,3.54a4.25,4.25,0,0,1,4.68,2.38c1,2,.38,3.65-.82,5.27-3.92,5.25-7.79,10.54-11.76,15.75-2.38,3.13-5.24,3.14-7.62,0-4-5.3-8-10.69-11.95-16a4.54,4.54,0,0,1-.64-5,4,4,0,0,1,4.37-2.35c3.34.48,3.68-1.08,3.44-4q-2.49-29.84-26.92-46.48c-4.12-2.82-5.58-6.5-4.24-10.58A8.77,8.77,0,0,1,160.65,35Zm41.23,73c-6.58-1-6.5-1-6.76-7.42-1-24.77-11.42-44.3-31.59-58.39-1.7-1.18-3.55-2.42-5.16-.12s.16,3.64,1.9,4.79l.55.37q28.67,20.52,28.67,56.12c0,3-1.17,4.36-4.08,4.29a26.63,26.63,0,0,0-2.75.24c3.32,4.48,6.39,8.63,9.65,13Z"/><path class="cls-1" d="M120.49,187.63a4.89,4.89,0,0,1-3.3-1.31c-5.18-4-10.39-7.9-15.53-11.92-3.21-2.52-3.16-5.39.13-8,5.06-3.94,10.2-7.77,15.27-11.71,1.62-1.25,3.29-1.85,5.19-.91a4.3,4.3,0,0,1,2.39,4.73c-.35,2.92.77,3.49,3.52,3.26q29.58-2.4,46.13-27.32c3.25-4.88,8.24-6.2,12.44-3.31s4.93,8,1.78,12.68c-14.5,21.81-34.69,33.64-60.63,35-2.57.14-3.39.76-3.26,3.39C124.79,185.62,123.08,187.56,120.49,187.63Zm-1.89-7.44c1-6.67,1-6.58,7.31-6.85,24.54-1,43.84-11.69,57.7-32.36,1.13-1.7,2-3.47-.07-5s-3.44,0-4.55,1.68c-.18.27-.35.56-.54.84q-20.23,29.09-55.3,29.09c-3,0-4.29-1.2-4.2-4.16a27.45,27.45,0,0,0-.24-2.79l-12.82,9.81Z"/><path class="cls-1" d="M56.87,76.18A4.11,4.11,0,0,1,60.58,78c4.12,5.52,8.31,11,12.3,16.59,2.43,3.42.51,7.32-3.67,7.14-3.49-.16-3.85,1.14-3.58,4.22q2.57,29.64,26.79,46.2c4.84,3.32,6.19,8.35,3.39,12.62s-7.91,5.06-12.75,1.72c-21.35-14.71-32.9-35.14-34.32-61.33-.13-2.47-.53-3.74-3.26-3.35a4.35,4.35,0,0,1-4.91-2.56c-1-2-.18-3.64,1-5.24q5.79-7.74,11.54-15.5C54.09,77.2,55.15,76.15,56.87,76.18ZM47.59,95.52c6.41,1.52,6.34,1.53,6.64,8.07,1.09,24.1,11.23,43.23,30.64,57.23a23.74,23.74,0,0,0,2.51,1.61,2.78,2.78,0,0,0,3.15-4.55,25.91,25.91,0,0,0-2.42-1.73C70,143,60.44,125.15,59.91,102.47c-.14-6-.06-6,5.86-6.54.15,0,.27-.27.57-.61-2.73-3.69-5.5-7.41-8.25-11.15-.61-.83-1.12-1.35-2-.2C53.34,87.8,50.5,91.6,47.59,95.52Z"/><path class="cls-1" d="M125.07,73.21h-.76c-2.25,0-5.19.77-5.14-2.82,0-3.19,2.85-2.76,5-2.83,1,0,2,0,3,0,2,0,3.29,1,3.24,3s-1.54,2.81-3.44,2.74C126.17,73.28,125.4,73.23,125.07,73.21Z"/><path class="cls-1" d="M107.58,77.37c0,2.1-5.14,7.25-6.89,7.15s-2.72-1.26-2.58-3.1,4.73-6.44,6.5-6.52A2.53,2.53,0,0,1,107.58,77.37Z"/><path class="cls-1" d="M151.22,81.68A2.63,2.63,0,0,1,147.08,84a26.9,26.9,0,0,1-4.87-4.9,2.67,2.67,0,0,1,2.13-4.3C146.37,74.77,151.21,79.58,151.22,81.68Z"/><path class="cls-1" d="M100.81,119.19c1.76,0,6.84,5.15,6.82,6.94a2.67,2.67,0,0,1-4.23,2.26,15.31,15.31,0,0,1-4.84-4.9A2.73,2.73,0,0,1,100.81,119.19Z"/><path class="cls-1" d="M96.5,102c0,2.25.88,5.35-2.61,5.4s-2.81-3.23-3-5.57c0-.33,0-.67,0-1,0-2.2,0-4.68,3-4.59s2.79,2.56,2.62,4.76C96.48,101.32,96.5,101.66,96.5,102Z"/><path class="cls-1" d="M144.6,128.77a2.51,2.51,0,0,1-2.46-1.33,2.57,2.57,0,0,1,.2-3.11c1.47-1.62,3-3.21,4.63-4.68a2.52,2.52,0,0,1,3.07-.13,2.56,2.56,0,0,1,1.23,2.54C151.18,124.05,146.52,128.72,144.6,128.77Z"/><path class="cls-1" d="M124.88,130.43c2.21,0,5.26-.85,5.29,2.67s-3.19,2.83-5.48,3c-.44,0-.88,0-1.32,0-2.11,0-4.25-.25-4.16-3s2.27-2.81,4.36-2.64C124,130.46,124.44,130.43,124.88,130.43Z"/><path class="cls-1" d="M152.86,101.67c.07-2.22-.9-5.31,2.62-5.34s2.76,3.24,3,5.54c0,.33,0,.67,0,1,0,2.21-.08,4.65-3,4.55s-2.73-2.58-2.58-4.75C152.88,102.34,152.86,102,152.86,101.67Z"/></svg>