<svg id="Capa_1" data-name="Capa 1" xmlns="http://www.w3.org/2000/svg" viewBox="0 0 249.48 199.01"><defs><style>.cls-1{fill:#c3bb86;}.cls-2{fill:#9c956f;}.cls-3{fill:#6c2911;}.cls-4{fill:#c6875e;}.cls-5{fill:#d8d29b;}.cls-6{fill:#d1bbb4;}.cls-7{fill:#e7992f;}.cls-8{fill:#facb74;}.cls-9{fill:#d4d5bb;}.cls-10{fill:#d7d9c0;}.cls-11{fill:#c88346;}.cls-12{fill:#95cd8f;}.cls-13{fill:#491b0d;}.cls-14{fill:#95541f;}.cls-15{fill:#fff;}</style></defs><path class="cls-1" d="M11.72,32.7c0-2.73,0-5.46,0-8.19,0-.61.11-.84.73-.72a2.81,2.81,0,0,0,.58,0q113.79,0,227.59,0c1.08,0,1.32.24,1.32,1.32q0,75.42,0,150.84c0,1.07-.24,1.32-1.32,1.32q-81.83,0-163.65,0c-.86-1.18-.27-2.59-.65-3.88A22.79,22.79,0,0,1,75,166.67a3.3,3.3,0,0,0-1.69-2.52c-1.75-1.25-3.54-2.54-3.64-5a32.73,32.73,0,0,1,0-4.43,1.11,1.11,0,0,0-.19-1.06,2,2,0,0,1-.16-2.28c.17-.32.33-.6,0-.87a.22.22,0,0,0-.26,0c-.34.25-.2.59-.15.91.14,1,.44,2-.24,2.88-1.27-.22-1-1.51-1.51-2.22-.22-.66-.77-1.15-.93-1.84a6.09,6.09,0,0,1,.22-3.51,1.87,1.87,0,0,0,.92-1.93c-.08-.9,0-1.81,0-2.72,0-.34.08-.78-.2-1-1.16-.74-.94-1.89-.94-3,0-1.91-.08-3.83.06-5.74a2,2,0,0,1,.68-1,1.16,1.16,0,0,0,.35-1.3c-.42-1.15-1-2.26-1.47-3.37a.82.82,0,0,0-.82-.45,1.91,1.91,0,0,1-1.35-.35,2.64,2.64,0,0,1-.06-2.47,7.45,7.45,0,0,0-.11-6.23c-.55-1.06-.15-2.26-.14-3.39a4.48,4.48,0,0,0-.69-2.86,1.75,1.75,0,0,1,.31-2.57,4.77,4.77,0,0,0,1.49-3.86A28.34,28.34,0,0,0,64,97.37,6.49,6.49,0,0,1,64.47,94a9.26,9.26,0,0,0-.31-7.23,18.44,18.44,0,0,1-.81-2.3A6.81,6.81,0,0,0,58,79.64a6.66,6.66,0,0,1-5.65-5.18,7.31,7.31,0,0,0-3-4.08c-1.65-1.18-2.33-3-2.93-4.82a10.93,10.93,0,0,0-4.16-6,3.39,3.39,0,0,1-1.36-2.15,8.2,8.2,0,0,0-3.35-4.68,14,14,0,0,1-3.72-5A8.56,8.56,0,0,0,28.24,43a5.87,5.87,0,0,0-2-.09A5.61,5.61,0,0,1,21.63,41a16.31,16.31,0,0,0-6.85-4.77A4.75,4.75,0,0,1,11.72,32.7Z"/><path class="cls-2" d="M66.65,146.79l0,3.7c-.16.17-.31.42-.55.42-1.62.05-1.81,1-1.5,2.35.22,0,.09-.23.13-.34a2.85,2.85,0,0,0,0-.42c.09-.59.23-1.2.93-1.28s1,.48,1.19,1A2.31,2.31,0,0,1,67,153c.1-.41.08-.84.52-1,.52.68.34,1.72,1.14,2.26a.75.75,0,0,1,.79.45,11.82,11.82,0,0,1,.14,3.41,6,6,0,0,0,2.66,5.27c1.16.82,2.64,1.57,2.73,3.14.16,2.8,1.13,5.39,1.62,8.09a3.56,3.56,0,0,1-.24,2.65q-31.75,0-63.51,0c-1,0-1.17-.2-1.17-1.18q0-70.81,0-141.64a.85.85,0,0,1,1,.32A7.75,7.75,0,0,0,16.36,37a9.43,9.43,0,0,1,3.76,2.55A24.3,24.3,0,0,0,22,41.34a5.33,5.33,0,0,0,4,1.58c3.76-.27,6.35,1.63,7.89,4.84a19,19,0,0,0,5,6.17A6,6,0,0,1,40.79,57a4.75,4.75,0,0,0,1.9,2.79,9.43,9.43,0,0,1,3.57,5.07,15,15,0,0,0,1.94,4.29,3.6,3.6,0,0,0,.85,1,8.6,8.6,0,0,1,3.59,5,6.11,6.11,0,0,0,5,4.36,7.18,7.18,0,0,1,5.86,5.44,15.31,15.31,0,0,0,.92,2.56,7.24,7.24,0,0,1,.17,6,11.6,11.6,0,0,0-.33,6.29,21,21,0,0,1,0,6.72,3.36,3.36,0,0,1-1.31,1.84,1.69,1.69,0,0,0-.27,2.63,3.79,3.79,0,0,1,.7,3.39,5.17,5.17,0,0,0,.54,3.74,4,4,0,0,1,.27,2.93,16.91,16.91,0,0,1-1.43,5,15.16,15.16,0,0,1-4.7.21c-3.3,0-6.6.09-9.89,0a2.09,2.09,0,0,0-2.36,1.4,9.25,9.25,0,0,1-.72,1.4c-.61,1-1,2,.4,2.77.54.31.57,1,.57,1.54,0,2.21.07,4.41,0,6.61-.08.79-1.21,1-1.09,1.9s0,2,0,2.94c0,.51-.06,1.05.48,1.38a3.94,3.94,0,0,0,1.83.19H64.94C65.54,146.34,66.2,146.18,66.65,146.79Z"/><path class="cls-3" d="M62.86,125.76c0-1.76.88-3.3,1-5a4.36,4.36,0,0,0-.38-2.62,5.41,5.41,0,0,1-.46-4,3.11,3.11,0,0,0-.64-2.81c-1.08-1.35-1-2.15.35-3.31a3.61,3.61,0,0,0,1.3-2.89,21.87,21.87,0,0,0-.31-6c-.71-2.71.39-5.17,1-7.7A3.88,3.88,0,0,0,64.61,89c-.61-1.6-1.12-3.24-1.78-4.81-.93-2.23-2.42-3.89-4.94-4.29a6.89,6.89,0,0,1-5.77-5.1,7.84,7.84,0,0,0-3-4.09,8.47,8.47,0,0,1-2.9-4.66c-.71-2.38-1.68-4.54-3.82-6a4.71,4.71,0,0,1-1.89-2.65,7.15,7.15,0,0,0-2.95-4.09,13.14,13.14,0,0,1-4-5.16,8.71,8.71,0,0,0-5.19-4.63,5.66,5.66,0,0,0-2.27-.15,5.37,5.37,0,0,1-4.62-1.83,15.66,15.66,0,0,0-7.1-4.88c-1.17-.35-1.75-1.56-2.74-2.22V32.7a8.86,8.86,0,0,0,5.51,4.14,7.53,7.53,0,0,1,3.3,2.46,8.12,8.12,0,0,0,6.94,3.24c2.91-.12,5,1.83,6.31,4.26a21.6,21.6,0,0,0,5.46,6.89,5.47,5.47,0,0,1,1.87,3.12A4.58,4.58,0,0,0,43,59.61a9.15,9.15,0,0,1,3.58,5,11.15,11.15,0,0,0,3.93,6.15,6.76,6.76,0,0,1,2.37,3.82,5.71,5.71,0,0,0,4.82,4.51C61.07,79.7,63,81.86,64,85c.28.86.55,1.73.89,2.56A7.87,7.87,0,0,1,65,93.41a11.85,11.85,0,0,0-.35,6.19,22.39,22.39,0,0,1,0,6.28,3.91,3.91,0,0,1-1.54,2.8,1.15,1.15,0,0,0-.31,1.84c1.13,1.38,1,3,.79,4.52a3.53,3.53,0,0,0,.24,2.1c1.12,2,.83,4,.19,6.09a6.1,6.1,0,0,0-.35,2.54A.56.56,0,0,1,62.86,125.76Z"/><path class="cls-3" d="M76.38,177.22A13.53,13.53,0,0,0,75.31,171a7.25,7.25,0,0,1-.42-3.1,3.5,3.5,0,0,0-1.61-3.32c-3.29-1.92-4.46-4.77-4-8.44a10.41,10.41,0,0,0-.06-1.57.58.58,0,0,1,.89,0c0,1.19,0,2.38,0,3.57a5.39,5.39,0,0,0,2.63,5c2,1.25,3.14,2.83,2.88,5.3a6.53,6.53,0,0,0,.67,2.88,14.83,14.83,0,0,1,.75,5.87Z"/><path class="cls-2" d="M127,29.78q31.67,0,63.35,0c2,0,3.8.31,5,2.14a6.09,6.09,0,0,1,.88,3.41V56.13c0,4-1.9,6-6,6H63.79c-1.54,0-3.06,0-4.34-1.06a5.63,5.63,0,0,1-2-4.7c0-6.9.08-13.79,0-20.68,0-3.42,1.91-6,5.88-5.93C84.54,29.83,127,29.78,127,29.78Z"/><path class="cls-3" d="M144.12,93.87a24.5,24.5,0,0,1-7.24-.87,6.39,6.39,0,0,1-4.49-4.87,47.81,47.81,0,0,1-1.21-5.68c-.27-2-.14-2.8,1.81-3.4s2.38-1.73,2.63-3.42a12.6,12.6,0,0,1,1.26-4c2.13-4.12,6-4.42,8.69-.67.5.69.78,1.76,1.43,2s1.47-.46,2.24-.69a3.1,3.1,0,0,1,4.13,1.8,5.43,5.43,0,0,1,.74,2.27c0,1.5.32,2.69,1.87,3.39.88.4.7,1.46.53,2.21-.48,2.21-1,4.43-1.6,6.62-.78,2.63-2.57,3.88-5,4.53A24.17,24.17,0,0,1,144.12,93.87Z"/><path class="cls-3" d="M188.19,110.21c2.26,2.65,3.13,5.9,4,9.16.16.58.27,1.18.43,1.92,2.36-1.21,4.65-2.35,6.88-3.58a1.84,1.84,0,0,1,2.4.18c2,1.56,4.13,2.92,6.17,4.41.61.44,1.67,1.07-.08,1.5-.6.15-.31.73-.32,1.1,0,2.58-.07,5.17,0,7.75,0,1-.16,1.54-1.4,1.51-4.25-.08-8.51,0-12.77-.2-1.16-.05-1.84-.29-1.58-1.61.23-1.12-.24-1.49-1.37-1.41a9.45,9.45,0,0,1-4-.44c.16-.18.24-.35.34-.36,2.14-.26,2.12-.26,2.16-2.48.08-4.73-.07-9.43-1.75-13.94-.57-.62-.25-.76.39-.74.93.53,1,1.52,1.29,2.4s.48,1.91.68,2.88a3.47,3.47,0,0,1,.08.91,15.5,15.5,0,0,1,.29,2,5.78,5.78,0,0,1,0,.93,8.71,8.71,0,0,0,.25,2.59,9,9,0,0,1,0,2.84c0,.42-.17.82-.16,1.24s.05.67.48.72.69-.18.75-.61,0-.94.08-1.4c-.27-1.11.42-2.36-.49-3.38a1.24,1.24,0,0,1-.74-1.4,2.54,2.54,0,0,1,.79-1c.61-.43.31-1,.2-1.5s-.27-1-.34-1.47c-.07-.27-.2-.51-.25-.78a41.38,41.38,0,0,0-3-7.16A.71.71,0,0,1,188.19,110.21Z"/><path class="cls-3" d="M188.19,110.21l-.31.65c-.3.17-.54,0-.79-.12,0,.83,1.1,1.45.49,2.41-.49,0-.4.28-.28.57-.81,1.57,0,3.11.11,4.67,0,.45.43,1,0,1.3s-.92,0-1.34-.27c-1.67-.89-2.46-3.45-1.81-6,.1-.41.33-.77.08-1.28a24.52,24.52,0,0,0-4.47,5.19c-.2.33-.27.94-.83.81s-.58-.6-.67-1a6.08,6.08,0,0,1,1.41-5.17,9.43,9.43,0,0,1,3-2.42,11.59,11.59,0,0,0-6.52,1.43c-.4.24-.83.73-1.28.36s0-.9.18-1.29a6.13,6.13,0,0,1,8.57-3.55c.59.28,1.16.62,1.81,1,.25-.82.46-1.67.76-2.49a7.46,7.46,0,0,1,8.06-5,3.61,3.61,0,0,1,2.91,2.27c.44.91-.3.87-.88.92a11,11,0,0,0-7.08,3.36c-.16.16-.28.35-.56.68a10.71,10.71,0,0,1,5.56,0,4.78,4.78,0,0,1,3.41,4.89,1.29,1.29,0,0,1-.37,1c-.41.27-.65-.23-.95-.42-2.08-1.37-4.2-2.66-6.78-2.8C189.07,109.83,188.47,109.45,188.19,110.21Z"/><path class="cls-3" d="M118.23,153.73a8.87,8.87,0,0,1-9.16.68c-1.35-.64-2.6-1.53-2.57-3.28s1.24-2.6,2.52-3.39a3.54,3.54,0,0,1,1.19-.43c1-.18,1.38-.72,1.57-1.76.39-2.18,2.1-3.41,4-4.19a16.93,16.93,0,0,1,12.65-.19c3.28,1.2,4.1,4.14,2.2,7.05a5,5,0,0,1-1.07,1.33c-1.06.81-1.1,1.38,0,2.29a2.42,2.42,0,0,1-.18,3.76,8.27,8.27,0,0,1-7.77,1.61A4.67,4.67,0,0,1,118.23,153.73Z"/><path class="cls-3" d="M62.86,125.76h.87c1.63-.28,2.69.27,3.07,2a7.85,7.85,0,0,0,.66,1.56c.57,1.21.44,2.19-.88,2.81-.53,1.61-.15,3.27-.25,4.91,0,.8,0,1.6,0,2.4,0,.44.12,1-.6,1-.54-.54-.35-1.24-.38-1.88-.1-2,.19-4-.19-5.94a1.92,1.92,0,0,1,.07-.95c1.2-1.43,1.22-2.3.18-3.87a1.62,1.62,0,0,0-1.88-.66c-.86.19-.45.91-.46,1.42,0,1.34.86,2.16,1.73,3a.89.89,0,0,1,0,.81s-.07.11-.1.1c-2-.36-3.89.8-5.85.07-.18-.07,0-.08-.13,0-1.95.37-3.93,0-5.86.21a5.64,5.64,0,0,1-3.08-.12,2.22,2.22,0,0,0-1.93-.09,1.51,1.51,0,0,0-1,.81,41.58,41.58,0,0,0-.13,5,3.14,3.14,0,0,1-.27,1.81.47.47,0,0,1-.67,0c0-2.24,0-4.48,0-6.72,0-.69,0-1.23-.78-1.61a1.49,1.49,0,0,1-.58-2.29,1.27,1.27,0,0,1,.07-.12c1.76-3.63,1.76-3.62,5.78-3.63Z"/><path class="cls-3" d="M65.47,131.59v.85c.29,2.14,0,4.29.14,6.43a3.91,3.91,0,0,0,.1,1.56c.5-.39.31-1,.32-1.45,0-1.79,0-3.58,0-5.38,0-.56-.08-1.15.54-1.49,0,2.47,0,4.95,0,7.43,0,.24,0,.65.08.68,2,.66.86,2.3,1.1,3.49a14.35,14.35,0,0,1,0,1.86c.06.84-.27,1.26-1.13,1.22q-10.23,0-20.45-.06c-.5,0-1.06.2-1.5-.22a1.6,1.6,0,0,1,.86-.94,7,7,0,0,1,2.41-.22H64.55c.81,0,1.69.1,1.87-1.05,0-.33,0-.67,0-1,0-1-.47-1.45-1.52-1.44-6.5.06-13-.66-19.5-.1a2.07,2.07,0,0,1-1-.15c-.41-1.17.79-1,1.22-1.44h.51c.56-.49.18-1.14.31-1.7s.22-.84.81-.71c.5.34.45.88.45,1.38s.16.91.79.88a7.53,7.53,0,0,0,1.06,0c.49-.07,1,0,1.48,0,.21,0,.4-.1.61-.12,1.65.47,2.23-.72,2.84-1.85a.64.64,0,0,1,.57,0,1.35,1.35,0,0,1,.29,1.39c-.12.6.33.53.67.58h.84a8.34,8.34,0,0,1,1.58,0c.3,0,.6,0,.9,0,.51-.07,1,0,1.52,0a5.88,5.88,0,0,0,1-.06c1.24,0,1.71-.8,2-1.84a11.42,11.42,0,0,0,.29-1.83,5.65,5.65,0,0,0,0-3,1.13,1.13,0,0,1,.29-.84v-.82A.54.54,0,0,1,65.47,131.59Z"/><path class="cls-3" d="M85,81.75a21.55,21.55,0,0,1,9.47,1.82,13.87,13.87,0,0,1,2,1.15c3.8,2.67,3.87,6.67.17,9.48a16.07,16.07,0,0,1-8.2,3c-4.86.52-9.62.19-14.06-2.15l-.25-.13c-2-1.3-3.86-2.83-3.74-5.52s1.86-4.19,4-5.35A21.66,21.66,0,0,1,85,81.75Z"/><path class="cls-4" d="M98.89,150.87c-2.14-1.43-4.08-2.71-6-4-.42-.29-1.19-.5-.76-1.25s1-.28,1.54.06c2.1,1.39,4.19,2.8,6.3,4.21.23-.72-.52-1.84.39-2s.91,1,1.16,1.74c.12.32.2.64.29,1,.41,1.5.13,1.87-1.44,2a11,11,0,0,0-1.29.08c-.6.11-1.25.42-1.61-.36C97.22,151.72,97.51,151.44,98.89,150.87Z"/><path class="cls-4" d="M139.32,150.75a31.52,31.52,0,0,0,4.63-2c.52-.27,1.15-.58,1.49.11s-.45.82-.83,1.07a23.15,23.15,0,0,1-5.19,2.26c.28.55,1.41.56.91,1.37s-1.11.21-1.68.1a.86.86,0,0,1-.27-.09c-.85-.47-2.17-.84-2.09-1.85.08-1.16,1.41-1.83,2.41-2.22C139.92,149,139.25,150.2,139.32,150.75Z"/><path class="cls-4" d="M82,113.08l-1.87,3.24c-.29.49-.61,1.12-1.31.73s-.23-1,0-1.44c.54-.93,1.07-1.87,1.77-3.09-.84.24-1.49.45-1.72-.25s.41-.86.81-1.17c.6-.47,1.2-.94,1.78-1.43.84-.71,1.52-.46,1.68.5a25.52,25.52,0,0,1,.12,3.72c0,.3-.16.57-.53.52C82,114.32,82.19,113.64,82,113.08Z"/><path class="cls-4" d="M169.84,114.43a.78.78,0,0,1-.51.94c-.65.29-1.32.52-2,.76-1,.36-1.61.12-1.1-1,.3-.67-.22-.62-.47-.76-.74-.43-1.51-.82-2.28-1.2-.57-.28-.81-.72-.51-1.28s.8-.33,1.23-.08,1,.58,1.49.85.79.44,1-.27c.1-.43.5-.4.83-.35A8.45,8.45,0,0,1,169.84,114.43Z"/><path class="cls-4" d="M125,85.75c.48-.62-.12-.78-.57-1s-1.06-.74-.83-1.46.89-.59,1.46-.58a5.6,5.6,0,0,1,1.67.26c2.27.72,2.5,1.5.93,3.26a6.81,6.81,0,0,1-.72.7c-.38.31-.68.87-1.32.53S124.87,86.49,125,85.75Z"/><path class="cls-4" d="M168.39,133.84c.4,0,.83,0,1,.43a.71.71,0,0,1-.58.86,30.15,30.15,0,0,0-7.15,3.48c-.37.22-1,.38-1.25-.19a.74.74,0,0,1,.31-1,42.27,42.27,0,0,1,7.43-3.56A1.32,1.32,0,0,1,168.39,133.84Z"/><path class="cls-4" d="M162.58,111.13c-.13.64-.5.92-1,.63a22.19,22.19,0,0,1-5.48-4.55.74.74,0,0,1,0-1,.71.71,0,0,1,1,0c1.54,1.71,3.5,2.94,5.14,4.54A2.52,2.52,0,0,1,162.58,111.13Z"/><path class="cls-4" d="M159.66,139.06a.89.89,0,0,1-.45,1c-1.75,1.23-3.48,2.48-5.24,3.7-.45.32-1,.75-1.45,0s.13-1,.55-1.25c1.72-1.19,3.44-2.37,5.18-3.54C158.79,138.64,159.36,138.47,159.66,139.06Z"/><path class="cls-4" d="M122,83.59a1.08,1.08,0,0,1-1.15.8,20,20,0,0,0-5.49.77c-.56.14-1,0-1.1-.57s.22-.81.66-.92a22.93,22.93,0,0,1,6.38-.7C121.87,83,122,83.19,122,83.59Z"/><path class="cls-4" d="M90.54,145.33c-.2-.11-.55-.26-.87-.45-1.31-.77-2.61-1.58-3.93-2.34-.49-.28-1-.57-.66-1.19s.82-.32,1.25-.08c1.5.84,3,1.69,4.49,2.52a.91.91,0,0,1,.5,1.07C91.25,145.19,91,145.33,90.54,145.33Z"/><path class="cls-4" d="M177.16,131.89a1.23,1.23,0,0,1-.89.86c-1.64.48-3.26,1-4.88,1.53-.44.14-.87.22-1.1-.29s.15-.9.62-1.06q2.57-.84,5.16-1.62A.78.78,0,0,1,177.16,131.89Z"/><path class="cls-4" d="M78.71,118.41a1.91,1.91,0,0,1-.16.61c-.9,1.4-1.81,2.79-2.75,4.16-.3.44-.7.84-1.28.37s-.17-.86.08-1.25c.94-1.43,1.88-2.85,2.84-4.27.18-.26.41-.58.8-.48S78.71,118,78.71,118.41Z"/><path class="cls-4" d="M146.67,148.71c-.41,0-.59-.13-.68-.38a.81.81,0,0,1,.35-1c1.13-.81,2.26-1.58,3.4-2.37.39-.27.76-.56,1.17-.79a.66.66,0,0,1,.89.2.6.6,0,0,1,0,.79A44.46,44.46,0,0,1,146.67,148.71Z"/><path class="cls-4" d="M84,140.62c-.13.58-.5.83-1,.61-1.77-.68-3.54-1.39-5.29-2.12-.34-.13-.72-.4-.51-.87s.46-.63.92-.44c1.81.71,3.63,1.42,5.43,2.16A.83.83,0,0,1,84,140.62Z"/><path class="cls-4" d="M107.53,88.1a.65.65,0,0,1-.64-.48.73.73,0,0,1,.32-.88,25.25,25.25,0,0,1,5.21-2.3.53.53,0,0,1,.7.35.67.67,0,0,1-.24.89C111.11,86.51,109.32,87.3,107.53,88.1Z"/><path class="cls-4" d="M70.94,136.1a19.8,19.8,0,0,1,4.43.9c.45.13.81.37.67.91s-.6.58-1,.48c-1.62-.34-3.22-.72-4.84-1.07-.42-.09-.94-.08-.91-.67s.69-.47,1.12-.55A3.62,3.62,0,0,1,70.94,136.1Z"/><path class="cls-4" d="M155.81,105.25c-.08.09-.16.29-.31.35a.9.9,0,0,1-1.05-.18,21.8,21.8,0,0,1-2.73-4.14.69.69,0,0,1,.23-.9.6.6,0,0,1,.89.11c1,1.46,1.93,2.93,2.89,4.4A1.81,1.81,0,0,1,155.81,105.25Z"/><path class="cls-4" d="M182,130.08c.68.16,1.87-.4,1.95.54s-1.1.85-1.88.95c-.94.12-1.87.31-2.8.47-.51.09-1,.08-1.13-.54s.31-.87.78-1A9.16,9.16,0,0,1,182,130.08Z"/><path class="cls-4" d="M101.66,91.8c-.63-.23-.74-.68-.3-1.19a12.74,12.74,0,0,1,4.17-2.94c.64-.31.84.19.72.78A21.31,21.31,0,0,1,101.66,91.8Z"/><path class="cls-4" d="M73.61,124.09c.53.06.77.29.71.77-.09.76-3.23,3.23-4.06,3.19a.74.74,0,0,1-.69-.43c-.11-.24.08-.46.27-.6a26.19,26.19,0,0,0,3.33-2.7A1.56,1.56,0,0,1,73.61,124.09Z"/><path class="cls-4" d="M149.5,95a1,1,0,0,1,.91.65c.48,1,1,2,1.43,2.94a.67.67,0,0,1-.31,1,.58.58,0,0,1-.85-.26c-.56-1.08-1.11-2.19-1.57-3.32C149,95.6,148.91,95.05,149.5,95Z"/><path class="cls-3" d="M45.34,146c0,.39-.3.52-.64.56a16.24,16.24,0,0,1-.23-4.92l.56-.28a2,2,0,0,1,.48,1.85c0,.32,0,.64,0,1A3.92,3.92,0,0,1,45.34,146Z"/><path class="cls-4" d="M146.27,83.55c.95-1.81.25-3.21-.7-4.51a2.83,2.83,0,0,1,.12-4,7.59,7.59,0,0,1,4.8-2.3c1.12-.18,1.85.79,2.26,1.71a8.78,8.78,0,0,1,0,7.17,1.94,1.94,0,0,1-1.7,1.28C149.55,83.07,148.05,83.3,146.27,83.55Z"/><path class="cls-4" d="M132.15,84.41c0-.65-.56-1.24-.25-1.82,7.95,3.21,15.82,1.82,23.74,0a9.65,9.65,0,0,1-.55,2.39c-1.47,1.32-3.44,1.28-5.17,1.85a4.86,4.86,0,0,1-2.95.11c-.71-.2-1.31.51-2.06.48a18,18,0,0,0-4.34,0,1.56,1.56,0,0,1-1.22-.36,1.74,1.74,0,0,0-1.86-.29.87.87,0,0,1-.7.06C135.28,85.92,133.27,86,132.15,84.41Z"/><path class="cls-4" d="M154,88.73a3.55,3.55,0,0,1-2.6,3.1,23,23,0,0,1-15.09.12,4.5,4.5,0,0,1-3-3.51,3.35,3.35,0,0,1,2.35.3,28.64,28.64,0,0,0,3.27.85c2.37.69,4.73.25,7.09.33a28.8,28.8,0,0,0,5-.58A3,3,0,0,0,152.2,89,1.79,1.79,0,0,1,154,88.73Z"/><path class="cls-4" d="M154.87,85.87l-.65,2.53c-1.67.55-3.4.89-5.06,1.46-1.24.44-2.54.11-3.77.16a21,21,0,0,1-6.45-.27,26.81,26.81,0,0,0-4.45-1.21,1.66,1.66,0,0,1-1.47-1,4.79,4.79,0,0,1-.54-2.22,6.76,6.76,0,0,1,3.16,1c.18.15.45.34.65.28,2.07-.66,3.92,1.27,6.07.44.7-.27,1.65.32,2.51.2,3-.41,6.13-.43,9-1.62C154.16,85.55,154.7,85.08,154.87,85.87Z"/><path class="cls-2" d="M140.46,78.1a4.3,4.3,0,0,1,5.47,3.48c.11,1.39-.38,2-1.82,2.2a27,27,0,0,1-6.41-.29c-1-.12-1.36-1.39-.89-2.62a4,4,0,0,1,1.63-1.93,5.24,5.24,0,0,0,3.35.16C141.53,78.39,140.73,78.6,140.46,78.1Z"/><path class="cls-5" d="M137.77,78.42c.41-2.3.75-4.39,2.12-6.13a1.91,1.91,0,0,1,3.08-.18,4.16,4.16,0,0,1,1,5.08c-.17.41-.29.47-.68.34A5.8,5.8,0,0,0,137.77,78.42Z"/><path class="cls-3" d="M135.81,77.41c.62-2.4,1-4.94,2.67-7a3.48,3.48,0,0,1,4.84-.78,8.61,8.61,0,0,1,2.73,3.25c.32.57,0,.92-.37,1.2-.69.47-.68-.28-.84-.56a5.48,5.48,0,0,0-2.32-2.62,2.33,2.33,0,0,0-2.85.55c-1.42,1.39-1.73,3.25-2.28,5-.11.36-.18.74-.27,1.11s-.25.83-.84.74S135.94,77.78,135.81,77.41Z"/><path class="cls-3" d="M154.87,85.87c-1.27,0-2.39.63-3.61.88a26.33,26.33,0,0,1-8.43.62c-.41-.05-.84.23-1.25.19-3.14-.31-6.29-.56-9.1-2.22l-.33-.93a10.63,10.63,0,0,0,4.18,1.75c1.43.33,3.11,1,4.49.72,1.92-.34,3.92.87,5.72-.4,3.06.67,5.71-1,8.55-1.51C155.11,85.29,155.16,85.62,154.87,85.87Z"/><path class="cls-3" d="M133,87.56c2,.38,3.78,1.24,5.69,1.76a19.24,19.24,0,0,0,5.11.43,29.77,29.77,0,0,0,6.26-.57c1.34-.29,2.62-1.41,4.14-.78l-.26.33a12.13,12.13,0,0,1-5.18,1.47c-3.27.14-6.54.67-9.86-.13-1.92-.47-3.8-1-5.66-1.63C132.94,88.21,133,87.88,133,87.56Z"/><path class="cls-3" d="M133.27,82.39c-.66-.57-1.49-.72-1.38-1.56s.81-.88,1.35-1.15a13,13,0,0,1,4-.81C136.19,80.72,133.42,80,133.27,82.39Z"/><path class="cls-5" d="M140.46,78.1c.38,0,.76,0,1.14,0a.79.79,0,0,1,.84.92c-.05.58-.43.88-1,.67s-1,.06-1.52.11c-.7.06-1.37.05-1.49-.88A3.54,3.54,0,0,1,140.46,78.1Z"/><path class="cls-3" d="M153.17,82.63c.37-1,.58-1.57.78-2.15.11-.32-.13-.91.47-.84a1.63,1.63,0,0,1,1.29.77c.29.53-.06.84-.4,1.06C154.73,81.85,154.1,82.14,153.17,82.63Z"/><path class="cls-6" d="M136,83.1c-.88-.15-1.88-.12-1.8-1.27.05-.62.83-.87,1.2-.77C136.52,81.37,135.45,82.47,136,83.1Z"/><path class="cls-7" d="M206.86,128.65c-.18,1.4.67,3.48-.33,4.36s-2.9.23-4.42.24c-2.68,0-2.68,0-2.7-2.68,0-.62,0-1.24,0-1.86,0-2.07,0-2.07-2-2.07s-2,0-2,1.92c0,1.25,0,2.49,0,3.73,0,.75-.22,1.12-1,1s-1.81.56-1.83-.87c0-2.68,0-5.35,0-8,0-.64.37-.81.92-.8,4.21.07,8.41.15,12.62.19.67,0,.78.34.77.89C206.85,125.91,206.86,127.2,206.86,128.65Z"/><path class="cls-4" d="M207.52,122.84H191.87c-.08-.46.36-.47.62-.6,2.24-1.19,4.52-2.29,6.72-3.55a2.12,2.12,0,0,1,2.78.15C203.67,120.21,205.5,121.4,207.52,122.84Z"/><path class="cls-2" d="M196.14,130.13c0-.47,0-.95,0-1.42,0-.87-.06-1.53,1.21-1.52s1.24.62,1.25,1.51c0,1.23.07,2.47.17,3.7.08,1-.64.87-1.22.85s-1.45.34-1.39-.83c0-.76,0-1.53,0-2.29Z"/><path class="cls-4" d="M187.58,113.15c-.19-1.21-1.22-2.1-1.41-3.39.85.07,1.11.83,1.71,1.1A18.13,18.13,0,0,1,191,118a1.12,1.12,0,0,1-1.74.34C188.72,116.62,188.62,114.73,187.58,113.15Z"/><path class="cls-3" d="M191.32,123.75c.51-.26.55.08.55.44v3.34c-.6.59-1.24.88-2,.27l0-3.12C190,123.84,190.84,124.07,191.32,123.75Z"/><path class="cls-4" d="M189.87,127.8c.7.16,1.32-.29,2-.27a4.76,4.76,0,0,1,0,.84c-.08.57.36,1.36-.34,1.65a1.69,1.69,0,0,1-1.75-.09c-.44-.47-.25-1.24-.06-1.88A1.15,1.15,0,0,1,189.87,127.8Z"/><path class="cls-4" d="M189.61,121.18c-.08-.65-.17-1.31-.25-2,.55-.52,1.12-1,1.95-.6l.51,2.18c.13.54.22,1-.49,1.25C190.82,121.64,190.11,121.62,189.61,121.18Z"/><path class="cls-4" d="M191.32,123.75c-.36.52-1,.59-1.48.93-.47-.83-.14-1.73-.2-2.59.61-.32,1-.3.86.56C190.37,123.32,190.64,123.69,191.32,123.75Z"/><path class="cls-3" d="M190.5,122.65c-.05-.55-.41-.63-.86-.56l0-.91c.61.22,1.81-.73,1.72.87Z"/><path class="cls-3" d="M191.31,118.62c-.7,0-1.22.66-1.95.6,0-.29-.05-.57-.08-.86L191,118C191.11,118.22,191.21,118.42,191.31,118.62Z"/><path class="cls-2" d="M186.45,108.86c-.3-3.29,1.46-7.09,5.26-8,2.3-.57,3.89-.06,4.55,1.61C191.91,102.75,188.81,105,186.45,108.86Z"/><path class="cls-2" d="M187.18,109.13a7.35,7.35,0,0,1,7.87-.77c1.24.79,1.66,2,1.81,3.7C193.77,110.09,190.77,108.61,187.18,109.13Z"/><path class="cls-2" d="M176,110.18c.93-2.14,2.47-3.54,4.82-3.6a6.06,6.06,0,0,1,5,2.46C182.19,108.59,179,108.65,176,110.18Z"/><path class="cls-2" d="M179.06,116.76a6.35,6.35,0,0,1,5.62-6.82c.23,0,.52-.12.56.23,0,.17,0,.45-.15.51-2.61,1.3-3.81,3.91-5.62,6C179.42,116.69,179.3,116.69,179.06,116.76Z"/><path class="cls-2" d="M185.88,111.66c.44,2.31.05,4.71.94,7.1C184.43,117.37,184.09,114.72,185.88,111.66Z"/><path class="cls-4" d="M121.68,141c3.06,0,5.45,0,7.51,1.53,1.87,1.36,2.2,2.63,1.17,4.67a9.57,9.57,0,0,1-.68,1.1c-1.57,2.23-1.61,2.22-4.2,1.36a25.92,25.92,0,0,0-3-.79c-.7-.14-1.57-.23-2,.37-.82,1.06-1.29.67-2-.11a6.14,6.14,0,0,0-5.33-2.21c-.87.07-.87-.34-.81-.9a4.23,4.23,0,0,1,1.82-2.8A11,11,0,0,1,121.68,141Z"/><path class="cls-8" d="M123.81,156.81a5.28,5.28,0,0,1-2.64-.48,3.29,3.29,0,0,1-2-4c.57-2.21,1.57-3,3.6-2.75,1.42.19,2.91.32,3.93,1.6.13.16.53.11.8.16a2.35,2.35,0,0,1,2,1.83,2,2,0,0,1-1.12,2.26A8.38,8.38,0,0,1,123.81,156.81Z"/><path class="cls-2" d="M108.85,153.37c-2.13-1.22-2.29-2.62-.51-4.27a7.51,7.51,0,0,1,2.77-1.41c.35-.13.69-.11.83.3.46,1.35,1.72,1.84,2.78,2.55-.26-.84-1.17-1.07-1.68-1.68-.25-.3-.57-.55-.41-1s.56-.24.87-.26a2.8,2.8,0,0,1,1,0c.91.22,2.1.25,2.47,1.17.27.65-.73,1.19-1.13,1.81A3.12,3.12,0,0,0,115,153a9.76,9.76,0,0,1,1.88-2.7c.39-.29.7-.91,1.31-.4s.94.94.63,1.73a4.54,4.54,0,0,1-4,2.85,8.54,8.54,0,0,1-5.69-.8c0-1,1-.48,1.42-.77s1.25-.1,1.32-.83-.6-.78-1.07-1a2.14,2.14,0,0,1-1-.8,2.55,2.55,0,0,0,1.38,1c.35.16.72.35.64.83s-.45.58-.83.68A8.69,8.69,0,0,0,108.85,153.37Z"/><path class="cls-3" d="M108.85,153.37c.31-1,1.32-.44,1.92-.84.28-.19.84-.09.82-.59s-.45-.46-.76-.54a1.92,1.92,0,0,1-1.43-2.52,5.67,5.67,0,0,0,2.51,2.61c.68.47.53,1-.23,1.35s-1.77.28-2.53.82Z"/><path class="cls-2" d="M64.59,132.42l.07.86a1.73,1.73,0,0,1,.07,1c-.11.55.42,1.49-.36,1.58s-1.82,0-2.11-1c-.25-.89-.79-.84-1.21-.35a3.19,3.19,0,0,1-2.81.92,3.86,3.86,0,0,1-1.9-.25,5,5,0,0,1-.78-.23,6.87,6.87,0,0,0-1.36,0c-.63-.14-1.27-.76-1.9,0,0,.07-.21.13-.25.09-1.2-1-2.15.42-3.24.33-.57,0-1.2.12-1.65-.41a1.8,1.8,0,0,1-.22-.91,3.15,3.15,0,0,1,.44-1.9,2.27,2.27,0,0,1,2.65.08c1.19.75,2.43-.29,3.58-.36s2.25,1,3.45.34a1.68,1.68,0,0,1,2.11,0,1.85,1.85,0,0,0,1.92.15C62.36,131.44,63.44,132,64.59,132.42Z"/><path class="cls-4" d="M65.47,131.59h-.88c-1.63-.31-1.83-1.63-2-2.91-.25-2.14-.21-2.12,1.94-2a1.13,1.13,0,0,1,1.17.78c.25.62.54,1.22.8,1.83C67.19,130.82,67.1,131,65.47,131.59Z"/><path class="cls-9" d="M52.28,126.69c1.38-.35,1.58.29,1.28,1.42a14.64,14.64,0,0,0-.35,2c-.14,1.32-1,1.62-2.12,1.55-1.42-.07-1.81-.67-1.39-2,.18-.54.44-1.06.59-1.6C50.57,127,51.12,126.34,52.28,126.69Z"/><path class="cls-4" d="M49.91,126.78c-.41,1.07-.77,2.15-1.22,3.18a2.59,2.59,0,0,1-1.82,1.47,1.79,1.79,0,0,1-1.8-.58c-.51-.52,0-.94.21-1.4a2.34,2.34,0,0,1,.25-.5C46.87,126.45,46.91,126.43,49.91,126.78Z"/><path class="cls-4" d="M57.64,128.88c0,2.24-.68,3-2.34,2.69-.8-.16-1.28-.57-1.13-1.48a16.33,16.33,0,0,0,.27-2.4c0-.89.4-1.09,1.22-1.06C58.09,126.72,57.6,126.39,57.64,128.88Z"/><path class="cls-10" d="M60,126.68c1.32-.35,1.68.36,1.71,1.51a6.56,6.56,0,0,0,.19,1.4c.26,1.06,0,1.8-1.18,2s-2.09-.34-2.19-1.54c0-.62,0-1.26-.08-1.86C58.26,126.87,58.76,126.38,60,126.68Z"/><path class="cls-3" d="M46.77,138.74a9.89,9.89,0,0,1,0,1.22c0,.39-.25.45-.54.2,0-2.15,0-4.3,0-6.44,0-.45-.17-1,.3-1.32.72,1,.31,2.22.42,3.33S46.52,137.72,46.77,138.74Z"/><path class="cls-3" d="M46.54,135.83c0-1.14,0-2.29,0-3.43.42.3.61-.14.88-.28l-.11,2a3.45,3.45,0,0,0,0,1.11C47.3,135.72,47.16,136.13,46.54,135.83Z"/><path class="cls-11" d="M65.71,140.43c-.19,0-.4-.06-.37-.32.3-2.55,0-5.11.13-7.67.58.76.23,1.63.26,2.45C65.77,136.73,65.72,138.58,65.71,140.43Z"/><path class="cls-4" d="M45.08,143.3c0-.67,0-1.33,0-2,6.93-.65,13.87.07,20.81-.05,1.73,0,.9,1.27,1,2.05a1.88,1.88,0,0,1-1.59.44H46.67A1.84,1.84,0,0,1,45.08,143.3Z"/><path class="cls-3" d="M46.54,135.83c1-.24.22-1.23.73-1.68l.1.86c.28.23.32.58.48.94.4-.24.44-.87,1-.92,1.1.11,1.42-.93,2.09-1.59L51.8,135c.73-.84,1.49-1.6,2.35-.2a1.77,1.77,0,0,0,1.52-.34l.47.29c.64.69,1.31,1.22,2.17.29a3,3,0,0,0,2.93-1.21c.3-.34,1-.44,1,0,.08,1.51,1.35,1.35,2.37,1.87v-2.41a4.28,4.28,0,0,1-.11,3.24c-.44,1.12-.45,2.45-1.58,3.25-.29.21-.52.58-1,.38l-.91.25c-.1-.67.43-1,.78-1.43A3.94,3.94,0,0,0,63,136.63c-.65.07-.85.56-1.14.94-.9,1.15-1.34,1.1-1.9-.23-.15-.35-.28-.7-.86-.74a4.65,4.65,0,0,0,.15,2.48c.15.44.44.86.2,1.35l-.85,0A3,3,0,0,1,57.55,138c0,.83.15,1.77-.69,2.42H56c-.3-.63.13-1.2.13-1.82,0-1-.45-.86-1-.47h-.57a1,1,0,0,1-.68-.12c-1.47-.46-1.83-.21-1.92,1.37a.92.92,0,0,1-.19.66l-.38.35c-1-.52-1.49-1.57-2.52-2,.08.77,1,1.17.9,2l-1.21,0c-1-.58-.9-1.64-1.09-2.56-.59,0-.61.43-.63.86C46.23,137.8,46.59,136.8,46.54,135.83Z"/><path class="cls-4" d="M45.34,146c-.52-.52-.21-1.16-.26-1.75a1.84,1.84,0,0,1,1.59-.45H65.29a1.9,1.9,0,0,1,1.6.44c.3,1.4-.28,1.75-1.66,1.74C58.6,145.87,52,145.93,45.34,146Z"/><path class="cls-3" d="M66.89,144.19H45.08v-.9H66.89Z"/><path class="cls-8" d="M59.45,140.43a6.38,6.38,0,0,1-.91-4.09c0-.8.41-.83.85-.38s1.67.64,1,1.81c-.1.19.16.33.36.34a.51.51,0,0,0,.55-.37,3.07,3.07,0,0,1,1-1.53.93.93,0,0,1,1.15-.28c.45.26.12.68.05,1-.29,1.52-1.54,2.35-2.44,3.44Z"/><path class="cls-8" d="M51.7,140.07c-.29-.87-.84-1.79.26-2.49a1.7,1.7,0,0,1,2.53.58C54.44,140.22,53.6,140.8,51.7,140.07Z"/><path class="cls-8" d="M55.06,138.15a.86.86,0,0,1,.9-1.1c.56,0,.56.64.61,1.12a3.51,3.51,0,0,1-.6,2.27H54.6C54.85,139.63,55.31,138.94,55.06,138.15Z"/><path class="cls-8" d="M49.7,140.42a5.22,5.22,0,0,1-1.81-3.4c1.46,1.18,2.83,1.86,3.43,3.4Z"/><path class="cls-5" d="M56.86,140.44a6.51,6.51,0,0,0,.21-2.94c0-.34-.16-.68.34-.76s.62.33.57.71a7.53,7.53,0,0,0,.62,3Z"/><path class="cls-5" d="M62,140.15a4.47,4.47,0,0,0,2-2.93c.07-.31,0-.69.52-.7a3.57,3.57,0,0,1-1.43,3.56C62.78,140.31,62.42,140.83,62,140.15Z"/><path class="cls-5" d="M47.4,137.88l1.09,2.56c-.92.15-1.28-.24-1.16-1.16C47.39,138.82,47.38,138.35,47.4,137.88Z"/><path class="cls-8" d="M84.9,96.59A20.52,20.52,0,0,1,75,94.45c-2-1.06-3.82-2.37-3.82-4.92s1.86-4,3.91-5a22.64,22.64,0,0,1,12.12-2,19.76,19.76,0,0,1,7.15,1.82,9.45,9.45,0,0,1,2.58,1.74c2.29,2.26,2.19,5.18-.36,7.16C93.15,95.94,89.1,96.57,84.9,96.59Z"/><path class="cls-12" d="M80.39,153.48a.65.65,0,0,1-.65.44c-.36,0-.52-.22-.49-.55s.4-.48.74-.49S80.44,153,80.39,153.48Z"/><path class="cls-3" d="M205.14,129.39c.06.81.17,1.78-1.53,1.68-2.21-.14-2.22,0-2.23-1.74,0-2.08,0-2.08,1.88-2.1S205.12,127.22,205.14,129.39Z"/><path class="cls-3" d="M128.74,146.43c-2-2.76-5.16-2.47-8.15-2.92C123,142.14,128,143.89,128.74,146.43Z"/><path class="cls-3" d="M117.44,144.83c.81-1,1.82-.65,2.8-.5.11,0,.27.29.25.43a.37.37,0,0,1-.55.25A5.69,5.69,0,0,0,117.44,144.83Z"/><path class="cls-3" d="M122.35,154.84c1.2-.87,2.43-.42,3.66-.06A6.09,6.09,0,0,1,122.35,154.84Z"/><path class="cls-2" d="M48.82,135c-.45.6,0,1.9-1.45,1.77V135C47.86,135.06,48.34,134.71,48.82,135Z"/><path class="cls-2" d="M58.31,135c-.13.63-.29,1.23-1.13,1.18s-.73-.95-1-1.47Z"/><path class="cls-2" d="M55.67,134.43c-1.05,1.32-1.09,1.33-1.52.34A1.7,1.7,0,0,1,55.67,134.43Z"/><path class="cls-2" d="M61,136.61a.94.94,0,0,1-.61-.9,1.41,1.41,0,0,1,1.17-1.24c.52-.1.42.42.38.7A1.85,1.85,0,0,1,61,136.61Z"/><path class="cls-2" d="M50.86,135.06a1.74,1.74,0,0,1,.87,1.48.52.52,0,0,1-.52.67c-.68-.17-.78-.85-.91-1.41C50.22,135.46,50.45,135.17,50.86,135.06Z"/><path class="cls-2" d="M50.68,138.06c-.92-.24-1.56-.7-1.58-1.69,0-.28-.05-.63.29-.71s.44.28.52.52A5.13,5.13,0,0,0,50.68,138.06Z"/><path class="cls-2" d="M52.73,137c-.65-1.26-.31-2.06.23-2.16s.66.82,1,1.48C53.34,135.9,52.72,135.2,52.73,137Z"/><path class="cls-2" d="M54.29,136.76l1.34-1.26C55.67,136.52,55,136.62,54.29,136.76Z"/><path class="cls-13" d="M95.45,89.67a2,2,0,0,1-.53,1.19c-1.76,1.79-3.66,3.25-6.41,2.8a2.63,2.63,0,0,0-1.28,0c-3,1.12-5.87.27-8.74-.32a6.56,6.56,0,0,1-3.31-2.11,2.48,2.48,0,0,1,.53-3.83,28.65,28.65,0,0,1,5.34-2.67,3.7,3.7,0,0,0,1-.43A3.31,3.31,0,0,1,86,84a15.88,15.88,0,0,0,4,1.36,13.14,13.14,0,0,1,4.35,2.08A2.61,2.61,0,0,1,95.45,89.67Z"/><path class="cls-2" d="M203.09,130.4c-1.14.25-1.1-.49-1.15-1.34-.06-1.08.43-1.23,1.36-1.28,1.24-.07,1.2.62,1.27,1.51C204.66,130.5,204,130.47,203.09,130.4Z"/><path class="cls-4" d="M86.2,90.5a8.78,8.78,0,0,1-6.34-2.77c-.38-.41-.86-.94-.19-1.44s1.3-1.14,2.14-.36c.55.52,1,1.13,1.58,1.65a2.42,2.42,0,0,0,3.83,0c.43-.44.77-.61,1.36-.31a2.33,2.33,0,0,1,1.5,1.92c0,.6-.55.89-1.16,1.09A12.36,12.36,0,0,1,86.2,90.5Z"/><path class="cls-6" d="M86.75,92.8c-.82.94-2,.66-2.93.6-2.23-.14-4.48-.3-6.48-1.49-1-.61-2.07-1.24-2.06-2.53s1.2-1.6,2.1-2.11a6.51,6.51,0,0,1,.75-.3c.25.17.2.33.1.51-1,1.93-.83,2.43,1,3.52a8.1,8.1,0,0,0,2.54.89c.71.14,1.38.16,1.87.85.29.41.67.28.77-.28a2.68,2.68,0,0,1,2.33-.06A.3.3,0,0,1,86.75,92.8Z"/><path class="cls-8" d="M86.73,92.47c-.77,0-1.54.58-2.3,0A2.22,2.22,0,0,0,82,91a4,4,0,0,1-3.2-1.33,1,1,0,0,1,0-1.51c.59-.48.64.33.91.54A10.59,10.59,0,0,0,88,91.18c.71-.1,1.4-.65,2.15-.15.08,1.07-.71,1.38-1.5,1.53A3.39,3.39,0,0,1,86.73,92.47Z"/><path class="cls-6" d="M86.73,92.47A3.58,3.58,0,0,0,90.17,91l.43,0c2.59,0,2.8-.22,3.14-2.86,1,.51,1.28,1.16.66,2.13a6.43,6.43,0,0,1-6.09,2.58,10.13,10.13,0,0,0-1.56-.06Z"/><path class="cls-3" d="M87.81,85.68c2.09-.11,3.39,1.28,4.77,2.5a1.21,1.21,0,0,1,.06,1.58c-.39.69-1.12.32-1.7.35-.38,0-.21-.33-.19-.53a2.8,2.8,0,0,0-2.11-3.13C88.23,86.3,87.83,86.21,87.81,85.68Z"/><path class="cls-2" d="M84.47,85.59c-.37-.66-.85-.72-1.39-.22-.28.26-.52.23-.68-.09s.17-.4.34-.52a3.18,3.18,0,0,1,4.07.79A1.13,1.13,0,0,1,86.69,87c-.28.36-.6.72-1.06.54s0-.63,0-1,.57-1.28-.62-1A.34.34,0,0,1,84.47,85.59Z"/><path class="cls-14" d="M84.47,85.59H85c-.11.41-.19.83-.34,1.23a.57.57,0,0,1-.79.4.8.8,0,0,1-.56-.76c0-.45.23-.62.63-.5S84.43,85.93,84.47,85.59Z"/><path class="cls-3" d="M69,103.87v-4H70v4a1.86,1.86,0,0,1-.25,1,1.6,1.6,0,0,1-.67.62,2.12,2.12,0,0,1-1,.21,2.43,2.43,0,0,1-1-.18,1.39,1.39,0,0,1-.67-.57,1.79,1.79,0,0,1-.24-1h1.08a1.23,1.23,0,0,0,.09.51.58.58,0,0,0,.28.28,1,1,0,0,0,.43.09.82.82,0,0,0,.42-.11.7.7,0,0,0,.28-.33A1.15,1.15,0,0,0,69,103.87Z"/><path class="cls-3" d="M73.66,103.72H74a3.29,3.29,0,0,1-.09.79,1.86,1.86,0,0,1-.29.62,1.43,1.43,0,0,1-.5.41,1.7,1.7,0,0,1-.71.14,2,2,0,0,1-.57-.08,1.07,1.07,0,0,1-.44-.28,1.39,1.39,0,0,1-.29-.49,2.5,2.5,0,0,1-.1-.72v-2.73h1v2.74a1.13,1.13,0,0,0,0,.35.59.59,0,0,0,.14.23.41.41,0,0,0,.2.12.75.75,0,0,0,.26,0,1,1,0,0,0,.59-.15.85.85,0,0,0,.31-.41A1.7,1.7,0,0,0,73.66,103.72Zm-.13.87v-3.22h1v4.23h-1Z"/><path class="cls-3" d="M78,103v.61H77.3a1.34,1.34,0,0,0-.42,0,.83.83,0,0,0-.3.14.6.6,0,0,0-.18.21.68.68,0,0,0-.06.29.51.51,0,0,0,.08.28.41.41,0,0,0,.21.2.66.66,0,0,0,.32.07,1.06,1.06,0,0,0,.48-.11.82.82,0,0,0,.31-.27.53.53,0,0,0,.12-.3l.3.44A2.06,2.06,0,0,1,78,105a1.75,1.75,0,0,1-.28.33,1.49,1.49,0,0,1-.42.26,1.4,1.4,0,0,1-.56.1,1.57,1.57,0,0,1-.73-.16,1.25,1.25,0,0,1-.51-.45,1.13,1.13,0,0,1-.19-.65,1.38,1.38,0,0,1,.12-.59,1.23,1.23,0,0,1,.38-.44,1.81,1.81,0,0,1,.61-.26,3,3,0,0,1,.83-.09Zm-.15,1.67v-2a.84.84,0,0,0-.07-.37.59.59,0,0,0-.23-.24.74.74,0,0,0-.38-.09,1.06,1.06,0,0,0-.37.07.57.57,0,0,0-.23.2.49.49,0,0,0-.08.29h-1a1.13,1.13,0,0,1,.13-.5,1.39,1.39,0,0,1,.36-.42,1.8,1.8,0,0,1,.55-.29,2.39,2.39,0,0,1,.73-.1,2.13,2.13,0,0,1,.86.16,1.29,1.29,0,0,1,.59.49,1.36,1.36,0,0,1,.22.81v1.84a2.83,2.83,0,0,0,0,.54,1.8,1.8,0,0,0,.12.39v.07H78a1.86,1.86,0,0,1-.11-.41A4.22,4.22,0,0,1,77.8,104.7Z"/><path class="cls-3" d="M80.78,102.28v3.32h-1v-4.23h1Zm-.17,1h-.3a2.45,2.45,0,0,1,.13-.83,1.78,1.78,0,0,1,.34-.64,1.51,1.51,0,0,1,.52-.42,1.65,1.65,0,0,1,.68-.14,1.87,1.87,0,0,1,.55.08,1.07,1.07,0,0,1,.42.28,1.24,1.24,0,0,1,.28.48,2.7,2.7,0,0,1,.09.75v2.71h-1v-2.72a1,1,0,0,0-.08-.46.48.48,0,0,0-.24-.23.94.94,0,0,0-.39-.07.93.93,0,0,0-.42.09,1,1,0,0,0-.29.26,1.27,1.27,0,0,0-.18.39A1.78,1.78,0,0,0,80.61,103.33Z"/><path class="cls-3" d="M86,104.86a.93.93,0,0,0,.39-.08.73.73,0,0,0,.28-.24.76.76,0,0,0,.11-.37h1a1.46,1.46,0,0,1-.24.77,1.7,1.7,0,0,1-.62.54,1.92,1.92,0,0,1-.87.19,2,2,0,0,1-.85-.16,1.64,1.64,0,0,1-.61-.46,1.76,1.76,0,0,1-.35-.68,2.71,2.71,0,0,1-.12-.82v-.13a2.71,2.71,0,0,1,.12-.82,1.76,1.76,0,0,1,.35-.68,1.64,1.64,0,0,1,.61-.46,2,2,0,0,1,.84-.16,1.87,1.87,0,0,1,.9.2,1.5,1.5,0,0,1,.61.56,1.66,1.66,0,0,1,.23.85h-1a1,1,0,0,0-.1-.4.75.75,0,0,0-.27-.29.69.69,0,0,0-.42-.11.73.73,0,0,0-.43.11.66.66,0,0,0-.27.3,1.29,1.29,0,0,0-.13.42,2.45,2.45,0,0,0,0,.48v.13a2.63,2.63,0,0,0,0,.49,1.38,1.38,0,0,0,.13.42.69.69,0,0,0,.27.29A.74.74,0,0,0,86,104.86Z"/><path class="cls-3" d="M89.41,99.6v6h-1v-6Zm-.17,3.73h-.3a3,3,0,0,1,.11-.81,2,2,0,0,1,.34-.64,1.4,1.4,0,0,1,.51-.43,1.45,1.45,0,0,1,.66-.15,2,2,0,0,1,.57.08,1.27,1.27,0,0,1,.44.28,1.42,1.42,0,0,1,.28.5,2.32,2.32,0,0,1,.1.74v2.7h-1v-2.7a1.21,1.21,0,0,0-.08-.47.53.53,0,0,0-.25-.24.88.88,0,0,0-.39-.07,1,1,0,0,0-.43.09,1,1,0,0,0-.29.26,1.25,1.25,0,0,0-.17.39A1.78,1.78,0,0,0,89.24,103.33Z"/><path class="cls-3" d="M95.32,103v.61h-.65a1.45,1.45,0,0,0-.43,0,.83.83,0,0,0-.3.14.6.6,0,0,0-.23.5.52.52,0,0,0,.28.48.67.67,0,0,0,.33.07,1,1,0,0,0,.47-.11.86.86,0,0,0,.32-.27.53.53,0,0,0,.12-.3l.3.44a1.54,1.54,0,0,1-.17.34,1.23,1.23,0,0,1-.28.33,1.31,1.31,0,0,1-.41.26,1.4,1.4,0,0,1-.56.1,1.61,1.61,0,0,1-.74-.16,1.39,1.39,0,0,1-.51-.45,1.2,1.2,0,0,1-.18-.65,1.38,1.38,0,0,1,.12-.59,1.2,1.2,0,0,1,.37-.44,2,2,0,0,1,.61-.26,3,3,0,0,1,.84-.09Zm-.14,1.67v-2a.84.84,0,0,0-.08-.37.51.51,0,0,0-.22-.24.75.75,0,0,0-.39-.09,1,1,0,0,0-.36.07.57.57,0,0,0-.23.2.5.5,0,0,0-.09.29h-1a1.11,1.11,0,0,1,.12-.5,1.75,1.75,0,0,1,.36-.42,1.85,1.85,0,0,1,.56-.29,2.39,2.39,0,0,1,.73-.1,2.13,2.13,0,0,1,.86.16A1.29,1.29,0,0,1,96,102a1.43,1.43,0,0,1,.22.81v1.84a2.83,2.83,0,0,0,0,.54,1.38,1.38,0,0,0,.12.39v.07h-1a1.43,1.43,0,0,1-.11-.41A2.77,2.77,0,0,1,95.18,104.7Z"/><path class="cls-3" d="M98.88,104.86a1,1,0,0,0,.39-.08.78.78,0,0,0,.27-.24.67.67,0,0,0,.11-.37h1a1.3,1.3,0,0,1-.24.77,1.55,1.55,0,0,1-.62.54,1.92,1.92,0,0,1-.87.19,2,2,0,0,1-.85-.16,1.61,1.61,0,0,1-.6-.46,1.93,1.93,0,0,1-.36-.68,2.71,2.71,0,0,1-.12-.82v-.13a2.71,2.71,0,0,1,.12-.82,1.93,1.93,0,0,1,.36-.68,1.61,1.61,0,0,1,.6-.46,2,2,0,0,1,.85-.16,1.87,1.87,0,0,1,.9.2,1.5,1.5,0,0,1,.61.56,1.65,1.65,0,0,1,.22.85h-1a.85.85,0,0,0-.1-.4.72.72,0,0,0-.68-.4.76.76,0,0,0-.44.11.79.79,0,0,0-.27.3,1.6,1.6,0,0,0-.13.42,3.58,3.58,0,0,0,0,.48v.13a3.89,3.89,0,0,0,0,.49,1.72,1.72,0,0,0,.13.42.84.84,0,0,0,.27.29A.79.79,0,0,0,98.88,104.86Z"/><path class="cls-3" d="M101.13,103.53v-.08a2.63,2.63,0,0,1,.13-.86,2,2,0,0,1,.39-.68,1.68,1.68,0,0,1,.62-.45,2.26,2.26,0,0,1,1.67,0,1.81,1.81,0,0,1,.63.45,2,2,0,0,1,.38.68,2.63,2.63,0,0,1,.14.86v.08a2.61,2.61,0,0,1-.14.85,2,2,0,0,1-.38.68,1.63,1.63,0,0,1-.62.45,2.28,2.28,0,0,1-1.68,0,1.49,1.49,0,0,1-.62-.45,2,2,0,0,1-.39-.68A2.61,2.61,0,0,1,101.13,103.53Zm1-.08v.08a2.24,2.24,0,0,0,0,.52,1.32,1.32,0,0,0,.17.42.81.81,0,0,0,.29.29.87.87,0,0,0,.44.1.85.85,0,0,0,.43-.1.89.89,0,0,0,.29-.29,1.32,1.32,0,0,0,.17-.42,2.24,2.24,0,0,0,.06-.52v-.08a2.12,2.12,0,0,0-.06-.52,1.32,1.32,0,0,0-.17-.42.86.86,0,0,0-.3-.3.83.83,0,0,0-1.15.3,1.32,1.32,0,0,0-.17.42A2.14,2.14,0,0,0,102.16,103.45Z"/><path class="cls-3" d="M159.77,81.88v5.68h-1.08V81.88Zm2.53,4.84v.84h-2.86v-.84Z"/><path class="cls-3" d="M165.4,85v.61h-.65a1.88,1.88,0,0,0-.43.05.83.83,0,0,0-.3.14.72.72,0,0,0-.17.22.68.68,0,0,0-.06.29.55.55,0,0,0,.07.28.58.58,0,0,0,.21.2.84.84,0,0,0,.33.07,1,1,0,0,0,.47-.11.89.89,0,0,0,.32-.28.48.48,0,0,0,.12-.3l.3.45a1.79,1.79,0,0,1-.17.34,1.41,1.41,0,0,1-.28.33,1.51,1.51,0,0,1-.41.26,1.4,1.4,0,0,1-.56.1,1.64,1.64,0,0,1-.74-.17A1.28,1.28,0,0,1,163,87a1.2,1.2,0,0,1-.18-.65,1.38,1.38,0,0,1,.12-.59,1.2,1.2,0,0,1,.37-.44,1.8,1.8,0,0,1,.61-.27,3.55,3.55,0,0,1,.84-.09Zm-.14,1.67V84.72a.81.81,0,0,0-.08-.37.43.43,0,0,0-.22-.24.75.75,0,0,0-.39-.09.8.8,0,0,0-.36.07.5.5,0,0,0-.23.2.48.48,0,0,0-.09.29h-1a1,1,0,0,1,.13-.5,1.27,1.27,0,0,1,.35-.42,1.85,1.85,0,0,1,.56-.29,2.38,2.38,0,0,1,.73-.11,2.31,2.31,0,0,1,.86.16,1.36,1.36,0,0,1,.59.49,1.48,1.48,0,0,1,.22.81v1.85a2.83,2.83,0,0,0,0,.54,1.31,1.31,0,0,0,.12.38v.07h-1.05a1.27,1.27,0,0,1-.11-.41A2.63,2.63,0,0,1,165.26,86.66Z"/><path class="cls-3" d="M167.05,85.5v-.08a3,3,0,0,1,.11-.88,2,2,0,0,1,.32-.68,1.55,1.55,0,0,1,.52-.44,1.47,1.47,0,0,1,.7-.16,1.4,1.4,0,0,1,.66.15,1.44,1.44,0,0,1,.48.44,2.27,2.27,0,0,1,.33.66,4.26,4.26,0,0,1,.17.85v.22a4,4,0,0,1-.17.82,2.27,2.27,0,0,1-.33.66,1.52,1.52,0,0,1-.48.43,1.57,1.57,0,0,1-1.36,0,1.6,1.6,0,0,1-.52-.45,2,2,0,0,1-.32-.68A2.87,2.87,0,0,1,167.05,85.5Zm1-.08v.08a2.1,2.1,0,0,0,0,.51,1.3,1.3,0,0,0,.15.42.76.76,0,0,0,.67.39.85.85,0,0,0,.5-.14.81.81,0,0,0,.31-.37,1.72,1.72,0,0,0,.14-.53v-.61a2,2,0,0,0-.08-.44,1,1,0,0,0-.18-.34.89.89,0,0,0-.28-.23,1,1,0,0,0-.4-.08.72.72,0,0,0-.4.11.69.69,0,0,0-.28.28,1.36,1.36,0,0,0-.15.43A2.78,2.78,0,0,0,168.08,85.42Zm1.68,1.24V81.57h1v6h-.93Z"/><path class="cls-3" d="M172.75,84.2v3.36h-1V83.34h1Zm1.28-.89v1l-.19,0h-.2a1.09,1.09,0,0,0-.42.07.72.72,0,0,0-.48.48,1.13,1.13,0,0,0-.07.39l-.22,0a2.85,2.85,0,0,1,.08-.74,1.94,1.94,0,0,1,.24-.61,1.15,1.15,0,0,1,.39-.4,1.09,1.09,0,0,1,.54-.14l.19,0Z"/><path class="cls-3" d="M174.58,82.24a.51.51,0,0,1,.16-.38.66.66,0,0,1,.86,0,.5.5,0,0,1,.15.38.54.54,0,0,1-.15.38.69.69,0,0,1-.86,0A.55.55,0,0,1,174.58,82.24Zm1.11,1.1v4.22h-1V83.34Z"/><path class="cls-3" d="M177.76,81.57v6h-1v-6Z"/><path class="cls-3" d="M179.84,81.57v6h-1v-6Z"/><path class="cls-3" d="M182.72,87.64a2.13,2.13,0,0,1-.86-.16,1.76,1.76,0,0,1-.65-.43,1.93,1.93,0,0,1-.41-.65,2.15,2.15,0,0,1-.15-.8v-.16a2.77,2.77,0,0,1,.14-.89,2.36,2.36,0,0,1,.4-.69,1.71,1.71,0,0,1,.62-.44,1.86,1.86,0,0,1,.79-.16,2,2,0,0,1,.79.15,1.55,1.55,0,0,1,.58.43,1.91,1.91,0,0,1,.34.65,2.75,2.75,0,0,1,.12.84v.43h-3.31v-.71h2.3V85a1.23,1.23,0,0,0-.1-.44.71.71,0,0,0-.26-.33.84.84,0,0,0-.47-.13.88.88,0,0,0-.4.1.87.87,0,0,0-.28.29,1.31,1.31,0,0,0-.16.42,2.47,2.47,0,0,0-.06.56v.16a1.93,1.93,0,0,0,.07.49,1.07,1.07,0,0,0,.22.39,1,1,0,0,0,.34.26,1.14,1.14,0,0,0,.46.09,1.28,1.28,0,0,0,.59-.13,1.36,1.36,0,0,0,.46-.38l.51.54a1.53,1.53,0,0,1-.35.38,2,2,0,0,1-.54.29A2.33,2.33,0,0,1,182.72,87.64Z"/><path class="cls-3" d="M186.15,84.2v3.36h-1V83.34h1Zm1.28-.89v1l-.2,0H187a1,1,0,0,0-.41.07.72.72,0,0,0-.48.48.94.94,0,0,0-.07.39l-.23,0a2.83,2.83,0,0,1,.09-.74,2.21,2.21,0,0,1,.23-.61,1.27,1.27,0,0,1,.4-.4,1,1,0,0,1,.54-.14l.18,0Z"/><path class="cls-3" d="M187.81,85.49v-.08a2.86,2.86,0,0,1,.13-.85,2,2,0,0,1,.39-.69,1.87,1.87,0,0,1,.62-.45,2.15,2.15,0,0,1,.83-.16,2.26,2.26,0,0,1,.85.16,1.87,1.87,0,0,1,.62.45,2,2,0,0,1,.39.69,2.57,2.57,0,0,1,.13.85v.08a2.67,2.67,0,0,1-.13.86,2.08,2.08,0,0,1-.39.68,1.77,1.77,0,0,1-.62.45,2,2,0,0,1-.84.16,2.06,2.06,0,0,1-.84-.16,1.87,1.87,0,0,1-.62-.45,2.08,2.08,0,0,1-.39-.68A3,3,0,0,1,187.81,85.49Zm1-.08v.08a2.12,2.12,0,0,0,.06.52,1.37,1.37,0,0,0,.16.43.8.8,0,0,0,.3.28.9.9,0,0,0,.86,0,.8.8,0,0,0,.3-.28,1.68,1.68,0,0,0,.17-.43,2.78,2.78,0,0,0,.05-.52v-.08a2.76,2.76,0,0,0-.05-.51,1.84,1.84,0,0,0-.17-.43.92.92,0,0,0-.3-.29.87.87,0,0,0-.44-.11.82.82,0,0,0-.42.11.92.92,0,0,0-.3.29,1.47,1.47,0,0,0-.16.43A2.1,2.1,0,0,0,188.84,85.41Z"/><path class="cls-3" d="M194.84,86.41a.48.48,0,0,0-.07-.24.68.68,0,0,0-.27-.2,3.36,3.36,0,0,0-.56-.16,3.62,3.62,0,0,1-.61-.18,1.9,1.9,0,0,1-.47-.25,1.06,1.06,0,0,1-.31-.36.88.88,0,0,1-.11-.47,1,1,0,0,1,.11-.49,1.17,1.17,0,0,1,.33-.41,1.52,1.52,0,0,1,.52-.28,2.17,2.17,0,0,1,.69-.11,2.2,2.2,0,0,1,.93.18,1.38,1.38,0,0,1,.6.48,1.24,1.24,0,0,1,.2.69h-1a.64.64,0,0,0-.07-.31.57.57,0,0,0-.24-.22.87.87,0,0,0-.39-.08.8.8,0,0,0-.36.07.58.58,0,0,0-.22.18.45.45,0,0,0-.07.25.34.34,0,0,0,0,.18.31.31,0,0,0,.13.15.91.91,0,0,0,.26.12,3.57,3.57,0,0,0,.4.11,4,4,0,0,1,.82.24,1.39,1.39,0,0,1,.55.41,1,1,0,0,1,.2.65,1.07,1.07,0,0,1-.12.51,1.24,1.24,0,0,1-.35.41,1.75,1.75,0,0,1-.55.26,2.28,2.28,0,0,1-.72.1,2.06,2.06,0,0,1-1-.21,1.52,1.52,0,0,1-.61-.53,1.2,1.2,0,0,1-.21-.67h1a.65.65,0,0,0,.13.39.7.7,0,0,0,.31.22,1.23,1.23,0,0,0,.39.06,1.1,1.1,0,0,0,.39-.06.51.51,0,0,0,.24-.18A.38.38,0,0,0,194.84,86.41Z"/><path class="cls-3" d="M36.32,151.81H34.86v-.76H36.1a1.36,1.36,0,0,0,.53-.09.68.68,0,0,0,.33-.26.79.79,0,0,0,.11-.42.82.82,0,0,0-.1-.44.64.64,0,0,0-.32-.26,1.75,1.75,0,0,0-.56-.08h-.88v4.84H34.14v-5.68h2a3.81,3.81,0,0,1,.87.09,1.88,1.88,0,0,1,.64.28,1.35,1.35,0,0,1,.41.48,1.63,1.63,0,0,1,.13.69,1.27,1.27,0,0,1-.16.64,1.19,1.19,0,0,1-.49.48,1.81,1.81,0,0,1-.85.21Zm0,2.53H34.55l.45-.85h1.27a1.19,1.19,0,0,0,.53-.1.73.73,0,0,0,.31-.29.88.88,0,0,0,.1-.43,1.11,1.11,0,0,0-.09-.46.65.65,0,0,0-.29-.3,1.08,1.08,0,0,0-.51-.1H35.2v-.76h1.42l.24.29a1.46,1.46,0,0,1,.8.2,1.14,1.14,0,0,1,.46.49,1.44,1.44,0,0,1,.15.65,1.71,1.71,0,0,1-.23.91,1.43,1.43,0,0,1-.69.56A2.76,2.76,0,0,1,36.27,154.34Z"/><path class="cls-3" d="M41.78,152.46h.32a3.22,3.22,0,0,1-.1.79,1.77,1.77,0,0,1-.29.62,1.33,1.33,0,0,1-.5.41,1.55,1.55,0,0,1-.71.15,1.79,1.79,0,0,1-.57-.09,1.14,1.14,0,0,1-.44-.28,1.24,1.24,0,0,1-.28-.49,2.18,2.18,0,0,1-.11-.72v-2.72h1v2.73a1.13,1.13,0,0,0,0,.35.53.53,0,0,0,.14.23.45.45,0,0,0,.21.12.66.66,0,0,0,.25,0,1,1,0,0,0,.59-.15.77.77,0,0,0,.31-.4A1.76,1.76,0,0,0,41.78,152.46Zm-.14.88v-3.22h1v4.22h-1Z"/><path class="cls-3" d="M45.48,154.42a2.35,2.35,0,0,1-.86-.16,1.83,1.83,0,0,1-.65-.44,2.06,2.06,0,0,1-.41-.65,2.28,2.28,0,0,1-.14-.8v-.16a2.75,2.75,0,0,1,.14-.88,2.12,2.12,0,0,1,.4-.69,1.71,1.71,0,0,1,.62-.44,1.86,1.86,0,0,1,.79-.16,2,2,0,0,1,.79.15,1.51,1.51,0,0,1,.57.42,1.74,1.74,0,0,1,.35.66,2.75,2.75,0,0,1,.12.84v.43H43.89v-.71h2.29v-.08a1.13,1.13,0,0,0-.09-.45.73.73,0,0,0-.27-.33.81.81,0,0,0-.46-.12.74.74,0,0,0-.4.1.83.83,0,0,0-.28.28,1.68,1.68,0,0,0-.17.43,3.12,3.12,0,0,0,0,.55v.16a1.53,1.53,0,0,0,.07.49,1.2,1.2,0,0,0,.22.4.86.86,0,0,0,.34.25,1.11,1.11,0,0,0,.46.09,1.37,1.37,0,0,0,.58-.12,1.29,1.29,0,0,0,.46-.38l.52.54a1.78,1.78,0,0,1-.36.37,1.74,1.74,0,0,1-.54.29A2,2,0,0,1,45.48,154.42Z"/><path class="cls-3" d="M48.9,151v3.32h-1v-4.22h1Zm-.17,1h-.3a2.73,2.73,0,0,1,.12-.83,2.07,2.07,0,0,1,.35-.64,1.51,1.51,0,0,1,.52-.42,1.65,1.65,0,0,1,.68-.14,1.87,1.87,0,0,1,.55.08,1.07,1.07,0,0,1,.42.28,1.29,1.29,0,0,1,.28.49,2.63,2.63,0,0,1,.09.74v2.71h-1v-2.72a1,1,0,0,0-.08-.45.47.47,0,0,0-.24-.24.94.94,0,0,0-.39-.07.93.93,0,0,0-.42.09,1.06,1.06,0,0,0-.29.27,1.21,1.21,0,0,0-.18.38A1.49,1.49,0,0,0,48.73,152.07Z"/><path class="cls-3" d="M54.82,151.77v.61h-.66a1.73,1.73,0,0,0-.42.05.83.83,0,0,0-.3.14.55.55,0,0,0-.18.22.64.64,0,0,0-.05.28.57.57,0,0,0,.07.29.55.55,0,0,0,.21.19.66.66,0,0,0,.32.07.92.92,0,0,0,.48-.11.94.94,0,0,0,.32-.27.72.72,0,0,0,.12-.3l.29.44a1.48,1.48,0,0,1-.16.34,1.74,1.74,0,0,1-.28.34,1.34,1.34,0,0,1-.42.25,1.36,1.36,0,0,1-.56.11,1.6,1.6,0,0,1-.73-.17,1.25,1.25,0,0,1-.51-.45,1.1,1.1,0,0,1-.19-.64,1.26,1.26,0,0,1,.13-.6,1.08,1.08,0,0,1,.37-.43,1.64,1.64,0,0,1,.61-.27,3.46,3.46,0,0,1,.83-.09Zm-.15,1.67v-1.95a.87.87,0,0,0-.07-.37.53.53,0,0,0-.23-.24.74.74,0,0,0-.38-.09.8.8,0,0,0-.36.08.51.51,0,0,0-.24.19.57.57,0,0,0-.08.29h-1a1,1,0,0,1,.12-.49,1.19,1.19,0,0,1,.36-.42,1.62,1.62,0,0,1,.55-.3,2.45,2.45,0,0,1,.74-.1,2.08,2.08,0,0,1,.85.16,1.38,1.38,0,0,1,.6.49,1.43,1.43,0,0,1,.21.81v1.84a4,4,0,0,0,0,.54,1.37,1.37,0,0,0,.13.39v.07H54.83a1.68,1.68,0,0,1-.12-.41A4,4,0,0,1,54.67,153.44Z"/><path class="cls-3" d="M57.32,150.12l1,3.44,0,.78h-.66l-1.45-4.22Zm.72,3.44,1-3.44H60.1l-1.45,4.22H58Z"/><path class="cls-3" d="M62.54,154.42a2.31,2.31,0,0,1-.86-.16,1.67,1.67,0,0,1-.65-.44,1.76,1.76,0,0,1-.41-.65,2.07,2.07,0,0,1-.15-.8v-.16a2.75,2.75,0,0,1,.14-.88,2.12,2.12,0,0,1,.4-.69,1.71,1.71,0,0,1,.62-.44,1.86,1.86,0,0,1,.79-.16,2,2,0,0,1,.79.15,1.63,1.63,0,0,1,.58.42,1.87,1.87,0,0,1,.34.66,2.75,2.75,0,0,1,.12.84v.43H60.94v-.71h2.3v-.08a1.34,1.34,0,0,0-.1-.45.71.71,0,0,0-.26-.33.84.84,0,0,0-.47-.12.77.77,0,0,0-.4.1.93.93,0,0,0-.28.28,1.37,1.37,0,0,0-.16.43,2.38,2.38,0,0,0-.06.55v.16a1.87,1.87,0,0,0,.07.49,1.2,1.2,0,0,0,.22.4.94.94,0,0,0,.34.25,1.14,1.14,0,0,0,.46.09,1.41,1.41,0,0,0,.59-.12,1.48,1.48,0,0,0,.46-.38l.51.54a1.5,1.5,0,0,1-.35.37,1.74,1.74,0,0,1-.54.29A2.07,2.07,0,0,1,62.54,154.42Z"/><path class="cls-3" d="M66,151v3.32h-1v-4.22h1Zm-.16,1h-.31a2.72,2.72,0,0,1,.13-.83,1.87,1.87,0,0,1,.34-.64,1.61,1.61,0,0,1,.52-.42,1.69,1.69,0,0,1,.68-.14,1.87,1.87,0,0,1,.55.08.94.94,0,0,1,.42.28,1.29,1.29,0,0,1,.28.49,2.63,2.63,0,0,1,.09.74v2.71h-1v-2.72a1,1,0,0,0-.09-.45.41.41,0,0,0-.24-.24.91.91,0,0,0-.39-.07.86.86,0,0,0-.41.09,1,1,0,0,0-.3.27,1.21,1.21,0,0,0-.18.38A1.84,1.84,0,0,0,65.79,152.07Z"/><path class="cls-3" d="M71.4,150.12v.74H69v-.74Zm-1.77-1h1v4a.72.72,0,0,0,0,.29.27.27,0,0,0,.15.13.62.62,0,0,0,.25,0h.18l.15,0v.78a1.77,1.77,0,0,1-.29.07,2,2,0,0,1-.36,0,1.62,1.62,0,0,1-.61-.12.86.86,0,0,1-.41-.39,1.57,1.57,0,0,1-.14-.71Z"/><path class="cls-3" d="M74.73,152.46h.32a3.24,3.24,0,0,1-.09.79,2,2,0,0,1-.29.62,1.41,1.41,0,0,1-.5.41,1.58,1.58,0,0,1-.71.15,1.7,1.7,0,0,1-.57-.09,1.07,1.07,0,0,1-.44-.28,1.25,1.25,0,0,1-.29-.49,2.2,2.2,0,0,1-.1-.72v-2.72h1v2.73a.89.89,0,0,0,0,.35.52.52,0,0,0,.13.23.45.45,0,0,0,.21.12.71.71,0,0,0,.26,0,1.05,1.05,0,0,0,.59-.15.89.89,0,0,0,.31-.4A1.76,1.76,0,0,0,74.73,152.46Zm-.13.88v-3.22h1v4.22h-1Z"/><path class="cls-3" d="M77.57,151v3.36h-1v-4.22h1Zm1.29-.89,0,1-.19,0h-.2a1.33,1.33,0,0,0-.42.06.77.77,0,0,0-.3.19.79.79,0,0,0-.18.29,1.24,1.24,0,0,0-.07.4l-.22,0a3,3,0,0,1,.08-.75,1.8,1.8,0,0,1,.24-.6,1.15,1.15,0,0,1,.39-.4,1.09,1.09,0,0,1,.54-.14h.19A.62.62,0,0,1,78.86,150.09Z"/><path class="cls-3" d="M81.89,151.77v.61h-.65a1.73,1.73,0,0,0-.42.05.83.83,0,0,0-.3.14.55.55,0,0,0-.18.22.64.64,0,0,0-.06.28.57.57,0,0,0,.08.29.44.44,0,0,0,.21.19.66.66,0,0,0,.32.07,1,1,0,0,0,.48-.11.82.82,0,0,0,.31-.27.64.64,0,0,0,.13-.3l.29.44a1.48,1.48,0,0,1-.16.34,2.2,2.2,0,0,1-.28.34,1.46,1.46,0,0,1-.42.25,1.36,1.36,0,0,1-.56.11,1.57,1.57,0,0,1-.73-.17,1.25,1.25,0,0,1-.51-.45,1.1,1.1,0,0,1-.19-.64,1.26,1.26,0,0,1,.13-.6,1.08,1.08,0,0,1,.37-.43,1.64,1.64,0,0,1,.61-.27,3.46,3.46,0,0,1,.83-.09Zm-.15,1.67v-1.95a.87.87,0,0,0-.07-.37.59.59,0,0,0-.23-.24.74.74,0,0,0-.38-.09.8.8,0,0,0-.36.08.47.47,0,0,0-.24.19.49.49,0,0,0-.08.29h-1a1.05,1.05,0,0,1,.13-.49,1.19,1.19,0,0,1,.36-.42,1.62,1.62,0,0,1,.55-.3,2.39,2.39,0,0,1,.73-.1,2.13,2.13,0,0,1,.86.16,1.29,1.29,0,0,1,.59.49,1.36,1.36,0,0,1,.22.81v1.84a2.83,2.83,0,0,0,0,.54,1.8,1.8,0,0,0,.12.39v.07h-1a2.37,2.37,0,0,1-.11-.41A4,4,0,0,1,81.74,153.44Z"/><path class="cls-3" d="M105.16,163.92V160h1.07v3.95a1.86,1.86,0,0,1-.24,1,1.66,1.66,0,0,1-.67.62,2.18,2.18,0,0,1-1,.21,2.48,2.48,0,0,1-1-.18,1.41,1.41,0,0,1-.66-.57,1.79,1.79,0,0,1-.24-1h1.07a1.27,1.27,0,0,0,.1.52.63.63,0,0,0,.28.28,1.1,1.1,0,0,0,.43.08.73.73,0,0,0,.7-.43A1.22,1.22,0,0,0,105.16,163.92Z"/><path class="cls-3" d="M109.86,163.77h.32a3.24,3.24,0,0,1-.09.79,2,2,0,0,1-.29.62,1.53,1.53,0,0,1-.5.41,1.58,1.58,0,0,1-.71.14,1.71,1.71,0,0,1-.57-.08,1.07,1.07,0,0,1-.44-.28,1.25,1.25,0,0,1-.29-.49,2.2,2.2,0,0,1-.1-.72v-2.72h1v2.73a.89.89,0,0,0,0,.35.52.52,0,0,0,.13.23.57.57,0,0,0,.21.13,1.21,1.21,0,0,0,.85-.12.89.89,0,0,0,.31-.4A1.76,1.76,0,0,0,109.86,163.77Zm-.13.87v-3.21h1v4.22h-1Z"/><path class="cls-3" d="M114.14,163.08v.61h-.65a1.88,1.88,0,0,0-.43.05.83.83,0,0,0-.3.14.62.62,0,0,0-.17.22.64.64,0,0,0-.06.28.52.52,0,0,0,.28.48.67.67,0,0,0,.33.07.88.88,0,0,0,.47-.11.86.86,0,0,0,.32-.27.5.5,0,0,0,.12-.3l.3.44a1.54,1.54,0,0,1-.17.34,1.44,1.44,0,0,1-.28.34,1.29,1.29,0,0,1-.41.25,1.4,1.4,0,0,1-.56.1,1.61,1.61,0,0,1-.74-.16,1.39,1.39,0,0,1-.51-.45,1.18,1.18,0,0,1-.18-.65,1.38,1.38,0,0,1,.12-.59,1.17,1.17,0,0,1,.37-.43,1.8,1.8,0,0,1,.61-.27,3.49,3.49,0,0,1,.84-.09Zm-.14,1.67V162.8a.87.87,0,0,0-.08-.37.56.56,0,0,0-.22-.24.75.75,0,0,0-.39-.08.8.8,0,0,0-.36.07.48.48,0,0,0-.23.19.5.5,0,0,0-.09.29h-1a1,1,0,0,1,.12-.49,1.62,1.62,0,0,1,.36-.43,1.85,1.85,0,0,1,.56-.29,2.39,2.39,0,0,1,.73-.1,2.13,2.13,0,0,1,.86.16,1.29,1.29,0,0,1,.59.49,1.43,1.43,0,0,1,.22.81v1.84a2.83,2.83,0,0,0,0,.54,1.38,1.38,0,0,0,.12.39v.07h-1a1.43,1.43,0,0,1-.11-.41A2.77,2.77,0,0,1,114,164.75Z"/><path class="cls-3" d="M117,162.33v3.32h-1v-4.22h1Zm-.16,1h-.3a2.73,2.73,0,0,1,.12-.83,2.05,2.05,0,0,1,.34-.64,1.54,1.54,0,0,1,.53-.42,1.65,1.65,0,0,1,.68-.14,1.92,1.92,0,0,1,.55.08,1.07,1.07,0,0,1,.42.28,1.16,1.16,0,0,1,.27.49,2.28,2.28,0,0,1,.1.74v2.71h-1v-2.72a1.1,1.1,0,0,0-.08-.45.49.49,0,0,0-.25-.24.86.86,0,0,0-.38-.07.93.93,0,0,0-.42.09.86.86,0,0,0-.3.27,1.21,1.21,0,0,0-.18.38A1.78,1.78,0,0,0,116.81,163.38Z"/><path class="cls-3" d="M122.16,164.91a1,1,0,0,0,.39-.08.78.78,0,0,0,.27-.24.67.67,0,0,0,.11-.37h1a1.36,1.36,0,0,1-.25.77,1.55,1.55,0,0,1-.62.54,1.92,1.92,0,0,1-.87.19,2.08,2.08,0,0,1-.85-.16,1.69,1.69,0,0,1-.6-.45,2.11,2.11,0,0,1-.36-.68,2.82,2.82,0,0,1-.12-.83v-.13a2.71,2.71,0,0,1,.12-.82,1.93,1.93,0,0,1,.36-.68,1.61,1.61,0,0,1,.6-.46,2.08,2.08,0,0,1,.85-.16,2,2,0,0,1,.9.2,1.5,1.5,0,0,1,.61.56,1.79,1.79,0,0,1,.23.85h-1a.77.77,0,0,0-.1-.4.73.73,0,0,0-.26-.29.82.82,0,0,0-.42-.11.81.81,0,0,0-.43.11.66.66,0,0,0-.27.3,1.3,1.3,0,0,0-.14.42,3.64,3.64,0,0,0,0,.48v.13a3.79,3.79,0,0,0,0,.49,1.3,1.3,0,0,0,.14.42.69.69,0,0,0,.27.29A.74.74,0,0,0,122.16,164.91Z"/><path class="cls-3" d="M125.6,159.66v6h-1v-6Zm-.16,3.72h-.31a2.64,2.64,0,0,1,.12-.81,2.15,2.15,0,0,1,.33-.64,1.52,1.52,0,0,1,.52-.43,1.4,1.4,0,0,1,.66-.15,1.69,1.69,0,0,1,.56.09,1.05,1.05,0,0,1,.44.27,1.43,1.43,0,0,1,.29.5,2.7,2.7,0,0,1,.09.75v2.69h-1V163a1,1,0,0,0-.09-.46.53.53,0,0,0-.24-.25,1.09,1.09,0,0,0-.82,0,.75.75,0,0,0-.29.27,1.21,1.21,0,0,0-.18.38A2.34,2.34,0,0,0,125.44,163.38Z"/><path class="cls-3" d="M131.52,163.08v.61h-.65a1.75,1.75,0,0,0-.43.05.83.83,0,0,0-.3.14.55.55,0,0,0-.18.22.82.82,0,0,0-.05.28.52.52,0,0,0,.28.48.66.66,0,0,0,.32.07.92.92,0,0,0,.48-.11.86.86,0,0,0,.32-.27.68.68,0,0,0,.12-.3l.29.44a1.48,1.48,0,0,1-.16.34,1.74,1.74,0,0,1-.28.34,1.41,1.41,0,0,1-.41.25,1.45,1.45,0,0,1-.57.1,1.6,1.6,0,0,1-.73-.16,1.25,1.25,0,0,1-.51-.45,1.11,1.11,0,0,1-.19-.65,1.25,1.25,0,0,1,.13-.59,1.08,1.08,0,0,1,.37-.43,1.64,1.64,0,0,1,.61-.27,3.46,3.46,0,0,1,.83-.09Zm-.15,1.67V162.8a.87.87,0,0,0-.07-.37.53.53,0,0,0-.23-.24.74.74,0,0,0-.38-.08.8.8,0,0,0-.36.07.51.51,0,0,0-.24.19.57.57,0,0,0-.08.29h-1a1,1,0,0,1,.12-.49,1.31,1.31,0,0,1,.36-.43,1.74,1.74,0,0,1,.56-.29,2.34,2.34,0,0,1,.73-.1,2.08,2.08,0,0,1,.85.16,1.38,1.38,0,0,1,.6.49,1.43,1.43,0,0,1,.21.81v1.84a4,4,0,0,0,0,.54,1.37,1.37,0,0,0,.13.39v.07h-1.05a1.83,1.83,0,0,1-.12-.41A4.22,4.22,0,0,1,131.37,164.75Z"/><path class="cls-3" d="M135.07,164.91a.93.93,0,0,0,.39-.08.73.73,0,0,0,.28-.24.76.76,0,0,0,.11-.37h1a1.43,1.43,0,0,1-.24.77,1.7,1.7,0,0,1-.62.54,1.92,1.92,0,0,1-.87.19,2,2,0,0,1-.85-.16,1.73,1.73,0,0,1-.61-.45,2.09,2.09,0,0,1-.35-.68,2.82,2.82,0,0,1-.12-.83v-.13a2.71,2.71,0,0,1,.12-.82,1.91,1.91,0,0,1,.35-.68,1.64,1.64,0,0,1,.61-.46,2.2,2.2,0,0,1,1.74,0,1.5,1.5,0,0,1,.61.56,1.68,1.68,0,0,1,.23.85h-1a1,1,0,0,0-.1-.4.75.75,0,0,0-.27-.29.77.77,0,0,0-.42-.11.81.81,0,0,0-.43.11.66.66,0,0,0-.27.3,1.29,1.29,0,0,0-.13.42,2.45,2.45,0,0,0,0,.48v.13a2.56,2.56,0,0,0,0,.49,1.29,1.29,0,0,0,.13.42.69.69,0,0,0,.27.29A.74.74,0,0,0,135.07,164.91Z"/><path class="cls-3" d="M137.32,163.58v-.08a2.63,2.63,0,0,1,.14-.86,1.82,1.82,0,0,1,.38-.68,1.87,1.87,0,0,1,.62-.45,2,2,0,0,1,.84-.16,2.06,2.06,0,0,1,.84.16,1.77,1.77,0,0,1,.62.45,2,2,0,0,1,.39.68,2.63,2.63,0,0,1,.13.86v.08a2.57,2.57,0,0,1-.13.85,2.13,2.13,0,0,1-.39.69,1.63,1.63,0,0,1-.62.44,2.26,2.26,0,0,1-1.67,0,1.67,1.67,0,0,1-.63-.44,1.94,1.94,0,0,1-.38-.69A2.57,2.57,0,0,1,137.32,163.58Zm1-.08v.08a2.18,2.18,0,0,0,.06.52,1.31,1.31,0,0,0,.16.42.83.83,0,0,0,.3.29.85.85,0,0,0,.43.1.8.8,0,0,0,.73-.39,1.6,1.6,0,0,0,.17-.42,2.87,2.87,0,0,0,.05-.52v-.08a2.87,2.87,0,0,0-.05-.52,1.6,1.6,0,0,0-.17-.42.92.92,0,0,0-.3-.29.9.9,0,0,0-.86,0,.92.92,0,0,0-.3.29,1.31,1.31,0,0,0-.16.42A2.18,2.18,0,0,0,138.35,163.5Z"/><path class="cls-3" d="M181.46,140.85h1.07a2.08,2.08,0,0,1-.32,1,1.76,1.76,0,0,1-.76.69,2.51,2.51,0,0,1-1.18.25,2.25,2.25,0,0,1-1-.19,1.86,1.86,0,0,1-.73-.54,2.32,2.32,0,0,1-.46-.85,3.52,3.52,0,0,1-.16-1.12v-.43a3.57,3.57,0,0,1,.16-1.12,2.49,2.49,0,0,1,.47-.85,2.11,2.11,0,0,1,.74-.55,2.67,2.67,0,0,1,2.14.07,1.79,1.79,0,0,1,.74.7,2.31,2.31,0,0,1,.32,1h-1.07a1.76,1.76,0,0,0-.15-.61,1,1,0,0,0-.37-.38,1.47,1.47,0,0,0-.65-.13,1.16,1.16,0,0,0-.54.12,1,1,0,0,0-.4.35,1.63,1.63,0,0,0-.23.58,3.7,3.7,0,0,0-.08.79v.44a4.52,4.52,0,0,0,.07.78,1.8,1.8,0,0,0,.22.58,1,1,0,0,0,.38.36,1.1,1.1,0,0,0,.56.13,1.32,1.32,0,0,0,.64-.13.83.83,0,0,0,.38-.36A1.64,1.64,0,0,0,181.46,140.85Z"/><path class="cls-3" d="M183.09,140.65v-.09a2.61,2.61,0,0,1,.14-.85,2,2,0,0,1,.38-.68,1.87,1.87,0,0,1,.62-.45,2.06,2.06,0,0,1,.84-.16,2,2,0,0,1,.84.16,1.68,1.68,0,0,1,.62.45,2,2,0,0,1,.39.68,2.61,2.61,0,0,1,.13.85v.09a2.61,2.61,0,0,1-.13.85,2,2,0,0,1-.39.68,1.58,1.58,0,0,1-.62.45,2.26,2.26,0,0,1-1.67,0,1.69,1.69,0,0,1-.63-.45,2,2,0,0,1-.38-.68A2.61,2.61,0,0,1,183.09,140.65Zm1-.09v.09a2.24,2.24,0,0,0,.06.52,1.32,1.32,0,0,0,.17.42.81.81,0,0,0,.29.29.87.87,0,0,0,.44.1.79.79,0,0,0,.42-.1.92.92,0,0,0,.3-.29,1.32,1.32,0,0,0,.17-.42,2.24,2.24,0,0,0,.05-.52v-.09a2.1,2.1,0,0,0-.05-.51,1.32,1.32,0,0,0-.17-.42,1,1,0,0,0-.3-.3.83.83,0,0,0-1.15.3,1.32,1.32,0,0,0-.17.42A2.1,2.1,0,0,0,184.12,140.56Z"/><path class="cls-3" d="M188.82,139.36v3.35h-1v-4.22h1Zm-.15,1.09h-.31a3,3,0,0,1,.1-.81,1.83,1.83,0,0,1,.32-.64,1.43,1.43,0,0,1,.52-.43,1.66,1.66,0,0,1,.72-.15,1.42,1.42,0,0,1,.52.08,1.14,1.14,0,0,1,.42.26,1.21,1.21,0,0,1,.26.46,2,2,0,0,1,.1.68v2.81h-1V140a1,1,0,0,0-.09-.46.47.47,0,0,0-.24-.24,1,1,0,0,0-.37-.07.93.93,0,0,0-.42.1.77.77,0,0,0-.28.26,1.25,1.25,0,0,0-.17.39A2.26,2.26,0,0,0,188.67,140.45Zm2.57-.19-.43.08a3,3,0,0,1,.11-.75,2,2,0,0,1,.31-.61,1.45,1.45,0,0,1,.51-.41,1.61,1.61,0,0,1,.71-.15,2,2,0,0,1,.57.08,1.11,1.11,0,0,1,.43.28,1.22,1.22,0,0,1,.27.49,2.52,2.52,0,0,1,.1.73v2.71h-1V140a1.14,1.14,0,0,0-.08-.47.48.48,0,0,0-.24-.23,1.06,1.06,0,0,0-.37-.07.84.84,0,0,0-.37.08.75.75,0,0,0-.27.23,1.07,1.07,0,0,0-.16.32A1.68,1.68,0,0,0,191.24,140.26Z"/><path class="cls-3" d="M197.38,140.84h.32a3.35,3.35,0,0,1-.09.79,1.86,1.86,0,0,1-.29.62,1.43,1.43,0,0,1-.5.41,1.73,1.73,0,0,1-.71.14,2,2,0,0,1-.57-.08,1.18,1.18,0,0,1-.44-.28,1.25,1.25,0,0,1-.29-.49,2.2,2.2,0,0,1-.1-.72v-2.73h1v2.74a1.13,1.13,0,0,0,0,.35.73.73,0,0,0,.13.23.45.45,0,0,0,.21.12.75.75,0,0,0,.26,0,1,1,0,0,0,.59-.15.85.85,0,0,0,.31-.41A1.7,1.7,0,0,0,197.38,140.84Zm-.13.87v-3.22h1v4.22h-1Z"/><path class="cls-3" d="M200.21,139.39v3.32h-1v-4.22h1Zm-.17,1.06h-.3a2.68,2.68,0,0,1,.12-.83,2.11,2.11,0,0,1,.34-.65,1.61,1.61,0,0,1,.53-.41,1.51,1.51,0,0,1,.68-.14,1.92,1.92,0,0,1,.55.08,1.07,1.07,0,0,1,.42.28,1.12,1.12,0,0,1,.27.48,2.35,2.35,0,0,1,.1.75v2.7h-1V140a1.15,1.15,0,0,0-.08-.46.56.56,0,0,0-.24-.24,1.13,1.13,0,0,0-.39-.07.93.93,0,0,0-.42.1.73.73,0,0,0-.29.26,1.57,1.57,0,0,0-.19.39A1.73,1.73,0,0,0,200,140.45Z"/><path class="cls-3" d="M203.65,137.39a.52.52,0,0,1,.15-.38.69.69,0,0,1,.86,0,.53.53,0,0,1,0,.76.69.69,0,0,1-.86,0A.52.52,0,0,1,203.65,137.39Zm1.1,1.1v4.22h-1v-4.22Z"/><path class="cls-3" d="M205.55,140.65v-.08a3.48,3.48,0,0,1,.11-.88A2.27,2.27,0,0,1,206,139a1.44,1.44,0,0,1,1.22-.59,1.4,1.4,0,0,1,.66.15,1.31,1.31,0,0,1,.48.43,2.19,2.19,0,0,1,.32.67,4.76,4.76,0,0,1,.18.84v.22a4.84,4.84,0,0,1-.18.83,2.32,2.32,0,0,1-.32.65,1.41,1.41,0,0,1-.48.43,1.44,1.44,0,0,1-.67.15,1.41,1.41,0,0,1-.69-.16,1.32,1.32,0,0,1-.52-.45,2.21,2.21,0,0,1-.33-.67A3.32,3.32,0,0,1,205.55,140.65Zm1-.08v.08a2.82,2.82,0,0,0,0,.52,1.52,1.52,0,0,0,.16.42.81.81,0,0,0,.27.28.72.72,0,0,0,.4.1.87.87,0,0,0,.5-.14,1,1,0,0,0,.31-.37,1.65,1.65,0,0,0,.14-.53v-.61a1.83,1.83,0,0,0-.08-.43,1.15,1.15,0,0,0-.18-.35.85.85,0,0,0-.28-.22.87.87,0,0,0-.4-.09.76.76,0,0,0-.41.11.81.81,0,0,0-.27.28,1.46,1.46,0,0,0-.15.43A2.19,2.19,0,0,0,206.59,140.57Zm1.67,1.25v-5.1h1v6h-.93Z"/><path class="cls-3" d="M212.7,140.14v.62h-.65a1.8,1.8,0,0,0-.43,0,.84.84,0,0,0-.3.15.6.6,0,0,0-.18.21.88.88,0,0,0-.05.29.53.53,0,0,0,.07.28.58.58,0,0,0,.21.2.66.66,0,0,0,.32.07,1,1,0,0,0,.48-.11,1.09,1.09,0,0,0,.32-.27.71.71,0,0,0,.12-.31l.29.45a1.48,1.48,0,0,1-.16.34,1.41,1.41,0,0,1-1.26.69,1.6,1.6,0,0,1-.73-.16,1.25,1.25,0,0,1-.51-.45,1.13,1.13,0,0,1-.19-.65,1.25,1.25,0,0,1,.13-.59,1.11,1.11,0,0,1,.37-.44,1.81,1.81,0,0,1,.61-.26,3,3,0,0,1,.83-.1Zm-.15,1.68v-1.95a.84.84,0,0,0-.07-.37.53.53,0,0,0-.23-.24.74.74,0,0,0-.38-.09,1,1,0,0,0-.36.07.6.6,0,0,0-.24.2.57.57,0,0,0-.08.29h-1a1.11,1.11,0,0,1,.12-.5,1.39,1.39,0,0,1,.36-.42,1.8,1.8,0,0,1,.55-.29,2.45,2.45,0,0,1,.74-.1,2.08,2.08,0,0,1,.85.16,1.43,1.43,0,0,1,.6.48,1.49,1.49,0,0,1,.21.82v1.84a4,4,0,0,0,0,.54,1.37,1.37,0,0,0,.13.39v.06h-1a1.59,1.59,0,0,1-.12-.4A4.22,4.22,0,0,1,212.55,141.82Z"/><path class="cls-3" d="M214.34,140.65v-.08a3.48,3.48,0,0,1,.11-.88,2.05,2.05,0,0,1,.33-.68,1.48,1.48,0,0,1,.52-.44,1.52,1.52,0,0,1,.69-.15,1.41,1.41,0,0,1,.67.15,1.49,1.49,0,0,1,.48.43,2.45,2.45,0,0,1,.32.67,4.76,4.76,0,0,1,.18.84v.22a4.84,4.84,0,0,1-.18.83,2.62,2.62,0,0,1-.32.65,1.54,1.54,0,0,1-.49.43,1.4,1.4,0,0,1-.66.15,1.47,1.47,0,0,1-.7-.16,1.37,1.37,0,0,1-.51-.45,2,2,0,0,1-.33-.67A3.32,3.32,0,0,1,214.34,140.65Zm1-.08v.08a2.78,2.78,0,0,0,0,.52,1.5,1.5,0,0,0,.15.42.81.81,0,0,0,.27.28.76.76,0,0,0,.41.1.87.87,0,0,0,.5-.14,1,1,0,0,0,.31-.37,2,2,0,0,0,.14-.53v-.61a1.83,1.83,0,0,0-.08-.43,1.43,1.43,0,0,0-.18-.35.91.91,0,0,0-.68-.31.76.76,0,0,0-.41.11.81.81,0,0,0-.27.28,1.82,1.82,0,0,0-.16.43A2.87,2.87,0,0,0,215.37,140.57Zm1.68,1.25v-5.1h1v6h-.94Z"/><path class="cls-3" d="M184.73,146.46v3.35h-1v-4.22h1Zm1.29-.89,0,1-.19,0h-.2a1.33,1.33,0,0,0-.42.06.67.67,0,0,0-.3.19.71.71,0,0,0-.18.29,1.23,1.23,0,0,0-.07.39l-.22,0a3,3,0,0,1,.08-.74,1.8,1.8,0,0,1,.24-.6,1.07,1.07,0,0,1,.39-.4,1,1,0,0,1,.54-.14h.19Z"/><path class="cls-3" d="M186.57,144.49a.52.52,0,0,1,.15-.38.69.69,0,0,1,.86,0,.53.53,0,0,1,0,.76.69.69,0,0,1-.86,0A.52.52,0,0,1,186.57,144.49Zm1.1,1.1v4.22h-1v-4.22Z"/><path class="cls-3" d="M188.65,143.82h1v5.06l-.1.93h-.93Zm3.75,3.84v.08a3.34,3.34,0,0,1-.11.87,2,2,0,0,1-.31.68,1.35,1.35,0,0,1-.51.44,1.47,1.47,0,0,1-.72.16,1.41,1.41,0,0,1-.67-.15,1.31,1.31,0,0,1-.48-.43,2.53,2.53,0,0,1-.32-.66,6.07,6.07,0,0,1-.17-.83v-.22a5.92,5.92,0,0,1,.17-.84,2.53,2.53,0,0,1,.32-.66,1.31,1.31,0,0,1,.48-.43,1.41,1.41,0,0,1,.67-.15,1.66,1.66,0,0,1,.72.15,1.5,1.5,0,0,1,.52.45,2.23,2.23,0,0,1,.3.68A3.32,3.32,0,0,1,192.4,147.66Zm-1,.08v-.08a2.78,2.78,0,0,0,0-.51,1.59,1.59,0,0,0-.14-.42.75.75,0,0,0-.27-.29.77.77,0,0,0-.42-.1.88.88,0,0,0-.41.08.85.85,0,0,0-.28.22,1.2,1.2,0,0,0-.17.34,1.84,1.84,0,0,0-.08.42V148a1.78,1.78,0,0,0,.13.54.88.88,0,0,0,.3.38.84.84,0,0,0,.52.14.77.77,0,0,0,.42-.1.64.64,0,0,0,.26-.28,1.1,1.1,0,0,0,.14-.42A2.93,2.93,0,0,0,191.36,147.74Z"/><path class="cls-3" d="M195,149.89a2.31,2.31,0,0,1-.86-.15,1.87,1.87,0,0,1-.65-.44,1.89,1.89,0,0,1-.41-.65,2.36,2.36,0,0,1-.14-.8v-.16a2.46,2.46,0,0,1,.14-.88,1.91,1.91,0,0,1,1-1.14,2.06,2.06,0,0,1,.79-.15,2,2,0,0,1,.8.15,1.6,1.6,0,0,1,.57.42,1.93,1.93,0,0,1,.35.65,3.22,3.22,0,0,1,.11.84V148h-3.3v-.71h2.29v-.08a1.5,1.5,0,0,0-.09-.45.73.73,0,0,0-.27-.33.81.81,0,0,0-.46-.12.72.72,0,0,0-.4.1.69.69,0,0,0-.28.28,1.29,1.29,0,0,0-.17.43,2.39,2.39,0,0,0,0,.55v.16a1.53,1.53,0,0,0,.07.49,1.22,1.22,0,0,0,.21.39,1,1,0,0,0,.35.26,1.06,1.06,0,0,0,.45.09,1.38,1.38,0,0,0,.59-.12,1.4,1.4,0,0,0,.46-.38l.52.54a1.78,1.78,0,0,1-.36.37,1.74,1.74,0,0,1-.54.29A2,2,0,0,1,195,149.89Z"/><path class="cls-3" d="M198.47,146.46v3.35h-1v-4.22h1Zm1.29-.89,0,1-.19,0h-.2a1.33,1.33,0,0,0-.42.06.67.67,0,0,0-.3.19.71.71,0,0,0-.18.29,1.59,1.59,0,0,0-.07.39l-.22,0a3.5,3.5,0,0,1,.08-.74,1.8,1.8,0,0,1,.24-.6,1.07,1.07,0,0,1,.39-.4,1,1,0,0,1,.54-.14h.19Z"/><path class="cls-3" d="M202.21,149.89a2.35,2.35,0,0,1-.86-.15,2,2,0,0,1-.65-.44,1.89,1.89,0,0,1-.41-.65,2.36,2.36,0,0,1-.14-.8v-.16a2.71,2.71,0,0,1,.14-.88,2.12,2.12,0,0,1,.4-.69,1.87,1.87,0,0,1,.62-.45,2,2,0,0,1,.79-.15,2,2,0,0,1,.79.15,1.51,1.51,0,0,1,.57.42,1.77,1.77,0,0,1,.35.65,2.84,2.84,0,0,1,.12.84V148h-3.31v-.71h2.29v-.08a1.06,1.06,0,0,0-.09-.45.73.73,0,0,0-.27-.33.81.81,0,0,0-.46-.12.74.74,0,0,0-.4.1.75.75,0,0,0-.28.28,1.29,1.29,0,0,0-.17.43,3.12,3.12,0,0,0-.05.55v.16a1.53,1.53,0,0,0,.07.49,1.07,1.07,0,0,0,.22.39.88.88,0,0,0,.34.26,1.11,1.11,0,0,0,.46.09,1.37,1.37,0,0,0,.58-.12,1.4,1.4,0,0,0,.46-.38l.52.54a1.78,1.78,0,0,1-.36.37,1.74,1.74,0,0,1-.54.29A2,2,0,0,1,202.21,149.89Z"/><path class="cls-3" d="M205.63,146.5v3.31h-1v-4.22h1Zm1.6-2.64.62,0a1.07,1.07,0,0,1-.12.51,1,1,0,0,1-.31.37.85.85,0,0,1-.45.13,1,1,0,0,1-.32,0l-.24-.12-.23-.13a.78.78,0,0,0-.28-.05.34.34,0,0,0-.24.11.41.41,0,0,0-.1.28l-.61,0a1.19,1.19,0,0,1,.11-.51,1,1,0,0,1,.31-.37.77.77,0,0,1,.45-.13.65.65,0,0,1,.29.05,1.15,1.15,0,0,1,.25.12l.25.12a.87.87,0,0,0,.28.05.32.32,0,0,0,.24-.11A.37.37,0,0,0,207.23,143.86Zm-1.77,3.69h-.3a2.73,2.73,0,0,1,.12-.83,1.93,1.93,0,0,1,.35-.65,1.48,1.48,0,0,1,.52-.41,1.51,1.51,0,0,1,.68-.14,1.63,1.63,0,0,1,.55.08,1.17,1.17,0,0,1,.42.27,1.2,1.2,0,0,1,.27.5,2.24,2.24,0,0,1,.1.74v2.7h-1V147.1a1.19,1.19,0,0,0-.08-.46.48.48,0,0,0-.24-.23.94.94,0,0,0-.39-.07.93.93,0,0,0-.42.09.82.82,0,0,0-.29.27,1.21,1.21,0,0,0-.18.38A1.45,1.45,0,0,0,205.46,147.55Z"/><path class="cls-3" d="M211.55,147.24v.62h-.66a1.34,1.34,0,0,0-.42,0,.7.7,0,0,0-.3.14.6.6,0,0,0-.18.21.72.72,0,0,0-.06.29.54.54,0,0,0,.08.28.51.51,0,0,0,.21.2.66.66,0,0,0,.32.07A1,1,0,0,0,211,149a.94.94,0,0,0,.32-.27.71.71,0,0,0,.12-.31l.29.45a1.48,1.48,0,0,1-.16.34,1.44,1.44,0,0,1-.28.33,1.42,1.42,0,0,1-1,.36,1.6,1.6,0,0,1-.73-.16,1.25,1.25,0,0,1-.51-.45,1.13,1.13,0,0,1-.19-.65A1.25,1.25,0,0,1,209,148a1,1,0,0,1,.37-.43,1.64,1.64,0,0,1,.61-.27,3.43,3.43,0,0,1,.83-.1Zm-.15,1.68V147a.87.87,0,0,0-.07-.37.59.59,0,0,0-.23-.24.74.74,0,0,0-.38-.09,1,1,0,0,0-.36.07.54.54,0,0,0-.24.2.55.55,0,0,0-.08.29h-1a1.13,1.13,0,0,1,.13-.5,1.39,1.39,0,0,1,.36-.42,1.8,1.8,0,0,1,.55-.29,2.45,2.45,0,0,1,.74-.1,2.08,2.08,0,0,1,.85.16,1.34,1.34,0,0,1,.59.48,1.41,1.41,0,0,1,.22.82v1.84a2.83,2.83,0,0,0,0,.54,1.8,1.8,0,0,0,.12.39v.06h-1a1.59,1.59,0,0,1-.12-.4A4.22,4.22,0,0,1,211.4,148.92Z"/><path class="cls-15" d="M86.59,35.66h3.25a4.61,4.61,0,0,1,1.75.3,2.43,2.43,0,0,1,1.12.91,2.6,2.6,0,0,1,.4,1.48,2.7,2.7,0,0,1-.25,1.21,2.28,2.28,0,0,1-.69.85,3.47,3.47,0,0,1-1,.54l-.52.27H87.73l0-1.33h2.15a1.71,1.71,0,0,0,.86-.19,1.17,1.17,0,0,0,.52-.51,1.47,1.47,0,0,0,.18-.74,1.73,1.73,0,0,0-.17-.78,1.22,1.22,0,0,0-.53-.5,1.89,1.89,0,0,0-.88-.18H88.28V44.6H86.59Zm5,8.94-2.07-4h1.79l2.09,3.92v.09Z"/><path class="cls-15" d="M98.62,41.64h.51A4.84,4.84,0,0,1,99,42.87a2.86,2.86,0,0,1-.46,1,2.2,2.2,0,0,1-.78.64,2.6,2.6,0,0,1-1.12.23,2.58,2.58,0,0,1-.9-.14,1.65,1.65,0,0,1-.69-.43,1.89,1.89,0,0,1-.45-.77,3.42,3.42,0,0,1-.16-1.13V38H96v4.31a1.75,1.75,0,0,0,.07.55.92.92,0,0,0,.22.36.83.83,0,0,0,.32.2,1.35,1.35,0,0,0,.41.06,1.6,1.6,0,0,0,.93-.24,1.37,1.37,0,0,0,.49-.64A2.85,2.85,0,0,0,98.62,41.64ZM98.41,43V38h1.64V44.6H98.51Z"/><path class="cls-15" d="M104.62,38v1.17h-3.8V38Zm-2.78-1.63h1.62v6.36a1.12,1.12,0,0,0,.08.46.49.49,0,0,0,.24.21,1.12,1.12,0,0,0,.38.06l.3,0,.22,0v1.22a3.91,3.91,0,0,1-.46.11,3.32,3.32,0,0,1-.57,0,2.38,2.38,0,0,1-1-.18,1.4,1.4,0,0,1-.64-.61,2.37,2.37,0,0,1-.22-1.12Z"/><path class="cls-15" d="M109.59,40.55v1h-1a2.7,2.7,0,0,0-.67.07,1.37,1.37,0,0,0-.47.22.93.93,0,0,0-.28.35,1.06,1.06,0,0,0-.09.45.93.93,0,0,0,.11.44.82.82,0,0,0,.33.31,1.08,1.08,0,0,0,.52.11,1.54,1.54,0,0,0,.75-.17,1.48,1.48,0,0,0,.49-.43.84.84,0,0,0,.19-.48l.47.7a2.64,2.64,0,0,1-.26.54,2.38,2.38,0,0,1-.44.53,2.24,2.24,0,0,1-1.54.56,2.41,2.41,0,0,1-1.15-.26,2,2,0,0,1-.8-.7,1.8,1.8,0,0,1-.3-1,2.16,2.16,0,0,1,.2-.94,1.87,1.87,0,0,1,.58-.68,2.64,2.64,0,0,1,1-.42,5.21,5.21,0,0,1,1.32-.15Zm-.22,2.64V40.12a1.31,1.31,0,0,0-.12-.58.83.83,0,0,0-.36-.38,1.22,1.22,0,0,0-.61-.14,1.4,1.4,0,0,0-.56.11.91.91,0,0,0-.38.31.9.9,0,0,0-.12.46h-1.63a1.66,1.66,0,0,1,.19-.78,2.24,2.24,0,0,1,.57-.67,2.75,2.75,0,0,1,.87-.45,3.82,3.82,0,0,1,1.16-.17,3.34,3.34,0,0,1,1.34.26,2.08,2.08,0,0,1,.94.76,2.24,2.24,0,0,1,.34,1.28V43a5,5,0,0,0,.06.85,2.3,2.3,0,0,0,.2.61v.11H109.6a2.79,2.79,0,0,1-.17-.64A5.09,5.09,0,0,1,109.37,43.19Z"/><path class="cls-15" d="M118.73,38v1.17h-3.81V38Zm-2.79-1.63h1.63v6.36a1.12,1.12,0,0,0,.08.46.42.42,0,0,0,.24.21,1.08,1.08,0,0,0,.38.06l.3,0,.22,0v1.22a4.46,4.46,0,0,1-.46.11,3.32,3.32,0,0,1-.57,0,2.35,2.35,0,0,1-1-.18,1.35,1.35,0,0,1-.64-.61,2.36,2.36,0,0,1-.23-1.12Z"/><path class="cls-15" d="M122.8,44.72a3.62,3.62,0,0,1-1.36-.24,3.06,3.06,0,0,1-1-.69,3,3,0,0,1-.65-1,3.57,3.57,0,0,1-.22-1.27v-.24a4.15,4.15,0,0,1,.22-1.4,3.2,3.2,0,0,1,.63-1.08,2.6,2.6,0,0,1,1-.7,3,3,0,0,1,1.24-.25,3.06,3.06,0,0,1,1.25.24,2.39,2.39,0,0,1,.9.66,2.91,2.91,0,0,1,.55,1,4.6,4.6,0,0,1,.18,1.33v.68h-5.2V40.65h3.61v-.12a2,2,0,0,0-.15-.71,1.13,1.13,0,0,0-.42-.52,1.26,1.26,0,0,0-.73-.19,1.18,1.18,0,0,0-.63.16,1.24,1.24,0,0,0-.44.44,2.13,2.13,0,0,0-.26.67,4,4,0,0,0-.09.88v.24a2.45,2.45,0,0,0,.12.78,1.62,1.62,0,0,0,.87,1,1.73,1.73,0,0,0,.73.15,2,2,0,0,0,.92-.21,1.94,1.94,0,0,0,.72-.59l.82.85a2.8,2.8,0,0,1-.56.59,3,3,0,0,1-.85.46A3.71,3.71,0,0,1,122.8,44.72Z"/><path class="cls-15" d="M128.2,39.32V44.6h-1.62V38h1.52ZM128,41h-.5a4.66,4.66,0,0,1,.17-1.28,3,3,0,0,1,.5-1,2.23,2.23,0,0,1,.82-.67,2.51,2.51,0,0,1,1.13-.24,2.45,2.45,0,0,1,.83.13,1.72,1.72,0,0,1,.64.41,1.69,1.69,0,0,1,.42.73,3.35,3.35,0,0,1,.15,1.06V44.6H130.5V40.33a1.65,1.65,0,0,0-.13-.73.76.76,0,0,0-.38-.37,1.48,1.48,0,0,0-.59-.11,1.33,1.33,0,0,0-.65.15,1.14,1.14,0,0,0-.45.42,1.82,1.82,0,0,0-.26.6A3,3,0,0,0,128,41Zm4-.3-.67.12a4.1,4.1,0,0,1,.17-1.18,2.81,2.81,0,0,1,.49-1,2.11,2.11,0,0,1,.8-.65,2.52,2.52,0,0,1,1.12-.24,2.77,2.77,0,0,1,.89.14,1.79,1.79,0,0,1,.68.43,2.08,2.08,0,0,1,.43.78,3.77,3.77,0,0,1,.15,1.15V44.6h-1.64V40.32a1.64,1.64,0,0,0-.13-.74.74.74,0,0,0-.38-.36,1.42,1.42,0,0,0-.57-.1,1.22,1.22,0,0,0-.59.13,1.37,1.37,0,0,0-.42.34,1.67,1.67,0,0,0-.25.52A2.47,2.47,0,0,0,132,40.74Z"/><path class="cls-15" d="M141.4,40.55v1h-1a2.76,2.76,0,0,0-.67.07,1.37,1.37,0,0,0-.47.22,1.17,1.17,0,0,0-.28.35,1.06,1.06,0,0,0-.09.45.83.83,0,0,0,.12.44.71.71,0,0,0,.33.31,1,1,0,0,0,.51.11,1.49,1.49,0,0,0,.75-.17,1.52,1.52,0,0,0,.5-.43.91.91,0,0,0,.19-.48l.46.7a2.56,2.56,0,0,1-.25.54,2.76,2.76,0,0,1-.45.53,2.1,2.1,0,0,1-.65.4,2.19,2.19,0,0,1-.88.16,2.45,2.45,0,0,1-1.16-.26,2,2,0,0,1-.8-.7,1.8,1.8,0,0,1-.3-1,2.16,2.16,0,0,1,.2-.94,2,2,0,0,1,.58-.68,2.62,2.62,0,0,1,1-.42,5.19,5.19,0,0,1,1.31-.15Zm-.23,2.64V40.12a1.31,1.31,0,0,0-.12-.58.81.81,0,0,0-.35-.38,1.25,1.25,0,0,0-.61-.14,1.41,1.41,0,0,0-.57.11.88.88,0,0,0-.37.31.82.82,0,0,0-.13.46h-1.63a1.68,1.68,0,0,1,.2-.78,2.2,2.2,0,0,1,.56-.67A2.81,2.81,0,0,1,139,38a3.71,3.71,0,0,1,1.15-.17,3.42,3.42,0,0,1,1.35.26,2.11,2.11,0,0,1,.93.76,2.24,2.24,0,0,1,.34,1.28V43a4.1,4.1,0,0,0,.07.85,2,2,0,0,0,.19.61v.11h-1.65a2.34,2.34,0,0,1-.18-.64A5.09,5.09,0,0,1,141.17,43.19ZM139.41,37l1.21-1.87h1.79L140.73,37Z"/><path class="cls-15" d="M147.41,38v1.17H143.6V38Zm-2.79-1.63h1.63v6.36a1,1,0,0,0,.08.46.42.42,0,0,0,.24.21,1,1,0,0,0,.38.06l.29,0,.23,0v1.22a4.46,4.46,0,0,1-.46.11,3.37,3.37,0,0,1-.58,0,2.33,2.33,0,0,1-.95-.18,1.35,1.35,0,0,1-.64-.61,2.36,2.36,0,0,1-.23-1.12Z"/><path class="cls-15" d="M148.47,36.21a.79.79,0,0,1,.25-.6,1.07,1.07,0,0,1,1.35,0,.87.87,0,0,1,0,1.2,1.07,1.07,0,0,1-1.35,0A.79.79,0,0,1,148.47,36.21ZM150.21,38V44.6h-1.63V38Z"/><path class="cls-15" d="M154.48,43.45a1.38,1.38,0,0,0,.62-.14,1.13,1.13,0,0,0,.43-.38,1.1,1.1,0,0,0,.18-.57h1.53a2.22,2.22,0,0,1-.38,1.21,2.67,2.67,0,0,1-1,.84,3,3,0,0,1-1.37.31,3.11,3.11,0,0,1-1.34-.26,2.61,2.61,0,0,1-.95-.71,3.13,3.13,0,0,1-.56-1.07,4.28,4.28,0,0,1-.19-1.31v-.19a4.28,4.28,0,0,1,.19-1.31,3,3,0,0,1,.56-1.06,2.53,2.53,0,0,1,.95-.72,3.25,3.25,0,0,1,1.33-.26,3.19,3.19,0,0,1,1.42.31,2.36,2.36,0,0,1,1,.89,2.65,2.65,0,0,1,.36,1.34h-1.53a1.51,1.51,0,0,0-.16-.64,1.21,1.21,0,0,0-.42-.45,1.24,1.24,0,0,0-.66-.17,1.29,1.29,0,0,0-.68.17,1.15,1.15,0,0,0-.43.47,2,2,0,0,0-.2.66,4.81,4.81,0,0,0-.06.77v.19a4.93,4.93,0,0,0,.06.78,2,2,0,0,0,.2.66,1.19,1.19,0,0,0,.43.46A1.22,1.22,0,0,0,154.48,43.45Z"/><path class="cls-15" d="M162.21,40.55v1h-1a2.7,2.7,0,0,0-.67.07,1.37,1.37,0,0,0-.47.22,1,1,0,0,0-.28.35,1.06,1.06,0,0,0-.09.45.93.93,0,0,0,.11.44.79.79,0,0,0,.34.31,1,1,0,0,0,.51.11,1.49,1.49,0,0,0,.75-.17,1.52,1.52,0,0,0,.5-.43,1,1,0,0,0,.19-.48l.46.7a2.56,2.56,0,0,1-.25.54,2.76,2.76,0,0,1-.45.53,2.1,2.1,0,0,1-.65.4,2.19,2.19,0,0,1-.88.16,2.45,2.45,0,0,1-1.16-.26,2,2,0,0,1-.8-.7,1.8,1.8,0,0,1-.3-1,2.16,2.16,0,0,1,.2-.94,2,2,0,0,1,.58-.68,2.64,2.64,0,0,1,1-.42,5.32,5.32,0,0,1,1.32-.15ZM162,43.19V40.12a1.31,1.31,0,0,0-.12-.58.86.86,0,0,0-.35-.38,1.25,1.25,0,0,0-.61-.14,1.41,1.41,0,0,0-.57.11.88.88,0,0,0-.37.31.82.82,0,0,0-.13.46H158.2a1.68,1.68,0,0,1,.2-.78,2.2,2.2,0,0,1,.56-.67,2.81,2.81,0,0,1,.88-.45,3.71,3.71,0,0,1,1.15-.17,3.42,3.42,0,0,1,1.35.26,2.11,2.11,0,0,1,.93.76,2.24,2.24,0,0,1,.34,1.28V43a4.1,4.1,0,0,0,.07.85,2,2,0,0,0,.19.61v.11h-1.65A2.34,2.34,0,0,1,162,44,5.09,5.09,0,0,1,162,43.19Z"/><path class="cls-15" d="M165.11,43.81a.81.81,0,0,1,.25-.62,1.06,1.06,0,0,1,1.37,0,.85.85,0,0,1,.25.62.86.86,0,0,1-.25.61,1.06,1.06,0,0,1-1.37,0A.82.82,0,0,1,165.11,43.81Zm0-5.16a.84.84,0,0,1,.25-.62,1,1,0,0,1,1.36,0,.89.89,0,0,1,0,1.24,1.08,1.08,0,0,1-1.36,0A.84.84,0,0,1,165.12,38.65Z"/><path class="cls-15" d="M74.32,53.46a1.31,1.31,0,0,0-.07-.46.92.92,0,0,0-.28-.38,2.5,2.5,0,0,0-.56-.33,8.11,8.11,0,0,0-.92-.34,10.59,10.59,0,0,1-1.17-.44,5.08,5.08,0,0,1-.95-.57,2.4,2.4,0,0,1-.63-.76,2.07,2.07,0,0,1-.23-1,2.15,2.15,0,0,1,.24-1,2.25,2.25,0,0,1,.67-.78,3.2,3.2,0,0,1,1-.51,4.82,4.82,0,0,1,1.31-.18,3.83,3.83,0,0,1,1.72.37,2.79,2.79,0,0,1,1.13,1,2.57,2.57,0,0,1,.4,1.4H74.32a1.47,1.47,0,0,0-.17-.74,1.25,1.25,0,0,0-.53-.51,1.93,1.93,0,0,0-.89-.18,2.09,2.09,0,0,0-.85.15,1.14,1.14,0,0,0-.51.42,1,1,0,0,0-.17.59.83.83,0,0,0,.12.44,1.08,1.08,0,0,0,.35.36,2.09,2.09,0,0,0,.58.31,7.24,7.24,0,0,0,.8.29,9.12,9.12,0,0,1,1.3.49,3.61,3.61,0,0,1,.92.62,2.18,2.18,0,0,1,.56.77,2.35,2.35,0,0,1,.19,1,2.29,2.29,0,0,1-.23,1,2.18,2.18,0,0,1-.65.77,3.07,3.07,0,0,1-1,.49,5,5,0,0,1-1.33.16,4.77,4.77,0,0,1-1.29-.17,3.89,3.89,0,0,1-1.15-.53,2.62,2.62,0,0,1-.82-.9A2.57,2.57,0,0,1,69.23,53h1.7a1.6,1.6,0,0,0,.14.72,1.25,1.25,0,0,0,.39.49,1.83,1.83,0,0,0,.6.27,2.94,2.94,0,0,0,.74.09,2.06,2.06,0,0,0,.85-.15,1.09,1.09,0,0,0,.51-.4A1.07,1.07,0,0,0,74.32,53.46Z"/><path class="cls-15" d="M81.09,51.73v1h-1a2.76,2.76,0,0,0-.67.07,1.38,1.38,0,0,0-.47.23,1,1,0,0,0-.28.34,1.06,1.06,0,0,0-.09.45.81.81,0,0,0,.12.44.71.71,0,0,0,.33.31,1,1,0,0,0,.51.12,1.49,1.49,0,0,0,.75-.18,1.41,1.41,0,0,0,.5-.43.89.89,0,0,0,.19-.47l.46.7a2.76,2.76,0,0,1-.25.53,2.48,2.48,0,0,1-.45.53,2.1,2.1,0,0,1-.65.4,2.19,2.19,0,0,1-.88.16A2.57,2.57,0,0,1,78,55.65a2.12,2.12,0,0,1-.8-.71,1.79,1.79,0,0,1-.29-1,2.12,2.12,0,0,1,.19-.93,1.85,1.85,0,0,1,.59-.69,2.66,2.66,0,0,1,1-.42A5.19,5.19,0,0,1,80,51.73Zm-.23,2.64V51.3a1.31,1.31,0,0,0-.12-.58.8.8,0,0,0-.35-.38,1.25,1.25,0,0,0-.61-.14,1.41,1.41,0,0,0-.57.11,1,1,0,0,0-.37.31.82.82,0,0,0-.13.46H77.08a1.68,1.68,0,0,1,.2-.78,2.2,2.2,0,0,1,.56-.67,2.81,2.81,0,0,1,.88-.45A3.75,3.75,0,0,1,79.87,49a3.42,3.42,0,0,1,1.35.26,2.05,2.05,0,0,1,.93.76,2.25,2.25,0,0,1,.34,1.29v2.89a4.93,4.93,0,0,0,.07.85,2.51,2.51,0,0,0,.19.62v.1H81.1a2.34,2.34,0,0,1-.18-.64A5.09,5.09,0,0,1,80.86,54.37Z"/><path class="cls-15" d="M84,46.35h1.63v8l-.16,1.47H84Zm5.9,6v.13a5.23,5.23,0,0,1-.16,1.36A3.24,3.24,0,0,1,89.2,55a2.23,2.23,0,0,1-.81.69,2.34,2.34,0,0,1-1.12.25,2.25,2.25,0,0,1-1.07-.24,2.21,2.21,0,0,1-.76-.67A3.85,3.85,0,0,1,85,54a9.42,9.42,0,0,1-.28-1.31v-.35A9.26,9.26,0,0,1,85,51a3.85,3.85,0,0,1,.49-1,2.24,2.24,0,0,1,.76-.68,2.2,2.2,0,0,1,1-.24,2.52,2.52,0,0,1,1.14.25,2.19,2.19,0,0,1,.81.7A3.19,3.19,0,0,1,89.69,51,5.23,5.23,0,0,1,89.85,52.39Zm-1.63.13v-.13a5.1,5.1,0,0,0-.06-.8,2.64,2.64,0,0,0-.22-.67,1.3,1.3,0,0,0-.42-.45,1.26,1.26,0,0,0-.67-.17,1.52,1.52,0,0,0-.64.13,1.33,1.33,0,0,0-.45.36,2,2,0,0,0-.27.53,3.5,3.5,0,0,0-.12.66v1a2.72,2.72,0,0,0,.2.85,1.3,1.3,0,0,0,1.3.82,1.28,1.28,0,0,0,.65-.15,1.11,1.11,0,0,0,.42-.44,2.29,2.29,0,0,0,.22-.67A5.4,5.4,0,0,0,88.22,52.52Z"/><path class="cls-15" d="M90.74,52.53V52.4A4.15,4.15,0,0,1,91,51.05,3.05,3.05,0,0,1,91.56,50a2.69,2.69,0,0,1,1-.71A3.19,3.19,0,0,1,93.85,49a3.29,3.29,0,0,1,1.33.26,2.69,2.69,0,0,1,1,.71,3.05,3.05,0,0,1,.61,1.07A4.15,4.15,0,0,1,97,52.4v.13a4.14,4.14,0,0,1-.21,1.34,3.05,3.05,0,0,1-.61,1.07,2.69,2.69,0,0,1-1,.71,3.21,3.21,0,0,1-1.32.25,3.27,3.27,0,0,1-1.32-.25,2.69,2.69,0,0,1-1-.71A3.05,3.05,0,0,1,91,53.87,4.14,4.14,0,0,1,90.74,52.53Zm1.62-.13v.13a3.47,3.47,0,0,0,.09.81,2.4,2.4,0,0,0,.26.67,1.19,1.19,0,0,0,.47.45,1.45,1.45,0,0,0,1.36,0A1.17,1.17,0,0,0,95,54a2.14,2.14,0,0,0,.27-.67,3.47,3.47,0,0,0,.09-.81V52.4a3.47,3.47,0,0,0-.09-.81,2.24,2.24,0,0,0-.27-.67,1.27,1.27,0,0,0-.46-.46,1.33,1.33,0,0,0-1.83.46,2.53,2.53,0,0,0-.26.67A3.47,3.47,0,0,0,92.36,52.4Z"/><path class="cls-15" d="M99.77,50.49v5.29H98.15V49.13h1.54Zm2-1.4,0,1.51a2.51,2.51,0,0,0-.31,0l-.31,0a2.18,2.18,0,0,0-.66.1,1.27,1.27,0,0,0-.47.3,1.34,1.34,0,0,0-.29.46,2.29,2.29,0,0,0-.11.62L99.27,52a5.37,5.37,0,0,1,.13-1.17,3.19,3.19,0,0,1,.38-.94,1.84,1.84,0,0,1,.61-.63,1.65,1.65,0,0,1,.86-.23l.29,0Z"/><path class="cls-15" d="M105.66,55.9a3.7,3.7,0,0,1-1.36-.24,2.92,2.92,0,0,1-1-.69,3,3,0,0,1-.64-1,3.52,3.52,0,0,1-.23-1.26v-.25a4.42,4.42,0,0,1,.22-1.4,3.2,3.2,0,0,1,.63-1.08,2.6,2.6,0,0,1,1-.7,3.29,3.29,0,0,1,2.49,0,2.45,2.45,0,0,1,.91.67,2.76,2.76,0,0,1,.54,1,4.32,4.32,0,0,1,.19,1.33V53h-5.21V51.83h3.61v-.12a2,2,0,0,0-.15-.71,1.24,1.24,0,0,0-.41-.52,1.28,1.28,0,0,0-.73-.19,1.14,1.14,0,0,0-.63.16,1.26,1.26,0,0,0-.45.44,2.35,2.35,0,0,0-.26.68,4.6,4.6,0,0,0-.08.87v.25a2.43,2.43,0,0,0,.11.77,1.86,1.86,0,0,0,.34.62,1.64,1.64,0,0,0,1.26.55,2.11,2.11,0,0,0,.92-.2,2.08,2.08,0,0,0,.73-.6l.81.85a2.57,2.57,0,0,1-.56.59,2.87,2.87,0,0,1-.85.46A3.36,3.36,0,0,1,105.66,55.9Z"/><path class="cls-15" d="M113.1,54a.67.67,0,0,0-.11-.37,1,1,0,0,0-.42-.31,5.11,5.11,0,0,0-.88-.26,5.93,5.93,0,0,1-1-.27,2.66,2.66,0,0,1-.75-.41,1.6,1.6,0,0,1-.49-.55,1.54,1.54,0,0,1-.18-.75,1.78,1.78,0,0,1,.18-.78,1.86,1.86,0,0,1,.52-.64,2.3,2.3,0,0,1,.82-.44,3.37,3.37,0,0,1,1.09-.17,3.43,3.43,0,0,1,1.46.28,2.17,2.17,0,0,1,.94.76,1.85,1.85,0,0,1,.32,1.08H113a1,1,0,0,0-.12-.48.93.93,0,0,0-.36-.35,1.42,1.42,0,0,0-.62-.13,1.35,1.35,0,0,0-.57.11.92.92,0,0,0-.35.29.69.69,0,0,0-.12.39.65.65,0,0,0,.07.29.64.64,0,0,0,.21.23,1.36,1.36,0,0,0,.4.19,4.63,4.63,0,0,0,.63.17,6.47,6.47,0,0,1,1.3.39,2.15,2.15,0,0,1,.87.64,1.57,1.57,0,0,1,.31,1,1.73,1.73,0,0,1-.19.81,1.82,1.82,0,0,1-.55.63,2.76,2.76,0,0,1-.86.42,4,4,0,0,1-1.14.15,3.32,3.32,0,0,1-1.55-.33,2.38,2.38,0,0,1-1-.83,2,2,0,0,1-.32-1.05h1.55a1,1,0,0,0,.21.62,1.15,1.15,0,0,0,.48.33,1.83,1.83,0,0,0,.62.1,1.61,1.61,0,0,0,.62-.1.93.93,0,0,0,.38-.27A.67.67,0,0,0,113.1,54Z"/><path class="cls-15" d="M118.76,52.54v-.13a5.46,5.46,0,0,1,.17-1.39,3.43,3.43,0,0,1,.51-1.07,2.33,2.33,0,0,1,1.92-.94,2.13,2.13,0,0,1,1,.24,2.24,2.24,0,0,1,.76.68,3.94,3.94,0,0,1,.51,1,7.25,7.25,0,0,1,.28,1.33v.35a7.1,7.1,0,0,1-.28,1.3,4,4,0,0,1-.51,1,2.12,2.12,0,0,1-1.81.91,2.28,2.28,0,0,1-1.09-.25,2.4,2.4,0,0,1-.82-.7,3.54,3.54,0,0,1-.51-1.07A5.17,5.17,0,0,1,118.76,52.54Zm1.62-.13v.13a4.09,4.09,0,0,0,.08.8,2.15,2.15,0,0,0,.24.66,1.12,1.12,0,0,0,1.06.61,1.28,1.28,0,0,0,1.27-.8,2.41,2.41,0,0,0,.22-.84V52a2.84,2.84,0,0,0-.12-.68,1.74,1.74,0,0,0-.29-.54,1.39,1.39,0,0,0-.44-.36,1.54,1.54,0,0,0-.63-.13,1.29,1.29,0,0,0-.64.16,1.27,1.27,0,0,0-.43.46,2.12,2.12,0,0,0-.24.67A4.15,4.15,0,0,0,120.38,52.41Zm2.65,2v-8h1.63v9.43h-1.48Z"/><path class="cls-15" d="M129.11,55.9a3.62,3.62,0,0,1-1.36-.24,2.92,2.92,0,0,1-1-.69,3,3,0,0,1-.65-1,3.52,3.52,0,0,1-.22-1.26v-.25a4.15,4.15,0,0,1,.22-1.4A3.18,3.18,0,0,1,126.7,50a2.68,2.68,0,0,1,1-.7,3.31,3.31,0,0,1,2.5,0,2.42,2.42,0,0,1,.9.67,2.78,2.78,0,0,1,.55,1,4.65,4.65,0,0,1,.18,1.33V53h-5.21V51.83h3.62v-.12a2,2,0,0,0-.15-.71,1.19,1.19,0,0,0-.42-.52,1.26,1.26,0,0,0-.73-.19,1.18,1.18,0,0,0-.63.16,1.16,1.16,0,0,0-.44.44,1.89,1.89,0,0,0-.26.68,3.88,3.88,0,0,0-.09.87v.25a2.76,2.76,0,0,0,.11.77,1.86,1.86,0,0,0,.34.62,1.64,1.64,0,0,0,1.26.55,2.18,2.18,0,0,0,.93-.2,2,2,0,0,0,.72-.6l.82.85a2.8,2.8,0,0,1-.56.59,2.93,2.93,0,0,1-.86.46A3.33,3.33,0,0,1,129.11,55.9Z"/><path class="cls-15" d="M134.61,46.35v9.43H133V46.35Z"/><path class="cls-15" d="M142.85,52.52h-2.31V51.19h2.31a2,2,0,0,0,.91-.18,1.19,1.19,0,0,0,.52-.52,1.66,1.66,0,0,0,.17-.75,1.81,1.81,0,0,0-.17-.77,1.32,1.32,0,0,0-.52-.58,1.66,1.66,0,0,0-.91-.22H141.1v7.61h-1.69V46.84h3.44a3.9,3.9,0,0,1,1.78.37,2.74,2.74,0,0,1,1.13,1,2.88,2.88,0,0,1,.39,1.49,2.79,2.79,0,0,1-.39,1.5,2.55,2.55,0,0,1-1.13,1A4.19,4.19,0,0,1,142.85,52.52Z"/><path class="cls-15" d="M151.24,51.73v1h-1a2.65,2.65,0,0,0-.67.07,1.38,1.38,0,0,0-.47.23.83.83,0,0,0-.28.34,1.06,1.06,0,0,0-.09.45.9.9,0,0,0,.11.44.82.82,0,0,0,.33.31,1.08,1.08,0,0,0,.52.12,1.54,1.54,0,0,0,.75-.18,1.37,1.37,0,0,0,.49-.43.89.89,0,0,0,.19-.47l.47.7a2.85,2.85,0,0,1-.26.53,2.18,2.18,0,0,1-.44.53,2.24,2.24,0,0,1-1.54.56,2.52,2.52,0,0,1-1.15-.25,2.15,2.15,0,0,1-.81-.71,1.87,1.87,0,0,1-.29-1,2.12,2.12,0,0,1,.2-.93,1.82,1.82,0,0,1,.58-.69,2.82,2.82,0,0,1,1-.42,5.21,5.21,0,0,1,1.32-.15ZM151,54.37V51.3a1.31,1.31,0,0,0-.11-.58.88.88,0,0,0-.36-.38,1.22,1.22,0,0,0-.61-.14,1.4,1.4,0,0,0-.56.11.91.91,0,0,0-.38.31.9.9,0,0,0-.12.46h-1.63a1.66,1.66,0,0,1,.19-.78,2.1,2.1,0,0,1,.57-.67,2.75,2.75,0,0,1,.87-.45A3.82,3.82,0,0,1,150,49a3.34,3.34,0,0,1,1.34.26,2.08,2.08,0,0,1,.94.76,2.33,2.33,0,0,1,.34,1.29v2.89a5,5,0,0,0,.06.85,2.51,2.51,0,0,0,.2.62v.1h-1.66a2.79,2.79,0,0,1-.17-.64A5.12,5.12,0,0,1,151,54.37Z"/><path class="cls-15" d="M156.84,54.63a1.34,1.34,0,0,0,.61-.14,1.1,1.1,0,0,0,.61-1h1.53a2.22,2.22,0,0,1-.38,1.21,2.5,2.5,0,0,1-1,.84,2.94,2.94,0,0,1-1.37.31,3.27,3.27,0,0,1-1.34-.25,2.85,2.85,0,0,1-1-.72,3.13,3.13,0,0,1-.56-1.07,4.26,4.26,0,0,1-.19-1.3v-.2a4.21,4.21,0,0,1,.19-1.3,3,3,0,0,1,.56-1.07,2.61,2.61,0,0,1,1-.72,3.27,3.27,0,0,1,1.34-.26,3.05,3.05,0,0,1,1.41.32,2.34,2.34,0,0,1,1,.88,2.65,2.65,0,0,1,.36,1.34h-1.53a1.47,1.47,0,0,0-.16-.63,1.14,1.14,0,0,0-1.07-.63,1.31,1.31,0,0,0-.69.17,1.19,1.19,0,0,0-.42.47,2.29,2.29,0,0,0-.21.67,4.59,4.59,0,0,0-.06.76v.2a4.81,4.81,0,0,0,.06.77,2.13,2.13,0,0,0,.21.66,1.1,1.1,0,0,0,.42.46A1.25,1.25,0,0,0,156.84,54.63Z"/><path class="cls-15" d="M162.42,49.13v6.65h-1.63V49.13Zm-1.6-.84L162,46.42h1.79l-1.68,1.87Z"/><path class="cls-15" d="M167.5,49.13V50.3h-4V49.13Zm-1.35,6.65h-1.63V48.52a2.55,2.55,0,0,1,.29-1.26,1.93,1.93,0,0,1,.82-.78,2.78,2.78,0,0,1,1.26-.26,3.44,3.44,0,0,1,.46,0l.43.08,0,1.24a1,1,0,0,0-.25,0l-.31,0a1.19,1.19,0,0,0-.56.12.79.79,0,0,0-.36.34,1.15,1.15,0,0,0-.12.55Z"/><path class="cls-15" d="M168.48,47.4a.85.85,0,0,1,.25-.61,1.07,1.07,0,0,1,1.35,0,.85.85,0,0,1,.25.61.82.82,0,0,1-.25.59,1.07,1.07,0,0,1-1.35,0A.82.82,0,0,1,168.48,47.4Zm1.74,1.73v6.65h-1.63V49.13Z"/><path class="cls-15" d="M174.5,54.63a1.34,1.34,0,0,0,.61-.14,1.13,1.13,0,0,0,.43-.38,1.07,1.07,0,0,0,.18-.57h1.53a2.22,2.22,0,0,1-.38,1.21,2.58,2.58,0,0,1-1,.84,3,3,0,0,1-1.37.31,3.27,3.27,0,0,1-1.34-.25,2.75,2.75,0,0,1-1-.72,3.13,3.13,0,0,1-.56-1.07,4.26,4.26,0,0,1-.19-1.3v-.2a4.21,4.21,0,0,1,.19-1.3,3,3,0,0,1,.56-1.07,2.53,2.53,0,0,1,1-.72,3.25,3.25,0,0,1,1.33-.26,3.06,3.06,0,0,1,1.42.32,2.34,2.34,0,0,1,1,.88,2.65,2.65,0,0,1,.36,1.34h-1.53a1.47,1.47,0,0,0-.16-.63,1.14,1.14,0,0,0-1.08-.63,1.29,1.29,0,0,0-.68.17,1.19,1.19,0,0,0-.42.47,1.82,1.82,0,0,0-.21.67,4.59,4.59,0,0,0-.06.76v.2a4.81,4.81,0,0,0,.06.77,1.71,1.71,0,0,0,.21.66,1.1,1.1,0,0,0,.42.46A1.23,1.23,0,0,0,174.5,54.63Z"/><path class="cls-15" d="M178,52.53V52.4a4.15,4.15,0,0,1,.21-1.35,3.05,3.05,0,0,1,.61-1.07,2.65,2.65,0,0,1,1-.71,3.51,3.51,0,0,1,2.65,0,2.78,2.78,0,0,1,1,.71,3.21,3.21,0,0,1,.61,1.07,4.45,4.45,0,0,1,.2,1.35v.13a4.43,4.43,0,0,1-.2,1.34,3.21,3.21,0,0,1-.61,1.07,2.69,2.69,0,0,1-1,.71,3.21,3.21,0,0,1-1.32.25,3.27,3.27,0,0,1-1.32-.25,2.61,2.61,0,0,1-1-.71,3.05,3.05,0,0,1-.61-1.07A4.14,4.14,0,0,1,178,52.53Zm1.62-.13v.13a3.47,3.47,0,0,0,.09.81A1.91,1.91,0,0,0,180,54a1.13,1.13,0,0,0,.47.45,1.32,1.32,0,0,0,.68.17,1.34,1.34,0,0,0,.68-.17,1.24,1.24,0,0,0,.46-.45,2.14,2.14,0,0,0,.27-.67,4.12,4.12,0,0,0,.08-.81V52.4a4.12,4.12,0,0,0-.08-.81,2.24,2.24,0,0,0-.27-.67,1.29,1.29,0,0,0-.47-.46,1.45,1.45,0,0,0-1.36,0,1.27,1.27,0,0,0-.46.46,2,2,0,0,0-.26.67A3.47,3.47,0,0,0,179.66,52.4Z"/></svg>