<svg id="Capa_1" data-name="Capa 1" xmlns="http://www.w3.org/2000/svg" viewBox="0 0 249.48 199.01"><defs><style>.cls-1{fill:#c3bb86;}.cls-2{fill:#9c956f;}.cls-3{fill:#facb74;}.cls-4{fill:#6c2911;}.cls-5{fill:#d1bbb4;}.cls-6{fill:#f9faf7;}.cls-7{fill:#f8f9f4;}.cls-8{fill:#f8f9f5;}.cls-9{fill:#f8f8f4;}.cls-10{fill:#f9f9f6;}.cls-11{fill:#f7f8f3;}.cls-12{fill:#f8f9f6;}.cls-13{fill:#f9faf6;}.cls-14{fill:#f8faf9;}.cls-15{fill:#f7f8f2;}.cls-16{fill:#f7fafa;}.cls-17{fill:#c6875e;}.cls-18{fill:#fff;}</style></defs><path class="cls-1" d="M148.76,2.16q42.65,0,85.29,0c1.1,0,1.32.21,1.32,1.31q-.06,51.74,0,103.47a5.46,5.46,0,0,1-2.08,2.13,79.1,79.1,0,0,0-8.62,6.89c-2.63,2.25-5.21,4.58-8,6.6-5,3.57-10.54,4.39-16.48,3.22-4.45-.87-8.82-.87-12.88,1.57-1.56.94-3.14,1.82-4.7,2.75a16,16,0,0,1-10.07,2.53,10.46,10.46,0,0,1-4.27-1.58c-3.62-2.13-5.58-5.68-8-8.82a18.7,18.7,0,0,0-9.12-6.72A22,22,0,0,1,143,111c-5-4.57-12.56-3.5-17.12.07-2.77,2.17-4.88,4.93-7.12,7.56a59.11,59.11,0,0,1-8.06,7.52c-2.32,1.87-4.58,3.85-6.93,5.68-3,2.35-5.64,5.14-8.83,7.32-4.68,3.19-9.88,4.43-15.4,4.71A56.94,56.94,0,0,1,53.36,139c-1.33-.59-2.88-.91-3.71-2.34a2.43,2.43,0,0,1,.77-2.16,125,125,0,0,1,10-8.67A22.63,22.63,0,0,0,67,118.91a2.6,2.6,0,0,1,1.48-1.39c.27-.14,1.16.19.46-.66a1.06,1.06,0,0,1-.16-.75,5.52,5.52,0,0,1,.68-2.1c3.52-6.89,7.14-13.73,9.21-21.25.3-1.08.53-2.18.73-3.28.94-5.11,4-8.83,7.81-12.11A73.64,73.64,0,0,0,94,70.61c2.43-2.71,3.25-6.11,3.6-9.59.44-4.27,2.25-8,4.46-11.52a84.58,84.58,0,0,1,6-8.08c2.68-3.37,4.38-7.32,6.59-11a43.12,43.12,0,0,1,15.51-14.91c4.24-2.47,8.62-4.71,12.39-7.92,1.39-1.18,2.65-2.48,3.92-3.77A7.32,7.32,0,0,1,148.76,2.16Z"/><path class="cls-1" d="M235.34,113.32v31.07c-.36.31-.51.79-1,1-5.05,2.6-8.29,6.84-11,11.68a25.09,25.09,0,0,1-11.32,10.69,27.83,27.83,0,0,0-7.74,5,34.78,34.78,0,0,0-6.68,8.92,30.45,30.45,0,0,1-13.91,13.61,52.23,52.23,0,0,1-7.7,3.49q-76.73,0-153.45,0c-1.21,0-1.54-.29-1.46-1.48.11-1.76,0-3.52,0-5.28,2.19-5.66,5.64-10.73,7.48-16.56a49.45,49.45,0,0,0,1.68-7c1.33-8.4,4.39-16,10.16-22.35,1.2-1.34,2.48-2.63,3.57-4.08a4.73,4.73,0,0,1,2.85-1.94c2.43.51,4.46,1.95,6.71,2.9a52.51,52.51,0,0,0,20.5,4.35c3.94,0,7.88.23,11.79-.59a31.48,31.48,0,0,0,15.21-7.67,28,28,0,0,1,3.62-2.89c.36-.39,1.09-.26,1.26-.91,1-1.77,2.85-2.68,4.36-3.9,3.11-2.51,6.29-4.94,9.14-7.74,1.91-1.87,3.52-4,5.25-6a21,21,0,0,1,3.82-3.6c4-2.84,8.52-3.37,13,.46a23.38,23.38,0,0,0,7.93,4.67,16.7,16.7,0,0,1,8.35,6.41,36.68,36.68,0,0,0,6.08,6.55,10.69,10.69,0,0,1,.8,1,1.19,1.19,0,0,0,1.3.81,8.38,8.38,0,0,1,2.38.91,15.58,15.58,0,0,0,13.89-.6c1.85-1,3.69-1.92,5.44-3.05a14.74,14.74,0,0,1,11.35-1.92,28.4,28.4,0,0,0,10.32.36c5.07-.87,9.21-3.49,13.07-6.7,3.6-3,7-6.2,10.7-9.12C233.81,113.41,234.44,112.84,235.34,113.32Z"/><path class="cls-2" d="M148.76,2.16a38.78,38.78,0,0,1-10.88,9.77c-3.75,2.36-7.72,4.34-11.37,6.86a40.84,40.84,0,0,0-12.9,15,77.83,77.83,0,0,1-8.28,12.32,33.72,33.72,0,0,0-7.55,18,13.37,13.37,0,0,1-4.22,8.08c-2.44,2.46-5,4.83-7.5,7.2A18.69,18.69,0,0,0,80,90.22c-1,5.76-3.45,11-5.87,16.2-1.55,3.33-3.26,6.59-4.9,9.88-.16.22-1-.12-.52.66a.69.69,0,0,1-.1.88c-2.47,4.43-6.26,7.55-10.23,10.57a46.21,46.21,0,0,0-8.37,8c-1,.62-1.73-.16-2.42-.67-3.29-2.44-5.84-5.62-8.52-8.64-5.16-5.83-9.78-12.12-15.46-17.49a8.3,8.3,0,0,1-2.45-2.69q0-51.7,0-103.4c0-1.17.27-1.38,1.4-1.38Q85.63,2.18,148.76,2.16Z"/><path class="cls-2" d="M176,198.85a7,7,0,0,1,2.62-1.79,73.61,73.61,0,0,0,9.76-5.48,27.6,27.6,0,0,0,8.32-9.77c3.36-6.27,7.88-11.43,14.45-14.42,5.77-2.64,9.71-7,12.64-12.46a24.86,24.86,0,0,1,8.88-9.44,8.42,8.42,0,0,1,2.65-1.1c0,17.72,0,35.45,0,53.17,0,1.1-.22,1.32-1.32,1.32Q205,198.81,176,198.85Z"/><path class="cls-3" d="M21.14,106.91c3.13,1.66,5.29,4.41,7.6,7,5.3,5.81,10,12.17,15.49,17.81A23.44,23.44,0,0,0,50,136.4c3.93,2.45,8.32,3.81,12.73,5a55.74,55.74,0,0,0,14.4,1.75,30.76,30.76,0,0,0,22.26-8.45c4.08-3.83,8.45-7.36,12.88-10.79,3.75-2.9,6.59-6.66,9.71-10.16,2.63-3,5.61-5.39,9.62-6.25,4.24-.91,8.16-.36,11.55,2.57a20.47,20.47,0,0,0,7.41,4.32c5.07,1.55,8.7,4.81,11.62,9.06.84,1.23,1.75,2.42,2.69,3.57,4.34,5.27,9.37,6.34,15.51,3.26a36.3,36.3,0,0,0,4.88-2.73,17.42,17.42,0,0,1,14.36-2.69c7.78,1.75,14.21-.51,20-5.64,4.12-3.63,8.11-7.43,12.69-10.5,1-.65,2-1.23,3-1.84v6.41c-3.82,2.57-7.06,5.83-10.56,8.79-4.42,3.75-8.94,7.25-14.87,8.31a27.2,27.2,0,0,1-10.64-.25,15.06,15.06,0,0,0-12.14,2.36,27.42,27.42,0,0,1-8.63,4.1,16.08,16.08,0,0,1-12.84-2.28c-.63-1,.32-1.5.58-2.13-.46.53-.7,1.52-1.81,1.34a38.24,38.24,0,0,1-7.7-8.06,15.48,15.48,0,0,0-7.63-5.57,20.37,20.37,0,0,1-7.42-4.28c-5-4.44-9.63-3.71-14.26.36a36.38,36.38,0,0,0-4.26,4.76c-4,5-9.11,8.79-14.12,12.69-.92.72-1.8,1.5-2.7,2.25-.88.17-.88.17-3-.9.51.53,1.93.42,1.73,1.87-3.91,3.64-8,7.06-13,9.14-5.58,2.3-11.39,2.52-17.28,2.49a57.39,57.39,0,0,1-27.23-7.2,4.7,4.7,0,0,0-.74-.28c-2.57-.19-4.13-2.1-5.82-3.62A113.71,113.71,0,0,1,30.76,125.9c-2.4-2.84-4.65-5.82-7.32-8.42a9.21,9.21,0,0,1-2.3-3.2Z"/><path class="cls-2" d="M21.14,114.28c2.86,2.18,5.05,5,7.36,7.73,3.74,4.38,7.34,8.88,11.37,13a51.82,51.82,0,0,0,7,5.8c-2.06.74-2.92,2.74-4.31,4.17a40.64,40.64,0,0,0-10,16.76,88,88,0,0,0-2,9.22c-1.28,6.65-4.42,12.54-7.58,18.42-.51,1-.82,2.12-1.89,2.72Z"/><path class="cls-4" d="M204.52,72a7.36,7.36,0,0,1,1.3.61,1.86,1.86,0,0,1,.9,1.91A1.65,1.65,0,0,1,205.24,76a12,12,0,0,1-1.9.18H171.69a3.85,3.85,0,0,1-.48,0c-1.2-.14-2.58,0-2.86-1.67-.2-1.25.66-2,2.56-2.47a4.35,4.35,0,0,1,2.7-.76c3-.11,6.06.3,9.09,0,1.21-.11,2-.48,2.31-1.74a3.34,3.34,0,0,1,6.36,0,2.27,2.27,0,0,0,2.31,1.76c2.72.23,5.42-.16,8.13,0A4.46,4.46,0,0,1,204.52,72Z"/><path class="cls-5" d="M204.52,72c-4,0-8,0-12,0-1.19,0-1.73-.38-1.78-1.65a2.53,2.53,0,0,0-5.06,0c-.06,1.26-.59,1.66-1.79,1.64-4.32,0-8.65,0-13,0,.55-1.49,1.18-3,1.61-4.48a2.25,2.25,0,0,1,2.62-2,4.94,4.94,0,0,1,2.73-.73c6.87,0,13.73,0,20.59,0a4.22,4.22,0,0,1,2.56.74A1.72,1.72,0,0,1,203,67C203.45,68.67,204,70.32,204.52,72Z"/><path class="cls-2" d="M215.53,101.78c-2.67,0-5.33,0-8,0-1.37,0-1.71-.55-1-1.67A51.76,51.76,0,0,1,215,90c1.56-1.4,2.75-1.22,3.8.57,1.94,3.3,3.52,6.8,5.6,10,.6.93,0,1.22-.9,1.22Z"/><path class="cls-2" d="M221.87,66.53c-2.19,0-4.38,0-6.57,0-2-.05-2.37-.72-1.35-2.34a43.63,43.63,0,0,1,6.69-8.73c1.54-1.45,2.83-1.39,4,.37a102.84,102.84,0,0,1,5.2,9c.6,1.17.19,1.72-1.06,1.72Z"/><path class="cls-4" d="M201,65.57l-25.88,0a8.15,8.15,0,0,0,.72-1.24A3.13,3.13,0,0,1,179.22,62a3,3,0,0,1,2.24-.65c4.32,0,8.64,0,13,0a3.73,3.73,0,0,1,2.42.65C199.5,61.7,200.28,63.6,201,65.57Z"/><path class="cls-5" d="M196.84,62H179.22a15.11,15.11,0,0,1,1.06-3.84,1.22,1.22,0,0,1,1.19-.9,2.25,2.25,0,0,1,1.87-.7q4.38-.08,8.76,0a2.25,2.25,0,0,1,1.87.71,1.79,1.79,0,0,1,2,1.71C196.2,60,196.56,61,196.84,62Z"/><path class="cls-4" d="M194,57.23h-12.5c0-2.13.06-2.2,2.08-2.2,2.76,0,5.51,0,8.27,0C193.79,55,193.91,55.16,194,57.23Z"/><path class="cls-6" d="M169.61,128.86c-.67-.07-.9-.54-.55-1,1-1.24,2.07-2.41,3.14-3.6a.56.56,0,0,1,.85,0c.24.23.42.52.15.83-1,1.2-2.1,2.4-3.16,3.58A1.33,1.33,0,0,1,169.61,128.86Z"/><path class="cls-7" d="M178,118.48a15.43,15.43,0,0,1-2.82,4,.49.49,0,0,1-.72,0,.71.71,0,0,1-.08-1c.82-1.17,1.63-2.35,2.46-3.51a.63.63,0,0,1,.82-.29C177.93,117.74,178,118,178,118.48Z"/><path class="cls-8" d="M91.7,130.31a.62.62,0,0,1-.92.55c-1.34-.45-2.67-1-4-1.44a.67.67,0,0,1-.48-.87.57.57,0,0,1,.74-.42c1.44.49,2.87,1,4.3,1.54C91.64,129.78,91.69,130,91.7,130.31Z"/><path class="cls-9" d="M180.32,110.72a19.23,19.23,0,0,1-1.12,4.17c-.15.36-.36.71-.81.57a.7.7,0,0,1-.42-.92c.34-1.37.71-2.74,1.1-4.1.1-.35.32-.72.8-.56S180.3,110.42,180.32,110.72Z"/><path class="cls-10" d="M73.36,120.41c1.09.81,2.46,1.8,3.79,2.84.19.14.13.5-.09.72a.67.67,0,0,1-.88.09c-1.26-.89-2.49-1.8-3.72-2.73-.2-.15-.38-.4-.16-.68S72.71,120.33,73.36,120.41Z"/><path class="cls-10" d="M182.06,86.82c-.58,1.22-1.23,2.62-1.91,4a.59.59,0,0,1-.8.33.6.6,0,0,1-.33-.8c.6-1.41,1.24-2.81,1.88-4.2a.58.58,0,0,1,.8-.3C182.07,86,182.11,86.29,182.06,86.82Z"/><path class="cls-10" d="M180.52,105.17c-.36.62.64,2-.71,2-1.06,0-.53-1.26-.64-2s-.16-1.69-.22-2.54c0-.44,0-.94.53-1s.75.44.8.94C180.36,103.42,180.44,104.26,180.52,105.17Z"/><path class="cls-11" d="M94.92,130.77c1.35.49,2.75,1,4.14,1.5a.56.56,0,0,1,.26.81.62.62,0,0,1-.8.36c-1.26-.41-2.52-.82-3.77-1.27a.75.75,0,0,1-.55-.87C94.26,130.93,94.5,130.76,94.92,130.77Z"/><path class="cls-10" d="M183.49,84.15c-.45-.2-.91-.52-.44-1,1-1.08,2.09-2.08,3.18-3.07a.6.6,0,0,1,.86.1.56.56,0,0,1,0,.73,19,19,0,0,1-3.3,3.17C183.76,84.12,183.63,84.11,183.49,84.15Z"/><path class="cls-6" d="M83.28,128a22.44,22.44,0,0,1-4.09-2.07.5.5,0,0,1-.21-.68.71.71,0,0,1,1-.33c1.25.58,2.48,1.2,3.71,1.81a.67.67,0,0,1,.3,1A.54.54,0,0,1,83.28,128Z"/><path class="cls-12" d="M68.59,117.84c-.51-.54-1-1.09-1.52-1.62-.3-.32-.63-.71-.3-1.1s.88-.19,1.26.13.79.69,1.18,1l1.26,1.37c.35.38.58.82.14,1.23s-.76,0-1.08-.25S68.9,118.11,68.59,117.84Z"/><path class="cls-7" d="M178.31,96.76c.07-.84.13-1.69.22-2.54,0-.38.16-.75.66-.72a.62.62,0,0,1,.58.65c0,1.48-.09,3-.17,4.44a.54.54,0,0,1-.52.52c-.3,0-.46-.22-.58-.46A4.66,4.66,0,0,1,178.31,96.76Z"/><path class="cls-5" d="M123.42,188.61c-2,0-4.06,0-6.09,0-1.49,0-1.79-.52-1-1.72q5.13-7.83,10.32-15.6a1.86,1.86,0,0,1,3.36,0q5.08,7.56,10.09,15.17c1.11,1.68.83,2.15-1.13,2.16s-3.73,0-5.6,0c-1.88-.6-2.49-2.36-3.37-3.81-1.73-2.83-1.64-2.83-3.41,0C125.73,186.22,125.22,188,123.42,188.61Z"/><path class="cls-2" d="M195.06,155c-2.41.15-5.18-.19-7.95.2-1.4.2-2-.53-1.41-1.56,1.88-3.15,3.57-6.44,6.29-9,2.13-2,4-1.9,5.76.49,1.91,2.63,3.72,5.33,5.55,8,.3.43.75.86.44,1.44s-.93.41-1.44.42C200,155,197.71,155,195.06,155Z"/><path class="cls-4" d="M123.42,188.61c1.31-2.18,2.64-4.35,3.93-6.54.64-1.09,1.15-1.23,1.87,0,1.34,2.22,2.77,4.39,4.16,6.58Z"/><path class="cls-8" d="M109.15,137.43a4.11,4.11,0,0,1,.74.42c1,.82,1.91,1.66,2.85,2.5.39.34.64.76.23,1.22s-.77.11-1.08-.16c-1-.89-2.07-1.8-3.1-2.7-.24-.22-.49-.45-.33-.81A.75.75,0,0,1,109.15,137.43Z"/><path class="cls-13" d="M140.69,176.2a1.68,1.68,0,0,1-.5-.4.47.47,0,0,1,.16-.69c1.37-.83,2.73-1.65,4.11-2.44a.54.54,0,0,1,.72.1.71.71,0,0,1,.09.75C145.08,174,141.42,176.25,140.69,176.2Z"/><path class="cls-14" d="M164.43,133.56l2-2.7c.26-.36.58-.74,1-.42a.81.81,0,0,1,.1,1.16c-.61.94-1.27,1.84-1.9,2.75-.14.16-.28.31-.43.46-.31.32-.6.86-1.14.4s-.15-.85.09-1.25C164.26,133.82,164.35,133.7,164.43,133.56Z"/><path class="cls-15" d="M163.4,137.93c-.67,1.5-1.33,3-2,4.47a.55.55,0,0,1-.7.23.64.64,0,0,1-.36-.8,13.88,13.88,0,0,1,1.82-4.2.7.7,0,0,1,.83-.3A.59.59,0,0,1,163.4,137.93Z"/><path class="cls-8" d="M121.23,154c0,.75,0,1.17-.47,1.26s-.66-.29-.78-.64c-.45-1.3-.87-2.62-1.28-3.93a.65.65,0,0,1,.41-.91.68.68,0,0,1,.87.5C120.46,151.58,120.89,152.94,121.23,154Z"/><path class="cls-8" d="M158.69,154.65c-.29.93-.7,2.3-1.14,3.66-.13.37-.41.66-.85.53s-.53-.49-.41-.89c.4-1.37.8-2.74,1.22-4.11.12-.36.38-.69.82-.57S158.77,153.81,158.69,154.65Z"/><path class="cls-10" d="M147.57,171.61a.68.68,0,0,1-.64-.4.56.56,0,0,1,.2-.7c1.09-1,2.18-2,3.29-3,.19-.17.42-.34.71-.14a.66.66,0,0,1,.35.66C151.42,168.63,148.17,171.63,147.57,171.61Z"/><path class="cls-7" d="M118.15,147.33a.64.64,0,0,1-.92.52,16.93,16.93,0,0,1-2.77-4c0-.45.27-.67.73-.6A13.88,13.88,0,0,1,118.15,147.33Z"/><path class="cls-10" d="M160.58,146.11c-.27,1.29-.53,2.58-.82,3.87-.09.43-.33.84-.87.67a.73.73,0,0,1-.43-.92c.28-1.28.56-2.57.82-3.86.1-.44.25-.87.8-.77S160.61,145.67,160.58,146.11Z"/><path class="cls-8" d="M123.13,161.72c0,.52.17,1.05-.41,1.18s-.77-.39-.87-.86c-.25-1.18-.48-2.37-.73-3.55-.1-.47-.06-.87.49-1a.68.68,0,0,1,.79.61C122.67,159.36,122.91,160.6,123.13,161.72Z"/><path class="cls-16" d="M105.12,136.68c-.94-.56-1.89-1.13-2.84-1.68-.44-.25-.87-.52-.58-1.09s.79-.41,1.22-.16l3.43,2C106.58,136.84,105.84,136.74,105.12,136.68Z"/><path class="cls-10" d="M155.47,161.05c.57.21.81.55.46,1.1-.69,1.07-1.38,2.13-2.09,3.19-.22.32-.54.54-1,.29a.52.52,0,0,1-.24-.69c.77-1.26,1.59-2.5,2.4-3.73C155.12,161.11,155.33,161.1,155.47,161.05Z"/><path class="cls-8" d="M123.51,165.27c.63.11.79.64.92,1.14.29,1.13,1.58,2,1,3.31-.14.35-.62.21-.82,0a11.54,11.54,0,0,1-1.69-3.56C122.8,165.73,123.11,165.44,123.51,165.27Z"/><path class="cls-4" d="M71.47,88.63c-9.34.26-18.67.45-28,.34-.66,0-1.47.24-1.91-.48s.1-1.42.5-2c1.39-2.09,2.76-4.19,4.18-6.25,1-1.45,1.72-1.5,2.64,0,.74,1.15,1.06.81,1.59-.11,1.83-3.19,3.71-6.35,5.58-9.52a14.66,14.66,0,0,1,.86-1.35c1.29-1.75,2.57-1.68,3.68.21,1.94,3.31,3.86,6.63,5.79,10a2.15,2.15,0,0,1,1.41,1.16c1.16,2,2.2,4,3.4,5.93C71.58,87.08,72.06,87.81,71.47,88.63Z"/><path class="cls-1" d="M54.74,22.66H46.09c-1,0-1.87-.27-1.06-1.49a57.77,57.77,0,0,1,7.11-9.44C54.47,9.4,57,9.58,59,12.2c2.12,2.82,3.61,6,5.46,9,.69,1.11,0,1.42-1,1.42Z"/><path class="cls-5" d="M71.47,88.63l-5.1-9.29c.24-.35.46-.71.73-1,.83-1,1.93-1.16,2.67-.1,2,2.92,4,5.9,5.87,8.9.54.84.18,1.46-.83,1.51S72.58,88.63,71.47,88.63Z"/><path class="cls-8" d="M65.69,112.46c0,.5-.14.72-.43.81a.76.76,0,0,1-.86-.25c-.84-1.22-1.67-2.44-2.48-3.68a.68.68,0,0,1,.1-.88.47.47,0,0,1,.7-.06C63.77,109.78,64.77,111.19,65.69,112.46Z"/><path class="cls-8" d="M58.86,101.94c-.06-.63,0-1,.44-1.12a.61.61,0,0,1,.77.42c.5,1.39,1,2.8,1.43,4.22a.6.6,0,0,1-.4.77.66.66,0,0,1-.9-.44C59.71,104.44,59.26,103.08,58.86,101.94Z"/><path class="cls-8" d="M59.05,97.72c0,.35,0,.71-.4.82a.66.66,0,0,1-.87-.49,24.59,24.59,0,0,1-1-4.49.63.63,0,0,1,.5-.71.53.53,0,0,1,.72.43C58.39,94.77,58.72,96.26,59.05,97.72Z"/><path class="cls-17" d="M180.33,67.83c.95,0,1.82-.07,1.78,1.23s-.59,1.7-1.79,1.66c-1,0-1.78,0-1.76-1.38S179.3,67.73,180.33,67.83Z"/><path class="cls-17" d="M195.83,70.68c-1.56.29-1.65-.84-1.71-1.84-.08-1.16.86-1,1.57-1,1,0,1.8.07,1.81,1.38S196.92,70.82,195.83,70.68Z"/><path class="cls-18" d="M37.89,52.92v8.19H36.48V52.92Zm3.93,0V54H37.49V52.92Zm-.54,3.42v1.1H37.49v-1.1ZM41.85,60v1.12H37.49V60Z"/><path class="cls-18" d="M44.31,52.47v8.64H43V52.47Z"/><path class="cls-18" d="M48.8,52.92H50l.2,5.47v2.72H48.8Zm.57,0h1.26L53,59.24l2.37-6.32h1.26L53.5,61.11h-1Zm6.63,0h1.21v8.19H55.79V58.39Z"/><path class="cls-18" d="M62.38,57.41v.84h-1a2.62,2.62,0,0,0-.66.07,1.51,1.51,0,0,0-.48.2,1,1,0,0,0-.29.33,1,1,0,0,0-.09.44.85.85,0,0,0,.11.44.77.77,0,0,0,.33.31,1.19,1.19,0,0,0,.53.11,1.51,1.51,0,0,0,1.22-.59,1,1,0,0,0,.19-.48l.44.6a2.17,2.17,0,0,1-.66,1,2.14,2.14,0,0,1-1.46.55A2.27,2.27,0,0,1,59.53,61a1.85,1.85,0,0,1-.73-.65,1.64,1.64,0,0,1-.27-.93,2,2,0,0,1,.18-.86,1.88,1.88,0,0,1,.54-.62,2.64,2.64,0,0,1,.88-.39,4.68,4.68,0,0,1,1.18-.13Zm-.2,2.48V57a1.26,1.26,0,0,0-.12-.57.83.83,0,0,0-.36-.36,1.21,1.21,0,0,0-.6-.13,1.41,1.41,0,0,0-.57.11,1,1,0,0,0-.38.31.71.71,0,0,0-.13.43H58.67a1.48,1.48,0,0,1,.17-.7,1.92,1.92,0,0,1,.51-.6,2.38,2.38,0,0,1,.79-.42,3.35,3.35,0,0,1,1-.15,3.07,3.07,0,0,1,1.21.23,1.81,1.81,0,0,1,.84.7A2,2,0,0,1,63.54,57v2.71a4.18,4.18,0,0,0,.06.74,2.57,2.57,0,0,0,.17.57v.09H62.38a2.61,2.61,0,0,1-.15-.56A4.89,4.89,0,0,1,62.18,59.89Z"/><path class="cls-18" d="M66.32,56.26v4.85H65V55h1.28Zm-.22,1.58h-.47a4.35,4.35,0,0,1,.16-1.17,3.11,3.11,0,0,1,.46-.93,2.14,2.14,0,0,1,.76-.61,2.32,2.32,0,0,1,1-.22,2.29,2.29,0,0,1,.76.12,1.69,1.69,0,0,1,.61.38,1.63,1.63,0,0,1,.39.67,3.06,3.06,0,0,1,.14,1v4.06H68.6V57.17a1.53,1.53,0,0,0-.13-.7.88.88,0,0,0-.38-.36,1.46,1.46,0,0,0-.58-.11,1.3,1.3,0,0,0-.65.15,1.21,1.21,0,0,0-.44.4,2,2,0,0,0-.25.58A3.29,3.29,0,0,0,66.1,57.84Zm3.77-.36-.63.14a3.58,3.58,0,0,1,.15-1,2.78,2.78,0,0,1,.46-.87,2.25,2.25,0,0,1,.74-.59,2.38,2.38,0,0,1,1-.21,2.47,2.47,0,0,1,.84.13,1.59,1.59,0,0,1,.63.39,1.82,1.82,0,0,1,.39.7,3.54,3.54,0,0,1,.14,1v3.94H72.24V57.17a1.57,1.57,0,0,0-.13-.72.74.74,0,0,0-.37-.35,1.67,1.67,0,0,0-.58-.1,1.25,1.25,0,0,0-.56.12,1.13,1.13,0,0,0-.4.32,1.51,1.51,0,0,0-.25.47A2.12,2.12,0,0,0,69.87,57.48Z"/><path class="cls-18" d="M77.69,61.23A3.16,3.16,0,0,1,76.47,61a2.45,2.45,0,0,1-.92-.62,2.68,2.68,0,0,1-.59-.94,3.41,3.41,0,0,1-.2-1.16v-.23A3.71,3.71,0,0,1,75,56.76a3,3,0,0,1,.58-1,2.62,2.62,0,0,1,2-.85,2.74,2.74,0,0,1,1.15.22,2.25,2.25,0,0,1,.81.62,2.39,2.39,0,0,1,.48.94,4.15,4.15,0,0,1,.16,1.2v.58h-4.7v-1h3.36v-.11a1.72,1.72,0,0,0-.14-.68,1.16,1.16,0,0,0-.4-.52,1.2,1.2,0,0,0-.72-.2,1.16,1.16,0,0,0-1,.56,2.59,2.59,0,0,0-.27.65,3.7,3.7,0,0,0-.09.85v.23a2.55,2.55,0,0,0,.11.74,1.8,1.8,0,0,0,.33.59,1.54,1.54,0,0,0,.51.4,1.75,1.75,0,0,0,.7.14,1.92,1.92,0,0,0,.87-.19,2.19,2.19,0,0,0,.66-.56l.72.69a2.87,2.87,0,0,1-.51.55,2.47,2.47,0,0,1-.77.42A3.12,3.12,0,0,1,77.69,61.23Z"/><path class="cls-18" d="M82,55l1.45,4.56L83.7,61l-.94.24L80.55,55Zm.93,5.43L84.6,55h1.45l-2.44,7a5,5,0,0,1-.22.49A2.44,2.44,0,0,1,83,63a1.75,1.75,0,0,1-.54.38,1.81,1.81,0,0,1-.78.15,1.87,1.87,0,0,1-.34,0l-.32-.06v-1h.27a1.79,1.79,0,0,0,.56-.08.83.83,0,0,0,.37-.26,1.6,1.6,0,0,0,.25-.49Z"/><path class="cls-18" d="M174.85,33.66h1.41a3.21,3.21,0,0,1-.45,1.43,2.72,2.72,0,0,1-1.08,1,3.6,3.6,0,0,1-1.68.36,3.4,3.4,0,0,1-1.38-.27,2.94,2.94,0,0,1-1-.78,3.33,3.33,0,0,1-.66-1.22,5.33,5.33,0,0,1-.23-1.6v-.68a5.4,5.4,0,0,1,.23-1.61,3.54,3.54,0,0,1,.68-1.22,2.84,2.84,0,0,1,1.06-.78A3.41,3.41,0,0,1,173.1,28a3.47,3.47,0,0,1,1.65.37,2.6,2.6,0,0,1,1.06,1,3.68,3.68,0,0,1,.46,1.47h-1.41a2.57,2.57,0,0,0-.25-.91,1.31,1.31,0,0,0-.56-.58,2,2,0,0,0-1-.2,1.87,1.87,0,0,0-.85.18,1.6,1.6,0,0,0-.6.53,2.33,2.33,0,0,0-.37.86,5.11,5.11,0,0,0-.12,1.16v.7a5.45,5.45,0,0,0,.11,1.12,2.64,2.64,0,0,0,.34.87,1.63,1.63,0,0,0,.58.56,1.76,1.76,0,0,0,.86.2,2.09,2.09,0,0,0,1-.2,1.24,1.24,0,0,0,.57-.56A2.51,2.51,0,0,0,174.85,33.66Z"/><path class="cls-18" d="M177.41,28.63a.69.69,0,0,1,.2-.52.88.88,0,0,1,1.14,0,.7.7,0,0,1,.21.52.66.66,0,0,1-.21.5.88.88,0,0,1-1.14,0A.65.65,0,0,1,177.41,28.63Zm1.45,1.6v6.1H177.5v-6.1Z"/><path class="cls-18" d="M184.21,33.62h.46a4.44,4.44,0,0,1-.13,1.13,2.5,2.5,0,0,1-.42.9,2,2,0,0,1-.72.59,2.47,2.47,0,0,1-1.06.21,2.39,2.39,0,0,1-.82-.13,1.58,1.58,0,0,1-.64-.4,1.78,1.78,0,0,1-.41-.7,3.22,3.22,0,0,1-.15-1V30.23h1.36v3.95a1.79,1.79,0,0,0,.08.56.9.9,0,0,0,.21.36.8.8,0,0,0,.32.19,1.2,1.2,0,0,0,.38.05,1.63,1.63,0,0,0,.92-.22,1.34,1.34,0,0,0,.48-.62A2.43,2.43,0,0,0,184.21,33.62ZM184,34.89V30.23h1.37v6.1H184.1Z"/><path class="cls-18" d="M186.53,33.35v-.12a4.6,4.6,0,0,1,.16-1.27,3.24,3.24,0,0,1,.47-1,2.13,2.13,0,0,1,1.76-.85,2.1,2.1,0,0,1,1,.21,2,2,0,0,1,.71.61,3,3,0,0,1,.47.95,6.11,6.11,0,0,1,.25,1.22v.38a6,6,0,0,1-.25,1.19,3,3,0,0,1-.47.94,2,2,0,0,1-.71.61,2.17,2.17,0,0,1-1,.21,2,2,0,0,1-1-.23,2.15,2.15,0,0,1-.76-.65,3.08,3.08,0,0,1-.47-1A4.41,4.41,0,0,1,186.53,33.35Zm1.36-.12v.12a4,4,0,0,0,.07.78,2,2,0,0,0,.24.63,1.26,1.26,0,0,0,.43.43,1.22,1.22,0,0,0,.63.15,1.29,1.29,0,0,0,.76-.2,1.41,1.41,0,0,0,.47-.55,2.66,2.66,0,0,0,.23-.77v-1a3.1,3.1,0,0,0-.13-.62,1.85,1.85,0,0,0-.28-.5,1.14,1.14,0,0,0-.44-.34,1.4,1.4,0,0,0-.6-.12,1.14,1.14,0,0,0-.63.16,1.18,1.18,0,0,0-.43.43,2.44,2.44,0,0,0-.25.64A4,4,0,0,0,187.89,33.23Zm2.61,1.84v-7.4h1.36v8.66h-1.23Z"/><path class="cls-18" d="M196.92,32.62v.84h-1a2.7,2.7,0,0,0-.67.07,1.51,1.51,0,0,0-.48.21.94.94,0,0,0-.28.32,1,1,0,0,0,0,.88.82.82,0,0,0,.33.31,1.09,1.09,0,0,0,.53.12,1.44,1.44,0,0,0,.73-.18,1.35,1.35,0,0,0,.49-.42.94.94,0,0,0,.2-.48l.44.61a2.59,2.59,0,0,1-.66,1,2.23,2.23,0,0,1-.63.39,2.17,2.17,0,0,1-.84.15,2.3,2.3,0,0,1-1.06-.24,1.83,1.83,0,0,1-.73-.64,1.68,1.68,0,0,1-.27-.93,1.94,1.94,0,0,1,.18-.86,1.82,1.82,0,0,1,.54-.63,2.73,2.73,0,0,1,.88-.39,4.76,4.76,0,0,1,1.19-.13Zm-.19,2.49V32.2a1.26,1.26,0,0,0-.12-.57.78.78,0,0,0-.36-.36,1.21,1.21,0,0,0-.6-.13,1.31,1.31,0,0,0-.58.11,1,1,0,0,0-.38.3.76.76,0,0,0-.13.44h-1.35a1.45,1.45,0,0,1,.17-.7,2,2,0,0,1,.51-.61,2.56,2.56,0,0,1,.79-.41,3.39,3.39,0,0,1,1-.15,2.92,2.92,0,0,1,1.22.23,1.79,1.79,0,0,1,.84.69,2,2,0,0,1,.31,1.17v2.71a4.22,4.22,0,0,0,.06.75,2.57,2.57,0,0,0,.17.57v.09h-1.39a1.89,1.89,0,0,1-.15-.56A3.81,3.81,0,0,1,196.73,35.11Z"/><path class="cls-18" d="M199.26,33.35v-.12a4.59,4.59,0,0,1,.17-1.27,3,3,0,0,1,.47-1,2.2,2.2,0,0,1,.76-.63,2.16,2.16,0,0,1,1-.22,2.13,2.13,0,0,1,1,.21,2,2,0,0,1,.71.61,3.24,3.24,0,0,1,.47.95,6.11,6.11,0,0,1,.25,1.22v.38a6,6,0,0,1-.25,1.19,3.18,3.18,0,0,1-.47.94,2,2,0,0,1-.71.61,2.17,2.17,0,0,1-1,.21,2.08,2.08,0,0,1-1-.23,2.21,2.21,0,0,1-.75-.65,2.88,2.88,0,0,1-.47-1A4.4,4.4,0,0,1,199.26,33.35Zm1.36-.12v.12a4,4,0,0,0,.08.78,2,2,0,0,0,.24.63,1.33,1.33,0,0,0,.42.43,1.28,1.28,0,0,0,.63.15,1.32,1.32,0,0,0,.77-.2,1.5,1.5,0,0,0,.47-.55,2.66,2.66,0,0,0,.23-.77v-1a2.54,2.54,0,0,0-.14-.62,1.62,1.62,0,0,0-.28-.5,1.1,1.1,0,0,0-.43-.34,1.41,1.41,0,0,0-.61-.12,1.18,1.18,0,0,0-.63.16,1.24,1.24,0,0,0-.42.43,2.14,2.14,0,0,0-.25.64A4,4,0,0,0,200.62,33.23Zm2.61,1.84v-7.4h1.37v8.66h-1.24Z"/><path class="cls-18" d="M171.28,44.27h-2.14V43.15h2.14a1.94,1.94,0,0,0,.9-.19,1.15,1.15,0,0,0,.51-.49,1.74,1.74,0,0,0,.16-.73,1.86,1.86,0,0,0-.16-.74,1.26,1.26,0,0,0-.51-.54,1.71,1.71,0,0,0-.9-.21h-1.7v7.08h-1.42V39.12h3.12a3.63,3.63,0,0,1,1.62.33,2.43,2.43,0,0,1,1,.93,2.8,2.8,0,0,1,0,2.71,2.19,2.19,0,0,1-1,.87A3.78,3.78,0,0,1,171.28,44.27Z"/><path class="cls-18" d="M178.09,47.44a3.16,3.16,0,0,1-1.22-.22,2.62,2.62,0,0,1-.93-.62,2.75,2.75,0,0,1-.58-.94,3.24,3.24,0,0,1-.21-1.17v-.23a3.85,3.85,0,0,1,.21-1.3,3.23,3.23,0,0,1,.58-1,2.62,2.62,0,0,1,.88-.64,2.87,2.87,0,0,1,1.1-.21,2.91,2.91,0,0,1,1.15.21,2.19,2.19,0,0,1,.81.62,2.68,2.68,0,0,1,.49.95,4.1,4.1,0,0,1,.16,1.2v.59h-4.72v-1h3.38V43.6a2,2,0,0,0-.15-.69,1.12,1.12,0,0,0-.4-.51,1.14,1.14,0,0,0-.72-.2,1.16,1.16,0,0,0-1,.56,1.93,1.93,0,0,0-.27.65,3.7,3.7,0,0,0-.09.85v.23a2.55,2.55,0,0,0,.11.74,1.73,1.73,0,0,0,.32.6,1.65,1.65,0,0,0,.52.39,1.6,1.6,0,0,0,.7.15,1.89,1.89,0,0,0,.87-.2,2,2,0,0,0,.67-.56l.71.69a2.38,2.38,0,0,1-.51.55,2.49,2.49,0,0,1-.77.43A3.05,3.05,0,0,1,178.09,47.44Z"/><path class="cls-18" d="M183,42.39v4.94h-1.36v-6.1h1.3Zm1.87-1.2v1.26l-.27,0h-.29a1.91,1.91,0,0,0-.61.09,1.06,1.06,0,0,0-.44.29,1.33,1.33,0,0,0-.28.44,2.06,2.06,0,0,0-.11.58l-.31,0a5,5,0,0,1,.11-1.06,3.1,3.1,0,0,1,.34-.87,1.89,1.89,0,0,1,.58-.58,1.51,1.51,0,0,1,.8-.2,1.27,1.27,0,0,1,.27,0A.8.8,0,0,1,184.82,41.19Z"/><path class="cls-18" d="M185.42,44.35v-.12a5,5,0,0,1,.16-1.27,3,3,0,0,1,.48-1,2.26,2.26,0,0,1,.75-.63,2.23,2.23,0,0,1,1-.22,2.13,2.13,0,0,1,1,.21,2.07,2.07,0,0,1,.71.61,3.51,3.51,0,0,1,.47,1,6.91,6.91,0,0,1,.25,1.22v.38a6.75,6.75,0,0,1-.25,1.19,3.44,3.44,0,0,1-.47.94,2.07,2.07,0,0,1-.71.61,2.17,2.17,0,0,1-1,.21,2.08,2.08,0,0,1-1-.23,2.21,2.21,0,0,1-.75-.65,2.89,2.89,0,0,1-.48-1A4.81,4.81,0,0,1,185.42,44.35Zm1.36-.12v.12a4,4,0,0,0,.08.78,2,2,0,0,0,.24.63,1.33,1.33,0,0,0,.42.43,1.47,1.47,0,0,0,1.39,0,1.33,1.33,0,0,0,.47-.55,2.39,2.39,0,0,0,.24-.77v-1a2.54,2.54,0,0,0-.14-.62,1.62,1.62,0,0,0-.28-.5,1.18,1.18,0,0,0-.43-.34,1.41,1.41,0,0,0-.61-.12,1.14,1.14,0,0,0-.63.16,1.36,1.36,0,0,0-.43.43,2.12,2.12,0,0,0-.24.64A4,4,0,0,0,186.78,44.23Zm2.61,1.84v-7.4h1.37v8.66h-1.24Z"/><path class="cls-18" d="M192.18,39.63a.73.73,0,0,1,.2-.52.78.78,0,0,1,.58-.21.77.77,0,0,1,.57.21.7.7,0,0,1,.21.52.66.66,0,0,1-.21.5.77.77,0,0,1-.57.21.78.78,0,0,1-.58-.21A.69.69,0,0,1,192.18,39.63Zm1.45,1.6v6.1h-1.36v-6.1Z"/><path class="cls-18" d="M194.87,44.35v-.12A4.59,4.59,0,0,1,195,43a3.24,3.24,0,0,1,.47-1,2.13,2.13,0,0,1,1.76-.85,2.13,2.13,0,0,1,1,.21,2,2,0,0,1,.71.61,3.24,3.24,0,0,1,.47,1,6.11,6.11,0,0,1,.25,1.22v.38a6,6,0,0,1-.25,1.19,3.18,3.18,0,0,1-.47.94,2,2,0,0,1-.71.61,2.17,2.17,0,0,1-1,.21,2,2,0,0,1-1-.23,2.15,2.15,0,0,1-.76-.65,3.08,3.08,0,0,1-.47-1A4.4,4.4,0,0,1,194.87,44.35Zm1.36-.12v.12a4,4,0,0,0,.08.78,2,2,0,0,0,.24.63,1.26,1.26,0,0,0,.43.43,1.22,1.22,0,0,0,.63.15,1.31,1.31,0,0,0,.76-.2,1.41,1.41,0,0,0,.47-.55,2.66,2.66,0,0,0,.23-.77v-1a2.54,2.54,0,0,0-.14-.62,1.62,1.62,0,0,0-.28-.5,1.1,1.1,0,0,0-.43-.34,1.4,1.4,0,0,0-.6-.12,1.19,1.19,0,0,0-.64.16,1.24,1.24,0,0,0-.42.43,2.44,2.44,0,0,0-.25.64A4,4,0,0,0,196.23,44.23Zm2.62,1.84v-7.4h1.36v8.66H199Z"/><path class="cls-18" d="M205.27,43.62v.84h-1a2.65,2.65,0,0,0-.67.07,1.51,1.51,0,0,0-.48.21,1,1,0,0,0-.29.32,1,1,0,0,0-.09.44.93.93,0,0,0,.11.44.82.82,0,0,0,.33.31,1.09,1.09,0,0,0,.53.12,1.44,1.44,0,0,0,.73-.18,1.35,1.35,0,0,0,.49-.42.84.84,0,0,0,.19-.48l.44.61a1.78,1.78,0,0,1-.23.49,2.47,2.47,0,0,1-.42.51,2.23,2.23,0,0,1-.63.39,2.17,2.17,0,0,1-.84.15,2.27,2.27,0,0,1-1.06-.24,1.86,1.86,0,0,1-.74-.64,1.76,1.76,0,0,1-.26-.93,1.94,1.94,0,0,1,.18-.86,1.63,1.63,0,0,1,.54-.63,2.64,2.64,0,0,1,.88-.39,4.74,4.74,0,0,1,1.18-.13Zm-.2,2.49V43.2a1.41,1.41,0,0,0-.11-.57.78.78,0,0,0-.36-.36,1.21,1.21,0,0,0-.6-.13,1.28,1.28,0,0,0-.58.11,1,1,0,0,0-.38.3.76.76,0,0,0-.13.44h-1.36a1.46,1.46,0,0,1,.18-.7,1.83,1.83,0,0,1,.51-.61,2.56,2.56,0,0,1,.79-.41,3.39,3.39,0,0,1,1-.15,2.92,2.92,0,0,1,1.22.23,1.79,1.79,0,0,1,.84.69,2,2,0,0,1,.31,1.17v2.71a4.22,4.22,0,0,0,.06.75,2.13,2.13,0,0,0,.17.57v.09h-1.39a1.89,1.89,0,0,1-.15-.56A3.85,3.85,0,0,1,205.07,46.11Z"/><path class="cls-18" d="M50.07,170.14h1.4a3.13,3.13,0,0,1-.45,1.43,2.63,2.63,0,0,1-1.07,1,3.6,3.6,0,0,1-1.68.36,3.17,3.17,0,0,1-1.37-.28,2.86,2.86,0,0,1-1-.77,3.69,3.69,0,0,1-.67-1.22,5.34,5.34,0,0,1-.22-1.6v-.68a5,5,0,0,1,.23-1.6,3.64,3.64,0,0,1,.67-1.23,3.28,3.28,0,0,1,1.06-.78,3.41,3.41,0,0,1,1.39-.26,3.47,3.47,0,0,1,1.65.36,2.64,2.64,0,0,1,1.05,1,3.63,3.63,0,0,1,.46,1.46H50.07a2.88,2.88,0,0,0-.24-.91,1.29,1.29,0,0,0-.56-.57,2.23,2.23,0,0,0-1.8,0,1.52,1.52,0,0,0-.6.53,2.45,2.45,0,0,0-.36.85,5.1,5.1,0,0,0-.13,1.17v.69a5.45,5.45,0,0,0,.11,1.12,2.87,2.87,0,0,0,.34.87,1.56,1.56,0,0,0,.59.55,1.72,1.72,0,0,0,.85.2,2.09,2.09,0,0,0,1-.19,1.29,1.29,0,0,0,.57-.56A2.57,2.57,0,0,0,50.07,170.14Z"/><path class="cls-18" d="M56.25,169.1v.84h-1a2.65,2.65,0,0,0-.67.07,1.51,1.51,0,0,0-.48.2.8.8,0,0,0-.28.33.88.88,0,0,0-.1.43,1,1,0,0,0,.11.45.9.9,0,0,0,.33.31,1.22,1.22,0,0,0,.53.11,1.54,1.54,0,0,0,.73-.17,1.57,1.57,0,0,0,.49-.42,1,1,0,0,0,.19-.48l.44.6a2.17,2.17,0,0,1-.66,1,2,2,0,0,1-.62.39,2,2,0,0,1-.84.16,2.3,2.3,0,0,1-1.06-.24,1.85,1.85,0,0,1-.73-.65,1.64,1.64,0,0,1-.27-.93,1.8,1.8,0,0,1,.19-.85,1.63,1.63,0,0,1,.54-.63,2.58,2.58,0,0,1,.87-.39,4.74,4.74,0,0,1,1.18-.13Zm-.2,2.48v-2.9a1.26,1.26,0,0,0-.12-.57.83.83,0,0,0-.36-.36,1.15,1.15,0,0,0-.59-.13,1.43,1.43,0,0,0-.58.11A1,1,0,0,0,54,168a.71.71,0,0,0-.13.43H52.54a1.6,1.6,0,0,1,.17-.7,1.92,1.92,0,0,1,.51-.6,2.48,2.48,0,0,1,.79-.42,3.39,3.39,0,0,1,1-.15,3.12,3.12,0,0,1,1.22.23,2,2,0,0,1,.84.7,2.08,2.08,0,0,1,.3,1.16v2.71a4.18,4.18,0,0,0,.06.74,2.57,2.57,0,0,0,.17.57v.09H56.25a2.61,2.61,0,0,1-.15-.56A4.89,4.89,0,0,1,56.05,171.58Z"/><path class="cls-18" d="M60.19,168v4.85H58.83v-6.09h1.28ZM60,169.53h-.46a4.36,4.36,0,0,1,.15-1.17,2.91,2.91,0,0,1,.47-.93,2,2,0,0,1,.75-.61,2.38,2.38,0,0,1,1-.22,2.35,2.35,0,0,1,.77.12,1.58,1.58,0,0,1,.6.38,1.7,1.7,0,0,1,.39.67,3.08,3.08,0,0,1,.14,1v4.05H62.47v-3.94a1.53,1.53,0,0,0-.13-.7.78.78,0,0,0-.38-.36,1.43,1.43,0,0,0-.58-.11,1.33,1.33,0,0,0-.65.15,1.18,1.18,0,0,0-.43.4,1.6,1.6,0,0,0-.25.58A2.71,2.71,0,0,0,60,169.53Zm3.78-.36-.64.14a3.58,3.58,0,0,1,.15-1,2.78,2.78,0,0,1,.46-.87,2.19,2.19,0,0,1,.75-.59,2.32,2.32,0,0,1,1-.21,2.37,2.37,0,0,1,.83.13,1.46,1.46,0,0,1,.63.39,1.82,1.82,0,0,1,.39.7,3.54,3.54,0,0,1,.14,1v3.94H66.12v-3.94a1.56,1.56,0,0,0-.14-.72.7.7,0,0,0-.37-.35,1.67,1.67,0,0,0-.58-.1,1.18,1.18,0,0,0-.55.12,1.07,1.07,0,0,0-.41.32,1.31,1.31,0,0,0-.24.47A1.79,1.79,0,0,0,63.75,169.17Z"/><path class="cls-18" d="M70.24,167.88v7.27H68.88v-8.44h1.25Zm4,1.82v.12a4.81,4.81,0,0,1-.16,1.23,2.82,2.82,0,0,1-.46,1,2.2,2.2,0,0,1-.74.65,2.38,2.38,0,0,1-2,0,2.11,2.11,0,0,1-.72-.6,3.19,3.19,0,0,1-.47-.92,5.65,5.65,0,0,1-.25-1.16v-.45a6.11,6.11,0,0,1,.25-1.22,3.18,3.18,0,0,1,.47-.94,2.08,2.08,0,0,1,.71-.61,2.22,2.22,0,0,1,1-.21,2.1,2.1,0,0,1,1.77.85,2.94,2.94,0,0,1,.45,1A5,5,0,0,1,74.21,169.7Zm-1.36.12v-.12a3.81,3.81,0,0,0-.08-.78,2,2,0,0,0-.25-.64,1.11,1.11,0,0,0-.43-.43,1.14,1.14,0,0,0-.63-.16,1.49,1.49,0,0,0-.62.12,1.3,1.3,0,0,0-.43.34,1.42,1.42,0,0,0-.27.5,2.86,2.86,0,0,0-.13.61v1.09a2.62,2.62,0,0,0,.23.75,1.25,1.25,0,0,0,1.24.74,1.21,1.21,0,0,0,.62-.16,1.27,1.27,0,0,0,.42-.44,1.82,1.82,0,0,0,.25-.64A4,4,0,0,0,72.85,169.82Z"/><path class="cls-18" d="M79,169.1l0,.84H78a2.62,2.62,0,0,0-.66.07,1.51,1.51,0,0,0-.48.2.91.91,0,0,0-.29.33,1,1,0,0,0-.09.43.86.86,0,0,0,.11.45.77.77,0,0,0,.33.31,1.17,1.17,0,0,0,.52.11,1.51,1.51,0,0,0,.73-.17,1.62,1.62,0,0,0,.5-.42,1,1,0,0,0,.19-.48l.44.6a2.72,2.72,0,0,1-.23.5,2.2,2.2,0,0,1-.43.5,2.14,2.14,0,0,1-1.46.55,2.27,2.27,0,0,1-1.06-.24,1.88,1.88,0,0,1-.74-.65,1.71,1.71,0,0,1-.26-.93,1.93,1.93,0,0,1,.18-.85,1.63,1.63,0,0,1,.54-.63,2.64,2.64,0,0,1,.88-.39,4.68,4.68,0,0,1,1.18-.13Zm-.19,2.48v-2.9a1.26,1.26,0,0,0-.12-.57.83.83,0,0,0-.36-.36,1.21,1.21,0,0,0-.6-.13,1.41,1.41,0,0,0-.57.11,1,1,0,0,0-.38.31.71.71,0,0,0-.13.43H75.27a1.49,1.49,0,0,1,.18-.7,1.8,1.8,0,0,1,.51-.6,2.38,2.38,0,0,1,.79-.42,3.35,3.35,0,0,1,1-.15,3.07,3.07,0,0,1,1.21.23,1.87,1.87,0,0,1,.84.7,2,2,0,0,1,.31,1.16v2.71a4.18,4.18,0,0,0,.06.74,2.57,2.57,0,0,0,.17.57v.09H79a2.61,2.61,0,0,1-.15-.56A4.89,4.89,0,0,1,78.79,171.58Z"/><path class="cls-18" d="M82.93,168v4.85H81.57v-6.09h1.28Zm-.22,1.58h-.47a4.35,4.35,0,0,1,.16-1.17,3.11,3.11,0,0,1,.46-.93,2.14,2.14,0,0,1,.76-.61,2.32,2.32,0,0,1,1-.22,2.29,2.29,0,0,1,.76.12,1.55,1.55,0,0,1,1,1.05,3.08,3.08,0,0,1,.14,1v4.05H85.21v-3.94a1.53,1.53,0,0,0-.13-.7.83.83,0,0,0-.38-.36,1.46,1.46,0,0,0-.58-.11,1.3,1.3,0,0,0-.65.15,1.21,1.21,0,0,0-.44.4,2,2,0,0,0-.25.58A3.23,3.23,0,0,0,82.71,169.53Zm3.77-.36-.63.14a3.58,3.58,0,0,1,.15-1,2.59,2.59,0,0,1,.46-.87,2.25,2.25,0,0,1,.74-.59,2.38,2.38,0,0,1,1-.21,2.47,2.47,0,0,1,.84.13,1.59,1.59,0,0,1,.63.39,1.82,1.82,0,0,1,.39.7,3.54,3.54,0,0,1,.14,1v3.94H88.85v-3.94a1.57,1.57,0,0,0-.13-.72.74.74,0,0,0-.37-.35,1.72,1.72,0,0,0-.58-.1,1.25,1.25,0,0,0-.56.12,1,1,0,0,0-.4.32,1.51,1.51,0,0,0-.25.47A2.12,2.12,0,0,0,86.48,169.17Z"/><path class="cls-18" d="M94.3,172.92a3.16,3.16,0,0,1-1.22-.23,2.58,2.58,0,0,1-.93-.62,2.81,2.81,0,0,1-.58-.94,3.41,3.41,0,0,1-.2-1.16v-.23a3.71,3.71,0,0,1,.21-1.29,3,3,0,0,1,.58-1,2.54,2.54,0,0,1,.88-.63,2.62,2.62,0,0,1,1.09-.22,2.74,2.74,0,0,1,1.15.22,2.25,2.25,0,0,1,.81.62,2.53,2.53,0,0,1,.48.94,4.1,4.1,0,0,1,.16,1.2v.58H92v-1h3.36v-.11a1.72,1.72,0,0,0-.14-.68,1.16,1.16,0,0,0-.4-.52,1.2,1.2,0,0,0-.72-.2,1.16,1.16,0,0,0-1,.56,2.45,2.45,0,0,0-.27.65,3.7,3.7,0,0,0-.09.85V170a2.55,2.55,0,0,0,.11.74,1.77,1.77,0,0,0,.32.59,1.68,1.68,0,0,0,.52.4,1.75,1.75,0,0,0,.7.14,1.8,1.8,0,0,0,.87-.2,2,2,0,0,0,.66-.55l.72.69a2.94,2.94,0,0,1-.52.55,2.63,2.63,0,0,1-.76.42A3.12,3.12,0,0,1,94.3,172.92Z"/><path class="cls-18" d="M99.13,168v4.79H97.78v-6.09h1.27Zm-.24,1.52h-.44a4.07,4.07,0,0,1,.18-1.19,3,3,0,0,1,.5-.93,2.2,2.2,0,0,1,.76-.6,2.31,2.31,0,0,1,1-.21,2.49,2.49,0,0,1,.8.12,1.46,1.46,0,0,1,.61.39,1.82,1.82,0,0,1,.39.7,3.58,3.58,0,0,1,.14,1.06v3.93h-1.36v-3.94a1.63,1.63,0,0,0-.13-.69.74.74,0,0,0-.37-.37,1.44,1.44,0,0,0-.59-.11,1.26,1.26,0,0,0-.62.15,1.39,1.39,0,0,0-.47.4,2.1,2.1,0,0,0-.29.58A2.34,2.34,0,0,0,98.89,169.53Z"/><path class="cls-18" d="M107,166.71v1h-3.44v-1Zm-2.45-1.49h1.36v5.9a1,1,0,0,0,.08.43.41.41,0,0,0,.23.2.9.9,0,0,0,.34.05h.27l.21,0v1l-.39.09a3.77,3.77,0,0,1-.51,0,2,2,0,0,1-.83-.17,1.17,1.17,0,0,1-.56-.54,2.06,2.06,0,0,1-.21-1Z"/><path class="cls-18" d="M107.78,169.83v-.13a3.78,3.78,0,0,1,.2-1.23,2.77,2.77,0,0,1,.55-1,2.56,2.56,0,0,1,.89-.66,3.22,3.22,0,0,1,2.39,0,2.65,2.65,0,0,1,.89.66,3,3,0,0,1,.56,1,4.06,4.06,0,0,1,.19,1.23v.13a4,4,0,0,1-.19,1.22,3.06,3.06,0,0,1-.56,1,2.5,2.5,0,0,1-.89.65,2.84,2.84,0,0,1-1.19.24,2.81,2.81,0,0,1-1.19-.24,2.45,2.45,0,0,1-.9-.65,2.86,2.86,0,0,1-.55-1A3.76,3.76,0,0,1,107.78,169.83Zm1.36-.13v.13a3.19,3.19,0,0,0,.09.77,1.76,1.76,0,0,0,.26.64,1.29,1.29,0,0,0,.46.44,1.46,1.46,0,0,0,1.33,0,1.38,1.38,0,0,0,.46-.44,1.76,1.76,0,0,0,.26-.64,3.19,3.19,0,0,0,.09-.77v-.13a3.19,3.19,0,0,0-.09-.77,1.79,1.79,0,0,0-.27-.65,1.38,1.38,0,0,0-.46-.44,1.44,1.44,0,0,0-1.32,0,1.38,1.38,0,0,0-.46.44,2,2,0,0,0-.26.65A3.19,3.19,0,0,0,109.14,169.7Z"/><path class="cls-18" d="M66.88,176.61l1.32,6.3.12,1.89h-.95l-1.9-8.19ZM68.1,183l1.63-6.35h.86l-.1,1.64-1.75,6.55h-.88Zm2.82-6.35L72.53,183l.24,1.82h-.89l-1.72-6.55-.09-1.64Zm1.52,6.29,1.3-6.29h1.41l-1.9,8.19h-.94Z"/><path class="cls-18" d="M76.06,177.11a.73.73,0,0,1,.2-.51.88.88,0,0,1,1.14,0,.69.69,0,0,1,.21.51.66.66,0,0,1-.21.51.91.91,0,0,1-1.14,0A.69.69,0,0,1,76.06,177.11Zm1.45,1.6v6.09H76.15v-6.09Z"/><path class="cls-18" d="M79.82,178.71l1.1,4.77L81,184.8h-.87l-1.65-6.09Zm.83,4.74,1.41-4.74h.87l-.24,1.42-1.42,4.67h-.78Zm2.42-4.74,1.39,4.69.18,1.4h-.78l-1.44-4.67-.23-1.42Zm1.17,4.71,1.07-4.71h1.32L85,184.8h-.87Z"/><path class="cls-18" d="M91.18,181.1v.84h-1a2.62,2.62,0,0,0-.66.07,1.51,1.51,0,0,0-.48.2.83.83,0,0,0-.29.33,1,1,0,0,0-.09.43.86.86,0,0,0,.11.45.77.77,0,0,0,.33.31,1.17,1.17,0,0,0,.52.11,1.54,1.54,0,0,0,.73-.17,1.57,1.57,0,0,0,.49-.42.89.89,0,0,0,.2-.48l.44.6a2.26,2.26,0,0,1-.24.5,2.15,2.15,0,0,1-.42.5,2.19,2.19,0,0,1-1.46.55,2.34,2.34,0,0,1-1.07-.24,1.92,1.92,0,0,1-.73-.65,1.71,1.71,0,0,1-.26-.93,1.93,1.93,0,0,1,.18-.85,1.63,1.63,0,0,1,.54-.63,2.64,2.64,0,0,1,.88-.39,4.68,4.68,0,0,1,1.18-.13ZM91,183.58v-2.9a1.26,1.26,0,0,0-.12-.57.83.83,0,0,0-.36-.36,1.21,1.21,0,0,0-.6-.13,1.41,1.41,0,0,0-.57.11A1,1,0,0,0,89,180a.71.71,0,0,0-.14.43H87.47a1.49,1.49,0,0,1,.18-.7,1.77,1.77,0,0,1,.5-.6,2.54,2.54,0,0,1,.8-.42,3.33,3.33,0,0,1,1-.15,3.09,3.09,0,0,1,1.22.23,1.87,1.87,0,0,1,.84.7,2,2,0,0,1,.31,1.16v2.71a4.18,4.18,0,0,0,.06.74,2.13,2.13,0,0,0,.17.57v.09H91.19a2.61,2.61,0,0,1-.15-.56A3.67,3.67,0,0,1,91,183.58Z"/></svg>