<svg id="Capa_1" data-name="Capa 1" xmlns="http://www.w3.org/2000/svg" viewBox="0 0 249.48 199.01"><defs><style>.cls-1{fill:#c5875e;stroke:#c5875e;stroke-miterlimit:10;}</style></defs><path class="cls-1" d="M68.35,70.47c-1.68,0-3.16.09-4.63,0a2.47,2.47,0,0,1-2.36-2.55c-.06-1.57.78-2.86,2.4-2.84,11.15.11,22.89-2.39,32.09,7,1.36,1.38,3.32,2.19,4.65,3.6,5.31,5.66,11.89,6.79,19.22,6.08,2.06-.2,2.55-.77,2.25-2.68a46.44,46.44,0,0,1-.4-5.53,2.52,2.52,0,0,1,2.65-2.94c1.84-.08,2.77.93,2.9,2.71.11,1.62.22,3.23.26,4.85a7.31,7.31,0,0,0,2.83,6.18c3.28,2.61,3.31,7.4.51,10.93a5.37,5.37,0,0,0-1.54,4c1,14.29,2,28.59,3,42.88a10.41,10.41,0,0,0,.38,1.66c1.43-.23,2-1.36,2.79-2.09a16.06,16.06,0,0,1,10.26-4.48,11.24,11.24,0,0,0,7.78-3.27c1.4-1.36,3.11-2.58,4.75-.8s.13,3.21-1.12,4.49a13.62,13.62,0,0,1-9.84,4.44,12.26,12.26,0,0,0-9.17,4.14c-3,3.2-6.22,6.22-9.3,9.35a28.31,28.31,0,0,1-20.46,8.75,24.75,24.75,0,0,0-17.8,7.3c-2.58,2.57-5.75,4.17-9.35,3.75-12.18-1.43-23,2.16-33.27,8.29-1.58.94-3.3,1.66-5,2.45s-3.16.77-4.06-1.15.11-2.84,1.63-3.58c6.74-3.28,13.44-6.65,20.26-9.78,1.68-.77,2.47-1.19,1.45-3.13a7.05,7.05,0,0,1-.75-5A2.66,2.66,0,0,1,64,161a2.71,2.71,0,0,1,2.71,2.25c0,.11,0,.23.06.34,1.18,4.73,2.82,6.54,5.83,6.46,3.19-.09,5-2.27,5.53-7.11,1.23-11.72,2.32-23.46,3.51-35.18.14-1.3,0-2.13-1.45-2.6a27.05,27.05,0,0,1-9.7-5.52c-.57,6.4-1.1,12.31-1.61,18.23-.47,5.52-1,11.05-1.36,16.58-.15,2-.52,4-2.9,3.89s-2.89-2.22-2.71-4.39c1-12,1.86-24,3.06-35.92.29-2.87-.55-3.35-3-3.18a64.74,64.74,0,0,1-7.63,0c-5.3-.29-9.9-4.29-10.33-9.51a132,132,0,0,1,0-14.21c.07-2.64,2.87-4.62,2.95-6.73s-2.61-4.09-3-6.72A11.31,11.31,0,0,1,53.53,65c1.85-.22,3.67-.08,4.08,2.15s-.88,3-2.94,3.39c-3.63.66-5.59,3.13-5.21,6.14s2.68,4.78,6.15,4.89c.81,0,1.62,0,2.43,0,2.31,0,4.86.59,6.88-.19,2.53-1,.46-4.13,1.6-6.11A33.94,33.94,0,0,0,68.35,70.47ZM116,157.83a10.89,10.89,0,0,0,4.92-2.09c4.19-2.68,6.63-5.68,5.94-11.53-1.61-13.51-2.24-27.14-3.18-40.73-.37-5.2-.28-5.1-5.37-5.22-8.28-.2-17,1.75-24.44-5.63,0,4.3,0,7.71,0,11.12,0,1.39,1,1.66,1.92,2.1,4.34,2.15,8.72,4.21,13,6.42,4.06,2.08,7,5.37,7.11,10C116.14,134,116,145.74,116,157.83ZM73.74,114.4a13.32,13.32,0,0,0,7,5.36c4.93,1.95,9.84,3.94,14.81,5.8,2.76,1,3.92,2.8,3.87,5.77-.13,7-.07,14.09,0,21.13,0,4.22,2.29,6.91,5.65,6.87s5.39-2.56,5.41-6.69c0-9.12,0-18.24,0-27.36a7.83,7.83,0,0,0-4.74-7.73c-4.44-2.19-8.77-4.64-13.28-6.68-2.79-1.27-5-2.64-4.21-7.17C84,109.08,79.55,112.46,73.74,114.4Zm-2.11-5.63c8.16-2.8,12.22-8.71,15.24-15.72,1.32-3,1.4-5.32-2-7-1.72-.89-3.07-2.5-1.59-4.53s3.18-1.19,4.81,0c4,3,8,5.95,11.92,9a9.83,9.83,0,0,0,6.06,2.23c5.78,0,11.56,0,17.34,0,2,0,3.57-.55,3.55-2.8s-1.66-2.75-3.61-2.74c-4.62,0-9.25-.06-13.87,0a7.11,7.11,0,0,1-4.77-1.54c-5.32-4.08-10.74-8-16.09-12.07A13.79,13.79,0,0,0,80,70.53c-4.7.07-8.28,3.27-8.35,8C71.53,88.43,71.63,98.37,71.63,108.77Zm11.45,61a4.59,4.59,0,0,0,1.38-.32c3.9-2.39,7-5.93,11.5-7.53,1.19-.42.38-1.33,0-2-1.67-2.53-1.92-5.36-1.91-8.28q0-9.51,0-19c0-2.26-2.7-4.68-5.38-4.42-2.26.22-1.19,2.48-1.66,3.81a5.56,5.56,0,0,0-.11,1.37C85.61,145.43,84.36,157.43,83.08,169.77ZM65.84,98.32c-.26-3.63,1.78-8.36-.57-10.57-1.86-1.75-6.55-.49-10-.57h-.34c-3.24.26-5.37,2.28-5.49,5.52-.13,3.68-.13,7.37,0,11.05.12,3.4,2.3,5.45,5.78,5.57,2.76.1,5.53-.07,8.29.06,1.88.09,2.39-.71,2.34-2.43C65.78,104.08,65.84,101.2,65.84,98.32Z"/><path class="cls-1" d="M166,42.76c-4.74,0-9.47.11-14.2,0a8.08,8.08,0,0,1-8-7.59,8.26,8.26,0,0,1,6.27-8.8c1.88-.44,3.94-.6,4.62,1.71s-.65,3.4-2.9,3.69a2.5,2.5,0,0,0-2.38,2.87c.13,1.81,1.32,2.58,3.06,2.58h27c1.74,0,2.93-.78,3.07-2.58a2.48,2.48,0,0,0-2.38-2.87c-2.34-.23-3-1.57-3.19-3.71a8.17,8.17,0,0,0-14.87-3.87c-1.27,1.81-2.69,3.21-4.78,1.61s-1-3.5.27-5.13c3.25-4.12,7.52-6.14,12.73-5.52A13,13,0,0,1,181.4,23.4a8.36,8.36,0,0,0,3.15,4.27,8.25,8.25,0,0,1-4.7,15.07C175.23,42.84,170.61,42.76,166,42.76Z"/><path class="cls-1" d="M188.33,53.87c-4.5,0-9,0-13.51,0a8.33,8.33,0,0,1-6-2.28,2.61,2.61,0,0,1-.38-3.73,2.29,2.29,0,0,1,3.36-.69c1.76,1.35,3.69,1.11,5.62,1.11,7.74,0,15.48,0,23.22,0,1.82,0,3.67,0,4.05-2.28s-1-3.07-3-3.33c-1.6-.21-2.31-1.31-2.41-2.9A8.38,8.38,0,0,0,194,32.26c-2-.88-3.2-2.22-2.17-4.3s2.88-1.52,4.56-.78A13.2,13.2,0,0,1,204,35.31a5.72,5.72,0,0,0,2.41,3.13c3.52,2.42,4.78,6,3.62,9.63s-4.1,5.74-8.48,5.79S192.72,53.87,188.33,53.87Z"/><path class="cls-1" d="M68.82,45.13c-.49-5.29,1.17-10.06,6.81-12.58A11,11,0,0,1,91,42c.15,2.06.09,4.14,0,6.22-.18,6.42-5,11.25-11.17,11.22S69,54.52,68.82,48.06C68.8,47.25,68.82,46.45,68.82,45.13Zm16.64.42c0-.8,0-1.61,0-2.42-.17-3.51-2.39-5.88-5.51-5.89s-5.39,2.36-5.55,5.85c-.06,1.26,0,2.54,0,3.81,0,4.34,2.09,6.91,5.52,6.93s5.51-2.56,5.56-6.89C85.47,46.48,85.47,46,85.46,45.55Z"/><path class="cls-1" d="M207.17,92.74c1.94-.08,2.87.84,3.13,2.38a2.38,2.38,0,0,1-1.81,2.95c-15.13,3-25.12,13.93-36,23.37-3,2.56-5.61,5.48-8.44,8.2-1.29,1.24-2.77,1.86-4.23.31s-1-2.88.39-4.22c10.57-10.48,21.25-20.84,34.36-28.24A40.23,40.23,0,0,1,207.17,92.74Z"/><path class="cls-1" d="M60.5,98.34c-.28,1.88,1,5.23-2.63,5.33-3.94.1-2.7-3.39-2.92-5.69a17.7,17.7,0,0,1,0-2.06c0-1.87.82-3.16,2.8-3.14S60.51,94.11,60.5,96Z"/></svg>