<svg id="Capa_1" data-name="Capa 1" xmlns="http://www.w3.org/2000/svg" viewBox="0 0 249.48 199.01"><defs><style>.cls-1{fill:#c6875e;}.cls-2{fill:#9c956f;}.cls-3{fill:#6c2911;}</style></defs><path class="cls-1" d="M220.64,130c-5,0-9.93,0-14.89,0-1.39,0-1.91-.36-1.9-1.84q.08-14.64,0-29.28c0-1.38.45-1.81,1.79-1.78,2.73.06,2.73,0,2.74-2.81,0-1.6,0-3.21,0-4.82,0-1.1.41-1.58,1.56-1.57q10.62,0,21.25,0c1.23,0,1.65.52,1.62,1.69,0,2.13,0,4.26,0,6.39,0,.87.31,1.14,1.17,1.17,3.48.12,3.48.15,3.48,3.63v27.1c0,2,0,2.09-2.09,2.09C230.47,130,225.56,130,220.64,130Zm.05-31.18c-4.61,0-9.21,0-13.82,0-.87,0-1.43,0-1.42,1.22q.06,13.55,0,27.11c0,1,.41,1.21,1.29,1.2,2.43,0,4.86,0,7.29,0,1,0,1.34-.38,1.34-1.37a28.39,28.39,0,0,1,.21-5.75,5.07,5.07,0,0,1,10.09.7c.08,1.71.07,3.43,0,5.14,0,.94.3,1.29,1.25,1.27,2.43,0,4.87-.07,7.3,0,1.21,0,1.58-.32,1.57-1.56q-.06-13.24,0-26.49c0-1.15-.31-1.53-1.48-1.51C229.79,98.83,225.24,98.8,220.69,98.8Zm-.1-1.71c3.1,0,6.2,0,9.3,0,1,0,1.42-.23,1.37-1.29-.06-1.71,0-3.43,0-5.14,0-.88-.32-1.18-1.18-1.18q-9.45,0-18.91,0c-1,0-1.28.37-1.26,1.29.05,1.66.06,3.32,0,5,0,1,.34,1.36,1.36,1.34C214.39,97.05,217.49,97.08,220.59,97.09Zm3.32,25.08a2.9,2.9,0,0,0-1.18-2.61,3.43,3.43,0,0,0-3.52-.44,3,3,0,0,0-1.88,2.64c-.11,1.81,0,3.63,0,5.45,0,.72.3,1,1,1,1.5,0,3,0,4.49,0,.77,0,1.14-.29,1.12-1.1C223.92,124.83,223.91,123.83,223.91,122.17Z"/><path class="cls-1" d="M29.73,127c-4.65,0-9.31,0-14,0a2.49,2.49,0,0,1-2.67-1.78,48.74,48.74,0,0,1-2.68-8.74c-.4-1.85,0-2.29,2-2.32s4.24-.08,6.35,0a1.3,1.3,0,0,0,1.45-1c1.06-3.13,2.22-6.23,3.24-9.38a2.05,2.05,0,0,1,2.34-1.67c3.2.1,6.41.07,9.62,0a1.64,1.64,0,0,1,1.86,1.24c.07.19.16.38.25.57.88,2.1,1.52,4.14,4.59,4.27a6.5,6.5,0,0,1,5.27,3.91,1.45,1.45,0,0,0,1.8.77,55.32,55.32,0,0,1,6-.39c1.28,0,1.79.46,1.3,1.69a39.11,39.11,0,0,1-4.87,9.33c-2.08,2.74-5,3.52-8.23,3.53-4.55,0-9.1,0-13.65,0Zm.83-1.81c4.29,0,8.58-.13,12.87,0a8.19,8.19,0,0,0,8-4.49c.44-.77.93-1.51,1.29-2.31.57-1.29,2.09-3,1.39-3.82s-2.81-.33-4.29-.13a131.73,131.73,0,0,1-19.14,1.43c-5.63-.07-11.27,0-16.9,0-1.39,0-1.75.6-1.41,1.84.55,2,1.16,4,1.88,5.91a2.09,2.09,0,0,0,2.33,1.52C21.25,125.18,25.9,125.21,30.56,125.22ZM46.1,113a6.5,6.5,0,0,0-4.73-3.39c-4.72-.83-9.49-.52-14.23-.57-3.8,0-3.76,0-5.12,3.59-.39,1-.36,1.46.91,1.45,4.86-.07,9.72,0,14.58-.09A51.92,51.92,0,0,0,46.1,113Zm-8.65-5.37a28.64,28.64,0,0,1-1.16-2.68,1.75,1.75,0,0,0-2-1.35c-2.68.08-5.36,0-8,0-.92,0-2.53,2.64-2.14,3.49.16.38.5.31.79.3C29,107.3,33.09,107.39,37.45,107.62Z"/><path class="cls-1" d="M123.78,122c0-1.66,0-3.33,0-5,0-1-.18-1.2-1.2-.78-4.32,1.8-8.23,1.05-11.11-2a9.15,9.15,0,0,1,1.92-14.32,2.44,2.44,0,0,0,1.4-2A9.52,9.52,0,0,1,130,91.32a9.17,9.17,0,0,1,3.09,4.56,1.69,1.69,0,0,0,1.11,1.29c5.65,2.07,8.29,7.13,6.57,12.4a11,11,0,0,1-13.19,7.05c-2.23-.63-2.23-.63-2.23,1.77,0,3,0,5.92,0,8.88,0,.56.07,1.3-.73,1.3s-.84-.65-.84-1.26C123.79,125.54,123.79,123.77,123.78,122Zm1.86-10.09,3.84-3.26c.5-.43,1.09-.82,1.62-.19s.1,1.15-.41,1.6q-1.71,1.49-3.38,3c-1.25,1.12-1.22,1.23.38,1.8,4.5,1.6,10-1.3,11.57-6,1.38-4.31-1.23-8.69-6.07-10.08a1.94,1.94,0,0,1-1.6-1.74,6.83,6.83,0,0,0-3.8-5c-4.83-2.44-10.32.48-11.17,6a3.9,3.9,0,0,1-2.22,3.44,7.22,7.22,0,0,0-2.69,10.19,7.82,7.82,0,0,0,10.55,2.9c.67-.39.79-.71.18-1.26-1.12-1-2.21-2-3.29-3.08-.48-.46-1.12-1-.44-1.7s1.22-.16,1.73.32l3.13,2.93a16.88,16.88,0,0,0,.38-4.54c0-.61-.06-1.4.83-1.39s.86.73.86,1.38C125.63,108.62,125.64,110.06,125.64,111.92Z"/><path class="cls-2" d="M14.23,49.08h9.69a13.33,13.33,0,0,1,5.23.92,7.19,7.19,0,0,1,3.35,2.71,7.92,7.92,0,0,1,1.17,4.41,8.23,8.23,0,0,1-.73,3.6,7.08,7.08,0,0,1-2.06,2.54,10.19,10.19,0,0,1-3.13,1.62l-1.57.8H17.62l0-4H24a5.48,5.48,0,0,0,2.58-.55,3.69,3.69,0,0,0,1.55-1.53,4.54,4.54,0,0,0,.52-2.21,5,5,0,0,0-.51-2.32,3.46,3.46,0,0,0-1.56-1.51,5.72,5.72,0,0,0-2.64-.53H19.27v22.7h-5ZM29.29,75.76l-6.17-12,5.33,0L34.7,75.51v.25Z"/><path class="cls-2" d="M52.92,49.08h5V66.8a9.42,9.42,0,0,1-1.32,5.14A8.33,8.33,0,0,1,53,75.08a12.14,12.14,0,0,1-5.16,1,12.43,12.43,0,0,1-5.23-1,8.19,8.19,0,0,1-3.59-3.14,9.5,9.5,0,0,1-1.3-5.14V49.08h5V66.8a6.59,6.59,0,0,0,.62,3,4,4,0,0,0,1.76,1.75,6.68,6.68,0,0,0,5.4,0,3.86,3.86,0,0,0,1.73-1.75,6.72,6.72,0,0,0,.61-3Z"/><path class="cls-2" d="M82.46,49.08v4H61v-4Zm-8.29,0V75.76h-5V49.08Z"/><path class="cls-2" d="M95,53.13,87.35,75.76H82L92,49.08H95.4Zm6,12.72v4H86.65v-4Zm.35,9.91L93.67,53.13l-.45-4.05h3.42l10,26.68Z"/><path class="cls-2" d="M123.77,49.08V75.76h-5V49.08ZM135.66,71.8v4H122.25v-4Z"/><path class="cls-2" d="M144.38,49.08V75.76h-5V49.08Z"/><path class="cls-2" d="M171.25,49.08V75.76h-5.06L154.85,57.25V75.76h-5V49.08h5l11.38,18.53V49.08Z"/><path class="cls-2" d="M181.4,49.08V75.76h-5V49.08Zm12.6,0v4H179.87v-4Zm-1.8,11V64H179.87V60.09Zm1.85,11.71v4H179.87v-4Z"/><path class="cls-2" d="M208.14,53.13l-7.6,22.63H195.2l10-26.68h3.41Zm6,12.72v4H199.84v-4Zm.35,9.91-7.64-22.63-.46-4.05h3.43l10,26.68Z"/><path class="cls-2" d="M227.62,49.08V75.76h-5V49.08Zm11.9,22.72v4H226.1v-4Z"/><path class="cls-3" d="M14.7,143.87H12v-1.55H14.7a2.21,2.21,0,0,0,1.07-.22,1.36,1.36,0,0,0,.61-.6,2,2,0,0,0,.19-.88,2.22,2.22,0,0,0-.19-.89,1.57,1.57,0,0,0-.61-.67,1.91,1.91,0,0,0-1.07-.26h-2v8.87h-2V137.24h4a4.59,4.59,0,0,1,2.08.44,3.19,3.19,0,0,1,1.32,1.19,3.37,3.37,0,0,1,.45,1.74,3.27,3.27,0,0,1-.45,1.74,3,3,0,0,1-1.32,1.13A5,5,0,0,1,14.7,143.87Z"/><path class="cls-3" d="M24.81,144.23l.59,0a5.92,5.92,0,0,1-.17,1.44,3.34,3.34,0,0,1-.54,1.14,2.4,2.4,0,0,1-.91.76,2.93,2.93,0,0,1-1.3.27,3.17,3.17,0,0,1-1.05-.17,2,2,0,0,1-.81-.5,2.41,2.41,0,0,1-.53-.9,4.3,4.3,0,0,1-.18-1.32v-5H21.8v5a2,2,0,0,0,.09.65,1.09,1.09,0,0,0,.25.42,1,1,0,0,0,.38.23,1.73,1.73,0,0,0,.47.06,1.9,1.9,0,0,0,1.08-.27,1.47,1.47,0,0,0,.57-.75A3.12,3.12,0,0,0,24.81,144.23Zm-.24,1.6v-5.91h1.9v7.75H24.68Z"/><path class="cls-3" d="M31.62,147.82a4.19,4.19,0,0,1-1.58-.29,3.33,3.33,0,0,1-1.19-.8,3.39,3.39,0,0,1-.75-1.2,3.92,3.92,0,0,1-.27-1.47v-.28a4.93,4.93,0,0,1,.26-1.63,3.88,3.88,0,0,1,.73-1.27,3.26,3.26,0,0,1,1.13-.81,3.86,3.86,0,0,1,2.91,0,2.81,2.81,0,0,1,1,.77,3.3,3.3,0,0,1,.64,1.2,5,5,0,0,1,.22,1.55v.79H28.69v-1.3H32.9v-.15a2.18,2.18,0,0,0-.17-.82,1.29,1.29,0,0,0-.48-.6,1.65,1.65,0,0,0-1.59-.05,1.52,1.52,0,0,0-.52.52,2.71,2.71,0,0,0-.3.79,4.52,4.52,0,0,0-.1,1v.28a2.84,2.84,0,0,0,.13.9,2,2,0,0,0,.4.72,1.76,1.76,0,0,0,.63.48,2,2,0,0,0,.84.17,2.44,2.44,0,0,0,1.08-.24,2.29,2.29,0,0,0,.84-.69l1,1a3,3,0,0,1-.66.69,3.32,3.32,0,0,1-1,.53A3.89,3.89,0,0,1,31.62,147.82Z"/><path class="cls-3" d="M37.92,141.51v6.16H36v-7.75h1.79Zm2.36-1.64,0,1.76-.35,0h-.37a2.26,2.26,0,0,0-.77.12,1.35,1.35,0,0,0-.55.34,1.45,1.45,0,0,0-.33.54,2.57,2.57,0,0,0-.13.72l-.41-.05a5.37,5.37,0,0,1,.16-1.37,3.77,3.77,0,0,1,.43-1.1,2.13,2.13,0,0,1,.72-.74,1.93,1.93,0,0,1,1-.26l.34,0A1.37,1.37,0,0,1,40.28,139.87Z"/><path class="cls-3" d="M45.34,139.92v1.36H40.9v-1.36ZM42.09,138H44v7.42a1.11,1.11,0,0,0,.1.53.49.49,0,0,0,.28.25,1.42,1.42,0,0,0,.44.06,1.83,1.83,0,0,0,.34,0l.27,0v1.42a3.61,3.61,0,0,1-.54.12,3.4,3.4,0,0,1-.67.06,2.75,2.75,0,0,1-1.11-.22,1.66,1.66,0,0,1-.75-.71,2.71,2.71,0,0,1-.26-1.3Z"/><path class="cls-3" d="M46.12,143.88v-.15a5,5,0,0,1,.24-1.58,3.67,3.67,0,0,1,.71-1.25,3.27,3.27,0,0,1,1.14-.82,3.73,3.73,0,0,1,1.53-.3,3.79,3.79,0,0,1,1.55.3,3.27,3.27,0,0,1,1.14.82,3.67,3.67,0,0,1,.71,1.25,4.72,4.72,0,0,1,.25,1.58v.15a4.64,4.64,0,0,1-.25,1.56,3.57,3.57,0,0,1-.71,1.25,3.1,3.1,0,0,1-1.13.83,4.1,4.1,0,0,1-3.08,0,3,3,0,0,1-1.15-.83,3.57,3.57,0,0,1-.71-1.25A4.9,4.9,0,0,1,46.12,143.88Zm1.89-.15v.15a4.19,4.19,0,0,0,.1,1,2.71,2.71,0,0,0,.31.78,1.61,1.61,0,0,0,.54.53,1.66,1.66,0,0,0,.8.19,1.47,1.47,0,0,0,1.32-.72,2.46,2.46,0,0,0,.32-.78,4.85,4.85,0,0,0,.1-1v-.15a4.77,4.77,0,0,0-.1-.95,2.46,2.46,0,0,0-.32-.78,1.61,1.61,0,0,0-.54-.53,1.68,1.68,0,0,0-1.59,0,1.58,1.58,0,0,0-.53.53,2.71,2.71,0,0,0-.31.78A4.13,4.13,0,0,0,48,143.73Z"/><path class="cls-3" d="M19.07,148.73v10.42h-2l-4.43-7.23v7.23h-2V148.73h2L17.11,156v-7.24Z"/><path class="cls-3" d="M25.46,154.43v1.13h-1.2a3.1,3.1,0,0,0-.78.09,1.48,1.48,0,0,0-.55.26,1,1,0,0,0-.32.4,1.24,1.24,0,0,0-.11.52,1,1,0,0,0,.14.52.88.88,0,0,0,.38.36,1.26,1.26,0,0,0,.6.13,1.72,1.72,0,0,0,.87-.2,1.6,1.6,0,0,0,.58-.5,1.07,1.07,0,0,0,.23-.56l.54.82a3.49,3.49,0,0,1-.3.62,2.72,2.72,0,0,1-.52.62,2.63,2.63,0,0,1-1.79.66,2.91,2.91,0,0,1-1.34-.3,2.37,2.37,0,0,1-.94-.83,2.11,2.11,0,0,1-.35-1.19,2.45,2.45,0,0,1,.23-1.08,2.1,2.1,0,0,1,.68-.8,3.26,3.26,0,0,1,1.13-.5,6.33,6.33,0,0,1,1.53-.17Zm-.27,3.08v-3.58a1.59,1.59,0,0,0-.13-.68,1,1,0,0,0-.42-.44,1.38,1.38,0,0,0-.71-.16,1.53,1.53,0,0,0-.66.13,1,1,0,0,0-.43.36.91.91,0,0,0-.16.54H20.79a1.88,1.88,0,0,1,.23-.92,2.48,2.48,0,0,1,.65-.77,3,3,0,0,1,1-.53,4.24,4.24,0,0,1,1.34-.2,3.89,3.89,0,0,1,1.57.3,2.45,2.45,0,0,1,1.09.89,2.7,2.7,0,0,1,.4,1.5v3.38a5.67,5.67,0,0,0,.07,1,2.69,2.69,0,0,0,.23.71v.12H25.47a2.87,2.87,0,0,1-.21-.74A7.09,7.09,0,0,1,25.19,157.51Z"/><path class="cls-3" d="M30.69,153v6.16H28.8v-7.74h1.79Zm2.36-1.63,0,1.76-.36-.05H32.3a2.22,2.22,0,0,0-.77.12,1.46,1.46,0,0,0-.55.34,1.48,1.48,0,0,0-.33.54,2.25,2.25,0,0,0-.13.72l-.41-.05a5.93,5.93,0,0,1,.15-1.37,3.78,3.78,0,0,1,.44-1.1,2.13,2.13,0,0,1,.72-.74,1.93,1.93,0,0,1,1-.26l.34,0A1,1,0,0,1,33.05,151.36Z"/><path class="cls-3" d="M34.06,149.38a.9.9,0,0,1,.29-.7,1.05,1.05,0,0,1,.78-.28,1.09,1.09,0,0,1,.79.28.93.93,0,0,1,.29.7.91.91,0,0,1-.29.69,1.09,1.09,0,0,1-.79.28,1.05,1.05,0,0,1-.78-.28A.88.88,0,0,1,34.06,149.38Zm2,2v7.74H34.19v-7.74Z"/><path class="cls-3" d="M39.74,153.06v6.09H37.85v-7.74h1.78Zm2.95-4.84,1.13.08a2.06,2.06,0,0,1-.21.94,1.67,1.67,0,0,1-.57.66,1.45,1.45,0,0,1-.83.24,1.78,1.78,0,0,1-.59-.09,2.35,2.35,0,0,1-.45-.22,2.82,2.82,0,0,0-.42-.23,1.28,1.28,0,0,0-.5-.09.58.58,0,0,0-.44.19.73.73,0,0,0-.18.52l-1.13-.05a2.06,2.06,0,0,1,.21-.94,1.7,1.7,0,0,1,.56-.68,1.5,1.5,0,0,1,.83-.25,1.33,1.33,0,0,1,.54.1,2.77,2.77,0,0,1,.46.22l.45.22a1.44,1.44,0,0,0,.51.09.61.61,0,0,0,.45-.19A.73.73,0,0,0,42.69,148.22ZM39.44,155h-.56a5.58,5.58,0,0,1,.23-1.53,3.6,3.6,0,0,1,.63-1.18,2.7,2.7,0,0,1,1-.76,2.86,2.86,0,0,1,1.25-.27,2.93,2.93,0,0,1,1,.16,1.9,1.9,0,0,1,.78.5,2.43,2.43,0,0,1,.5.9,4.8,4.8,0,0,1,.17,1.36v5h-1.9v-5a1.82,1.82,0,0,0-.16-.84.94.94,0,0,0-.44-.44,1.85,1.85,0,0,0-.71-.12,1.52,1.52,0,0,0-.76.17,1.69,1.69,0,0,0-.55.48,2.43,2.43,0,0,0-.33.71A3,3,0,0,0,39.44,155Z"/><path class="cls-3" d="M45.75,155.36v-.15a4.92,4.92,0,0,1,.24-1.57,3.57,3.57,0,0,1,.71-1.25,3.17,3.17,0,0,1,1.14-.83,3.73,3.73,0,0,1,1.53-.3,3.79,3.79,0,0,1,1.55.3,3.17,3.17,0,0,1,1.14.83,3.57,3.57,0,0,1,.71,1.25,4.92,4.92,0,0,1,.24,1.57v.15a4.9,4.9,0,0,1-.24,1.56,3.71,3.71,0,0,1-.71,1.26,3.15,3.15,0,0,1-1.14.82,3.74,3.74,0,0,1-1.54.3,3.81,3.81,0,0,1-1.54-.3,3.15,3.15,0,0,1-1.14-.82,3.71,3.71,0,0,1-.71-1.26A4.9,4.9,0,0,1,45.75,155.36Zm1.89-.15v.15a4.13,4.13,0,0,0,.1.95,2.49,2.49,0,0,0,.3.78,1.52,1.52,0,0,0,.54.53,1.58,1.58,0,0,0,.8.19,1.47,1.47,0,0,0,1.33-.72,2.28,2.28,0,0,0,.31-.78,4.13,4.13,0,0,0,.1-.95v-.15a4,4,0,0,0-.1-.94,2.28,2.28,0,0,0-.31-.78,1.49,1.49,0,0,0-1.34-.74,1.52,1.52,0,0,0-.79.2,1.55,1.55,0,0,0-.54.54,2.49,2.49,0,0,0-.3.78A4,4,0,0,0,47.64,155.21Z"/><path class="cls-3" d="M104.4,137.24v10.43h-2V137.24Z"/><path class="cls-3" d="M110.64,145.55a.84.84,0,0,0-.13-.44,1.26,1.26,0,0,0-.49-.35,4.67,4.67,0,0,0-1-.3,8.07,8.07,0,0,1-1.11-.33,3.26,3.26,0,0,1-.87-.47,1.85,1.85,0,0,1-.57-.65,1.75,1.75,0,0,1-.21-.87,2,2,0,0,1,.21-.9,2.3,2.3,0,0,1,.6-.76,2.92,2.92,0,0,1,1-.51,3.91,3.91,0,0,1,1.28-.19,4.19,4.19,0,0,1,1.7.32,2.56,2.56,0,0,1,1.09.89,2.2,2.2,0,0,1,.38,1.26h-1.89a1.16,1.16,0,0,0-.14-.56,1,1,0,0,0-.43-.4,1.42,1.42,0,0,0-.72-.16,1.47,1.47,0,0,0-.66.13,1,1,0,0,0-.41.34.82.82,0,0,0-.13.46.72.72,0,0,0,.07.33.7.7,0,0,0,.25.27,1.89,1.89,0,0,0,.47.22,5.83,5.83,0,0,0,.73.19,7.81,7.81,0,0,1,1.52.46,2.55,2.55,0,0,1,1,.75,1.86,1.86,0,0,1,.36,1.18,2,2,0,0,1-.22.95,2.24,2.24,0,0,1-.64.74,3.28,3.28,0,0,1-1,.49,4.52,4.52,0,0,1-1.33.17,3.8,3.8,0,0,1-1.8-.38,2.83,2.83,0,0,1-1.12-1,2.3,2.3,0,0,1-.38-1.23h1.81a1.22,1.22,0,0,0,.25.72,1.24,1.24,0,0,0,.56.39,2.18,2.18,0,0,0,.72.12,1.87,1.87,0,0,0,.72-.12,1,1,0,0,0,.45-.32A.78.78,0,0,0,110.64,145.55Z"/><path class="cls-3" d="M115.92,136.67v11H114v-11Z"/><path class="cls-3" d="M122.26,143v1.13h-1.19a3.53,3.53,0,0,0-.78.08,1.48,1.48,0,0,0-.55.26,1.24,1.24,0,0,0-.33.4,1.29,1.29,0,0,0-.1.53,1,1,0,0,0,.13.52,1,1,0,0,0,.39.36,1.25,1.25,0,0,0,.59.13,1.87,1.87,0,0,0,.88-.2,1.8,1.8,0,0,0,.58-.5,1.08,1.08,0,0,0,.22-.56l.54.82a2.68,2.68,0,0,1-.3.62,2.59,2.59,0,0,1-1.27,1.09,2.74,2.74,0,0,1-1,.18,3,3,0,0,1-1.35-.3,2.35,2.35,0,0,1-.94-.82,2.1,2.1,0,0,1-.34-1.19,2.53,2.53,0,0,1,.23-1.09,2.16,2.16,0,0,1,.68-.8,3.3,3.3,0,0,1,1.12-.49A6.48,6.48,0,0,1,121,143ZM122,146v-3.57a1.59,1.59,0,0,0-.14-.68.94.94,0,0,0-.42-.44,1.36,1.36,0,0,0-.71-.16,1.53,1.53,0,0,0-.66.13.9.9,0,0,0-.43.36.94.94,0,0,0-.15.53h-1.9a2,2,0,0,1,.23-.91,2.28,2.28,0,0,1,.66-.77,3.09,3.09,0,0,1,1-.54,4.34,4.34,0,0,1,1.34-.19,3.89,3.89,0,0,1,1.57.3,2.34,2.34,0,0,1,1.09.89,2.57,2.57,0,0,1,.4,1.49v3.38a5.7,5.7,0,0,0,.08,1,2.69,2.69,0,0,0,.22.71v.12h-1.93a2.52,2.52,0,0,1-.2-.75A5.46,5.46,0,0,1,122,146Z"/><path class="cls-3" d="M128.92,143.89v-.15a6.3,6.3,0,0,1,.2-1.62,3.92,3.92,0,0,1,.6-1.25,2.84,2.84,0,0,1,1-.8,2.66,2.66,0,0,1,1.28-.29,2.49,2.49,0,0,1,1.21.28,2.57,2.57,0,0,1,.89.79,4.32,4.32,0,0,1,.59,1.22,7.86,7.86,0,0,1,.32,1.55V144a7.31,7.31,0,0,1-.32,1.51,4.2,4.2,0,0,1-.59,1.2,2.71,2.71,0,0,1-.89.8,2.93,2.93,0,0,1-2.5,0,2.76,2.76,0,0,1-.95-.82,4,4,0,0,1-.6-1.25A6,6,0,0,1,128.92,143.89Zm1.9-.15v.15a5.58,5.58,0,0,0,.08.94,2.51,2.51,0,0,0,.28.77,1.56,1.56,0,0,0,.5.52,1.42,1.42,0,0,0,.74.18,1.61,1.61,0,0,0,.92-.24,1.81,1.81,0,0,0,.57-.68,3.28,3.28,0,0,0,.25-1v-1.13a3.26,3.26,0,0,0-.14-.79,2.1,2.1,0,0,0-.33-.63,1.51,1.51,0,0,0-.52-.42,1.67,1.67,0,0,0-.73-.15,1.34,1.34,0,0,0-1.25.72,2.48,2.48,0,0,0-.28.78A4.89,4.89,0,0,0,130.82,143.74ZM133.9,146v-9.35h1.9v11h-1.72Z"/><path class="cls-3" d="M141,147.81a4.12,4.12,0,0,1-1.58-.28,3.46,3.46,0,0,1-1.2-.8,3.69,3.69,0,0,1-.75-1.2,4.13,4.13,0,0,1-.26-1.47v-.28a4.89,4.89,0,0,1,.26-1.63,3.71,3.71,0,0,1,.73-1.27,3.17,3.17,0,0,1,1.13-.81,3.45,3.45,0,0,1,1.45-.29,3.69,3.69,0,0,1,1.46.27,3,3,0,0,1,1.05.78,3.63,3.63,0,0,1,.64,1.2,5.36,5.36,0,0,1,.21,1.54v.8h-6.07v-1.3h4.21v-.15a2.4,2.4,0,0,0-.17-.82,1.35,1.35,0,0,0-.49-.61,1.68,1.68,0,0,0-1.59,0,1.5,1.5,0,0,0-.51.52,2.46,2.46,0,0,0-.31.79,5.18,5.18,0,0,0-.1,1v.28a2.83,2.83,0,0,0,.14.9,2.08,2.08,0,0,0,.39.72,2,2,0,0,0,.63.48,2.06,2.06,0,0,0,.84.16,2.38,2.38,0,0,0,1.08-.23,2.29,2.29,0,0,0,.84-.69l.95,1a3.2,3.2,0,0,1-.65.69,3.59,3.59,0,0,1-1,.53A4,4,0,0,1,141,147.81Z"/><path class="cls-3" d="M92.12,148.73v10.42h-2V148.73Zm4.64,8.88v1.54H91.52v-1.54Z"/><path class="cls-3" d="M97.6,155.36v-.15a5,5,0,0,1,.24-1.58,3.62,3.62,0,0,1,.71-1.24,3.17,3.17,0,0,1,1.14-.83,3.73,3.73,0,0,1,1.53-.3,3.79,3.79,0,0,1,1.55.3,3.17,3.17,0,0,1,1.14.83,3.62,3.62,0,0,1,.71,1.24,5,5,0,0,1,.24,1.58v.15a4.9,4.9,0,0,1-.24,1.56,3.71,3.71,0,0,1-.71,1.26,3.15,3.15,0,0,1-1.14.82,3.74,3.74,0,0,1-1.54.3,3.81,3.81,0,0,1-1.54-.3,3.15,3.15,0,0,1-1.14-.82,3.71,3.71,0,0,1-.71-1.26A4.9,4.9,0,0,1,97.6,155.36Zm1.89-.15v.15a4.13,4.13,0,0,0,.1.95,2.49,2.49,0,0,0,.3.78,1.52,1.52,0,0,0,.54.53,1.69,1.69,0,0,0,.8.19,1.62,1.62,0,0,0,.79-.19,1.52,1.52,0,0,0,.54-.53,2.28,2.28,0,0,0,.31-.78,4.13,4.13,0,0,0,.1-.95v-.15a4,4,0,0,0-.1-.94,2.42,2.42,0,0,0-.31-.79A1.61,1.61,0,0,0,102,153a1.56,1.56,0,0,0-.8-.2,1.52,1.52,0,0,0-.79.2,1.61,1.61,0,0,0-.54.53,2.65,2.65,0,0,0-.3.79A4,4,0,0,0,99.49,155.21Z"/><path class="cls-3" d="M110.49,157a.73.73,0,0,0-.13-.43,1.07,1.07,0,0,0-.48-.36,4.85,4.85,0,0,0-1-.3,9.79,9.79,0,0,1-1.11-.32,3.84,3.84,0,0,1-.88-.47,2.11,2.11,0,0,1-.57-.66,1.86,1.86,0,0,1-.2-.87,2,2,0,0,1,.21-.9,2.17,2.17,0,0,1,.6-.75,2.94,2.94,0,0,1,1-.52,3.89,3.89,0,0,1,1.27-.19,4.16,4.16,0,0,1,1.7.32,2.59,2.59,0,0,1,1.1.89,2.2,2.2,0,0,1,.38,1.26h-1.9a1.18,1.18,0,0,0-.13-.56,1.11,1.11,0,0,0-.43-.4,1.53,1.53,0,0,0-.72-.16,1.63,1.63,0,0,0-.67.13,1,1,0,0,0-.4.34.83.83,0,0,0-.14.46.73.73,0,0,0,.08.33.76.76,0,0,0,.24.27,2.31,2.31,0,0,0,.47.22c.2.07.45.13.74.2A6.92,6.92,0,0,1,111,155a2.66,2.66,0,0,1,1,.75,1.87,1.87,0,0,1,.36,1.19,2,2,0,0,1-.22.94,2.16,2.16,0,0,1-.65.74,3.17,3.17,0,0,1-1,.49,4.48,4.48,0,0,1-1.32.18,3.8,3.8,0,0,1-1.8-.39,2.76,2.76,0,0,1-1.12-1,2.17,2.17,0,0,1-.38-1.23h1.81a1.16,1.16,0,0,0,.81,1.12,2.36,2.36,0,0,0,.72.11,2.18,2.18,0,0,0,.72-.11,1,1,0,0,0,.44-.33A.75.75,0,0,0,110.49,157Z"/><path class="cls-3" d="M117.56,148.73h1.67l.3,7.21v3.21h-2Zm.86,0h1.71l2.85,7.85,2.84-7.85h1.71l-3.87,10.42h-1.37Zm8.29,0h1.68v10.42h-2v-3.21Z"/><path class="cls-3" d="M130.23,149.38a.93.93,0,0,1,.29-.7,1.24,1.24,0,0,1,1.57,0,1,1,0,0,1,0,1.39,1.24,1.24,0,0,1-1.57,0A.93.93,0,0,1,130.23,149.38Zm2,2v7.75h-1.9V151.4Z"/><path class="cls-3" d="M137.24,157.81a1.66,1.66,0,0,0,.72-.16,1.26,1.26,0,0,0,.5-.44,1.29,1.29,0,0,0,.21-.67h1.78A2.56,2.56,0,0,1,140,158a3,3,0,0,1-1.15,1,3.33,3.33,0,0,1-1.59.37,3.74,3.74,0,0,1-1.56-.3,3.2,3.2,0,0,1-1.11-.84,3.83,3.83,0,0,1-.66-1.25,5.32,5.32,0,0,1-.21-1.52v-.23a5.25,5.25,0,0,1,.21-1.51,3.74,3.74,0,0,1,.66-1.25,3.09,3.09,0,0,1,1.11-.84,3.73,3.73,0,0,1,1.55-.3,3.46,3.46,0,0,1,1.65.37,2.66,2.66,0,0,1,1.12,1,3,3,0,0,1,.42,1.57h-1.78a1.67,1.67,0,0,0-.19-.75A1.32,1.32,0,0,0,138,153a1.41,1.41,0,0,0-.76-.2,1.51,1.51,0,0,0-.8.2,1.31,1.31,0,0,0-.49.55,2.68,2.68,0,0,0-.25.77,6.42,6.42,0,0,0-.07.89v.23a6.59,6.59,0,0,0,.07.91,2.68,2.68,0,0,0,.25.77,1.41,1.41,0,0,0,.49.54A1.52,1.52,0,0,0,137.24,157.81Z"/><path class="cls-3" d="M141.37,155.36v-.15a5,5,0,0,1,.25-1.58,3.62,3.62,0,0,1,.71-1.24,3.17,3.17,0,0,1,1.14-.83,3.7,3.7,0,0,1,1.53-.3,3.79,3.79,0,0,1,1.55.3,3.17,3.17,0,0,1,1.14.83,3.62,3.62,0,0,1,.71,1.24,5,5,0,0,1,.24,1.58v.15a4.9,4.9,0,0,1-.24,1.56,3.71,3.71,0,0,1-.71,1.26,3.15,3.15,0,0,1-1.14.82,3.74,3.74,0,0,1-1.54.3,3.81,3.81,0,0,1-1.54-.3,3.15,3.15,0,0,1-1.14-.82,3.71,3.71,0,0,1-.71-1.26A4.9,4.9,0,0,1,141.37,155.36Zm1.9-.15v.15a4.13,4.13,0,0,0,.1.95,2.49,2.49,0,0,0,.3.78,1.52,1.52,0,0,0,.54.53,1.69,1.69,0,0,0,.8.19,1.62,1.62,0,0,0,.79-.19,1.52,1.52,0,0,0,.54-.53,2.28,2.28,0,0,0,.31-.78,4.13,4.13,0,0,0,.1-.95v-.15a4,4,0,0,0-.1-.94,2.42,2.42,0,0,0-.31-.79,1.61,1.61,0,0,0-.54-.53,1.56,1.56,0,0,0-.8-.2,1.52,1.52,0,0,0-.79.2,1.61,1.61,0,0,0-.54.53,2.65,2.65,0,0,0-.3.79A4,4,0,0,0,143.27,155.21Z"/><path class="cls-3" d="M154.27,157a.73.73,0,0,0-.13-.43,1.07,1.07,0,0,0-.48-.36,4.85,4.85,0,0,0-1-.3,8.72,8.72,0,0,1-1.11-.32,3.84,3.84,0,0,1-.88-.47,2.11,2.11,0,0,1-.57-.66,1.86,1.86,0,0,1-.2-.87,2,2,0,0,1,.21-.9,2.06,2.06,0,0,1,.6-.75,2.94,2.94,0,0,1,1-.52,3.85,3.85,0,0,1,1.27-.19,4.16,4.16,0,0,1,1.7.32,2.59,2.59,0,0,1,1.1.89,2.19,2.19,0,0,1,.37,1.26h-1.89a1.08,1.08,0,0,0-.14-.56,1,1,0,0,0-.42-.4,1.53,1.53,0,0,0-.72-.16,1.63,1.63,0,0,0-.67.13,1,1,0,0,0-.4.34.83.83,0,0,0-.14.46.73.73,0,0,0,.08.33.76.76,0,0,0,.24.27,2.31,2.31,0,0,0,.47.22c.2.07.45.13.74.2a6.92,6.92,0,0,1,1.51.45,2.66,2.66,0,0,1,1,.75,1.87,1.87,0,0,1,.36,1.19,2,2,0,0,1-.22.94,2.16,2.16,0,0,1-.65.74,3.17,3.17,0,0,1-1,.49,4.48,4.48,0,0,1-1.32.18,3.87,3.87,0,0,1-1.81-.39,2.79,2.79,0,0,1-1.11-1,2.17,2.17,0,0,1-.38-1.23h1.81a1.16,1.16,0,0,0,.81,1.12,2.36,2.36,0,0,0,.72.11,2.18,2.18,0,0,0,.72-.11,1,1,0,0,0,.44-.33A.75.75,0,0,0,154.27,157Z"/><path class="cls-3" d="M201.46,149v10.43h-2V149Zm4.64,8.88v1.55h-5.24v-1.55Z"/><path class="cls-3" d="M210.75,159.55a4.16,4.16,0,0,1-1.58-.29,3.33,3.33,0,0,1-1.19-.8,3.61,3.61,0,0,1-.76-1.19,4.21,4.21,0,0,1-.26-1.47v-.29a4.93,4.93,0,0,1,.26-1.63,3.73,3.73,0,0,1,.73-1.26,3.16,3.16,0,0,1,1.13-.82,3.86,3.86,0,0,1,2.91,0,2.73,2.73,0,0,1,1,.78,3.14,3.14,0,0,1,.64,1.2,5.3,5.3,0,0,1,.22,1.54v.79h-6.08v-1.3H212v-.14a2.23,2.23,0,0,0-.17-.83,1.31,1.31,0,0,0-.49-.6,1.45,1.45,0,0,0-.85-.23,1.35,1.35,0,0,0-.73.19,1.49,1.49,0,0,0-.52.51,2.83,2.83,0,0,0-.3.79,4.64,4.64,0,0,0-.1,1v.29a2.92,2.92,0,0,0,.13.9,2.17,2.17,0,0,0,.39.72,1.87,1.87,0,0,0,.64.47,2,2,0,0,0,.84.17,2.5,2.5,0,0,0,1.07-.23,2.37,2.37,0,0,0,.85-.7l1,1a3,3,0,0,1-.66.69,3.11,3.11,0,0,1-1,.53A3.93,3.93,0,0,1,210.75,159.55Z"/><path class="cls-3" d="M218.83,151.66V153h-4.44v-1.36Zm-3.25-1.91h1.9v7.42a1.23,1.23,0,0,0,.09.53.46.46,0,0,0,.28.25,1.4,1.4,0,0,0,.44.07,1.9,1.9,0,0,0,.35,0l.26,0v1.42c-.16,0-.34.09-.53.13a4.57,4.57,0,0,1-.67.05,2.6,2.6,0,0,1-1.12-.22,1.61,1.61,0,0,1-.75-.71,2.83,2.83,0,0,1-.26-1.3Z"/><path class="cls-3" d="M220.07,149.63a.93.93,0,0,1,.29-.7,1.05,1.05,0,0,1,.78-.28,1.09,1.09,0,0,1,.79.28.93.93,0,0,1,.29.7.91.91,0,0,1-.29.69,1.09,1.09,0,0,1-.79.28,1.05,1.05,0,0,1-.78-.28A.91.91,0,0,1,220.07,149.63Zm2,2v7.75h-1.9v-7.75Z"/><path class="cls-3" d="M227.08,158.06a1.53,1.53,0,0,0,.72-.16,1.19,1.19,0,0,0,.5-.44,1.26,1.26,0,0,0,.21-.67h1.78a2.53,2.53,0,0,1-.44,1.41,3,3,0,0,1-1.15,1,3.45,3.45,0,0,1-1.59.36,3.74,3.74,0,0,1-1.56-.3,3,3,0,0,1-1.11-.84,3.74,3.74,0,0,1-.66-1.25,5.3,5.3,0,0,1-.22-1.51v-.23a5.32,5.32,0,0,1,.22-1.52,3.74,3.74,0,0,1,.66-1.25,3,3,0,0,1,1.11-.84,3.73,3.73,0,0,1,1.55-.3,3.46,3.46,0,0,1,1.65.37,2.72,2.72,0,0,1,1.12,1,3.06,3.06,0,0,1,.42,1.57h-1.78a1.81,1.81,0,0,0-.19-.75,1.38,1.38,0,0,0-.49-.53,1.41,1.41,0,0,0-.76-.2,1.51,1.51,0,0,0-.8.2,1.47,1.47,0,0,0-.5.55,3,3,0,0,0-.24.77,5.29,5.29,0,0,0-.07.9v.23a5.29,5.29,0,0,0,.07.9,3,3,0,0,0,.24.77,1.37,1.37,0,0,0,1.31.74Z"/><path class="cls-3" d="M231.53,149.63a.9.9,0,0,1,.29-.7,1.05,1.05,0,0,1,.78-.28,1.09,1.09,0,0,1,.79.28.93.93,0,0,1,.29.7.91.91,0,0,1-.29.69,1.09,1.09,0,0,1-.79.28,1.05,1.05,0,0,1-.78-.28A.88.88,0,0,1,231.53,149.63Zm2,2v7.75h-1.89v-7.75Z"/><path class="cls-3" d="M239.89,154.69l0,1.12h-1.2a3.1,3.1,0,0,0-.78.09,1.41,1.41,0,0,0-.55.26,1,1,0,0,0-.32.4,1.24,1.24,0,0,0-.11.52.93.93,0,0,0,.52.88,1.26,1.26,0,0,0,.6.13,1.75,1.75,0,0,0,.87-.2,1.69,1.69,0,0,0,.58-.5,1,1,0,0,0,.22-.56l.55.82a3.49,3.49,0,0,1-.3.62,3,3,0,0,1-.52.62,2.63,2.63,0,0,1-1.79.66,3,3,0,0,1-1.35-.3,2.34,2.34,0,0,1-.93-.83,2.07,2.07,0,0,1-.35-1.18,2.47,2.47,0,0,1,.23-1.09,2.09,2.09,0,0,1,.68-.8,3.4,3.4,0,0,1,1.12-.5,6.51,6.51,0,0,1,1.54-.16Zm-.26,3.07v-3.58a1.62,1.62,0,0,0-.14-.68,1,1,0,0,0-.41-.44,1.52,1.52,0,0,0-.71-.16,1.62,1.62,0,0,0-.66.13,1.06,1.06,0,0,0-.44.36,1,1,0,0,0-.15.54h-1.9a2,2,0,0,1,.23-.92,2.51,2.51,0,0,1,.66-.77,2.9,2.9,0,0,1,1-.53,4.35,4.35,0,0,1,1.35-.2,3.92,3.92,0,0,1,1.57.3,2.52,2.52,0,0,1,1.09.89,2.7,2.7,0,0,1,.39,1.5v3.38a5.5,5.5,0,0,0,.08,1,2.58,2.58,0,0,0,.22.71v.13h-1.92a3.08,3.08,0,0,1-.21-.75A5.63,5.63,0,0,1,239.63,157.76Z"/><path class="cls-3" d="M167.28,116.11H153c-.41,0-.83,0-1.24,0s-.91-.27-.93-.84.4-.81.91-.84,1,0,1.55,0H182c.49,0,1.18.24,1.43-.27s-.53-.88-.81-1.33c-.4-.66-1.89-1-1-2s1.62.29,2.26.8c1.08.88,2.07,1.88,3.11,2.81.69.61.74,1.16,0,1.8-1.27,1.15-2.49,2.35-3.74,3.51-.54.5-1.19.8-1.77.16s.1-1.08.49-1.55,1.71-1,1.38-1.83-1.5-.31-2.29-.31C176.49,116.1,171.89,116.11,167.28,116.11Z"/><path class="cls-3" d="M77.13,116.11H65.81a10.27,10.27,0,0,1-1.24,0c-.5-.06-.94-.34-.95-.86s.43-.79.94-.83.93,0,1.4,0q11.25,0,22.49,0c.54,0,1.31.29,1.54-.35s-.6-.87-.91-1.32c-.42-.61-1.75-1-1-1.93s1.56.1,2.16.61c1.11.93,2.13,2,3.21,2.94.66.59.82,1.15.1,1.81-1.3,1.19-2.58,2.39-3.89,3.58-.49.45-1.09.76-1.63.17s0-1.09.41-1.56,1.76-1.08,1.46-1.81-1.57-.35-2.4-.36C84.06,116.08,80.6,116.11,77.13,116.11Z"/><path class="cls-1" d="M209.39,109.06c0-.46,0-.93,0-1.4a2.63,2.63,0,0,1,2.8-2.82c1.89,0,3,.86,3.18,2.63,0,.36,0,.73,0,1.09,0,3.79-.27,4-4.07,3.91-1.37,0-2-.64-1.93-2,0-.46,0-.93,0-1.4Zm1.68-.32c0,.86-.39,1.91,1.2,1.88s1.27-1,1.29-1.91c0-.37,0-.73,0-1.09a1,1,0,0,0-1.07-1.08,1.19,1.19,0,0,0-1.38,1A6.41,6.41,0,0,0,211.07,108.74Z"/><path class="cls-1" d="M223.46,108.71c0,3.5,0,3.46-3.51,3.38-1.25,0-1.81-.55-1.8-1.76,0-.52,0-1,0-1.56,0-3.55.11-3.61,3.69-3.46,1.16,0,1.72.49,1.64,1.7C223.43,107.57,223.46,108.15,223.46,108.71Zm-1.54-.07c-.26-.61.47-1.75-1-1.71s-1,1.09-1,1.79-.43,1.76,1,1.75S221.65,109.32,221.92,108.64Z"/><path class="cls-1" d="M226.46,108.68c0-3.59,0-3.59,3.61-3.37,1.09.07,1.59.52,1.54,1.62,0,.77,0,1.56,0,2.32s.48,2.11-.5,2.57a6.6,6.6,0,0,1-3.94.11c-.53-.09-.68-.58-.68-1.08C226.46,110.12,226.46,109.4,226.46,108.68Zm1.56,0c.22.66-.5,1.82,1.1,1.78,1.42,0,1-1,1-1.75s.4-1.84-1.1-1.82S228.23,108,228,108.7Z"/></svg>