<svg id="Capa_1" data-name="Capa 1" xmlns="http://www.w3.org/2000/svg" viewBox="0 0 249.48 199.01"><defs><style>.cls-1{fill:#c5875e;}</style></defs><path class="cls-1" d="M112.57,64.92c0-3.76-.12-7.54.05-11.3.1-2.12-.58-3.15-2.59-4a15.18,15.18,0,0,1-8.74-17,15.48,15.48,0,0,1,30.17-1.13,15.24,15.24,0,0,1-8.61,18.17c-2.07.9-2.6,2-2.56,4.07q.17,11.46,0,22.93c0,2,.66,2.72,2.57,3.23a25.8,25.8,0,0,1,.35,49.94c-2.46.66-2.94,1.71-2.91,3.94.11,7.64.09,15.29,0,22.93a3.59,3.59,0,0,0,2,3.58,10.87,10.87,0,0,1,4.92,12.82A11.37,11.37,0,0,1,116.51,181a11.18,11.18,0,0,1-10.65-7.91,10.76,10.76,0,0,1,4.85-12.82,3.39,3.39,0,0,0,1.89-3.32q-.09-11.94,0-23.89c0-1.73-.28-2.72-2.29-3.07a17.64,17.64,0,0,1-7.38-3.12c-1.51-1.11-2.35-.62-3.48.53-5.89,6-11.86,11.9-17.79,17.83-.61.61-1.22,1.22-1.84,1.82-1.8,1.73-3.86,2.19-5.73.41-2-1.94-1.45-4.07.34-6,.74-.78,1.51-1.53,2.27-2.29,5.71-5.71,11.37-11.46,17.15-17.09,1.39-1.35,1.61-2.28.53-4a23.19,23.19,0,0,1-3.54-16,3,3,0,0,0-1.45-3.2c-4.88-3.71-9.76-7.42-14.51-11.3a5.74,5.74,0,0,0-6-1.29A10.84,10.84,0,0,1,55.56,79a11.17,11.17,0,0,1,20.8-8,8.76,8.76,0,0,1,.91,6c-.55,1.91.07,2.92,1.53,4,4.31,3.22,8.55,6.54,12.75,9.9,1.49,1.2,2.33,1.61,3.65-.43a23.81,23.81,0,0,1,15-10.47c2.09-.49,2.49-1.47,2.44-3.33C112.5,72.68,112.57,68.8,112.57,64.92Zm4.16,21.91A18.11,18.11,0,1,0,134.58,105,18,18,0,0,0,116.73,86.83Zm7.49-51.29a7.78,7.78,0,0,0-7.82-7.78,7.93,7.93,0,0,0-7.7,8,7.83,7.83,0,0,0,7.73,7.57A7.68,7.68,0,0,0,124.22,35.54ZM69.65,75.35c-.4-1.87-1.42-3.32-3.64-3.19a3.36,3.36,0,1,0,.36,6.71C68.34,78.79,69.41,77.46,69.65,75.35Zm46.73,97.81c2.1-.12,3.44-1.27,3.5-3.34a3.09,3.09,0,0,0-3.08-3.39,3.13,3.13,0,0,0-3.66,3.11C113,171.68,114.29,172.82,116.38,173.16Z"/><path class="cls-1" d="M193.19,67.39A15.48,15.48,0,0,1,201,96.18c-6.2,3.64-13.78,2.93-18.64-2.28-2-2.13-3.53-2.18-6-1.28-7.57,2.75-15.23,5.26-22.86,7.83-3.27,1.11-5.45.39-6.2-1.94s.37-4.22,3.7-5.37q12-4.15,24.1-8.2a3.18,3.18,0,0,0,2.6-3.33A15.34,15.34,0,0,1,193.19,67.39Zm7.66,15.33a7.68,7.68,0,0,0-7.92-7.55A7.59,7.59,0,0,0,185.35,83a7.81,7.81,0,0,0,7.88,7.65A7.9,7.9,0,0,0,200.85,82.72Z"/><path class="cls-1" d="M58.84,178.05a15.53,15.53,0,1,1,15.51-15.58A15.61,15.61,0,0,1,58.84,178.05Zm7.73-15.61a7.76,7.76,0,0,0-7.84-7.67,7.86,7.86,0,0,0-7.66,7.88,7.75,7.75,0,0,0,7.87,7.63A7.66,7.66,0,0,0,66.57,162.44Z"/></svg>