<svg id="Capa_1" data-name="Capa 1" xmlns="http://www.w3.org/2000/svg" viewBox="0 0 249.48 199.01"><defs><style>.cls-1{fill:#c6875e;}.cls-2{fill:#d8d29b;}.cls-3{fill:#facb74;}.cls-4{fill:#9c956f;}.cls-5{fill:#121419;}.cls-6{fill:#16191a;}.cls-7{fill:#151619;}.cls-8{fill:#151718;}.cls-9{fill:#dda82b;}.cls-10{fill:#6c2911;}.cls-11{fill:#e86c58;}.cls-12{fill:#d1bbb4;}.cls-13{fill:#e76d58;}.cls-14{fill:#19181a;}.cls-15{fill:#31281c;}.cls-16{fill:#1e1e1c;}.cls-17{fill:#201b1a;}</style></defs><path class="cls-1" d="M186.58,65.26a7.78,7.78,0,0,1-1.69.27,1.19,1.19,0,0,1-1.19-1.19,1.08,1.08,0,0,1,.93-1.23c1.58-.24,3.16-.45,4.75-.64,1.31-.17,1.9.62,1.7,1.75-.26,1.48-.21,3-.43,4.46-.11.81-.41,1.49-1.28,1.45s-1.19-.7-1.13-1.55c0-.4,0-.81,0-1.54-.65.62-1.13,1-1.58,1.5a104.84,104.84,0,0,1-28.85,20.53c-.82.39-1,.68-.68,1.58a30.59,30.59,0,0,1-22.92,40.22,16.91,16.91,0,0,1-4.13.56c-.79,0-1.08.24-1.08,1.06,0,9.77,0,19.54.06,29.31,0,0,.05.07.12.16.55-.18.78-.74,1.13-1.13a1,1,0,0,1,1.5-.23,1.05,1.05,0,0,1,.37,1.5c-1.05,1.46-2.13,2.91-3.32,4.26-.67.77-1.43.35-2-.34-.89-1.13-1.7-2.33-2.6-3.45-.55-.69-.65-1.32.08-1.87s1.26-.16,1.71.44a5.6,5.6,0,0,1,.36.64l.38-.22v-1.15c0-9.1,0-18.2,0-27.3,0-1.39-.43-1.63-1.72-1.77a31.14,31.14,0,0,1-26.77-22.4A29.37,29.37,0,0,1,98.85,91c.22-.65.28-1.09-.55-1.43A95.75,95.75,0,0,1,66,67.52a6.9,6.9,0,0,0-.53-.45,8.74,8.74,0,0,1,0,1.87c-.16.68-.58,1.27-1.41,1.14s-1-.6-1-1.33c-.09-1.44-.34-2.86-.47-4.3-.18-1.85.54-2.45,2.34-2.09,1.21.23,2.45.33,3.66.57.75.14,1.65.31,1.51,1.38s-.94,1.07-1.77,1c-.31,0-.62,0-1.13,0A59.79,59.79,0,0,0,73,71.1,92.35,92.35,0,0,0,98.77,87.36c1,.4,1.39.38,2-.65a30.36,30.36,0,0,1,22.14-15.93,31.08,31.08,0,0,1,32,14.88c1,1.81,1,1.8,2.94.88a99.74,99.74,0,0,0,27.33-19.73C185.56,66.37,186,65.91,186.58,65.26Z"/><path class="cls-2" d="M192,54.1a19.33,19.33,0,0,1,1.42-25.75c7.18-7.4,20.39-7.79,27.9.27A19.19,19.19,0,0,1,226.58,41a18.4,18.4,0,0,1-3.44,12.18,1,1,0,0,1-.47-.92,44.24,44.24,0,0,1,.16-7.72,2.23,2.23,0,0,0-.53-1.94,6.36,6.36,0,0,0-6.13-2.66,66.06,66.06,0,0,1-7.58,0c-1.76,0-2.05-.34-2.08-2.11a4.16,4.16,0,0,1,.05-1.54c.64-1.61-.06-2.72-1.3-3.55a3.48,3.48,0,0,1-1.53-3c0,2.11-1.63,2.91-2.76,4.07a1.46,1.46,0,0,0-.44,1.62c.68,2.47.3,5,.28,7.54,0,1-.72,1.29-1.62,1.21a2,2,0,0,1-1.49-1c-1.76-2.75-1.77-2.76-4.1-.34-.51.54-1.4.81-1.38,1.75,0,1.94-.64,3.91.15,5.8.34.8,1.21.91,2,1s1.71.07,1.69,1.15-1,1.28-1.9,1.31a12,12,0,0,0-1.7.08Z"/><path class="cls-1" d="M81,177.75c-6.13,5.74-17.32,6.13-23.89.83.24-.59.82-.75,1.31-1s1.29-.64,1.89-1.06c2.07-1.42,2.25-2.92.54-4.71a13.05,13.05,0,0,1-1.74-2c-1.13-1.77-1-3,.72-4.26a17.94,17.94,0,0,1,6.55-2.66,128.58,128.58,0,0,1,14.43-2.69,3.18,3.18,0,0,1,.62,0c.31,0,.69.08.78.39.14.46-.29.62-.61.74-2,.76-3.89,1.65-5.86,2.42a8.65,8.65,0,0,0-2.57,1.39c-1.15,1-1.15,1.65,0,2.6s2.69,1.9,4,2.84a12,12,0,0,1,3.48,3.69A3.24,3.24,0,0,1,81,177.75Z"/><path class="cls-2" d="M31.64,53.77a14.3,14.3,0,0,1-3-5.93A14.82,14.82,0,0,1,33,45c.65-.35,1.31,0,1.91.31A23.16,23.16,0,0,0,38.5,47c.8.25,1.11,1,1.46,1.71.92,1.83,1.13,1.87,3.13,1.61a12.17,12.17,0,0,1,4.17.07,8.53,8.53,0,0,0,2.31.09,2,2,0,0,0,1.76-1.23,13.64,13.64,0,0,0,1.22-8A2.62,2.62,0,0,1,53.36,39c.87-.88,1.67-1.83,2.54-2.71a2.49,2.49,0,0,1,3-.68,45.72,45.72,0,0,1,6.93,4.55A17.4,17.4,0,0,1,63.28,52c-4.08,1.07-7.91,2.94-12,4a10.21,10.21,0,0,1-5.78-.41,26.66,26.66,0,0,0-10.62-1.59A12.14,12.14,0,0,1,31.64,53.77Z"/><path class="cls-3" d="M50.86,160.18c-.32-.31-.84-.31-.66-1.11,1.52-7,8.72-13.25,15.72-14.13a19,19,0,0,1,21.25,14.67,6.3,6.3,0,0,1-6.76-1.12c-.89-.8-1.82-1.53-2.76-2.25a5.4,5.4,0,0,0-5.78-.94,2.81,2.81,0,0,1-3.49-.65,8.88,8.88,0,0,0-2.86-1.81c-2.26-1-4.1-.3-5.8,1.21a41,41,0,0,0-4.2,4.74,4,4,0,0,1-3.87,1.81A1,1,0,0,1,50.86,160.18Z"/><path class="cls-2" d="M56.44,178A16.71,16.71,0,0,1,50,167.1a11.09,11.09,0,0,1,0-5.94,8.47,8.47,0,0,1,4.5-.76c5.68,0,11.36,0,17,0,.69,0,1.85-.23,1.9.51s-1.11.74-1.83.87a49.16,49.16,0,0,0-9.1,2.39A8.1,8.1,0,0,0,59,166.39a2.27,2.27,0,0,0-.2,3,13,13,0,0,0,1.81,2.11c2.08,2.12,2,3.65-.54,5.22C59,177.37,58,178.43,56.44,178Z"/><path class="cls-3" d="M28.47,47.56A18.45,18.45,0,0,1,29,35c.19-.48.4-.94.61-1.41,2.21-1,4.63-.81,6.94-1.26,1.81-.35,3.66-.5,5.48-.85a4,4,0,0,1,3.81,1.75c.39.77.53,1.85-.19,2.28-1.27.77-2.32,2.12-4,2a1.17,1.17,0,0,0-1.32,1c-.39,1.34-.91,2.63-1.3,4a6,6,0,0,0-.12,3.19c.27,1.16-.3,1.58-1.38,1.1a11.63,11.63,0,0,1-2.18-1.15,2.74,2.74,0,0,0-3.64.14A16,16,0,0,1,28.47,47.56Z"/><path class="cls-3" d="M30.14,32.74c3.55-6.25,8.77-9.73,16.08-10a19.52,19.52,0,0,1,12.5,4.08A4.25,4.25,0,0,1,59.9,28c-.87,1.2-2.27.85-3.41,1-3.91.53-7.75,1.49-11.65,2.07C40.43,31.76,36,32.48,31.59,33,31.1,33.06,30.55,33.21,30.14,32.74Z"/><path class="cls-4" d="M222.09,54.34a15.21,15.21,0,0,1-8.4,5.86c-8.49,2.59-15.82.67-21.73-6.1a.12.12,0,0,1,.17,0c1.3-.67,2.75-.41,4.08-.43,8.09-.08,16.18-.06,24.27,0C221.09,53.67,221.74,53.65,222.09,54.34Z"/><path class="cls-5" d="M222.09,54.34a4,4,0,0,0-2-.21h-28c-.3-.78.25-.72.73-.73H195c.57,0,.64-.37.66-.83s-.24-.63-.75-.67c-3-.24-4.11-1.78-3.35-4.73.07-.25.22-.53.16-.75-.71-2.53,1.31-3.64,2.68-5s2.15-1.09,3.29.79c.18.3.18.7.34,1,.37.76,1.08.69,1.76.63s.51-.66.51-1.07c0-2,0-4,0-6,0-.16.06-.35,0-.46-.59-1-.91-1.89.3-2.72.86-.6,1.32-1.73,2.58-1.89-1.4-1.12.47-1.93.22-3,0-.1.39-.23.5,0,.35.67.22,1.5.84,2.11.24.24-.43.48-.55.83,1.49.45,2.22,1.74,3.11,2.85.31.38.36.75-.07,1.05s-.27.63-.29,1c-.18,3.13-.18,3.13,3,3.13,2.74,0,5.48.07,8.21,0a3.28,3.28,0,0,1,3.09,1.32,14.77,14.77,0,0,0,1.5,1.57c.64.64,1.56,1.22.39,2.2-.11.09,0,.39,0,.6,0,2.63,0,5.27,0,7.9C223,53.75,222.49,54,222.09,54.34Z"/><path class="cls-1" d="M95.68,179.14H98.6l50.37,0c.47,0,.94,0,1.4,0a1,1,0,0,1,1,1.13.94.94,0,0,1-1.09,1H94.5c-.79,0-1.64.07-2-.82s.19-1.46.8-2a1.46,1.46,0,0,0,.18-.29c-.28-.46-.72-.17-1.08-.19-.57,0-1.2.05-1.2-.8A1.13,1.13,0,0,1,92.34,176c1.29,0,2.58,0,3.87.1a1.21,1.21,0,0,1,1.21.8c.18.58-.28.8-.64,1.1A14.14,14.14,0,0,0,95.68,179.14Z"/><path class="cls-2" d="M87.2,160.45c1.47,5.05-1.19,13.06-5.53,16.61-.68-3.5-3-5.67-5.88-7.47a23.42,23.42,0,0,1-2.39-1.69c-1.47-1.19-1.43-2.33.27-3.21a89.64,89.64,0,0,1,10.54-4.37A3.29,3.29,0,0,1,87.2,160.45Z"/><path class="cls-4" d="M62.7,52.78a17.87,17.87,0,0,1-14.5,8.43,18.68,18.68,0,0,1-16-6.61,1.9,1.9,0,0,1-.23-.39c.23-.47.67-.39,1.07-.41a30.33,30.33,0,0,1,11.85,1.48,13,13,0,0,0,9.47-.35,55,55,0,0,1,6.23-2.24C61.32,52.52,62,52.22,62.7,52.78Z"/><path class="cls-6" d="M30.14,32.74c4.12-.55,8.25-1,12.35-1.66C47.9,30.19,53.25,29,58.7,28.32A10.46,10.46,0,0,0,59.9,28l.69.64c-.17.85-.91.69-1.47.78-3.21.5-6.42,1-9.61,1.6-1,.19-2.62,2.36-2.42,3.33.27,1.34,1.54,1.65,2.56,1.9s2,.41,2.57,1.43c.37.66.82.44,1.25,0,.62-.62,1.09-1.37,1.71-2a3.26,3.26,0,0,1,3.66-1,29.38,29.38,0,0,1,6.92,4.5l.06.89a29.82,29.82,0,0,1-5.54-3.35c-2.05-1.58-3.16-1.38-4.89.53-.73.8-1.46,1.6-2.23,2.35a.87.87,0,0,0-.32.94,13.51,13.51,0,0,1-1.2,9.15c-.35.72-.71,1.09-1.45,1.12-2.89.11-5.78-.2-8.68,0-1.25.09-1.57-1.09-1.92-1.95a2.71,2.71,0,0,0-1.91-1.73A11.67,11.67,0,0,1,35,45.76a2.28,2.28,0,0,0-2.85.09,17.9,17.9,0,0,1-3.48,2l-.15-.28a17,17,0,0,1,4.83-3c.6-.26,1.18.19,1.73.47a16.22,16.22,0,0,0,3.69,1.73c-1.2-3.26.49-5.93,1.29-8.77.19-.69.44-1,1.12-.92,1,0,2,.21,2.56-1,.13-.27.7-.4,1.1-.46.56-.1,1.05-.21.84-.91s.15-1.07-.59-1.76c-2.39-2.22-4.75-.47-7.06-.32-2.8.18-5.56.86-8.38,1Z"/><path class="cls-3" d="M65.76,39.23a25.36,25.36,0,0,1-5.12-3.13c-2.42-1.79-3.91-1.57-5.84.7-.24.27-.45.56-.68.84-1.36,1.67-1.37,1.68-2.43-.1-.2-.32-.42-.72-.77-.66a4.72,4.72,0,0,1-3.16-1c-.63-.37-1.34-.37-1.2-1.36.09-.66-.3-1.48.72-1.79.19,0,.46-.42.42-.59-.34-1.54.9-1.39,1.7-1.53C52.79,30,56.19,29.5,59.59,29c.35-.05.73,0,1-.29A17.7,17.7,0,0,1,65.76,39.23Z"/><path class="cls-7" d="M87.2,160.45a11.61,11.61,0,0,0-5.64,1.27c-2.4,1.05-4.87,1.95-7.23,3.06s-2.3,1.75-.21,3.25,4.08,2.6,5.71,4.45a5.93,5.93,0,0,1,1.84,4.58l-.69.69c.42-3-1.46-4.81-3.48-6.47-1.31-1.07-2.79-1.95-4.15-3-2.19-1.63-2.11-2.74.33-4.06,2.67-1.44,5.55-2.38,8.32-3.64a42.73,42.73,0,0,0-6.06.77,82,82,0,0,0-12.6,2.85,10.71,10.71,0,0,0-3.64,2c-1.09,1-1.37,2-.39,3.23.69.83,1.45,1.6,2.15,2.43,1.47,1.77,1.3,3.4-.54,4.76a14,14,0,0,1-3.83,2l-.65-.63a10.73,10.73,0,0,0,4.12-2c1.39-1.08,1.52-2,.44-3.43-.59-.78-1.33-1.44-2-2.19-1.49-1.72-1.43-3.18.27-4.69,2.21-2,5-2.54,7.75-3.23,2.07-.53,4.17-.92,6.25-1.48-7.77.1-15.54-.38-23.3.25-.15-.71.15-1,.86-1a4.19,4.19,0,0,0,4.54-1.86,47.9,47.9,0,0,1,3.2-3.77c3.3-3.42,6.49-3.53,9.93-.25a2.34,2.34,0,0,0,3,.63,6.12,6.12,0,0,1,6.74,1.21.58.58,0,0,1,.12.1c2.35,2.62,5.18,4,8.77,3.37Z"/><path class="cls-8" d="M62.7,52.78c-2.23-.07-4.16,1-6.16,1.73-2.54,1-5,2-7.86,1.82a11.17,11.17,0,0,1-3.48-.56C41,54.07,36.5,54,32,54.21l-.38-.44c4-.44,8-.77,11.72.69A15.62,15.62,0,0,0,55.91,54c2.34-1,4.71-2.11,7.37-2Z"/><path class="cls-3" d="M214.68,44.26c2.11,0,4.23,0,6.35,0,.86,0,1.18.23,1.15,1.13-.06,2.28-.05,4.55,0,6.82,0,.91-.18,1.29-1.19,1.25-2.06-.08-4.13-.06-6.19,0-.8,0-1.12-.2-1.08-1,.06-1.13.06-2.27,0-3.4a2.24,2.24,0,0,0-2.37-2.32A2.18,2.18,0,0,0,209,49a32.36,32.36,0,0,0,0,3.41c0,.87-.38,1-1.12,1s-1-.21-1-1c0-2.37.06-4.75,0-7.13,0-1,.43-1.09,1.22-1.07C210.34,44.28,212.51,44.26,214.68,44.26Z"/><path class="cls-3" d="M201.16,47.91c0-1.39,0-2.79,0-4.17,0-.73.27-1,1-1,4-.29,4-.31,4,3.66,0,2,0,3.91,0,5.86,0,.85-.23,1.15-1.13,1.18-3.87.13-3.87.16-3.87-3.67Z"/><path class="cls-1" d="M222.17,43.55c-4.7,0-9.4,0-14.1,0-1.27,0-1.15-.7-1.11-1.48s-.38-1.7,1.07-1.68c3.57.07,7.13,0,10.7,0C220.67,40.46,221.09,42.35,222.17,43.55Z"/><path class="cls-4" d="M194.34,51c-1.48,0-2.32-1.61-1.89-3.6.06-.3.26-.62.2-.89-.54-2.28,1.32-3.26,2.47-4.62.47-.57.92-.47,1.41,0,.71.75.56,2,1.49,2.62.23.16-.15.43-.35.55-1.72,1-2.16,2.54-2,4.46C195.81,50.88,195.55,51,194.34,51Z"/><path class="cls-3" d="M206.19,38.76c0,3.19,0,3.12-3.26,3.21-1.39,0-2-.31-1.78-1.77a5.65,5.65,0,0,0,0-.92c0-3.92,0-3.89,3.89-3.8.84,0,1.23.23,1.16,1.12C206.15,37.31,206.19,38,206.19,38.76Z"/><path class="cls-9" d="M200.34,50.51v.31c0,2.69-.52,3.09-3.26,2.6-.55-.1-.66-.34-.66-.81,0-1.39,0-2.79,0-4.18,0-.69.27-.84.91-.88C200.34,47.35,200.33,47.33,200.34,50.51Z"/><path class="cls-10" d="M212.84,50.89c0,.3,0,.62,0,.92.09,1,0,1.73-1.43,1.69s-1.79-.41-1.66-1.7c.08-.76,0-1.55,0-2.31.09-1,.4-1.88,1.61-1.89s1.49.85,1.45,1.9C212.82,50,212.84,50.42,212.84,50.89Z"/><path class="cls-1" d="M206.52,34.6a4.5,4.5,0,0,1-.81.21h-5c.87-1,1.37-2,2.73-2.19C205,32.46,205.49,33.68,206.52,34.6Z"/><path class="cls-1" d="M197.11,46.7c.82-.72,1.34-1.18,1.87-1.63a.88.88,0,0,1,1.12-.21c.46.32.26.85.24,1.29,0,.61-.51.54-.91.55Z"/><path class="cls-1" d="M43.79,43.37c0-2.95,0-2.84,3-3,1.62-.08,2.19.31,2.26,2,.16,4,.26,3.9-3.63,4-1.29,0-1.79-.32-1.59-1.61A9.2,9.2,0,0,0,43.79,43.37Z"/><path class="cls-11" d="M46,47.2c1.44,0,2.89,0,4.34,0,1,0,1.39.07.93,1.28a2.12,2.12,0,0,1-2.47,1.65c-2.22-.13-4.44,0-6.66,0a2.62,2.62,0,0,1-2.07-2.39c.1-.67.62-.43,1-.44,1.65,0,3.3,0,5,0Z"/><path class="cls-12" d="M43.1,43.39v.46c0,2.57-.48,2.94-3,2.5-.77-.14-.83-.71-.92-1.23a7.48,7.48,0,0,1,.66-4.07c.5-1.25,1.72-.51,2.62-.6s.64.73.67,1.23S43.1,42.82,43.1,43.39Z"/><path class="cls-13" d="M40.5,39.46c0-1.26.5-1.73,1.76-1.62a56.13,56.13,0,0,0,7.56-.15c.7,0,1.16.09,1.42.82s.24,1-.56,1Z"/><path class="cls-12" d="M52.11,43.6c0,.57,0,1.13,0,1.7-.05,1-.72,1-1.52,1.05s-.95-.48-.94-1.16c0-1.29,0-2.57,0-3.86,0-.5-.13-1.1.68-1.12s1.32-.14,1.58.79A8.45,8.45,0,0,1,52.11,43.6Z"/><path class="cls-12" d="M47.77,36.85a7.88,7.88,0,0,1-3.58-.06A3.87,3.87,0,0,1,47.77,36.85Z"/><path class="cls-3" d="M45.88,32.33c-.59,0-1.21-.11-1.08-.62s.93-.35,1.42-.51.72-.08.68.47C46.85,32.43,46.24,32.26,45.88,32.33Z"/><path class="cls-4" d="M73.4,160.16H54.89c2-2.45,3.73-4.93,6.17-6.66,2-1.38,4.77-.72,7,1.43C69.78,156.56,71.44,158.23,73.4,160.16Z"/><path class="cls-4" d="M81.44,159.91c-1.87,0-3.26-.08-4.65,0-2.58.16-4.24-1.22-5.67-3.12-.53-.69-.19-.78.4-1a5.38,5.38,0,0,1,5.69.59C78.54,157.4,79.79,158.53,81.44,159.91Z"/><path class="cls-14" d="M219.64,49.24c.42,1.55-.52,1.5-1.62,1.53s-1.87-.14-1.83-1.64.45-1.75,1.79-1.79C219.5,47.29,219.94,47.88,219.64,49.24Z"/><path class="cls-15" d="M202.87,48.24c.1-.34-.2-1,.41-1s.49.63.49,1,.18,1.09-.47,1.06S203,48.65,202.87,48.24Z"/><path class="cls-16" d="M204.7,38.5c0,1,.2,1.76-1.07,1.73s-1-.92-1-1.61-.32-1.59,1-1.6S204.6,38,204.7,38.5Z"/><path class="cls-17" d="M199.19,50.38c0,.55-.25.79-.67.76a.55.55,0,0,1-.57-.58c0-.42.16-.73.58-.76A.64.64,0,0,1,199.19,50.38Z"/><path class="cls-4" d="M219,49.05c.05.6-.1,1-.81,1s-1.07-.14-1.06-.92.25-.93.91-.92S219.07,48.35,219,49.05Z"/><path class="cls-10" d="M72.68,39.8H71.06v-.93h1.62a1.39,1.39,0,0,0,.65-.14.78.78,0,0,0,.36-.36,1.12,1.12,0,0,0,.12-.53,1.25,1.25,0,0,0-.12-.54,1,1,0,0,0-.36-.41,1.28,1.28,0,0,0-.65-.15H71.45V42.1H70.26V35.8h2.42a2.86,2.86,0,0,1,1.26.26,2,2,0,0,1,.79.72,2.06,2.06,0,0,1,.28,1,2,2,0,0,1-.28,1.05,1.76,1.76,0,0,1-.79.68A3,3,0,0,1,72.68,39.8Z"/><path class="cls-10" d="M78.44,36.76,76.65,42.1H75.39l2.35-6.3h.81Zm1.42,3v.93H76.48v-.93Zm.08,2.34-1.8-5.34-.11-1h.81l2.37,6.3Z"/><path class="cls-10" d="M81.85,35.8h2.29a3,3,0,0,1,1.23.22,1.63,1.63,0,0,1,.79.64,2.08,2.08,0,0,1,.1,1.89,1.56,1.56,0,0,1-.48.6,2.46,2.46,0,0,1-.74.38l-.37.19h-2v-.94h1.51a1.25,1.25,0,0,0,.61-.13.89.89,0,0,0,.36-.36,1,1,0,0,0,.13-.52,1.18,1.18,0,0,0-.12-.55.92.92,0,0,0-.37-.36,1.4,1.4,0,0,0-.62-.12H83V42.1H81.85Zm3.55,6.3L84,39.28H85.2L86.68,42v.06Z"/><path class="cls-10" d="M92.56,38.79v.32a3.87,3.87,0,0,1-.19,1.28,2.84,2.84,0,0,1-.54,1A2.39,2.39,0,0,1,91,42a2.83,2.83,0,0,1-2.14,0,2.22,2.22,0,0,1-.84-.61,2.7,2.7,0,0,1-.55-1,3.86,3.86,0,0,1-.2-1.28v-.32a4,4,0,0,1,.2-1.29,2.73,2.73,0,0,1,.54-1,2.3,2.3,0,0,1,.84-.61,2.71,2.71,0,0,1,2.14,0,2.22,2.22,0,0,1,.84.61,2.74,2.74,0,0,1,.55,1A4,4,0,0,1,92.56,38.79Zm-1.2.32v-.33a3.57,3.57,0,0,0-.1-.91,2,2,0,0,0-.28-.66,1.35,1.35,0,0,0-1.68-.4,1.23,1.23,0,0,0-.45.4,2,2,0,0,0-.29.66,4.08,4.08,0,0,0-.1.91v.33a4.15,4.15,0,0,0,.1.91,2,2,0,0,0,.29.66,1.2,1.2,0,0,0,.46.41,1.4,1.4,0,0,0,1.22,0,1.17,1.17,0,0,0,.45-.41,1.8,1.8,0,0,0,.28-.66A3.62,3.62,0,0,0,91.36,39.11Zm-.51,2.1,1.68,1.33-.76.66-1.65-1.32Z"/><path class="cls-10" d="M97.08,35.8h1.19V40A2.18,2.18,0,0,1,98,41.19a1.91,1.91,0,0,1-.85.74,2.77,2.77,0,0,1-1.22.25,2.85,2.85,0,0,1-1.23-.25,1.91,1.91,0,0,1-.85-.74,2.26,2.26,0,0,1-.3-1.21V35.8H94.7V40a1.49,1.49,0,0,0,.14.72.88.88,0,0,0,.42.41,1.51,1.51,0,0,0,1.27,0,.86.86,0,0,0,.41-.41,1.62,1.62,0,0,0,.14-.72Z"/><path class="cls-10" d="M100.58,35.8v6.3H99.4V35.8Zm3,0v.94h-3.34V35.8Zm-.43,2.6v.91h-2.91V38.4Zm.44,2.76v.94h-3.35v-.94Z"/><path class="cls-10" d="M111.65,35.8v6.3h-1.19l-2.68-4.37V42.1h-1.19V35.8h1.19l2.68,4.37V35.8Z"/><path class="cls-10" d="M115.36,36.76l-1.8,5.34h-1.25l2.35-6.3h.8Zm1.42,3v.93H113.4v-.93Zm.08,2.34-1.8-5.34-.11-1h.81l2.36,6.3Z"/><path class="cls-10" d="M122.45,40h1.19a2.39,2.39,0,0,1-.35,1.12,2.09,2.09,0,0,1-.84.77,2.94,2.94,0,0,1-1.31.27,2.59,2.59,0,0,1-1.07-.21,2.2,2.2,0,0,1-.81-.6,2.74,2.74,0,0,1-.51-.94,4,4,0,0,1-.18-1.24v-.48a4,4,0,0,1,.18-1.24,2.9,2.9,0,0,1,.52-.95,2.32,2.32,0,0,1,.82-.6,2.65,2.65,0,0,1,1.07-.21,2.72,2.72,0,0,1,1.3.28,2.08,2.08,0,0,1,.83.78,2.78,2.78,0,0,1,.35,1.13h-1.19a1.83,1.83,0,0,0-.17-.67.86.86,0,0,0-.4-.42,1.48,1.48,0,0,0-.72-.15,1.33,1.33,0,0,0-.61.13,1.15,1.15,0,0,0-.43.39,1.79,1.79,0,0,0-.26.64,3.84,3.84,0,0,0-.09.88v.49a4.42,4.42,0,0,0,.08.86,1.86,1.86,0,0,0,.24.64,1.13,1.13,0,0,0,.43.41,1.32,1.32,0,0,0,.62.14,1.63,1.63,0,0,0,.71-.14,1,1,0,0,0,.42-.41A2,2,0,0,0,122.45,40Z"/><path class="cls-10" d="M125.82,35.8v6.3h-1.19V35.8Z"/><path class="cls-10" d="M132.2,38.79v.32a3.87,3.87,0,0,1-.19,1.28,2.84,2.84,0,0,1-.54,1,2.22,2.22,0,0,1-.84.61,2.83,2.83,0,0,1-2.14,0,2.22,2.22,0,0,1-.84-.61,2.7,2.7,0,0,1-.55-1,3.86,3.86,0,0,1-.2-1.28v-.32a4,4,0,0,1,.2-1.29,2.89,2.89,0,0,1,.54-1,2.3,2.3,0,0,1,.84-.61,2.5,2.5,0,0,1,1.07-.22,2.58,2.58,0,0,1,1.08.22,2.27,2.27,0,0,1,.83.61,2.74,2.74,0,0,1,.55,1A4,4,0,0,1,132.2,38.79Zm-1.2.32v-.33a3.57,3.57,0,0,0-.1-.91,1.8,1.8,0,0,0-.28-.66,1.26,1.26,0,0,0-.46-.4,1.34,1.34,0,0,0-.61-.14,1.31,1.31,0,0,0-.61.14,1.23,1.23,0,0,0-.45.4,2,2,0,0,0-.29.66,4.08,4.08,0,0,0-.1.91v.33a4.15,4.15,0,0,0,.1.91,2,2,0,0,0,.29.66,1.17,1.17,0,0,0,.45.41,1.38,1.38,0,0,0,.62.14,1.34,1.34,0,0,0,.61-.14,1.17,1.17,0,0,0,.45-.41,1.8,1.8,0,0,0,.28-.66A3.62,3.62,0,0,0,131,39.11Z"/><path class="cls-10" d="M138.27,35.8v6.3h-1.2l-2.67-4.37V42.1h-1.19V35.8h1.19l2.68,4.37V35.8Z"/><path class="cls-10" d="M142,36.76l-1.8,5.34h-1.26l2.35-6.3h.81Zm1.41,3v.93H140v-.93Zm.09,2.34-1.81-5.34-.11-1h.81l2.37,6.3Z"/><path class="cls-10" d="M146.57,35.8v6.3h-1.19V35.8Zm2.81,5.36v.94h-3.17v-.94Z"/><path class="cls-10" d="M71.45,43.29v6.3H70.26v-6.3Zm.69,6.3H70.78v-.93h1.35a1.68,1.68,0,0,0,.92-.25,1.51,1.51,0,0,0,.56-.7,2.87,2.87,0,0,0,.19-1.11v-.32a2.94,2.94,0,0,0-.11-.88,1.74,1.74,0,0,0-.31-.64,1.43,1.43,0,0,0-.52-.39,1.76,1.76,0,0,0-.71-.14H70.75v-.94h1.41a2.89,2.89,0,0,1,1.16.22,2.63,2.63,0,0,1,.9.6,2.72,2.72,0,0,1,.59,1,3.38,3.38,0,0,1,.2,1.23v.31a3.45,3.45,0,0,1-.2,1.23,2.68,2.68,0,0,1-.59.94,2.6,2.6,0,0,1-.91.61A3.13,3.13,0,0,1,72.14,49.59Z"/><path class="cls-10" d="M77.21,43.29v6.3H76v-6.3Zm3,0v.94H76.85v-.94Zm-.43,2.6v.91H76.85v-.91Zm.44,2.77v.93H76.85v-.93Z"/><path class="cls-10" d="M82.21,43.29v6.3H81v-6.3ZM85,48.66v.93H81.85v-.93Z"/><path class="cls-10" d="M91.69,47.52h1.19a2.46,2.46,0,0,1-.35,1.12,2.14,2.14,0,0,1-.84.76,2.91,2.91,0,0,1-1.31.28,2.62,2.62,0,0,1-1.07-.21,2.12,2.12,0,0,1-.81-.61,2.74,2.74,0,0,1-.51-.94,4,4,0,0,1-.18-1.24V46.2A4,4,0,0,1,88,45a2.76,2.76,0,0,1,.52-.94,2.48,2.48,0,0,1,.82-.61,2.65,2.65,0,0,1,1.07-.21,2.72,2.72,0,0,1,1.3.29,2,2,0,0,1,.83.77,2.63,2.63,0,0,1,.35,1.13H91.69a1.88,1.88,0,0,0-.17-.67,1,1,0,0,0-.4-.42,1.65,1.65,0,0,0-1.33,0,1.23,1.23,0,0,0-.43.39,1.87,1.87,0,0,0-.26.64,3.91,3.91,0,0,0-.09.88v.49a4.42,4.42,0,0,0,.08.86,1.91,1.91,0,0,0,.24.65,1.1,1.1,0,0,0,.43.4,1.32,1.32,0,0,0,.62.14,1.63,1.63,0,0,0,.71-.14,1,1,0,0,0,.42-.41A2,2,0,0,0,91.69,47.52Z"/><path class="cls-10" d="M95,43.29v6.3H93.8v-6.3Zm3,2.6v.94H94.66v-.94Zm.88-2.6v6.3H97.67v-6.3Z"/><path class="cls-10" d="M101.33,43.29v6.3h-1.19v-6.3Z"/><path class="cls-10" d="M106.3,47.52h1.19a2.47,2.47,0,0,1-.36,1.12,2.14,2.14,0,0,1-.84.76,2.91,2.91,0,0,1-1.31.28,2.57,2.57,0,0,1-1.06-.21,2.12,2.12,0,0,1-.81-.61,2.44,2.44,0,0,1-.51-.94,4,4,0,0,1-.18-1.24V46.2A4,4,0,0,1,102.6,45a2.6,2.6,0,0,1,.52-.94,2.48,2.48,0,0,1,.82-.61A2.62,2.62,0,0,1,105,43.2a2.74,2.74,0,0,1,1.3.29,2,2,0,0,1,.82.77,2.64,2.64,0,0,1,.36,1.13H106.3a1.88,1.88,0,0,0-.17-.67,1,1,0,0,0-.41-.42,1.47,1.47,0,0,0-.71-.15,1.44,1.44,0,0,0-.61.13,1.15,1.15,0,0,0-.43.39,1.69,1.69,0,0,0-.26.64,3.91,3.91,0,0,0-.09.88v.49a4.42,4.42,0,0,0,.08.86,1.91,1.91,0,0,0,.24.65,1.15,1.15,0,0,0,.42.4,1.35,1.35,0,0,0,.62.14,1.6,1.6,0,0,0,.71-.14.88.88,0,0,0,.42-.41A1.77,1.77,0,0,0,106.3,47.52Z"/><path class="cls-10" d="M110.91,44.25l-1.8,5.34h-1.26l2.35-6.3H111Zm1.41,3v.94H109v-.94Zm.09,2.34-1.81-5.34-.11-1h.81l2.37,6.3Z"/><path class="cls-10" d="M114.31,43.29h1l.18,4.36v1.94h-1.19Zm.52,0h1L117.58,48l1.72-4.74h1L118,49.59h-.82Zm5,0h1v6.3h-1.19V47.65Z"/><path class="cls-10" d="M127.16,46.28v.33a4.25,4.25,0,0,1-.19,1.28,2.79,2.79,0,0,1-.54,1,2.3,2.3,0,0,1-.84.61,2.71,2.71,0,0,1-2.14,0,2.22,2.22,0,0,1-.84-.61,2.66,2.66,0,0,1-.55-1,4,4,0,0,1-.2-1.28v-.33a3.86,3.86,0,0,1,.2-1.28,2.94,2.94,0,0,1,.54-1,2.22,2.22,0,0,1,.84-.61,2.83,2.83,0,0,1,2.14,0,2.22,2.22,0,0,1,.84.61,2.79,2.79,0,0,1,.55,1A4.15,4.15,0,0,1,127.16,46.28Zm-1.2.33v-.34a4,4,0,0,0-.1-.9,2,2,0,0,0-.28-.66,1.2,1.2,0,0,0-.46-.41,1.33,1.33,0,0,0-.61-.13,1.31,1.31,0,0,0-.61.13,1.28,1.28,0,0,0-.46.41,2.22,2.22,0,0,0-.28.66,4,4,0,0,0-.1.9v.34a4,4,0,0,0,.1.9,2,2,0,0,0,.29.66,1.17,1.17,0,0,0,.45.41,1.38,1.38,0,0,0,.62.14,1.34,1.34,0,0,0,.61-.14,1.17,1.17,0,0,0,.45-.41,2,2,0,0,0,.28-.66A4,4,0,0,0,126,46.61Z"/><path class="cls-10" d="M131.85,47.52H133a2.46,2.46,0,0,1-.35,1.12,2.14,2.14,0,0,1-.84.76,3,3,0,0,1-1.32.28,2.57,2.57,0,0,1-1.06-.21,2.12,2.12,0,0,1-.81-.61,2.74,2.74,0,0,1-.51-.94,4,4,0,0,1-.18-1.24V46.2a4,4,0,0,1,.18-1.24,2.76,2.76,0,0,1,.52-.94,2.48,2.48,0,0,1,.82-.61,2.65,2.65,0,0,1,1.07-.21,2.72,2.72,0,0,1,1.3.29,2,2,0,0,1,.83.77,2.78,2.78,0,0,1,.35,1.13h-1.19a1.88,1.88,0,0,0-.17-.67,1,1,0,0,0-.4-.42,1.65,1.65,0,0,0-1.33,0,1.15,1.15,0,0,0-.43.39,1.87,1.87,0,0,0-.26.64,3.91,3.91,0,0,0-.09.88v.49a4.42,4.42,0,0,0,.08.86,1.91,1.91,0,0,0,.24.65,1.1,1.1,0,0,0,.43.4,1.31,1.31,0,0,0,.61.14,1.65,1.65,0,0,0,.72-.14,1,1,0,0,0,.42-.41A2,2,0,0,0,131.85,47.52Z"/><path class="cls-10" d="M135.14,43.29v6.3H134v-6.3Zm3,2.6v.94h-3.31v-.94Zm.88-2.6v6.3h-1.19v-6.3Z"/><path class="cls-10" d="M142.73,44.25l-1.8,5.34h-1.25l2.35-6.3h.8Zm1.42,3v.94h-3.38v-.94Zm.08,2.34-1.8-5.34-.11-1h.81l2.36,6.3Z"/><path class="cls-10" d="M200.09,70.65h1.19a2.39,2.39,0,0,1-.35,1.12,2.09,2.09,0,0,1-.84.77,2.91,2.91,0,0,1-1.31.27,2.62,2.62,0,0,1-1.07-.21,2.38,2.38,0,0,1-.81-.6,2.74,2.74,0,0,1-.51-.94,4,4,0,0,1-.18-1.24v-.48a4,4,0,0,1,.18-1.24,2.82,2.82,0,0,1,.53-.95,2.2,2.2,0,0,1,.81-.6,2.65,2.65,0,0,1,1.07-.21,2.69,2.69,0,0,1,1.3.28,2.08,2.08,0,0,1,.83.78,2.63,2.63,0,0,1,.35,1.13H200.1a1.82,1.82,0,0,0-.18-.67.86.86,0,0,0-.4-.42,1.48,1.48,0,0,0-.72-.15,1.26,1.26,0,0,0-.6.13,1.17,1.17,0,0,0-.44.39,2,2,0,0,0-.26.64,3.84,3.84,0,0,0-.09.88v.49a4.42,4.42,0,0,0,.08.86,2.08,2.08,0,0,0,.24.64,1.2,1.2,0,0,0,.43.41,1.32,1.32,0,0,0,.62.14,1.63,1.63,0,0,0,.71-.14,1,1,0,0,0,.42-.41A1.77,1.77,0,0,0,200.09,70.65Z"/><path class="cls-10" d="M205.7,66.43h1.19v4.18a2.26,2.26,0,0,1-.31,1.21,1.91,1.91,0,0,1-.85.74,2.8,2.8,0,0,1-1.22.25,2.85,2.85,0,0,1-1.23-.25,1.86,1.86,0,0,1-.85-.74,2.26,2.26,0,0,1-.31-1.21V66.43h1.19v4.18a1.48,1.48,0,0,0,.15.72.9.9,0,0,0,.41.41,1.53,1.53,0,0,0,1.28,0,.86.86,0,0,0,.41-.41,1.62,1.62,0,0,0,.14-.72Z"/><path class="cls-10" d="M208,66.43h2.29a3,3,0,0,1,1.23.22,1.63,1.63,0,0,1,.79.64,1.82,1.82,0,0,1,.28,1,2,2,0,0,1-.17.85,1.78,1.78,0,0,1-.49.6,2.35,2.35,0,0,1-.74.38l-.37.19h-2v-.94h1.51a1.23,1.23,0,0,0,.61-.13.92.92,0,0,0,.37-.36,1.11,1.11,0,0,0,.12-.52,1.18,1.18,0,0,0-.12-.55.86.86,0,0,0-.37-.36,1.4,1.4,0,0,0-.62-.12h-1.1v5.36H208Zm3.56,6.3-1.46-2.82h1.26l1.47,2.76v.07Z"/><path class="cls-10" d="M214.9,66.43v6.3h-1.19v-6.3Z"/><path class="cls-10" d="M220.84,66.43v.94h-5.07v-.94Zm-2,0v6.3H217.7v-6.3Z"/><path class="cls-10" d="M222.89,66.43v6.3h-1.18v-6.3Z"/><path class="cls-10" d="M141.85,161.75H144a3,3,0,0,1,1.14.2,1.62,1.62,0,0,1,.73.6,2,2,0,0,1,.1,1.75,1.64,1.64,0,0,1-.45.56,2.14,2.14,0,0,1-.69.35l-.34.18H142.6v-.87H144a1.19,1.19,0,0,0,.56-.12.78.78,0,0,0,.34-.33,1.1,1.1,0,0,0,0-1,.73.73,0,0,0-.34-.33,1.2,1.2,0,0,0-.57-.12h-1v5h-1.11Zm3.3,5.85L143.8,165H145l1.37,2.56v.06Z"/><path class="cls-10" d="M148.25,161.75v5.85h-1.1v-5.85Zm-1.07-.37.78-1.22h1.18l-1.1,1.22Z"/><path class="cls-10" d="M154.17,164.53v.3A3.67,3.67,0,0,1,154,166a2.49,2.49,0,0,1-.5.89,2.15,2.15,0,0,1-.77.57,2.6,2.6,0,0,1-2,0,2.19,2.19,0,0,1-.78-.57,2.5,2.5,0,0,1-.51-.89,3.67,3.67,0,0,1-.18-1.19v-.3a3.74,3.74,0,0,1,.18-1.2,2.59,2.59,0,0,1,.51-.89,2.1,2.1,0,0,1,.78-.57,2.58,2.58,0,0,1,2,0,2.07,2.07,0,0,1,.77.57,2.59,2.59,0,0,1,.51.89A3.74,3.74,0,0,1,154.17,164.53Zm-1.12.3v-.31a4.13,4.13,0,0,0-.08-.84,1.71,1.71,0,0,0-.27-.61,1,1,0,0,0-.42-.38,1.33,1.33,0,0,0-.57-.13,1.29,1.29,0,0,0-.57.13,1.16,1.16,0,0,0-.42.38,1.9,1.9,0,0,0-.26.61,3.49,3.49,0,0,0-.09.84v.31a3.61,3.61,0,0,0,.09.84,1.9,1.9,0,0,0,.26.61,1.11,1.11,0,0,0,.43.38,1.14,1.14,0,0,0,.57.13,1.2,1.2,0,0,0,.57-.13,1.16,1.16,0,0,0,.42-.38,1.9,1.9,0,0,0,.26-.61A4.28,4.28,0,0,0,153.05,164.83Z"/><path class="cls-10" d="M158.25,161.75v5.85h-1.1v-5.85Zm2.67,0v.87h-3v-.87Zm-.31,2.53v.87H158v-.87Z"/><path class="cls-10" d="M166.4,164.53v.3a3.67,3.67,0,0,1-.18,1.19,2.49,2.49,0,0,1-.5.89,2.19,2.19,0,0,1-.78.57,2.43,2.43,0,0,1-1,.2,2.48,2.48,0,0,1-1-.2,2.19,2.19,0,0,1-.78-.57,2.5,2.5,0,0,1-.51-.89,3.67,3.67,0,0,1-.18-1.19v-.3a3.74,3.74,0,0,1,.18-1.2,2.59,2.59,0,0,1,.51-.89,2.07,2.07,0,0,1,.77-.57,2.55,2.55,0,0,1,1-.2,2.51,2.51,0,0,1,1,.2,2.07,2.07,0,0,1,.77.57,2.59,2.59,0,0,1,.51.89A3.74,3.74,0,0,1,166.4,164.53Zm-1.12.3v-.31a3.49,3.49,0,0,0-.09-.84,1.7,1.7,0,0,0-.26-.61,1,1,0,0,0-.42-.38,1.33,1.33,0,0,0-.57-.13,1.26,1.26,0,0,0-.57.13,1.16,1.16,0,0,0-.42.38,1.9,1.9,0,0,0-.26.61,3.49,3.49,0,0,0-.09.84v.31a3.61,3.61,0,0,0,.09.84,1.9,1.9,0,0,0,.26.61,1.11,1.11,0,0,0,.43.38,1.14,1.14,0,0,0,.57.13,1.2,1.2,0,0,0,.57-.13,1.06,1.06,0,0,0,.41-.38,1.7,1.7,0,0,0,.26-.61A3.61,3.61,0,0,0,165.28,164.83Z"/><path class="cls-10" d="M172,161.75v5.85h-1.11l-2.48-4.06v4.06h-1.11v-5.85h1.11l2.49,4.06v-4.06Z"/><path class="cls-10" d="M176.57,165.67h1.1a2.31,2.31,0,0,1-.32,1,2,2,0,0,1-.79.71,2.64,2.64,0,0,1-1.21.26,2.4,2.4,0,0,1-1-.2,1.9,1.9,0,0,1-.75-.56,2.45,2.45,0,0,1-.48-.87,3.72,3.72,0,0,1-.16-1.15v-.45a3.47,3.47,0,0,1,.17-1.15,2.45,2.45,0,0,1,.48-.87,2,2,0,0,1,.76-.56,2.25,2.25,0,0,1,1-.2,2.61,2.61,0,0,1,1.21.26,2.06,2.06,0,0,1,.77.72,2.44,2.44,0,0,1,.32,1h-1.1a1.61,1.61,0,0,0-.16-.62.87.87,0,0,0-.37-.39,1.42,1.42,0,0,0-.67-.14,1.25,1.25,0,0,0-.56.12,1.08,1.08,0,0,0-.41.36,2.09,2.09,0,0,0-.24.6,3.93,3.93,0,0,0-.08.82v.45a3.87,3.87,0,0,0,.08.8,1.78,1.78,0,0,0,.22.6,1.06,1.06,0,0,0,.39.37,1.27,1.27,0,0,0,.58.13,1.55,1.55,0,0,0,.66-.13.89.89,0,0,0,.39-.38A1.69,1.69,0,0,0,176.57,165.67Z"/><path class="cls-10" d="M179.63,161.75v5.85h-1.11v-5.85Zm2.75,0v.87h-3.09v-.87Zm-.39,2.41V165h-2.7v-.85Zm.4,2.57v.87h-3.1v-.87Z"/><path class="cls-10" d="M109.1,103.76a1.42,1.42,0,0,0-.08-.48.91.91,0,0,0-.29-.39,2.33,2.33,0,0,0-.58-.35,8.94,8.94,0,0,0-1-.35,10.55,10.55,0,0,1-1.21-.46,4.34,4.34,0,0,1-1-.6,2.46,2.46,0,0,1-.66-.78,2.12,2.12,0,0,1-.24-1,2.25,2.25,0,0,1,.25-1,2.38,2.38,0,0,1,.7-.82,3.44,3.44,0,0,1,1.07-.52,4.47,4.47,0,0,1,1.36-.19,4,4,0,0,1,1.79.38,2.92,2.92,0,0,1,1.17,1,2.58,2.58,0,0,1,.41,1.45H109.1a1.6,1.6,0,0,0-.19-.77,1.29,1.29,0,0,0-.54-.52,2,2,0,0,0-.93-.19,2.15,2.15,0,0,0-.89.16,1.2,1.2,0,0,0-.53.43,1.17,1.17,0,0,0-.17.61.88.88,0,0,0,.12.46,1.41,1.41,0,0,0,.36.38,3.43,3.43,0,0,0,.61.32c.24.1.52.2.83.3a8.32,8.32,0,0,1,1.35.51,3.82,3.82,0,0,1,1,.64,2.25,2.25,0,0,1,.58.8,2.53,2.53,0,0,1,.2,1,2.38,2.38,0,0,1-.24,1.08,2.26,2.26,0,0,1-.68.8,3,3,0,0,1-1,.5,4.91,4.91,0,0,1-1.38.18,4.65,4.65,0,0,1-1.33-.19,4.08,4.08,0,0,1-1.2-.54,2.73,2.73,0,0,1-.85-.94,2.53,2.53,0,0,1-.32-1.32h1.76a1.89,1.89,0,0,0,.14.75,1.26,1.26,0,0,0,.41.5,1.77,1.77,0,0,0,.62.29,3.19,3.19,0,0,0,.77.09,2.26,2.26,0,0,0,.89-.15,1.16,1.16,0,0,0,.52-.42A1.07,1.07,0,0,0,109.1,103.76Z"/><path class="cls-10" d="M115.9,98.29l-2.65,7.88H111.4l3.47-9.29h1.19Zm2.09,4.43v1.38h-5v-1.38Zm.13,3.45-2.66-7.88-.16-1.41h1.19l3.49,9.29Z"/><path class="cls-10" d="M128.39,96.88v9.29h-1.76l-3.95-6.45v6.45h-1.75V96.88h1.75l4,6.45V96.88Z"/><path class="cls-10" d="M140.67,101.36V105a3.14,3.14,0,0,1-.64.57,4.67,4.67,0,0,1-1.14.53,6.12,6.12,0,0,1-1.73.22,4.25,4.25,0,0,1-1.62-.3,3.56,3.56,0,0,1-1.26-.87,4.06,4.06,0,0,1-.82-1.41,5.78,5.78,0,0,1-.28-1.89v-.61a6.18,6.18,0,0,1,.27-1.9,3.89,3.89,0,0,1,.78-1.4,3.25,3.25,0,0,1,1.22-.87,4,4,0,0,1,1.59-.3,4.41,4.41,0,0,1,1.94.38,2.83,2.83,0,0,1,1.17,1.07,4,4,0,0,1,.51,1.56H139a2.5,2.5,0,0,0-.28-.85,1.5,1.5,0,0,0-.6-.57,2,2,0,0,0-1-.21,2.08,2.08,0,0,0-.92.2,1.89,1.89,0,0,0-.66.6,3,3,0,0,0-.41,1,5.78,5.78,0,0,0-.13,1.32v.62a5.21,5.21,0,0,0,.15,1.32,2.8,2.8,0,0,0,.44,1,2.07,2.07,0,0,0,.72.6,2.38,2.38,0,0,0,1,.2,3.18,3.18,0,0,0,.83-.09,1.89,1.89,0,0,0,.53-.21,1.65,1.65,0,0,0,.3-.23v-1.74h-1.84v-1.29Z"/><path class="cls-10" d="M144.19,96.88v9.29h-1.75V96.88Z"/><path class="cls-10" d="M147.84,96.88v9.29h-1.76V96.88Zm4.14,7.91v1.38h-4.67v-1.38Z"/></svg>