<svg xmlns="http://www.w3.org/2000/svg" viewBox="0 0 325.58 223.48"><defs><style>.cls-1{isolation:isolate;}.cls-2{fill:#fff;mix-blend-mode:soft-light;}.cls-3{fill:#c6875e;}</style></defs><g class="cls-1"><g id="Capa_1" data-name="Capa 1"><path class="cls-2" d="M299.13,101.07c-9.09-6.58-20.37-10.41-27.36-19.3S263.5,60.61,260,49.68c-3.71-11.45-10.49-22.17-20.4-28.64S216.37,13,206,18.64c-6.75,3.7-11.95,10.15-19.1,13-10.73,4.2-22.52-.8-33.38-4.63S129.18,21,121,29.22c-6,6-7.72,16.23-15.26,19.86-5.27,2.53-11.43.79-17.16-.33-11.8-2.3-24.37-1.58-35.3,3.53s-20,14.93-23,26.87c-2.56,10.14-.85,21.46-5.65,30.7-2.17,4.18-5.51,7.56-8.36,11.28A57.05,57.05,0,0,0,6,167.06c4.06,18.83,17.39,33.59,35.28,39.07a196.63,196.63,0,0,0,131.64-6.25c7.76-3.2,15.4-6.93,23.61-8.57,14.8-3,30,1.13,44.26,6.29s28.25,11.5,43.23,13.25c10.85,1.27,16.48-1.06,23-9.7C328,173.49,329.23,122.86,299.13,101.07Z"/><path class="cls-3" d="M175.88,159.85c10.88-.91,18.12,5.75,25.68,11.63,2.07,1.61,3.51,1.8,5.44,0,1.55-1.45,3.44-2.54,5.1-3.88,5.93-4.79,12-9.06,21.29-7.4-4.45-4.94-6.7-9.62-5.56-15.3a15.28,15.28,0,0,1,25.95-7.7c6,6.22,5.7,14.2-1,22.44.75.32,1.44.66,2.16.91,6.61,2.29,10.29,7.17,10.36,14.14.09,9,0,17.93.06,26.9.05,3.68-1.58,4.93-5.12,4.89q-17.46-.17-34.93,0c-3.6,0-5.14-1.29-5-5,.16-4.93,0-9.87,0-15.53-4.59,2.28-8.78,4.24-12.84,6.43a6.1,6.1,0,0,1-6.4,0c-4-2.16-8.07-4.08-12.84-6.47,0,5.42,0,10.27,0,15.11,0,4.64-.71,5.33-5.39,5.34q-17.07,0-34.13,0c-4.89,0-5.45-.61-5.47-5.64,0-4.68,0-9.36,0-14.71-3.92,1.91-7.6,3.42-11,5.44s-6.49,2.26-10,.08c-3.35-2.08-7-3.57-11.11-5.58,0,5.55-.11,10.46,0,15.37.11,3.55-1.24,5.12-4.92,5.09-11.77-.12-23.55-.1-35.33,0-3.4,0-4.86-1.33-4.81-4.77.1-7.63.33-15.27,0-22.88-.47-9.6,2.59-16.54,12.63-19-6.84-9.12-7-16.9-.55-23A15.15,15.15,0,0,1,98.29,136c7.06,5.84,7.33,13.67.4,24,11-1.79,17.7,5.31,25,11,2.77,2.15,4.65,2.21,7.09-.12,1.64-1.56,3.67-2.69,5.41-4.15,5.51-4.63,11.51-7.84,20-6.66-3.6-4.19-6-8.1-5.63-13a15.27,15.27,0,0,1,25.81-10.22C182.52,142.81,182.47,150,175.88,159.85Zm-45,25c4.31-2.16,8.55-4.34,12.84-6.42,3.94-1.91,5.86-.77,5.92,3.55.08,5.08.11,10.16,0,15.23,0,2.08.59,2.78,2.72,2.75,8.81-.1,17.63-.15,26.45,0,2.65.06,3.08-1,3-3.27-.14-4.8-.08-9.62,0-14.43.06-4.62,1.93-5.8,6.05-3.81,4.28,2.06,8.53,4.21,12.92,6.39.56-5.38.55-5.38-1.28-7-8.88-7.78-18.4-13.82-31-11.67a22.74,22.74,0,0,1-3.6,0c-20.54.24-14.23-1.94-31,10.21C130.88,178.64,129.63,180.93,130.92,184.87Zm-7.39-.05c1.19-3.86.2-6.36-3-8.39-3.48-2.22-6.67-4.91-10-7.38a12.8,12.8,0,0,0-7.77-2.8c-7.35,0-14.7-.09-22,0-4.84.07-8.06,3.24-8.14,8.06-.13,7.61,0,15.23-.08,22.84,0,2,.44,2.83,2.65,2.8q13.42-.16,26.85,0c2.15,0,2.74-.71,2.69-2.76-.12-4.94-.08-9.88,0-14.83s1.91-5.92,6.33-3.77C115.2,180.65,119.33,182.74,123.53,184.82Zm84.4.09c4.39-2.19,8.54-4.3,12.72-6.34s6.06-.93,6.12,3.66c.06,5,.13,9.91,0,14.86-.07,2.32.71,2.94,3,2.91q13.25-.17,26.5,0c2.09,0,2.78-.58,2.75-2.71-.12-7.49,0-15-.07-22.48-.07-5.31-3.22-8.38-8.57-8.52-3-.08-5.89,0-8.84,0-19.83.2-13.93-1.8-30.3,10C208.14,178.5,206.79,180.74,207.93,184.91ZM88.52,156.57a8.81,8.81,0,1,0-8.69-8.72A8.86,8.86,0,0,0,88.52,156.57ZM165.8,139a8.81,8.81,0,1,0,8.74,9.07A8.85,8.85,0,0,0,165.8,139Zm76.89,17.61a8.81,8.81,0,1,0-8.66-8.75A8.86,8.86,0,0,0,242.69,156.57Z"/><path class="cls-3" d="M218.28,96c-6.08,4.86-11.77,9.46-17.51,14-2.81,2.23-5.92,2.53-8.94.59s-3.88-4.64-3.21-8c.34-1.7.57-3.43.87-5.14.38-2.11.13-3.29-2.39-2a6.94,6.94,0,0,1-8.52-1.18c-2.52-2.34-2.89-5.22-1.75-8.46,2.7-7.69,5.2-15.44,8-23.11.87-2.43.78-3.66-2.06-4.59a52.63,52.63,0,0,0-30.21-.84c1.15,1.56,2.95,1.71,4.46,2.33,8.56,3.51,11.07,9.56,7.35,18s-7.5,16.84-11.23,25.27c-2.21,5-1.77,6.63,2.89,9.64,3,2,5.47,4.36,6.22,8,.27,1.26,1.2,3.39-.79,3.61-1.69.19-4.53.66-5.2-1.53-.86-2.8-2.87-4-4.95-5.45-5.71-4-7.31-9.35-4.51-15.74,3.86-8.81,7.85-17.56,11.73-26.37,2.21-5,1.27-7.21-3.86-9.32a32.88,32.88,0,0,1-5.17-2.15c-5.48-3.49-10.08-1.94-14.9,1.65-10.22,7.6-17.4,17.19-21.22,29.39-.91,2.92-.11,3.81,2.61,4.15a56.37,56.37,0,0,1,6.68,1.33c7.59,1.92,12.15,8.35,9.85,15.67-2,6.3-.75,11.15,3.27,15.86A10.16,10.16,0,0,1,137.8,135c.39,1.27,2.51,3,.16,4-1.93.78-4.62,2.21-6-1.3a14.23,14.23,0,0,0-2.36-3.71c-4.59-5.6-6-11.6-3.53-18.69,1.73-5-.6-8.1-6-9.22-.65-.14-1.32-.2-2-.34-7.07-1.49-7.14-1.49-6.94,5.58a51.86,51.86,0,0,0,11.65,32.21c2.38,2.93,1.24,4.11-.94,5.9-2.89,2.39-3.45-.68-4.36-1.91-13.92-18.81-17.09-39.37-8-60.94s25.93-33.8,49.18-36.86c3.09-.41,4.23-1.5,3.75-4.47a8,8,0,0,1,0-1.2c0-6.67,0-6.67-6.25-8.18-8.92-2.15-14.67-12.55-11.91-21.46a4,4,0,0,1,3.89-2.9c5.17-.45,10.24,0,14.58,3.12,1.77,1.27,2.4.84,3.77-.5,5.75-5.61,12.84-5.9,20.23-4.59,1.94.34,2.36,1.94,2.71,3.56,2.85,13.22-3.93,22.55-17.42,23.52-2.84.2-3.3,1.22-3.14,3.58.19,2.79-.73,6.1.49,8.26s4.88,1.16,7.44,1.68c45.51,9.18,65.33,61.93,36.71,97.86-1,1.3-1.83,3.65-4.2,1.27-1.61-1.63-3.2-2.51-1-5.31,10.12-12.71,13.73-27.25,11.06-43.3C219.23,99.27,218.77,97.92,218.28,96Zm-29.83-7.78a7.42,7.42,0,0,1,7.67,8.46c-.22,2-.62,4-1,5.92-.13.78-.51,1.69.25,2.23,1,.73,1.71-.3,2.39-.84,5.52-4.42,11-8.92,16.54-13.28,1.62-1.26,1.58-2.37.76-4.06A56.35,56.35,0,0,0,194.33,63.4c-2.1-1.34-2.86-.88-3.57,1.31-2.14,6.59-4.41,13.13-6.63,19.69-1.65,4.85-1.65,4.85,3,4A10.17,10.17,0,0,1,188.45,88.25ZM168.92,25.69c.62,1.22-.94,3.83,1.51,4.16,3.61.48,7.35,0,10-2.82s3-6.71,2.83-10.52c0-.79-.6-1-1.3-1.23A10.41,10.41,0,0,0,168.92,25.69Zm-16.31-8c-1.32-.2-2,.15-2.12,1.86a9.68,9.68,0,0,0,9.91,10.22c1.81,0,2.24-.62,2.23-2.32C162.63,21.81,158.59,17.76,152.61,17.74Z"/></g></g></svg>