<svg xmlns="http://www.w3.org/2000/svg" viewBox="0 0 325.58 223.48"><defs><style>.cls-1{isolation:isolate;}.cls-2{mix-blend-mode:soft-light;}.cls-3{fill:#fff;}.cls-4{fill:#c6875e;}</style></defs><g class="cls-1"><g id="Capa_1" data-name="Capa 1"><g class="cls-2"><ellipse class="cls-3" cx="162.62" cy="114.72" rx="102.38" ry="100.53"/></g><path class="cls-4" d="M207.31,109.19c-4.13,0-7.47.07-10.81,0-2.5-.07-2.45,1.78-2.9,3.34-3.86,13.3-12.42,22.35-25.5,27.45a10.16,10.16,0,0,1-8-.09c-12.32-4.88-21-13.16-24.67-25.85-1.14-4-2.9-5.15-7-5-7.34.37-7.35.1-4.17,6.51,4.12,8.27.74,13.82-8.52,13.85-11.26,0-22.53.07-33.8,0-8.32-.06-11.87-5.8-8.15-13.22C79.49,104.94,85.3,93.75,91,82.49c1.7-3.37,4-5.81,8-5.9,4.25-.1,6.74,2.38,8.49,5.92,2.77,5.58,5.82,11,8.38,16.69,1.33,2.92,3,4.27,6.28,3.87s7.59,1.32,9.83-.72-.15-6-.06-9.1a92.65,92.65,0,0,0-.09-10c-.33-4.07,1.16-6.08,5.47-6.67,8.15-1.12,15-5.08,21.5-9.94a5.9,5.9,0,0,0,2.26-6.82c-.72-2.73-3.38-1.24-5.15-1.36-3.38-.23-6.79,0-10.18-.1-6.41-.27-10.38-5.8-7.68-11.39,6.08-12.57,12.38-25.06,19-37.35a8.08,8.08,0,0,1,14.36.14q9.91,18.47,19,37.37C193,52.5,189.07,58,183,58.34c-3.69.19-7.41-.05-11.1.1-1.54.07-3.85-1-4.43,1.12s-.77,4.67,1.62,6.58c6.34,5,13.22,9.09,21.33,10.3,4.83.72,6.56,2.74,6.24,7.45-.34,5.13.14,10.32-.76,15.42-.56,3.16.7,3.77,3.65,3.79,10.87.06,10.87.16,15.73-9.37,2.07-4.06,4.16-8.1,6.23-12.17a8.28,8.28,0,0,1,7.66-5,8.18,8.18,0,0,1,7.74,4.86c6.08,11.9,12.25,23.76,18.14,35.75,3.13,6.36-.63,12.12-7.85,12.2q-18,.19-36.11,0c-7.13-.09-10.63-5.89-7.66-12.34C204.49,114.61,205.77,112.25,207.31,109.19ZM138.15,92.66c.35,9.54.93,20.3,7.72,28.87,13.44,17,22.75,16.86,36.57.33a28.21,28.21,0,0,0,4.82-9.74c2.81-8.78,3.09-17.84,3.06-26.94a2.76,2.76,0,0,0-2.56-3.1,50.53,50.53,0,0,1-21.29-10.4c-1.85-1.51-2.93-1.31-4.64.1a52.3,52.3,0,0,1-16.44,9c-7.4,2.53-7.41,2.5-7.24,10.4ZM164,52.49c5.55,0,11.11.08,16.66,0,4.35-.07,5.15-1.22,3.29-4.93-5.57-11.13-11.26-22.2-16.91-33.29-.62-1.22-1.15-2.57-2.88-2.54s-2.21,1.4-2.83,2.61q-8.47,16.63-17,33.27c-1.67,3.24-.83,4.9,3,4.9ZM99.26,123.62c5.39,0,10.78,0,16.16,0,4.59-.06,5.42-1.23,3.48-5.11-5.56-11.1-11.22-22.16-16.86-33.23-.61-1.2-1.16-2.56-2.91-2.49S97,84.22,96.34,85.42C90.69,96.48,85,107.53,79.43,118.62c-1.83,3.63-1,4.9,3.21,5C88.18,123.69,93.72,123.62,99.26,123.62Zm129.71,0c5.7,0,11.39,0,17.08,0,3.68,0,4.73-1.55,3-4.86-5.73-11.18-11.39-22.41-17.17-33.58-1.75-3.37-3.71-3.39-5.45,0-5.77,11.17-11.38,22.42-17.11,33.61-1.69,3.31-.7,4.86,3,4.87C217.89,123.62,223.43,123.61,229,123.61Z"/><path class="cls-4" d="M189.58,159.05c14.3-6.29,28.38-12.41,42.4-18.67,4.77-2.13,9.46-2.51,14.28-.38,6.22,2.74,7.77,8.36,3.77,13.75a24,24,0,0,1-7.19,6.34c-20.93,12.22-42,24.14-64.05,34.42-9.39,4.39-18.88,4.72-28.84,3.52A174.73,174.73,0,0,0,119,196.67c-3.6.21-7.29.08-9.73,3.78-1.23,1.88-3.81,1.62-6,1.64-15.49.17-15.49.18-15.49-14.9,0-9.24,0-18.48,0-27.72,0-6.48,2.07-8.56,8.56-8.42,5.09.1,9.91-.09,15.09,2.41,4.45,2.14,10.6.07,15.65-2s10.11-4.48,15.14-6.76a25,25,0,0,1,16.2-1.92c7.05,1.56,14.22,2.67,21,5.34C184.52,150.1,188.67,153,189.58,159.05Zm-30.49,33.57c7.41.94,12.43-1.62,17.45-3.85,21.66-9.61,42.05-21.54,62.48-33.39a17.05,17.05,0,0,0,3.34-2.42c1.69-1.64,4.52-3.1,3.22-5.89-1.15-2.46-4.05-2.45-6.54-2.38a8.1,8.1,0,0,0-3.13.63c-17.65,8.21-36.11,14.73-53.19,24.16a12.31,12.31,0,0,1-9.34,1c-8-1.92-15.83-5.21-24.32-2.1-1.89.7-3.86,0-4.18-2.33-.28-2,1.11-2.91,3-3.37,5.39-1.31,10.68-2.7,16.31-.74a93.77,93.77,0,0,0,11.19,2.77c3.54.77,6.13-.72,7.35-3.93s-1.08-5-3.73-6.31c-5.44-2.68-11.45-3.46-17.22-5a27.23,27.23,0,0,0-21,2.36c-8.14,4.36-16.66,8-26.17,8.17-2.47.05-3.08,1.09-3.06,3.33.11,8.18.17,16.36,0,24.54-.08,3.09,1.23,3.45,3.88,3.23a103.5,103.5,0,0,1,13.85-.56C139.76,191.05,150.21,192,159.09,192.62ZM93.87,176.5v12.26c0,7.53,0,7.33,7.6,7.46,3.61.06,4.35-1.24,4.28-4.49-.2-9.08,0-18.16-.1-27.24-.1-8.41,1.82-7.46-7.86-7.66-2.87-.06-4.16.63-4,3.79C94.06,165.9,93.87,171.2,93.87,176.5Z"/><path class="cls-4" d="M178.06,118.22c-4.11-1.86-5.87.31-7.39,4s-11.3,3.81-12.76.33c-1.61-3.83-3.27-5.49-7.85-4.51-3.63.78-4.21-3.31-5.8-5.54-1.28-1.8-2.3-3.81-.38-5.76,2.6-2.63,3-5.08.13-7.79-2-1.86-1.21-3.94.14-5.74,1.71-2.27,2-6.42,6.18-5.69,3.86.67,6.13-.1,7.28-4,1.08-3.67,4.51-2.36,7.09-2.47,2.38-.11,5.24-.68,6.15,2.54,1,3.6,3.05,4.78,6.83,4,4.22-.92,4.73,3,6.37,5.36,1.38,1.93,2.43,4.06.29,6.13-2.6,2.52-2.64,4.9-.05,7.42,1.91,1.86,1.42,3.89.05,5.75C182.64,114.46,182.21,118.07,178.06,118.22Zm-3.66-7.12c1.82.55,3,1,3.8-.54.69-1.27-.29-1.89-.79-2.79-1.88-3.38-2-6.86.07-10.18,1.76-2.76,1.3-3.84-2.16-3.68a9.17,9.17,0,0,1-9.18-5.4c-1.24-2.45-2.6-2.47-3.84-.07-2,3.9-5.22,5.59-9.61,5.48-3-.07-3.39,1.18-1.84,3.61a8.9,8.9,0,0,1-.11,10.52c-.67,1-1.13,1.73-.36,2.81s1.5.72,2.46.62a9,9,0,0,1,9.06,4.81c1.82,3.15,2.8,3.47,4.5.06S171.52,112,174.4,111.1Z"/><path class="cls-4" d="M167.13,31.63c0,1.81,0,3.62,0,5.42s-1,3.21-3.08,3.13a2.68,2.68,0,0,1-2.75-3c0-3.77-.06-7.54,0-11.3,0-1.94.94-3.2,3.07-3.12,1.87.07,2.72,1.24,2.76,3C167.16,27.71,167.12,29.67,167.13,31.63Z"/><path class="cls-4" d="M167.11,46.21c-.17,2.1-1.1,3.11-2.93,3.09-2.12,0-3-1.33-2.84-3.23a2.9,2.9,0,0,1,5.77.14Z"/><path class="cls-4" d="M102.19,102.62c0,1.81,0,3.62,0,5.43s-1,3.18-3.06,3.17a2.67,2.67,0,0,1-2.83-2.92c-.07-3.91-.09-7.84,0-11.75a2.63,2.63,0,0,1,3-2.74,2.75,2.75,0,0,1,2.84,2.93C102.23,98.7,102.18,100.66,102.19,102.62Z"/><path class="cls-4" d="M99.15,120.38a2.65,2.65,0,0,1-2.78-2.91,2.57,2.57,0,0,1,2.76-2.87,2.67,2.67,0,0,1,3,3.1C102,119.48,100.89,120.31,99.15,120.38Z"/><path class="cls-4" d="M226.21,102.46c0-1.81,0-3.62,0-5.42s.94-3.21,3-3.23a2.67,2.67,0,0,1,2.86,2.89c.09,3.92.11,7.84,0,11.76a2.64,2.64,0,0,1-3,2.76,2.71,2.71,0,0,1-2.88-2.87C226.16,106.39,226.22,104.43,226.21,102.46Z"/><path class="cls-4" d="M232.07,117.58c-.19,1.8-1.11,2.82-2.95,2.77a2.62,2.62,0,0,1-2.85-2.81c0-2,1.18-3,3.17-2.94C231.28,114.69,232,115.92,232.07,117.58Z"/><path class="cls-4" d="M164.05,93.75a9.13,9.13,0,0,1,9.36,8.71,9.21,9.21,0,0,1-18.42.29A9.1,9.1,0,0,1,164.05,93.75Zm3.08,8.81a2.65,2.65,0,0,0-2.79-2.68,2.61,2.61,0,0,0-3,2.6,2.67,2.67,0,0,0,3,3.12C166.09,105.57,167,104.51,167.13,102.56Z"/></g></g></svg>