<svg xmlns="http://www.w3.org/2000/svg" viewBox="0 0 325.58 223.48"><defs><style>.cls-1{isolation:isolate;}.cls-2{fill:#fff;mix-blend-mode:soft-light;}.cls-3{fill:#c6875e;}</style></defs><g class="cls-1"><g id="Capa_1" data-name="Capa 1"><path class="cls-2" d="M27.21,91.5c9.09-6.58,20.37-10.41,27.36-19.29S62.84,51,66.38,40.11c3.71-11.45,10.49-22.17,20.41-28.64S110,3.39,120.33,9.07c6.75,3.7,12,10.15,19.1,13,10.73,4.2,22.52-.8,33.38-4.63s24.36-6,32.59,2.26c6,6,7.71,16.23,15.25,19.86,5.27,2.54,11.43.79,17.16-.33,11.8-2.29,24.37-1.58,35.3,3.53s20,14.93,23,26.87c2.56,10.14.85,21.46,5.65,30.7,2.18,4.18,5.52,7.56,8.36,11.29a57,57,0,0,1,10.18,45.93c-4.06,18.82-17.39,33.59-35.27,39.06a196.68,196.68,0,0,1-131.64-6.24c-7.77-3.21-15.41-6.94-23.62-8.58-14.8-3-30,1.13-44.26,6.29s-28.25,11.5-43.23,13.25c-10.85,1.27-16.48-1.05-23-9.7C-1.63,163.92-2.88,113.29,27.21,91.5Z"/><path class="cls-3" d="M220.62,158.52a81.93,81.93,0,0,0,10.75-19.36c-2.33-.11-3.88,1-5.54,1.64-2.32.93-4.11,2-5.51-1.67-1.32-3.44.59-3.81,2.74-4.65,4.61-1.81,9.25-3.56,13.78-5.56,2.12-.93,2.95-.43,3.72,1.64,1.86,5.05,3.83,10.07,6,15,1.14,2.58-.28,3.16-2.17,3.89S241,151,240.14,148.2c-.52-1.75-1.35-3.42-2-5.13-1.63.46-1.59,2-2.17,3-1.87,3.34-3.22,7.05-5.53,10a30.79,30.79,0,0,0-6.81,22c.76,14-11.88,25.48-26.23,25.77-7.46.14-7.46.14-7.46,7.6,0,6,0,6-6.05,6-17.16,0-34.33-.07-51.49.06-2.88,0-4.07-.6-3.83-3.7s1.07-7-.41-9.11c-1.64-2.32-5.8-.66-8.84-.9A26.59,26.59,0,0,1,95.1,172c1.81-9.42,1.11-17.23-4.19-24.94a19,19,0,0,1-2.49-5.84c-1.06-4-3-6.67-7.59-5.44-3.63,1-2.39-4.52-4.83-3.85s-4,1.23-5.84-1c-2-2.4-4.42-4.41-6.55-6.68-1.87-2-5.29-3.5-2.59-7.22a1,1,0,0,0-.83-1.58c-3.79-.51-3.06-3.36-3.08-5.81,0-3.27.08-6.53,0-9.79-.08-2.39-.11-4.55,3-5.07,1-.17,1.55-1,.88-1.88-2.26-3,.24-4.53,2-6.27,2.49-2.51,5.08-5,7.49-7.54,1.39-1.49,2.67-2.46,4.68-1.09.87.59,2.09,1,2.33-.51.61-3.78,3.41-3,5.85-3,3.12,0,6.24,0,9.36,0,2.39,0,5-.53,5.49,3a1.12,1.12,0,0,0,1.89.84c2.76-2,4.28-.1,6,1.68,2.25,2.36,4.57,4.64,6.91,6.92,1.71,1.67,3.87,3.13,1.79,6-.62.85-.34,1.78.72,1.94,3.43.51,3.09,3,3.05,5.43-.06,3.26-.05,6.52,0,9.78,0,2.4.5,5-3,5.48a1.13,1.13,0,0,0-.82,1.9c2,2.78.06,4.29-1.7,6-2.36,2.26-4.65,4.58-6.92,6.92-1.68,1.72-3.15,3.83-6,1.76-.86-.64-1.57-.26-2,.74-.3.79-.49,2.13-1,2.27-5.91,1.63-1.55,4.78-.88,7a34.64,34.64,0,0,0,4.88,9.64l2.53-3.55c9.16-12.82,21.44-20.4,37.22-21.86,3.5-.32,5.45-1.16,4.87-5.2a3,3,0,0,0-2.32-2.9c-8.29-2.91-11.47-7.36-11.32-16.25.05-3-.49-4.75-3.68-6-5.26-2-7.58-7.43-6.19-13,1.11-4.39,2.43-8.73,3.75-13.06.6-2,.54-3.06-1.68-4.25-7.4-4-10.68-11.45-8.79-18.89,2-8,8.52-13.19,17.16-13.06,12.32.19,24.73-1.28,36.94.75,17.64,2.94,30.33,18.34,30.51,36.26.11,9.93,0,19.86,0,29.78,0,9,2.61,16.94,8.92,23.62,4.65,4.94,5.83,10.87,3.72,17.37-.38,1.18-1.24,2.29-.17,3.56A61.17,61.17,0,0,1,220.62,158.52Zm-92,22.17c0-9.2.12-18.13-.07-27.06-.06-3.12.49-4.38,4.07-4.34,17.86.21,35.73.17,53.59,0,3,0,3.85.73,3.79,3.75-.2,9.16-.08,18.34-.08,27.61,6.78-1.94,6.78-1.94,6.79-8.22,0-1.84.12-3.7,0-5.53-.22-2.62.13-4.05,3.48-4.07s3.56,1.64,3.41,4.15c-.13,2,0,4-.05,6-.14,2.89-.33,5.58,3.35,6.72,2.19.68.84,2.33.18,3.44s-1,3.92-2.93,2.59c-4.77-3.23-8,.35-11.64,2-6.47,3-6.45,3.18-11.53-1.66-2.49-2.37-5.15-3.62-8.38-1.67-3,1.79-3.63,4.69-2.84,7.79.9,3.51,3.51,4.89,7.06,4.85,6.8-.06,13.61.09,20.41-.05a20.05,20.05,0,0,0,19.92-20.15c.29-23.14-19.51-43.7-42.46-44.2-1.76,0-2.39.68-3.17,2-6.06,10.57-18.4,10.64-24.38.16-.72-1.28-1.21-2.22-3.07-2.22-23.14,0-44.22,22.63-42.58,45.75A20,20,0,0,0,120.73,197c7.08.22,14.17,0,21.26.07,3.59,0,6.09-1.58,6.86-5.08.69-3.13-.06-6-3.12-7.68s-5.66-.56-8,1.69c-5.25,4.93-5.28,4.9-11.87,1.61-.63-.31-1.27-.61-1.89-1-3-1.63-5.7-3.4-9.38-1-2.33,1.52-2.32-1.61-3.19-2.76s-1.53-2.79.52-3.36c3.36-.93,3.22-3.35,3.12-6s.06-5.39,0-8.08c-.07-1.8.54-2.36,2.39-2.53,3.36-.3,5.11.5,4.51,4.28-.26,1.66.2,3.44-.09,5.09C120.9,177.42,123.39,179.81,128.6,180.69Zm78-42.85c.78-3.86-.5-6.92-3.06-9.62-7.19-7.6-10.24-16.79-10.28-27.1,0-10.06.07-20.12,0-30.18-.16-15.64-11.77-29-27.29-30.16-11.55-.86-23.22-.39-34.83-.19-5,.09-9,4.49-9.29,9.43s3.07,10,8,10.49c6.46.61,13,.31,19.52.24a3,3,0,0,0,3-3.07,3.12,3.12,0,0,0-3-3.48,28.94,28.94,0,0,0-5.1-.09c-1.81.09-2.28-.92-2-2.37s-1.09-3.57,1.17-4.4a11.64,11.64,0,0,1,15.74,11c0,1.66.09,2.28,2,2.72,8.05,1.84,11.68,6.5,11.67,14.8a6.7,6.7,0,0,0,2.43,5.41c5.27,5,6.47,13.37,1.56,18.39-3.95,4-4.06,8.22-3.95,13a85.57,85.57,0,0,1-.05,9.34c-.25,2.91.76,3.93,3.65,4.09a49.72,49.72,0,0,1,25.7,9.06C203.52,136.08,204.55,137.58,206.63,137.84ZM147.79,67.71c-3.69,0-7.38.12-11.06,0-2.2-.1-3.34.6-3.91,2.8-1.16,4.52-2.54,9-3.84,13.47-.84,2.92,0,5.62,2.92,6,7.11,1,7.71,5.54,6.95,11.18a10.71,10.71,0,0,0,0,1.7c.14,5.78,3.22,8.93,8.93,9.07,2.84.06,5.68.16,8.5,0,2.5-.18,3.24.82,3,3.16-.17,1.92.47,4.31-2.84,3.7-3.56-.65-4.4,1.11-4,4.24.17,1.54,0,3.12,0,4.67.08,5,2.67,8.07,6.78,8.07s6.76-3.06,6.79-8c.05-8.08.08-16.16,0-24.24,0-2.44.37-4,2.82-5.39,5.47-3.11,5.49-9.95,0-13.06-2.42-1.39-3.08-2.91-2.85-5.38A34.65,34.65,0,0,0,166,75c-.2-4.52-2.69-7.08-7.19-7.22C155.16,67.63,151.47,67.72,147.79,67.71Zm35.27,110.22c0-6.39-.05-12.9,0-19.41,0-2-.89-2.32-2.58-2.32q-21.27.06-42.53,0c-1.69,0-2.61.32-2.58,2.31.09,6.51,0,13,0,19.49.39.07.54.15.66.12a12.56,12.56,0,0,0,1.59-.46c5.64-2.12,10.68-1.12,14.73,3.32s4.56,9.76,2.26,15.08-6.72,7.85-12.54,7.82a27.52,27.52,0,0,1-3.4,0c-2.56-.33-3.43.56-3.4,3.25s.59,3.65,3.49,3.62q20.21-.22,40.41,0c2.78,0,3.95-.43,4-3.61s-1.47-3.44-3.86-3.24a32.13,32.13,0,0,1-3.4,0c-5.83-.13-10.13-2.82-12.28-8.2-2.09-5.23-1.51-10.41,2.41-14.69s8.8-5.41,14.34-3.46C181.18,177.8,181.89,178.44,183.06,177.93ZM107.3,92.28c.11-2.54-5.57-7-7.73-6.15-3.31,1.36-5.52.41-6.66-2.86s-3.79-1.68-5.8-1.87c-1.67-.17-3.69-.74-4.51,1.88-1,3.33-3.47,4.41-6.59,2.78-2.68-1.39-3.64.79-4.84,2.1s-4,2.23-2.52,5.1c1.64,3.2.58,5.56-2.67,6.69s-1.79,3.73-2,5.73c-.17,1.85-.64,3.88,2.19,4.75,3.1,1,4.12,3.46,2.53,6.37-1.3,2.4.31,3.5,1.68,4.56,1.61,1.24,2.35,4.4,5.38,2.92,3.49-1.7,5.67-.5,6.92,2.93,1.09,3,3.6,1.55,5.49,1.67,1.64.11,3.79.93,4.64-1.67,1.16-3.55,3.5-4.67,6.88-2.91,2.45,1.27,3.4-.77,4.48-2,1.25-1.44,4.13-2.24,2.75-5-1.69-3.45-.63-5.57,2.77-7,2.16-.94,3-8.75.94-9.6C106.26,98.8,104.92,96.3,107.3,92.28Z"/><path class="cls-3" d="M96.93,59.79c4.24-.67,7.89-1,11.44-1.86,2.45-.57,3.06.49,3.19,2.51.12,1.82,1.23,3.89-2.07,4.33-6.17.83-12.31,1.92-18.44,3-2,.36-2.85-.31-3.19-2.24-.85-4.74-1.72-9.48-2.77-14.17-.51-2.24-.65-3.68,2.27-4.16,2.64-.43,4.37-.3,4.52,2.85a14.77,14.77,0,0,0,.35,1.87c1.75-.64,2-2.31,2.73-3.51,12.35-20.59,29.23-35.5,53.24-40.35,29.33-5.93,53.11,4.56,72.47,26.46a93.69,93.69,0,0,1,10.41,15c1.13,1.93,1.46,3.15-1,4.19-2,.82-3.45,2.25-5.07-.79a78.84,78.84,0,0,0-18.89-23.32c-30.7-25.84-73.19-20.55-98.58,12.32A77.59,77.59,0,0,0,96.93,59.79Z"/><path class="cls-3" d="M237.75,122.17A30.65,30.65,0,1,1,268.2,91.43,30.73,30.73,0,0,1,237.75,122.17Zm-24-30.67a23.8,23.8,0,1,0,23.82-23.78A23.87,23.87,0,0,0,213.75,91.5Z"/><path class="cls-3" d="M158.88,169.84c-4.67,0-9.36-.16-14,0-3,.14-2.62-1.64-2.67-3.52s-.09-3.47,2.76-3.43c9.49.17,19,.2,28.48,0,3.26-.07,2.75,1.77,2.89,3.75.17,2.29-.43,3.31-3,3.21C168.53,169.7,163.7,169.84,158.88,169.84Z"/><path class="cls-3" d="M104.78,105.05A17,17,0,1,1,87.67,88.12,17.07,17.07,0,0,1,104.78,105.05ZM87.82,95A10.19,10.19,0,1,0,97.94,105.3,10.28,10.28,0,0,0,87.82,95Z"/><path class="cls-3" d="M253.17,87.26c-.54.63-1,1.3-1.63,1.88-6.2,6.23-12.49,12.39-18.61,18.7-1.7,1.75-2.83,1.86-4.38,0-1.16-1.42-2.64-2.58-3.86-4s-4-2.46-1.18-5.31c2.33-2.34,3.81-2.35,5.64.17,1.48,2,2.55.67,3.68-.47,4.61-4.62,9.21-9.24,13.86-13.82.73-.72,1.42-2.23,2.72-1.3A10.64,10.64,0,0,1,253.17,87.26Z"/></g></g></svg>