<svg xmlns="http://www.w3.org/2000/svg" viewBox="0 0 325.58 223.48"><defs><style>.cls-1{isolation:isolate;}.cls-2{fill:#fff;mix-blend-mode:soft-light;}.cls-3{fill:#c6875e;}</style></defs><g class="cls-1"><g id="Capa_1" data-name="Capa 1"><path class="cls-2" d="M27.36,92.91c9.09-6.58,20.37-10.41,27.36-19.29S63,52.45,66.53,41.52C70.24,30.07,77,19.35,86.94,12.88s23.18-8.08,33.54-2.4c6.75,3.7,12,10.15,19.1,13,10.73,4.2,22.52-.8,33.38-4.63s24.36-6,32.59,2.26c6,6,7.71,16.23,15.25,19.86,5.27,2.54,11.43.79,17.16-.33,11.8-2.29,24.37-1.58,35.3,3.53s20,14.93,23,26.87c2.56,10.14.85,21.46,5.65,30.7,2.17,4.18,5.51,7.56,8.36,11.29a57,57,0,0,1,10.18,45.93c-4.06,18.82-17.39,33.59-35.27,39.06a196.68,196.68,0,0,1-131.64-6.24c-7.77-3.21-15.41-6.94-23.62-8.58-14.8-3-30,1.13-44.26,6.29s-28.25,11.5-43.23,13.25C31.6,204,26,201.64,19.43,193-1.48,165.33-2.73,114.7,27.36,92.91Z"/><path class="cls-3" d="M70.19,130.49c0-9.87.1-19.74-.06-29.62,0-2.87.58-3.69,3.73-4.06,7.25-.86,12.47,3.16,17.72,6.7,4.1,2.75,7.81,2.54,12,1.19,2.33-.75,2.33-1.68.64-3.16-9.82-8.56-9.91-19.68-7-30.82,2.33-8.88,9.09-14,18.34-15.2,3.11-.39,4.19-1.18,2.36-4.07-1.95-3.07-1.45-5.41,1.41-7.9,4.2-3.66,8-7.79,11.89-11.8,1.26-1.32,2.51-2,3.87-.49,6.05,6.87,12.39,3.4,18.77.68,1.65-.71,1.71-2.15,2-3.5,1.9-8.69,1.89-8.69,10.82-8.69,4.29,0,8.58.12,12.86-.05,2.12-.08,3.21.62,3.25,2.7.12,6.64,3.45,10.2,9.82,12.25,3.36,1.08,5.55,1.15,8.39-.84,5.73-4,5.84-3.9,10.77,1,2.94,2.94,5.71,6.06,8.86,8.76,2.67,2.27,3.58,4.46,1.52,7.54-1.82,2.71-1.5,4,2.24,4.39C234.84,56.72,243,65.45,244,76.23c.85,9.61,0,18.78-8.32,25.47-1.62,1.3-1.41,2.38.65,2.94,4.88,1.32,9.88,2.16,14.62,4,1.71.66,2.93-.69,4.3-1.33,3.82-1.79,7.26-4.52,11.95-4,1.92.22,2.72.6,2.71,2.69-.07,14.16-.1,28.32,0,42.48,0,2.31-1.46,2.77-2.93,3.51q-25.59,12.78-51.2,25.52c-2.33,1.15-4.28,2.29-4.28,5.27a9.71,9.71,0,0,1-.73,2.19c-1.22,4.49-7.22,3.49-8.67,7.3-1.52,4-3.79,6.78-8,7.56-1.43.26-1.48,1.2-1.75,2.17-1.06,3.8-3.33,6.43-7.27,7.32a3.06,3.06,0,0,0-2.52,2.47c-2.47,7.64-10.13,10.07-16.38,5.11-2-1.59-3.53-2.15-6.14-1.23-5,1.77-10.06-1.2-11.9-6.59a4.1,4.1,0,0,0-3.25-3.2,8.74,8.74,0,0,1-6.5-6.64c-.44-1.81-1.17-2.71-2.93-2.89a2.72,2.72,0,0,1-.37-.13c-4.61-1.28-5-6.69-7.89-8.72-3.45-2.39-7.2-3.8-8.43-8.29-.44-1.6-7.58-6.91-9.19-7.05s-.88,2.39-2.74,2.12c-2.29-.32-4.62.15-6.93-.64q-13.44-4.59-27-8.91c-2.06-.66-2.78-1.62-2.76-3.84C70.27,150.76,70.19,140.63,70.19,130.49Zm193.22-1.88c0-4.54,0-9.09,0-13.63s0-4.64-4.28-2.4C241.57,121.82,224,131,206.49,140.36a13.07,13.07,0,0,1-10.44,1.06q-8.78-2.56-17.58-5a14.15,14.15,0,0,0-10.26.62q-8.94,4.31-17.75,8.86c-3,1.55-3.87,4.38-2.29,6.8,1.8,2.75,4.22,2.62,6.78,1.11,3.12-1.86,6.22-3.74,9.35-5.6,7.41-4.39,12.27-3.9,18.66,1.85,8,7.22,16,14.4,24,21.66,1.36,1.24,2.41,1.89,4.37.9q24.81-12.59,49.75-24.9a3.69,3.69,0,0,0,2.36-3.91C263.33,138.74,263.41,133.67,263.41,128.61Zm-100.75,3.81c-6.06-2.51-11.7-3.62-17.59-2.91-7.74.93-15.21,3.24-22.85,4.67-2.32.44-3.2,1.52-3.77,3.66-2,7.63-4.11,15.28-6.57,22.79-1.11,3.4-.75,5.21,2.62,7,6,3.17,5.89,3.41,10.6-1.26a31.92,31.92,0,0,1,3.14-2.91c3.71-2.74,9.47-3.1,12.11.42,3.27,4.36,7.38,7.57,11.06,11.32,2.69,2.75,5.54,5.37,8.11,8.12a128.93,128.93,0,0,0,11.53,11.37c2.85,2.38,5.54,5.05,8.49,7.35,1.87,1.47,4.23,2,5.84-.32s.12-3.87-1.63-5.31c-4.4-3.63-8.75-7.35-13.17-11-1.62-1.32-2.9-2.2-.89-4.54s3.06-2.31,5.2-.39c4.54,4.07,9.33,7.86,14,11.76,1.92,1.59,4.09,2.12,5.88.09,2-2.25.48-4-1.36-5.57-4.58-3.83-9.06-7.8-13.8-11.42-2.25-1.72-1.4-2.78,0-4.27,1.23-1.34,2-2.88,4.2-.88,4.72,4.26,9.71,8.21,14.61,12.27,1.9,1.57,4.07,2.22,5.91.26s.81-4-1-5.69q-12.75-11.46-25.48-22.93c-2.88-2.6-5.94-2.92-9.26-.94-3.57,2.13-7.14,4.25-10.69,6.39A11,11,0,1,1,147,140.41C152,137.72,157.09,135.25,162.66,132.42Zm23.64-51a57,57,0,0,0-.72-6.56c-1.39-6.14-5-10.55-11.08-12.43a15,15,0,0,0-15.21,3.4c-7.68,6.89-7.93,24,.3,30.14,4.09,3,4,6.3,4.12,10.27.07,2.27-.73,3.23-2.87,3.71-5.06,1.13-10.08,2.42-15.1,3.7-4,1-6.68,3.39-7.63,7.47-.42,1.74-.36,3,2.21,2.49,4.08-.77,8.26-1.51,12.37-.45,13.66,3.52,27.28,7.19,40.92,10.81,1.88.49,3.74,1.06,5.62,1.54s3-.15,2.91-2.32c-.08-3,0-6,0-9-.09-6.16-2.52-9.23-8.57-10.79-4.4-1.12-8.83-2.09-13.2-3.31-1.44-.4-4.05,0-3.84-2.31.3-3.27-2.06-7.3,1.59-9.74C184.14,94.05,186.45,88.44,186.3,81.43Zm56.5,32.41-.05-.89c-3.73-.94-7.48-1.78-11.17-2.86-1.33-.39-3.69,0-3.57-2.15.17-3.21-1.9-7.39,1.24-9.48,9.23-6.18,9.43-14.95,7.67-24.24-1.48-7.78-8.61-12.81-16.55-12.42a15.7,15.7,0,0,0-14.69,14.08,42.32,42.32,0,0,0,0,10.49c.47,3.91,1.91,7.82,5.25,9.58,5.05,2.65,4.15,6.78,4.25,11,0,1.77-.63,2.51-2.32,2.88-2.79.61-5.54,1.45-8.67,2.29a18,18,0,0,1,3.71,6.52c1,3.43.82,7,.77,10.45,0,2.1.64,2.47,2.51,1.47Q227,122.13,242.8,113.84Zm-107-1.86c-2.73-.69-5-1.13-7.23-1.88-1.32-.45-3.71.05-3.59-2.12.16-3.21-1.91-7.44,1.19-9.49,9.14-6,9.39-14.72,7.78-23.85A15,15,0,0,0,122,62.14c-6.47-1.49-12.09.55-16.26,5.87-6.4,8.17-4.19,23.67,4.21,29.71,1.06.76,2,1.34,2.19,2.92.8,6.84.24,7.89-6,10.24-.13.05-.16.38-.3.75,4,2.35,8,4.86,12.08,7,2.68,1.39,4.42,3,3.76,6.25-.49,2.52.85,2.83,2.91,2.22a20,20,0,0,1,3.41-.75c2.44-.28,3.53-1.45,3.52-4C131.5,118.58,133.15,115.34,135.82,112Zm11.61-30.67c0-1.43,0-2.6,0-3.77.28-10.69,7.69-19.83,17.72-21.86a22.47,22.47,0,0,1,25.39,13.39,29.31,29.31,0,0,1-6.11,32.31c-1.7,1.67-2,2.45.63,3.37a30.53,30.53,0,0,0,21.59,0c2.26-.84,2.34-1.65.62-3.15-9.78-8.55-9.67-19.49-7-30.79.6-2.57.43-4.32-1-6.39-13.84-20.74-45.14-20.64-58.75.17a7.26,7.26,0,0,0-.95,6.43c2.83,11.33,2.82,22.19-7,30.71-2,1.72-1,2.37,1,3.06a30,30,0,0,0,21.22,0c2.18-.82,3.08-1.45.93-3.27C149.36,96.15,147,89.15,147.43,81.31Zm22.46-39c13.1.38,24,5.19,32.13,15.26,2.75,3.42,4.21,3.76,7.84,1.23,2.89-2,3.69-4.75,5.2-7.37,2.43-4.2-1.86-5.18-3.38-7.49a7.13,7.13,0,0,0-.82-.83c-4.87-4.87-5-5-10.45-1.15-2.43,1.69-4.29,2.06-6.87.28a28.82,28.82,0,0,0-10.73-4.45c-2.89-.57-3.91-2.07-4.4-4.88-1.16-6.74-1.31-6.71-8.2-6.71h-.39c-6.89,0-7,0-8.21,6.7-.49,2.79-1.5,4.29-4.39,4.89a37.41,37.41,0,0,0-12.11,5.16,3.09,3.09,0,0,1-3.86.08c-2.35-1.57-4.8-4.65-7.18-4.08s-4.4,3.76-6.56,5.81a11.4,11.4,0,0,1-1.11,1.09c-2.52,1.71-2.29,3.63-1.26,6.3,1.34,3.48,3.62,5.64,6.54,7.75,2.29,1.66,3.1,1.8,4.92-.63C144.91,48.12,156.25,42.69,169.89,42.27ZM76.6,131.44V147.8c0,11.61,0,11.54,11,15,2.09.65,3,.48,3.56-1.77q5.06-20.77,10.32-41.5c.45-1.77.33-2.8-1.39-3.77-6.56-3.69-13-7.58-19.54-11.29-3.25-1.85-4-1.38-4,2.46C76.58,115.08,76.6,123.26,76.6,131.44Zm25.45,36.13c1.84,0,1.62-1.62,1.94-2.7,3.37-11.68,6.48-23.44,10.14-35,1.25-4,.66-6-3.09-7.83-2.61-1.28-3.35-1-4,1.71-3.07,12.7-6.3,25.36-9.45,38C96.59,165.69,97.88,167.36,102.05,167.57Zm26.35,13c2.4.08,9.29-6.59,9.33-9s-2.78-4.54-4.86-3.22a21.69,21.69,0,0,0-7.52,7.65C124.19,178.06,126,180.47,128.4,180.55Zm25.2,6.79c-2.36-.06-9.23,6.65-9.27,9,0,2.66,3,4.65,5.21,3a36,36,0,0,0,6.84-6.78A3.35,3.35,0,0,0,153.6,187.34Zm13.13,13.07a3.65,3.65,0,0,0-1.84-3,3.08,3.08,0,0,0-3.94.33q-3.15,2.87-6,6a3.36,3.36,0,0,0-.44,4,3.22,3.22,0,0,0,3.19,1.78C159.85,209.5,166.6,202.83,166.73,200.41ZM143.85,177.6c-2.41,0-9.12,6.85-9.07,9.27a3.31,3.31,0,0,0,5.23,2.81,26.44,26.44,0,0,0,6.8-6.83A3.45,3.45,0,0,0,143.85,177.6Zm28.47,27.3c-1.31,1.75-3.46,3.4-3.59,5.19s2.33,3,4.44,2.74,3.36-1.44,3.07-3.67S174.23,206.05,172.32,204.9Z"/></g></g></svg>