<svg xmlns="http://www.w3.org/2000/svg" viewBox="0 0 325.58 223.48"><defs><style>.cls-1{isolation:isolate;}.cls-2{fill:#fff;mix-blend-mode:soft-light;}.cls-3{fill:#c6875e;}</style></defs><g class="cls-1"><g id="Capa_1" data-name="Capa 1"><path class="cls-2" d="M286.17,151.6c-4.66-9.65-11.28-19.7-11.06-30.78.22-11.48,6.74-21.17,8.75-32.22,2.49-13.73-4-27.27-13-37.43-8.9-10-20.58-17.13-32.67-22.8C211.42,15.86,181.72,14.11,153.93,5a46.63,46.63,0,0,1,9.25,1.22c-26.57-7-58.74-4.33-81.73,11.48C69.9,25.68,59.23,37.26,55.54,50.93c-3.51,13,5.59,23.57,7,36s-7.81,21.37-15.07,30.39C38,129.14,32.21,144,33.57,159.22c1.32,14.88,8.57,28.48,19.11,39.08,9.73,9.77,22.95,18.79,37.35,19.33,14.84.55,28-7,41.61-11.69a72.47,72.47,0,0,1,36.08-3.38c11.35,1.9,22.06,6.05,32.82,9.95,11.05,4,22.41,7.77,34.27,8.39s24.62-1.41,34.91-7.77a46.07,46.07,0,0,0,19.85-25.67c1.77-5.72,3-11.92,2.32-17.91C291.19,163.24,288.93,157.3,286.17,151.6Z"/><path class="cls-3" d="M168.78,190.75c-24.86,0-49.71.06-74.56-.05-4.17,0-9.35,1.83-12.26-1-3.07-2.95-.73-8.13-1.13-12.32-.17-1.78,0-3.59,0-5.39s.54-3.28,2.52-3.35S86,170.14,86,171.9c0,3.48.15,7,0,10.45-.12,2.41.5,3.39,3.2,3.33,7.9-.17,15.8-.12,23.7,0,2.15,0,3.06-.47,3-2.8-.16-5.73-.09-11.47,0-17.2A5.49,5.49,0,0,0,114.5,162c-2.33-2.91-4.57-5.9-6.85-8.86-1.14-1.48-1.82-3.06,0-4.38s3-.11,4,1.24c3.31,4.31,6.68,8.58,9.9,12.95a6.74,6.74,0,0,0,6.08,3c6.3-.14,12.6,0,18.9-.06,3.85,0,5.81-1.67,5.75-4.7-.06-2.84-2-4.49-5.63-4.56-4.36-.07-8.73-.28-13.05.06-3.8.3-6.13-1.06-8.22-4.08-3.33-4.84-7.14-9.35-10.67-14.06-1.75-2.32-3.39-3.08-6.32-1.4-4.61,2.64-9.62,2.58-14.52.43-4.35-1.92-7.54-.23-7.84,4.57s0,9.45-.17,14.16c-.08,2.24,1.16,5.83-2.71,5.73-3.54-.09-2.32-3.52-2.39-5.67-.14-4.16,0-8.32-.07-12.48a12.37,12.37,0,0,1,4.79-10.67c.77-.61,1.8-1,1-2.37-2.37-3.84-2.28-8.14-2.21-12.43,0-3.26-.06-6.53,0-9.78.17-6.23,4.3-10.32,10.61-10.46,4-.1,8-.11,12,0,6.16.17,10.23,4.25,10.33,10.31.08,5,0,9.9,0,14.84a4.78,4.78,0,0,1-.21,2.33c-2.89,4.62-.38,7.7,2.66,11.06a117.14,117.14,0,0,1,9.31,12.1,5.75,5.75,0,0,0,6,2.8,14.58,14.58,0,0,1,3.43,0c2.43.3,3.37-.68,3.06-3-.09-.66.06-1.36,0-2-1.09-8,2.44-13.44,9.83-16.61,1.24-.54,1.54-1.1,1.22-2.55-1.47-6.66-.93-13.45-.57-20.16.29-5.27,4.48-8.91,9.78-9,6.53-.17,13.06,0,19.59-.08,2.49,0,3.54,1.11,3.43,3.5-.36,8.63.77,17.3-.69,25.9a1.42,1.42,0,0,0,1,1.85c.54.2,1,.47,1.56.71,6.46,3.06,10.09,7.63,9.56,15.17-.45,6.31-.09,6.22,6.41,6.38a6.45,6.45,0,0,0,6-2.84c4.27-5.54,8-11.54,13.17-16.37.73-.67.88-1.22.41-2-2.18-3.7-1.88-7.79-1.86-11.83,0-3.49-.07-7,0-10.46a9.92,9.92,0,0,1,10-9.93c4.35-.14,8.71-.14,13.05,0,4.94.17,9,3.28,9.55,8.1.74,6.8,1.3,13.79-.38,20.45-.93,3.67-1.82,6.3,1.83,9,1.87,1.36,2.39,4,2.41,6.48,0,5.51,0,11,0,16.53,0,1.78-.48,3.32-2.47,3.39-2.23.07-2.73-1.62-2.73-3.49,0-5,0-9.9,0-14.85,0-2.19-.29-4.27-2-5.9-1.49-1.43-2.86-2.07-5.1-.83a15.4,15.4,0,0,1-15.72-.09c-2.63-1.5-4.19-.79-5.78,1.3-4,5.23-8.08,10.35-12,15.64a5.84,5.84,0,0,1-5.42,2.72c-4.81-.15-9.62-.08-14.43,0-3.89,0-5.92,1.66-6,4.59,0,3.09,2,4.67,6.11,4.69,6.19,0,12.38-.1,18.56,0a6.79,6.79,0,0,0,6.09-3c3.18-4.26,6.45-8.46,9.69-12.68,1.08-1.41,2.33-2.84,4.23-1.48,2.07,1.47,1.17,3.32-.21,4.62-7.13,6.65-8.76,14.81-8,24.14.64,8.08.13,8.12,8.26,8.12,6.3,0,12.6-.06,18.9,0,2,0,2.89-.55,2.8-2.66-.14-3.37,0-6.75,0-10.12,0-2,0-4.24,2.71-4.17,2.44.06,2.5,2.14,2.49,4,0,4.38,0,8.77,0,13.15s-.35,4.86-4.86,4.86H168.78Zm.32-19.69c-15,0-30,.06-45-.06-2.6,0-3.45.73-3.25,3.24a41,41,0,0,1,0,7.75c-.34,3.12,1,3.7,3.88,3.69,22.68-.11,45.36-.06,68-.06,7,0,14-.09,21,0,2.44,0,3.22-.78,3.08-3.1a50.81,50.81,0,0,1,0-8.09c.29-2.95-1-3.5-3.71-3.48C198.42,171.12,183.76,171.05,169.1,171.06Zm-12.31-5.36h23.83c-1.45-8.86.44-11.88,8.84-14.11.73-.2,1.13-.38,1.35-1.17,2.06-7.36-.33-12.87-6.89-16.06-1.85-.9-3.09-.89-4.79.6a16.35,16.35,0,0,1-20,1.31c-4.21-2.82-4.91-2.74-9,.2a7.61,7.61,0,0,0-3.36,7.58,27.55,27.55,0,0,1,0,4.72c-.11,1.8.15,2.92,2.47,2.95a8.13,8.13,0,0,1,5.68,2.84C158,157.78,158.21,161.55,156.79,165.7Zm11.66-50.51H165c-8.35,0-8.35,0-7.93,8.18A11.26,11.26,0,0,0,167.22,134a11.4,11.4,0,0,0,12-8.12c.88-3,.37-6,.52-9,.07-1.46-.84-1.61-2-1.6C174.63,115.21,171.54,115.2,168.45,115.19Zm-67.37-12.08c-1.83,0-3.66,0-5.49,0-4,.11-5.88,1.9-6,5.79-.07,3.37.09,6.75-.06,10.11-.09,2.09.83,2.74,2.78,2.87,4.89.33,7.7-2.13,8.81-7.89s1.14-5.75,6.24-3.27c.5.24,1.06.39,1.59.59,2.31.86,3.43.34,3.27-2.33-.22-3.76-2.13-5.75-6-5.87C104.52,103.07,102.8,103.11,101.08,103.11Zm135.63.09a55.85,55.85,0,0,0-6.85.06,4.83,4.83,0,0,0-4.32,4.21c-.25,1.3-.8,3.15.31,3.82,1.83,1.11,3.69-.19,5.37-1.15,3.19-1.81,4.51-1.2,5,2.34a14.59,14.59,0,0,0,2,6.38,7.7,7.7,0,0,0,8.2,2.85c3-1,1-3.46,1.54-5.2a8.77,8.77,0,0,0,0-2.35C248,103.12,248,103.11,236.71,103.2ZM90.54,126.75c1.91,4.38,5,6.78,9.15,7.17a11.1,11.1,0,0,0,10.38-4.65c2.58-3.4,2.49-7.43,2-11.3-.29-2.51-3.11-.85-4.59-1.72-1.12-.67-1.58.15-1.87,1.14C103.48,124.69,98.34,127.54,90.54,126.75ZM247,127c-9.68-.36-10.59-1-15.11-9.86a1.45,1.45,0,0,0-1.79-1c-4.82.51-4.84.46-4.75,5.44a20.63,20.63,0,0,0,.32,3.33,11.3,11.3,0,0,0,9.77,9C240.2,134.56,244.73,131.92,247,127Zm-78.86-16.91h0c3.2,0,6.39.06,9.59,0s1.67-2.56,1.9-4,.43-3-2-2.91c-5.13.11-10.27,0-15.4.07a5,5,0,0,0-5,3.85c-.54,1.91-.23,3.25,2.37,3.1C162.45,109.94,165.31,110.06,168.16,110.06Z"/><path class="cls-3" d="M211.19,94.87a8.2,8.2,0,0,0,.11-1.55c-.41-3.65.19-6.1,4.83-6.7,3.32-.44,4.93-3.4,4.93-6.83,0-8,.06-16,0-24,0-4.17-2.79-7.2-7-7.24-14-.15-27.94-.05-41.92-.1-1.82,0-2,.92-2,2.33,0,4.61,0,9.22,0,13.83,0,11-4.68,16.33-15.72,17.9a12.84,12.84,0,0,0-1.41.38c1.39,3.13,3.89,4.16,6.93,4.2,4.35.06,8.7,0,13,0,1.85,0,4-.1,4.05,2.47s-2,2.62-3.9,2.61c-4.47,0-8.94,0-13.4,0-5.45-.08-9.46-2.53-11.6-7.46a3.24,3.24,0,0,0-3.55-2.26q-15.47.12-30.92,0a5.37,5.37,0,0,0-4.19,1.82c-2.93,3-6,5.9-9,8.84-1,1-2,1.9-3.59,1.24s-1.69-2-1.65-3.36c0-.23,0-.46,0-.68.5-4.69.23-8.35-5.59-10.48-5.06-1.85-7.33-7-7.41-12.41-.14-9.67-.17-19.34,0-29a15.26,15.26,0,0,1,15.42-15q28.51-.19,57,0A15.17,15.17,0,0,1,170,39.24c-.05,3.56,1,4.45,4.52,4.39,12.71-.22,25.42-.11,38.13-.08,8.63,0,13.58,4.88,13.65,13.42.06,7.31,0,14.62,0,21.93,0,5.85-2.43,10.25-8.07,12.49-1.67.67-1.93,1.6-1.89,3.06.06,2.14,0,4.27,0,6.41,0,1.39-.06,2.77-1.65,3.37s-2.59-.38-3.58-1.36c-3-2.94-6.06-5.82-9-8.85a5.44,5.44,0,0,0-4.52-1.79c-3.54.11-7.09,0-10.64,0-1.83,0-3.23-.59-3.19-2.65,0-1.91,1.45-2.39,3.08-2.41,4.58,0,9.16,0,13.74,0,2.3,0,3.44,1.58,4.76,2.92,1.72,1.73,3.32,3.57,5,5.36ZM100.74,86.08c2.13-2.22,3.74-3.66,5.05-5.31,2.17-2.74,4.87-3.48,8.37-3.43,13.28.19,26.57.11,39.86,0,6.2,0,10.66-4,10.76-9.91q.24-14.51,0-29A9.62,9.62,0,0,0,155,28.69q-28.86-.23-57.73,0a9.53,9.53,0,0,0-9.72,9.47c-.21,9.89-.18,19.79,0,29.68.09,4.67,3.42,8.8,8,9.2s5.26,2.63,4.9,6.24A23.72,23.72,0,0,0,100.74,86.08Z"/><path class="cls-3" d="M126.16,37.09h22.3c1.9,0,4,0,3.95,2.59s-2,2.57-4,2.57h-44.6c-1.92,0-3.95-.09-3.95-2.58s2.06-2.58,4-2.59Z"/><path class="cls-3" d="M126.54,50.42h22c1.93,0,3.94.07,3.92,2.59s-2.12,2.54-4,2.55H103.83c-1.91,0-4-.09-3.94-2.62s2.09-2.53,4-2.52Z"/><path class="cls-3" d="M114.16,68.77H102.84c-1.72,0-3-.64-3-2.48s1.24-2.49,3-2.49q11.49,0,23,0c1.62,0,2.74.76,2.83,2.31.1,1.75-1.06,2.63-2.83,2.63C121.94,68.78,118.05,68.77,114.16,68.77Z"/></g></g></svg>