<svg xmlns="http://www.w3.org/2000/svg" viewBox="0 0 191.66 191.98"><defs><style>.cls-1{fill:#c6875e;stroke:#c6875e;stroke-miterlimit:10;stroke-width:5px;}</style></defs><g id="Capa_2" data-name="Capa 2"><g id="Capa_1-2" data-name="Capa 1"><path class="cls-1" d="M95.83,2.5A93.49,93.49,0,1,1,2.5,95.86C2.56,44.28,44.4,2.42,95.83,2.5ZM96,10.06a86,86,0,0,0-.2,172c47.24,0,85.9-38.63,86-86A86,86,0,0,0,96,10.06Z"/><path class="cls-1" d="M99.55,70.7v20q0,19.44,0,38.87c0,2.69-1,4.77-3.9,4.7-2.65-.06-3.66-2.06-3.54-4.62,0-.85,0-1.71,0-2.56V71.81c-1.63-.18-2.07,1-2.76,1.75-5,5.19-10,10.44-14.93,15.65-1.66,1.73-3.56,2.86-5.71.89s-1.56-4.1.29-6q11.86-12.5,23.74-25c2.1-2.21,4.18-2,6.26.19q11.58,12.26,23.23,24.46c1.91,2,3,4.16.67,6.34s-4.41.57-6.21-1.33C111.25,83,105.77,77.23,99.55,70.7Z"/></g></g></svg>