<svg xmlns="http://www.w3.org/2000/svg" viewBox="0 0 180.55 180.4"><defs><style>.cls-1{fill:#c6875e;}</style></defs><g id="Capa_2" data-name="Capa 2"><g id="Capa_1-2" data-name="Capa 1"><path class="cls-1" d="M89.58,0c52.82,0,94.28,44.19,90.76,96a89.21,89.21,0,0,1-14.47,43.22c-2.62,4-6.66,5.24-10.19,3.08s-4.45-6.31-1.81-10.44a77.08,77.08,0,0,0,12.5-44.35c-.88-36.75-30.42-68.86-67-72.78C58.14,10.34,22.42,37.22,15.11,78.19c-7,39.33,21.1,79.57,60.53,86.71A76.46,76.46,0,0,0,128,156.29c1.85-1,3.67-2.19,5.92-1.9a6.77,6.77,0,0,1,6.21,5.41c.83,3.51-.71,6.14-3.76,8a88.62,88.62,0,0,1-29.13,11.05A90.17,90.17,0,0,1,4.1,117C-12.45,64.14,22.94,8.3,77.7.9A66.83,66.83,0,0,1,89.58,0Z"/><path class="cls-1" d="M62,83.18h69.27a27.34,27.34,0,0,1,3.51.08,7,7,0,0,1,.13,13.93,25.64,25.64,0,0,1-3.51.1H62c-.19,1.48,1,1.91,1.65,2.58q10.81,10.84,21.7,21.61a9.57,9.57,0,0,1,2.81,4,7.09,7.09,0,0,1-2.88,8,6.67,6.67,0,0,1-8.71-.93c-9.63-9.45-19.37-18.8-28.64-28.61a20.14,20.14,0,0,1,.14-27.57c9.22-9.69,18.85-19,28.41-28.35a6.82,6.82,0,0,1,10.06,0c2.69,2.79,2.65,7-.38,10.09C79,65.38,71.71,72.55,64.45,79.73c-.92.9-2,1.64-3,2.46Z"/></g></g></svg>