<svg xmlns="http://www.w3.org/2000/svg" viewBox="0 0 180.55 180.4"><defs><style>.cls-1{fill:#c6875e;}</style></defs><g id="Capa_2" data-name="Capa 2"><g id="Capa_1-2" data-name="Capa 1"><path class="cls-1" d="M91,0C38.15.07-3.31,44.23.21,96a89.21,89.21,0,0,0,14.47,43.22c2.62,4,6.66,5.24,10.19,3.08s4.46-6.31,1.81-10.44a77.08,77.08,0,0,1-12.5-44.35c.88-36.75,30.42-68.86,67-72.78,41.23-4.43,76.95,22.45,84.26,63.42,7,39.33-21.1,79.57-60.53,86.71a76.46,76.46,0,0,1-52.37-8.61c-1.85-1-3.67-2.19-5.92-1.9a6.77,6.77,0,0,0-6.21,5.41c-.83,3.51.71,6.14,3.76,8a88.67,88.67,0,0,0,29.14,11.05A90.17,90.17,0,0,0,176.46,117C193,64.14,157.61,8.3,102.85.9A66.83,66.83,0,0,0,91,0Z"/><path class="cls-1" d="M118.58,83.18H49.31a27.34,27.34,0,0,0-3.51.08,7,7,0,0,0-.13,13.93,25.64,25.64,0,0,0,3.51.1h69.38c.19,1.48-1,1.91-1.65,2.58q-10.8,10.84-21.7,21.61a9.57,9.57,0,0,0-2.81,4,7.09,7.09,0,0,0,2.88,8,6.67,6.67,0,0,0,8.71-.93c9.63-9.45,19.37-18.8,28.64-28.61a20.14,20.14,0,0,0-.14-27.57c-9.22-9.69-18.85-19-28.4-28.35A6.83,6.83,0,0,0,94,48c-2.69,2.79-2.65,7,.38,10.09,7.18,7.26,14.45,14.43,21.7,21.61.92.9,2,1.64,3,2.46Z"/></g></g></svg>