<svg xmlns="http://www.w3.org/2000/svg" viewBox="0 0 926.68 136.19"><defs><style>.cls-1{fill:#1d1d1b;}.cls-2{fill:#fdce75;}.cls-3{fill:#6c280d;}</style></defs><g id="Capa_2" data-name="Capa 2"><g id="Capa_1-2" data-name="Capa 1"><path class="cls-1" d="M98.57,3.79,95.34,22.43H91.68L94.9,3.79Zm4.3,7.92-.55,3.1H95.71l.55-3.1Zm2-7.92-.54,3.12H97.09l.54-3.12Z" transform="translate(0 -2.77)"/><path class="cls-1" d="M109.69,8.58,107.3,22.43h-3.52l2.4-13.85Zm-3-3.54a1.91,1.91,0,0,1,.52-1.4,1.88,1.88,0,0,1,1.4-.58,1.77,1.77,0,0,1,1.34.52,1.8,1.8,0,0,1,.54,1.35,2,2,0,0,1-.51,1.4,1.85,1.85,0,0,1-1.4.58,1.73,1.73,0,0,1-1.34-.5A1.85,1.85,0,0,1,106.65,5Z" transform="translate(0 -2.77)"/><path class="cls-1" d="M119.46,8.58h3.2l-2.37,13.84a6.82,6.82,0,0,1-1,3,5.38,5.38,0,0,1-2.16,1.88,6.55,6.55,0,0,1-3.12.6,7.44,7.44,0,0,1-1.47-.21,6.43,6.43,0,0,1-1.42-.55,5,5,0,0,1-1.18-.9l1.44-2.46a3.84,3.84,0,0,0,1.21.89A3.74,3.74,0,0,0,114,25a2.69,2.69,0,0,0,1.42-.29,2.38,2.38,0,0,0,.9-.91,4.09,4.09,0,0,0,.46-1.37l1.83-10.86Zm-8.72,7.5.1-.91a15.1,15.1,0,0,1,.48-2.39,9.06,9.06,0,0,1,1-2.25,4.86,4.86,0,0,1,1.61-1.64,4.16,4.16,0,0,1,2.4-.57,2.82,2.82,0,0,1,1.93.71,3.83,3.83,0,0,1,1,1.69,8.63,8.63,0,0,1,.37,2.14,14.14,14.14,0,0,1,0,2.06l-.18,1.33a14.57,14.57,0,0,1-.53,2.09,10.21,10.21,0,0,1-1,2.13,5.72,5.72,0,0,1-1.48,1.64,3.74,3.74,0,0,1-4.17-.07,3.79,3.79,0,0,1-1.13-1.65,7.47,7.47,0,0,1-.44-2.14A13,13,0,0,1,110.74,16.08Zm3.63-1-.12.94c0,.3,0,.65-.08,1.07a6.1,6.1,0,0,0,.06,1.21,2,2,0,0,0,.42,1,1.23,1.23,0,0,0,1,.41,1.92,1.92,0,0,0,1.39-.38,2.79,2.79,0,0,0,.84-1.12,6.13,6.13,0,0,0,.4-1.37l.34-2.45a8,8,0,0,0,0-1,4,4,0,0,0-.18-1,1.6,1.6,0,0,0-.48-.75,1.49,1.49,0,0,0-.93-.32,1.89,1.89,0,0,0-1.26.31,2.67,2.67,0,0,0-.77.95,5.6,5.6,0,0,0-.44,1.25A10.28,10.28,0,0,0,114.37,15.08Z" transform="translate(0 -2.77)"/><path class="cls-1" d="M130.69,16.2l.86,0a17.22,17.22,0,0,1-.38,2.2,8.53,8.53,0,0,1-.81,2.15,4.39,4.39,0,0,1-1.4,1.61,3.46,3.46,0,0,1-2.19.58,3.11,3.11,0,0,1-1.73-.49,2.89,2.89,0,0,1-1-1.22,5,5,0,0,1-.41-1.66,8.92,8.92,0,0,1,0-1.79l1.5-9h3.49l-1.48,9c0,.2,0,.41,0,.65a2.61,2.61,0,0,0,.06.69,1.16,1.16,0,0,0,.28.54.82.82,0,0,0,.62.23,1.83,1.83,0,0,0,1.5-.5,3.25,3.25,0,0,0,.78-1.4A10.26,10.26,0,0,0,130.69,16.2Zm-.78,2.71L131.7,8.58h3.54l-2.41,13.85h-3.29Z" transform="translate(0 -2.77)"/><path class="cls-1" d="M140.68,11.86l-1.85,10.57h-3.49l2.41-13.85h3.3Zm3.66-3.4L143.87,12,143.3,12a3.82,3.82,0,0,0-.57,0,2.53,2.53,0,0,0-1.14.21,2.21,2.21,0,0,0-.8.65,3.45,3.45,0,0,0-.54.94,6.85,6.85,0,0,0-.33,1.09l-.6-.27c.06-.53.17-1.15.31-1.86a10.84,10.84,0,0,1,.66-2.07,4.67,4.67,0,0,1,1.14-1.66,2.6,2.6,0,0,1,1.82-.66,3.31,3.31,0,0,1,.55.07Z" transform="translate(0 -2.77)"/><path class="cls-1" d="M151.6,14l-.36,2.15H150.1a2.63,2.63,0,0,0-.91.18,2.49,2.49,0,0,0-.75.49,2.42,2.42,0,0,0-.51.72,2.85,2.85,0,0,0-.26.9,2.51,2.51,0,0,0,0,.67,1,1,0,0,0,.25.57.76.76,0,0,0,.6.24,2.32,2.32,0,0,0,.89-.18,1.94,1.94,0,0,0,.73-.53,1.7,1.7,0,0,0,.36-.82l.61,1.43a5.78,5.78,0,0,1-.54,1.12,4.12,4.12,0,0,1-.76.94,3.58,3.58,0,0,1-1,.65,3,3,0,0,1-1.26.22,3.2,3.2,0,0,1-1.91-.58,3.5,3.5,0,0,1-1.21-1.48,4.41,4.41,0,0,1-.35-2,4.66,4.66,0,0,1,.57-2.13A4.4,4.4,0,0,1,146,15.08a5.87,5.87,0,0,1,1.86-.85A8.68,8.68,0,0,1,150,14Zm-1.34,5.27,1-6.41a4.89,4.89,0,0,0,0-.77,1.18,1.18,0,0,0-.21-.66.86.86,0,0,0-.67-.29,1.37,1.37,0,0,0-.82.22,1.49,1.49,0,0,0-.47.6,3.22,3.22,0,0,0-.24.78l-3.5,0a4.21,4.21,0,0,1,.53-1.88,4.48,4.48,0,0,1,1.2-1.4,5.36,5.36,0,0,1,1.68-.87,5.92,5.92,0,0,1,1.92-.28,4.71,4.71,0,0,1,2.34.6,3.41,3.41,0,0,1,1.41,1.59,4.68,4.68,0,0,1,.31,2.39l-1,6.19c-.08.5-.14,1-.19,1.57a3.66,3.66,0,0,0,.18,1.55l0,.23-3.42,0a5.13,5.13,0,0,1-.2-1.6C150.15,20.31,150.19,19.77,150.26,19.24Z" transform="translate(0 -2.77)"/><path class="cls-1" d="M172.51,3.76l-3.16,18.67h-3.5l2.46-14.2-3.68,1.36.54-3.15,6.89-2.69Z" transform="translate(0 -2.77)"/><path class="cls-1" d="M186.86,11.47l-.5,3.23a17.81,17.81,0,0,1-.61,2.76,10.61,10.61,0,0,1-1.14,2.62A6,6,0,0,1,182.75,22a4.83,4.83,0,0,1-2.78.67,4,4,0,0,1-2.08-.55,3.88,3.88,0,0,1-1.3-1.37,6.25,6.25,0,0,1-.66-1.88,11.3,11.3,0,0,1-.19-2.12,16.81,16.81,0,0,1,.14-2.06l.48-3.24A19.09,19.09,0,0,1,177,8.73a11,11,0,0,1,1.15-2.61A5.92,5.92,0,0,1,180,4.2a4.86,4.86,0,0,1,2.79-.67,3.94,3.94,0,0,1,2.07.55,3.77,3.77,0,0,1,1.3,1.36,6.25,6.25,0,0,1,.66,1.88,11.24,11.24,0,0,1,.19,2.1A16.65,16.65,0,0,1,186.86,11.47Zm-4.06,3.74.62-4.28c0-.19.06-.47.11-.81s.07-.73.09-1.14a6.29,6.29,0,0,0-.07-1.16,2.15,2.15,0,0,0-.34-.93,1,1,0,0,0-.78-.4,1.47,1.47,0,0,0-1.22.44,3.27,3.27,0,0,0-.72,1.24,9.13,9.13,0,0,0-.38,1.52c-.08.5-.14.92-.19,1.26l-.6,4.27c0,.19,0,.46-.1.82s-.08.73-.1,1.14a9.24,9.24,0,0,0,0,1.19,2,2,0,0,0,.34.94,1,1,0,0,0,.77.41,1.46,1.46,0,0,0,1.23-.43,3.22,3.22,0,0,0,.73-1.27,9.47,9.47,0,0,0,.38-1.55Q182.74,15.71,182.8,15.21Z" transform="translate(0 -2.77)"/><path class="cls-1" d="M188.07,20.68a2,2,0,0,1,.57-1.48,2.09,2.09,0,0,1,1.49-.6,2,2,0,0,1,1.41.53,1.85,1.85,0,0,1,.6,1.4,1.94,1.94,0,0,1-.58,1.46,2.15,2.15,0,0,1-2.9.07A1.8,1.8,0,0,1,188.07,20.68Z" transform="translate(0 -2.77)"/><path class="cls-1" d="M207,3.79l-3.24,18.64H201.5l3.22-18.64Zm6.15,8-.36,2H205l.35-2Zm3.4-8-3.24,18.64h-2.29l3.23-18.64Z" transform="translate(0 -2.77)"/><path class="cls-1" d="M222,22.69a4.66,4.66,0,0,1-2.24-.54,3.64,3.64,0,0,1-1.4-1.38,5.66,5.66,0,0,1-.66-2,8.82,8.82,0,0,1,0-2.3l.19-1.56a11.52,11.52,0,0,1,.58-2.42,8,8,0,0,1,1.14-2.15,5.21,5.21,0,0,1,1.76-1.54,4.85,4.85,0,0,1,2.46-.51A4,4,0,0,1,226,9a3.52,3.52,0,0,1,1.2,1.54,6.26,6.26,0,0,1,.44,2.08,13.38,13.38,0,0,1-.08,2.28l-.19,1.32h-8.42l.35-1.93h6.12l.05-.34a7.85,7.85,0,0,0,0-1.61,2.62,2.62,0,0,0-.49-1.41,1.69,1.69,0,0,0-1.38-.63,2.62,2.62,0,0,0-1.63.37,3.21,3.21,0,0,0-1,1.14,6.57,6.57,0,0,0-.6,1.55,12.68,12.68,0,0,0-.3,1.62l-.2,1.58a11.42,11.42,0,0,0-.05,1.44,4.56,4.56,0,0,0,.25,1.36,2.16,2.16,0,0,0,.73,1,2.4,2.4,0,0,0,1.4.42,3.57,3.57,0,0,0,1.8-.41,5.74,5.74,0,0,0,1.47-1.16l1.07,1.45a4.81,4.81,0,0,1-1.27,1.16,5.18,5.18,0,0,1-1.56.68A6.15,6.15,0,0,1,222,22.69Z" transform="translate(0 -2.77)"/><path class="cls-1" d="M233.88,20.78a2.44,2.44,0,0,0,1.41-.34,2.85,2.85,0,0,0,1-1,5.25,5.25,0,0,0,.52-1.37l2.08,0a6.06,6.06,0,0,1-.88,2.37,5.26,5.26,0,0,1-1.76,1.69,4.66,4.66,0,0,1-2.45.59,4.34,4.34,0,0,1-2.26-.58,3.77,3.77,0,0,1-1.36-1.47,5.82,5.82,0,0,1-.59-2,9.92,9.92,0,0,1,0-2.31l.21-1.57a11.06,11.06,0,0,1,.59-2.43,7.08,7.08,0,0,1,1.14-2.08,5.05,5.05,0,0,1,1.78-1.43,5.31,5.31,0,0,1,2.49-.46,3.88,3.88,0,0,1,2.33.74,4,4,0,0,1,1.27,1.84,6.58,6.58,0,0,1,.33,2.45h-2.07a5.53,5.53,0,0,0-.12-1.41,2.3,2.3,0,0,0-.57-1.17,1.78,1.78,0,0,0-1.3-.5,3,3,0,0,0-1.63.34,3.22,3.22,0,0,0-1.07,1,5.72,5.72,0,0,0-.63,1.47,11.8,11.8,0,0,0-.33,1.61l-.2,1.58c-.05.46-.09.95-.1,1.46a5.71,5.71,0,0,0,.15,1.45,2.15,2.15,0,0,0,.65,1.11A2.18,2.18,0,0,0,233.88,20.78Z" transform="translate(0 -2.77)"/><path class="cls-1" d="M246.27,2.77l-3.41,19.66h-2.22l3.42-19.66ZM243.7,15l-.81,0a14.81,14.81,0,0,1,.5-2.27,8.9,8.9,0,0,1,1-2.2A4.84,4.84,0,0,1,246,8.89a3.89,3.89,0,0,1,2.3-.57,2.92,2.92,0,0,1,1.67.49,2.76,2.76,0,0,1,.93,1.2,5.5,5.5,0,0,1,.37,1.61,10,10,0,0,1,0,1.73l-1.51,9.08h-2.22L249,13.32A8.8,8.8,0,0,0,249,12a2.2,2.2,0,0,0-.39-1.16,1.44,1.44,0,0,0-1.19-.51,2.54,2.54,0,0,0-1.55.44,3.85,3.85,0,0,0-1.1,1.2,6.87,6.87,0,0,0-.71,1.56A9.23,9.23,0,0,0,243.7,15Z" transform="translate(0 -2.77)"/><path class="cls-1" d="M253.59,16.17l.16-1.3a10.63,10.63,0,0,1,.62-2.42,8.23,8.23,0,0,1,1.21-2.13,5.65,5.65,0,0,1,1.83-1.5,5,5,0,0,1,2.47-.5,4.21,4.21,0,0,1,2.22.62,4.07,4.07,0,0,1,1.38,1.53,6.53,6.53,0,0,1,.64,2.09,9.23,9.23,0,0,1,0,2.29L264,16.17a10.3,10.3,0,0,1-.62,2.41,7.55,7.55,0,0,1-1.21,2.13,5.72,5.72,0,0,1-1.83,1.49,5.06,5.06,0,0,1-2.47.49,4,4,0,0,1-2.22-.62,4.12,4.12,0,0,1-1.37-1.53,6.47,6.47,0,0,1-.65-2.09A9.66,9.66,0,0,1,253.59,16.17ZM256,14.85l-.17,1.35a12.46,12.46,0,0,0-.05,1.41,5.51,5.51,0,0,0,.22,1.48,2.54,2.54,0,0,0,.68,1.17,2,2,0,0,0,1.34.51,2.83,2.83,0,0,0,1.64-.36,3.46,3.46,0,0,0,1.12-1.1,5.76,5.76,0,0,0,.68-1.51,9.7,9.7,0,0,0,.35-1.63l.17-1.33a12.55,12.55,0,0,0,.05-1.41,5.64,5.64,0,0,0-.22-1.48,2.68,2.68,0,0,0-.69-1.18,1.92,1.92,0,0,0-1.35-.51,2.75,2.75,0,0,0-1.58.37A3.63,3.63,0,0,0,257,11.75a6.68,6.68,0,0,0-.71,1.53A8.81,8.81,0,0,0,256,14.85Z" transform="translate(0 -2.77)"/><path class="cls-1" d="M272.86,18.78a1.46,1.46,0,0,0-.23-1.08,2.83,2.83,0,0,0-.82-.75c-.34-.2-.67-.39-1-.55s-.87-.45-1.29-.69a5.73,5.73,0,0,1-1.1-.82,3.32,3.32,0,0,1-.76-1.07,3.19,3.19,0,0,1-.22-1.46,4.18,4.18,0,0,1,.45-1.68A4.26,4.26,0,0,1,269,9.39a5,5,0,0,1,1.47-.81,5,5,0,0,1,1.72-.26,4.21,4.21,0,0,1,2.13.57,3.51,3.51,0,0,1,1.34,1.49,4.4,4.4,0,0,1,.41,2.16l-2.19,0a2.77,2.77,0,0,0-.16-1.09,1.71,1.71,0,0,0-.6-.82,1.74,1.74,0,0,0-1.06-.33,2.53,2.53,0,0,0-1.13.25,2.07,2.07,0,0,0-.83.69,2.32,2.32,0,0,0-.42,1.06,1.37,1.37,0,0,0,.08.77,1.59,1.59,0,0,0,.43.57,2.87,2.87,0,0,0,.64.43c.23.13.46.24.69.35a18.75,18.75,0,0,1,1.77,1,4.52,4.52,0,0,1,1.36,1.28,3.07,3.07,0,0,1,.46,1.94,4.14,4.14,0,0,1-.48,1.76,4,4,0,0,1-1.08,1.29,4.8,4.8,0,0,1-1.52.8,5.64,5.64,0,0,1-1.8.24,4.7,4.7,0,0,1-2.25-.59,3.81,3.81,0,0,1-1.48-1.55,4.45,4.45,0,0,1-.47-2.28h2.23a3.16,3.16,0,0,0,.18,1.26,1.69,1.69,0,0,0,.67.86,2.23,2.23,0,0,0,1.22.33,3.29,3.29,0,0,0,1.18-.21,2.35,2.35,0,0,0,.93-.64A2,2,0,0,0,272.86,18.78Z" transform="translate(0 -2.77)"/><path class="cls-1" d="M283.92,16.17l.16-1.3a10.65,10.65,0,0,1,.63-2.42,7.69,7.69,0,0,1,1.21-2.13,5.61,5.61,0,0,1,1.82-1.5,5.06,5.06,0,0,1,2.48-.5,4.17,4.17,0,0,1,2.21.62,4.07,4.07,0,0,1,1.38,1.53,6.54,6.54,0,0,1,.65,2.09,9.74,9.74,0,0,1,0,2.29l-.16,1.32a10.82,10.82,0,0,1-.62,2.41,7.83,7.83,0,0,1-1.22,2.13,5.72,5.72,0,0,1-1.83,1.49,5,5,0,0,1-2.47.49,4,4,0,0,1-2.22-.62,4.12,4.12,0,0,1-1.37-1.53,6.22,6.22,0,0,1-.64-2.09A9.16,9.16,0,0,1,283.92,16.17Zm2.38-1.32-.17,1.35a12.46,12.46,0,0,0-.05,1.41,5.51,5.51,0,0,0,.22,1.48,2.63,2.63,0,0,0,.68,1.17,2,2,0,0,0,1.34.51,2.89,2.89,0,0,0,1.65-.36,3.33,3.33,0,0,0,1.11-1.1,5.78,5.78,0,0,0,.69-1.51,10.75,10.75,0,0,0,.34-1.63l.17-1.33a12.55,12.55,0,0,0,.05-1.41,5.64,5.64,0,0,0-.22-1.48,2.57,2.57,0,0,0-.68-1.18,1.92,1.92,0,0,0-1.35-.51,2.71,2.71,0,0,0-1.58.37,3.52,3.52,0,0,0-1.12,1.12,6.71,6.71,0,0,0-.72,1.53A9.78,9.78,0,0,0,286.3,14.85Z" transform="translate(0 -2.77)"/><path class="cls-1" d="M299.44,2.77h2.21l-3,17.11-.61,2.55H296ZM307,14.88l-.16,1.28a16.54,16.54,0,0,1-.48,2.3,8.89,8.89,0,0,1-.95,2.15,4.72,4.72,0,0,1-1.56,1.55,4.11,4.11,0,0,1-2.33.53,3,3,0,0,1-1.92-.66,3.66,3.66,0,0,1-1.06-1.58,7.55,7.55,0,0,1-.42-2,13.61,13.61,0,0,1,0-2l.23-1.73a14.65,14.65,0,0,1,.52-2.16,9.38,9.38,0,0,1,1-2.08,4.84,4.84,0,0,1,1.5-1.55,3.71,3.71,0,0,1,2.16-.56,3.45,3.45,0,0,1,2.12.66,3.4,3.4,0,0,1,1.1,1.61,6.87,6.87,0,0,1,.38,2.11A13.2,13.2,0,0,1,307,14.88Zm-2.35,1.29.15-1.3c0-.46.08-.94.1-1.46a5.56,5.56,0,0,0-.11-1.48,2.18,2.18,0,0,0-.61-1.16,2,2,0,0,0-1.38-.48,2.71,2.71,0,0,0-1.28.29,3.46,3.46,0,0,0-1,.79,5.11,5.11,0,0,0-.77,1.11,5.9,5.9,0,0,0-.47,1.22l-.59,3.66a4.37,4.37,0,0,0,.23,1.51,3.05,3.05,0,0,0,.81,1.27,2.09,2.09,0,0,0,1.38.55,2.73,2.73,0,0,0,1.61-.36,3,3,0,0,0,1-1.07,5.76,5.76,0,0,0,.61-1.49A13.32,13.32,0,0,0,304.69,16.17Z" transform="translate(0 -2.77)"/><path class="cls-1" d="M315.74,18.78a1.46,1.46,0,0,0-.23-1.08,2.83,2.83,0,0,0-.82-.75c-.33-.2-.66-.39-1-.55s-.87-.45-1.29-.69a5.73,5.73,0,0,1-1.1-.82,3.32,3.32,0,0,1-.76-1.07,3.19,3.19,0,0,1-.22-1.46,4.18,4.18,0,0,1,.45-1.68,4.26,4.26,0,0,1,1.05-1.29,5,5,0,0,1,1.47-.81A5,5,0,0,1,315,8.32a4.21,4.21,0,0,1,2.13.57,3.6,3.6,0,0,1,1.35,1.49,4.52,4.52,0,0,1,.4,2.16l-2.19,0a2.77,2.77,0,0,0-.16-1.09,1.71,1.71,0,0,0-.6-.82,1.74,1.74,0,0,0-1.06-.33,2.53,2.53,0,0,0-1.13.25,2.07,2.07,0,0,0-.83.69,2.32,2.32,0,0,0-.42,1.06,1.37,1.37,0,0,0,.08.77,1.59,1.59,0,0,0,.43.57,2.87,2.87,0,0,0,.64.43c.23.13.46.24.69.35a18.75,18.75,0,0,1,1.77,1,4.52,4.52,0,0,1,1.36,1.28,3.07,3.07,0,0,1,.46,1.94,4.14,4.14,0,0,1-.48,1.76,4,4,0,0,1-1.08,1.29,4.7,4.7,0,0,1-1.52.8,5.64,5.64,0,0,1-1.8.24,4.7,4.7,0,0,1-2.25-.59,3.81,3.81,0,0,1-1.48-1.55,4.45,4.45,0,0,1-.47-2.28h2.23a3.16,3.16,0,0,0,.18,1.26,1.69,1.69,0,0,0,.67.86,2.23,2.23,0,0,0,1.22.33,3.29,3.29,0,0,0,1.18-.21,2.35,2.35,0,0,0,.93-.64A2,2,0,0,0,315.74,18.78Z" transform="translate(0 -2.77)"/><path class="cls-1" d="M325.15,22.69a4.66,4.66,0,0,1-2.24-.54,3.64,3.64,0,0,1-1.4-1.38,5.66,5.66,0,0,1-.66-2,8.82,8.82,0,0,1,0-2.3l.19-1.56a11.52,11.52,0,0,1,.58-2.42,8,8,0,0,1,1.14-2.15,5.3,5.3,0,0,1,1.76-1.54A4.85,4.85,0,0,1,327,8.32a4,4,0,0,1,2.22.63,3.45,3.45,0,0,1,1.2,1.54,6,6,0,0,1,.44,2.08,13.38,13.38,0,0,1-.08,2.28l-.19,1.32h-8.41l.34-1.93h6.12l.05-.34a7.85,7.85,0,0,0,0-1.61,2.62,2.62,0,0,0-.49-1.41,1.69,1.69,0,0,0-1.38-.63,2.62,2.62,0,0,0-1.63.37,3.1,3.1,0,0,0-1,1.14,6.18,6.18,0,0,0-.61,1.55,12.68,12.68,0,0,0-.3,1.62l-.2,1.58A11.42,11.42,0,0,0,323,18a4.56,4.56,0,0,0,.25,1.36,2.23,2.23,0,0,0,.73,1,2.41,2.41,0,0,0,1.41.42,3.56,3.56,0,0,0,1.79-.41,5.58,5.58,0,0,0,1.47-1.16l1.08,1.45a5,5,0,0,1-1.28,1.16,5.23,5.23,0,0,1-1.55.68A6.22,6.22,0,0,1,325.15,22.69Z" transform="translate(0 -2.77)"/><path class="cls-1" d="M336.31,10.84l-2,11.59h-2.21l2.4-13.85h2.14ZM340,8.49l-.24,2.2-.49-.09a4.21,4.21,0,0,0-.5,0,2.45,2.45,0,0,0-1.3.3,3,3,0,0,0-.94.82,5.41,5.41,0,0,0-.66,1.12,8.45,8.45,0,0,0-.44,1.25l-.65.38c.08-.58.2-1.23.36-1.94a9.81,9.81,0,0,1,.73-2.05,4.49,4.49,0,0,1,1.24-1.59A2.78,2.78,0,0,1,339,8.28a3.85,3.85,0,0,1,.49.07Z" transform="translate(0 -2.77)"/><path class="cls-1" d="M343.28,8.58l1.18,11.92-.09,1.93H343L341.1,8.58Zm.51,11.63,4.67-11.63h2.33l-6.15,13.85H343.1Z" transform="translate(0 -2.77)"/><path class="cls-1" d="M359.13,14l-.27,1.67h-1.41a6.21,6.21,0,0,0-1.35.15,4.32,4.32,0,0,0-1.24.48,2.9,2.9,0,0,0-.95.86,2.73,2.73,0,0,0-.47,1.3,3.16,3.16,0,0,0,.05,1.12,1.35,1.35,0,0,0,.5.78,1.75,1.75,0,0,0,1.07.29,3.17,3.17,0,0,0,1.38-.32,3.68,3.68,0,0,0,1.15-.88,2.7,2.7,0,0,0,.63-1.25l.35,1.07a4.74,4.74,0,0,1-1.41,2.39,4.06,4.06,0,0,1-1.17.76,3.54,3.54,0,0,1-1.38.27,3.47,3.47,0,0,1-2-.52,3.16,3.16,0,0,1-1.18-1.42,4.22,4.22,0,0,1-.3-2,4.55,4.55,0,0,1,.58-2.1,4.46,4.46,0,0,1,1.35-1.48,6,6,0,0,1,1.86-.87,8,8,0,0,1,2.15-.29Zm-1.38,6L359,12.52a3.16,3.16,0,0,0-.07-1.17,1.44,1.44,0,0,0-.53-.8,1.89,1.89,0,0,0-1.14-.29,2.35,2.35,0,0,0-2.05,1,2.79,2.79,0,0,0-.47,1.13h-2.19a4.24,4.24,0,0,1,.53-1.7,4.55,4.55,0,0,1,1.13-1.3,5.37,5.37,0,0,1,1.54-.84,5.19,5.19,0,0,1,1.76-.27,4.22,4.22,0,0,1,2.17.54,3.07,3.07,0,0,1,1.26,1.49,4.67,4.67,0,0,1,.27,2.23L360,19.41a6.86,6.86,0,0,0-.09,1.41c0,.45,0,.92.06,1.39l0,.22-2.22,0a5.36,5.36,0,0,1-.11-1.2A11.91,11.91,0,0,1,357.75,20.06Z" transform="translate(0 -2.77)"/><path class="cls-1" d="M363.57,16.17l.16-1.28a15,15,0,0,1,.5-2.32,8.59,8.59,0,0,1,1-2.15,4.8,4.8,0,0,1,1.6-1.57,4.2,4.2,0,0,1,2.35-.53,2.94,2.94,0,0,1,1.91.67,3.89,3.89,0,0,1,1.05,1.61,7.54,7.54,0,0,1,.41,2,13.56,13.56,0,0,1,0,2l-.23,1.73a14.42,14.42,0,0,1-.52,2.14,8.79,8.79,0,0,1-1,2.08,5.05,5.05,0,0,1-1.5,1.55,3.69,3.69,0,0,1-2.15.54,3.26,3.26,0,0,1-2.06-.67A3.77,3.77,0,0,1,364,20.41a7.26,7.26,0,0,1-.43-2.11A12.51,12.51,0,0,1,363.57,16.17Zm2.37-1.29-.15,1.3c-.05.45-.09.93-.1,1.44a5.79,5.79,0,0,0,.15,1.46,2.28,2.28,0,0,0,.63,1.15,2,2,0,0,0,1.38.47,2.65,2.65,0,0,0,1.63-.47A4.24,4.24,0,0,0,370.69,19a5.93,5.93,0,0,0,.72-1.59L372,13.7a4.55,4.55,0,0,0-.12-1.15,3.49,3.49,0,0,0-.43-1.08,2.56,2.56,0,0,0-.76-.81,2.07,2.07,0,0,0-1.09-.35,2.8,2.8,0,0,0-1.63.36,3,3,0,0,0-1.07,1.08,5.43,5.43,0,0,0-.64,1.5A10.66,10.66,0,0,0,365.94,14.88Zm4.51,4.72,2.92-16.83h2.2l-3.42,19.66h-2Z" transform="translate(0 -2.77)"/><path class="cls-1" d="M376.2,16.17l.16-1.3a10.65,10.65,0,0,1,.63-2.42,7.69,7.69,0,0,1,1.21-2.13A5.61,5.61,0,0,1,380,8.82a5.06,5.06,0,0,1,2.48-.5,4.17,4.17,0,0,1,2.21.62,4.07,4.07,0,0,1,1.38,1.53,6.54,6.54,0,0,1,.65,2.09,9.74,9.74,0,0,1,0,2.29l-.16,1.32a10.82,10.82,0,0,1-.62,2.41,7.83,7.83,0,0,1-1.22,2.13,5.72,5.72,0,0,1-1.83,1.49,5,5,0,0,1-2.47.49,4,4,0,0,1-2.22-.62,4.12,4.12,0,0,1-1.37-1.53,6.22,6.22,0,0,1-.64-2.09A9.16,9.16,0,0,1,376.2,16.17Zm2.38-1.32-.17,1.35a12.46,12.46,0,0,0-.05,1.41,5.51,5.51,0,0,0,.22,1.48,2.63,2.63,0,0,0,.68,1.17,2,2,0,0,0,1.34.51,2.89,2.89,0,0,0,1.65-.36,3.33,3.33,0,0,0,1.11-1.1,5.78,5.78,0,0,0,.69-1.51,10.75,10.75,0,0,0,.34-1.63l.17-1.33a12.55,12.55,0,0,0,.05-1.41,5.64,5.64,0,0,0-.22-1.48,2.57,2.57,0,0,0-.68-1.18,1.92,1.92,0,0,0-1.35-.51,2.71,2.71,0,0,0-1.58.37,3.66,3.66,0,0,0-1.13,1.12,7.13,7.13,0,0,0-.71,1.53A9.78,9.78,0,0,0,378.58,14.85Z" transform="translate(0 -2.77)"/><path class="cls-1" d="M395.47,18.78a1.46,1.46,0,0,0-.23-1.08,2.83,2.83,0,0,0-.82-.75c-.33-.2-.66-.39-1-.55s-.87-.45-1.28-.69a5.51,5.51,0,0,1-1.11-.82,3.32,3.32,0,0,1-.76-1.07,3.19,3.19,0,0,1-.22-1.46,4.18,4.18,0,0,1,.45-1.68,4.26,4.26,0,0,1,1.05-1.29A5,5,0,0,1,393,8.58a4.86,4.86,0,0,1,1.71-.26,4.21,4.21,0,0,1,2.13.57,3.53,3.53,0,0,1,1.35,1.49,4.52,4.52,0,0,1,.4,2.16l-2.19,0a2.77,2.77,0,0,0-.16-1.09,1.76,1.76,0,0,0-.59-.82,1.79,1.79,0,0,0-1.07-.33,2.46,2.46,0,0,0-1.12.25,2.1,2.1,0,0,0-.84.69,2.32,2.32,0,0,0-.42,1.06,1.46,1.46,0,0,0,.08.77,1.72,1.72,0,0,0,.43.57,2.87,2.87,0,0,0,.64.43c.23.13.46.24.7.35a19.9,19.9,0,0,1,1.76,1,4.56,4.56,0,0,1,1.37,1.28,3.13,3.13,0,0,1,.45,1.94,4.28,4.28,0,0,1-.47,1.76,4.12,4.12,0,0,1-1.09,1.29,4.7,4.7,0,0,1-1.52.8,5.64,5.64,0,0,1-1.8.24,4.7,4.7,0,0,1-2.25-.59,3.87,3.87,0,0,1-1.48-1.55,4.45,4.45,0,0,1-.47-2.28h2.23a3.16,3.16,0,0,0,.18,1.26,1.75,1.75,0,0,0,.67.86,2.23,2.23,0,0,0,1.22.33,3.25,3.25,0,0,0,1.18-.21,2.35,2.35,0,0,0,.93-.64A2,2,0,0,0,395.47,18.78Z" transform="translate(0 -2.77)"/><path class="cls-1" d="M409.27,20.86l5.08-12.28h2.42l-7.15,16a10.44,10.44,0,0,1-.64,1.24,6.26,6.26,0,0,1-.84,1.13,3.91,3.91,0,0,1-1.09.82,2.92,2.92,0,0,1-1.36.3,3.38,3.38,0,0,1-.63-.07l-.62-.16.22-1.92.23,0,.23,0a2.31,2.31,0,0,0,1.32-.27,2.7,2.7,0,0,0,.91-.84A5.79,5.79,0,0,0,408,23.7Zm.17-12.28.82,10.87.12,2.46-1.65.83L407.09,8.58Z" transform="translate(0 -2.77)"/><path class="cls-1" d="M426.65,10.84l-2,11.59h-2.22l2.41-13.85H427Zm3.7-2.35-.25,2.2-.49-.09a4.22,4.22,0,0,0-.49,0,2.49,2.49,0,0,0-1.31.3,3,3,0,0,0-.94.82,5.41,5.41,0,0,0-.66,1.12,8.4,8.4,0,0,0-.43,1.25l-.66.38c.08-.58.2-1.23.37-1.94a9.24,9.24,0,0,1,.72-2.05,4.61,4.61,0,0,1,1.24-1.59,2.8,2.8,0,0,1,1.92-.57,4,4,0,0,1,.5.07Z" transform="translate(0 -2.77)"/><path class="cls-1" d="M435.15,22.69a4.66,4.66,0,0,1-2.24-.54,3.64,3.64,0,0,1-1.4-1.38,5.66,5.66,0,0,1-.66-2,9.28,9.28,0,0,1,0-2.3l.19-1.56a11.52,11.52,0,0,1,.58-2.42,8,8,0,0,1,1.14-2.15,5.34,5.34,0,0,1,1.77-1.54A4.79,4.79,0,0,1,437,8.32a4,4,0,0,1,2.22.63,3.45,3.45,0,0,1,1.2,1.54,6,6,0,0,1,.44,2.08,13.38,13.38,0,0,1-.08,2.28l-.19,1.32h-8.41l.34-1.93h6.12l.05-.34a7.85,7.85,0,0,0,0-1.61,2.7,2.7,0,0,0-.48-1.41,1.72,1.72,0,0,0-1.39-.63,2.64,2.64,0,0,0-1.63.37,3.1,3.1,0,0,0-1,1.14,6.18,6.18,0,0,0-.61,1.55,12.68,12.68,0,0,0-.3,1.62L433,16.52A9.8,9.8,0,0,0,433,18a4.56,4.56,0,0,0,.25,1.36,2.23,2.23,0,0,0,.73,1,2.41,2.41,0,0,0,1.41.42,3.56,3.56,0,0,0,1.79-.41,5.58,5.58,0,0,0,1.47-1.16l1.08,1.45a5,5,0,0,1-1.28,1.16,5.23,5.23,0,0,1-1.55.68A6.22,6.22,0,0,1,435.15,22.69Z" transform="translate(0 -2.77)"/><path class="cls-1" d="M451.77,8.58h2l-2.37,14a7.91,7.91,0,0,1-.9,2.78,4.88,4.88,0,0,1-4.71,2.58,5.29,5.29,0,0,1-1.46-.23,6.26,6.26,0,0,1-1.37-.62,4.85,4.85,0,0,1-1.13-.91l1-1.59a4.45,4.45,0,0,0,1.26,1,3.59,3.59,0,0,0,1.57.41,3.25,3.25,0,0,0,1.76-.39,3.11,3.11,0,0,0,1.15-1.18,5.19,5.19,0,0,0,.56-1.72l1.88-11.17Zm-9,7.59L443,14.9a13.37,13.37,0,0,1,.49-2.34,8.8,8.8,0,0,1,1-2.16A4.71,4.71,0,0,1,446,8.85a4.18,4.18,0,0,1,2.35-.53,2.94,2.94,0,0,1,1.91.67,3.72,3.72,0,0,1,1.06,1.6,7.7,7.7,0,0,1,.42,2.05,15.05,15.05,0,0,1,0,2l-.23,1.73a14.5,14.5,0,0,1-.53,2.14,9.66,9.66,0,0,1-1,2.08,4.94,4.94,0,0,1-1.5,1.55,3.74,3.74,0,0,1-2.16.54,3.34,3.34,0,0,1-2.07-.66,3.77,3.77,0,0,1-1.13-1.62,7.19,7.19,0,0,1-.42-2.1A12.67,12.67,0,0,1,442.78,16.17Zm2.35-1.29-.14,1.3q-.08.67-.09,1.44a5.79,5.79,0,0,0,.14,1.46,2.21,2.21,0,0,0,.63,1.14,1.91,1.91,0,0,0,1.37.48,2.69,2.69,0,0,0,1.64-.47A4.36,4.36,0,0,0,449.89,19a6.21,6.21,0,0,0,.71-1.59l.58-3.66a4.12,4.12,0,0,0-.11-1.15,3.75,3.75,0,0,0-.43-1.08,2.65,2.65,0,0,0-.75-.81,2.1,2.1,0,0,0-1.09-.35,2.76,2.76,0,0,0-1.64.35,3.08,3.08,0,0,0-1.06,1.09,5.68,5.68,0,0,0-.64,1.51A12.26,12.26,0,0,0,445.13,14.88Z" transform="translate(0 -2.77)"/><path class="cls-1" d="M459.42,8.58,457,22.43h-2.21l2.41-13.85Zm-1.69-3.65a1.68,1.68,0,0,1,.36-1,1.14,1.14,0,0,1,.91-.43,1.1,1.1,0,0,1,.94.4,1.38,1.38,0,0,1,.3,1,1.48,1.48,0,0,1-.37.94,1.18,1.18,0,0,1-.91.42,1.09,1.09,0,0,1-.91-.38A1.39,1.39,0,0,1,457.73,4.93Z" transform="translate(0 -2.77)"/><path class="cls-1" d="M467.64,18.78a1.46,1.46,0,0,0-.22-1.08,2.83,2.83,0,0,0-.82-.75c-.34-.2-.67-.39-1-.55s-.87-.45-1.29-.69a6.13,6.13,0,0,1-1.11-.82,3.45,3.45,0,0,1-.75-1.07,3.19,3.19,0,0,1-.22-1.46,4,4,0,0,1,.45-1.68,4,4,0,0,1,1.05-1.29,4.9,4.9,0,0,1,1.47-.81,5,5,0,0,1,1.72-.26,4.21,4.21,0,0,1,2.13.57,3.51,3.51,0,0,1,1.34,1.49,4.4,4.4,0,0,1,.41,2.16l-2.19,0a3,3,0,0,0-.16-1.09,1.7,1.7,0,0,0-1.66-1.15,2.5,2.5,0,0,0-1.13.25,2.17,2.17,0,0,0-.84.69,2.43,2.43,0,0,0-.41,1.06,1.37,1.37,0,0,0,.08.77,1.59,1.59,0,0,0,.43.57,3,3,0,0,0,.63.43l.7.35a18.75,18.75,0,0,1,1.77,1,4.52,4.52,0,0,1,1.36,1.28,3.07,3.07,0,0,1,.46,1.94,4.29,4.29,0,0,1-.48,1.76,4,4,0,0,1-1.08,1.29,4.8,4.8,0,0,1-1.52.8,5.64,5.64,0,0,1-1.8.24,4.67,4.67,0,0,1-2.25-.59,3.81,3.81,0,0,1-1.48-1.55,4.35,4.35,0,0,1-.47-2.28H463a3.16,3.16,0,0,0,.18,1.26,1.69,1.69,0,0,0,.67.86,2.23,2.23,0,0,0,1.22.33,3.29,3.29,0,0,0,1.18-.21,2.35,2.35,0,0,0,.93-.64A2,2,0,0,0,467.64,18.78Z" transform="translate(0 -2.77)"/><path class="cls-1" d="M479.41,8.58l-.32,1.82h-6.3l.34-1.82Zm-3.66-3.37H478L475.62,19a5.3,5.3,0,0,0,0,.7,1.14,1.14,0,0,0,.17.63.67.67,0,0,0,.59.27,2.5,2.5,0,0,0,.47-.05l.44-.08-.19,1.95a4.35,4.35,0,0,1-.71.18,4.53,4.53,0,0,1-.74.05,1.89,1.89,0,0,1-1.49-.6,2.88,2.88,0,0,1-.63-1.43,6.66,6.66,0,0,1-.07-1.66Z" transform="translate(0 -2.77)"/><path class="cls-1" d="M483.83,10.84l-2,11.59H479.6L482,8.58h2.14Zm3.7-2.35-.24,2.2-.5-.09a4,4,0,0,0-.49,0,2.51,2.51,0,0,0-1.31.3,3.06,3.06,0,0,0-.94.82,5.41,5.41,0,0,0-.66,1.12,8.4,8.4,0,0,0-.43,1.25l-.65.38a17.36,17.36,0,0,1,.36-1.94,10.38,10.38,0,0,1,.72-2.05,4.52,4.52,0,0,1,1.25-1.59,2.78,2.78,0,0,1,1.92-.57,3.85,3.85,0,0,1,.49.07Z" transform="translate(0 -2.77)"/><path class="cls-1" d="M495.76,14l-.27,1.67h-1.4a6.23,6.23,0,0,0-1.36.15,4.44,4.44,0,0,0-1.24.48,2.87,2.87,0,0,0-.94.86,2.63,2.63,0,0,0-.47,1.3,3.17,3.17,0,0,0,0,1.12,1.35,1.35,0,0,0,.5.78,1.75,1.75,0,0,0,1.07.29,3.17,3.17,0,0,0,1.38-.32,3.56,3.56,0,0,0,1.15-.88,2.7,2.7,0,0,0,.63-1.25l.35,1.07a4.74,4.74,0,0,1-1.41,2.39,4.06,4.06,0,0,1-1.17.76,3.54,3.54,0,0,1-1.38.27,3.49,3.49,0,0,1-2-.52,3.08,3.08,0,0,1-1.17-1.42,4.22,4.22,0,0,1-.31-2,4.49,4.49,0,0,1,1.93-3.58,6.1,6.1,0,0,1,1.86-.87,8.08,8.08,0,0,1,2.15-.29Zm-1.38,6,1.22-7.54a3.39,3.39,0,0,0-.07-1.17,1.41,1.41,0,0,0-.54-.8,1.87,1.87,0,0,0-1.13-.29,2.36,2.36,0,0,0-1.2.26,2.42,2.42,0,0,0-.86.76,2.94,2.94,0,0,0-.47,1.13h-2.19a4.24,4.24,0,0,1,.53-1.7,4.59,4.59,0,0,1,1.14-1.3,5.06,5.06,0,0,1,3.29-1.11,4.29,4.29,0,0,1,2.18.54,3.07,3.07,0,0,1,1.26,1.49,4.68,4.68,0,0,1,.26,2.23l-1.13,6.84a7.64,7.64,0,0,0-.09,1.41c0,.45,0,.92.07,1.39l0,.22-2.21,0a4.84,4.84,0,0,1-.12-1.2A11.91,11.91,0,0,1,494.38,20.06Z" transform="translate(0 -2.77)"/><path class="cls-1" d="M500.21,16.17l.15-1.28a15,15,0,0,1,.5-2.32,9,9,0,0,1,1-2.15,4.89,4.89,0,0,1,1.6-1.57,4.2,4.2,0,0,1,2.35-.53A2.94,2.94,0,0,1,507.7,9a3.71,3.71,0,0,1,1.05,1.61,7.18,7.18,0,0,1,.41,2,13.61,13.61,0,0,1,0,2l-.23,1.73a15.88,15.88,0,0,1-.53,2.14,8.79,8.79,0,0,1-1,2.08,4.94,4.94,0,0,1-1.5,1.55,3.69,3.69,0,0,1-2.15.54,3.28,3.28,0,0,1-2.06-.67,3.67,3.67,0,0,1-1.12-1.62,7.27,7.27,0,0,1-.44-2.11A11.54,11.54,0,0,1,500.21,16.17Zm2.36-1.29-.15,1.3c-.05.45-.08.93-.1,1.44a5.79,5.79,0,0,0,.15,1.46,2.22,2.22,0,0,0,.64,1.15,2,2,0,0,0,1.37.47,2.65,2.65,0,0,0,1.63-.47A4.12,4.12,0,0,0,507.32,19a5.93,5.93,0,0,0,.72-1.59l.59-3.66a5,5,0,0,0-.11-1.15,3.75,3.75,0,0,0-.43-1.08,2.59,2.59,0,0,0-.77-.81,2,2,0,0,0-1.08-.35,2.83,2.83,0,0,0-1.64.36,3.08,3.08,0,0,0-1.07,1.08,5.75,5.75,0,0,0-.64,1.5A10.66,10.66,0,0,0,502.57,14.88Zm4.51,4.72L510,2.77h2.2l-3.42,19.66h-2Z" transform="translate(0 -2.77)"/><path class="cls-1" d="M512.83,16.17l.17-1.3a10.63,10.63,0,0,1,.62-2.42,7.69,7.69,0,0,1,1.21-2.13,5.61,5.61,0,0,1,1.82-1.5,5.08,5.08,0,0,1,2.48-.5,4.21,4.21,0,0,1,2.22.62,4.12,4.12,0,0,1,1.37,1.53,6.3,6.3,0,0,1,.65,2.09,10.31,10.31,0,0,1,0,2.29l-.17,1.32a10.82,10.82,0,0,1-.62,2.41,7.58,7.58,0,0,1-1.22,2.13,5.62,5.62,0,0,1-1.83,1.49,5,5,0,0,1-2.46.49,3.89,3.89,0,0,1-3.59-2.15,6.23,6.23,0,0,1-.65-2.09A9.66,9.66,0,0,1,512.83,16.17Zm2.38-1.32-.16,1.35a12.33,12.33,0,0,0-.06,1.41,5.94,5.94,0,0,0,.22,1.48,2.65,2.65,0,0,0,.69,1.17,2,2,0,0,0,1.34.51,2.87,2.87,0,0,0,1.64-.36,3.33,3.33,0,0,0,1.11-1.1,5.47,5.47,0,0,0,.69-1.51,10.8,10.8,0,0,0,.35-1.63l.16-1.33a12.55,12.55,0,0,0,0-1.41A6.08,6.08,0,0,0,521,12a2.68,2.68,0,0,0-.69-1.18,1.92,1.92,0,0,0-1.35-.51,2.73,2.73,0,0,0-1.58.37,3.63,3.63,0,0,0-1.12,1.12,6.28,6.28,0,0,0-.71,1.53A8.87,8.87,0,0,0,515.21,14.85Z" transform="translate(0 -2.77)"/><path class="cls-1" d="M532.1,18.78a1.46,1.46,0,0,0-.22-1.08,3,3,0,0,0-.82-.75c-.34-.2-.67-.39-1-.55s-.88-.45-1.29-.69a5.51,5.51,0,0,1-1.11-.82,3.29,3.29,0,0,1-.75-1.07,3.06,3.06,0,0,1-.22-1.46,3.88,3.88,0,0,1,.45-1.68,4,4,0,0,1,1.05-1.29,4.78,4.78,0,0,1,1.47-.81,4.9,4.9,0,0,1,1.71-.26,4.28,4.28,0,0,1,2.14.57,3.51,3.51,0,0,1,1.34,1.49,4.4,4.4,0,0,1,.4,2.16l-2.19,0a2.6,2.6,0,0,0-.16-1.09,1.67,1.67,0,0,0-1.65-1.15,2.5,2.5,0,0,0-1.13.25,2.17,2.17,0,0,0-.84.69,2.32,2.32,0,0,0-.42,1.06,1.36,1.36,0,0,0,.09.77,1.59,1.59,0,0,0,.43.57,2.8,2.8,0,0,0,.63.43c.23.13.47.24.7.35a19.9,19.9,0,0,1,1.76,1,4.56,4.56,0,0,1,1.37,1.28,3.07,3.07,0,0,1,.45,1.94,4.28,4.28,0,0,1-.47,1.76,4,4,0,0,1-1.08,1.29,4.86,4.86,0,0,1-1.53.8,5.56,5.56,0,0,1-1.8.24,4.63,4.63,0,0,1-2.24-.59,3.83,3.83,0,0,1-1.49-1.55,4.55,4.55,0,0,1-.47-2.28h2.23a3.56,3.56,0,0,0,.18,1.26,1.75,1.75,0,0,0,.67.86,2.26,2.26,0,0,0,1.23.33,3.29,3.29,0,0,0,1.18-.21,2.39,2.39,0,0,0,.92-.64A2,2,0,0,0,532.1,18.78Z" transform="translate(0 -2.77)"/><path class="cls-1" d="M543.16,16.17l.16-1.28a15,15,0,0,1,.5-2.32,8.59,8.59,0,0,1,1-2.15,4.8,4.8,0,0,1,1.6-1.57,4.2,4.2,0,0,1,2.35-.53,2.94,2.94,0,0,1,1.91.67,3.89,3.89,0,0,1,1.05,1.61,7.54,7.54,0,0,1,.41,2,12.33,12.33,0,0,1,0,2l-.23,1.73a14.42,14.42,0,0,1-.52,2.14,8.79,8.79,0,0,1-1,2.08,5.05,5.05,0,0,1-1.5,1.55,3.69,3.69,0,0,1-2.15.54,3.26,3.26,0,0,1-2.06-.67,3.77,3.77,0,0,1-1.13-1.62,7.61,7.61,0,0,1-.43-2.11A12.51,12.51,0,0,1,543.16,16.17Zm2.37-1.29-.15,1.3c0,.45-.08.93-.1,1.44a5.79,5.79,0,0,0,.15,1.46,2.28,2.28,0,0,0,.63,1.15,2,2,0,0,0,1.38.47,2.65,2.65,0,0,0,1.63-.47A4.24,4.24,0,0,0,550.28,19a5.93,5.93,0,0,0,.72-1.59l.59-3.66a4.55,4.55,0,0,0-.12-1.15,3.26,3.26,0,0,0-.43-1.08,2.56,2.56,0,0,0-.76-.81,2,2,0,0,0-1.09-.35,2.82,2.82,0,0,0-1.63.36,3,3,0,0,0-1.07,1.08,5.75,5.75,0,0,0-.64,1.5A10.66,10.66,0,0,0,545.53,14.88ZM550,19.6,553,2.77h2.2l-3.42,19.66h-2Z" transform="translate(0 -2.77)"/><path class="cls-1" d="M563.33,16.26l.77,0a19.05,19.05,0,0,1-.44,2.28,8.11,8.11,0,0,1-.85,2.12,4.26,4.26,0,0,1-1.48,1.53,4,4,0,0,1-2.3.53,3,3,0,0,1-1.72-.5,3.07,3.07,0,0,1-1-1.25,5.17,5.17,0,0,1-.38-1.66,8.7,8.7,0,0,1,0-1.77l1.49-8.94h2.21l-1.5,9c0,.28,0,.59-.05.94a4.31,4.31,0,0,0,.09,1,1.82,1.82,0,0,0,.41.82,1.27,1.27,0,0,0,.88.35,2.87,2.87,0,0,0,2.06-.6,4.29,4.29,0,0,0,1.19-1.71A9.49,9.49,0,0,0,563.33,16.26Zm-.83,2.84,1.83-10.52h2.21l-2.4,13.85H562Z" transform="translate(0 -2.77)"/><path class="cls-1" d="M571.64,10.84l-2,11.59h-2.22l2.41-13.85H572Zm3.7-2.35-.24,2.2-.5-.09a4,4,0,0,0-.49,0,2.45,2.45,0,0,0-1.3.3,3,3,0,0,0-.95.82,5.41,5.41,0,0,0-.66,1.12,9.72,9.72,0,0,0-.43,1.25l-.65.38c.07-.58.2-1.23.36-1.94a10.38,10.38,0,0,1,.72-2.05,4.52,4.52,0,0,1,1.25-1.59,2.78,2.78,0,0,1,1.92-.57,3.85,3.85,0,0,1,.49.07Z" transform="translate(0 -2.77)"/><path class="cls-1" d="M583.57,14l-.27,1.67h-1.4a6.07,6.07,0,0,0-1.35.15,4.38,4.38,0,0,0-1.25.48,2.87,2.87,0,0,0-.94.86,2.63,2.63,0,0,0-.47,1.3,3.17,3.17,0,0,0,0,1.12,1.35,1.35,0,0,0,.5.78,1.75,1.75,0,0,0,1.07.29,3.17,3.17,0,0,0,1.38-.32,3.56,3.56,0,0,0,1.15-.88,2.7,2.7,0,0,0,.63-1.25l.35,1.07a4.74,4.74,0,0,1-1.41,2.39,4.06,4.06,0,0,1-1.17.76,3.54,3.54,0,0,1-1.38.27,3.49,3.49,0,0,1-2-.52,3.14,3.14,0,0,1-1.17-1.42,4.22,4.22,0,0,1-.31-2,4.49,4.49,0,0,1,1.93-3.58,6,6,0,0,1,1.87-.87,8,8,0,0,1,2.14-.29Zm-1.38,6,1.22-7.54a3.39,3.39,0,0,0-.07-1.17,1.41,1.41,0,0,0-.54-.8,1.87,1.87,0,0,0-1.13-.29,2.36,2.36,0,0,0-1.2.26,2.42,2.42,0,0,0-.86.76,2.94,2.94,0,0,0-.47,1.13H577a4.24,4.24,0,0,1,.53-1.7,4.59,4.59,0,0,1,1.14-1.3,5.06,5.06,0,0,1,3.29-1.11,4.29,4.29,0,0,1,2.18.54,3.07,3.07,0,0,1,1.26,1.49,4.68,4.68,0,0,1,.26,2.23l-1.13,6.84a8.62,8.62,0,0,0-.09,1.41c0,.45,0,.92.07,1.39l0,.22-2.21,0a4.84,4.84,0,0,1-.12-1.2A11.91,11.91,0,0,1,582.19,20.06Z" transform="translate(0 -2.77)"/><path class="cls-1" d="M591.44,11.68l-1.87,10.75h-2.22l2.41-13.85h2.09Zm-1,3.35-.81,0a14.81,14.81,0,0,1,.5-2.27,8.67,8.67,0,0,1,1-2.19,5.16,5.16,0,0,1,1.58-1.64,3.89,3.89,0,0,1,2.3-.58,3,3,0,0,1,1.67.5,2.76,2.76,0,0,1,.93,1.2,5.5,5.5,0,0,1,.37,1.61,10,10,0,0,1,0,1.73l-1.51,9.08h-2.21l1.52-9.11a8.8,8.8,0,0,0,0-1.36,2.2,2.2,0,0,0-.39-1.16,1.44,1.44,0,0,0-1.19-.51,2.54,2.54,0,0,0-1.55.44,4,4,0,0,0-1.1,1.2,6.87,6.87,0,0,0-.71,1.56A9.23,9.23,0,0,0,590.41,15Z" transform="translate(0 -2.77)"/><path class="cls-1" d="M607,8.58l-.32,1.82h-6.29l.33-1.82Zm-3.66-3.37h2.22L603.21,19a5.3,5.3,0,0,0,0,.7,1.33,1.33,0,0,0,.17.63.69.69,0,0,0,.6.27,2.49,2.49,0,0,0,.46-.05l.45-.08-.2,1.95a4.1,4.1,0,0,1-.71.18,4.4,4.4,0,0,1-.73.05,1.86,1.86,0,0,1-1.49-.6,3,3,0,0,1-.64-1.43A6.65,6.65,0,0,1,601,19Z" transform="translate(0 -2.77)"/><path class="cls-1" d="M612.18,22.69a4.66,4.66,0,0,1-2.24-.54,3.64,3.64,0,0,1-1.4-1.38,5.66,5.66,0,0,1-.66-2,9.28,9.28,0,0,1,0-2.3l.19-1.56a11.52,11.52,0,0,1,.58-2.42,8,8,0,0,1,1.14-2.15,5.24,5.24,0,0,1,1.77-1.54A4.79,4.79,0,0,1,614,8.32,4,4,0,0,1,616.2,9a3.45,3.45,0,0,1,1.2,1.54,6,6,0,0,1,.44,2.08,13.38,13.38,0,0,1-.08,2.28l-.19,1.32h-8.41l.34-1.93h6.12l0-.34a7.85,7.85,0,0,0,0-1.61,2.7,2.7,0,0,0-.48-1.41,1.72,1.72,0,0,0-1.39-.63,2.64,2.64,0,0,0-1.63.37,3.1,3.1,0,0,0-1,1.14,6.18,6.18,0,0,0-.61,1.55,12.68,12.68,0,0,0-.3,1.62l-.19,1.58A9.8,9.8,0,0,0,610,18a4.56,4.56,0,0,0,.25,1.36,2.23,2.23,0,0,0,.73,1,2.41,2.41,0,0,0,1.41.42,3.56,3.56,0,0,0,1.79-.41,5.58,5.58,0,0,0,1.47-1.16l1.08,1.45a5,5,0,0,1-1.28,1.16,5.23,5.23,0,0,1-1.55.68A6.22,6.22,0,0,1,612.18,22.69Z" transform="translate(0 -2.77)"/><path class="cls-1" d="M630.07,22.69a4.73,4.73,0,0,1-2.25-.54,3.68,3.68,0,0,1-1.39-1.38,5.66,5.66,0,0,1-.66-2,8.82,8.82,0,0,1,0-2.3l.19-1.56a10.93,10.93,0,0,1,.58-2.42,8,8,0,0,1,1.14-2.15,5.21,5.21,0,0,1,1.76-1.54,4.85,4.85,0,0,1,2.46-.51,4,4,0,0,1,2.22.63,3.52,3.52,0,0,1,1.2,1.54,6.26,6.26,0,0,1,.44,2.08,13.38,13.38,0,0,1-.08,2.28l-.19,1.32H627l.35-1.93h6.12l0-.34a7.85,7.85,0,0,0,0-1.61,2.71,2.71,0,0,0-.49-1.41,1.69,1.69,0,0,0-1.38-.63,2.62,2.62,0,0,0-1.63.37,3.21,3.21,0,0,0-1.05,1.14,6.57,6.57,0,0,0-.6,1.55,11.22,11.22,0,0,0-.31,1.62L628,16.52A9.81,9.81,0,0,0,627.9,18a4.56,4.56,0,0,0,.25,1.36,2.16,2.16,0,0,0,.73,1,2.4,2.4,0,0,0,1.4.42,3.57,3.57,0,0,0,1.8-.41,5.92,5.92,0,0,0,1.47-1.16l1.07,1.45a4.81,4.81,0,0,1-1.27,1.16,5.18,5.18,0,0,1-1.56.68A6.15,6.15,0,0,1,630.07,22.69Z" transform="translate(0 -2.77)"/><path class="cls-1" d="M642.81,2.77l-3.42,19.66h-2.21L640.6,2.77Z" transform="translate(0 -2.77)"/><path class="cls-1" d="M653,10.84l-2,11.59h-2.22l2.41-13.85h2.14Zm3.7-2.35-.25,2.2L656,10.6a4.22,4.22,0,0,0-.49,0,2.49,2.49,0,0,0-1.31.3,3,3,0,0,0-.94.82,5.41,5.41,0,0,0-.66,1.12,8.4,8.4,0,0,0-.43,1.25l-.66.38c.08-.58.2-1.23.37-1.94a9.24,9.24,0,0,1,.72-2.05,4.61,4.61,0,0,1,1.24-1.59,2.78,2.78,0,0,1,1.92-.57,4,4,0,0,1,.5.07Z" transform="translate(0 -2.77)"/><path class="cls-1" d="M661.54,22.69a4.66,4.66,0,0,1-2.24-.54,3.64,3.64,0,0,1-1.4-1.38,5.66,5.66,0,0,1-.66-2,8.82,8.82,0,0,1,0-2.3l.19-1.56a11.52,11.52,0,0,1,.58-2.42,8,8,0,0,1,1.14-2.15,5.3,5.3,0,0,1,1.76-1.54,4.85,4.85,0,0,1,2.46-.51,4,4,0,0,1,2.22.63,3.45,3.45,0,0,1,1.2,1.54,6,6,0,0,1,.44,2.08,13.38,13.38,0,0,1-.08,2.28l-.19,1.32h-8.41l.34-1.93H665l0-.34a7.85,7.85,0,0,0,0-1.61,2.7,2.7,0,0,0-.48-1.41,1.72,1.72,0,0,0-1.39-.63,2.64,2.64,0,0,0-1.63.37,3.1,3.1,0,0,0-1,1.14,6.18,6.18,0,0,0-.61,1.55,12.68,12.68,0,0,0-.3,1.62l-.2,1.58a11.42,11.42,0,0,0,0,1.44,4.56,4.56,0,0,0,.25,1.36,2.23,2.23,0,0,0,.73,1,2.41,2.41,0,0,0,1.41.42,3.56,3.56,0,0,0,1.79-.41A5.58,5.58,0,0,0,665,19.19l1.08,1.45a5,5,0,0,1-1.28,1.16,5.23,5.23,0,0,1-1.55.68A6.22,6.22,0,0,1,661.54,22.69Z" transform="translate(0 -2.77)"/><path class="cls-1" d="M673.47,20.78a2.48,2.48,0,0,0,1.42-.34,2.91,2.91,0,0,0,.94-1,4.92,4.92,0,0,0,.52-1.37l2.08,0a5.9,5.9,0,0,1-.88,2.37,5.17,5.17,0,0,1-1.76,1.69,4.64,4.64,0,0,1-2.45.59,4.37,4.37,0,0,1-2.26-.58,3.67,3.67,0,0,1-1.35-1.47,5.83,5.83,0,0,1-.6-2,10.5,10.5,0,0,1,0-2.31l.21-1.57a11.65,11.65,0,0,1,.59-2.43,7.08,7.08,0,0,1,1.14-2.08,5.15,5.15,0,0,1,1.78-1.43,5.31,5.31,0,0,1,2.49-.46,3.88,3.88,0,0,1,2.33.74A3.93,3.93,0,0,1,679,10.9a6.58,6.58,0,0,1,.33,2.45h-2.07a5.53,5.53,0,0,0-.12-1.41,2.3,2.3,0,0,0-.57-1.17,1.78,1.78,0,0,0-1.29-.5,3,3,0,0,0-1.64.34,3.22,3.22,0,0,0-1.07,1,5.72,5.72,0,0,0-.63,1.47,11.8,11.8,0,0,0-.33,1.61l-.2,1.58c-.05.46-.08.95-.1,1.46a5.71,5.71,0,0,0,.15,1.45,2.15,2.15,0,0,0,.65,1.11A2.18,2.18,0,0,0,673.47,20.78Z" transform="translate(0 -2.77)"/><path class="cls-1" d="M680.9,16.17l.16-1.3a10.15,10.15,0,0,1,.63-2.42,7.69,7.69,0,0,1,1.21-2.13,5.61,5.61,0,0,1,1.82-1.5,5.06,5.06,0,0,1,2.48-.5,4.17,4.17,0,0,1,2.21.62,4.07,4.07,0,0,1,1.38,1.53,6.54,6.54,0,0,1,.65,2.09,9.74,9.74,0,0,1,0,2.29l-.16,1.32a10.82,10.82,0,0,1-.62,2.41,7.83,7.83,0,0,1-1.22,2.13,5.72,5.72,0,0,1-1.83,1.49,5,5,0,0,1-2.47.49,4,4,0,0,1-2.22-.62,4.12,4.12,0,0,1-1.37-1.53,6.22,6.22,0,0,1-.64-2.09A9.16,9.16,0,0,1,680.9,16.17Zm2.38-1.32-.17,1.35a12.46,12.46,0,0,0-.05,1.41,5.51,5.51,0,0,0,.22,1.48,2.63,2.63,0,0,0,.68,1.17,2,2,0,0,0,1.34.51,2.89,2.89,0,0,0,1.65-.36,3.33,3.33,0,0,0,1.11-1.1,5.78,5.78,0,0,0,.69-1.51,10.75,10.75,0,0,0,.34-1.63l.17-1.33a12.55,12.55,0,0,0,0-1.41,5.64,5.64,0,0,0-.22-1.48,2.57,2.57,0,0,0-.68-1.18,1.92,1.92,0,0,0-1.35-.51,2.71,2.71,0,0,0-1.58.37,3.66,3.66,0,0,0-1.13,1.12,7.13,7.13,0,0,0-.71,1.53A9.78,9.78,0,0,0,683.28,14.85Z" transform="translate(0 -2.77)"/><path class="cls-1" d="M697.22,10.84l-2,11.59H693l2.4-13.85h2.14Zm3.7-2.35-.24,2.2-.49-.09a4.21,4.21,0,0,0-.5,0,2.48,2.48,0,0,0-1.3.3,3,3,0,0,0-.94.82,5.41,5.41,0,0,0-.66,1.12,8.45,8.45,0,0,0-.44,1.25l-.65.38c.08-.58.2-1.23.36-1.94a9.81,9.81,0,0,1,.73-2.05A4.49,4.49,0,0,1,698,8.85,2.78,2.78,0,0,1,700,8.28a3.61,3.61,0,0,1,.49.07Z" transform="translate(0 -2.77)"/><path class="cls-1" d="M705,10.84l-2,11.59h-2.22l2.41-13.85h2.14Zm3.7-2.35-.24,2.2-.5-.09a4,4,0,0,0-.49,0,2.51,2.51,0,0,0-1.31.3,3.06,3.06,0,0,0-.94.82,5.41,5.41,0,0,0-.66,1.12,8.4,8.4,0,0,0-.43,1.25l-.65.38a17.36,17.36,0,0,1,.36-1.94,10.38,10.38,0,0,1,.72-2.05,4.52,4.52,0,0,1,1.25-1.59,2.78,2.78,0,0,1,1.92-.57,3.85,3.85,0,0,1,.49.07Z" transform="translate(0 -2.77)"/><path class="cls-1" d="M713.28,8.58l-2.41,13.85h-2.2l2.41-13.85Zm-1.69-3.65A1.68,1.68,0,0,1,712,4a1.12,1.12,0,0,1,.91-.43,1.07,1.07,0,0,1,.93.4,1.38,1.38,0,0,1,.31,1,1.53,1.53,0,0,1-.37.94,1.19,1.19,0,0,1-.91.42,1.11,1.11,0,0,1-.92-.38A1.39,1.39,0,0,1,711.59,4.93Z" transform="translate(0 -2.77)"/><path class="cls-1" d="M715,16.17l.15-1.28a15,15,0,0,1,.5-2.32,9,9,0,0,1,1-2.15,4.89,4.89,0,0,1,1.6-1.57,4.2,4.2,0,0,1,2.35-.53,2.94,2.94,0,0,1,1.91.67,3.71,3.71,0,0,1,1,1.61,7.54,7.54,0,0,1,.41,2,13.61,13.61,0,0,1,0,2l-.24,1.73a14.42,14.42,0,0,1-.52,2.14,8.79,8.79,0,0,1-1,2.08,4.94,4.94,0,0,1-1.5,1.55,3.69,3.69,0,0,1-2.15.54,3.28,3.28,0,0,1-2.06-.67,3.67,3.67,0,0,1-1.12-1.62A7.27,7.27,0,0,1,715,18.3,11.54,11.54,0,0,1,715,16.17Zm2.36-1.29-.15,1.3c-.05.45-.08.93-.1,1.44a5.79,5.79,0,0,0,.15,1.46,2.22,2.22,0,0,0,.64,1.15,2,2,0,0,0,1.37.47,2.65,2.65,0,0,0,1.63-.47A4.12,4.12,0,0,0,722.11,19a5.93,5.93,0,0,0,.72-1.59l.59-3.66a5,5,0,0,0-.11-1.15,3.75,3.75,0,0,0-.43-1.08,2.59,2.59,0,0,0-.77-.81,2,2,0,0,0-1.08-.35,2.83,2.83,0,0,0-1.64.36,3.08,3.08,0,0,0-1.07,1.08,5.75,5.75,0,0,0-.64,1.5A10.66,10.66,0,0,0,717.36,14.88Zm4.51,4.72,2.92-16.83H727l-3.42,19.66h-2Z" transform="translate(0 -2.77)"/><path class="cls-1" d="M727.62,16.17l.17-1.3a10.13,10.13,0,0,1,.62-2.42,7.69,7.69,0,0,1,1.21-2.13,5.61,5.61,0,0,1,1.82-1.5,5.06,5.06,0,0,1,2.48-.5,4.14,4.14,0,0,1,2.21.62,4.07,4.07,0,0,1,1.38,1.53,6.3,6.3,0,0,1,.65,2.09,10.31,10.31,0,0,1,0,2.29L738,16.17a10.82,10.82,0,0,1-.62,2.41,7.58,7.58,0,0,1-1.22,2.13,5.72,5.72,0,0,1-1.83,1.49,5,5,0,0,1-2.46.49,3.89,3.89,0,0,1-3.59-2.15,6.23,6.23,0,0,1-.65-2.09A9.66,9.66,0,0,1,727.62,16.17ZM730,14.85l-.16,1.35a12.33,12.33,0,0,0-.06,1.41,5.94,5.94,0,0,0,.22,1.48,2.65,2.65,0,0,0,.69,1.17,2,2,0,0,0,1.34.51,2.87,2.87,0,0,0,1.64-.36,3.33,3.33,0,0,0,1.11-1.1,5.47,5.47,0,0,0,.69-1.51,10.8,10.8,0,0,0,.35-1.63l.16-1.33a12.55,12.55,0,0,0,0-1.41,6.08,6.08,0,0,0-.21-1.48,2.68,2.68,0,0,0-.69-1.18,1.92,1.92,0,0,0-1.35-.51,2.73,2.73,0,0,0-1.58.37,3.63,3.63,0,0,0-1.12,1.12,6.28,6.28,0,0,0-.71,1.53A8.87,8.87,0,0,0,730,14.85Z" transform="translate(0 -2.77)"/><path class="cls-1" d="M753,8.58l-.32,1.82h-6.3l.34-1.82Zm-3.66-3.37h2.22L749.23,19a5.3,5.3,0,0,0,0,.7,1.23,1.23,0,0,0,.17.63.69.69,0,0,0,.6.27,2.49,2.49,0,0,0,.46-.05l.45-.08-.2,1.95a4.1,4.1,0,0,1-.71.18,4.48,4.48,0,0,1-.73.05,1.89,1.89,0,0,1-1.5-.6,3,3,0,0,1-.63-1.43,6.65,6.65,0,0,1-.06-1.66Z" transform="translate(0 -2.77)"/><path class="cls-1" d="M761.42,16.26l.77,0a19,19,0,0,1-.43,2.28,8.13,8.13,0,0,1-.86,2.12,4.31,4.31,0,0,1-1.47,1.53,4.08,4.08,0,0,1-2.31.53,3,3,0,0,1-1.72-.5,3.07,3.07,0,0,1-1-1.25,5.17,5.17,0,0,1-.38-1.66,9.48,9.48,0,0,1,0-1.77l1.5-8.94h2.2l-1.5,9c0,.28,0,.59,0,.94a3.84,3.84,0,0,0,.1,1,1.72,1.72,0,0,0,.41.82,1.24,1.24,0,0,0,.87.35,2.85,2.85,0,0,0,2.06-.6,4.29,4.29,0,0,0,1.19-1.71A9,9,0,0,0,761.42,16.26Zm-.83,2.84,1.83-10.52h2.22l-2.41,13.85h-2.1Z" transform="translate(0 -2.77)"/><path class="cls-1" d="M769.73,10.84l-2,11.59h-2.21l2.4-13.85h2.14Zm3.7-2.35-.24,2.2-.49-.09a4.21,4.21,0,0,0-.5,0,2.48,2.48,0,0,0-1.3.3,3,3,0,0,0-.94.82,5.41,5.41,0,0,0-.66,1.12,8.45,8.45,0,0,0-.44,1.25l-.65.38c.08-.58.2-1.23.36-1.94a9.81,9.81,0,0,1,.73-2.05,4.49,4.49,0,0,1,1.24-1.59,2.78,2.78,0,0,1,1.92-.57,3.61,3.61,0,0,1,.49.07Z" transform="translate(0 -2.77)"/><path class="cls-1" d="M778.06,8.58l-2.41,13.85h-2.22l2.41-13.85Zm-2.07-2,3-3.77h3L778,6.56Z" transform="translate(0 -2.77)"/><path class="cls-1" d="M786.42,18.78a1.46,1.46,0,0,0-.23-1.08,2.83,2.83,0,0,0-.82-.75c-.33-.2-.66-.39-1-.55s-.87-.45-1.29-.69a5.73,5.73,0,0,1-1.1-.82,3.32,3.32,0,0,1-.76-1.07,3.19,3.19,0,0,1-.22-1.46,4.18,4.18,0,0,1,.45-1.68,4.26,4.26,0,0,1,1-1.29A5,5,0,0,1,784,8.58a5,5,0,0,1,1.72-.26,4.21,4.21,0,0,1,2.13.57,3.6,3.6,0,0,1,1.35,1.49,4.52,4.52,0,0,1,.4,2.16l-2.19,0a2.77,2.77,0,0,0-.16-1.09,1.71,1.71,0,0,0-.6-.82,1.74,1.74,0,0,0-1.06-.33,2.53,2.53,0,0,0-1.13.25,2.07,2.07,0,0,0-.83.69,2.32,2.32,0,0,0-.42,1.06,1.37,1.37,0,0,0,.08.77,1.59,1.59,0,0,0,.43.57,2.87,2.87,0,0,0,.64.43c.23.13.46.24.69.35a18.75,18.75,0,0,1,1.77,1,4.52,4.52,0,0,1,1.36,1.28,3.07,3.07,0,0,1,.46,1.94,4.28,4.28,0,0,1-.47,1.76,4.12,4.12,0,0,1-1.09,1.29,4.7,4.7,0,0,1-1.52.8,5.64,5.64,0,0,1-1.8.24,4.7,4.7,0,0,1-2.25-.59A3.81,3.81,0,0,1,780,20.55a4.45,4.45,0,0,1-.47-2.28h2.23a3.16,3.16,0,0,0,.18,1.26,1.69,1.69,0,0,0,.67.86,2.23,2.23,0,0,0,1.22.33,3.29,3.29,0,0,0,1.18-.21,2.35,2.35,0,0,0,.93-.64A2,2,0,0,0,786.42,18.78Z" transform="translate(0 -2.77)"/><path class="cls-1" d="M798.18,8.58l-.32,1.82h-6.3l.34-1.82Zm-3.66-3.37h2.22L794.39,19a5.3,5.3,0,0,0,0,.7,1.23,1.23,0,0,0,.17.63.69.69,0,0,0,.6.27,2.49,2.49,0,0,0,.46-.05l.45-.08-.2,1.95a4.1,4.1,0,0,1-.71.18,4.48,4.48,0,0,1-.73.05,1.89,1.89,0,0,1-1.5-.6,3,3,0,0,1-.63-1.43,6.65,6.65,0,0,1-.06-1.66Z" transform="translate(0 -2.77)"/><path class="cls-1" d="M803.16,8.58l-2.4,13.85h-2.21L801,8.58Zm-1.69-3.65a1.68,1.68,0,0,1,.36-1,1.14,1.14,0,0,1,.91-.43,1.1,1.1,0,0,1,.94.4,1.38,1.38,0,0,1,.3,1,1.48,1.48,0,0,1-.37.94,1.18,1.18,0,0,1-.91.42,1.09,1.09,0,0,1-.91-.38A1.39,1.39,0,0,1,801.47,4.93Z" transform="translate(0 -2.77)"/><path class="cls-1" d="M809.21,20.78a2.46,2.46,0,0,0,1.41-.34,2.82,2.82,0,0,0,.94-1,4.94,4.94,0,0,0,.53-1.37l2.07,0a6,6,0,0,1-.87,2.37,5.26,5.26,0,0,1-1.76,1.69,4.66,4.66,0,0,1-2.45.59,4.4,4.4,0,0,1-2.27-.58,3.67,3.67,0,0,1-1.35-1.47,5.82,5.82,0,0,1-.59-2,9.92,9.92,0,0,1,0-2.31l.21-1.57a11.64,11.64,0,0,1,.58-2.43,7.34,7.34,0,0,1,1.15-2.08,5.05,5.05,0,0,1,1.78-1.43,5.26,5.26,0,0,1,2.49-.46,3.9,3.9,0,0,1,2.33.74,4,4,0,0,1,1.27,1.84,7,7,0,0,1,.33,2.45H813a6,6,0,0,0-.12-1.41,2.24,2.24,0,0,0-.58-1.17,1.78,1.78,0,0,0-1.29-.5,3,3,0,0,0-1.63.34,3.13,3.13,0,0,0-1.07,1,5.72,5.72,0,0,0-.63,1.47,11.8,11.8,0,0,0-.33,1.61l-.21,1.58c-.05.46-.08.95-.09,1.46a5.71,5.71,0,0,0,.15,1.45,2.09,2.09,0,0,0,.65,1.11A2.14,2.14,0,0,0,809.21,20.78Z" transform="translate(0 -2.77)"/><path class="cls-1" d="M816.63,16.17l.17-1.3a10.63,10.63,0,0,1,.62-2.42,8,8,0,0,1,1.21-2.13,5.65,5.65,0,0,1,1.83-1.5,5,5,0,0,1,2.47-.5,4.21,4.21,0,0,1,2.22.62,4.07,4.07,0,0,1,1.38,1.53,6.53,6.53,0,0,1,.64,2.09,9.74,9.74,0,0,1,0,2.29L827,16.17a10.3,10.3,0,0,1-.62,2.41,7.8,7.8,0,0,1-1.21,2.13,5.72,5.72,0,0,1-1.83,1.49,5.06,5.06,0,0,1-2.47.49,4,4,0,0,1-2.22-.62,4,4,0,0,1-1.37-1.53,6.47,6.47,0,0,1-.65-2.09A10.23,10.23,0,0,1,816.63,16.17ZM819,14.85l-.17,1.35a12.46,12.46,0,0,0-.05,1.41,5.51,5.51,0,0,0,.22,1.48,2.54,2.54,0,0,0,.68,1.17,2,2,0,0,0,1.34.51,2.83,2.83,0,0,0,1.64-.36,3.46,3.46,0,0,0,1.12-1.1,5.76,5.76,0,0,0,.68-1.51,9.7,9.7,0,0,0,.35-1.63l.17-1.33a12.55,12.55,0,0,0,0-1.41,5.64,5.64,0,0,0-.22-1.48,2.68,2.68,0,0,0-.69-1.18,1.92,1.92,0,0,0-1.35-.51,2.75,2.75,0,0,0-1.58.37,3.63,3.63,0,0,0-1.12,1.12,6.68,6.68,0,0,0-.71,1.53A8.81,8.81,0,0,0,819,14.85Z" transform="translate(0 -2.77)"/><path class="cls-1" d="M829.11,21.22a1.45,1.45,0,0,1,.4-1,1.38,1.38,0,0,1,1-.44,1.34,1.34,0,0,1,1,.39,1.31,1.31,0,0,1,.39,1,1.43,1.43,0,0,1-.4,1,1.46,1.46,0,0,1-1,.42,1.44,1.44,0,0,1-1-.37A1.3,1.3,0,0,1,829.11,21.22Z" transform="translate(0 -2.77)"/><polygon class="cls-2" points="0 29.7 212.07 29.7 264.32 79.57 210.53 136.19 0 136.19 0 29.7"/><polygon class="cls-2" points="432.02 29.7 221.3 29.7 273.55 79.57 219.95 136 219.95 136.19 430.49 136.19 484.27 79.57 432.02 29.7"/><polygon class="cls-2" points="653.23 29.7 442.51 29.7 494.76 79.57 441.16 136 441.16 136.19 651.69 136.19 705.48 79.57 653.23 29.7"/><polygon class="cls-2" points="874.44 29.7 663.72 29.7 715.97 79.57 662.37 136 662.37 136.19 872.9 136.19 926.68 79.57 874.44 29.7"/><path class="cls-3" d="M96.5,79.41v1.31H87.16V79.41Zm-3.88,0V91.49H91V79.41Z" transform="translate(0 -2.77)"/><path class="cls-3" d="M100,79.41V91.49h-1.6V79.41Z" transform="translate(0 -2.77)"/><path class="cls-3" d="M104.52,79.41V91.49h-1.6V79.41Zm6,0v1.31H104.2V79.41Zm-.76,5.2v1.3H104.2v-1.3Zm.85,5.58v1.3h-6.4v-1.3Z" transform="translate(0 -2.77)"/><path class="cls-3" d="M112.58,79.41H114l.22,7.37v4.71h-1.59Zm.51,0h1.55l4,9.85,4-9.85h1.56L119.2,91.49H118Zm10.15,0h1.37V91.49H123V86.78Z" transform="translate(0 -2.77)"/><path class="cls-3" d="M131.88,86.75h-3.23v-1.3h3.23a3.34,3.34,0,0,0,1.52-.3,1.85,1.85,0,0,0,.85-.83,2.76,2.76,0,0,0,0-2.38,2.05,2.05,0,0,0-.85-.88,3,3,0,0,0-1.52-.34H129V91.49h-1.6V79.41h4.46a5.2,5.2,0,0,1,2.31.47,3.29,3.29,0,0,1,1.44,1.31,3.66,3.66,0,0,1,.49,1.9,3.79,3.79,0,0,1-.49,2,3.06,3.06,0,0,1-1.44,1.25A5.68,5.68,0,0,1,131.88,86.75Z" transform="translate(0 -2.77)"/><path class="cls-3" d="M147.45,85.07v.76a8,8,0,0,1-.34,2.44,5.22,5.22,0,0,1-1,1.84,4.21,4.21,0,0,1-1.53,1.15,4.76,4.76,0,0,1-2,.4,4.71,4.71,0,0,1-2-.4,4.33,4.33,0,0,1-1.54-1.15,5.27,5.27,0,0,1-1-1.84,7.68,7.68,0,0,1-.36-2.44v-.76a8,8,0,0,1,.35-2.44,5.56,5.56,0,0,1,1-1.83,4.45,4.45,0,0,1,1.54-1.16,5.1,5.1,0,0,1,4,0,4.27,4.27,0,0,1,1.54,1.16,5.37,5.37,0,0,1,1,1.83A8,8,0,0,1,147.45,85.07Zm-1.58.76v-.78a7.83,7.83,0,0,0-.22-1.91,4.16,4.16,0,0,0-.65-1.39,2.75,2.75,0,0,0-1-.86,3.25,3.25,0,0,0-1.38-.29,3.11,3.11,0,0,0-1.35.29,2.83,2.83,0,0,0-1,.86,4,4,0,0,0-.66,1.39,6.94,6.94,0,0,0-.23,1.91v.78a6.92,6.92,0,0,0,.23,1.92,4,4,0,0,0,.67,1.41,2.86,2.86,0,0,0,1,.86,3.1,3.1,0,0,0,1.34.29A3.23,3.23,0,0,0,144,90a2.83,2.83,0,0,0,1-.86,4.16,4.16,0,0,0,.63-1.41A7.8,7.8,0,0,0,145.87,85.83Z" transform="translate(0 -2.77)"/><path class="cls-3" d="M156.28,88.44a2,2,0,0,0-.13-.75,1.37,1.37,0,0,0-.44-.59,3.72,3.72,0,0,0-.88-.51,14.21,14.21,0,0,0-1.42-.49,14.29,14.29,0,0,1-1.62-.59,5.25,5.25,0,0,1-1.23-.76,2.8,2.8,0,0,1-.79-1,2.65,2.65,0,0,1-.28-1.25,3,3,0,0,1,.29-1.3,3.25,3.25,0,0,1,.84-1,4.12,4.12,0,0,1,1.3-.69,5.49,5.49,0,0,1,1.68-.25,4.81,4.81,0,0,1,2.31.52,3.72,3.72,0,0,1,1.45,1.35,3.45,3.45,0,0,1,.5,1.78h-1.59a2.48,2.48,0,0,0-.29-1.2,2.08,2.08,0,0,0-.88-.83,3.3,3.3,0,0,0-1.5-.31,3.38,3.38,0,0,0-1.41.26,1.87,1.87,0,0,0-.83.7,2,2,0,0,0-.26,1,1.47,1.47,0,0,0,.16.7,1.65,1.65,0,0,0,.5.57,4,4,0,0,0,.88.49,11.28,11.28,0,0,0,1.29.44,10.89,10.89,0,0,1,1.77.64,5.42,5.42,0,0,1,1.24.8,2.93,2.93,0,0,1,.72,1,3.15,3.15,0,0,1,.23,1.26,3.06,3.06,0,0,1-.29,1.34,2.9,2.9,0,0,1-.86,1,4,4,0,0,1-1.33.65,6.24,6.24,0,0,1-1.73.23,6.14,6.14,0,0,1-1.65-.23,5,5,0,0,1-1.47-.7,3.5,3.5,0,0,1-1.05-1.15,3.08,3.08,0,0,1-.4-1.59h1.59a2.23,2.23,0,0,0,.25,1.07,2.1,2.1,0,0,0,.66.73,2.75,2.75,0,0,0,.95.43,4.58,4.58,0,0,0,1.12.14,3.73,3.73,0,0,0,1.42-.24,1.87,1.87,0,0,0,.88-.66A1.75,1.75,0,0,0,156.28,88.44Z" transform="translate(0 -2.77)"/><path class="cls-3" d="M304,82.74V94.83h-1.6V82.74Z" transform="translate(0 -2.77)"/><path class="cls-3" d="M316.22,82.74V94.83h-1.61l-6.08-9.32v9.32h-1.6V82.74h1.6l6.11,9.35V82.74Z" transform="translate(0 -2.77)"/><path class="cls-3" d="M326.35,91H328a5.32,5.32,0,0,1-.66,2.05,3.76,3.76,0,0,1-1.5,1.43,5.08,5.08,0,0,1-2.43.52,4.69,4.69,0,0,1-1.93-.39,4.46,4.46,0,0,1-1.49-1.14,5.42,5.42,0,0,1-1-1.76,7.58,7.58,0,0,1-.33-2.31v-1.2a7.58,7.58,0,0,1,.33-2.31,5.25,5.25,0,0,1,1-1.77A4.33,4.33,0,0,1,321.49,83a5,5,0,0,1,2-.39,4.82,4.82,0,0,1,2.32.51,3.72,3.72,0,0,1,1.47,1.42,5.23,5.23,0,0,1,.66,2.11h-1.6a4.32,4.32,0,0,0-.43-1.46,2.27,2.27,0,0,0-.9-.94,3.51,3.51,0,0,0-2.93,0,2.67,2.67,0,0,0-1,.87,3.82,3.82,0,0,0-.62,1.35,6.83,6.83,0,0,0-.21,1.75v1.22a7.43,7.43,0,0,0,.19,1.67,4.12,4.12,0,0,0,.57,1.37,2.87,2.87,0,0,0,1,.93,2.8,2.8,0,0,0,1.39.33,3.55,3.55,0,0,0,1.63-.32,2.17,2.17,0,0,0,.92-.93A4.85,4.85,0,0,0,326.35,91Z" transform="translate(0 -2.77)"/><path class="cls-3" d="M331.84,82.74V94.83h-1.6V82.74Z" transform="translate(0 -2.77)"/><path class="cls-3" d="M336.35,82.74V94.83h-1.61V82.74ZM338,94.83h-2.53l0-1.3H338a4,4,0,0,0,2.15-.55,3.31,3.31,0,0,0,1.3-1.53,5.62,5.62,0,0,0,.44-2.3v-.74a6.4,6.4,0,0,0-.25-1.84,3.82,3.82,0,0,0-.73-1.37,3.08,3.08,0,0,0-1.18-.86,4.14,4.14,0,0,0-1.59-.29h-2.72V82.74h2.72a5.59,5.59,0,0,1,2.17.4A4.78,4.78,0,0,1,342,84.27a5.11,5.11,0,0,1,1.09,1.8,6.72,6.72,0,0,1,.38,2.36v.72a6.72,6.72,0,0,1-.38,2.36A4.87,4.87,0,0,1,342,93.3a4.77,4.77,0,0,1-1.73,1.13A6,6,0,0,1,338,94.83Z" transform="translate(0 -2.77)"/><path class="cls-3" d="M347.5,82.74V94.83h-1.6V82.74Zm6,0v1.31h-6.32V82.74Zm-.77,5.2v1.3h-5.55v-1.3Zm.85,5.59v1.3h-6.4v-1.3Z" transform="translate(0 -2.77)"/><path class="cls-3" d="M364.86,82.74V94.83h-1.61l-6.09-9.32v9.32h-1.6V82.74h1.6l6.11,9.35V82.74Z" transform="translate(0 -2.77)"/><path class="cls-3" d="M375,91h1.59a5,5,0,0,1-.66,2.05,3.76,3.76,0,0,1-1.5,1.43A5,5,0,0,1,372,95a4.65,4.65,0,0,1-1.93-.39,4.27,4.27,0,0,1-1.49-1.14,5.07,5.07,0,0,1-1-1.76,7.57,7.57,0,0,1-.34-2.31v-1.2a7.57,7.57,0,0,1,.34-2.31,5.23,5.23,0,0,1,1-1.77A4.33,4.33,0,0,1,370.12,83a5,5,0,0,1,2-.39,4.81,4.81,0,0,1,2.31.51,3.68,3.68,0,0,1,1.48,1.42,5.23,5.23,0,0,1,.65,2.11H375a4.56,4.56,0,0,0-.44-1.46,2.24,2.24,0,0,0-.89-.94,3.54,3.54,0,0,0-2.94,0,2.83,2.83,0,0,0-1,.87,4,4,0,0,0-.62,1.35,7.32,7.32,0,0,0-.2,1.75v1.22a7.44,7.44,0,0,0,.18,1.67,4.59,4.59,0,0,0,.57,1.37,3,3,0,0,0,1,.93,2.84,2.84,0,0,0,1.4.33,3.5,3.5,0,0,0,1.62-.32,2.17,2.17,0,0,0,.92-.93A4.85,4.85,0,0,0,375,91Z" transform="translate(0 -2.77)"/><path class="cls-3" d="M380.47,82.74V94.83h-1.6V82.74Z" transform="translate(0 -2.77)"/><path class="cls-3" d="M388,83.81l-4,11h-1.64L387,82.74H388Zm3.15,6.54v1.32h-6.79V90.35Zm.21,4.48-4-11,0-1.07h1.05L393,94.83Z" transform="translate(0 -2.77)"/><path class="cls-3" d="M401.06,91.77a2,2,0,0,0-.13-.75,1.55,1.55,0,0,0-.45-.59,3.35,3.35,0,0,0-.88-.51,13.1,13.1,0,0,0-1.41-.49,11.25,11.25,0,0,1-1.62-.59,5.67,5.67,0,0,1-1.24-.75,3.16,3.16,0,0,1-.79-1,2.84,2.84,0,0,1-.27-1.26,3,3,0,0,1,1.12-2.34,3.94,3.94,0,0,1,1.3-.69,5.31,5.31,0,0,1,1.69-.25,4.72,4.72,0,0,1,2.31.52,3.65,3.65,0,0,1,1.45,1.35,3.42,3.42,0,0,1,.5,1.78H401a2.52,2.52,0,0,0-.29-1.21,2,2,0,0,0-.88-.83,3.27,3.27,0,0,0-1.49-.3,3.23,3.23,0,0,0-1.41.26,1.85,1.85,0,0,0-.83.69,1.91,1.91,0,0,0-.27,1,1.46,1.46,0,0,0,.16.69,1.82,1.82,0,0,0,.51.58,4.18,4.18,0,0,0,.88.49,11.19,11.19,0,0,0,1.28.43,10.65,10.65,0,0,1,1.78.65,4.59,4.59,0,0,1,1.23.8,2.77,2.77,0,0,1,.72,1,3.23,3.23,0,0,1,.24,1.27,2.89,2.89,0,0,1-.3,1.33,3,3,0,0,1-.85,1,4.4,4.4,0,0,1-1.34.65,6.15,6.15,0,0,1-1.73.22,5.77,5.77,0,0,1-1.65-.23,4.58,4.58,0,0,1-1.46-.7,3.6,3.6,0,0,1-1.06-1.14,3.18,3.18,0,0,1-.39-1.59h1.59a2.18,2.18,0,0,0,.24,1.06,2.13,2.13,0,0,0,.66.74,3,3,0,0,0,1,.42,4.07,4.07,0,0,0,1.11.14,4,4,0,0,0,1.42-.23,2,2,0,0,0,.89-.67A1.71,1.71,0,0,0,401.06,91.77Z" transform="translate(0 -2.77)"/><path class="cls-3" d="M533.81,82.66a2,2,0,0,0-.13-.75,1.58,1.58,0,0,0-.45-.6,3.66,3.66,0,0,0-.88-.5,11.22,11.22,0,0,0-1.41-.49,12.55,12.55,0,0,1-1.62-.6,5,5,0,0,1-1.24-.75,3,3,0,0,1-.79-1,2.77,2.77,0,0,1-.27-1.25,3,3,0,0,1,.29-1.3,3.09,3.09,0,0,1,.83-1,4.35,4.35,0,0,1,1.3-.69,5.31,5.31,0,0,1,1.69-.25,4.72,4.72,0,0,1,2.31.52,3.79,3.79,0,0,1,1.45,1.35,3.45,3.45,0,0,1,.5,1.78h-1.6a2.48,2.48,0,0,0-.29-1.2,2,2,0,0,0-.88-.83,3.14,3.14,0,0,0-1.49-.31,3.38,3.38,0,0,0-1.41.26,1.81,1.81,0,0,0-.83.7,1.87,1.87,0,0,0-.27,1,1.41,1.41,0,0,0,.16.69,1.72,1.72,0,0,0,.51.58,3.78,3.78,0,0,0,.88.49,9.53,9.53,0,0,0,1.28.43,11.62,11.62,0,0,1,1.78.65,5.13,5.13,0,0,1,1.23.8,2.81,2.81,0,0,1,.72,1,3.15,3.15,0,0,1,.24,1.26,3,3,0,0,1-.3,1.34,2.87,2.87,0,0,1-.85,1,4.18,4.18,0,0,1-1.34.65,6.32,6.32,0,0,1-3.38,0,5,5,0,0,1-1.46-.7A3.53,3.53,0,0,1,527,83.8a3.18,3.18,0,0,1-.39-1.59h1.59a2.25,2.25,0,0,0,.24,1.07,2.1,2.1,0,0,0,.66.73,2.8,2.8,0,0,0,1,.43,4.5,4.5,0,0,0,1.11.14,3.73,3.73,0,0,0,1.42-.24,1.9,1.9,0,0,0,.89-.66A1.75,1.75,0,0,0,533.81,82.66Z" transform="translate(0 -2.77)"/><path class="cls-3" d="M541.94,74.7l-4,11H536.3l4.61-12.08H542Zm3.14,6.54v1.31h-6.79V81.24Zm.21,4.47-4-11,0-1.07h1.06l4.62,12.08Z" transform="translate(0 -2.77)"/><path class="cls-3" d="M555.83,73.63v1.31h-9.34V73.63Zm-3.88,0V85.71h-1.58V73.63Z" transform="translate(0 -2.77)"/><path class="cls-3" d="M559.34,73.63V85.71h-1.6V73.63Z" transform="translate(0 -2.77)"/><path class="cls-3" d="M568.69,82.66a2,2,0,0,0-.13-.75,1.58,1.58,0,0,0-.45-.6,3.66,3.66,0,0,0-.88-.5,11.22,11.22,0,0,0-1.41-.49,12.55,12.55,0,0,1-1.62-.6A5,5,0,0,1,563,79a3,3,0,0,1-.79-1,2.77,2.77,0,0,1-.27-1.25,3,3,0,0,1,.29-1.3,3.09,3.09,0,0,1,.83-1,4.35,4.35,0,0,1,1.3-.69,5.31,5.31,0,0,1,1.69-.25,4.72,4.72,0,0,1,2.31.52,3.79,3.79,0,0,1,1.45,1.35,3.45,3.45,0,0,1,.5,1.78h-1.6a2.48,2.48,0,0,0-.29-1.2,2,2,0,0,0-.88-.83,3.14,3.14,0,0,0-1.49-.31,3.38,3.38,0,0,0-1.41.26,1.81,1.81,0,0,0-.83.7,1.87,1.87,0,0,0-.27,1,1.41,1.41,0,0,0,.16.69,1.72,1.72,0,0,0,.51.58,3.78,3.78,0,0,0,.88.49,9.53,9.53,0,0,0,1.28.43,11.62,11.62,0,0,1,1.78.65,5.13,5.13,0,0,1,1.23.8,2.93,2.93,0,0,1,.72,1,3.15,3.15,0,0,1,.24,1.26A3,3,0,0,1,570,84a2.87,2.87,0,0,1-.85,1,4.18,4.18,0,0,1-1.34.65,6.32,6.32,0,0,1-3.38,0A4.93,4.93,0,0,1,563,85a3.53,3.53,0,0,1-1.06-1.15,3.18,3.18,0,0,1-.39-1.59h1.59a2.25,2.25,0,0,0,.24,1.07A2.1,2.1,0,0,0,564,84a2.8,2.8,0,0,0,1,.43,4.44,4.44,0,0,0,1.11.14,3.73,3.73,0,0,0,1.42-.24,1.9,1.9,0,0,0,.89-.66A1.75,1.75,0,0,0,568.69,82.66Z" transform="translate(0 -2.77)"/><path class="cls-3" d="M573.94,73.63V85.71h-1.6V73.63Zm5.89,0v1.31h-6.24V73.63ZM579,79.06v1.32h-5.42V79.06Z" transform="translate(0 -2.77)"/><path class="cls-3" d="M584.8,74.7l-4,11h-1.64l4.61-12.08h1.06ZM588,81.24v1.31h-6.79V81.24Zm.2,4.47-4-11,0-1.07h1l4.63,12.08Z" transform="translate(0 -2.77)"/><path class="cls-3" d="M598.62,81.87h1.59a5.1,5.1,0,0,1-.65,2,3.9,3.9,0,0,1-1.5,1.43,5.08,5.08,0,0,1-2.43.53,4.5,4.5,0,0,1-1.93-.4,4.34,4.34,0,0,1-1.49-1.13,5.37,5.37,0,0,1-1-1.77,7.56,7.56,0,0,1-.33-2.3V79.07a7.56,7.56,0,0,1,.33-2.3,5.07,5.07,0,0,1,1-1.77,4.1,4.1,0,0,1,1.53-1.14,4.81,4.81,0,0,1,2-.4,4.71,4.71,0,0,1,2.32.52,3.65,3.65,0,0,1,1.47,1.42,5.23,5.23,0,0,1,.65,2.1h-1.59a4.5,4.5,0,0,0-.43-1.45,2.21,2.21,0,0,0-.9-.94,3,3,0,0,0-1.52-.34,3.18,3.18,0,0,0-1.41.31,2.86,2.86,0,0,0-1,.87,4,4,0,0,0-.62,1.35,6.85,6.85,0,0,0-.21,1.76v1.22A7,7,0,0,0,592.7,82a4.16,4.16,0,0,0,.57,1.36,2.7,2.7,0,0,0,1,.93,2.8,2.8,0,0,0,1.39.34,3.41,3.41,0,0,0,1.63-.33,2.12,2.12,0,0,0,.92-.93A5.06,5.06,0,0,0,598.62,81.87Z" transform="translate(0 -2.77)"/><path class="cls-3" d="M609.69,81.87h1.59a5,5,0,0,1-.66,2,3.76,3.76,0,0,1-1.5,1.43,5,5,0,0,1-2.42.53,4.5,4.5,0,0,1-1.93-.4,4.24,4.24,0,0,1-1.49-1.13,5,5,0,0,1-1-1.77,7.56,7.56,0,0,1-.34-2.3V79.07a7.56,7.56,0,0,1,.34-2.3,5,5,0,0,1,1-1.77,4.1,4.1,0,0,1,1.53-1.14,4.86,4.86,0,0,1,2-.4,4.7,4.7,0,0,1,2.31.52,3.62,3.62,0,0,1,1.48,1.42,5.23,5.23,0,0,1,.65,2.1h-1.59a4.5,4.5,0,0,0-.44-1.45,2.19,2.19,0,0,0-.89-.94,3,3,0,0,0-1.52-.34,3.19,3.19,0,0,0-1.42.31,3,3,0,0,0-1,.87,4.19,4.19,0,0,0-.62,1.35,7.34,7.34,0,0,0-.2,1.76v1.22a7.5,7.5,0,0,0,.18,1.67,4.64,4.64,0,0,0,.57,1.36,2.78,2.78,0,0,0,1,.93,2.84,2.84,0,0,0,1.4.34,3.37,3.37,0,0,0,1.62-.33,2.07,2.07,0,0,0,.92-.93A4.76,4.76,0,0,0,609.69,81.87Z" transform="translate(0 -2.77)"/><path class="cls-3" d="M615.17,73.63V85.71h-1.6V73.63Z" transform="translate(0 -2.77)"/><path class="cls-3" d="M627.38,79.29v.76a8,8,0,0,1-.34,2.44,5.15,5.15,0,0,1-1,1.84,4.24,4.24,0,0,1-1.53,1.15,5.1,5.1,0,0,1-4,0A4.45,4.45,0,0,1,619,84.33a5.36,5.36,0,0,1-1-1.84,7.68,7.68,0,0,1-.36-2.44v-.76a7.68,7.68,0,0,1,.36-2.44A5.14,5.14,0,0,1,619,75a4.16,4.16,0,0,1,1.54-1.16,4.67,4.67,0,0,1,2-.4,4.8,4.8,0,0,1,2,.4A4.21,4.21,0,0,1,626.05,75a5.28,5.28,0,0,1,1,1.83A8,8,0,0,1,627.38,79.29Zm-1.58.76v-.78a7.83,7.83,0,0,0-.22-1.91,4.06,4.06,0,0,0-.64-1.39,2.86,2.86,0,0,0-1-.86,3.25,3.25,0,0,0-1.38-.29,3.11,3.11,0,0,0-1.35.29,2.91,2.91,0,0,0-1,.86,4.27,4.27,0,0,0-.66,1.39,7.35,7.35,0,0,0-.23,1.91v.78a7.32,7.32,0,0,0,.23,1.92,4.2,4.2,0,0,0,.67,1.41,3,3,0,0,0,1,.86,3.11,3.11,0,0,0,1.35.29,3.18,3.18,0,0,0,1.38-.29,2.75,2.75,0,0,0,1-.86,4,4,0,0,0,.63-1.41A7.35,7.35,0,0,0,625.8,80.05Zm-4.1-7.24,1.61-2.44h1.85l-2.23,2.44Z" transform="translate(0 -2.77)"/><path class="cls-3" d="M639.07,73.63V85.71h-1.61l-6.08-9.32v9.32h-1.61V73.63h1.61l6.1,9.34V73.63Z" transform="translate(0 -2.77)"/><path class="cls-3" d="M529,91.67v12.09h-1.6V91.67Zm1.67,12.09h-2.53l0-1.31h2.51a4,4,0,0,0,2.16-.54,3.43,3.43,0,0,0,1.3-1.53,5.62,5.62,0,0,0,.43-2.3v-.74a6.18,6.18,0,0,0-.25-1.85,3.75,3.75,0,0,0-.73-1.37,3.21,3.21,0,0,0-1.17-.85,4.21,4.21,0,0,0-1.59-.29h-2.73V91.67h2.73a5.77,5.77,0,0,1,2.16.39,4.85,4.85,0,0,1,1.69,1.14A4.93,4.93,0,0,1,535.73,95a6.77,6.77,0,0,1,.39,2.37v.72a6.75,6.75,0,0,1-.39,2.36,4.87,4.87,0,0,1-1.1,1.79,4.73,4.73,0,0,1-1.72,1.13A6.25,6.25,0,0,1,530.64,103.76Z" transform="translate(0 -2.77)"/><path class="cls-3" d="M540.13,91.67v12.09h-1.61V91.67Zm6,0V93H539.8V91.67Zm-.76,5.2v1.3H539.8v-1.3Zm.84,5.58v1.31h-6.4v-1.31Z" transform="translate(0 -2.77)"/><path class="cls-3" d="M549.79,91.67v12.09h-1.6V91.67Zm5.73,10.78v1.31h-6v-1.31Z" transform="translate(0 -2.77)"/><path class="cls-3" d="M568.47,91.67h1.6v8.18a4,4,0,0,1-.61,2.26,3.78,3.78,0,0,1-1.6,1.36,5.6,5.6,0,0,1-4.4,0,3.56,3.56,0,0,1-1.56-1.36,4.08,4.08,0,0,1-.58-2.26V91.67h1.58v8.18a3.16,3.16,0,0,0,.35,1.56,2.16,2.16,0,0,0,1,.91,3.32,3.32,0,0,0,1.45.3,3.38,3.38,0,0,0,1.47-.3,2.14,2.14,0,0,0,1-.91,3.05,3.05,0,0,0,.35-1.56Z" transform="translate(0 -2.77)"/><path class="cls-3" d="M579,100.7a2.19,2.19,0,0,0-.12-.75,1.48,1.48,0,0,0-.45-.59,3.72,3.72,0,0,0-.88-.51,14.21,14.21,0,0,0-1.42-.49,12.59,12.59,0,0,1-1.62-.59A5.59,5.59,0,0,1,573.3,97a2.93,2.93,0,0,1-.79-1,2.65,2.65,0,0,1-.28-1.25,3,3,0,0,1,.29-1.3,3.11,3.11,0,0,1,.84-1,4,4,0,0,1,1.3-.7,5.49,5.49,0,0,1,1.68-.25,4.81,4.81,0,0,1,2.31.52,3.67,3.67,0,0,1,1.45,1.36,3.33,3.33,0,0,1,.5,1.78H579a2.49,2.49,0,0,0-.29-1.21,2.08,2.08,0,0,0-.88-.83,3.31,3.31,0,0,0-1.5-.3,3.39,3.39,0,0,0-1.41.25,1.79,1.79,0,0,0-.82.7,1.87,1.87,0,0,0-.27,1,1.47,1.47,0,0,0,.16.7,1.76,1.76,0,0,0,.5.57,4,4,0,0,0,.88.49,11.28,11.28,0,0,0,1.29.44,11.92,11.92,0,0,1,1.77.64,5.42,5.42,0,0,1,1.24.8,2.93,2.93,0,0,1,.72,1,3.15,3.15,0,0,1,.23,1.26,3.06,3.06,0,0,1-.29,1.34,2.9,2.9,0,0,1-.86,1,4,4,0,0,1-1.33.65,5.89,5.89,0,0,1-1.73.23,6.14,6.14,0,0,1-1.65-.23,5,5,0,0,1-1.47-.7,3.5,3.5,0,0,1-1-1.15,3,3,0,0,1-.4-1.59h1.59a2.23,2.23,0,0,0,.25,1.07,2,2,0,0,0,.66.73,2.75,2.75,0,0,0,.95.43,4.58,4.58,0,0,0,1.12.14,4,4,0,0,0,1.42-.23,2,2,0,0,0,.88-.67A1.75,1.75,0,0,0,579,100.7Z" transform="translate(0 -2.77)"/><path class="cls-3" d="M589.59,91.67h1.59v8.18a4,4,0,0,1-.6,2.26,3.8,3.8,0,0,1-1.61,1.36,5.2,5.2,0,0,1-2.17.45,5.31,5.31,0,0,1-2.22-.45,3.64,3.64,0,0,1-1.57-1.36,4.17,4.17,0,0,1-.57-2.26V91.67H584v8.18a3.16,3.16,0,0,0,.35,1.56,2.19,2.19,0,0,0,1,.91,3.73,3.73,0,0,0,2.93,0,2.19,2.19,0,0,0,1-.91,3.16,3.16,0,0,0,.35-1.56Z" transform="translate(0 -2.77)"/><path class="cls-3" d="M598,92.74l-4,11h-1.64L597,91.67H598Zm3.15,6.54v1.31h-6.79V99.28Zm.2,4.48-4-11,0-1.07h1.05L603,103.76Z" transform="translate(0 -2.77)"/><path class="cls-3" d="M604.61,91.67h4a5.84,5.84,0,0,1,2.3.41,3.12,3.12,0,0,1,1.44,1.23,3.74,3.74,0,0,1,.49,2,3.29,3.29,0,0,1-.34,1.51,3.07,3.07,0,0,1-1,1.16,4.17,4.17,0,0,1-1.5.71l-.45.18h-3.76V97.55h2.84a3.06,3.06,0,0,0,1.43-.3,2.09,2.09,0,0,0,.87-.82,2.29,2.29,0,0,0,.29-1.13,2.61,2.61,0,0,0-.28-1.22,1.83,1.83,0,0,0-.86-.81,3.42,3.42,0,0,0-1.5-.29h-2.4v10.78h-1.6Zm7.06,12.09-2.94-5.48h1.67l3,5.39v.1Z" transform="translate(0 -2.77)"/><path class="cls-3" d="M616.8,91.67v12.09h-1.6V91.67Z" transform="translate(0 -2.77)"/><path class="cls-3" d="M629,97.33v.76a8.06,8.06,0,0,1-.34,2.45,5.26,5.26,0,0,1-1,1.83,4.29,4.29,0,0,1-1.53,1.15,4.8,4.8,0,0,1-2,.4,4.67,4.67,0,0,1-2-.4,4.33,4.33,0,0,1-1.54-1.15,5.31,5.31,0,0,1-1-1.83,7.74,7.74,0,0,1-.36-2.45v-.76a8,8,0,0,1,.35-2.44,5.56,5.56,0,0,1,1-1.83,4.36,4.36,0,0,1,1.54-1.16,5.1,5.1,0,0,1,4,0,4.27,4.27,0,0,1,1.54,1.16,5.37,5.37,0,0,1,1,1.83A8,8,0,0,1,629,97.33Zm-1.58.76v-.78a7.22,7.22,0,0,0-.23-1.9,3.93,3.93,0,0,0-.64-1.4,2.64,2.64,0,0,0-1-.85,3.1,3.1,0,0,0-1.38-.29,3,3,0,0,0-1.35.29,2.71,2.71,0,0,0-1,.85,4,4,0,0,0-.66,1.4,6.82,6.82,0,0,0-.23,1.9v.78a7,7,0,0,0,.23,1.93,4.05,4.05,0,0,0,.67,1.4,2.91,2.91,0,0,0,1,.86,3.14,3.14,0,0,0,1.35.29,3.23,3.23,0,0,0,1.39-.29,2.8,2.8,0,0,0,1-.86,4,4,0,0,0,.64-1.4A7.94,7.94,0,0,0,627.43,98.09Z" transform="translate(0 -2.77)"/><path class="cls-3" d="M740.14,69.5h-3.23V68.19h3.23a3.31,3.31,0,0,0,1.52-.3,1.85,1.85,0,0,0,.85-.83,2.76,2.76,0,0,0,0-2.38,2.05,2.05,0,0,0-.85-.88,3,3,0,0,0-1.52-.34h-2.85V74.23h-1.61V62.15h4.46a5.24,5.24,0,0,1,2.32.47,3.32,3.32,0,0,1,1.43,1.31,3.66,3.66,0,0,1,.49,1.9,3.79,3.79,0,0,1-.49,2,3.08,3.08,0,0,1-1.43,1.25A5.72,5.72,0,0,1,740.14,69.5Z" transform="translate(0 -2.77)"/><path class="cls-3" d="M746.41,62.15h4a5.77,5.77,0,0,1,2.3.41,3.12,3.12,0,0,1,1.44,1.23,3.74,3.74,0,0,1,.49,2,3.44,3.44,0,0,1-.33,1.51,3.28,3.28,0,0,1-1,1.16,4,4,0,0,1-1.49.71l-.45.18h-3.76l0-1.31h2.84a3.1,3.1,0,0,0,1.44-.3,2,2,0,0,0,.86-.82,2.29,2.29,0,0,0,.29-1.13,2.58,2.58,0,0,0-.27-1.22,1.88,1.88,0,0,0-.86-.81,3.47,3.47,0,0,0-1.51-.29H748V74.23h-1.6Zm7.06,12.08-2.94-5.47h1.67l3,5.38v.1Z" transform="translate(0 -2.77)"/><path class="cls-3" d="M761.36,63.22l-4,11h-1.64l4.61-12.08h1Zm3.14,6.54v1.31h-6.79V69.76Zm-4.29-8.42,1.61-2.44h1.85l-2.22,2.44Zm4.5,12.89-4-11,0-1.07h1.05l4.63,12.08Z" transform="translate(0 -2.77)"/><path class="cls-3" d="M775.18,70.39h1.59a5,5,0,0,1-.65,2,3.9,3.9,0,0,1-1.5,1.43,5,5,0,0,1-2.43.53,4.5,4.5,0,0,1-1.93-.4,4.22,4.22,0,0,1-1.49-1.13,5.37,5.37,0,0,1-1-1.77,7.56,7.56,0,0,1-.33-2.3V67.59a7.56,7.56,0,0,1,.33-2.3,5.21,5.21,0,0,1,1-1.77,4.45,4.45,0,0,1,1.54-1.14,5,5,0,0,1,2-.4,4.71,4.71,0,0,1,2.32.52,3.72,3.72,0,0,1,1.47,1.42,5.23,5.23,0,0,1,.65,2.11h-1.59a4.56,4.56,0,0,0-.43-1.46,2.21,2.21,0,0,0-.9-.94,3.05,3.05,0,0,0-1.52-.34,3.15,3.15,0,0,0-1.41.31,2.86,2.86,0,0,0-1,.87,4,4,0,0,0-.62,1.36,6.77,6.77,0,0,0-.21,1.75V68.8a6.89,6.89,0,0,0,.19,1.67,4.21,4.21,0,0,0,.57,1.37,2.7,2.7,0,0,0,2.36,1.26,3.44,3.44,0,0,0,1.63-.33,2.12,2.12,0,0,0,.92-.93A5,5,0,0,0,775.18,70.39Z" transform="translate(0 -2.77)"/><path class="cls-3" d="M787.06,62.15v1.31h-9.34V62.15Zm-3.89,0V74.23H781.6V62.15Z" transform="translate(0 -2.77)"/><path class="cls-3" d="M790.57,62.15V74.23H789V62.15Z" transform="translate(0 -2.77)"/><path class="cls-3" d="M800.77,70.39h1.59a5,5,0,0,1-.65,2,3.9,3.9,0,0,1-1.5,1.43,5,5,0,0,1-2.43.53,4.5,4.5,0,0,1-1.93-.4,4.22,4.22,0,0,1-1.49-1.13,5.37,5.37,0,0,1-1-1.77,7.56,7.56,0,0,1-.33-2.3V67.59a7.56,7.56,0,0,1,.33-2.3,5.07,5.07,0,0,1,1-1.77,4.33,4.33,0,0,1,1.53-1.14,5,5,0,0,1,2-.4,4.71,4.71,0,0,1,2.32.52,3.72,3.72,0,0,1,1.47,1.42,5.23,5.23,0,0,1,.65,2.11h-1.59a4.56,4.56,0,0,0-.43-1.46,2.21,2.21,0,0,0-.9-.94,3.05,3.05,0,0,0-1.52-.34,3.18,3.18,0,0,0-1.41.31,2.86,2.86,0,0,0-1,.87,4,4,0,0,0-.62,1.36,6.77,6.77,0,0,0-.21,1.75V68.8a6.89,6.89,0,0,0,.19,1.67,4.21,4.21,0,0,0,.57,1.37,2.75,2.75,0,0,0,1,.92,2.7,2.7,0,0,0,1.39.34,3.44,3.44,0,0,0,1.63-.33,2.12,2.12,0,0,0,.92-.93A5,5,0,0,0,800.77,70.39Z" transform="translate(0 -2.77)"/><path class="cls-3" d="M809,63.22l-4,11h-1.63L808,62.15H809Zm3.15,6.54v1.31h-6.79V69.76Zm.21,4.47-4-11,0-1.07h1.06L814,74.23Z" transform="translate(0 -2.77)"/><path class="cls-3" d="M822.07,71.18a2,2,0,0,0-.13-.75,1.32,1.32,0,0,0-.45-.59,3.35,3.35,0,0,0-.88-.51,13.1,13.1,0,0,0-1.41-.49,14.29,14.29,0,0,1-1.62-.59,5.54,5.54,0,0,1-1.24-.76,3,3,0,0,1-.79-1,2.77,2.77,0,0,1-.27-1.25,3,3,0,0,1,1.13-2.35,4.12,4.12,0,0,1,1.3-.69,5.49,5.49,0,0,1,1.68-.25,4.81,4.81,0,0,1,2.31.52,3.72,3.72,0,0,1,1.45,1.35,3.45,3.45,0,0,1,.5,1.78h-1.6a2.37,2.37,0,0,0-.29-1.2,2,2,0,0,0-.88-.83,3.26,3.26,0,0,0-1.49-.31,3.38,3.38,0,0,0-1.41.26,1.78,1.78,0,0,0-1.1,1.7,1.48,1.48,0,0,0,.17.7,1.65,1.65,0,0,0,.5.57,3.78,3.78,0,0,0,.88.49,11.06,11.06,0,0,0,1.28.44,10.69,10.69,0,0,1,1.78.64,5.13,5.13,0,0,1,1.23.8,2.69,2.69,0,0,1,.72,1,3.15,3.15,0,0,1,.24,1.26,2.93,2.93,0,0,1-.3,1.34,2.87,2.87,0,0,1-.85,1,4.13,4.13,0,0,1-1.33.65,6.26,6.26,0,0,1-1.74.23,6.13,6.13,0,0,1-1.64-.23,5,5,0,0,1-1.47-.7,3.64,3.64,0,0,1-1.06-1.15,3.15,3.15,0,0,1-.39-1.59h1.59a2.23,2.23,0,0,0,.24,1.07,2.1,2.1,0,0,0,.66.73,2.8,2.8,0,0,0,1,.43,4.56,4.56,0,0,0,1.11.14,3.91,3.91,0,0,0,1.42-.23,1.93,1.93,0,0,0,.89-.67A1.75,1.75,0,0,0,822.07,71.18Z" transform="translate(0 -2.77)"/><path class="cls-3" d="M831.54,62.15V74.23h-1.6V62.15Zm1.67,12.08h-2.52v-1.3h2.51a4,4,0,0,0,2.16-.54,3.37,3.37,0,0,0,1.3-1.53,5.62,5.62,0,0,0,.43-2.3v-.74a6.18,6.18,0,0,0-.25-1.85,3.6,3.6,0,0,0-.73-1.37,3.21,3.21,0,0,0-1.17-.85,4.14,4.14,0,0,0-1.59-.29h-2.72V62.15h2.72a5.86,5.86,0,0,1,2.17.39,5,5,0,0,1,1.69,1.14,5.22,5.22,0,0,1,1.09,1.79,7,7,0,0,1,.38,2.36v.73a7,7,0,0,1-.38,2.36,5.09,5.09,0,0,1-1.1,1.79,4.86,4.86,0,0,1-1.73,1.13A6.25,6.25,0,0,1,833.21,74.23Z" transform="translate(0 -2.77)"/><path class="cls-3" d="M842.7,62.15V74.23h-1.6V62.15Zm6,0v1.31h-6.31V62.15Zm-.76,5.2v1.3h-5.55v-1.3Zm.84,5.58v1.3h-6.39v-1.3Z" transform="translate(0 -2.77)"/><path class="cls-3" d="M742.13,89.22a2.18,2.18,0,0,0-.13-.75,1.48,1.48,0,0,0-.45-.59,3.52,3.52,0,0,0-.88-.51,13.37,13.37,0,0,0-1.42-.49,12.2,12.2,0,0,1-1.62-.59,5.59,5.59,0,0,1-1.23-.75,3,3,0,0,1-.79-1,3.07,3.07,0,0,1,0-2.56,3,3,0,0,1,.83-1,4,4,0,0,1,1.3-.7,5.5,5.5,0,0,1,1.68-.24,4.88,4.88,0,0,1,2.32.51,3.81,3.81,0,0,1,1.45,1.36,3.41,3.41,0,0,1,.49,1.78h-1.59a2.49,2.49,0,0,0-.29-1.21,2,2,0,0,0-.88-.83,3.28,3.28,0,0,0-1.5-.3,3.39,3.39,0,0,0-1.41.25,1.91,1.91,0,0,0-.82.7,1.88,1.88,0,0,0-.27,1,1.46,1.46,0,0,0,.16.69,1.82,1.82,0,0,0,.51.58,4.18,4.18,0,0,0,.88.49,10.56,10.56,0,0,0,1.28.43,12.08,12.08,0,0,1,1.78.64,5.25,5.25,0,0,1,1.23.81,2.9,2.9,0,0,1,.72,1,3.2,3.2,0,0,1,.24,1.27,2.85,2.85,0,0,1-1.16,2.35,3.84,3.84,0,0,1-1.33.65,5.84,5.84,0,0,1-1.73.23,5.77,5.77,0,0,1-1.65-.23,4.75,4.75,0,0,1-1.47-.7,3.5,3.5,0,0,1-1-1.15,3.13,3.13,0,0,1-.4-1.59h1.6a2.23,2.23,0,0,0,.24,1.07,2.13,2.13,0,0,0,.66.74,3,3,0,0,0,.95.42,4.58,4.58,0,0,0,1.12.14,4,4,0,0,0,1.42-.23,1.9,1.9,0,0,0,.88-.67A1.71,1.71,0,0,0,742.13,89.22Z" transform="translate(0 -2.77)"/><path class="cls-3" d="M747.38,80.19V92.28h-1.6V80.19Zm6,0V81.5h-6.31V80.19Zm-.76,5.2v1.3h-5.55v-1.3Zm.85,5.58v1.31h-6.4V91Z" transform="translate(0 -2.77)"/><path class="cls-3" d="M764.37,86.26v4.42a4.28,4.28,0,0,1-.71.75,4.46,4.46,0,0,1-1.35.71,6.81,6.81,0,0,1-2.21.3,5.32,5.32,0,0,1-2-.38,4.66,4.66,0,0,1-1.61-1.13,5.27,5.27,0,0,1-1-1.81,7.28,7.28,0,0,1-.37-2.42v-.94a8.42,8.42,0,0,1,.32-2.41,5.1,5.1,0,0,1,.94-1.81,4.08,4.08,0,0,1,1.53-1.13,5.17,5.17,0,0,1,2.07-.38,5,5,0,0,1,2.32.47,3.69,3.69,0,0,1,1.47,1.32,4.78,4.78,0,0,1,.67,1.91h-1.6a3.44,3.44,0,0,0-.43-1.2,2.31,2.31,0,0,0-.91-.87,3.2,3.2,0,0,0-1.52-.32,3.29,3.29,0,0,0-1.45.3,2.68,2.68,0,0,0-1,.88,4.08,4.08,0,0,0-.59,1.39,7.83,7.83,0,0,0-.2,1.83v1a6.32,6.32,0,0,0,.25,1.87,4,4,0,0,0,.7,1.39,2.89,2.89,0,0,0,1.09.88,3.24,3.24,0,0,0,1.41.3,5.22,5.22,0,0,0,1.38-.15,2.73,2.73,0,0,0,.83-.34,2.8,2.8,0,0,0,.46-.39V87.55H760V86.26Z" transform="translate(0 -2.77)"/><path class="cls-3" d="M773.93,80.19h1.6v8.18a3.91,3.91,0,0,1-.61,2.26,3.71,3.71,0,0,1-1.6,1.36,5.24,5.24,0,0,1-2.17.45,5.39,5.39,0,0,1-2.23-.45,3.5,3.5,0,0,1-1.56-1.36,4.06,4.06,0,0,1-.58-2.26V80.19h1.59v8.18a3.16,3.16,0,0,0,.34,1.56,2.21,2.21,0,0,0,1,.91,3.7,3.7,0,0,0,2.92,0,2.21,2.21,0,0,0,1-.91,3.16,3.16,0,0,0,.34-1.56Z" transform="translate(0 -2.77)"/><path class="cls-3" d="M778,80.19h4a5.66,5.66,0,0,1,2.3.42,3,3,0,0,1,1.43,1.22,3.74,3.74,0,0,1,.5,2,3.29,3.29,0,0,1-.34,1.51,3.18,3.18,0,0,1-1,1.17,4.53,4.53,0,0,1-1.5.71l-.45.17h-3.76v-1.3h2.83a3,3,0,0,0,1.44-.31,2,2,0,0,0,.86-.81,2.25,2.25,0,0,0,.29-1.14,2.61,2.61,0,0,0-.27-1.22,1.83,1.83,0,0,0-.86-.81,3.42,3.42,0,0,0-1.5-.29h-2.4V92.28H778Zm7.07,12.09-2.94-5.48h1.67l3,5.39v.1Z" transform="translate(0 -2.77)"/><path class="cls-3" d="M790.24,80.19V92.28h-1.61V80.19Z" transform="translate(0 -2.77)"/><path class="cls-3" d="M794.74,80.19V92.28h-1.6V80.19Zm1.67,12.09h-2.52l0-1.31h2.5a4,4,0,0,0,2.16-.54,3.31,3.31,0,0,0,1.3-1.53,5.62,5.62,0,0,0,.44-2.3v-.74a6.52,6.52,0,0,0-.25-1.85,3.9,3.9,0,0,0-.73-1.37,3.34,3.34,0,0,0-1.18-.85,4.14,4.14,0,0,0-1.59-.29h-2.72V80.19h2.72a5.63,5.63,0,0,1,2.17.4,4.88,4.88,0,0,1,1.69,1.13,5.26,5.26,0,0,1,1.09,1.8,7,7,0,0,1,.38,2.36v.72a7,7,0,0,1-.38,2.36,5,5,0,0,1-1.1,1.79,4.77,4.77,0,0,1-1.73,1.13A6,6,0,0,1,796.41,92.28Z" transform="translate(0 -2.77)"/><path class="cls-3" d="M808.6,81.26l-4,11H803l4.61-12.09h1Zm3.14,6.54v1.31H805V87.8Zm.21,4.48-4-11,0-1.07H809l4.62,12.09Z" transform="translate(0 -2.77)"/><path class="cls-3" d="M816.82,80.19V92.28h-1.61V80.19Zm1.66,12.09H816L816,91h2.5a4,4,0,0,0,2.16-.54,3.31,3.31,0,0,0,1.3-1.53,5.62,5.62,0,0,0,.44-2.3v-.74a6.52,6.52,0,0,0-.25-1.85,3.9,3.9,0,0,0-.73-1.37,3.25,3.25,0,0,0-1.18-.85,4.14,4.14,0,0,0-1.59-.29h-2.72V80.19h2.72a5.63,5.63,0,0,1,2.17.4,4.78,4.78,0,0,1,1.69,1.13,5.11,5.11,0,0,1,1.09,1.8,6.72,6.72,0,0,1,.38,2.36v.72a6.76,6.76,0,0,1-.38,2.36,4.87,4.87,0,0,1-1.1,1.79,4.77,4.77,0,0,1-1.73,1.13A6,6,0,0,1,818.48,92.28Z" transform="translate(0 -2.77)"/><path class="cls-3" d="M831.14,80.19l3.14,6.07,3.15-6.07h1.81l-4.16,7.57v4.52h-1.61V87.76l-4.16-7.57Z" transform="translate(0 -2.77)"/><path class="cls-3" d="M740,104.67h-3.06l0-1.29h2.78a3,3,0,0,0,1.21-.23,1.89,1.89,0,0,0,.8-.67,1.86,1.86,0,0,0,.28-1,2.09,2.09,0,0,0-.25-1.09,1.53,1.53,0,0,0-.77-.61,3.82,3.82,0,0,0-1.32-.2h-2.35v10.78h-1.61V98.23h4a6.89,6.89,0,0,1,1.66.19,3.43,3.43,0,0,1,1.25.58,2.64,2.64,0,0,1,.77,1,3.57,3.57,0,0,1,.27,1.45,2.5,2.5,0,0,1-.38,1.35,3.06,3.06,0,0,1-1.06,1,4.24,4.24,0,0,1-1.59.49Zm-.07,5.65H736.3l.9-1.3h2.72a2.87,2.87,0,0,0,1.3-.27A1.9,1.9,0,0,0,742,108a2.23,2.23,0,0,0,.29-1.15,2.58,2.58,0,0,0-.24-1.16,1.69,1.69,0,0,0-.76-.76,2.87,2.87,0,0,0-1.33-.26h-2.28l0-1.29h3.12l.34.46a3,3,0,0,1,1.48.5,2.72,2.72,0,0,1,.92,1.07,3.18,3.18,0,0,1,.32,1.42,3.48,3.48,0,0,1-.49,1.91,3.15,3.15,0,0,1-1.39,1.18A5.09,5.09,0,0,1,739.92,110.32Z" transform="translate(0 -2.77)"/><path class="cls-3" d="M748,98.23v12.09h-1.6V98.23Z" transform="translate(0 -2.77)"/><path class="cls-3" d="M752.5,98.23v12.09h-1.6V98.23Zm6,0v1.31h-6.31V98.23Zm-.76,5.2v1.3h-5.55v-1.3Zm.85,5.59v1.3h-6.4V109Z" transform="translate(0 -2.77)"/><path class="cls-3" d="M769.86,98.23v12.09h-1.61L762.16,101v9.32h-1.6V98.23h1.6l6.11,9.35V98.23Z" transform="translate(0 -2.77)"/><path class="cls-3" d="M774.29,98.23v12.09h-1.6V98.23Zm6,0v1.31H774V98.23Zm-.76,5.2v1.3H774v-1.3Zm.85,5.59v1.3H774V109Z" transform="translate(0 -2.77)"/><path class="cls-3" d="M788.79,107.26a2,2,0,0,0-.13-.75,1.43,1.43,0,0,0-.44-.59,3.72,3.72,0,0,0-.88-.51,14.21,14.21,0,0,0-1.42-.49,11.25,11.25,0,0,1-1.62-.59,5.59,5.59,0,0,1-1.23-.75,2.89,2.89,0,0,1-.79-1,2.69,2.69,0,0,1-.28-1.26,3,3,0,0,1,.29-1.3,3.09,3.09,0,0,1,.84-1,3.75,3.75,0,0,1,1.3-.69,5.2,5.2,0,0,1,1.68-.25,4.7,4.7,0,0,1,2.31.52,3.58,3.58,0,0,1,1.45,1.35,3.45,3.45,0,0,1,.5,1.78h-1.59a2.52,2.52,0,0,0-.29-1.21,2.08,2.08,0,0,0-.88-.83,3.34,3.34,0,0,0-1.5-.3,3.23,3.23,0,0,0-1.41.26,1.85,1.85,0,0,0-.83.69,1.91,1.91,0,0,0-.27,1,1.47,1.47,0,0,0,.17.69,1.67,1.67,0,0,0,.5.58,4,4,0,0,0,.88.49,11.9,11.9,0,0,0,1.28.43,10.65,10.65,0,0,1,1.78.65,4.84,4.84,0,0,1,1.23.8,2.8,2.8,0,0,1,.73,1,3.42,3.42,0,0,1,.23,1.27,2.91,2.91,0,0,1-1.15,2.36,4.13,4.13,0,0,1-1.33.65,6.24,6.24,0,0,1-1.73.23,5.78,5.78,0,0,1-1.65-.24,4.73,4.73,0,0,1-1.47-.69,3.75,3.75,0,0,1-1.06-1.15,3.18,3.18,0,0,1-.39-1.59h1.59a2.19,2.19,0,0,0,.25,1.06,2.13,2.13,0,0,0,.66.74,2.83,2.83,0,0,0,1,.42,4.14,4.14,0,0,0,1.12.14,4,4,0,0,0,1.42-.23,2,2,0,0,0,.88-.66A1.76,1.76,0,0,0,788.79,107.26Z" transform="translate(0 -2.77)"/><path class="cls-3" d="M800.8,98.23v1.31h-9.34V98.23Zm-3.89,0v12.09h-1.58V98.23Z" transform="translate(0 -2.77)"/><path class="cls-3" d="M806.41,99.3l-4,11h-1.64l4.61-12.09h1Zm3.14,6.55v1.31h-6.79v-1.31Zm.21,4.47-4-11,0-1.07h1l4.62,12.09Z" transform="translate(0 -2.77)"/><path class="cls-3" d="M813,98.23h4a5.68,5.68,0,0,1,2.31.42,3.12,3.12,0,0,1,1.43,1.22,3.77,3.77,0,0,1,.5,2,3.49,3.49,0,0,1-.34,1.52,3.23,3.23,0,0,1-1,1.16,4.34,4.34,0,0,1-1.5.71l-.45.17h-3.76l0-1.3h2.84a3.07,3.07,0,0,0,1.44-.3,2.13,2.13,0,0,0,.86-.82,2.2,2.2,0,0,0,.29-1.14,2.64,2.64,0,0,0-.27-1.22,1.83,1.83,0,0,0-.86-.81,3.44,3.44,0,0,0-1.51-.29h-2.4v10.78H813Zm7.07,12.09-2.94-5.48h1.67l3,5.39v.1Z" transform="translate(0 -2.77)"/><path class="cls-3" d="M829.32,98.23v12.09h-1.61V98.23Zm5.88,0v1.31H829V98.23Zm-.82,5.44V105H829v-1.31Z" transform="translate(0 -2.77)"/><path class="cls-3" d="M837.18,97.34l1.61-2.44h1.85l-2.22,2.44Zm1.65.89v12.09h-1.6V98.23Z" transform="translate(0 -2.77)"/><path class="cls-3" d="M848.18,107.26a2.18,2.18,0,0,0-.13-.75,1.55,1.55,0,0,0-.45-.59,3.52,3.52,0,0,0-.88-.51,13.37,13.37,0,0,0-1.42-.49,11.56,11.56,0,0,1-1.61-.59,5.44,5.44,0,0,1-1.24-.75,3,3,0,0,1-.79-1,2.81,2.81,0,0,1-.27-1.26,2.85,2.85,0,0,1,.29-1.3,3.06,3.06,0,0,1,.83-1,3.85,3.85,0,0,1,1.3-.69,5.26,5.26,0,0,1,1.69-.25,4.75,4.75,0,0,1,2.31.52,3.71,3.71,0,0,1,1.45,1.35,3.44,3.44,0,0,1,.49,1.78h-1.59a2.52,2.52,0,0,0-.29-1.21,2,2,0,0,0-.88-.83,3.93,3.93,0,0,0-2.91,0,1.82,1.82,0,0,0-.82.69,1.91,1.91,0,0,0-.27,1,1.46,1.46,0,0,0,.16.69,1.82,1.82,0,0,0,.51.58,3.78,3.78,0,0,0,.88.49,10.56,10.56,0,0,0,1.28.43,11,11,0,0,1,1.78.65,5.23,5.23,0,0,1,1.23.8,2.9,2.9,0,0,1,.72,1,3.23,3.23,0,0,1,.24,1.27,2.89,2.89,0,0,1-.3,1.33,3,3,0,0,1-.86,1,4,4,0,0,1-1.33.65,6.19,6.19,0,0,1-1.73.23,5.78,5.78,0,0,1-1.65-.24,4.73,4.73,0,0,1-1.47-.69,3.6,3.6,0,0,1-1.05-1.15,3.18,3.18,0,0,1-.4-1.59h1.6a2.18,2.18,0,0,0,.24,1.06,2.13,2.13,0,0,0,.66.74,3,3,0,0,0,1,.42,4.14,4.14,0,0,0,1.12.14A4,4,0,0,0,847,109a2,2,0,0,0,.88-.66A1.7,1.7,0,0,0,848.18,107.26Z" transform="translate(0 -2.77)"/><path class="cls-3" d="M853.55,98.23v12.09H852V98.23Z" transform="translate(0 -2.77)"/><path class="cls-3" d="M863.75,106.48h1.59a5.15,5.15,0,0,1-.65,2,3.86,3.86,0,0,1-1.51,1.43,5,5,0,0,1-2.42.53,4.66,4.66,0,0,1-1.93-.4,4.27,4.27,0,0,1-1.49-1.14,5.15,5.15,0,0,1-1-1.76,7.58,7.58,0,0,1-.33-2.31v-1.2a7.47,7.47,0,0,1,.33-2.3,5.36,5.36,0,0,1,1-1.78,4.36,4.36,0,0,1,1.53-1.13,5.42,5.42,0,0,1,4.34.11,3.75,3.75,0,0,1,1.47,1.43,5.13,5.13,0,0,1,.65,2.1h-1.59a4.56,4.56,0,0,0-.43-1.46,2.27,2.27,0,0,0-.9-.94,3.06,3.06,0,0,0-1.52-.33,3,3,0,0,0-1.41.31,2.78,2.78,0,0,0-1,.87,3.81,3.81,0,0,0-.61,1.35,6.83,6.83,0,0,0-.21,1.75v1.22a6.89,6.89,0,0,0,.19,1.67,4.33,4.33,0,0,0,.56,1.37,2.9,2.9,0,0,0,1,.93,2.78,2.78,0,0,0,1.39.33,3.58,3.58,0,0,0,1.63-.32,2.15,2.15,0,0,0,.91-.93A4.76,4.76,0,0,0,863.75,106.48Z" transform="translate(0 -2.77)"/><path class="cls-3" d="M876.82,103.89v.77a8,8,0,0,1-.34,2.44,5.17,5.17,0,0,1-1,1.83,4.15,4.15,0,0,1-1.53,1.16,4.92,4.92,0,0,1-2,.4,4.87,4.87,0,0,1-2-.4,4.36,4.36,0,0,1-1.54-1.16,5.22,5.22,0,0,1-1-1.83,7.68,7.68,0,0,1-.36-2.44v-.77a7.62,7.62,0,0,1,.36-2.43,5.18,5.18,0,0,1,1-1.84A4.24,4.24,0,0,1,870,98.47a4.64,4.64,0,0,1,2-.4,4.75,4.75,0,0,1,2,.4,4.24,4.24,0,0,1,1.54,1.15,5.33,5.33,0,0,1,1,1.84A7.93,7.93,0,0,1,876.82,103.89Zm-1.58.77v-.78A7.77,7.77,0,0,0,875,102a4,4,0,0,0-.65-1.4,2.72,2.72,0,0,0-1-.85,3.25,3.25,0,0,0-1.38-.29,3.11,3.11,0,0,0-1.35.29,2.88,2.88,0,0,0-1,.85,4.43,4.43,0,0,0-.66,1.4,6.9,6.9,0,0,0-.23,1.91v.78a7,7,0,0,0,.23,1.92,4.14,4.14,0,0,0,.67,1.4,2.76,2.76,0,0,0,1,.86,3,3,0,0,0,1.34.29,3.06,3.06,0,0,0,1.39-.29,2.74,2.74,0,0,0,1-.86,3.93,3.93,0,0,0,.63-1.4A7.45,7.45,0,0,0,875.24,104.66Z" transform="translate(0 -2.77)"/></g></g></svg>