<svg xmlns="http://www.w3.org/2000/svg" viewBox="0 0 962.07 406.11"><defs><style>.cls-1{fill:#1d1d1b;}.cls-2{fill:#fdce75;}.cls-3{fill:#6c2910;}.cls-4{fill:none;stroke:#6c280d;stroke-miterlimit:10;stroke-width:3.47px;}.cls-5{fill:#6c280d;}</style></defs><g id="Capa_2" data-name="Capa 2"><g id="Capa_1-2" data-name="Capa 1"><path class="cls-1" d="M114.12,3.79l-3.23,18.64h-3.66l3.22-18.64Zm4.3,7.93-.55,3.09h-6.61l.55-3.09Zm2-7.93-.54,3.12h-7.28l.53-3.12Z" transform="translate(0 -2.77)"/><path class="cls-1" d="M125.24,8.58l-2.39,13.85h-3.52l2.41-13.85ZM122.2,5a1.88,1.88,0,0,1,1.92-2,1.76,1.76,0,0,1,1.34.52A1.8,1.8,0,0,1,126,4.93a1.87,1.87,0,0,1-.51,1.4,1.85,1.85,0,0,1-1.4.58,1.74,1.74,0,0,1-1.34-.5A1.85,1.85,0,0,1,122.2,5Z" transform="translate(0 -2.77)"/><path class="cls-1" d="M135,8.58h3.2l-2.36,13.84a7,7,0,0,1-1,3,5.38,5.38,0,0,1-2.16,1.88,6.53,6.53,0,0,1-3.12.6,7.44,7.44,0,0,1-1.47-.21,6,6,0,0,1-1.42-.55,4.79,4.79,0,0,1-1.18-.9l1.45-2.46a3.69,3.69,0,0,0,1.2.89,3.61,3.61,0,0,0,1.46.36,2.73,2.73,0,0,0,1.43-.29,2.36,2.36,0,0,0,.89-.91,4.09,4.09,0,0,0,.46-1.37l1.83-10.86Zm-8.72,7.5.11-.91a14,14,0,0,1,.47-2.39,9.06,9.06,0,0,1,1-2.25,5,5,0,0,1,1.61-1.64,4.16,4.16,0,0,1,2.4-.57,2.87,2.87,0,0,1,1.93.71,3.83,3.83,0,0,1,1,1.69,8.63,8.63,0,0,1,.37,2.14,14.14,14.14,0,0,1,0,2.06L135,16.25a16.18,16.18,0,0,1-.54,2.09,10.21,10.21,0,0,1-1,2.13A5.58,5.58,0,0,1,132,22.11a3.74,3.74,0,0,1-4.17-.07,3.79,3.79,0,0,1-1.13-1.65,7.47,7.47,0,0,1-.44-2.14A14.16,14.16,0,0,1,126.29,16.08Zm3.63-1-.12.94c0,.3-.05.65-.07,1.07a5.43,5.43,0,0,0,.05,1.21,2.14,2.14,0,0,0,.42,1,1.23,1.23,0,0,0,1,.41,1.92,1.92,0,0,0,1.39-.38,2.79,2.79,0,0,0,.84-1.12,6.13,6.13,0,0,0,.4-1.37l.35-2.45a8.09,8.09,0,0,0,0-1,4,4,0,0,0-.18-1,1.57,1.57,0,0,0-.48-.75,1.49,1.49,0,0,0-.93-.32,1.79,1.79,0,0,0-1.25.31,2.59,2.59,0,0,0-.78.95,5.13,5.13,0,0,0-.43,1.25A8.73,8.73,0,0,0,129.92,15.08Z" transform="translate(0 -2.77)"/><path class="cls-1" d="M146.24,16.2l.86,0a15.63,15.63,0,0,1-.38,2.2,8.91,8.91,0,0,1-.8,2.15,4.63,4.63,0,0,1-1.41,1.62,3.49,3.49,0,0,1-2.18.57,3.12,3.12,0,0,1-1.74-.49,2.89,2.89,0,0,1-1-1.22,5.26,5.26,0,0,1-.41-1.66,9.73,9.73,0,0,1,0-1.79l1.5-9h3.49l-1.48,9c0,.2,0,.41,0,.65a2.61,2.61,0,0,0,.06.69,1.26,1.26,0,0,0,.28.54.82.82,0,0,0,.62.23,1.83,1.83,0,0,0,1.5-.5,3.25,3.25,0,0,0,.78-1.4A10.26,10.26,0,0,0,146.24,16.2Zm-.78,2.71,1.79-10.33h3.54l-2.41,13.85h-3.29Z" transform="translate(0 -2.77)"/><path class="cls-1" d="M156.23,11.86l-1.84,10.57h-3.5L153.3,8.58h3.3Zm3.66-3.4L159.42,12l-.57-.09a3.64,3.64,0,0,0-.57,0,2.36,2.36,0,0,0-1.13.22,2.2,2.2,0,0,0-.81.64,3.45,3.45,0,0,0-.54.94,6.85,6.85,0,0,0-.33,1.09l-.6-.27c.06-.53.17-1.15.32-1.86a10.81,10.81,0,0,1,.65-2.07A4.69,4.69,0,0,1,157,8.94a2.55,2.55,0,0,1,1.81-.66,3.31,3.31,0,0,1,.55.07Z" transform="translate(0 -2.77)"/><path class="cls-1" d="M167.15,14l-.36,2.15h-1.14a2.68,2.68,0,0,0-.91.18,2.33,2.33,0,0,0-.74.49,2.45,2.45,0,0,0-.52.72,2.85,2.85,0,0,0-.26.9,2.51,2.51,0,0,0,0,.67,1.07,1.07,0,0,0,.25.57.74.74,0,0,0,.61.24,2.27,2.27,0,0,0,.88-.18,1.94,1.94,0,0,0,.73-.53,1.61,1.61,0,0,0,.36-.82l.61,1.43a6.06,6.06,0,0,1-.53,1.12,4.16,4.16,0,0,1-.77.94,3.58,3.58,0,0,1-1,.65,3,3,0,0,1-1.26.22,3.2,3.2,0,0,1-1.91-.58,3.48,3.48,0,0,1-1.2-1.48,4.41,4.41,0,0,1-.36-2,4.92,4.92,0,0,1,.57-2.13,4.4,4.4,0,0,1,1.33-1.45,6,6,0,0,1,1.86-.85,8.68,8.68,0,0,1,2.18-.27Zm-1.34,5.27,1-6.41a4.89,4.89,0,0,0,0-.77,1.18,1.18,0,0,0-.21-.66.86.86,0,0,0-.67-.29,1.32,1.32,0,0,0-.81.22,1.49,1.49,0,0,0-.48.6,3.22,3.22,0,0,0-.24.78l-3.5,0a4.34,4.34,0,0,1,.53-1.88,4.61,4.61,0,0,1,1.2-1.4,5.47,5.47,0,0,1,1.68-.87,6.2,6.2,0,0,1,1.92-.28,4.71,4.71,0,0,1,2.34.6A3.5,3.5,0,0,1,170,10.5a4.68,4.68,0,0,1,.31,2.39l-1,6.19c-.08.5-.14,1-.19,1.57a3.66,3.66,0,0,0,.18,1.55l0,.23-3.42,0a5.1,5.1,0,0,1-.2-1.6C165.7,20.31,165.74,19.77,165.81,19.24Z" transform="translate(0 -2.77)"/><path class="cls-1" d="M188.06,3.76,184.9,22.43h-3.5l2.46-14.2-3.67,1.36.53-3.15,6.89-2.69Z" transform="translate(0 -2.77)"/><path class="cls-1" d="M200.89,3.57h.54l-.32,3.08-.13,0a5,5,0,0,0-2.31.45A5.26,5.26,0,0,0,197,8.41a6.88,6.88,0,0,0-1.12,1.94,9.85,9.85,0,0,0-.59,2.27l-.4,3.15c0,.25-.05.59-.08,1a8.14,8.14,0,0,0,0,1.3,2.55,2.55,0,0,0,.35,1.12,1,1,0,0,0,.92.48,1.5,1.5,0,0,0,1-.32,2.67,2.67,0,0,0,.7-.91,5.21,5.21,0,0,0,.4-1.17,9,9,0,0,0,.19-1.07,8.45,8.45,0,0,0,0-.93,5.2,5.2,0,0,0-.15-1.1,2.19,2.19,0,0,0-.42-.91,1.06,1.06,0,0,0-.87-.37,1.64,1.64,0,0,0-1.19.39,3.11,3.11,0,0,0-.77,1,6.29,6.29,0,0,0-.41,1.25l-.95-.79a8.18,8.18,0,0,1,.51-1.76,6.12,6.12,0,0,1,.94-1.58,4.15,4.15,0,0,1,1.36-1.14,3.59,3.59,0,0,1,1.82-.39,3,3,0,0,1,2,.64,3.87,3.87,0,0,1,1.14,1.57,7.27,7.27,0,0,1,.49,2,13.78,13.78,0,0,1,0,2,9.05,9.05,0,0,1-.57,2.39,7.79,7.79,0,0,1-1.23,2.11,5.63,5.63,0,0,1-1.85,1.48,4.88,4.88,0,0,1-2.41.52,4,4,0,0,1-2.4-.74A4.69,4.69,0,0,1,192,20.14a8.19,8.19,0,0,1-.64-2.39,11.34,11.34,0,0,1,0-2.47l.19-1.45a17.46,17.46,0,0,1,.94-3.75,13,13,0,0,1,1.82-3.29,8.46,8.46,0,0,1,2.75-2.34A8,8,0,0,1,200.89,3.57Z" transform="translate(0 -2.77)"/><path class="cls-1" d="M203.62,20.68a2,2,0,0,1,.57-1.48,2.09,2.09,0,0,1,1.49-.6,2,2,0,0,1,1.41.53,1.85,1.85,0,0,1,.6,1.4,1.91,1.91,0,0,1-.58,1.46,2.15,2.15,0,0,1-2.9.07A1.87,1.87,0,0,1,203.62,20.68Z" transform="translate(0 -2.77)"/><path class="cls-1" d="M227.11,16.52l2.24,0a8.81,8.81,0,0,1-1.08,3.23,5.93,5.93,0,0,1-2.2,2.22,6.22,6.22,0,0,1-3.31.75,4.48,4.48,0,0,1-2.58-.77A4.83,4.83,0,0,1,218.64,20,8.06,8.06,0,0,1,218,17.5a12.51,12.51,0,0,1,0-2.67l.54-3.45a14,14,0,0,1,.77-2.87A9.7,9.7,0,0,1,220.76,6a6.6,6.6,0,0,1,2.17-1.8,6.12,6.12,0,0,1,2.94-.62,4.65,4.65,0,0,1,2.9.91,4.64,4.64,0,0,1,1.51,2.28,9.19,9.19,0,0,1,.37,3.06h-2.31a9.89,9.89,0,0,0-.11-2,2.92,2.92,0,0,0-.71-1.58,2.36,2.36,0,0,0-1.79-.68,3.77,3.77,0,0,0-2.06.48,4.38,4.38,0,0,0-1.42,1.39,7.79,7.79,0,0,0-.9,1.91,13.06,13.06,0,0,0-.48,2l-.54,3.48a15.69,15.69,0,0,0-.14,1.79,7.91,7.91,0,0,0,.2,1.9A3.25,3.25,0,0,0,221.2,20a2.39,2.39,0,0,0,1.69.65,3.39,3.39,0,0,0,3.51-2A10,10,0,0,0,227.11,16.52Z" transform="translate(0 -2.77)"/><path class="cls-1" d="M231.85,16.17l.17-1.3a10.13,10.13,0,0,1,.62-2.42,7.69,7.69,0,0,1,1.21-2.13,5.61,5.61,0,0,1,1.82-1.5,5.08,5.08,0,0,1,2.48-.5,4.3,4.3,0,0,1,2.22.62,4.12,4.12,0,0,1,1.37,1.53,6.3,6.3,0,0,1,.65,2.09,10.31,10.31,0,0,1,0,2.29l-.17,1.32a10.9,10.9,0,0,1-.62,2.42,7.81,7.81,0,0,1-1.22,2.12,5.62,5.62,0,0,1-1.83,1.49,5,5,0,0,1-2.46.49,3.89,3.89,0,0,1-3.59-2.15,6.23,6.23,0,0,1-.65-2.09A9.66,9.66,0,0,1,231.85,16.17Zm2.38-1.32-.16,1.35a12.33,12.33,0,0,0-.06,1.41,5.94,5.94,0,0,0,.22,1.48,2.65,2.65,0,0,0,.69,1.17,2,2,0,0,0,1.34.51,2.87,2.87,0,0,0,1.64-.36A3.4,3.4,0,0,0,239,19.32a5.67,5.67,0,0,0,.69-1.52,10.8,10.8,0,0,0,.35-1.63l.16-1.33a12.55,12.55,0,0,0,0-1.41,6.08,6.08,0,0,0-.21-1.48,2.68,2.68,0,0,0-.69-1.18,1.92,1.92,0,0,0-1.35-.51,2.73,2.73,0,0,0-1.58.37,3.52,3.52,0,0,0-1.12,1.12,6.28,6.28,0,0,0-.71,1.53A8.87,8.87,0,0,0,234.23,14.85Z" transform="translate(0 -2.77)"/><path class="cls-1" d="M248.07,11.47l-1.9,11H244l2.41-13.85h2.08Zm-1,3.52-.94,0a13.37,13.37,0,0,1,.47-2.33,8.57,8.57,0,0,1,1-2.18,4.86,4.86,0,0,1,1.6-1.59,4.16,4.16,0,0,1,2.36-.55A2.74,2.74,0,0,1,254.1,10a4.62,4.62,0,0,1,.43,1.56,7.86,7.86,0,0,1,0,1.68L253,22.43h-2.21l1.52-9.13a5.78,5.78,0,0,0,0-1.38,2.18,2.18,0,0,0-.48-1.14,1.63,1.63,0,0,0-1.25-.49,2.51,2.51,0,0,0-1.58.41,3.36,3.36,0,0,0-1,1.16,6.38,6.38,0,0,0-.6,1.56A15,15,0,0,0,247.06,15Zm7.43-1.32-1.54.48a9.21,9.21,0,0,1,.5-2.09,7.64,7.64,0,0,1,1-1.91A4.74,4.74,0,0,1,256,8.79a4.08,4.08,0,0,1,2.12-.48,3.26,3.26,0,0,1,1.75.47,2.81,2.81,0,0,1,1,1.16,4.72,4.72,0,0,1,.43,1.6,8.25,8.25,0,0,1,0,1.79l-1.53,9.1h-2.2l1.51-9.14a6,6,0,0,0,0-1.4,1.92,1.92,0,0,0-.48-1.13,1.66,1.66,0,0,0-1.28-.47,2.22,2.22,0,0,0-1.17.31,2.47,2.47,0,0,0-.84.8,4.5,4.5,0,0,0-.54,1.1A9.16,9.16,0,0,0,254.49,13.67Z" transform="translate(0 -2.77)"/><path class="cls-1" d="M271.31,16.26l.77,0a19,19,0,0,1-.43,2.28,8.13,8.13,0,0,1-.86,2.12,4.31,4.31,0,0,1-1.47,1.53,4.08,4.08,0,0,1-2.31.53,2.89,2.89,0,0,1-1.71-.5,3,3,0,0,1-1-1.25,5.17,5.17,0,0,1-.38-1.66,9.48,9.48,0,0,1,0-1.77l1.5-8.94h2.2l-1.5,9c0,.28,0,.59-.05.94a3.84,3.84,0,0,0,.1,1,1.72,1.72,0,0,0,.41.82,1.24,1.24,0,0,0,.87.35,2.85,2.85,0,0,0,2.06-.6,4.19,4.19,0,0,0,1.19-1.71A9,9,0,0,0,271.31,16.26Zm-.83,2.84,1.83-10.52h2.22l-2.41,13.85H270Z" transform="translate(0 -2.77)"/><path class="cls-1" d="M279.48,11.68l-1.87,10.75H275.4l2.41-13.85h2.08Zm-1,3.35-.81,0a14.73,14.73,0,0,1,.49-2.27,9.43,9.43,0,0,1,1-2.19,5.19,5.19,0,0,1,1.59-1.64A3.88,3.88,0,0,1,283,8.31a3,3,0,0,1,1.67.5,2.71,2.71,0,0,1,.94,1.2,5.19,5.19,0,0,1,.36,1.61,9.08,9.08,0,0,1,0,1.73l-1.51,9.08h-2.22l1.53-9.11a8.69,8.69,0,0,0,0-1.35,2.13,2.13,0,0,0-.4-1.17,1.43,1.43,0,0,0-1.19-.51,2.51,2.51,0,0,0-1.54.44,4,4,0,0,0-1.11,1.2,7.86,7.86,0,0,0-.71,1.56A10.23,10.23,0,0,0,278.46,15Z" transform="translate(0 -2.77)"/><path class="cls-1" d="M292.5,8.58l-2.4,13.85h-2.21L290.3,8.58Zm-1.69-3.65a1.68,1.68,0,0,1,.36-1,1.24,1.24,0,0,1,1.85,0,1.38,1.38,0,0,1,.3,1,1.48,1.48,0,0,1-.37.94,1.18,1.18,0,0,1-.91.42,1.09,1.09,0,0,1-.91-.38A1.39,1.39,0,0,1,290.81,4.93Z" transform="translate(0 -2.77)"/><path class="cls-1" d="M298.55,20.78a2.46,2.46,0,0,0,1.41-.34,2.91,2.91,0,0,0,.94-1,4.94,4.94,0,0,0,.53-1.37l2.07,0a6,6,0,0,1-.87,2.37,5.26,5.26,0,0,1-1.76,1.69,4.66,4.66,0,0,1-2.45.59,4.4,4.4,0,0,1-2.27-.58,3.67,3.67,0,0,1-1.35-1.47,5.82,5.82,0,0,1-.59-2,9.92,9.92,0,0,1,0-2.31l.2-1.57a12.32,12.32,0,0,1,.59-2.43,7.53,7.53,0,0,1,1.15-2.09,5,5,0,0,1,4.27-1.88A3.65,3.65,0,0,1,304,10.9a6.8,6.8,0,0,1,.33,2.45h-2.07a6,6,0,0,0-.12-1.41,2.24,2.24,0,0,0-.58-1.17,1.76,1.76,0,0,0-1.29-.5,3,3,0,0,0-1.63.34,3.07,3.07,0,0,0-1.07,1.05,5.65,5.65,0,0,0-.63,1.46,11.8,11.8,0,0,0-.33,1.61l-.21,1.58c-.05.46-.08.95-.09,1.46a5.71,5.71,0,0,0,.15,1.45,2,2,0,0,0,2.06,1.57Z" transform="translate(0 -2.77)"/><path class="cls-1" d="M313.72,14l-.27,1.67H312a6.21,6.21,0,0,0-1.35.15,4.32,4.32,0,0,0-1.24.48,2.9,2.9,0,0,0-.95.86,2.72,2.72,0,0,0-.46,1.3,3.17,3.17,0,0,0,0,1.12,1.35,1.35,0,0,0,.5.78,1.75,1.75,0,0,0,1.07.29,3.17,3.17,0,0,0,1.38-.32,3.68,3.68,0,0,0,1.15-.87,2.78,2.78,0,0,0,.63-1.26l.35,1.08a4.77,4.77,0,0,1-1.41,2.38,4.06,4.06,0,0,1-1.17.76,3.54,3.54,0,0,1-1.38.27,3.47,3.47,0,0,1-2-.52,3.16,3.16,0,0,1-1.18-1.42,4.35,4.35,0,0,1-.3-2,4.49,4.49,0,0,1,1.93-3.58,6,6,0,0,1,1.86-.87A8.08,8.08,0,0,1,311.7,14Zm-1.38,6,1.21-7.54a3.16,3.16,0,0,0-.07-1.17,1.39,1.39,0,0,0-.53-.8,1.89,1.89,0,0,0-1.14-.29,2.45,2.45,0,0,0-1.19.26,2.33,2.33,0,0,0-.86.76,2.94,2.94,0,0,0-.47,1.13H307.1a4.24,4.24,0,0,1,.53-1.7,4.73,4.73,0,0,1,1.14-1.3,4.94,4.94,0,0,1,1.53-.83,5,5,0,0,1,1.76-.28,4.22,4.22,0,0,1,2.17.54,3.07,3.07,0,0,1,1.26,1.49,4.69,4.69,0,0,1,.27,2.23l-1.13,6.84a6.86,6.86,0,0,0-.09,1.41c0,.45,0,.92.06,1.4l0,.21-2.22,0a5.36,5.36,0,0,1-.11-1.2A11.91,11.91,0,0,1,312.34,20.06Z" transform="translate(0 -2.77)"/><path class="cls-1" d="M322.49,20.78a2.48,2.48,0,0,0,1.42-.34,3,3,0,0,0,.94-1,4.92,4.92,0,0,0,.52-1.37l2.08,0a5.9,5.9,0,0,1-.88,2.37,5.17,5.17,0,0,1-1.76,1.69,4.64,4.64,0,0,1-2.45.59,4.37,4.37,0,0,1-2.26-.58,3.67,3.67,0,0,1-1.35-1.47,5.83,5.83,0,0,1-.6-2,10.5,10.5,0,0,1,0-2.31l.21-1.57a11.65,11.65,0,0,1,.59-2.43,7.26,7.26,0,0,1,1.14-2.09,5,5,0,0,1,4.27-1.88A3.65,3.65,0,0,1,328,10.9a6.58,6.58,0,0,1,.33,2.45h-2.07a6,6,0,0,0-.11-1.41,2.4,2.4,0,0,0-.58-1.17,1.78,1.78,0,0,0-1.29-.5,3,3,0,0,0-1.64.34,3.16,3.16,0,0,0-1.07,1.05,5.65,5.65,0,0,0-.63,1.46,11.8,11.8,0,0,0-.33,1.61l-.2,1.58c-.05.46-.08.95-.1,1.46a5.71,5.71,0,0,0,.15,1.45,2.15,2.15,0,0,0,.65,1.11A2.18,2.18,0,0,0,322.49,20.78Z" transform="translate(0 -2.77)"/><path class="cls-1" d="M334,8.58l-2.41,13.85h-2.2l2.41-13.85Zm-1.69-3.65a1.68,1.68,0,0,1,.36-1,1.12,1.12,0,0,1,.91-.43,1.1,1.1,0,0,1,.93.4,1.38,1.38,0,0,1,.31,1,1.53,1.53,0,0,1-.37.94,1.18,1.18,0,0,1-.91.42,1.11,1.11,0,0,1-.92-.38A1.39,1.39,0,0,1,332.35,4.93Z" transform="translate(0 -2.77)"/><path class="cls-1" d="M335.76,16.17l.16-1.3a10.63,10.63,0,0,1,.62-2.42,8.23,8.23,0,0,1,1.21-2.13,5.75,5.75,0,0,1,1.83-1.5,5.06,5.06,0,0,1,2.48-.5,4.29,4.29,0,0,1,2.21.62,4.07,4.07,0,0,1,1.38,1.53,6.29,6.29,0,0,1,.64,2.09,9.23,9.23,0,0,1,0,2.29l-.16,1.32a10.9,10.9,0,0,1-.62,2.42,8.08,8.08,0,0,1-1.22,2.12,5.72,5.72,0,0,1-1.83,1.49,5.06,5.06,0,0,1-2.47.49,4,4,0,0,1-2.22-.62,4.12,4.12,0,0,1-1.37-1.53,6.22,6.22,0,0,1-.64-2.09A9.16,9.16,0,0,1,335.76,16.17Zm2.38-1.32L338,16.2a12.46,12.46,0,0,0-.05,1.41,5.51,5.51,0,0,0,.22,1.48,2.54,2.54,0,0,0,.68,1.17,2,2,0,0,0,1.34.51,2.89,2.89,0,0,0,1.65-.36,3.5,3.5,0,0,0,1.11-1.09,6,6,0,0,0,.69-1.52,10.75,10.75,0,0,0,.34-1.63l.17-1.33a12.55,12.55,0,0,0,.05-1.41A5.64,5.64,0,0,0,344,12a2.57,2.57,0,0,0-.68-1.18,1.93,1.93,0,0,0-1.36-.51,2.75,2.75,0,0,0-1.58.37,3.63,3.63,0,0,0-1.12,1.12,6.68,6.68,0,0,0-.71,1.53A9.78,9.78,0,0,0,338.14,14.85ZM341,6.53l3-3.76h2.94L343,6.53Z" transform="translate(0 -2.77)"/><path class="cls-1" d="M351.94,11.68l-1.87,10.75h-2.21l2.4-13.85h2.09Zm-1,3.35-.81,0a14.73,14.73,0,0,1,.49-2.27,9,9,0,0,1,1-2.19,5.27,5.27,0,0,1,1.58-1.64,3.93,3.93,0,0,1,2.3-.58,3,3,0,0,1,1.67.5,2.71,2.71,0,0,1,.94,1.2,5.19,5.19,0,0,1,.36,1.61,9.08,9.08,0,0,1,0,1.73l-1.51,9.08h-2.22l1.52-9.11a7.61,7.61,0,0,0,0-1.35,2.21,2.21,0,0,0-.39-1.17,1.43,1.43,0,0,0-1.19-.51,2.51,2.51,0,0,0-1.54.44,4,4,0,0,0-1.11,1.2,7.33,7.33,0,0,0-.71,1.56A10.23,10.23,0,0,0,350.92,15Z" transform="translate(0 -2.77)"/><path class="cls-1" d="M366.81,16.17l.15-1.28a14,14,0,0,1,.51-2.32,8.25,8.25,0,0,1,1-2.15,4.71,4.71,0,0,1,1.6-1.57,4.25,4.25,0,0,1,2.34-.53A2.94,2.94,0,0,1,374.3,9a3.71,3.71,0,0,1,1.05,1.61,7.18,7.18,0,0,1,.41,2,13.61,13.61,0,0,1,0,2l-.23,1.73a15.88,15.88,0,0,1-.53,2.14,8.79,8.79,0,0,1-1,2.08,4.94,4.94,0,0,1-1.5,1.55,3.6,3.6,0,0,1-2.15.54,3.28,3.28,0,0,1-2.06-.67,3.75,3.75,0,0,1-1.12-1.62,7.27,7.27,0,0,1-.44-2.11A11.54,11.54,0,0,1,366.81,16.17Zm2.36-1.29-.15,1.3q-.07.67-.09,1.44a5.37,5.37,0,0,0,.14,1.46,2.29,2.29,0,0,0,.64,1.15,2,2,0,0,0,1.37.47,2.69,2.69,0,0,0,1.64-.47A4.36,4.36,0,0,0,373.93,19a6.21,6.21,0,0,0,.71-1.59l.59-3.66a5,5,0,0,0-.11-1.15,3.87,3.87,0,0,0-.43-1.08,2.68,2.68,0,0,0-.76-.81,2.1,2.1,0,0,0-1.09-.35,2.83,2.83,0,0,0-1.64.36,3.08,3.08,0,0,0-1.07,1.08,5.75,5.75,0,0,0-.64,1.5A12,12,0,0,0,369.17,14.88Zm4.51,4.72L376.6,2.77h2.2l-3.41,19.66h-2Z" transform="translate(0 -2.77)"/><path class="cls-1" d="M383.75,22.69a4.66,4.66,0,0,1-2.24-.54,3.64,3.64,0,0,1-1.4-1.38,5.66,5.66,0,0,1-.66-2,8.82,8.82,0,0,1,0-2.3l.19-1.56a11.52,11.52,0,0,1,.58-2.42,8.25,8.25,0,0,1,1.14-2.16,5.29,5.29,0,0,1,1.76-1.53,4.85,4.85,0,0,1,2.46-.51,4,4,0,0,1,2.22.63,3.46,3.46,0,0,1,1.2,1.54,6.26,6.26,0,0,1,.44,2.08,13.38,13.38,0,0,1-.08,2.28l-.19,1.32h-8.42l.35-1.93h6.12l.05-.34a7.85,7.85,0,0,0,0-1.61,2.62,2.62,0,0,0-.49-1.41,1.69,1.69,0,0,0-1.38-.63,2.62,2.62,0,0,0-1.63.37,3.1,3.1,0,0,0-1,1.14,6.18,6.18,0,0,0-.61,1.55,12.68,12.68,0,0,0-.3,1.62l-.2,1.58a11.42,11.42,0,0,0-.05,1.44,4.56,4.56,0,0,0,.25,1.36,2.23,2.23,0,0,0,.73,1,2.4,2.4,0,0,0,1.4.42,3.57,3.57,0,0,0,1.8-.41,5.74,5.74,0,0,0,1.47-1.16l1.07,1.45A5,5,0,0,1,387,21.81a5.48,5.48,0,0,1-1.55.67A6.26,6.26,0,0,1,383.75,22.69Z" transform="translate(0 -2.77)"/><path class="cls-1" d="M400.74,11.68l-1.87,10.75h-2.22l2.41-13.85h2.09Zm-1,3.35-.8,0a13.64,13.64,0,0,1,.49-2.27,8.67,8.67,0,0,1,1-2.19A5.27,5.27,0,0,1,402,8.89a3.91,3.91,0,0,1,2.3-.58,3,3,0,0,1,1.67.5,2.76,2.76,0,0,1,.93,1.2,4.93,4.93,0,0,1,.37,1.61,10,10,0,0,1,0,1.73l-1.51,9.08h-2.21L405,13.32A8.69,8.69,0,0,0,405,12a2.21,2.21,0,0,0-.39-1.17,1.44,1.44,0,0,0-1.19-.51,2.51,2.51,0,0,0-1.54.44,4,4,0,0,0-1.11,1.2,6.87,6.87,0,0,0-.71,1.56A9.23,9.23,0,0,0,399.71,15Z" transform="translate(0 -2.77)"/><path class="cls-1" d="M409.64,16.17l.16-1.3a10.63,10.63,0,0,1,.62-2.42,8.23,8.23,0,0,1,1.21-2.13,5.75,5.75,0,0,1,1.83-1.5,5.06,5.06,0,0,1,2.48-.5,4.29,4.29,0,0,1,2.21.62,4.07,4.07,0,0,1,1.38,1.53,6.29,6.29,0,0,1,.64,2.09,9.23,9.23,0,0,1,0,2.29l-.16,1.32a10.4,10.4,0,0,1-.63,2.42,7.78,7.78,0,0,1-1.21,2.12,5.72,5.72,0,0,1-1.83,1.49,5.06,5.06,0,0,1-2.47.49,4,4,0,0,1-2.22-.62,4.12,4.12,0,0,1-1.37-1.53,6.47,6.47,0,0,1-.65-2.09A9.66,9.66,0,0,1,409.64,16.17ZM412,14.85l-.17,1.35a12.46,12.46,0,0,0-.05,1.41,5.51,5.51,0,0,0,.22,1.48,2.63,2.63,0,0,0,.68,1.17,2,2,0,0,0,1.34.51,2.89,2.89,0,0,0,1.65-.36,3.5,3.5,0,0,0,1.11-1.09,6.37,6.37,0,0,0,.69-1.52,10.75,10.75,0,0,0,.34-1.63l.17-1.33a12.55,12.55,0,0,0,.05-1.41,5.64,5.64,0,0,0-.22-1.48,2.66,2.66,0,0,0-.68-1.18,1.92,1.92,0,0,0-1.35-.51,2.76,2.76,0,0,0-1.59.37,3.63,3.63,0,0,0-1.12,1.12,6.68,6.68,0,0,0-.71,1.53A9.78,9.78,0,0,0,412,14.85Z" transform="translate(0 -2.77)"/><path class="cls-1" d="M425.18,8.58l1.18,11.92-.09,1.93h-1.4L423,8.58Zm.51,11.62,4.68-11.62h2.33l-6.16,13.85H425Z" transform="translate(0 -2.77)"/><path class="cls-1" d="M437.6,22.69a4.69,4.69,0,0,1-2.24-.54,3.71,3.71,0,0,1-1.4-1.38,5.45,5.45,0,0,1-.65-2,9.27,9.27,0,0,1,0-2.3l.2-1.56a11.49,11.49,0,0,1,.57-2.42,8.25,8.25,0,0,1,1.14-2.16A5.42,5.42,0,0,1,437,8.83a4.85,4.85,0,0,1,2.46-.51,3.94,3.94,0,0,1,2.21.63,3.41,3.41,0,0,1,1.21,1.54,6.52,6.52,0,0,1,.44,2.08,12.43,12.43,0,0,1-.09,2.28L443,16.17h-8.41l.34-1.93h6.13l.05-.34a8.62,8.62,0,0,0,0-1.61,2.8,2.8,0,0,0-.49-1.41,1.69,1.69,0,0,0-1.38-.63,2.65,2.65,0,0,0-1.64.37,3.1,3.1,0,0,0-1,1.14,6.59,6.59,0,0,0-.61,1.55,12.68,12.68,0,0,0-.3,1.62l-.19,1.58a9.81,9.81,0,0,0-.05,1.44,4.27,4.27,0,0,0,.25,1.36,2.16,2.16,0,0,0,.73,1,2.35,2.35,0,0,0,1.4.42,3.62,3.62,0,0,0,1.8-.41,5.7,5.7,0,0,0,1.46-1.16l1.08,1.45a5.21,5.21,0,0,1-1.27,1.17,5.66,5.66,0,0,1-1.56.67A6.22,6.22,0,0,1,437.6,22.69Z" transform="translate(0 -2.77)"/><path class="cls-1" d="M445.21,16.17l.15-1.28a14,14,0,0,1,.51-2.32,8.56,8.56,0,0,1,1-2.15,4.83,4.83,0,0,1,1.61-1.57,4.25,4.25,0,0,1,2.34-.53A2.94,2.94,0,0,1,452.7,9a3.71,3.71,0,0,1,1.05,1.61,7.18,7.18,0,0,1,.41,2,13.61,13.61,0,0,1,0,2l-.23,1.73a14.5,14.5,0,0,1-.53,2.14,8.79,8.79,0,0,1-1,2.08,4.94,4.94,0,0,1-1.5,1.55,3.6,3.6,0,0,1-2.15.54,3.28,3.28,0,0,1-2.06-.67,3.75,3.75,0,0,1-1.12-1.62,7.27,7.27,0,0,1-.44-2.11A11.54,11.54,0,0,1,445.21,16.17Zm2.37-1.29-.16,1.3q-.07.67-.09,1.44a5.37,5.37,0,0,0,.14,1.46,2.22,2.22,0,0,0,.64,1.15,2,2,0,0,0,1.37.47,2.69,2.69,0,0,0,1.64-.47A4.36,4.36,0,0,0,452.33,19a6.21,6.21,0,0,0,.71-1.59l.59-3.66a5,5,0,0,0-.11-1.15,3.87,3.87,0,0,0-.43-1.08,2.68,2.68,0,0,0-.76-.81,2.07,2.07,0,0,0-1.09-.35,2.83,2.83,0,0,0-1.64.36,3.08,3.08,0,0,0-1.07,1.08,5.75,5.75,0,0,0-.64,1.5A9.54,9.54,0,0,0,447.58,14.88Zm4.5,4.72L455,2.77h2.2l-3.42,19.66h-2Z" transform="translate(0 -2.77)"/><path class="cls-1" d="M465.58,14l-.27,1.67H463.9a6.21,6.21,0,0,0-1.35.15,4.32,4.32,0,0,0-1.24.48,2.9,2.9,0,0,0-.95.86,2.73,2.73,0,0,0-.47,1.3,3.16,3.16,0,0,0,.05,1.12,1.3,1.3,0,0,0,.5.78,1.75,1.75,0,0,0,1.07.29,3.2,3.2,0,0,0,1.38-.32,3.76,3.76,0,0,0,1.14-.87,2.8,2.8,0,0,0,.64-1.26L465,19.3a4.51,4.51,0,0,1-.51,1.28,4.77,4.77,0,0,1-.89,1.1,4,4,0,0,1-1.18.76,3.52,3.52,0,0,1-1.37.27,3.47,3.47,0,0,1-2-.52,3.16,3.16,0,0,1-1.18-1.42,4.22,4.22,0,0,1-.31-2,4.68,4.68,0,0,1,.59-2.1,4.46,4.46,0,0,1,1.35-1.48,5.89,5.89,0,0,1,1.86-.87,8,8,0,0,1,2.15-.29Zm-1.38,6,1.21-7.54a3.39,3.39,0,0,0-.07-1.17,1.41,1.41,0,0,0-.54-.8,1.85,1.85,0,0,0-1.13-.29,2.45,2.45,0,0,0-1.19.26,2.33,2.33,0,0,0-.86.76,2.79,2.79,0,0,0-.47,1.13H459a4.24,4.24,0,0,1,.53-1.7,4.53,4.53,0,0,1,1.13-1.3,5,5,0,0,1,1.54-.83,4.94,4.94,0,0,1,1.75-.28,4.26,4.26,0,0,1,2.18.54,3.07,3.07,0,0,1,1.26,1.49,4.57,4.57,0,0,1,.26,2.23l-1.12,6.84a6.86,6.86,0,0,0-.09,1.41c0,.45,0,.92.06,1.4l0,.21-2.22,0a5.36,5.36,0,0,1-.11-1.2A8,8,0,0,1,464.2,20.06Z" transform="translate(0 -2.77)"/><path class="cls-1" d="M470,16.17l.15-1.28a16.37,16.37,0,0,1,.51-2.32,8.25,8.25,0,0,1,1-2.15,4.8,4.8,0,0,1,1.6-1.57,4.27,4.27,0,0,1,2.34-.53,3,3,0,0,1,1.92.67,3.89,3.89,0,0,1,1.05,1.61,7.94,7.94,0,0,1,.41,2,15.05,15.05,0,0,1,0,2l-.23,1.73a15.79,15.79,0,0,1-.52,2.14,9.2,9.2,0,0,1-1,2.08,5.08,5.08,0,0,1-1.51,1.55,3.58,3.58,0,0,1-2.15.54,3.25,3.25,0,0,1-2-.67,3.77,3.77,0,0,1-1.13-1.62A7.26,7.26,0,0,1,470,18.3,11.56,11.56,0,0,1,470,16.17Zm2.37-1.29-.15,1.3a12.85,12.85,0,0,0-.1,1.44,5.79,5.79,0,0,0,.15,1.46,2.28,2.28,0,0,0,.63,1.15,2,2,0,0,0,1.38.47,2.66,2.66,0,0,0,1.63-.47A4.24,4.24,0,0,0,477.14,19a6.62,6.62,0,0,0,.72-1.59l.59-3.66a5.05,5.05,0,0,0-.12-1.15,3.87,3.87,0,0,0-.43-1.08,2.56,2.56,0,0,0-.76-.81,2.07,2.07,0,0,0-1.09-.35,2.8,2.8,0,0,0-1.63.36,3.1,3.1,0,0,0-1.08,1.08,6.11,6.11,0,0,0-.64,1.5A10.62,10.62,0,0,0,472.39,14.88Zm4.51,4.72,2.92-16.83H482L478.6,22.43h-2Z" transform="translate(0 -2.77)"/><path class="cls-1" d="M487,22.69a4.69,4.69,0,0,1-2.24-.54,3.61,3.61,0,0,1-1.39-1.38,5.47,5.47,0,0,1-.67-2,9.79,9.79,0,0,1,0-2.3l.2-1.56a11.49,11.49,0,0,1,.57-2.42,8.25,8.25,0,0,1,1.14-2.16,5.42,5.42,0,0,1,1.77-1.53,4.85,4.85,0,0,1,2.46-.51A4,4,0,0,1,491,9a3.33,3.33,0,0,1,1.2,1.54,6.27,6.27,0,0,1,.45,2.08,13.38,13.38,0,0,1-.09,2.28l-.19,1.32h-8.41l.34-1.93h6.13l0-.34a7.85,7.85,0,0,0,0-1.61,2.7,2.7,0,0,0-.48-1.41,1.69,1.69,0,0,0-1.38-.63,2.65,2.65,0,0,0-1.64.37,3.1,3.1,0,0,0-1,1.14,6.18,6.18,0,0,0-.61,1.55,12.68,12.68,0,0,0-.3,1.62l-.19,1.58A9.81,9.81,0,0,0,484.8,18a4.27,4.27,0,0,0,.25,1.36,2.16,2.16,0,0,0,.73,1,2.35,2.35,0,0,0,1.4.42,3.62,3.62,0,0,0,1.8-.41,5.7,5.7,0,0,0,1.46-1.16l1.08,1.45a5.07,5.07,0,0,1-1.28,1.17,5.48,5.48,0,0,1-1.55.67A6.22,6.22,0,0,1,487,22.69Z" transform="translate(0 -2.77)"/><path class="cls-1" d="M501.07,18.78a1.46,1.46,0,0,0-.22-1.08A3,3,0,0,0,500,17c-.34-.2-.67-.39-1-.55s-.87-.45-1.28-.69a5.51,5.51,0,0,1-1.11-.82,3.19,3.19,0,0,1-.75-1.07,3.06,3.06,0,0,1-.22-1.46,3.88,3.88,0,0,1,.45-1.68,4.2,4.2,0,0,1,1-1.29,5,5,0,0,1,1.48-.81,4.9,4.9,0,0,1,1.71-.26,4.28,4.28,0,0,1,2.14.57,3.51,3.51,0,0,1,1.34,1.49,4.42,4.42,0,0,1,.4,2.16l-2.19,0a2.63,2.63,0,0,0-.16-1.09,1.76,1.76,0,0,0-.59-.82,1.78,1.78,0,0,0-1.06-.33,2.5,2.5,0,0,0-1.13.25,2.17,2.17,0,0,0-.84.69,2.32,2.32,0,0,0-.42,1.06,1.36,1.36,0,0,0,.09.77,1.59,1.59,0,0,0,.43.57,2.59,2.59,0,0,0,.63.43l.7.35a19.9,19.9,0,0,1,1.76,1,4.56,4.56,0,0,1,1.37,1.28,3.07,3.07,0,0,1,.45,1.94,4.28,4.28,0,0,1-.47,1.76,4.09,4.09,0,0,1-1.08,1.29,4.86,4.86,0,0,1-1.53.8,5.54,5.54,0,0,1-1.79.24,4.53,4.53,0,0,1-2.25-.59,3.83,3.83,0,0,1-1.49-1.55,4.55,4.55,0,0,1-.47-2.28h2.23a3.56,3.56,0,0,0,.18,1.26,1.75,1.75,0,0,0,.67.86,2.26,2.26,0,0,0,1.23.33,3.24,3.24,0,0,0,1.17-.21,2.35,2.35,0,0,0,.93-.64A2,2,0,0,0,501.07,18.78Z" transform="translate(0 -2.77)"/><path class="cls-1" d="M519.88,14l-.27,1.67H518.2a6.21,6.21,0,0,0-1.35.15,4.32,4.32,0,0,0-1.24.48,2.9,2.9,0,0,0-1,.86,2.62,2.62,0,0,0-.46,1.3,3,3,0,0,0,0,1.12,1.35,1.35,0,0,0,.5.78,1.75,1.75,0,0,0,1.07.29,3.17,3.17,0,0,0,1.38-.32,3.68,3.68,0,0,0,1.15-.87,2.78,2.78,0,0,0,.63-1.26l.35,1.08a4.85,4.85,0,0,1-.52,1.28,4.52,4.52,0,0,1-.89,1.1,4.06,4.06,0,0,1-1.17.76,3.54,3.54,0,0,1-1.38.27,3.47,3.47,0,0,1-2-.52,3.16,3.16,0,0,1-1.18-1.42,4.22,4.22,0,0,1-.3-2,4.55,4.55,0,0,1,.58-2.1,4.46,4.46,0,0,1,1.35-1.48,6,6,0,0,1,1.86-.87,8,8,0,0,1,2.15-.29Zm-1.38,6,1.21-7.54a3.16,3.16,0,0,0-.07-1.17,1.44,1.44,0,0,0-.53-.8,1.89,1.89,0,0,0-1.14-.29,2.45,2.45,0,0,0-1.19.26,2.33,2.33,0,0,0-.86.76,2.79,2.79,0,0,0-.47,1.13h-2.19a4.24,4.24,0,0,1,.53-1.7,4.69,4.69,0,0,1,1.13-1.3,5.11,5.11,0,0,1,1.54-.83,5,5,0,0,1,1.76-.28,4.22,4.22,0,0,1,2.17.54,3.07,3.07,0,0,1,1.26,1.49,4.69,4.69,0,0,1,.27,2.23l-1.13,6.84a6.86,6.86,0,0,0-.09,1.41c0,.45,0,.92.06,1.4l0,.21-2.22,0a5.36,5.36,0,0,1-.11-1.2A11.91,11.91,0,0,1,518.5,20.06Z" transform="translate(0 -2.77)"/><path class="cls-1" d="M537.83,16.26l.77,0a17.26,17.26,0,0,1-.44,2.28,8.11,8.11,0,0,1-.85,2.12,4.26,4.26,0,0,1-1.48,1.53,4,4,0,0,1-2.3.53,3,3,0,0,1-1.72-.5,3.07,3.07,0,0,1-1-1.25,5.17,5.17,0,0,1-.38-1.66,9.48,9.48,0,0,1,0-1.77L532,8.58h2.2l-1.5,9c0,.28,0,.59-.05.94a4.31,4.31,0,0,0,.09,1,1.82,1.82,0,0,0,.41.82,1.29,1.29,0,0,0,.88.35,2.85,2.85,0,0,0,2.06-.6,4.29,4.29,0,0,0,1.19-1.71A9,9,0,0,0,537.83,16.26ZM537,19.1l1.83-10.52h2.22l-2.41,13.85h-2.1Z" transform="translate(0 -2.77)"/><path class="cls-1" d="M549.09,18.78a1.46,1.46,0,0,0-.23-1.08A2.83,2.83,0,0,0,548,17c-.33-.2-.67-.39-1-.55s-.87-.45-1.29-.69a5.73,5.73,0,0,1-1.1-.82,3,3,0,0,1-1-2.53,4.18,4.18,0,0,1,.45-1.68,4.38,4.38,0,0,1,1-1.29,5,5,0,0,1,1.47-.81,5,5,0,0,1,1.72-.26,4.21,4.21,0,0,1,2.13.57,3.6,3.6,0,0,1,1.35,1.49,4.54,4.54,0,0,1,.4,2.16l-2.19,0a2.8,2.8,0,0,0-.16-1.09,1.71,1.71,0,0,0-.6-.82,1.74,1.74,0,0,0-1.06-.33,2.53,2.53,0,0,0-1.13.25,2.07,2.07,0,0,0-.83.69,2.32,2.32,0,0,0-.42,1.06,1.37,1.37,0,0,0,.08.77,1.59,1.59,0,0,0,.43.57,2.87,2.87,0,0,0,.64.43c.23.13.46.24.69.35a18.75,18.75,0,0,1,1.77,1,4.52,4.52,0,0,1,1.36,1.28,3.07,3.07,0,0,1,.46,1.94,4.28,4.28,0,0,1-.47,1.76,4.12,4.12,0,0,1-1.09,1.29,4.8,4.8,0,0,1-1.52.8,5.64,5.64,0,0,1-1.8.24,4.59,4.59,0,0,1-2.25-.59,3.81,3.81,0,0,1-1.48-1.55,4.45,4.45,0,0,1-.47-2.28h2.23a3.16,3.16,0,0,0,.18,1.26,1.69,1.69,0,0,0,.67.86,2.23,2.23,0,0,0,1.22.33,3.29,3.29,0,0,0,1.18-.21,2.35,2.35,0,0,0,.93-.64A2,2,0,0,0,549.09,18.78Z" transform="translate(0 -2.77)"/><path class="cls-1" d="M561.72,16.26l.77,0a19,19,0,0,1-.43,2.28,8.47,8.47,0,0,1-.85,2.12,4.43,4.43,0,0,1-1.48,1.53,4.08,4.08,0,0,1-2.31.53A2.7,2.7,0,0,1,554.75,21a4.93,4.93,0,0,1-.39-1.66,9.48,9.48,0,0,1,0-1.77l1.5-8.94h2.2l-1.5,9c0,.28,0,.59-.05.94a4.31,4.31,0,0,0,.1,1,1.72,1.72,0,0,0,.41.82,1.24,1.24,0,0,0,.87.35,2.84,2.84,0,0,0,2.06-.6,4.19,4.19,0,0,0,1.19-1.71A9,9,0,0,0,561.72,16.26Zm-.83,2.84,1.83-10.52h2.22l-2.41,13.85h-2.1Z" transform="translate(0 -2.77)"/><path class="cls-1" d="M574.22,14,574,15.7h-1.41a6.21,6.21,0,0,0-1.35.15,4.32,4.32,0,0,0-1.24.48,2.9,2.9,0,0,0-1,.86,2.72,2.72,0,0,0-.46,1.3,3.17,3.17,0,0,0,0,1.12,1.35,1.35,0,0,0,.5.78,1.75,1.75,0,0,0,1.07.29,3.17,3.17,0,0,0,1.38-.32,3.68,3.68,0,0,0,1.15-.87,2.78,2.78,0,0,0,.63-1.26l.35,1.08a4.77,4.77,0,0,1-1.41,2.38,4.06,4.06,0,0,1-1.17.76,3.54,3.54,0,0,1-1.38.27,3.47,3.47,0,0,1-2-.52,3.16,3.16,0,0,1-1.18-1.42,4.35,4.35,0,0,1-.3-2,4.49,4.49,0,0,1,1.93-3.58,6,6,0,0,1,1.86-.87A8.08,8.08,0,0,1,572.2,14Zm-1.38,6,1.21-7.54a3.16,3.16,0,0,0-.07-1.17,1.39,1.39,0,0,0-.53-.8,1.89,1.89,0,0,0-1.14-.29,2.45,2.45,0,0,0-1.19.26,2.33,2.33,0,0,0-.86.76,2.94,2.94,0,0,0-.47,1.13H567.6a4.24,4.24,0,0,1,.53-1.7,4.73,4.73,0,0,1,1.14-1.3,4.94,4.94,0,0,1,1.53-.83,5,5,0,0,1,1.76-.28,4.22,4.22,0,0,1,2.17.54A3.07,3.07,0,0,1,576,10.34a4.69,4.69,0,0,1,.27,2.23l-1.13,6.84a6.86,6.86,0,0,0-.09,1.41c0,.45,0,.92.06,1.4l0,.21-2.22,0a5.36,5.36,0,0,1-.11-1.2A11.91,11.91,0,0,1,572.84,20.06Z" transform="translate(0 -2.77)"/><path class="cls-1" d="M582.22,10.85l-2,11.58H578l2.41-13.85h2.13Zm3.7-2.36-.24,2.2-.49-.09a4.21,4.21,0,0,0-.5,0,2.58,2.58,0,0,0-1.3.3,3,3,0,0,0-.94.82,5.41,5.41,0,0,0-.66,1.12,8.45,8.45,0,0,0-.44,1.25l-.65.38c.08-.58.2-1.23.37-1.94a9.24,9.24,0,0,1,.72-2.05A4.49,4.49,0,0,1,583,8.85,2.78,2.78,0,0,1,585,8.28a3.61,3.61,0,0,1,.49.07Z" transform="translate(0 -2.77)"/><path class="cls-1" d="M590.53,8.58l-2.4,13.85h-2.21l2.41-13.85Zm-1.69-3.65a1.68,1.68,0,0,1,.36-1,1.24,1.24,0,0,1,1.85,0,1.38,1.38,0,0,1,.3,1,1.48,1.48,0,0,1-.37.94,1.18,1.18,0,0,1-.91.42,1.08,1.08,0,0,1-.91-.38A1.35,1.35,0,0,1,588.84,4.93Z" transform="translate(0 -2.77)"/><path class="cls-1" d="M592.25,16.17l.17-1.3a10.13,10.13,0,0,1,.62-2.42,7.69,7.69,0,0,1,1.21-2.13,5.61,5.61,0,0,1,1.82-1.5,5.06,5.06,0,0,1,2.48-.5,4.26,4.26,0,0,1,2.21.62,4.07,4.07,0,0,1,1.38,1.53,6.54,6.54,0,0,1,.65,2.09,10.31,10.31,0,0,1,0,2.29l-.17,1.32a10.9,10.9,0,0,1-.62,2.42,7.81,7.81,0,0,1-1.22,2.12A5.72,5.72,0,0,1,599,22.2a5,5,0,0,1-2.46.49,4,4,0,0,1-2.23-.62,4.12,4.12,0,0,1-1.37-1.53,6.45,6.45,0,0,1-.64-2.09A9.66,9.66,0,0,1,592.25,16.17Zm2.38-1.32-.17,1.35c0,.42-.05.9-.05,1.41a5.51,5.51,0,0,0,.22,1.48,2.65,2.65,0,0,0,.69,1.17,2,2,0,0,0,1.33.51,2.89,2.89,0,0,0,1.65-.36,3.4,3.4,0,0,0,1.11-1.09,5.67,5.67,0,0,0,.69-1.52,9.66,9.66,0,0,0,.34-1.63l.17-1.33a12.55,12.55,0,0,0,0-1.41,5.64,5.64,0,0,0-.22-1.48,2.57,2.57,0,0,0-.68-1.18,1.92,1.92,0,0,0-1.35-.51,2.71,2.71,0,0,0-1.58.37,3.43,3.43,0,0,0-1.12,1.12,6.28,6.28,0,0,0-.71,1.53A8.87,8.87,0,0,0,594.63,14.85Z" transform="translate(0 -2.77)"/><path class="cls-1" d="M611.52,18.78a1.5,1.5,0,0,0-.22-1.08,3,3,0,0,0-.82-.75c-.34-.2-.67-.39-1-.55s-.87-.45-1.28-.69a5.51,5.51,0,0,1-1.11-.82,3,3,0,0,1-1-2.53,4,4,0,0,1,.44-1.68,4.38,4.38,0,0,1,1.05-1.29,5,5,0,0,1,1.48-.81,4.86,4.86,0,0,1,1.71-.26,4.21,4.21,0,0,1,2.13.57,3.47,3.47,0,0,1,1.35,1.49,4.42,4.42,0,0,1,.4,2.16l-2.19,0a2.63,2.63,0,0,0-.16-1.09,1.76,1.76,0,0,0-.59-.82,1.79,1.79,0,0,0-1.07-.33,2.46,2.46,0,0,0-1.12.25,2.17,2.17,0,0,0-.84.69,2.32,2.32,0,0,0-.42,1.06,1.36,1.36,0,0,0,.09.77,1.49,1.49,0,0,0,.43.57,2.59,2.59,0,0,0,.63.43c.23.13.47.24.7.35a19.9,19.9,0,0,1,1.76,1,4.56,4.56,0,0,1,1.37,1.28,3.13,3.13,0,0,1,.45,1.94,4.28,4.28,0,0,1-.47,1.76,4.09,4.09,0,0,1-1.08,1.29,4.86,4.86,0,0,1-1.53.8,5.56,5.56,0,0,1-1.8.24,4.52,4.52,0,0,1-2.24-.59,3.83,3.83,0,0,1-1.49-1.55,4.55,4.55,0,0,1-.47-2.28h2.23a3.16,3.16,0,0,0,.18,1.26,1.75,1.75,0,0,0,.67.86,2.24,2.24,0,0,0,1.23.33,3.24,3.24,0,0,0,1.17-.21,2.35,2.35,0,0,0,.93-.64A2,2,0,0,0,611.52,18.78Z" transform="translate(0 -2.77)"/><path class="cls-1" d="M625.32,20.86l5.09-12.28h2.42l-7.16,16a10.44,10.44,0,0,1-.64,1.24,6.26,6.26,0,0,1-.84,1.13,3.77,3.77,0,0,1-1.09.82,2.78,2.78,0,0,1-1.36.3,3.27,3.27,0,0,1-.62-.07l-.63-.16.22-1.92.23,0,.23,0a2.31,2.31,0,0,0,1.32-.27,2.7,2.7,0,0,0,.91-.84,6.34,6.34,0,0,0,.66-1.18Zm.17-12.28.82,10.87.13,2.46-1.66.83L623.15,8.58Z" transform="translate(0 -2.77)"/><path class="cls-1" d="M646.88,14l-.26,1.67h-1.41a6.07,6.07,0,0,0-1.35.15,4.38,4.38,0,0,0-1.25.48,2.87,2.87,0,0,0-.94.86,2.63,2.63,0,0,0-.47,1.3,3.17,3.17,0,0,0,0,1.12,1.4,1.4,0,0,0,.5.78,1.75,1.75,0,0,0,1.07.29,3.25,3.25,0,0,0,1.39-.32,3.76,3.76,0,0,0,1.14-.87,2.91,2.91,0,0,0,.64-1.26l.34,1.08a4.26,4.26,0,0,1-.52,1.28,4.52,4.52,0,0,1-.89,1.1,4.06,4.06,0,0,1-1.17.76,3.54,3.54,0,0,1-1.38.27,3.44,3.44,0,0,1-2-.52,3.1,3.1,0,0,1-1.18-1.42,4.22,4.22,0,0,1-.31-2,4.49,4.49,0,0,1,1.93-3.58,6,6,0,0,1,1.87-.87,8,8,0,0,1,2.14-.29Zm-1.38,6,1.22-7.54a3.39,3.39,0,0,0-.07-1.17,1.41,1.41,0,0,0-.54-.8,1.87,1.87,0,0,0-1.13-.29,2.38,2.38,0,0,0-2.06,1,3.1,3.1,0,0,0-.47,1.13h-2.19a4.25,4.25,0,0,1,.54-1.7,4.53,4.53,0,0,1,1.13-1.3,5.27,5.27,0,0,1,3.29-1.11,4.26,4.26,0,0,1,2.18.54,3.07,3.07,0,0,1,1.26,1.49,4.57,4.57,0,0,1,.26,2.23l-1.13,6.84a8.62,8.62,0,0,0-.09,1.41c0,.45,0,.92.07,1.4l0,.21-2.21,0a4.84,4.84,0,0,1-.12-1.2A11.91,11.91,0,0,1,645.5,20.06Z" transform="translate(0 -2.77)"/><path class="cls-1" d="M655.66,20.78a2.46,2.46,0,0,0,1.41-.34,2.91,2.91,0,0,0,.94-1,5.27,5.27,0,0,0,.53-1.37l2.07,0a5.9,5.9,0,0,1-.88,2.37A5.08,5.08,0,0,1,658,22.11a4.6,4.6,0,0,1-2.44.59,4.4,4.4,0,0,1-2.27-.58,3.67,3.67,0,0,1-1.35-1.47,5.82,5.82,0,0,1-.59-2,9.4,9.4,0,0,1,0-2.31l.2-1.57a11.65,11.65,0,0,1,.59-2.43,7.05,7.05,0,0,1,1.15-2.09,5.16,5.16,0,0,1,1.78-1.42,5.26,5.26,0,0,1,2.49-.46,3.65,3.65,0,0,1,3.6,2.58,7,7,0,0,1,.33,2.45h-2.08a6,6,0,0,0-.11-1.41,2.4,2.4,0,0,0-.58-1.17,1.78,1.78,0,0,0-1.29-.5,3,3,0,0,0-1.63.34,3.07,3.07,0,0,0-1.07,1.05,5.35,5.35,0,0,0-.64,1.46,11.75,11.75,0,0,0-.32,1.61l-.21,1.58c0,.46-.08.95-.09,1.46a5.29,5.29,0,0,0,.14,1.45,2.1,2.1,0,0,0,.66,1.11A2.14,2.14,0,0,0,655.66,20.78Z" transform="translate(0 -2.77)"/><path class="cls-1" d="M669.75,8.58l-.32,1.82h-6.3l.34-1.82Zm-3.66-3.37h2.22L666,19a5.3,5.3,0,0,0,0,.7,1.23,1.23,0,0,0,.17.63.68.68,0,0,0,.6.27,2.49,2.49,0,0,0,.46-.05l.44-.08-.19,1.95a4.35,4.35,0,0,1-.71.18,4.48,4.48,0,0,1-.73.05,1.89,1.89,0,0,1-1.5-.6,3,3,0,0,1-.63-1.43,6.65,6.65,0,0,1-.06-1.66Z" transform="translate(0 -2.77)"/><path class="cls-1" d="M670.61,16.17l.17-1.3a10.13,10.13,0,0,1,.62-2.42,7.69,7.69,0,0,1,1.21-2.13,5.61,5.61,0,0,1,1.82-1.5,5.08,5.08,0,0,1,2.48-.5,4.3,4.3,0,0,1,2.22.62,4.12,4.12,0,0,1,1.37,1.53,6.3,6.3,0,0,1,.65,2.09,10.31,10.31,0,0,1,0,2.29L681,16.17a10.9,10.9,0,0,1-.62,2.42,7.81,7.81,0,0,1-1.22,2.12,5.62,5.62,0,0,1-1.83,1.49,5,5,0,0,1-2.46.49,3.89,3.89,0,0,1-3.59-2.15,6.23,6.23,0,0,1-.65-2.09A9.66,9.66,0,0,1,670.61,16.17ZM673,14.85l-.16,1.35a12.33,12.33,0,0,0-.06,1.41,5.94,5.94,0,0,0,.22,1.48,2.65,2.65,0,0,0,.69,1.17,2,2,0,0,0,1.34.51,2.87,2.87,0,0,0,1.64-.36,3.4,3.4,0,0,0,1.11-1.09,5.67,5.67,0,0,0,.69-1.52,10.8,10.8,0,0,0,.35-1.63l.16-1.33a12.55,12.55,0,0,0,0-1.41,6.08,6.08,0,0,0-.21-1.48,2.68,2.68,0,0,0-.69-1.18,1.92,1.92,0,0,0-1.35-.51,2.73,2.73,0,0,0-1.58.37,3.52,3.52,0,0,0-1.12,1.12,6.28,6.28,0,0,0-.71,1.53A8.87,8.87,0,0,0,673,14.85Z" transform="translate(0 -2.77)"/><path class="cls-1" d="M686.94,10.85l-2,11.58h-2.22l2.41-13.85h2.14Zm3.7-2.36-.25,2.2-.49-.09a4.22,4.22,0,0,0-.49,0,2.59,2.59,0,0,0-1.31.3,3,3,0,0,0-.94.82,5.41,5.41,0,0,0-.66,1.12,8.4,8.4,0,0,0-.43,1.25l-.66.38c.08-.58.2-1.23.37-1.94a9.24,9.24,0,0,1,.72-2.05,4.61,4.61,0,0,1,1.24-1.59,2.8,2.8,0,0,1,1.92-.57,4,4,0,0,1,.5.07Z" transform="translate(0 -2.77)"/><path class="cls-1" d="M695.44,22.69a4.66,4.66,0,0,1-2.24-.54,3.64,3.64,0,0,1-1.4-1.38,5.66,5.66,0,0,1-.66-2,8.82,8.82,0,0,1,0-2.3l.19-1.56a12.18,12.18,0,0,1,.58-2.42A8.25,8.25,0,0,1,693,10.36a5.39,5.39,0,0,1,1.76-1.53,4.87,4.87,0,0,1,2.46-.51,4,4,0,0,1,2.22.63,3.39,3.39,0,0,1,1.2,1.54,6,6,0,0,1,.44,2.08,13.38,13.38,0,0,1-.08,2.28l-.19,1.32h-8.41l.34-1.93h6.12l0-.34a7.85,7.85,0,0,0,0-1.61,2.7,2.7,0,0,0-.48-1.41,1.72,1.72,0,0,0-1.39-.63,2.64,2.64,0,0,0-1.63.37,3.1,3.1,0,0,0-1,1.14,6.18,6.18,0,0,0-.61,1.55,12.68,12.68,0,0,0-.3,1.62l-.19,1.58a9.8,9.8,0,0,0-.06,1.44,4.56,4.56,0,0,0,.25,1.36,2.23,2.23,0,0,0,.73,1,2.41,2.41,0,0,0,1.41.42,3.56,3.56,0,0,0,1.79-.41,5.58,5.58,0,0,0,1.47-1.16L700,20.64a5.25,5.25,0,0,1-1.28,1.17,5.48,5.48,0,0,1-1.55.67A6.22,6.22,0,0,1,695.44,22.69Z" transform="translate(0 -2.77)"/><path class="cls-1" d="M709.55,18.78a1.46,1.46,0,0,0-.23-1.08,2.83,2.83,0,0,0-.82-.75c-.33-.2-.66-.39-1-.55s-.87-.45-1.28-.69a5.51,5.51,0,0,1-1.11-.82,3,3,0,0,1-1-2.53,4.18,4.18,0,0,1,.45-1.68,4.38,4.38,0,0,1,1-1.29,5,5,0,0,1,1.48-.81,4.86,4.86,0,0,1,1.71-.26,4.21,4.21,0,0,1,2.13.57,3.53,3.53,0,0,1,1.35,1.49,4.54,4.54,0,0,1,.4,2.16l-2.19,0a2.63,2.63,0,0,0-.16-1.09,1.76,1.76,0,0,0-.59-.82,1.79,1.79,0,0,0-1.07-.33,2.46,2.46,0,0,0-1.12.25,2,2,0,0,0-.84.69,2.32,2.32,0,0,0-.42,1.06,1.46,1.46,0,0,0,.08.77,1.72,1.72,0,0,0,.43.57,2.87,2.87,0,0,0,.64.43c.23.13.46.24.69.35a18.75,18.75,0,0,1,1.77,1,4.68,4.68,0,0,1,1.37,1.28,3.13,3.13,0,0,1,.45,1.94,4.28,4.28,0,0,1-.47,1.76,4.12,4.12,0,0,1-1.09,1.29,4.7,4.7,0,0,1-1.52.8,5.64,5.64,0,0,1-1.8.24,4.59,4.59,0,0,1-2.25-.59,3.87,3.87,0,0,1-1.48-1.55,4.45,4.45,0,0,1-.47-2.28h2.23a3.16,3.16,0,0,0,.18,1.26,1.75,1.75,0,0,0,.67.86,2.23,2.23,0,0,0,1.22.33,3.29,3.29,0,0,0,1.18-.21,2.35,2.35,0,0,0,.93-.64A2,2,0,0,0,709.55,18.78Z" transform="translate(0 -2.77)"/><path class="cls-1" d="M724.73,8.58l-2.4,13.85h-2.21l2.41-13.85ZM723,4.93a1.68,1.68,0,0,1,.36-1,1.24,1.24,0,0,1,1.85,0,1.38,1.38,0,0,1,.3,1,1.48,1.48,0,0,1-.37.94,1.18,1.18,0,0,1-.91.42,1.09,1.09,0,0,1-.91-.38A1.35,1.35,0,0,1,723,4.93Z" transform="translate(0 -2.77)"/><path class="cls-1" d="M729.87,11.68,728,22.43h-2.22l2.41-13.85h2.09Zm-1,3.35-.8,0a13.64,13.64,0,0,1,.49-2.27,8.67,8.67,0,0,1,1-2.19,5.16,5.16,0,0,1,1.58-1.64,3.91,3.91,0,0,1,2.3-.58,3,3,0,0,1,1.67.5A2.76,2.76,0,0,1,736,10a4.93,4.93,0,0,1,.37,1.61,10,10,0,0,1,0,1.73l-1.51,9.08h-2.21l1.52-9.11a8.69,8.69,0,0,0,0-1.35,2.21,2.21,0,0,0-.39-1.17,1.44,1.44,0,0,0-1.19-.51,2.51,2.51,0,0,0-1.54.44,4,4,0,0,0-1.11,1.2,6.87,6.87,0,0,0-.71,1.56A9.23,9.23,0,0,0,728.84,15Z" transform="translate(0 -2.77)"/><path class="cls-1" d="M741.55,8.58l1.17,11.92-.09,1.93h-1.39L739.37,8.58Zm.51,11.62,4.67-11.62h2.33L742.9,22.43h-1.53Z" transform="translate(0 -2.77)"/><path class="cls-1" d="M749.65,16.17l.17-1.3a10.13,10.13,0,0,1,.62-2.42,7.69,7.69,0,0,1,1.21-2.13,5.61,5.61,0,0,1,1.82-1.5,5.06,5.06,0,0,1,2.48-.5,4.24,4.24,0,0,1,2.21.62,4.07,4.07,0,0,1,1.38,1.53,6.3,6.3,0,0,1,.65,2.09,10.31,10.31,0,0,1,0,2.29l-.17,1.32a10.9,10.9,0,0,1-.62,2.42,7.81,7.81,0,0,1-1.22,2.12,5.72,5.72,0,0,1-1.83,1.49,5,5,0,0,1-2.46.49,4,4,0,0,1-2.22-.62,4.07,4.07,0,0,1-1.38-1.53,6.45,6.45,0,0,1-.64-2.09A9.66,9.66,0,0,1,749.65,16.17ZM752,14.85l-.16,1.35a12.33,12.33,0,0,0-.06,1.41,5.94,5.94,0,0,0,.22,1.48,2.65,2.65,0,0,0,.69,1.17,2,2,0,0,0,1.34.51,2.87,2.87,0,0,0,1.64-.36,3.4,3.4,0,0,0,1.11-1.09,5.67,5.67,0,0,0,.69-1.52,9.66,9.66,0,0,0,.34-1.63l.17-1.33a12.55,12.55,0,0,0,0-1.41,5.64,5.64,0,0,0-.22-1.48,2.57,2.57,0,0,0-.68-1.18,1.92,1.92,0,0,0-1.35-.51,2.73,2.73,0,0,0-1.58.37,3.52,3.52,0,0,0-1.12,1.12,6.28,6.28,0,0,0-.71,1.53A8.87,8.87,0,0,0,752,14.85Z" transform="translate(0 -2.77)"/><path class="cls-1" d="M767.55,2.77l-3.42,19.66h-2.2l3.42-19.66Z" transform="translate(0 -2.77)"/><path class="cls-1" d="M775.8,16.26l.77,0a19.05,19.05,0,0,1-.44,2.28,8.47,8.47,0,0,1-.85,2.12,4.34,4.34,0,0,1-1.48,1.53,4.06,4.06,0,0,1-2.31.53A2.7,2.7,0,0,1,768.82,21a5.18,5.18,0,0,1-.39-1.66,9.48,9.48,0,0,1,0-1.77L770,8.58h2.2l-1.5,9c0,.28,0,.59,0,.94a4.9,4.9,0,0,0,.1,1,1.72,1.72,0,0,0,.41.82,1.25,1.25,0,0,0,.88.35,2.87,2.87,0,0,0,2.06-.6,4.27,4.27,0,0,0,1.18-1.71A9.52,9.52,0,0,0,775.8,16.26ZM775,19.1,776.8,8.58H779L776.6,22.43h-2.1Z" transform="translate(0 -2.77)"/><path class="cls-1" d="M784.87,20.78a2.48,2.48,0,0,0,1.42-.34,2.91,2.91,0,0,0,.94-1,4.92,4.92,0,0,0,.52-1.37l2.08,0a5.9,5.9,0,0,1-.88,2.37,5.08,5.08,0,0,1-1.76,1.69,4.6,4.6,0,0,1-2.44.59,4.4,4.4,0,0,1-2.27-.58,3.67,3.67,0,0,1-1.35-1.47,6,6,0,0,1-.6-2,9.93,9.93,0,0,1,0-2.31l.2-1.57a11.65,11.65,0,0,1,.59-2.43,7.05,7.05,0,0,1,1.15-2.09,5.16,5.16,0,0,1,1.78-1.42,5.26,5.26,0,0,1,2.49-.46,3.84,3.84,0,0,1,2.33.75,3.78,3.78,0,0,1,1.26,1.83,6.8,6.8,0,0,1,.34,2.45h-2.08a6,6,0,0,0-.11-1.41,2.4,2.4,0,0,0-.58-1.17,1.78,1.78,0,0,0-1.29-.5,3,3,0,0,0-1.63.34,3.07,3.07,0,0,0-1.07,1.05,5.35,5.35,0,0,0-.64,1.46,10.42,10.42,0,0,0-.32,1.61l-.21,1.58c0,.46-.08.95-.09,1.46a5.29,5.29,0,0,0,.14,1.45,2.1,2.1,0,0,0,.66,1.11A2.13,2.13,0,0,0,784.87,20.78Z" transform="translate(0 -2.77)"/><path class="cls-1" d="M795.86,10.85l-2,11.58h-2.21L794,8.58h2.14Zm3.7-2.36-.24,2.2-.49-.09a4.38,4.38,0,0,0-.5,0,2.55,2.55,0,0,0-1.3.3,3,3,0,0,0-.95.82,5.41,5.41,0,0,0-.66,1.12,9.72,9.72,0,0,0-.43,1.25l-.65.38c.07-.58.2-1.23.36-1.94a10.38,10.38,0,0,1,.72-2.05,4.63,4.63,0,0,1,1.25-1.59,2.78,2.78,0,0,1,1.92-.57,3.85,3.85,0,0,1,.49.07Z" transform="translate(0 -2.77)"/><path class="cls-1" d="M807.79,14l-.26,1.67h-1.41a6.07,6.07,0,0,0-1.35.15,4.38,4.38,0,0,0-1.25.48,2.87,2.87,0,0,0-.94.86,2.73,2.73,0,0,0-.47,1.3,3.17,3.17,0,0,0,0,1.12,1.4,1.4,0,0,0,.5.78,1.77,1.77,0,0,0,1.07.29,3.25,3.25,0,0,0,1.39-.32,3.76,3.76,0,0,0,1.14-.87,2.91,2.91,0,0,0,.64-1.26l.34,1.08a4.26,4.26,0,0,1-.52,1.28,4.52,4.52,0,0,1-.89,1.1,4.06,4.06,0,0,1-1.17.76,3.54,3.54,0,0,1-1.38.27,3.44,3.44,0,0,1-1.95-.52,3.1,3.1,0,0,1-1.18-1.42,4.22,4.22,0,0,1-.31-2,4.49,4.49,0,0,1,1.93-3.58,6,6,0,0,1,1.87-.87,8,8,0,0,1,2.14-.29Zm-1.38,6,1.22-7.54a3.39,3.39,0,0,0-.07-1.17,1.41,1.41,0,0,0-.54-.8,1.87,1.87,0,0,0-1.13-.29,2.38,2.38,0,0,0-2.06,1,2.94,2.94,0,0,0-.47,1.13h-2.19a4.1,4.1,0,0,1,.54-1.7,4.53,4.53,0,0,1,1.13-1.3,5.27,5.27,0,0,1,3.29-1.11,4.26,4.26,0,0,1,2.18.54,3.07,3.07,0,0,1,1.26,1.49,4.69,4.69,0,0,1,.26,2.23l-1.13,6.84a8.62,8.62,0,0,0-.09,1.41c0,.45,0,.92.07,1.4l0,.21-2.21,0a4.84,4.84,0,0,1-.12-1.2A11.91,11.91,0,0,1,806.41,20.06Z" transform="translate(0 -2.77)"/><path class="cls-1" d="M812.24,16.17l.15-1.28a14,14,0,0,1,.51-2.32,8.25,8.25,0,0,1,1-2.15,4.71,4.71,0,0,1,1.6-1.57,4.27,4.27,0,0,1,2.34-.53,2.94,2.94,0,0,1,1.91.67,3.71,3.71,0,0,1,1,1.61,7.18,7.18,0,0,1,.41,2,13.61,13.61,0,0,1,0,2L821,16.39a14.5,14.5,0,0,1-.53,2.14,9.18,9.18,0,0,1-1,2.08A5.08,5.08,0,0,1,818,22.16a3.6,3.6,0,0,1-2.15.54,3.28,3.28,0,0,1-2.06-.67,3.75,3.75,0,0,1-1.12-1.62,7.27,7.27,0,0,1-.44-2.11A12.48,12.48,0,0,1,812.24,16.17Zm2.37-1.29-.16,1.3q-.08.67-.09,1.44a5.37,5.37,0,0,0,.14,1.46,2.29,2.29,0,0,0,.64,1.15,2,2,0,0,0,1.37.47,2.69,2.69,0,0,0,1.64-.47A4.36,4.36,0,0,0,819.36,19a6.21,6.21,0,0,0,.71-1.59l.59-3.66a5,5,0,0,0-.11-1.15,3.87,3.87,0,0,0-.43-1.08,2.68,2.68,0,0,0-.76-.81,2.07,2.07,0,0,0-1.09-.35,2.8,2.8,0,0,0-1.63.36,3.1,3.1,0,0,0-1.08,1.08,5.75,5.75,0,0,0-.64,1.5A9.54,9.54,0,0,0,814.61,14.88Zm4.5,4.72L822,2.77h2.21l-3.42,19.66h-2Z" transform="translate(0 -2.77)"/><path class="cls-1" d="M824.86,16.17l.17-1.3a10.63,10.63,0,0,1,.62-2.42,8,8,0,0,1,1.21-2.13,5.61,5.61,0,0,1,1.82-1.5,5.08,5.08,0,0,1,2.48-.5,4.3,4.3,0,0,1,2.22.62,4,4,0,0,1,1.37,1.53,6.3,6.3,0,0,1,.65,2.09,10.31,10.31,0,0,1,0,2.29l-.17,1.32a10.9,10.9,0,0,1-.62,2.42,7.81,7.81,0,0,1-1.22,2.12,5.52,5.52,0,0,1-1.83,1.49,5,5,0,0,1-2.46.49,4,4,0,0,1-2.22-.62,4,4,0,0,1-1.37-1.53,6.23,6.23,0,0,1-.65-2.09A10.23,10.23,0,0,1,824.86,16.17Zm2.38-1.32-.16,1.35a10.5,10.5,0,0,0-.05,1.41,5.51,5.51,0,0,0,.21,1.48,2.65,2.65,0,0,0,.69,1.17,2,2,0,0,0,1.34.51,2.87,2.87,0,0,0,1.64-.36A3.53,3.53,0,0,0,832,19.32a6,6,0,0,0,.68-1.52,10.8,10.8,0,0,0,.35-1.63l.16-1.33a10.56,10.56,0,0,0,0-1.41,5.63,5.63,0,0,0-.21-1.48,2.68,2.68,0,0,0-.69-1.18,1.92,1.92,0,0,0-1.35-.51,2.73,2.73,0,0,0-1.58.37,3.52,3.52,0,0,0-1.12,1.12,6.28,6.28,0,0,0-.71,1.53A8.87,8.87,0,0,0,827.24,14.85Z" transform="translate(0 -2.77)"/><path class="cls-1" d="M844.13,18.78a1.46,1.46,0,0,0-.22-1.08,2.83,2.83,0,0,0-.82-.75c-.34-.2-.67-.39-1-.55s-.88-.45-1.29-.69a6.13,6.13,0,0,1-1.11-.82,3.34,3.34,0,0,1-.75-1.07,3.06,3.06,0,0,1-.22-1.46,3.88,3.88,0,0,1,.45-1.68,4.09,4.09,0,0,1,1.05-1.29,4.78,4.78,0,0,1,1.47-.81,4.9,4.9,0,0,1,1.71-.26,4.28,4.28,0,0,1,2.14.57,3.51,3.51,0,0,1,1.34,1.49,4.42,4.42,0,0,1,.4,2.16l-2.18,0a3,3,0,0,0-.16-1.09,1.85,1.85,0,0,0-.6-.82,1.76,1.76,0,0,0-1.06-.33,2.5,2.5,0,0,0-1.13.25,2.17,2.17,0,0,0-.84.69,2.31,2.31,0,0,0-.41,1.06,1.28,1.28,0,0,0,.08.77,1.59,1.59,0,0,0,.43.57,3,3,0,0,0,.63.43c.24.13.47.24.7.35.61.3,1.2.63,1.77,1a4.64,4.64,0,0,1,1.36,1.28,3,3,0,0,1,.45,1.94,4.28,4.28,0,0,1-.47,1.76,4,4,0,0,1-1.08,1.29,4.86,4.86,0,0,1-1.53.8,5.54,5.54,0,0,1-1.79.24,4.53,4.53,0,0,1-2.25-.59,3.83,3.83,0,0,1-1.49-1.55,4.45,4.45,0,0,1-.46-2.28h2.22a3.56,3.56,0,0,0,.18,1.26,1.71,1.71,0,0,0,.68.86,2.23,2.23,0,0,0,1.22.33,3.29,3.29,0,0,0,1.18-.21,2.39,2.39,0,0,0,.92-.64A2,2,0,0,0,844.13,18.78Z" transform="translate(0 -2.77)"/><path class="cls-1" d="M848.93,21.22a1.46,1.46,0,0,1,.41-1,1.38,1.38,0,0,1,1-.44,1.34,1.34,0,0,1,1,.39,1.31,1.31,0,0,1,.39,1,1.43,1.43,0,0,1-.4,1,1.46,1.46,0,0,1-1,.42,1.42,1.42,0,0,1-1-.37A1.31,1.31,0,0,1,848.93,21.22Z" transform="translate(0 -2.77)"/><rect class="cls-2" y="197.57" width="176.88" height="129.05" rx="19.95"/><rect class="cls-2" x="261.73" y="197.57" width="176.88" height="129.05" rx="19.95"/><rect class="cls-2" x="523.46" y="197.57" width="176.88" height="129.05" rx="19.95"/><rect class="cls-2" x="785.18" y="197.57" width="176.88" height="129.05" rx="19.95"/><path class="cls-3" d="M182.4,41.52H759.23c17.38,0,31.47,13,31.47,29.12V134H213.87c-17.38,0-31.47-13-31.47-29.12Z" transform="translate(0 -2.77)"/><path class="cls-2" d="M282.25,76.37H285a8.69,8.69,0,0,1-1.13,3.52,6.42,6.42,0,0,1-2.58,2.45,8.56,8.56,0,0,1-4.16.91,7.93,7.93,0,0,1-3.31-.68,7.4,7.4,0,0,1-2.56-1.95,8.79,8.79,0,0,1-1.64-3,12.56,12.56,0,0,1-.58-4V71.56a12.56,12.56,0,0,1,.58-4,8.75,8.75,0,0,1,1.66-3,7.47,7.47,0,0,1,2.63-2,8.56,8.56,0,0,1,3.47-.68,8.2,8.2,0,0,1,4,.88,6.41,6.41,0,0,1,2.53,2.45A9,9,0,0,1,285,68.87h-2.74a7.66,7.66,0,0,0-.74-2.5A3.82,3.82,0,0,0,280,64.75a5.19,5.19,0,0,0-2.6-.57,5.31,5.31,0,0,0-2.43.53,4.79,4.79,0,0,0-1.76,1.5,6.88,6.88,0,0,0-1.06,2.32,11.66,11.66,0,0,0-.36,3v2.09a12.4,12.4,0,0,0,.32,2.86,7.61,7.61,0,0,0,1,2.36,4.88,4.88,0,0,0,1.67,1.59,4.78,4.78,0,0,0,2.39.57,6,6,0,0,0,2.8-.55,3.73,3.73,0,0,0,1.57-1.6A8,8,0,0,0,282.25,76.37Z" transform="translate(0 -2.77)"/><path class="cls-2" d="M304.7,71.93v1.32a14,14,0,0,1-.59,4.19,9,9,0,0,1-1.68,3.14,7.32,7.32,0,0,1-2.63,2,8.84,8.84,0,0,1-6.8,0,7.56,7.56,0,0,1-2.65-2,9.24,9.24,0,0,1-1.73-3.14,13.33,13.33,0,0,1-.61-4.19V71.93a13.22,13.22,0,0,1,.61-4.18,9.18,9.18,0,0,1,1.71-3.15,7.39,7.39,0,0,1,2.65-2,8.25,8.25,0,0,1,3.37-.68,8.39,8.39,0,0,1,3.42.68,7.35,7.35,0,0,1,2.64,2,9.16,9.16,0,0,1,1.7,3.15A13.84,13.84,0,0,1,304.7,71.93ZM302,73.25V71.91a12.91,12.91,0,0,0-.38-3.28,6.83,6.83,0,0,0-1.11-2.4,4.7,4.7,0,0,0-1.77-1.46,5.35,5.35,0,0,0-2.37-.5,5.16,5.16,0,0,0-2.32.5,4.86,4.86,0,0,0-1.77,1.46,7.22,7.22,0,0,0-1.13,2.4,12.43,12.43,0,0,0-.4,3.28v1.34a12.51,12.51,0,0,0,.4,3.29A7,7,0,0,0,292.28,79a4.93,4.93,0,0,0,1.78,1.48,5.3,5.3,0,0,0,2.32.5,5.51,5.51,0,0,0,2.38-.5A4.79,4.79,0,0,0,300.52,79a7.15,7.15,0,0,0,1.09-2.41A13.49,13.49,0,0,0,302,73.25Z" transform="translate(0 -2.77)"/><path class="cls-2" d="M308.8,62.22h2.35l.39,12.65V83H308.8Zm.87,0h2.67l6.79,16.91,6.79-16.91h2.68L320.16,83h-2.08Zm17.43,0h2.35V83h-2.73V74.87Z" transform="translate(0 -2.77)"/><path class="cls-2" d="M346.15,62.22h2.74v14a6.85,6.85,0,0,1-1,3.89,6.33,6.33,0,0,1-2.76,2.33,8.86,8.86,0,0,1-3.72.78,9.09,9.09,0,0,1-3.82-.78,6.09,6.09,0,0,1-2.69-2.33,7.09,7.09,0,0,1-1-3.89v-14h2.72v14a5.34,5.34,0,0,0,.6,2.68,3.75,3.75,0,0,0,1.68,1.57,6.41,6.41,0,0,0,5,0,3.75,3.75,0,0,0,1.68-1.57,5.45,5.45,0,0,0,.59-2.68Z" transform="translate(0 -2.77)"/><path class="cls-2" d="M369.17,62.22V83H366.4L356,67V83h-2.75V62.22H356l10.49,16v-16Z" transform="translate(0 -2.77)"/><path class="cls-2" d="M377,62.22V83h-2.75V62.22Z" transform="translate(0 -2.77)"/><path class="cls-2" d="M394.49,76.37h2.74a8.69,8.69,0,0,1-1.13,3.52,6.55,6.55,0,0,1-2.58,2.45,8.56,8.56,0,0,1-4.16.91,7.93,7.93,0,0,1-3.31-.68,7.4,7.4,0,0,1-2.56-1.95,9,9,0,0,1-1.65-3,12.86,12.86,0,0,1-.57-4V71.56a12.86,12.86,0,0,1,.57-4,8.77,8.77,0,0,1,1.67-3,7.47,7.47,0,0,1,2.63-2,8.54,8.54,0,0,1,3.46-.68,8.22,8.22,0,0,1,4,.88,6.41,6.41,0,0,1,2.53,2.45,9,9,0,0,1,1.12,3.61h-2.74a7.66,7.66,0,0,0-.74-2.5,3.82,3.82,0,0,0-1.54-1.62,5.21,5.21,0,0,0-2.61-.57,5.37,5.37,0,0,0-2.43.53,4.84,4.84,0,0,0-1.75,1.5,6.88,6.88,0,0,0-1.06,2.32,11.66,11.66,0,0,0-.36,3v2.09a12.4,12.4,0,0,0,.32,2.86,7.61,7.61,0,0,0,1,2.36A4.88,4.88,0,0,0,387,80.44a4.78,4.78,0,0,0,2.39.57,6,6,0,0,0,2.8-.55,3.73,3.73,0,0,0,1.57-1.6A8,8,0,0,0,394.49,76.37Z" transform="translate(0 -2.77)"/><path class="cls-2" d="M408.64,64.05,401.77,83H399l7.91-20.74h1.81ZM414,75.28v2.26H402.39V75.28ZM414.4,83l-6.88-18.91,0-1.83h1.81L417.22,83Z" transform="translate(0 -2.77)"/><path class="cls-2" d="M432.37,76.37h2.74A8.85,8.85,0,0,1,434,79.89a6.55,6.55,0,0,1-2.58,2.45,8.56,8.56,0,0,1-4.16.91,7.9,7.9,0,0,1-3.31-.68,7.31,7.31,0,0,1-2.56-1.95,9,9,0,0,1-1.65-3,12.86,12.86,0,0,1-.57-4V71.56a12.86,12.86,0,0,1,.57-4,8.77,8.77,0,0,1,1.67-3,7.38,7.38,0,0,1,2.63-2,8.54,8.54,0,0,1,3.46-.68,8.22,8.22,0,0,1,4,.88A6.41,6.41,0,0,1,434,65.26a9.11,9.11,0,0,1,1.12,3.61h-2.74a7.66,7.66,0,0,0-.74-2.5,3.82,3.82,0,0,0-1.54-1.62,5.21,5.21,0,0,0-2.61-.57,5.37,5.37,0,0,0-2.43.53,4.84,4.84,0,0,0-1.75,1.5,6.88,6.88,0,0,0-1.06,2.32,11.66,11.66,0,0,0-.36,3v2.09a12.4,12.4,0,0,0,.32,2.86,7.61,7.61,0,0,0,1,2.36,4.88,4.88,0,0,0,1.67,1.59,4.78,4.78,0,0,0,2.39.57,5.93,5.93,0,0,0,2.79-.55,3.7,3.7,0,0,0,1.58-1.6A8.3,8.3,0,0,0,432.37,76.37Z" transform="translate(0 -2.77)"/><path class="cls-2" d="M441.79,62.22V83H439V62.22Z" transform="translate(0 -2.77)"/><path class="cls-2" d="M462.75,71.93v1.32a14,14,0,0,1-.58,4.19,9,9,0,0,1-1.68,3.14,7.32,7.32,0,0,1-2.63,2,8.43,8.43,0,0,1-3.43.68,8.28,8.28,0,0,1-3.37-.68,7.56,7.56,0,0,1-2.65-2,9.07,9.07,0,0,1-1.73-3.14,13.33,13.33,0,0,1-.61-4.19V71.93a13.52,13.52,0,0,1,.6-4.18,9.37,9.37,0,0,1,1.72-3.15,7.44,7.44,0,0,1,2.64-2,8.28,8.28,0,0,1,3.37-.68,8.4,8.4,0,0,1,3.43.68,7.44,7.44,0,0,1,2.64,2,9.15,9.15,0,0,1,1.69,3.15A13.53,13.53,0,0,1,462.75,71.93ZM460,73.25V71.91a12.47,12.47,0,0,0-.38-3.28,7,7,0,0,0-1.1-2.4,4.78,4.78,0,0,0-1.77-1.46,5.37,5.37,0,0,0-2.38-.5,5.15,5.15,0,0,0-2.31.5,4.86,4.86,0,0,0-1.77,1.46,7,7,0,0,0-1.13,2.4,12,12,0,0,0-.4,3.28v1.34a12.1,12.1,0,0,0,.4,3.29A6.83,6.83,0,0,0,450.33,79a5,5,0,0,0,1.79,1.48,5.26,5.26,0,0,0,2.31.5,5.48,5.48,0,0,0,2.38-.5A4.71,4.71,0,0,0,458.57,79a7,7,0,0,0,1.09-2.41A13,13,0,0,0,460,73.25ZM453,60.8l2.77-4.19h3.17l-3.81,4.19Z" transform="translate(0 -2.77)"/><path class="cls-2" d="M482.82,62.22V83h-2.77L469.61,67V83h-2.75V62.22h2.75l10.49,16v-16Z" transform="translate(0 -2.77)"/><path class="cls-2" d="M497.67,62.22V83h-2.75V62.22ZM500.53,83H496.2l0-2.23h4.3a6.79,6.79,0,0,0,3.71-.94,5.74,5.74,0,0,0,2.23-2.62,9.63,9.63,0,0,0,.75-4V72a10.9,10.9,0,0,0-.43-3.17,6.38,6.38,0,0,0-1.26-2.35,5.32,5.32,0,0,0-2-1.46,6.85,6.85,0,0,0-2.73-.5h-4.67V62.22h4.67a9.89,9.89,0,0,1,3.72.67,8.16,8.16,0,0,1,2.9,2,8.72,8.72,0,0,1,1.87,3.08,11.76,11.76,0,0,1,.66,4.06v1.24a11.7,11.7,0,0,1-.66,4,8.26,8.26,0,0,1-4.85,5A10.63,10.63,0,0,1,500.53,83Z" transform="translate(0 -2.77)"/><path class="cls-2" d="M516.82,62.22V83h-2.75V62.22Zm10.29,0v2.25H516.27V62.22Zm-1.31,8.92v2.23h-9.53V71.14Zm1.45,9.59V83h-11V80.73Z" transform="translate(0 -2.77)"/><path class="cls-2" d="M553.86,62.22V83h-2.77L540.65,67V83H537.9V62.22h2.75l10.49,16v-16Z" transform="translate(0 -2.77)"/><path class="cls-2" d="M574.69,71.93v1.32a14,14,0,0,1-.58,4.19,9,9,0,0,1-1.68,3.14,7.32,7.32,0,0,1-2.63,2,8.43,8.43,0,0,1-3.43.68,8.28,8.28,0,0,1-3.37-.68,7.56,7.56,0,0,1-2.65-2,9.07,9.07,0,0,1-1.73-3.14,13.33,13.33,0,0,1-.61-4.19V71.93a13.52,13.52,0,0,1,.6-4.18,9.37,9.37,0,0,1,1.72-3.15,7.44,7.44,0,0,1,2.64-2,8.28,8.28,0,0,1,3.37-.68,8.4,8.4,0,0,1,3.43.68,7.44,7.44,0,0,1,2.64,2,9.15,9.15,0,0,1,1.69,3.15A13.53,13.53,0,0,1,574.69,71.93ZM572,73.25V71.91a12.47,12.47,0,0,0-.38-3.28,7,7,0,0,0-1.1-2.4,4.78,4.78,0,0,0-1.77-1.46,5.37,5.37,0,0,0-2.38-.5,5.15,5.15,0,0,0-2.31.5,4.86,4.86,0,0,0-1.77,1.46,7,7,0,0,0-1.13,2.4,12,12,0,0,0-.4,3.28v1.34a12.1,12.1,0,0,0,.4,3.29A7,7,0,0,0,562.27,79a5,5,0,0,0,1.79,1.48,5.26,5.26,0,0,0,2.31.5,5.48,5.48,0,0,0,2.38-.5A4.63,4.63,0,0,0,570.51,79a7,7,0,0,0,1.09-2.41A13,13,0,0,0,572,73.25Z" transform="translate(0 -2.77)"/><path class="cls-2" d="M579.47,62.22l6,17.6.76,3.14h-2.12l-7.67-20.74Zm5.71,17.6,6.12-17.6h3L586.59,83h-2.12Z" transform="translate(0 -2.77)"/><path class="cls-2" d="M599.82,62.22V83h-2.75V62.22Zm10.29,0v2.25H599.26V62.22Zm-1.31,8.92v2.23h-9.54V71.14Zm1.45,9.59V83h-11V80.73Z" transform="translate(0 -2.77)"/><path class="cls-2" d="M616.41,62.22V83h-2.75V62.22ZM619.27,83h-4.33l0-2.23h4.3a6.79,6.79,0,0,0,3.71-.94,5.8,5.8,0,0,0,2.23-2.62,9.8,9.8,0,0,0,.74-4V72a10.92,10.92,0,0,0-.42-3.17,6.53,6.53,0,0,0-1.26-2.35,5.32,5.32,0,0,0-2-1.46,6.92,6.92,0,0,0-2.73-.5h-4.68V62.22h4.68a9.93,9.93,0,0,1,3.72.67,8.25,8.25,0,0,1,2.9,2A8.87,8.87,0,0,1,628,67.92a11.76,11.76,0,0,1,.66,4.06v1.24a11.7,11.7,0,0,1-.66,4,8.55,8.55,0,0,1-1.89,3.07,8.22,8.22,0,0,1-3,2A10.71,10.71,0,0,1,619.27,83Z" transform="translate(0 -2.77)"/><path class="cls-2" d="M640.19,64.05,633.32,83h-2.81l7.91-20.74h1.81Zm5.4,11.23v2.26H633.93V75.28ZM646,83l-6.88-18.91L639,62.22h1.81L648.77,83Z" transform="translate(0 -2.77)"/><path class="cls-2" d="M654.3,62.22V83h-2.75V62.22ZM657.16,83h-4.33l0-2.23h4.3a6.77,6.77,0,0,0,3.71-.94,5.74,5.74,0,0,0,2.23-2.62,9.63,9.63,0,0,0,.75-4V72a10.9,10.9,0,0,0-.43-3.17,6.52,6.52,0,0,0-1.25-2.35,5.36,5.36,0,0,0-2-1.46,6.85,6.85,0,0,0-2.73-.5h-4.67V62.22h4.67a9.89,9.89,0,0,1,3.72.67,8.16,8.16,0,0,1,2.9,2,8.72,8.72,0,0,1,1.87,3.08,11.76,11.76,0,0,1,.66,4.06v1.24a11.7,11.7,0,0,1-.66,4A8.39,8.39,0,0,1,664,80.34a8.26,8.26,0,0,1-3,2A10.63,10.63,0,0,1,657.16,83Z" transform="translate(0 -2.77)"/><path class="cls-2" d="M673.45,62.22V83H670.7V62.22Zm10.29,0v2.25H672.9V62.22Zm-1.31,8.92v2.23H672.9V71.14Zm1.45,9.59V83h-11V80.73Z" transform="translate(0 -2.77)"/><path class="cls-2" d="M698.35,77.72a3.71,3.71,0,0,0-.22-1.29,2.7,2.7,0,0,0-.77-1,6.62,6.62,0,0,0-1.51-.87,23.7,23.7,0,0,0-2.43-.84,19.82,19.82,0,0,1-2.78-1,9.13,9.13,0,0,1-2.13-1.29,5.18,5.18,0,0,1-1.35-1.66,4.83,4.83,0,0,1-.47-2.16,5.06,5.06,0,0,1,.5-2.23,5.23,5.23,0,0,1,1.43-1.79,6.79,6.79,0,0,1,2.23-1.19,9.09,9.09,0,0,1,2.89-.43,8.2,8.2,0,0,1,4,.89,6.36,6.36,0,0,1,2.49,2.32,5.9,5.9,0,0,1,.86,3.06h-2.74a4.23,4.23,0,0,0-.5-2.07,3.49,3.49,0,0,0-1.51-1.43,5.67,5.67,0,0,0-2.57-.52,5.88,5.88,0,0,0-2.42.44,3.27,3.27,0,0,0-1.42,1.2,3.31,3.31,0,0,0-.46,1.73,2.52,2.52,0,0,0,.28,1.19,3,3,0,0,0,.87,1,7,7,0,0,0,1.51.84,20.79,20.79,0,0,0,2.2.74,19,19,0,0,1,3.05,1.11,9.13,9.13,0,0,1,2.12,1.37,5,5,0,0,1,1.24,1.73,5.52,5.52,0,0,1,.4,2.17,5.11,5.11,0,0,1-.51,2.3,5,5,0,0,1-1.47,1.75,7.09,7.09,0,0,1-2.29,1.12,10.47,10.47,0,0,1-3,.39,10.08,10.08,0,0,1-2.83-.4,8.37,8.37,0,0,1-2.52-1.2,6.19,6.19,0,0,1-1.81-2A5.37,5.37,0,0,1,686,77h2.74a3.86,3.86,0,0,0,.41,1.83A3.63,3.63,0,0,0,690.32,80a4.91,4.91,0,0,0,1.64.74,8,8,0,0,0,1.91.23,6.53,6.53,0,0,0,2.44-.4,3.25,3.25,0,0,0,1.52-1.14A3,3,0,0,0,698.35,77.72Z" transform="translate(0 -2.77)"/><path class="cls-2" d="M223.4,96.84l-6.87,18.91h-2.81L221.63,95h1.81Zm5.4,11.23v2.25H217.14v-2.25Zm.35,7.68-6.88-18.91,0-1.84H224L232,115.75Z" transform="translate(0 -2.77)"/><path class="cls-2" d="M253.87,95h2.73v14a6.85,6.85,0,0,1-1,3.89,6.4,6.4,0,0,1-2.76,2.33,8.86,8.86,0,0,1-3.72.78,9.09,9.09,0,0,1-3.82-.78,6.16,6.16,0,0,1-2.69-2.33,7.09,7.09,0,0,1-1-3.89V95h2.72v14a5.37,5.37,0,0,0,.6,2.68,3.81,3.81,0,0,0,1.68,1.57,6.41,6.41,0,0,0,5,0,3.81,3.81,0,0,0,1.68-1.57,5.37,5.37,0,0,0,.6-2.68Z" transform="translate(0 -2.77)"/><path class="cls-2" d="M272,110.51a3.63,3.63,0,0,0-.22-1.29,2.56,2.56,0,0,0-.77-1,6.62,6.62,0,0,0-1.51-.87,19.68,19.68,0,0,0-2.43-.84,19.82,19.82,0,0,1-2.78-1,9.13,9.13,0,0,1-2.13-1.29,5.11,5.11,0,0,1-1.35-1.67,4.76,4.76,0,0,1-.47-2.15,5.11,5.11,0,0,1,.5-2.24,5.19,5.19,0,0,1,1.43-1.78,6.79,6.79,0,0,1,2.23-1.19,9.09,9.09,0,0,1,2.89-.43,8.2,8.2,0,0,1,4,.89,6.36,6.36,0,0,1,2.49,2.32,5.9,5.9,0,0,1,.86,3.06H272a4.29,4.29,0,0,0-.5-2.08,3.53,3.53,0,0,0-1.51-1.42,5.54,5.54,0,0,0-2.57-.52,5.88,5.88,0,0,0-2.42.44,3.2,3.2,0,0,0-1.42,1.2,3.3,3.3,0,0,0-.46,1.72,2.46,2.46,0,0,0,.28,1.19,2.86,2.86,0,0,0,.87,1,6.24,6.24,0,0,0,1.51.84,17,17,0,0,0,2.2.74,19.94,19.94,0,0,1,3.05,1.12,8.82,8.82,0,0,1,2.12,1.37,4.94,4.94,0,0,1,1.24,1.73,5.52,5.52,0,0,1,.4,2.17,5,5,0,0,1-.51,2.29,5,5,0,0,1-1.47,1.76,7.3,7.3,0,0,1-2.29,1.12,10.83,10.83,0,0,1-5.8,0,8.61,8.61,0,0,1-2.52-1.2,6.19,6.19,0,0,1-1.81-2,5.42,5.42,0,0,1-.68-2.73h2.74a3.86,3.86,0,0,0,.41,1.83,3.63,3.63,0,0,0,1.14,1.26,4.89,4.89,0,0,0,1.64.73,7.52,7.52,0,0,0,1.91.24,6.53,6.53,0,0,0,2.44-.4,3.39,3.39,0,0,0,1.52-1.14A3,3,0,0,0,272,110.51Z" transform="translate(0 -2.77)"/><path class="cls-2" d="M290.12,95h2.74v14a6.85,6.85,0,0,1-1,3.89,6.51,6.51,0,0,1-2.76,2.33,9.5,9.5,0,0,1-7.54,0,6.1,6.1,0,0,1-2.69-2.33,7,7,0,0,1-1-3.89V95h2.73v14a5.37,5.37,0,0,0,.6,2.68,3.73,3.73,0,0,0,1.67,1.57,5.78,5.78,0,0,0,2.5.51,5.84,5.84,0,0,0,2.52-.51,3.83,3.83,0,0,0,1.67-1.57,5.37,5.37,0,0,0,.6-2.68Z" transform="translate(0 -2.77)"/><path class="cls-2" d="M304.54,96.84l-6.87,18.91h-2.8L302.77,95h1.81Zm5.4,11.23v2.25H298.28v-2.25Zm.36,7.68-6.88-18.91L303.37,95h1.81l7.94,20.75Z" transform="translate(0 -2.77)"/><path class="cls-2" d="M315.9,95h6.87a9.68,9.68,0,0,1,4,.72,5.27,5.27,0,0,1,2.47,2.1,6.46,6.46,0,0,1,.85,3.41,5.87,5.87,0,0,1-.58,2.6,5.68,5.68,0,0,1-1.65,2,7.33,7.33,0,0,1-2.58,1.21l-.77.3H318l0-2.23h4.87a5.35,5.35,0,0,0,2.47-.52,3.6,3.6,0,0,0,1.48-1.41,3.93,3.93,0,0,0,.5-2,4.44,4.44,0,0,0-.47-2.09,3.16,3.16,0,0,0-1.47-1.39,5.89,5.89,0,0,0-2.59-.5h-4.12v18.5H315.9ZM328,115.75l-5-9.4,2.87,0,5.11,9.25v.17Z" transform="translate(0 -2.77)"/><path class="cls-2" d="M336.83,95v20.75h-2.75V95Z" transform="translate(0 -2.77)"/><path class="cls-2" d="M357.8,104.72V106a13.86,13.86,0,0,1-.59,4.19,9,9,0,0,1-1.68,3.15,7.18,7.18,0,0,1-2.63,2,8.24,8.24,0,0,1-3.43.69,8.13,8.13,0,0,1-3.37-.69,7.42,7.42,0,0,1-2.65-2,9.19,9.19,0,0,1-1.73-3.15,13.24,13.24,0,0,1-.61-4.19v-1.31a13.48,13.48,0,0,1,.6-4.18,9.37,9.37,0,0,1,1.72-3.15,7.39,7.39,0,0,1,2.65-2,8.25,8.25,0,0,1,3.37-.68,8.39,8.39,0,0,1,3.42.68,7.44,7.44,0,0,1,2.64,2,9.15,9.15,0,0,1,1.69,3.15A13.48,13.48,0,0,1,357.8,104.72ZM355.08,106v-1.34a12.88,12.88,0,0,0-.38-3.27,6.83,6.83,0,0,0-1.11-2.4,4.82,4.82,0,0,0-1.77-1.47,5.49,5.49,0,0,0-2.37-.49,5.3,5.3,0,0,0-2.32.49A5,5,0,0,0,345.36,99a7.22,7.22,0,0,0-1.13,2.4,12,12,0,0,0-.4,3.27V106a12.12,12.12,0,0,0,.4,3.3,7,7,0,0,0,1.15,2.41,5,5,0,0,0,1.78,1.48,5.28,5.28,0,0,0,2.31.49,5.44,5.44,0,0,0,2.38-.49,4.72,4.72,0,0,0,1.76-1.48,6.78,6.78,0,0,0,1.09-2.41A13,13,0,0,0,355.08,106Z" transform="translate(0 -2.77)"/><path class="cls-2" d="M373,110.51a3.42,3.42,0,0,0-.22-1.29,2.56,2.56,0,0,0-.77-1,6.62,6.62,0,0,0-1.51-.87,19.68,19.68,0,0,0-2.43-.84,20.29,20.29,0,0,1-2.78-1,8.86,8.86,0,0,1-2.12-1.29,5.14,5.14,0,0,1-1.36-1.67,4.76,4.76,0,0,1-.47-2.15,5.11,5.11,0,0,1,.5-2.24,5.19,5.19,0,0,1,1.43-1.78,6.9,6.9,0,0,1,2.23-1.19,9.11,9.11,0,0,1,2.9-.43,8.26,8.26,0,0,1,4,.89,6.4,6.4,0,0,1,2.48,2.32,5.9,5.9,0,0,1,.86,3.06h-2.74a4.29,4.29,0,0,0-.5-2.08,3.47,3.47,0,0,0-1.51-1.42,5.53,5.53,0,0,0-2.56-.52,5.9,5.9,0,0,0-2.43.44,3.12,3.12,0,0,0-1.41,1.2,3.22,3.22,0,0,0-.47,1.72,2.58,2.58,0,0,0,.28,1.19,3.08,3.08,0,0,0,.87,1,6.24,6.24,0,0,0,1.51.84,17,17,0,0,0,2.2.74,19.56,19.56,0,0,1,3,1.12,8.62,8.62,0,0,1,2.12,1.37,4.94,4.94,0,0,1,1.24,1.73,5.52,5.52,0,0,1,.4,2.17,5,5,0,0,1-.51,2.29,5,5,0,0,1-1.47,1.76,7.25,7.25,0,0,1-2.28,1.12,10.6,10.6,0,0,1-3,.39,10.33,10.33,0,0,1-2.82-.4,8.55,8.55,0,0,1-2.53-1.2,6.19,6.19,0,0,1-1.81-2,5.42,5.42,0,0,1-.67-2.73h2.73a3.75,3.75,0,0,0,.42,1.83,3.5,3.5,0,0,0,1.13,1.26,4.89,4.89,0,0,0,1.64.73,7.52,7.52,0,0,0,1.91.24,6.49,6.49,0,0,0,2.44-.4,3.33,3.33,0,0,0,1.52-1.14A2.94,2.94,0,0,0,373,110.51Z" transform="translate(0 -2.77)"/><path class="cls-2" d="M387.42,95l5.39,10.42L398.21,95h3.12l-7.15,13v7.75h-2.75V108l-7.16-13Z" transform="translate(0 -2.77)"/><path class="cls-2" d="M418.92,96.84l-6.87,18.91h-2.81L417.15,95H419Zm5.4,11.23v2.25H412.66v-2.25Zm.36,7.68-6.89-18.91,0-1.84h1.81l7.94,20.75Z" transform="translate(0 -2.77)"/><path class="cls-2" d="M442.65,109.15h2.73a8.73,8.73,0,0,1-1.12,3.52,6.51,6.51,0,0,1-2.58,2.46,8.56,8.56,0,0,1-4.16.91,7.83,7.83,0,0,1-3.32-.69,7.35,7.35,0,0,1-2.56-1.94,8.79,8.79,0,0,1-1.64-3,12.56,12.56,0,0,1-.58-4v-2.07a12.56,12.56,0,0,1,.58-3.95,8.65,8.65,0,0,1,1.67-3.05,7.44,7.44,0,0,1,2.62-1.95,8.59,8.59,0,0,1,3.47-.68,8.18,8.18,0,0,1,4,.88,6.35,6.35,0,0,1,2.53,2.45,8.8,8.8,0,0,1,1.12,3.61h-2.73a7.66,7.66,0,0,0-.75-2.5,3.86,3.86,0,0,0-1.53-1.62,5.26,5.26,0,0,0-2.61-.57,5.37,5.37,0,0,0-2.43.53A4.83,4.83,0,0,0,433.58,99a6.76,6.76,0,0,0-1.07,2.33,12.11,12.11,0,0,0-.35,3v2.1a11.94,11.94,0,0,0,.32,2.86,7.44,7.44,0,0,0,1,2.35,4.78,4.78,0,0,0,1.67,1.59,4.71,4.71,0,0,0,2.4.58,6,6,0,0,0,2.79-.56,3.65,3.65,0,0,0,1.57-1.59A8.45,8.45,0,0,0,442.65,109.15Z" transform="translate(0 -2.77)"/><path class="cls-2" d="M463,95v2.25H447V95Zm-6.67,0v20.75h-2.71V95Z" transform="translate(0 -2.77)"/><path class="cls-2" d="M481.69,104.72V106a13.87,13.87,0,0,1-.58,4.19,9,9,0,0,1-1.68,3.15,7.18,7.18,0,0,1-2.63,2,8.27,8.27,0,0,1-3.43.69,8.13,8.13,0,0,1-3.37-.69,7.42,7.42,0,0,1-2.65-2,9,9,0,0,1-1.73-3.15A13.24,13.24,0,0,1,465,106v-1.31a13.48,13.48,0,0,1,.6-4.18,9.2,9.2,0,0,1,1.72-3.15,7.44,7.44,0,0,1,2.64-2,8.28,8.28,0,0,1,3.37-.68,8.4,8.4,0,0,1,3.43.68,7.44,7.44,0,0,1,2.64,2,9.15,9.15,0,0,1,1.69,3.15A13.49,13.49,0,0,1,481.69,104.72ZM479,106v-1.34a12.88,12.88,0,0,0-.38-3.27,7,7,0,0,0-1.1-2.4,4.93,4.93,0,0,0-1.78-1.47,5.43,5.43,0,0,0-2.37-.49,5.25,5.25,0,0,0-2.31.49A5,5,0,0,0,469.26,99a7,7,0,0,0-1.13,2.4,12,12,0,0,0-.4,3.27V106a12.12,12.12,0,0,0,.4,3.3,6.83,6.83,0,0,0,1.14,2.41,5.12,5.12,0,0,0,1.78,1.48,5.33,5.33,0,0,0,2.32.49,5.47,5.47,0,0,0,2.38-.49,4.8,4.8,0,0,0,1.76-1.48,7,7,0,0,0,1.09-2.41A13,13,0,0,0,479,106Z" transform="translate(0 -2.77)"/><path class="cls-2" d="M485.8,95h6.87a9.71,9.71,0,0,1,3.95.72,5.27,5.27,0,0,1,2.47,2.1,6.46,6.46,0,0,1,.84,3.41,5.87,5.87,0,0,1-.57,2.6,5.61,5.61,0,0,1-1.66,2,7.2,7.2,0,0,1-2.57,1.21l-.77.3h-6.45l0-2.23h4.87a5.35,5.35,0,0,0,2.47-.52,3.6,3.6,0,0,0,1.48-1.41,3.93,3.93,0,0,0,.5-2,4.44,4.44,0,0,0-.47-2.09,3.18,3.18,0,0,0-1.48-1.39,5.84,5.84,0,0,0-2.58-.5h-4.12v18.5H485.8Zm12.12,20.75-5-9.4,2.86,0,5.12,9.25v.17Z" transform="translate(0 -2.77)"/><path class="cls-2" d="M506.53,95v20.75h-2.75V95Zm10.29,0v2.25H506V95Zm-1.31,8.92v2.24H506v-2.24Zm1.45,9.59v2.24H506v-2.24Z" transform="translate(0 -2.77)"/><path class="cls-2" d="M531.43,110.51a3.42,3.42,0,0,0-.22-1.29,2.56,2.56,0,0,0-.77-1,6.62,6.62,0,0,0-1.51-.87,19.68,19.68,0,0,0-2.43-.84,20.29,20.29,0,0,1-2.78-1,8.86,8.86,0,0,1-2.12-1.29,5.14,5.14,0,0,1-1.36-1.67,4.76,4.76,0,0,1-.47-2.15,5.11,5.11,0,0,1,.5-2.24,5.19,5.19,0,0,1,1.43-1.78,6.9,6.9,0,0,1,2.23-1.19,9.11,9.11,0,0,1,2.9-.43,8.19,8.19,0,0,1,4,.89,6.36,6.36,0,0,1,2.49,2.32,5.9,5.9,0,0,1,.86,3.06H531.4a4.29,4.29,0,0,0-.5-2.08,3.47,3.47,0,0,0-1.51-1.42,5.53,5.53,0,0,0-2.56-.52,5.9,5.9,0,0,0-2.43.44,3.12,3.12,0,0,0-1.41,1.2,3.22,3.22,0,0,0-.47,1.72,2.58,2.58,0,0,0,.28,1.19,3.08,3.08,0,0,0,.87,1,6.24,6.24,0,0,0,1.51.84,17,17,0,0,0,2.2.74,19.56,19.56,0,0,1,3,1.12,8.62,8.62,0,0,1,2.12,1.37,4.94,4.94,0,0,1,1.24,1.73,5.52,5.52,0,0,1,.4,2.17,5,5,0,0,1-.51,2.29,5,5,0,0,1-1.47,1.76,7.25,7.25,0,0,1-2.28,1.12,10.6,10.6,0,0,1-3,.39,10.46,10.46,0,0,1-2.83-.4,8.61,8.61,0,0,1-2.52-1.2,6.19,6.19,0,0,1-1.81-2,5.42,5.42,0,0,1-.67-2.73h2.73a3.75,3.75,0,0,0,.42,1.83,3.5,3.5,0,0,0,1.13,1.26,4.89,4.89,0,0,0,1.64.73,7.52,7.52,0,0,0,1.91.24,6.49,6.49,0,0,0,2.44-.4,3.33,3.33,0,0,0,1.52-1.14A2.94,2.94,0,0,0,531.43,110.51Z" transform="translate(0 -2.77)"/><path class="cls-2" d="M547.89,95v20.75h-2.75V95Z" transform="translate(0 -2.77)"/><path class="cls-2" d="M568.84,95v20.75h-2.77l-10.44-16v16h-2.75V95h2.75l10.49,16V95Z" transform="translate(0 -2.77)"/><path class="cls-2" d="M574.68,95l6.06,17.6.75,3.15h-2.12L571.7,95Zm5.71,17.6L586.51,95h3l-7.68,20.75h-2.13Z" transform="translate(0 -2.77)"/><path class="cls-2" d="M608.07,104.72V106a13.86,13.86,0,0,1-.59,4.19,9,9,0,0,1-1.68,3.15,7.1,7.1,0,0,1-2.63,2,8.23,8.23,0,0,1-3.42.69,8.09,8.09,0,0,1-3.37-.69,7.25,7.25,0,0,1-2.65-2,9,9,0,0,1-1.74-3.15,13.53,13.53,0,0,1-.61-4.19v-1.31a13.18,13.18,0,0,1,.61-4.18,9.18,9.18,0,0,1,1.71-3.15,7.56,7.56,0,0,1,2.65-2,8.25,8.25,0,0,1,3.37-.68,8.47,8.47,0,0,1,3.43.68,7.32,7.32,0,0,1,2.63,2,9.16,9.16,0,0,1,1.7,3.15A13.79,13.79,0,0,1,608.07,104.72ZM605.35,106v-1.34a12.88,12.88,0,0,0-.38-3.27,7,7,0,0,0-1.1-2.4,4.93,4.93,0,0,0-1.78-1.47,5.49,5.49,0,0,0-2.37-.49,5.3,5.3,0,0,0-2.32.49A4.87,4.87,0,0,0,595.64,99a7.23,7.23,0,0,0-1.14,2.4,12.4,12.4,0,0,0-.4,3.27V106a12.53,12.53,0,0,0,.4,3.3,7,7,0,0,0,1.15,2.41,5,5,0,0,0,1.78,1.48,5.3,5.3,0,0,0,2.32.49,5.5,5.5,0,0,0,2.38-.49,4.8,4.8,0,0,0,1.76-1.48,7,7,0,0,0,1.09-2.41A13.52,13.52,0,0,0,605.35,106Z" transform="translate(0 -2.77)"/><path class="cls-2" d="M614.92,95v20.75h-2.75V95Zm9.84,18.51v2.24H614.38v-2.24Z" transform="translate(0 -2.77)"/><path class="cls-2" d="M639,95h2.74v14a6.85,6.85,0,0,1-1,3.89,6.45,6.45,0,0,1-2.76,2.33,8.9,8.9,0,0,1-3.73.78,9.08,9.08,0,0,1-3.81-.78,6.16,6.16,0,0,1-2.69-2.33,7.09,7.09,0,0,1-1-3.89V95h2.72v14a5.37,5.37,0,0,0,.6,2.68,3.83,3.83,0,0,0,1.67,1.57,5.78,5.78,0,0,0,2.5.51,5.84,5.84,0,0,0,2.52-.51,3.73,3.73,0,0,0,1.67-1.57A5.37,5.37,0,0,0,639,109Z" transform="translate(0 -2.77)"/><path class="cls-2" d="M658.57,109.15h2.74a8.59,8.59,0,0,1-1.13,3.52,6.42,6.42,0,0,1-2.57,2.46,8.61,8.61,0,0,1-4.17.91,7.78,7.78,0,0,1-3.31-.69,7.26,7.26,0,0,1-2.56-1.94,8.79,8.79,0,0,1-1.64-3,12.56,12.56,0,0,1-.58-4v-2.07a12.56,12.56,0,0,1,.58-3.95,8.79,8.79,0,0,1,1.66-3.05,7.57,7.57,0,0,1,2.63-1.95,8.56,8.56,0,0,1,3.47-.68,8.2,8.2,0,0,1,4,.88,6.41,6.41,0,0,1,2.53,2.45,9,9,0,0,1,1.12,3.61h-2.74a7.66,7.66,0,0,0-.74-2.5,3.82,3.82,0,0,0-1.54-1.62,5.19,5.19,0,0,0-2.6-.57,5.31,5.31,0,0,0-2.43.53A4.86,4.86,0,0,0,649.5,99a6.94,6.94,0,0,0-1.06,2.33,11.65,11.65,0,0,0-.35,3v2.1a11.94,11.94,0,0,0,.32,2.86,7.44,7.44,0,0,0,1,2.35,4.61,4.61,0,0,0,4.06,2.17,6,6,0,0,0,2.8-.56,3.65,3.65,0,0,0,1.57-1.59A8.17,8.17,0,0,0,658.57,109.15Z" transform="translate(0 -2.77)"/><path class="cls-2" d="M665,95h6.87a9.73,9.73,0,0,1,4,.72,5.2,5.2,0,0,1,2.46,2.1,6.37,6.37,0,0,1,.85,3.41,5.74,5.74,0,0,1-.58,2.6,5.48,5.48,0,0,1-1.65,2,7.28,7.28,0,0,1-2.57,1.21l-.77.3h-6.46l0-2.23H672a5.27,5.27,0,0,0,2.46-.52,3.63,3.63,0,0,0,1.49-1.41,3.92,3.92,0,0,0,.49-2,4.33,4.33,0,0,0-.47-2.09,3.11,3.11,0,0,0-1.47-1.39,5.86,5.86,0,0,0-2.59-.5h-4.12v18.5H665Zm12.13,20.75-5-9.4,2.86,0,5.12,9.25v.17Z" transform="translate(0 -2.77)"/><path class="cls-2" d="M690.71,96.84l-6.87,18.91H681L688.94,95h1.81Zm5.4,11.23v2.25H684.45v-2.25Zm.36,7.68-6.89-18.91,0-1.84h1.81l7.94,20.75Z" transform="translate(0 -2.77)"/><path class="cls-2" d="M704.82,95v20.75h-2.75V95Zm2.86,20.75h-4.33l0-2.24h4.3a6.88,6.88,0,0,0,3.71-.93,5.74,5.74,0,0,0,2.23-2.62,9.68,9.68,0,0,0,.75-4v-1.26a10.9,10.9,0,0,0-.43-3.17,6.51,6.51,0,0,0-1.26-2.36,5.43,5.43,0,0,0-2-1.46,7.11,7.11,0,0,0-2.73-.5h-4.68V95h4.68a9.89,9.89,0,0,1,3.72.68,8.16,8.16,0,0,1,2.9,1.95,8.78,8.78,0,0,1,1.87,3.08,11.7,11.7,0,0,1,.66,4.05V106a11.72,11.72,0,0,1-.66,4.06,8.5,8.5,0,0,1-1.89,3.07,8.35,8.35,0,0,1-3,2A10.63,10.63,0,0,1,707.68,115.75Z" transform="translate(0 -2.77)"/><path class="cls-2" d="M737.2,104.72V106a13.86,13.86,0,0,1-.59,4.19,9,9,0,0,1-1.68,3.15,7.18,7.18,0,0,1-2.63,2,8.24,8.24,0,0,1-3.43.69,8.13,8.13,0,0,1-3.37-.69,7.42,7.42,0,0,1-2.65-2,9.19,9.19,0,0,1-1.73-3.15,13.24,13.24,0,0,1-.61-4.19v-1.31a13.48,13.48,0,0,1,.6-4.18,9.37,9.37,0,0,1,1.72-3.15,7.44,7.44,0,0,1,2.64-2,8.32,8.32,0,0,1,3.37-.68,8.4,8.4,0,0,1,3.43.68,7.44,7.44,0,0,1,2.64,2,9.15,9.15,0,0,1,1.69,3.15A13.48,13.48,0,0,1,737.2,104.72ZM734.47,106v-1.34a12.91,12.91,0,0,0-.37-3.27A7,7,0,0,0,733,99a4.82,4.82,0,0,0-1.77-1.47,5.5,5.5,0,0,0-2.38-.49,5.28,5.28,0,0,0-2.31.49A5,5,0,0,0,724.76,99a7.22,7.22,0,0,0-1.13,2.4,12,12,0,0,0-.4,3.27V106a12.12,12.12,0,0,0,.4,3.3,7,7,0,0,0,1.15,2.41,5,5,0,0,0,1.78,1.48,5.28,5.28,0,0,0,2.31.49,5.44,5.44,0,0,0,2.38-.49,4.72,4.72,0,0,0,1.76-1.48,6.78,6.78,0,0,0,1.09-2.41A13,13,0,0,0,734.47,106Z" transform="translate(0 -2.77)"/><path class="cls-2" d="M752.36,110.51a3.63,3.63,0,0,0-.22-1.29,2.56,2.56,0,0,0-.77-1,6.62,6.62,0,0,0-1.51-.87,19.68,19.68,0,0,0-2.43-.84,20.29,20.29,0,0,1-2.78-1,8.86,8.86,0,0,1-2.12-1.29,5.14,5.14,0,0,1-1.36-1.67,4.76,4.76,0,0,1-.47-2.15,5.11,5.11,0,0,1,.5-2.24,5.19,5.19,0,0,1,1.43-1.78,6.79,6.79,0,0,1,2.23-1.19,9.11,9.11,0,0,1,2.9-.43,8.19,8.19,0,0,1,4,.89,6.36,6.36,0,0,1,2.49,2.32,5.9,5.9,0,0,1,.86,3.06h-2.74a4.29,4.29,0,0,0-.5-2.08,3.53,3.53,0,0,0-1.51-1.42,5.53,5.53,0,0,0-2.56-.52,5.9,5.9,0,0,0-2.43.44,3.2,3.2,0,0,0-1.42,1.2,3.3,3.3,0,0,0-.46,1.72,2.46,2.46,0,0,0,.28,1.19,2.86,2.86,0,0,0,.87,1,6.24,6.24,0,0,0,1.51.84,17,17,0,0,0,2.2.74,19.56,19.56,0,0,1,3.05,1.12,8.62,8.62,0,0,1,2.12,1.37,4.94,4.94,0,0,1,1.24,1.73,5.52,5.52,0,0,1,.4,2.17,5,5,0,0,1-.51,2.29,5,5,0,0,1-1.47,1.76,7.25,7.25,0,0,1-2.28,1.12,10.6,10.6,0,0,1-3,.39,10.46,10.46,0,0,1-2.83-.4,8.61,8.61,0,0,1-2.52-1.2,6.19,6.19,0,0,1-1.81-2,5.42,5.42,0,0,1-.67-2.73h2.73a3.75,3.75,0,0,0,.42,1.83,3.5,3.5,0,0,0,1.13,1.26,4.89,4.89,0,0,0,1.64.73,7.52,7.52,0,0,0,1.91.24,6.49,6.49,0,0,0,2.44-.4,3.33,3.33,0,0,0,1.52-1.14A2.94,2.94,0,0,0,752.36,110.51Z" transform="translate(0 -2.77)"/><path class="cls-4" d="M88.44,341.07v25.77a40.29,40.29,0,0,0,40.29,40.3h704.6a40.3,40.3,0,0,0,40.3-40.3V341.07" transform="translate(0 -2.77)"/><path class="cls-5" d="M58.7,259.72v1.69H46.62v-1.69Zm-5,0v15.62h-2V259.72Z" transform="translate(0 -2.77)"/><path class="cls-5" d="M70,259.72H72v10.57a5.18,5.18,0,0,1-.79,2.93A4.83,4.83,0,0,1,69.16,275a7.13,7.13,0,0,1-5.68,0,4.61,4.61,0,0,1-2-1.75,5.34,5.34,0,0,1-.75-2.93V259.72h2v10.57a4.08,4.08,0,0,0,.46,2,2.82,2.82,0,0,0,1.26,1.18,4.41,4.41,0,0,0,1.88.38,4.46,4.46,0,0,0,1.89-.38,2.89,2.89,0,0,0,1.27-1.18,4.08,4.08,0,0,0,.45-2Z" transform="translate(0 -2.77)"/><path class="cls-5" d="M75.27,259.72h5.17a7.53,7.53,0,0,1,3,.53,4,4,0,0,1,1.86,1.59,4.87,4.87,0,0,1,.63,2.57,4.4,4.4,0,0,1-.43,2,4.19,4.19,0,0,1-1.25,1.5,5.49,5.49,0,0,1-1.93.92l-.58.22H76.86l0-1.68H80.5a3.82,3.82,0,0,0,1.86-.4,2.71,2.71,0,0,0,1.12-1.05,3,3,0,0,0,.37-1.47,3.32,3.32,0,0,0-.35-1.58,2.46,2.46,0,0,0-1.11-1.05,4.58,4.58,0,0,0-2-.37h-3.1v13.93H75.27Zm9.13,15.62-3.8-7.08h2.16l3.85,7v.13Z" transform="translate(0 -2.77)"/><path class="cls-5" d="M91,259.72v15.62H89V259.72Z" transform="translate(0 -2.77)"/><path class="cls-5" d="M103.12,271.39a2.7,2.7,0,0,0-.17-1,1.8,1.8,0,0,0-.58-.76,4.7,4.7,0,0,0-1.14-.66,14.64,14.64,0,0,0-1.83-.63,16.73,16.73,0,0,1-2.09-.77,7.23,7.23,0,0,1-1.6-1,3.94,3.94,0,0,1-1-1.26,3.51,3.51,0,0,1-.35-1.62,3.79,3.79,0,0,1,.37-1.68,3.89,3.89,0,0,1,1.08-1.35,5.18,5.18,0,0,1,1.68-.89,6.79,6.79,0,0,1,2.18-.33,6.26,6.26,0,0,1,3,.67,4.8,4.8,0,0,1,1.87,1.75,4.44,4.44,0,0,1,.65,2.31h-2.07a3.22,3.22,0,0,0-.37-1.57,2.63,2.63,0,0,0-1.14-1.07,4.22,4.22,0,0,0-1.93-.39,4.32,4.32,0,0,0-1.82.33,2.35,2.35,0,0,0-1.07.9,2.48,2.48,0,0,0-.35,1.3,1.93,1.93,0,0,0,.21.9,2.34,2.34,0,0,0,.65.74,5.44,5.44,0,0,0,1.14.64,12.89,12.89,0,0,0,1.66.55,15.27,15.27,0,0,1,2.29.84,6.32,6.32,0,0,1,1.6,1,3.55,3.55,0,0,1,.93,1.3,4,4,0,0,1,.31,1.63,3.79,3.79,0,0,1-.39,1.73,3.68,3.68,0,0,1-1.1,1.32,5.26,5.26,0,0,1-1.73.84,7.76,7.76,0,0,1-2.23.3,7.61,7.61,0,0,1-2.13-.3,6.17,6.17,0,0,1-1.9-.9,4.64,4.64,0,0,1-1.37-1.49,4.06,4.06,0,0,1-.51-2.06H95.9a2.82,2.82,0,0,0,.32,1.38,2.59,2.59,0,0,0,.85.95,3.84,3.84,0,0,0,1.23.56,6.19,6.19,0,0,0,1.45.17,4.94,4.94,0,0,0,1.83-.3,2.41,2.41,0,0,0,1.14-.86A2.18,2.18,0,0,0,103.12,271.39Z" transform="translate(0 -2.77)"/><path class="cls-5" d="M118.63,259.72v1.69H106.56v-1.69Zm-5,0v15.62h-2V259.72Z" transform="translate(0 -2.77)"/><path class="cls-5" d="M125.89,261.1l-5.17,14.24H118.6l6-15.62h1.36Zm4.07,8.46v1.69h-8.78v-1.69Zm.26,5.78L125,261.1l0-1.38h1.36l6,15.62Z" transform="translate(0 -2.77)"/><path class="cls-5" d="M336.19,267.56v5.72a4.69,4.69,0,0,1-.92,1,5.63,5.63,0,0,1-1.74.93,8.87,8.87,0,0,1-2.87.39,6.79,6.79,0,0,1-2.62-.5A5.7,5.7,0,0,1,326,273.6a6.72,6.72,0,0,1-1.35-2.34,9.48,9.48,0,0,1-.48-3.13v-1.21a11,11,0,0,1,.41-3.12,6.67,6.67,0,0,1,1.22-2.34,5.22,5.22,0,0,1,2-1.46,6.81,6.81,0,0,1,2.68-.5,6.6,6.6,0,0,1,3,.62,4.79,4.79,0,0,1,1.89,1.7,6.27,6.27,0,0,1,.87,2.47h-2.07a4.48,4.48,0,0,0-.55-1.55,3.18,3.18,0,0,0-1.18-1.12,4,4,0,0,0-2-.42,4.1,4.1,0,0,0-1.88.4,3.4,3.4,0,0,0-1.31,1.13,5.38,5.38,0,0,0-.77,1.8,10.64,10.64,0,0,0-.25,2.37v1.23a8.54,8.54,0,0,0,.32,2.42,5.17,5.17,0,0,0,.91,1.8,3.87,3.87,0,0,0,1.41,1.14,4.29,4.29,0,0,0,1.82.38,7.31,7.31,0,0,0,1.79-.18,3.6,3.6,0,0,0,1.07-.46,3.18,3.18,0,0,0,.59-.49v-3.5h-3.62v-1.68Z" transform="translate(0 -2.77)"/><path class="cls-5" d="M348.55,259.72h2.07v10.57a5.18,5.18,0,0,1-.79,2.93,4.8,4.8,0,0,1-2.08,1.75,6.69,6.69,0,0,1-2.8.59,6.82,6.82,0,0,1-2.87-.59,4.61,4.61,0,0,1-2-1.75,5.34,5.34,0,0,1-.75-2.93V259.72h2.05v10.57a4.08,4.08,0,0,0,.45,2,2.89,2.89,0,0,0,1.27,1.18,4.41,4.41,0,0,0,1.88.38,4.46,4.46,0,0,0,1.89-.38,2.82,2.82,0,0,0,1.26-1.18,4.08,4.08,0,0,0,.45-2Z" transform="translate(0 -2.77)"/><path class="cls-5" d="M354,258.56,356,255.4h2.4l-2.88,3.16Zm2.14,1.16v15.62H354V259.72Z" transform="translate(0 -2.77)"/><path class="cls-5" d="M365.82,261.1l-5.17,14.24h-2.12l6-15.62h1.36Zm4.07,8.46v1.69h-8.78v-1.69Zm.27,5.78L365,261.1l0-1.38h1.36l6,15.62Z" transform="translate(0 -2.77)"/><path class="cls-5" d="M561.9,270.37H564a6.37,6.37,0,0,1-.85,2.65,4.9,4.9,0,0,1-1.94,1.86,6.56,6.56,0,0,1-3.13.68,5.83,5.83,0,0,1-2.5-.52,5.48,5.48,0,0,1-1.92-1.46,6.73,6.73,0,0,1-1.24-2.29,9.57,9.57,0,0,1-.44-3v-1.55a9.57,9.57,0,0,1,.44-3,6.75,6.75,0,0,1,1.25-2.29,5.52,5.52,0,0,1,2-1.47,6.43,6.43,0,0,1,2.61-.52,6.2,6.2,0,0,1,3,.67,4.77,4.77,0,0,1,1.91,1.84,6.69,6.69,0,0,1,.84,2.72H561.9a5.54,5.54,0,0,0-.56-1.88,2.79,2.79,0,0,0-1.16-1.22,3.87,3.87,0,0,0-2-.43,4,4,0,0,0-1.83.4,3.73,3.73,0,0,0-1.32,1.12,5.32,5.32,0,0,0-.8,1.75,8.89,8.89,0,0,0-.27,2.27v1.57a9.28,9.28,0,0,0,.24,2.16,5.89,5.89,0,0,0,.74,1.77,3.61,3.61,0,0,0,1.26,1.2,3.53,3.53,0,0,0,1.8.43,4.45,4.45,0,0,0,2.1-.42,2.76,2.76,0,0,0,1.19-1.2A6,6,0,0,0,561.9,270.37Z" transform="translate(0 -2.77)"/><path class="cls-5" d="M578.8,267v1a10.27,10.27,0,0,1-.44,3.16,6.71,6.71,0,0,1-1.26,2.37,5.46,5.46,0,0,1-2,1.49,6.16,6.16,0,0,1-2.58.52A6,6,0,0,1,570,275a5.61,5.61,0,0,1-2-1.49,6.94,6.94,0,0,1-1.3-2.37,10,10,0,0,1-.46-3.16v-1a10.15,10.15,0,0,1,.45-3.15,6.94,6.94,0,0,1,1.3-2.37,5.41,5.41,0,0,1,2-1.5,6.19,6.19,0,0,1,2.53-.52,6.34,6.34,0,0,1,2.59.52,5.37,5.37,0,0,1,2,1.5,6.74,6.74,0,0,1,1.28,2.37A10.16,10.16,0,0,1,578.8,267Zm-2,1v-1a9.65,9.65,0,0,0-.28-2.47,5.31,5.31,0,0,0-.83-1.81,3.64,3.64,0,0,0-1.34-1.1,4.09,4.09,0,0,0-1.79-.38,4,4,0,0,0-1.74.38,3.69,3.69,0,0,0-1.33,1.1,5.33,5.33,0,0,0-.85,1.81,9.18,9.18,0,0,0-.3,2.47v1a9.33,9.33,0,0,0,.3,2.49,5.34,5.34,0,0,0,.86,1.81,3.73,3.73,0,0,0,1.34,1.11,4,4,0,0,0,1.75.38,4.09,4.09,0,0,0,1.79-.38,3.51,3.51,0,0,0,1.32-1.11,5.12,5.12,0,0,0,.82-1.81A9.81,9.81,0,0,0,576.75,268Z" transform="translate(0 -2.77)"/><path class="cls-5" d="M581.89,259.72h1.77l.29,9.53v6.09h-2.06Zm.66,0h2l5.11,12.74,5.11-12.74h2l-6.35,15.62h-1.57Zm13.12,0h1.77v15.62h-2.06v-6.09Z" transform="translate(0 -2.77)"/><path class="cls-5" d="M610,259.72h2.06v10.57a5.18,5.18,0,0,1-.78,2.93,4.86,4.86,0,0,1-2.08,1.75,6.69,6.69,0,0,1-2.8.59,6.82,6.82,0,0,1-2.87-.59,4.56,4.56,0,0,1-2-1.75,5.34,5.34,0,0,1-.75-2.93V259.72h2.05v10.57a4.08,4.08,0,0,0,.45,2,2.82,2.82,0,0,0,1.26,1.18,4.89,4.89,0,0,0,3.78,0,2.82,2.82,0,0,0,1.26-1.18,4.08,4.08,0,0,0,.45-2Z" transform="translate(0 -2.77)"/><path class="cls-5" d="M627.35,259.72v15.62h-2.08l-7.86-12v12h-2.08V259.72h2.08l7.89,12.08V259.72Z" transform="translate(0 -2.77)"/><path class="cls-5" d="M633.23,259.72v15.62h-2.07V259.72Z" transform="translate(0 -2.77)"/><path class="cls-5" d="M639.06,259.72v15.62H637V259.72Zm2.16,15.62H638l0-1.68h3.24A5.25,5.25,0,0,0,644,273a4.42,4.42,0,0,0,1.68-2,7.4,7.4,0,0,0,.56-3v-.95a8.28,8.28,0,0,0-.32-2.39,5,5,0,0,0-.94-1.77,4.16,4.16,0,0,0-1.52-1.1,5.33,5.33,0,0,0-2.06-.38h-3.52v-1.69h3.52a7.42,7.42,0,0,1,2.8.51,6.22,6.22,0,0,1,2.19,1.47,6.54,6.54,0,0,1,1.41,2.32,8.83,8.83,0,0,1,.49,3.05V268a8.93,8.93,0,0,1-.49,3.06,6.61,6.61,0,0,1-1.42,2.31,6.22,6.22,0,0,1-2.24,1.46A8,8,0,0,1,641.22,275.34Z" transform="translate(0 -2.77)"/><path class="cls-5" d="M657,261.1l-5.17,14.24h-2.11l5.95-15.62H657Zm4.07,8.46v1.69h-8.78v-1.69Zm.27,5.78-5.19-14.24,0-1.38h1.37l6,15.62Z" transform="translate(0 -2.77)"/><path class="cls-5" d="M667.6,259.72v15.62h-2.07V259.72Zm2.15,15.62h-3.26l0-1.68h3.24a5.2,5.2,0,0,0,2.79-.7,4.3,4.3,0,0,0,1.68-2,7.23,7.23,0,0,0,.57-3v-.95a7.94,7.94,0,0,0-.33-2.39,4.69,4.69,0,0,0-.94-1.77,4,4,0,0,0-1.52-1.1,5.28,5.28,0,0,0-2-.38h-3.52v-1.69H670a7.46,7.46,0,0,1,2.8.51,6.18,6.18,0,0,1,2.18,1.47,6.54,6.54,0,0,1,1.41,2.32,8.83,8.83,0,0,1,.5,3.05V268a8.93,8.93,0,0,1-.5,3.06,6.47,6.47,0,0,1-1.42,2.31,6.18,6.18,0,0,1-2.23,1.46A8,8,0,0,1,669.75,275.34Z" transform="translate(0 -2.77)"/><path class="cls-5" d="M801.49,259.72v15.62h-2.07V259.72Z" transform="translate(0 -2.77)"/><path class="cls-5" d="M817.27,259.72v15.62h-2.08l-7.87-12v12h-2.07V259.72h2.07l7.9,12.08V259.72Z" transform="translate(0 -2.77)"/><path class="cls-5" d="M829.26,271.39a2.7,2.7,0,0,0-.17-1,1.89,1.89,0,0,0-.58-.76,4.7,4.7,0,0,0-1.14-.66,14.64,14.64,0,0,0-1.83-.63,16.73,16.73,0,0,1-2.09-.77,7.23,7.23,0,0,1-1.6-1,3.94,3.94,0,0,1-1-1.26,3.51,3.51,0,0,1-.35-1.62,3.79,3.79,0,0,1,.37-1.68,3.89,3.89,0,0,1,1.08-1.35,5.18,5.18,0,0,1,1.68-.89,6.79,6.79,0,0,1,2.18-.33,6.26,6.26,0,0,1,3,.67,4.8,4.8,0,0,1,1.87,1.75,4.42,4.42,0,0,1,.64,2.31h-2.06a3.22,3.22,0,0,0-.37-1.57,2.63,2.63,0,0,0-1.14-1.07,4.22,4.22,0,0,0-1.93-.39,4.4,4.4,0,0,0-1.83.33,2.3,2.3,0,0,0-1.41,2.2,1.93,1.93,0,0,0,.21.9,2.34,2.34,0,0,0,.65.74,5.44,5.44,0,0,0,1.14.64,12.89,12.89,0,0,0,1.66.55,15.27,15.27,0,0,1,2.29.84,6.32,6.32,0,0,1,1.6,1,3.55,3.55,0,0,1,.93,1.3,4,4,0,0,1,.31,1.63,3.79,3.79,0,0,1-.39,1.73,3.68,3.68,0,0,1-1.1,1.32,5.26,5.26,0,0,1-1.73.84,7.76,7.76,0,0,1-2.23.3,7.61,7.61,0,0,1-2.13-.3,6.17,6.17,0,0,1-1.9-.9,4.64,4.64,0,0,1-1.37-1.49,4.06,4.06,0,0,1-.51-2.06H822a2.82,2.82,0,0,0,.32,1.38,2.59,2.59,0,0,0,.85.95,3.84,3.84,0,0,0,1.23.56,6.19,6.19,0,0,0,1.45.17,4.94,4.94,0,0,0,1.83-.3,2.41,2.41,0,0,0,1.14-.86A2.24,2.24,0,0,0,829.26,271.39Z" transform="translate(0 -2.77)"/><path class="cls-5" d="M844.77,259.72v1.69H832.7v-1.69Zm-5,0v15.62h-2V259.72Z" transform="translate(0 -2.77)"/><path class="cls-5" d="M849.31,259.72v15.62h-2.07V259.72Z" transform="translate(0 -2.77)"/><path class="cls-5" d="M863.55,259.72v1.69H851.48v-1.69Zm-5,0v15.62h-2V259.72Z" transform="translate(0 -2.77)"/><path class="cls-5" d="M874.81,259.72h2.06v10.57a5.18,5.18,0,0,1-.78,2.93A4.86,4.86,0,0,1,874,275a6.74,6.74,0,0,1-2.81.59,6.88,6.88,0,0,1-2.87-.59,4.59,4.59,0,0,1-2-1.75,5.34,5.34,0,0,1-.75-2.93V259.72h2.05v10.57a4.08,4.08,0,0,0,.45,2,2.82,2.82,0,0,0,1.26,1.18,4.89,4.89,0,0,0,3.78,0,2.82,2.82,0,0,0,1.26-1.18,4.08,4.08,0,0,0,.45-2Z" transform="translate(0 -2.77)"/><path class="cls-5" d="M889.56,270.37h2.06a6.52,6.52,0,0,1-.85,2.65,5,5,0,0,1-1.94,1.86,6.6,6.6,0,0,1-3.14.68,5.81,5.81,0,0,1-2.49-.52,5.52,5.52,0,0,1-1.93-1.46,6.9,6.9,0,0,1-1.24-2.29,9.58,9.58,0,0,1-.43-3v-1.55a9.58,9.58,0,0,1,.43-3,6.6,6.6,0,0,1,1.26-2.29,5.35,5.35,0,0,1,2-1.47,6.38,6.38,0,0,1,2.6-.52,6.25,6.25,0,0,1,3,.67,4.81,4.81,0,0,1,1.9,1.84,6.69,6.69,0,0,1,.85,2.72h-2.06a5.78,5.78,0,0,0-.56-1.88,2.85,2.85,0,0,0-1.16-1.22,4.53,4.53,0,0,0-3.79,0,3.57,3.57,0,0,0-1.32,1.12,4.94,4.94,0,0,0-.8,1.75,8.89,8.89,0,0,0-.27,2.27v1.57a9.28,9.28,0,0,0,.24,2.16,5.88,5.88,0,0,0,.73,1.77,3.45,3.45,0,0,0,3.06,1.63,4.52,4.52,0,0,0,2.11-.42,2.74,2.74,0,0,0,1.18-1.2A6.3,6.3,0,0,0,889.56,270.37Z" transform="translate(0 -2.77)"/><path class="cls-5" d="M896.65,259.72v15.62h-2.07V259.72Z" transform="translate(0 -2.77)"/><path class="cls-5" d="M912.44,267v1a10.26,10.26,0,0,1-.45,3.16,6.71,6.71,0,0,1-1.26,2.37,5.46,5.46,0,0,1-2,1.49,6.16,6.16,0,0,1-2.58.52,6,6,0,0,1-2.54-.52,5.7,5.7,0,0,1-2-1.49,6.94,6.94,0,0,1-1.3-2.37,10,10,0,0,1-.46-3.16v-1a9.85,9.85,0,0,1,.46-3.15,6.76,6.76,0,0,1,1.29-2.37,5.49,5.49,0,0,1,2-1.5,6.2,6.2,0,0,1,2.54-.52,6.32,6.32,0,0,1,2.58.52,5.37,5.37,0,0,1,2,1.5,6.74,6.74,0,0,1,1.28,2.37A10.15,10.15,0,0,1,912.44,267Zm-2.05,1v-1a9.62,9.62,0,0,0-.29-2.47,5.31,5.31,0,0,0-.83-1.81,3.56,3.56,0,0,0-1.34-1.1,4.08,4.08,0,0,0-1.78-.38,4,4,0,0,0-1.75.38,3.69,3.69,0,0,0-1.33,1.1,5.33,5.33,0,0,0-.85,1.81,9.18,9.18,0,0,0-.3,2.47v1a9.33,9.33,0,0,0,.3,2.49,5.34,5.34,0,0,0,.86,1.81,3.82,3.82,0,0,0,1.34,1.11,4,4,0,0,0,1.75.38,4.09,4.09,0,0,0,1.79-.38,3.62,3.62,0,0,0,1.33-1.11,5.3,5.3,0,0,0,.82-1.81A10.29,10.29,0,0,0,910.39,268Z" transform="translate(0 -2.77)"/><path class="cls-5" d="M927.55,259.72v15.62h-2.09l-7.86-12v12h-2.07V259.72h2.07l7.9,12.08V259.72Z" transform="translate(0 -2.77)"/><path class="cls-5" d="M933.28,259.72v15.62H931.2V259.72Zm7.74,0v1.69h-8.16v-1.69Zm-1,6.72v1.68h-7.18v-1.68Zm1.09,7.22v1.68h-8.27v-1.68Z" transform="translate(0 -2.77)"/><path class="cls-5" d="M952,271.39a2.7,2.7,0,0,0-.16-1,1.89,1.89,0,0,0-.58-.76,4.9,4.9,0,0,0-1.14-.66,14.64,14.64,0,0,0-1.83-.63,16.73,16.73,0,0,1-2.09-.77,7.23,7.23,0,0,1-1.6-1,3.94,3.94,0,0,1-1-1.26,3.51,3.51,0,0,1-.35-1.62,3.79,3.79,0,0,1,.37-1.68,3.89,3.89,0,0,1,1.08-1.35,5.18,5.18,0,0,1,1.68-.89,6.79,6.79,0,0,1,2.18-.33,6.26,6.26,0,0,1,3,.67,4.8,4.8,0,0,1,1.87,1.75,4.42,4.42,0,0,1,.64,2.31H952a3.22,3.22,0,0,0-.37-1.57,2.63,2.63,0,0,0-1.14-1.07,4.22,4.22,0,0,0-1.93-.39,4.4,4.4,0,0,0-1.83.33,2.32,2.32,0,0,0-1.06.9,2.39,2.39,0,0,0-.35,1.3,1.93,1.93,0,0,0,.21.9,2.23,2.23,0,0,0,.65.74,5.44,5.44,0,0,0,1.14.64,12.89,12.89,0,0,0,1.66.55,15.27,15.27,0,0,1,2.29.84,6.32,6.32,0,0,1,1.6,1,3.67,3.67,0,0,1,.93,1.3,4.19,4.19,0,0,1,.31,1.63,3.79,3.79,0,0,1-.39,1.73,3.7,3.7,0,0,1-1.11,1.32,5.21,5.21,0,0,1-1.72.84,8.1,8.1,0,0,1-4.37,0,6.39,6.39,0,0,1-1.9-.9,4.72,4.72,0,0,1-1.36-1.49,4.06,4.06,0,0,1-.51-2.06h2.06a2.93,2.93,0,0,0,.31,1.38,2.71,2.71,0,0,0,.86.95,3.84,3.84,0,0,0,1.23.56,6.17,6.17,0,0,0,1.44.17,5,5,0,0,0,1.84-.3,2.41,2.41,0,0,0,1.14-.86A2.24,2.24,0,0,0,952,271.39Z" transform="translate(0 -2.77)"/><polygon class="cls-5" points="88.44 350.24 79.15 350.24 83.8 342.19 88.44 334.14 93.08 342.19 97.73 350.24 88.44 350.24"/><polygon class="cls-5" points="873.63 350.24 864.34 350.24 868.98 342.19 873.63 334.14 878.27 342.19 882.91 350.24 873.63 350.24"/><line class="cls-4" x1="190.37" y1="262.09" x2="251.01" y2="262.09"/><polygon class="cls-5" points="201.14 262.09 201.14 271.38 193.1 266.74 185.05 262.09 193.1 257.45 201.14 252.8 201.14 262.09"/><polygon class="cls-5" points="238.84 262.09 238.84 252.8 246.89 257.45 254.93 262.09 246.89 266.74 238.84 271.38 238.84 262.09"/><line class="cls-4" x1="451.41" y1="262.09" x2="512.05" y2="262.09"/><polygon class="cls-5" points="462.18 262.09 462.18 271.38 454.14 266.74 446.09 262.09 454.14 257.45 462.18 252.8 462.18 262.09"/><polygon class="cls-5" points="499.88 262.09 499.88 252.8 507.93 257.45 515.97 262.09 507.93 266.74 499.88 271.38 499.88 262.09"/><line class="cls-4" x1="712.45" y1="262.09" x2="773.1" y2="262.09"/><polygon class="cls-5" points="723.22 262.09 723.22 271.38 715.18 266.74 707.13 262.09 715.18 257.45 723.22 252.8 723.22 262.09"/><polygon class="cls-5" points="760.92 262.09 760.92 252.8 768.97 257.45 777.01 262.09 768.97 266.74 760.92 271.38 760.92 262.09"/></g></g></svg>